<svg width="12651" height="12500" viewBox="0 0 12651 12500" fill="none" xmlns="http://www.w3.org/2000/svg">
<path d="M6578.32 1253.71L6610.06 383.287H5970.84L5970.84 1581.97L6095.91 2059.91L6486.9 2244.7L6782.33 2214.81L7432.18 1942.08L7643.75 2006.35L7533.95 2244.7V2613.76L7780.33 2929.76L8040.09 3074.88L8827.49 3239.37L9035.47 3710.86L8894.93 3855.93L7927.52 3961.69L7419.78 4192.9L7285.51 4621.87V5186.84L7480.49 5619.45L8043.09 6252.59L8110.5 6521.61L7628.09 6747.51L7144.26 6714.84L6810.41 6332.84L6502.24 6114.56L6119.65 6760.63L6782.33 7387.5H7526.26L8521.39 7167.47L8803.88 6770.95L8830.73 6362.94L8675.07 5879.91L8072.12 5286.03L7927.52 4862.62L8214.91 4599.42L8926.66 4572.22L9497.89 4471.46L9801.62 4141.54L9712.23 3239.37L9476.49 2803.21L9334.68 2613.76L8799.73 2423.35L8425.22 2315L8402.87 1635.61L8214.91 1317.18L7834.1 1117.71L7339.95 1176.64L6820.6 1438.94H6610.06L6578.32 1253.71Z" fill="#97592D"/>
<path d="M3466.49 5563.27L3538.34 5502.17L3940.2 5895.15L4295.55 6012.62L4650.38 5947.26L5006.69 5825.9L5146.27 5875.02L5226.39 6211.81L5383.26 6432.97L6141.19 6770.39L6539.55 6129.65L6170.63 5973.1L5861.88 5875.02L5575.13 5304.05L5331.63 5131.69H4984.45L4439.86 5345.94L4274.16 5287.32L3735.35 4755.88L3327.58 4703.97L2915.48 4970.76L2761.83 5330.52L2915.48 5844V6111.93L2639.2 6311.09L2224.74 6379.23L1894.44 6622.06L1687.64 6978.78L1736.76 7387.2L1950.37 7670.46L2411.86 7852.26H2957.23L3373.1 7710.83L3704.13 7414.55L3881.97 7480.78L3992.89 7659.96L3837.65 7961.18L3570.51 8408.77L3629.12 8994.84L3954.38 9243.91L4385.14 9273.22L4583.5 9704.27L4878.09 9875.27L6204.39 9918.25L6766 9900.11L7174.45 9974.83V10081.8L6583.31 10184.5L6124.15 10383.7L5749.69 11036.3V12459.3H6434.42V11421.5L6547.33 11036.3L6846.78 10864.1L7667.44 10766L7941.02 10550.1L8051.41 10218.9L8037.01 9873.31L7853.48 9503.04L7489.86 9282.96L5155.9 9206.77L4745.56 8690.08L4405.4 8631.63L4368.51 8461.03L4610.77 8098.16L4670.15 7525.56L4577.97 7116.05L4264.56 6820.9L3704.13 6806.63L3199.74 7006.39L2601.22 7221.49L2499.99 7057.6L3078.44 6782.84L3408.64 6503.25L3584.59 6093.52L3466.49 5563.27Z" fill="#97592D"/>
<path d="M6356.6 12395.1H5836.34V11351.7L5913.09 10925.3L6225.82 10504.5L6669.31 10257.2L7138.4 10237.3L7411.32 10189L7476.71 10032.6L7345.93 9887.62L6913.81 9793.8L5284.8 9813.7L5335.98 9324.72L6970.67 9276.38L7493.77 9344.62L7869.04 9651.65L8039.61 10189L7869.04 10504.5L7581.9 10709.2L6996.25 10749L6527.17 10950.9L6356.6 11351.7V12395.1Z" fill="#425155"/>
<path d="M6216.57 6666.97L6461.71 6206.57L6628.29 6307.18L6804.74 6476.52L7143.63 6809.81L7465.72 6829.42L8037.08 6688.42L8205.13 6454.11L8104.3 6134.82L7485.33 5445.83L7381.7 4938.89L7429.31 4429.15L7610.74 4199.73L8124.37 4056.76L9008.65 3966.75L9130.44 3834.37L9082.78 3410.76L8897.45 3161.89L8558.56 2994.51L8050.68 2950.27L7699.91 2722.75L7646.19 2337.22L7794.71 1929.58L7725.19 1763.99H7504.84L7033.58 2018.15L6519.95 2139.94L6186.36 2018.15L6011.62 1679.27V493.164H6519.95V1573.36L6620.56 1636.9L6821.77 1515.12L7457.19 1234.48H7891.38L8267.33 1515.12L8373 1860.06L8267.33 2160.26V2413.06L8722.71 2484.12L9082.78 2595.32L9432.25 2865.37L9622.88 3357.81L9686.42 3929.68L9569.93 4242.09L9162.2 4448.6L8050.24 4506.84L7849.02 4655.11L7891.38 5232.27L8558.56 5841.21L8722.71 6307.18L8659.17 6857.86L8367.94 7133.21L7287.74 7345.01L6871.96 7283.14L6628.29 7120.7L6421.03 6854.62L6216.57 6666.97Z" fill="#425155"/>
<rect x="6060.12" y="11954.9" width="135" height="70" transform="rotate(-90 6060.12 11954.9)" fill="#BF3232"/>
</svg>
