<svg width="2000" height="1378" viewBox="0 0 2000 1378" fill="none" xmlns="http://www.w3.org/2000/svg">
<g id="markers">
<g id="map1">
<path id="Vector 1" d="M1007.5 1253.5C1007.5 1099.5 1261 1108 1261 936.5C1261 765 964.601 865.5 908.5 746C852.399 626.5 1059 598 1059 448C1059 305.475 875 345.5 875 222" stroke="white" stroke-opacity="0.73" stroke-width="11" stroke-dasharray="40 40"/>
<rect id="Rectangle 3" x="1007.36" y="1227.49" width="38" height="38" rx="11" transform="rotate(45 1007.36 1227.49)" fill="#FF4A3E" stroke="#CD3B32" stroke-width="12"/>
<rect id="Rectangle 4" x="1260.36" y="910.485" width="38" height="38" rx="11" transform="rotate(45 1260.36 910.485)" fill="#858585" stroke="#5B5B5B" stroke-width="12"/>
<rect id="Rectangle 5" x="910.355" y="719.485" width="38" height="38" rx="11" transform="rotate(45 910.355 719.485)" fill="#858585" stroke="#5B5B5B" stroke-width="12"/>
<rect id="Rectangle 6" x="1060.36" y="420.485" width="38" height="38" rx="11" transform="rotate(45 1060.36 420.485)" fill="#858585" stroke="#5B5B5B" stroke-width="12"/>
<rect id="Rectangle 8" x="872.355" y="194.485" width="38" height="38" rx="11" transform="rotate(45 872.355 194.485)" fill="#858585" stroke="#5B5B5B" stroke-width="12"/>
</g>
</g>
</svg>
