<svg width="735" height="741" viewBox="0 0 735 741" fill="none" xmlns="http://www.w3.org/2000/svg">
<g id="building1ShadowBase">
<g id="Group 148">
<path id="Vector 1038" d="M694.5 11L6 12L5.5 698.5L221 705L230 714L694.5 698.5L707.5 232L700 225L694.5 11Z" stroke="#FF0000"/>
</g>
<rect id="Rectangle 2196" x="694" y="11" width="20" height="20" rx="3" fill="#FF2F2F"/>
<rect id="Rectangle 2195" x="6" y="12" width="20" height="20" rx="3" fill="#FF2F2F"/>
<rect id="Rectangle 2197" x="5" y="698" width="20" height="20" rx="3" fill="#FF2F2F"/>
<rect id="Rectangle 2198" x="230" y="714" width="20" height="20" rx="4" fill="#FF2F2F"/>
<rect id="Rectangle 2201" x="221" y="705" width="20" height="20" rx="3" fill="#FF2F2F"/>
<rect id="Rectangle 2199" x="694" y="698" width="20" height="20" rx="4" fill="#FF2F2F"/>
<rect id="Rectangle 2200" x="707" y="232" width="20" height="20" rx="4" fill="#FF2F2F"/>
<rect id="Rectangle 2202" x="700" y="225" width="20" height="20" rx="3" fill="#FF2F2F"/>
</g>
</svg>
