<svg width="10000" height="10000" viewBox="0 0 10000 10000" fill="none" xmlns="http://www.w3.org/2000/svg">
<g clip-path="url(#clip0_1527_45511)">
<path opacity="0.4" d="M1751.66 1344.31L1756.95 1319.19C1781.15 1204.18 1881.78 1121.27 1999.3 1119.52C2059.98 1118.61 2118.94 1139.68 2165.3 1178.84L2198.3 1206.7C2306.63 1298.19 2325.61 1457.94 2241.73 1572.26C2148.25 1699.66 1965.76 1719.75 1846.81 1615.74L1840.5 1610.22C1764.97 1544.18 1731 1442.49 1751.66 1344.31Z" fill="#D9A692"/>
<path opacity="0.4" d="M1778.75 3608.49L2091.46 3263.58C2235.89 3104.28 2480.42 3087.67 2645.07 3225.97L2665.71 3243.31C2690.15 3263.84 2712.04 3287.21 2730.92 3312.94L3052.32 3750.88C3189.55 3937.88 3139.47 4202.02 2943.32 4325.81L2701.85 4478.21C2571.02 4560.78 2404.3 4560.5 2273.75 4477.49L1860.47 4214.71C1651.2 4081.66 1612.18 3792.21 1778.75 3608.49Z" fill="#D9A692"/>
<path opacity="0.4" d="M3520.58 2542.85L3702.88 2285.6C3737.51 2236.73 3782.67 2196.27 3835.03 2167.19L4049.14 2048.27C4109 2015.03 4176.38 1997.71 4244.85 1997.97L4775.69 1999.96C5027.99 2000.9 5216.41 2232.34 5166.18 2479.6L5126.69 2673.96C5102.47 2793.18 5025.31 2894.89 4917.03 2950.35L4303.29 3264.66C4190.94 3322.2 4058.02 3323.33 3944.7 3267.71L3670.68 3133.2C3449.52 3024.63 3378.13 2743.87 3520.58 2542.85Z" fill="#D9A692"/>
<path opacity="0.4" d="M4584.01 5906.39L4790.89 6033.73C4841.53 6064.9 4884.58 6106.97 4916.91 6156.87L5031.04 6333.01C5068.14 6390.27 5089.98 6456.08 5094.47 6524.17L5122.93 6955.53C5139.62 7208.45 4919.86 7412.92 4668.79 7378.06L4547.03 7361.16C4427.32 7344.54 4321.55 7274.68 4259.26 7171.11L3948.95 6655.15C3883.89 6546.97 3873.71 6414.43 3921.5 6297.58L4004.1 6095.62C4097.56 5867.07 4373.73 5776.96 4584.01 5906.39Z" fill="#D9A692"/>
<path opacity="0.4" d="M4117.68 4204.48L4210.59 4036.35C4301.33 3872.14 4493.99 3793.06 4673.92 3846.17L5128.98 3980.47C5232.52 4011.03 5319.3 4082.13 5369.63 4177.63L5531.67 4485.12C5625.77 4663.69 5572.08 4884.4 5406.46 4999.79L5181.94 5156.23C5096.33 5215.88 4990.81 5239.71 4887.87 5222.66L4558.33 5168.04C4422.16 5145.48 4307.25 5054.3 4254.31 4926.84L4098.38 4551.35C4051.64 4438.82 4058.75 4311.13 4117.68 4204.48Z" fill="#D9A692"/>
<path opacity="0.4" d="M2671.75 6060.91L2863.23 6076.21C3050.24 6091.15 3201.74 6234.05 3227.57 6419.87L3292.89 6889.81C3307.75 6996.74 3278.77 7105.12 3212.52 7190.36L2999.23 7464.78C2875.36 7624.15 2652.15 7666.26 2478.73 7562.98L2243.62 7422.96C2153.97 7369.57 2088.74 7283.26 2061.83 7182.45L1975.67 6859.72C1940.07 6726.36 1975.74 6584.08 2070.03 6483.29L2347.78 6186.38C2431.03 6097.39 2550.29 6051.2 2671.75 6060.91Z" fill="#D9A692"/>
<path opacity="0.4" d="M818.398 4336.87L1363.95 4303.25C1610.75 4288.04 1800.91 4517.49 1740.17 4757.17C1702.78 4904.72 1760.89 5059.98 1885.96 5146.73L2158.2 5335.53C2408.67 5509.23 2374.06 5889.72 2096.37 6015.38C2007.34 6055.67 1906.48 6061.29 1813.53 6031.13L719.564 5676.22C554.668 5622.73 443 5469.1 443 5295.75L443 4736.11C443 4524.75 607.438 4349.87 818.398 4336.87Z" fill="#D9A692"/>
<path opacity="0.4" d="M7067.82 6031.99L6680.24 6186.97C6600.62 6218.81 6512.87 6224.22 6429.94 6202.39L5917.89 6067.66C5798.77 6036.32 5700.73 5951.84 5652.13 5838.66L5597.48 5711.41C5477.46 5431.9 5700.98 5126.01 6003.74 5155.46L6141.91 5168.89C6308.31 5185.07 6466.35 5092.82 6534.09 4939.97C6637.18 4707.31 6932.61 4635.29 7131.22 4794.39L7250.99 4890.33C7365.26 4981.87 7420.39 5128.53 7394.71 5272.67L7313.11 5730.74C7288.87 5866.79 7196.13 5980.69 7067.82 6031.99Z" fill="#D9A692"/>
<path opacity="0.4" d="M2934.43 4989.62L3165.12 4627.21C3220.38 4540.4 3313.73 4485.15 3416.42 4478.45C3605.06 4466.16 3763.84 4617.89 3760.12 4806.9L3750.74 5283.02C3747.1 5467.61 3617.6 5625.73 3437.35 5665.67L3391.62 5675.8C3201.71 5717.88 3009.05 5617.23 2935.12 5437.31L2901.89 5356.46C2852.45 5236.16 2864.59 5099.34 2934.43 4989.62Z" fill="#D9A692"/>
<path opacity="0.4" d="M2460.97 1654.74L2799.45 1016.5C2863.76 895.238 2985.75 815.419 3122.62 805.052L3222.82 797.462C3367.54 786.501 3506.84 854.784 3586.82 975.888L3718.42 1175.17C3814.25 1320.27 3805.36 1510.65 3696.42 1646.19L3479.14 1916.54C3430.28 1977.32 3364.73 2022.5 3290.54 2046.52L2896.68 2174.01C2694.48 2239.46 2479.27 2119.36 2428.81 1912.92C2407.52 1825.82 2418.96 1733.94 2460.97 1654.74Z" fill="#D9A692"/>
<path opacity="0.4" d="M5895.8 3389.55L5835.52 3081.04C5810.71 2954.06 5848.85 2822.92 5937.89 2729.05L6161.81 2493C6234.21 2416.68 6333.75 2371.95 6438.88 2368.5L6748.92 2358.31C7000.83 2350.03 7197.53 2573.99 7156.8 2822.73L7133.71 2963.74C7124.56 3019.61 7103.65 3072.91 7072.37 3120.1L6794.9 3538.7C6718.6 3653.82 6588.31 3721.43 6450.26 3717.55L6277.14 3712.69C6090.09 3707.43 5931.68 3573.2 5895.8 3389.55Z" fill="#D9A692"/>
<path opacity="0.4" d="M7270.32 4630.18L7194.6 4595.25C6978.23 4495.44 6917.97 4216.05 7073.96 4035.93C7224.09 3862.58 7496.23 3873.16 7632.45 4057.64L7681.98 4124.72C7739.09 4202.07 7760.39 4300.15 7740.5 4394.22C7695.82 4605.54 7466.45 4720.65 7270.32 4630.18Z" fill="#D9A692"/>
<path opacity="0.4" d="M2555.55 2616.66L2579 2559.54C2645.98 2396.29 2850.78 2342.85 2988.99 2452.56C3122 2558.14 3122.8 2759.82 2990.62 2866.45L2942.56 2905.22C2887.14 2949.92 2815.25 2968.79 2745.03 2957.06C2587.26 2930.7 2494.83 2764.64 2555.55 2616.66Z" fill="#D9A692"/>
<path opacity="0.4" d="M8521.41 1892.3L9086.27 2487.97C9232.14 2641.79 9232.67 2882.7 9087.48 3037.17L8588.37 3568.15C8489.51 3673.32 8341.65 3717.07 8201.48 3682.63L7832.16 3591.89C7610.89 3537.53 7479.66 3309.61 7543.74 3090.96L7847.3 2055.05C7934.06 1759 8309.13 1668.44 8521.41 1892.3Z" fill="#D9A692"/>
<path opacity="0.4" d="M7532.7 7806.21L7008.44 8437.91C6873.06 8601.04 6633.92 8630.22 6463.28 8504.43L5876.71 8072.01C5760.53 7986.36 5699.5 7844.76 5717.02 7701.49L5763.19 7324C5790.85 7097.84 6001.55 6940.43 6226.27 6978.04L7290.93 7156.25C7595.2 7207.18 7729.72 7568.82 7532.7 7806.21Z" fill="#D9A692"/>
<path opacity="0.4" d="M9427.53 5190.25L9041.25 5152.62C8857.75 5134.74 8710.23 4993.76 8684.08 4811.25L8618.21 4351.68C8594.59 4186.9 8675.5 4024.72 8821.34 3944.47L8916.31 3892.22C9099.89 3791.22 9330.3 3849 9444.5 4024.67L9801.68 4574.12C9984.36 4855.14 9761.13 5222.75 9427.53 5190.25Z" fill="#D9A692"/>
<path opacity="0.4" d="M8536.88 7682.18L8100.83 6830.38C8016.81 6666.26 8055.86 6465.98 8195.36 6345.44L8630.46 5969.49C8756.42 5860.65 8936.62 5841.2 9082.9 5920.66L9418.85 6103.12C9518 6156.98 9589.8 6250.2 9616.54 6359.82L9797.86 7103.1C9839.77 7274.92 9763.87 7453.87 9611.21 7543.17L9094.89 7845.18C8896.59 7961.17 8641.56 7886.67 8536.88 7682.18Z" fill="#D9A692"/>
<path opacity="0.4" d="M7043.85 6410.82L7105.92 6313.29C7181.12 6195.11 7327.36 6143.65 7460.01 6188.68L7473.22 6193.16C7585.03 6231.12 7661.65 6334.36 7665.59 6452.38C7668.26 6532.37 7637.02 6609.77 7579.57 6665.5L7477.71 6764.3C7388.29 6851.04 7252.53 6868.76 7143.85 6807.88C7002.68 6728.8 6956.98 6547.33 7043.85 6410.82Z" fill="#D9A692"/>
<path opacity="0.4" d="M7798.47 5135.24L7924 5009.19C8106.4 4826.04 8412.01 4861.39 8547.79 5081.33L8558.48 5098.65C8617.81 5194.75 8633.74 5311.45 8602.36 5419.94L8532.58 5661.1C8503.11 5762.97 8434.39 5848.96 8341.53 5900.18L8332.46 5905.18C8124 6020.17 7861.86 5928.73 7770.14 5709.03L7712.77 5571.6C7650.4 5422.2 7684.23 5249.95 7798.47 5135.24Z" fill="#D9A692"/>
<path opacity="0.4" d="M4539.55 1204.66L4563 1147.54C4629.98 984.294 4834.78 930.854 4972.99 1040.56C5106 1146.14 5106.8 1347.82 4974.62 1454.45L4926.56 1493.22C4871.14 1537.92 4799.25 1556.79 4729.03 1545.06C4571.26 1518.7 4478.83 1352.64 4539.55 1204.66Z" fill="#D9A692"/>
<path opacity="0.4" d="M6394.56 4671.83L6223.82 4718.88C5988.9 4783.62 5754.56 4613.82 5742.9 4370.42C5737.7 4261.88 5779.18 4156.3 5856.87 4080.32L5915.47 4023.01C6039.17 3902.03 6226.64 3874.3 6380.07 3954.29L6466.03 3999.11C6609.99 4074.16 6686.72 4235.58 6654.03 4394.6C6626.52 4528.43 6526.28 4635.53 6394.56 4671.83Z" fill="#D9A692"/>
<path d="M2170.5 3894.81L2171 4395.99C2171 4902.21 2726.5 5227.41 3162.2 5118.21C3706.83 4981.72 4083.17 5502.52 3918.85 6211.49C3754.53 6920.47 4800.06 7036.42 5156.52 6715.73C5512.98 6395.03 5405.65 6059.1 5181.04 5662.86C4956.43 5266.63 5156.52 4861.79 5789.27 4878.35C6422.02 4894.92 6341.85 5642.99 6866.6 5795.38C7286.41 5917.3 7749.39 5726.48 7815.4 5486.61C7881.41 5246.75 8005.42 4796.59 8108.25 4437.73C8236.79 3989.15 7683.55 3400.1 7086.58 3484.25C6489.6 3568.4 5949.61 3235.78 5929.74 2943.58C5909.86 2651.37 5557.37 2226.65 4764.28 2551.32C4146.3 2804.31 3503.42 2359.17 3567.03 1693.93C3630.63 1028.68 2581.79 961.097 2337.3 1601.83C2159.94 2066.65 3006.38 2244.92 2733.52 2739.5C2521.5 3123.8 2171 3203.98 2171 3600.21L2171.5 4262.31" stroke="black" stroke-opacity="0.04" stroke-width="410" stroke-linecap="round"/>
<path d="M2170.5 3894.81L2171 4395.99C2171 4902.21 2726.5 5227.41 3162.2 5118.21C3706.83 4981.72 4083.17 5502.52 3918.85 6211.49C3754.53 6920.47 4800.06 7036.42 5156.52 6715.73C5512.98 6395.03 5405.65 6059.1 5181.04 5662.86C4956.43 5266.63 5156.52 4861.79 5789.27 4878.35C6422.02 4894.92 6341.85 5642.99 6866.6 5795.38C7286.41 5917.3 7749.39 5726.48 7815.4 5486.61C7881.41 5246.75 8005.42 4796.59 8108.25 4437.73C8236.79 3989.15 7683.55 3400.1 7086.58 3484.25C6489.6 3568.4 5949.61 3235.78 5929.74 2943.58C5909.86 2651.37 5557.37 2226.65 4764.28 2551.32C4146.3 2804.31 3503.42 2359.17 3567.03 1693.93C3630.63 1028.68 2581.79 961.097 2337.3 1601.83C2159.94 2066.65 3006.38 2244.92 2733.52 2739.5C2521.5 3123.8 2171 3203.98 2171 3600.21L2171.5 4262.31" stroke="#1B4A67" stroke-width="310" stroke-linecap="round"/>
<path d="M2170.5 3894.5L2171 4395.68C2171 4901.9 2726.5 5227.1 3162.2 5117.9C3706.83 4981.41 4083.17 5502.21 3918.85 6211.18C3754.53 6920.16 4800.06 7036.11 5156.52 6715.42C5512.98 6394.72 5405.65 6058.79 5181.04 5662.56C4956.43 5266.32 5156.52 4861.48 5789.27 4878.04C6422.02 4894.61 6341.85 5642.68 6866.6 5795.07C7286.41 5916.99 7749.39 5726.17 7815.4 5486.31C7881.41 5246.44 8005.42 4796.28 8108.25 4437.42C8236.79 3988.84 7683.55 3399.8 7086.58 3483.94C6489.6 3568.09 5949.61 3235.47 5929.74 2943.27C5909.86 2651.06 5557.37 2226.34 4764.28 2551.01C4146.29 2804 3503.42 2358.86 3567.03 1693.62C3630.63 1028.37 2581.79 960.788 2337.3 1601.52C2159.94 2066.34 3006.38 2244.61 2733.52 2739.19C2521.5 3123.49 2171 3203.67 2171 3599.9L2171.5 4262" stroke="#1C506F" stroke-width="200" stroke-linecap="round"/>
<rect x="2888" y="862" width="250" height="189" rx="10" fill="#1B4A68"/>
<rect x="2940" y="862" width="145" height="204" fill="#1C506F"/>
</g>
<defs>
<clipPath id="clip0_1527_45511">
<rect width="10000" height="10000" fill="white"/>
</clipPath>
</defs>
</svg>
