<svg width="10000" height="10000" viewBox="0 0 10000 10000" fill="none" xmlns="http://www.w3.org/2000/svg">
<g filter="url(#filter0_d_1527_45513)">
<path d="M2743.98 3347L3263.83 3300.29C3300.12 3297.03 3335.31 3313.76 3355.68 3343.96L3614.65 3727.88C3649.15 3779.03 3629.57 3848.91 3573.51 3874.67L2957.6 4157.72C2914.24 4177.64 2862.84 4164.16 2834.85 4125.51L2557.1 3741.97C2535.49 3712.12 2532.04 3672.81 2548.12 3639.66L2662.96 3402.95C2678.28 3371.38 2709.03 3350.14 2743.98 3347Z" fill="#BB816E"/>
</g>
<path d="M2887.28 3515.54L3146.21 3497.62C3178.96 3495.35 3210.73 3509.3 3231.23 3534.94L3321.93 3648.42C3364.67 3701.9 3342.25 3781.55 3277.89 3804.87L3063.11 3882.72C3022.35 3897.49 2976.71 3884.32 2950.09 3850.09L2815.24 3676.69C2766.1 3613.5 2807.42 3521.07 2887.28 3515.54Z" fill="#9A6A5A"/>
<g filter="url(#filter1_d_1527_45513)">
<path d="M6127.28 1086H6518.67C6547.77 1086 6575.42 1098.67 6594.42 1120.71L6961.04 1546.08C6988.04 1577.41 6992.97 1622.13 6973.44 1658.59L6636.06 2288.44C6613.85 2329.92 6565.73 2350.3 6520.48 2337.39L5891.57 2158.03C5863.68 2150.07 5840.61 2130.4 5828.36 2104.11L5680.21 1786.26C5665.75 1755.25 5668.15 1719.01 5686.57 1690.18L6043.01 1132.17C6061.38 1103.41 6093.15 1086 6127.28 1086Z" fill="#BB816E"/>
</g>
<path d="M5966.45 1619.04L6209.33 1326.34C6244.72 1283.69 6308.04 1277.95 6350.52 1313.55L6544.17 1475.85C6571.6 1498.83 6584.65 1534.72 6578.4 1569.95L6516.99 1916.28C6506.41 1975.92 6445.66 2012.54 6387.99 1994.04L6174.73 1925.65C6161.07 1921.27 6148.51 1914 6137.91 1904.33L5976.05 1756.8C5936.57 1720.82 5932.34 1660.15 5966.45 1619.04Z" fill="#9A6A5A"/>
<g filter="url(#filter2_d_1527_45513)">
<path d="M102.74 2518.91L428.139 1946.7C433.674 1936.97 437.535 1926.38 439.561 1915.36L591.671 1088.64C598.072 1053.85 622.38 1025.03 655.593 1012.85L1428.21 729.543C1491.72 706.254 1559.55 751.431 1562.54 819.013L1595.5 1564.5L1677.7 2210.14C1680.18 2229.62 1688.33 2247.93 1701.15 2262.8L2071.63 2692.65C2101.7 2727.54 2104.05 2778.46 2077.33 2815.97L1687.76 3362.71C1683.6 3368.55 1680.08 3374.83 1677.26 3381.42L1483.25 3835.16C1472.25 3860.87 1472.53 3890.01 1484 3915.51L1659.9 4306.48C1673.42 4336.54 1671.26 4371.33 1654.13 4399.48L1209.17 5130.91C1194.42 5155.15 1170.07 5171.99 1142.18 5177.22L372.304 5321.68C317.24 5332.01 264.433 5295.1 255.222 5239.83L138.045 4536.77C136.359 4526.65 136.239 4516.33 137.692 4506.17L297.113 3391.68C299.018 3378.36 298.216 3364.8 294.755 3351.8L93.0334 2594.07C86.2831 2568.71 89.7694 2541.72 102.74 2518.91Z" fill="#BB816E"/>
</g>
<path d="M1446.1 2781.59L1195.16 3183.32C1184.32 3200.69 1168.4 3214.31 1149.57 3222.34L863.153 3344.44C809.82 3367.18 748.391 3339.94 729.433 3285.15L595.493 2898.05C589.923 2881.95 588.558 2864.7 591.525 2847.92L645.594 2542.33C651.187 2510.72 671.615 2483.72 700.512 2469.74L980.427 2334.31C1017.05 2316.59 1060.76 2322.82 1090.96 2350.07L1428.27 2654.36C1464.27 2686.84 1471.78 2740.46 1446.1 2781.59Z" fill="#9A6A5A"/>
<path d="M1203.2 1192.05L1306.98 1409.01C1317.32 1430.62 1319.55 1455.21 1313.28 1478.33L1219.53 1824.08C1210.22 1858.4 1183.39 1885.19 1149.06 1894.46L958.182 1945.95C900.705 1961.46 842.494 1923.62 833.328 1864.8L764.634 1423.96C758.741 1386.14 774.952 1348.28 806.386 1326.44L1055.93 1153.07C1106.55 1117.91 1176.61 1136.45 1203.2 1192.05Z" fill="#9A6A5A"/>
<path d="M1210.7 4404.9L945.85 4828.92C929.82 4854.58 903.033 4871.6 872.992 4875.22L608.956 4907.02C549.417 4914.19 497 4867.7 497 4807.73V4381.34C497 4373.8 497.852 4366.29 499.54 4358.95L605.667 3897.1C616.104 3851.69 656.527 3819.5 703.127 3819.5H1028.09C1074.82 3819.5 1115.32 3851.86 1125.63 3897.44L1223.42 4329.86C1229.24 4355.58 1224.67 4382.54 1210.7 4404.9Z" fill="#9A6A5A"/>
<defs>
<filter id="filter0_d_1527_45513" x="2538.09" y="3299.88" width="1193.69" height="966.979" filterUnits="userSpaceOnUse" color-interpolation-filters="sRGB">
<feFlood flood-opacity="0" result="BackgroundImageFix"/>
<feColorMatrix in="SourceAlpha" type="matrix" values="0 0 0 0 0 0 0 0 0 0 0 0 0 0 0 0 0 0 127 0" result="hardAlpha"/>
<feOffset dx="100" dy="100"/>
<feComposite in2="hardAlpha" operator="out"/>
<feColorMatrix type="matrix" values="0 0 0 0 0 0 0 0 0 0 0 0 0 0 0 0 0 0 0.1 0"/>
<feBlend mode="normal" in2="BackgroundImageFix" result="effect1_dropShadow_1527_45513"/>
<feBlend mode="normal" in="SourceGraphic" in2="effect1_dropShadow_1527_45513" result="shape"/>
</filter>
<filter id="filter1_d_1527_45513" x="5670.84" y="1086" width="1414.44" height="1355.24" filterUnits="userSpaceOnUse" color-interpolation-filters="sRGB">
<feFlood flood-opacity="0" result="BackgroundImageFix"/>
<feColorMatrix in="SourceAlpha" type="matrix" values="0 0 0 0 0 0 0 0 0 0 0 0 0 0 0 0 0 0 127 0" result="hardAlpha"/>
<feOffset dx="100" dy="100"/>
<feComposite in2="hardAlpha" operator="out"/>
<feColorMatrix type="matrix" values="0 0 0 0 0 0 0 0 0 0 0 0 0 0 0 0 0 0 0.1 0"/>
<feBlend mode="normal" in2="BackgroundImageFix" result="effect1_dropShadow_1527_45513"/>
<feBlend mode="normal" in="SourceGraphic" in2="effect1_dropShadow_1527_45513" result="shape"/>
</filter>
<filter id="filter2_d_1527_45513" x="89.6675" y="723.353" width="2066.22" height="4660.06" filterUnits="userSpaceOnUse" color-interpolation-filters="sRGB">
<feFlood flood-opacity="0" result="BackgroundImageFix"/>
<feColorMatrix in="SourceAlpha" type="matrix" values="0 0 0 0 0 0 0 0 0 0 0 0 0 0 0 0 0 0 127 0" result="hardAlpha"/>
<feOffset dx="60" dy="60"/>
<feComposite in2="hardAlpha" operator="out"/>
<feColorMatrix type="matrix" values="0 0 0 0 0 0 0 0 0 0 0 0 0 0 0 0 0 0 0.1 0"/>
<feBlend mode="normal" in2="BackgroundImageFix" result="effect1_dropShadow_1527_45513"/>
<feBlend mode="normal" in="SourceGraphic" in2="effect1_dropShadow_1527_45513" result="shape"/>
</filter>
</defs>
</svg>
