<svg width="10000" height="10000" viewBox="0 0 10000 10000" fill="none" xmlns="http://www.w3.org/2000/svg">
<path fill-rule="evenodd" clip-rule="evenodd" d="M2951.8 4241.3L2855 4144.5L2866.94 4124.12L2677.1 3861.97C2655.49 3832.12 2652.04 3792.81 2668.12 3759.66L2782.96 3522.95C2798.28 3491.38 2829.03 3470.14 2863.98 3467L3273.41 3430.21L3336.5 3322.5L3451.32 3438.81C3460.71 3445.59 3468.99 3454.05 3475.68 3463.96L3734.65 3847.88C3769.15 3899.03 3749.57 3968.91 3693.51 3994.67L3077.6 4277.72C3046.21 4292.14 3010.61 4289.06 2982.73 4271.6L2982.5 4272L2980.97 4270.47C2971.04 4263.96 2962.15 4255.59 2954.85 4245.51L2951.8 4241.3Z" fill="black" fill-opacity="0.15"/>
<path d="M2743.98 3347L3263.83 3300.29C3300.12 3297.03 3335.31 3313.76 3355.68 3343.96L3614.65 3727.88C3649.15 3779.03 3629.57 3848.91 3573.51 3874.67L2957.6 4157.72C2914.24 4177.64 2862.84 4164.16 2834.85 4125.51L2557.1 3741.97C2535.49 3712.12 2532.04 3672.81 2548.12 3639.66L2662.96 3402.95C2678.28 3371.38 2709.03 3350.14 2743.98 3347Z" fill="#BB816E"/>
<path d="M2887.28 3515.54L3146.21 3497.62C3178.96 3495.35 3210.73 3509.3 3231.23 3534.94L3321.93 3648.42C3364.67 3701.9 3342.25 3781.55 3277.89 3804.87L3063.11 3882.72C3022.35 3897.49 2976.71 3884.32 2950.09 3850.09L2815.24 3676.69C2766.1 3613.5 2807.42 3521.07 2887.28 3515.54Z" fill="#9A6A5A"/>
<path fill-rule="evenodd" clip-rule="evenodd" d="M5972.93 2256.93L5973 2257L5973 2256.99C5984.02 2266.67 5997.15 2273.91 6011.57 2278.03L6640.48 2457.39C6685.73 2470.3 6733.85 2449.92 6756.06 2408.44L7093.44 1778.59C7112.97 1742.13 7108.04 1697.41 7081.04 1666.08L6714.42 1240.71C6710.06 1235.66 6705.24 1231.09 6700.06 1227.06L6591 1118L6527.71 1206H6247.28C6213.15 1206 6181.38 1223.41 6163.01 1252.17L5806.57 1810.18C5788.15 1839.01 5785.75 1875.25 5800.21 1906.26L5888.25 2095.15L5856 2140L5963.92 2247.92C5966.73 2251.12 5969.74 2254.12 5972.93 2256.93Z" fill="black" fill-opacity="0.15"/>
<path d="M6127.28 1086H6518.67C6547.77 1086 6575.42 1098.67 6594.42 1120.71L6961.04 1546.08C6988.04 1577.41 6992.97 1622.13 6973.44 1658.59L6636.06 2288.44C6613.85 2329.92 6565.73 2350.3 6520.48 2337.39L5891.57 2158.03C5863.68 2150.07 5840.61 2130.4 5828.36 2104.11L5680.21 1786.26C5665.75 1755.25 5668.15 1719.01 5686.57 1690.18L6043.01 1132.17C6061.38 1103.41 6093.15 1086 6127.28 1086Z" fill="#BB816E"/>
<path d="M5966.45 1619.04L6209.33 1326.34C6244.72 1283.69 6308.04 1277.95 6350.52 1313.55L6544.17 1475.85C6571.6 1498.83 6584.65 1534.72 6578.4 1569.95L6516.99 1916.28C6506.41 1975.92 6445.66 2012.54 6387.99 1994.04L6174.73 1925.65C6161.07 1921.27 6148.51 1914 6137.91 1904.33L5976.05 1756.8C5936.57 1720.82 5932.34 1660.15 5966.45 1619.04Z" fill="#9A6A5A"/>
<path fill-rule="evenodd" clip-rule="evenodd" d="M410.553 5420.8C432.576 5438.8 462.101 5447.35 492.304 5441.68L1262.18 5297.22C1290.07 5291.99 1314.42 5275.15 1329.17 5250.91L1774.13 4519.48C1791.26 4491.33 1793.42 4456.54 1779.9 4426.48L1604 4035.51C1592.53 4010.01 1592.25 3980.87 1603.25 3955.16L1797.26 3501.42C1800.08 3494.83 1803.6 3488.55 1807.76 3482.71L2197.33 2935.97C2224.05 2898.46 2221.7 2847.54 2191.63 2812.65L1821.15 2382.8C1808.33 2367.93 1800.18 2349.62 1797.7 2330.14L1715.5 1684.5L1682.54 939.013C1681.12 906.928 1665.08 879.893 1641.84 862.837L1520.5 741.5L1484.93 872.746L775.593 1132.85C742.38 1145.03 718.072 1173.85 711.671 1208.64L559.561 2035.36C557.535 2046.38 553.674 2056.97 548.139 2066.7L222.74 2638.91C209.769 2661.72 206.283 2688.71 213.033 2714.07L414.755 3471.8C418.216 3484.8 419.018 3498.36 417.113 3511.68L257.693 4626.17C256.24 4636.33 256.359 4646.65 258.045 4656.77L334.711 5116.77L286 5296.5L397.566 5408.07C401.09 5412.22 404.939 5416.06 409.065 5419.56L410.5 5421L410.553 5420.8Z" fill="black" fill-opacity="0.15"/>
<path d="M102.74 2518.91L428.139 1946.7C433.674 1936.97 437.535 1926.38 439.561 1915.36L591.671 1088.64C598.072 1053.85 622.38 1025.03 655.593 1012.85L1428.21 729.543C1491.72 706.254 1559.55 751.431 1562.54 819.013L1595.5 1564.5L1677.7 2210.14C1680.18 2229.62 1688.33 2247.93 1701.15 2262.8L2071.63 2692.65C2101.7 2727.54 2104.05 2778.46 2077.33 2815.97L1687.76 3362.71C1683.6 3368.55 1680.08 3374.83 1677.26 3381.42L1483.25 3835.16C1472.25 3860.87 1472.53 3890.01 1484 3915.51L1659.9 4306.48C1673.42 4336.54 1671.26 4371.33 1654.13 4399.48L1209.17 5130.91C1194.42 5155.15 1170.07 5171.99 1142.18 5177.22L372.304 5321.68C317.24 5332.01 264.433 5295.1 255.222 5239.83L138.045 4536.77C136.359 4526.65 136.239 4516.33 137.692 4506.17L297.113 3391.68C299.018 3378.36 298.216 3364.8 294.755 3351.8L93.0334 2594.07C86.2831 2568.71 89.7694 2541.72 102.74 2518.91Z" fill="#BB816E"/>
<path d="M1446.1 2781.59L1195.16 3183.32C1184.32 3200.69 1168.4 3214.31 1149.57 3222.34L863.153 3344.44C809.82 3367.18 748.391 3339.94 729.433 3285.15L595.493 2898.05C589.923 2881.95 588.558 2864.7 591.525 2847.92L645.594 2542.33C651.187 2510.72 671.615 2483.72 700.512 2469.74L980.427 2334.31C1017.05 2316.59 1060.76 2322.82 1090.96 2350.07L1428.27 2654.36C1464.27 2686.84 1471.78 2740.46 1446.1 2781.59Z" fill="#9A6A5A"/>
<path d="M1203.2 1192.05L1306.98 1409.01C1317.32 1430.62 1319.55 1455.21 1313.28 1478.33L1219.53 1824.08C1210.22 1858.4 1183.39 1885.19 1149.06 1894.46L958.182 1945.95C900.705 1961.46 842.494 1923.62 833.328 1864.8L764.634 1423.96C758.741 1386.14 774.952 1348.28 806.386 1326.44L1055.93 1153.07C1106.55 1117.91 1176.61 1136.45 1203.2 1192.05Z" fill="#9A6A5A"/>
<path d="M1210.7 4404.9L945.85 4828.92C929.82 4854.58 903.033 4871.6 872.992 4875.22L608.956 4907.02C549.417 4914.19 497 4867.7 497 4807.73V4381.34C497 4373.8 497.852 4366.29 499.54 4358.95L605.667 3897.1C616.104 3851.69 656.527 3819.5 703.127 3819.5H1028.09C1074.82 3819.5 1115.32 3851.86 1125.63 3897.44L1223.42 4329.86C1229.24 4355.58 1224.67 4382.54 1210.7 4404.9Z" fill="#9A6A5A"/>
</svg>
