<svg width="13918" height="15768" viewBox="0 0 13918 15768" fill="none" xmlns="http://www.w3.org/2000/svg">
<g clip-path="url(#clip0_930_4259)">
<path opacity="0.4" d="M8247.99 15768C8247.99 15616.5 8247.99 15704 8247.99 15623C8232.82 15532.8 8292.59 15277.6 8652.99 14978C9103.49 14603.5 8835.49 13763 8040.49 14046.5C7245.49 14330 7224.99 13656 7341.49 13337.5C7457.99 13019 7893.49 12026 8369.49 12041.5C8845.49 12057 9599.49 11804 9700.99 11419C9802.49 11034 9589.49 10675 8865.49 10978.5C8141.49 11282 7696.49 10720 7954.49 10229C8212.49 9738 7280.99 9586.5 7442.99 8928C7604.99 8269.5 9026.99 9287.5 9234.99 8685C9442.99 8082.5 8380 7823 8836 7153C9195.69 6624.51 9960 6758.5 9897.5 6134.5C9835 5510.5 8209 6063 8665 5258C9121 4453 8460.51 4195.5 7567.5 4595.5C6674.49 4995.5 6522 4225 6949 3900C7376 3575 7360.5 3364.5 7064 2911C6767.5 2457.5 7179.2 2144.82 7763.49 1948C8330.49 1757 8157.49 882.501 7510.49 1111.5C6863.49 1340.5 6494.91 1242 6437.99 884.5C6381.07 527 6884.99 594.5 6884.99 -0.5" stroke="#53656A" stroke-width="500"/>
<path opacity="0.01" d="M8247.99 15768C8247.99 15616.5 8247.99 15704 8247.99 15623C8232.82 15532.8 8292.59 15277.6 8652.99 14978C9103.49 14603.5 8835.49 13763 8040.49 14046.5C7245.49 14330 7224.99 13656 7341.49 13337.5C7457.99 13019 7893.49 12026 8369.49 12041.5C8845.49 12057 9599.49 11804 9700.99 11419C9802.49 11034 9589.49 10675 8865.49 10978.5C8141.49 11282 7696.49 10720 7954.49 10229C8212.49 9738 7280.99 9586.5 7442.99 8928C7604.99 8269.5 9026.99 9287.5 9234.99 8685C9442.99 8082.5 8380 7823 8836 7153C9195.69 6624.51 9960 6758.5 9897.5 6134.5C9835 5510.5 8209 6063 8665 5258C9121 4453 8460.51 4195.5 7567.5 4595.5C6674.49 4995.5 6522 4225 6949 3900C7376 3575 7360.5 3364.5 7064 2911C6767.5 2457.5 7179.2 2144.82 7763.49 1948C8330.49 1757 8157.49 882.501 7510.49 1111.5C6863.49 1340.5 6494.91 1242 6437.99 884.5C6381.07 527 6884.99 594.5 6884.99 -0.5" stroke="#FA5F3D" stroke-width="550"/>
<rect x="8220" y="15696" width="135" height="70" transform="rotate(-90 8220 15696)" fill="#BF3232"/>
<rect x="5736" y="9560" width="269" height="266" fill="#46A325"/>
<rect x="6696" y="9263" width="269" height="266" fill="#46A325"/>
<rect x="5948" y="4971" width="269" height="266" fill="#46A325"/>
<rect x="12139" y="5637" width="269" height="266" fill="#46A325"/>
<rect x="7161" y="4120" width="269" height="266" fill="#46A325"/>
<rect x="5608" y="2265" width="269" height="266" fill="#46A325"/>
<rect x="6095" y="142" width="269" height="266" fill="#46A325"/>
<rect x="8261" y="663" width="269" height="266" fill="#46A325"/>
<rect x="2909" y="42" width="269" height="266" fill="#46A325"/>
<rect x="5422" y="3342" width="269" height="266" fill="#46A325"/>
<rect x="7421" y="11901" width="269" height="266" fill="#46A325"/>
<rect x="7805" y="3311" width="269" height="266" fill="#46A325"/>
<rect x="8889" y="3727" width="269" height="266" fill="#46A325"/>
<rect x="6243" y="2163" width="269" height="266" fill="#46A325"/>
<rect x="7041" y="588" width="269" height="266" fill="#46A325"/>
<rect x="9020" y="6180" width="269" height="266" fill="#46A325"/>
<rect x="7805" y="8151" width="269" height="266" fill="#46A325"/>
<rect x="6428" y="3209" width="269" height="266" fill="#46A325"/>
<rect x="6636" y="1742" width="269" height="266" fill="#46A325"/>
<rect x="7142" y="1508" width="269" height="266" fill="#46A325"/>
<rect x="10270" y="7066" width="269" height="266" fill="#46A325"/>
<rect x="9695" y="8018" width="269" height="266" fill="#46A325"/>
<rect x="5066" y="1012" width="269" height="266" fill="#46A325"/>
<rect x="4315" y="526" width="269" height="266" fill="#46A325"/>
<rect x="10097" y="5002" width="269" height="266" fill="#46A325"/>
<rect x="9241" y="5048" width="269" height="266" fill="#46A325"/>
<rect x="9337" y="4305" width="269" height="266" fill="#46A325"/>
<rect x="9695" y="7066" width="269" height="266" fill="#46A325"/>
<rect x="12273" y="3462" width="269" height="266" fill="#46A325"/>
<rect x="8644" y="6096" width="269" height="266" fill="#46A325"/>
<rect x="9724" y="8569" width="269" height="266" fill="#46A325"/>
<rect x="8349" y="10338" width="269" height="266" fill="#46A325"/>
<rect x="7883" y="9087" width="269" height="266" fill="#46A325"/>
<rect x="8847" y="12708" width="269" height="266" fill="#46A325"/>
<rect x="6191" y="13061" width="269" height="266" fill="#46A325"/>
<rect x="7883" y="12991" width="269" height="266" fill="#46A325"/>
<rect x="7347" y="14387" width="269" height="266" fill="#46A325"/>
<rect x="7213" y="15008" width="269" height="266" fill="#46A325"/>
<rect x="4226" y="15405" width="269" height="266" fill="#46A325"/>
<rect x="6587" y="14520" width="269" height="266" fill="#46A325"/>
<rect x="9086" y="13692" width="269" height="266" fill="#46A325"/>
<rect x="9200" y="14652" width="269" height="266" fill="#46A325"/>
<rect x="9641" y="15273" width="269" height="266" fill="#46A325"/>
<rect x="4484" y="8822" width="269" height="266" fill="#46A325"/>
<rect x="9778" y="13194" width="269" height="266" fill="#46A325"/>
<rect x="6565" y="4971" width="269" height="266" fill="#46A325"/>
<rect x="6867" y="10235" width="347" height="327" fill="#46A325"/>
<rect x="6516" y="12545" width="347" height="327" fill="#46A325"/>
<rect x="6521" y="13394" width="347" height="327" fill="#46A325"/>
<rect x="7866" y="11392" width="347" height="327" fill="#46A325"/>
<rect x="9361" y="9941" width="347" height="327" fill="#46A325"/>
<rect x="9240" y="9232" width="347" height="327" fill="#46A325"/>
<rect x="8247" y="9365" width="347" height="327" fill="#46A325"/>
<rect x="7248" y="8018" width="347" height="327" fill="#46A325"/>
<rect x="7028" y="7544" width="347" height="327" fill="#46A325"/>
<rect x="8073" y="7646" width="347" height="327" fill="#46A325"/>
<rect x="8644" y="9723" width="347" height="327" fill="#46A325"/>
<rect x="8247" y="6412" width="347" height="327" fill="#46A325"/>
<rect x="7742" y="6903" width="347" height="327" fill="#46A325"/>
<rect x="7161" y="2460" width="347" height="327" fill="#46A325"/>
<rect x="7643" y="2397" width="347" height="327" fill="#46A325"/>
<rect x="7335" y="5017" width="347" height="327" fill="#46A325"/>
<rect x="8022" y="2102" width="347" height="327" fill="#46A325"/>
<rect x="8529" y="1475" width="347" height="327" fill="#46A325"/>
<rect x="7832" y="5739" width="347" height="327" fill="#46A325"/>
<rect x="7849" y="5029" width="347" height="327" fill="#46A325"/>
<rect x="8094" y="42" width="347" height="327" fill="#46A325"/>
<rect x="9576" y="358" width="347" height="327" fill="#46A325"/>
<rect x="5642" y="1149" width="347" height="327" fill="#46A325"/>
<rect x="6017" y="2830" width="347" height="327" fill="#46A325"/>
<rect x="6949" y="5606" width="347" height="327" fill="#46A325"/>
<rect x="7201" y="6195" width="347" height="327" fill="#46A325"/>
<rect x="9198" y="7381" width="347" height="327" fill="#46A325"/>
<rect x="10260" y="6412" width="347" height="327" fill="#46A325"/>
<rect x="6392" y="8406" width="347" height="327" fill="#46A325"/>
<rect x="5290" y="8701" width="347" height="327" fill="#46A325"/>
<rect x="6004" y="7707" width="347" height="327" fill="#46A325"/>
<rect x="8113" y="14357" width="347" height="327" fill="#46A325"/>
<rect x="4226" y="14683" width="347" height="327" fill="#46A325"/>
<rect x="2239" y="15141" width="347" height="327" fill="#46A325"/>
<rect x="6113" y="15080" width="347" height="327" fill="#46A325"/>
<rect x="2848" y="14459" width="347" height="327" fill="#46A325"/>
<rect x="12348" y="15304" width="347" height="327" fill="#46A325"/>
<rect x="12407" y="13794" width="347" height="327" fill="#46A325"/>
<rect x="6988" y="10906" width="347" height="327" fill="#46A325"/>
<rect x="8302" y="12513" width="347" height="327" fill="#46A325"/>
<rect x="8665" y="15285" width="347" height="327" fill="#46A325"/>
<rect x="10606" y="13443" width="347" height="327" fill="#46A325"/>
<rect x="6375" y="13957" width="347" height="327" fill="#46A325"/>
<rect x="8471" y="13256" width="347" height="327" fill="#46A325"/>
<rect x="10058" y="10603" width="347" height="327" fill="#46A325"/>
<rect x="9295" y="12430" width="347" height="327" fill="#46A325"/>
<rect x="5909" y="4252" width="347" height="327" fill="#46A325"/>
<rect x="4977" y="4004" width="347" height="327" fill="#46A325"/>
<rect x="5847" y="3576" width="347" height="327" fill="#46A325"/>
<rect x="6767" y="3220" width="347" height="327" fill="#46A325"/>
<rect x="10789" y="15273" width="347" height="327" fill="#46A325"/>
<rect x="5296" y="295" width="347" height="327" fill="#46A325"/>
<rect x="4804" y="1658" width="347" height="327" fill="#46A325"/>
<rect x="3516" y="195" width="347" height="327" fill="#46A325"/>
<rect x="2563" y="684" width="347" height="327" fill="#46A325"/>
<rect x="6082" y="1658" width="347" height="327" fill="#46A325"/>
<rect x="7142" y="244" width="347" height="327" fill="#46A325"/>
<rect x="7915" y="2893" width="347" height="327" fill="#46A325"/>
<rect x="7569" y="3722" width="347" height="327" fill="#46A325"/>
<rect x="8149" y="3401" width="347" height="327" fill="#46A325"/>
<rect x="11070" y="5104" width="347" height="327" fill="#46A325"/>
<rect x="10309" y="5873" width="347" height="327" fill="#46A325"/>
<rect x="10946" y="124" width="347" height="327" fill="#46A325"/>
<rect x="12017" y="795" width="347" height="327" fill="#46A325"/>
<rect x="12986" y="6607" width="347" height="327" fill="#46A325"/>
<rect x="9811" y="12018" width="347" height="327" fill="#46A325"/>
<rect x="11060" y="5873" width="347" height="327" fill="#46A325"/>
<rect x="11671" y="4691" width="347" height="327" fill="#46A325"/>
<path d="M8266 13682.5C8165.5 13713.7 7944.2 13777.9 7863 13785.5C7761.5 13795 7655 13826.5 7622 13785.5C7589 13744.5 7590 13515 7622 13423C7654 13331 7809 13025 7845.5 12971.5" stroke="#592B21" stroke-width="35"/>
<path d="M7830.5 11942.5C7895.5 11884.8 8058.9 11767.3 8192.5 11758.5C8359.5 11747.5 8751.5 11730.5 8857.5 11675.5C8963.5 11620.5 9342.5 11506 9370 11404.5C9397.5 11303 9450 11226.5 9401.5 11188.5C9353 11150.5 9097 11203.5 9027 11233C8957 11262.5 8642 11392 8487 11385.5C8332 11379 8095 11326 7997.5 11269" stroke="#592B21" stroke-width="35"/>
<path d="M8085.5 9571.5C8021.34 9506.83 7879.9 9360.8 7827.5 9294C7762 9210.5 7701.5 9059.5 7746.5 9004.5C7791.5 8949.5 8075 9029.5 8158.5 9047C8242 9064.5 8540 9154 8653.5 9160" stroke="#592B21" stroke-width="35"/>
<path d="M8346 8470.5C8525 8523.34 8878.89 8624.5 8924 8568C8977.5 8501 8983 8458 8746 8196.5C8509 7935 8451 7824 8416 7605C8381 7386 8432 7196 8533.5 7025.5C8635 6855 8921 6645.5 9018.5 6583" stroke="#592B21" stroke-width="40"/>
<path d="M9016.5 6585.5C9110.16 6541.83 9305.11 6441.75 9380 6408C9542 6335 9625.8 6252.86 9600 6172.5C9574.19 6092.14 9278.5 6087 9153 6077.5C9027.5 6068 8843.5 6024.5 8712.5 5997C8581.5 5969.5 8401 5862.5 8341 5778C8281 5693.5 8273 5526 8275 5452.5C8277 5379 8292.5 5248 8341 5150C8389.5 5052 8582 4835 8497.5 4773C8413 4711 8312.5 4707.5 8076.5 4735.5" stroke="#592B21" stroke-width="40"/>
<path d="M9974 5674.5C9847.5 5621.67 9570.9 5514.3 9476.5 5507.5C9358.5 5499 8939 5430 8939 5395C8939 5360 9126.5 5038.5 9117 4896C9107.5 4753.5 9097.5 4415.5 8897.5 4298.5C8697.5 4181.5 8568 4092.5 8344 4096.5C8120 4100.5 8066.5 4120.5 7860 4162C7653.5 4203.5 7490.5 4328 7350 4370C7209.5 4412 7063.49 4430 7021.5 4332C6983.8 4244.04 7173.5 4108 7235 4062.5C7296.5 4017 7475 3840.5 7542.5 3713.5C7594.83 3618.33 7700.3 3400.6 7703.5 3291" stroke="#592B21" stroke-width="35"/>
<path d="M7115.01 1937C7248 1857 7470.5 1747.5 7562 1700C7653.5 1652.5 7852 1564 7794 1475.5C7736 1387 7598 1405.5 7392 1462.5C7186 1519.5 6979 1567.5 6861 1547.5C6743 1527.5 6550 1497 6445 1388" stroke="#592B21" stroke-width="40"/>
<path d="M8058.5 837C7932.33 809.834 7692.5 777.8 7576.5 799C7431.5 825.5 7251 902 7142.5 916.5C7034 931 6780 953 6750 879.5C6720 806 6944 707 7001 625C7058 543 7183.5 341 7185.5 216" stroke="#592B21" stroke-width="35"/>
</g>
<defs>
<clipPath id="clip0_930_4259">
<rect width="13918" height="15768" fill="white"/>
</clipPath>
</defs>
</svg>
