<svg width="12652" height="18794" viewBox="0 0 12652 18794" fill="none" xmlns="http://www.w3.org/2000/svg">
<path d="M5998.45 18792.5C5998.45 18639.5 5998.45 17646.6 5998.45 17491.3C5998.45 17297.2 5921.79 16833.5 5416.22 16833.5C4910.65 16833.5 5036.77 16024.6 4503.15 16013.2C3926.53 16000.9 3973.38 15248.4 4399.52 15200C4747.07 15160.6 5229.79 14979.5 5274.29 14637.5C5318.79 14295.5 5260.5 13890 5729 13890C6197.5 13890 5759.5 13890 6334.5 13890C6909.5 13890 7533.5 13185 7577.5 12774C7630.18 12281.9 7357 12038 6961 12008C6565 11978 6121.83 11625 6180.5 11148C6239.17 10671 6623.13 10710.5 6476 10043.5C6328.87 9376.51 6738 9402.51 6829.5 9147.51C6944.47 8827.09 6666 8428.52 5992 8676.83C5552.5 8838.75 4985.5 8719.61 4985.5 8098.61C4985.5 7804.61 5234.97 7669 5426.78 7427C5877.78 6858 5819.78 6706.4 5426.78 6138.4C5050.73 5594.9 5492.31 5098.33 6084.28 5122.9C6676.25 5147.48 6896 4771.1 6896 4343.5C6896 3915.91 7240.5 3215.5 7788 3215.5C8335.5 3215.5 8686 3082 8686 2608.5C8686 2135 8015 2163.08 8015 1608.93C8015 1165.61 8015 244.427 8015 0.5" stroke="#97592D" stroke-width="650"/>
<path d="M5998.45 18792.5C5998.45 18639.5 5998.45 17646.6 5998.45 17491.3C5998.45 17297.2 5921.79 16833.5 5416.22 16833.5C4910.65 16833.5 5036.77 16024.6 4503.15 16013.2C3926.53 16000.9 3973.38 15248.4 4399.52 15200C4747.07 15160.6 5229.79 14979.5 5274.29 14637.5C5318.79 14295.5 5260.5 13890 5729 13890C6197.5 13890 5759.5 13890 6334.5 13890C6909.5 13890 7533.5 13185 7577.5 12774C7630.18 12281.9 7357 12038 6961 12008C6565 11978 6121.83 11625 6180.5 11148C6239.17 10671 6623.13 10710.5 6476 10043.5C6328.87 9376.51 6738 9402.51 6829.5 9147.51C6944.47 8827.09 6666 8428.52 5992 8676.83C5552.5 8838.75 4985.5 8719.61 4985.5 8098.61C4985.5 7804.61 5234.97 7669 5426.78 7427C5877.78 6858 5819.78 6706.4 5426.78 6138.4C5050.73 5594.9 5492.31 5098.33 6084.28 5122.9C6676.25 5147.48 6896 4771.1 6896 4343.5C6896 3915.91 7240.5 3215.5 7788 3215.5C8335.5 3215.5 8686 3082 8686 2608.5C8686 2135 8015 2163.08 8015 1608.93C8015 1165.61 8015 244.427 8015 0.5" stroke="#425155" stroke-width="500"/>
<path d="M5998.45 18792.5C5998.45 18639.5 5998.45 17646.6 5998.45 17491.3C5998.45 17297.2 5921.79 16833.5 5416.22 16833.5C4910.65 16833.5 5036.77 16024.6 4503.15 16013.2C3926.53 16000.9 3973.38 15248.4 4399.52 15200C4747.07 15160.6 5229.79 14979.5 5274.29 14637.5C5318.79 14295.5 5260.5 13890 5729 13890C6197.5 13890 5759.5 13890 6334.5 13890C6909.5 13890 7533.5 13185 7577.5 12774C7630.18 12281.9 7357 12038 6961 12008C6565 11978 6121.83 11625 6180.5 11148C6239.17 10671 6623.13 10710.5 6476 10043.5C6328.87 9376.51 6738 9402.51 6829.5 9147.51C6944.47 8827.09 6666 8428.52 5992 8676.83C5552.5 8838.75 4985.5 8719.61 4985.5 8098.61C4985.5 7804.61 5234.97 7669 5426.78 7427C5877.78 6858 5819.78 6706.4 5426.78 6138.4C5050.73 5594.9 5492.31 5098.33 6084.28 5122.9C6676.25 5147.48 6896 4771.1 6896 4343.5C6896 3915.91 7240.5 3215.5 7788 3215.5C8335.5 3215.5 8686 3082 8686 2608.5C8686 2135 8015 2163.08 8015 1608.93C8015 1165.61 8015 244.427 8015 0.5" stroke="#53656A" stroke-width="350"/>
</svg>
