<svg width="119" height="157" viewBox="0 0 119 157" fill="none" xmlns="http://www.w3.org/2000/svg">
<path fill-rule="evenodd" clip-rule="evenodd" d="M119 59.5C119 67.1066 117.573 74.3797 114.971 81.0663C114.864 81.6482 114.667 82.2299 114.369 82.7954L113.758 83.9556C112.768 86.1479 111.65 88.2694 110.412 90.3105L83.3905 141.628C73.2664 160.855 45.7336 160.855 35.6095 141.628L8.58829 90.3105C7.35039 88.2694 6.23178 86.1479 5.24213 83.9556L4.63123 82.7954C4.33343 82.2299 4.13583 81.6482 4.02885 81.0663C1.42736 74.3797 0 67.1065 0 59.5C0 26.6391 26.6391 0 59.5 0C92.3609 0 119 26.6391 119 59.5ZM59.5 88C74.6878 88 87 75.6878 87 60.5C87 45.3122 74.6878 33 59.5 33C44.3122 33 32 45.3122 32 60.5C32 75.6878 44.3122 88 59.5 88Z" fill="#BB816E"/>
</svg>
