<svg width="8192" height="7363" viewBox="0 0 8192 7363" fill="none" xmlns="http://www.w3.org/2000/svg">
<g id="floor" clip-path="url(#clip0_2245_1259)">
<rect width="8192" height="7363" fill="#EEDAD5"/>
<g id="floorTexture">
<g id="floorTexture_2">
<path id="Vector 752" d="M1283.45 -691.447L1434.45 -689.013C1715.46 -684.482 1904.3 -399.199 1798.69 -138.754L1689.67 130.108C1664.94 191.093 1625.54 245.035 1574.98 287.151L1533 322.119C1272.45 539.132 877 353.853 877 14.7657L877 -291.499C877 -514.936 1060.04 -695.049 1283.45 -691.447Z" fill="#E6C5BA"/>
<path id="Vector 752_2" d="M1203.75 2474.49L1516.46 2129.58C1660.89 1970.28 1905.42 1953.66 2070.07 2091.96L2090.71 2109.3C2115.15 2129.83 2137.04 2153.2 2155.92 2178.93L2477.32 2616.88C2614.55 2803.87 2564.47 3068.01 2368.32 3191.8L2126.85 3344.2C1996.02 3426.77 1829.3 3426.49 1698.75 3343.48L1285.47 3080.7C1076.2 2947.65 1037.18 2658.2 1203.75 2474.49Z" fill="#E6C5BA"/>
<path id="Vector 753" d="M2945.58 1408.87L3127.88 1151.62C3162.51 1102.75 3207.67 1062.28 3260.03 1033.2L3474.14 914.288C3534 881.046 3601.38 863.724 3669.85 863.981L4200.69 865.97C4452.99 866.916 4641.41 1098.36 4591.18 1345.61L4551.69 1539.97C4527.47 1659.19 4450.31 1760.91 4342.03 1816.36L3728.29 2130.68C3615.94 2188.22 3483.02 2189.35 3369.7 2133.72L3095.68 1999.21C2874.52 1890.65 2803.13 1609.88 2945.58 1408.87Z" fill="#E6C5BA"/>
<path id="Vector 772" d="M5886.95 -1028.56L6175.61 -901.737C6230.45 -877.645 6279.17 -841.546 6318.19 -796.105L6477.74 -610.29C6522.34 -558.344 6552.86 -495.819 6566.38 -428.701L6671.21 91.6851C6721.04 339.021 6532.23 570.148 6279.93 570.675L6081.59 571.09C5959.94 571.344 5844.78 516.223 5768.68 421.312L5337.34 -116.656C5258.37 -215.14 5230.53 -345.12 5262.22 -467.308L5338.86 -762.782C5400.72 -1001.26 5661.39 -1127.67 5886.95 -1028.56Z" fill="#E6C5BA"/>
<path id="Vector 761" d="M3661.01 4816.39L3867.89 4943.73C3918.53 4974.9 3961.58 5016.97 3993.91 5066.87L4108.04 5243.01C4145.14 5300.27 4166.98 5366.08 4171.47 5434.17L4199.93 5865.53C4216.62 6118.45 3996.86 6322.92 3745.79 6288.06L3624.03 6271.16C3504.32 6254.54 3398.55 6184.68 3336.26 6081.11L3025.95 5565.15C2960.89 5456.97 2950.71 5324.43 2998.5 5207.58L3081.1 5005.62C3174.56 4777.07 3450.73 4686.96 3661.01 4816.39Z" fill="#E6C5BA"/>
<path id="Vector 754" d="M3542.68 3070.47L3635.59 2902.34C3726.33 2738.14 3918.99 2659.06 4098.92 2712.16L4553.98 2846.46C4657.52 2877.02 4744.3 2948.13 4794.63 3043.63L4956.67 3351.11C5050.77 3529.69 4997.08 3750.39 4831.46 3865.78L4606.94 4022.22C4521.33 4081.87 4415.81 4105.71 4312.87 4088.65L3983.33 4034.04C3847.16 4011.47 3732.25 3920.3 3679.31 3792.83L3523.38 3417.35C3476.64 3304.82 3483.75 3177.12 3542.68 3070.47Z" fill="#E6C5BA"/>
<path id="Vector 765" d="M2096.75 4926.9L2288.24 4942.2C2475.24 4957.14 2626.74 5100.04 2652.57 5285.86L2717.89 5755.81C2732.75 5862.73 2703.77 5971.12 2637.52 6056.35L2424.23 6330.78C2300.36 6490.15 2077.15 6532.26 1903.73 6428.97L1668.62 6288.95C1578.97 6235.56 1513.74 6149.26 1486.83 6048.45L1400.67 5725.71C1365.07 5592.36 1400.74 5450.07 1495.03 5349.28L1772.79 5052.37C1856.03 4963.39 1975.29 4917.2 2096.75 4926.9Z" fill="#E6C5BA"/>
<path id="Vector 755" d="M243.398 3202.86L788.951 3169.25C1035.75 3154.04 1225.91 3383.48 1165.17 3623.17C1127.78 3770.72 1185.89 3925.98 1310.96 4012.72L1583.2 4201.52C1833.67 4375.23 1799.06 4755.71 1521.37 4881.38C1432.34 4921.67 1331.48 4927.28 1238.53 4897.13L144.564 4542.22C-20.3319 4488.72 -132 4335.1 -132 4161.74L-132 3602.1C-132 3390.74 32.4379 3215.86 243.398 3202.86Z" fill="#E6C5BA"/>
<path id="Vector 762" d="M6492.82 4897.99L6105.24 5052.96C6025.62 5084.8 5937.87 5090.21 5854.94 5068.39L5342.89 4933.65C5223.77 4902.31 5125.73 4817.83 5077.13 4704.65L5022.48 4577.4C4902.46 4297.89 5125.98 3992.01 5428.74 4021.45L5566.91 4034.89C5733.31 4051.07 5891.35 3958.81 5959.09 3805.97C6062.18 3573.31 6357.61 3501.28 6556.22 3660.38L6675.99 3756.33C6790.26 3847.87 6845.39 3994.52 6819.71 4138.67L6738.11 4596.73C6713.87 4732.78 6621.13 4846.68 6492.82 4897.99Z" fill="#E6C5BA"/>
<path id="Vector 774" d="M4103.86 7841.9L3731.55 7890.48C3568 7911.82 3408.12 7830.58 3328.92 7685.9L3142.65 7345.59C3083.51 7237.54 3077.44 7108.27 3126.21 6995.16L3243.29 6723.62C3347.15 6482.73 3650.87 6405.34 3857.34 6567.16L4250.58 6875.35C4293.96 6909.35 4343.91 6934.02 4397.27 6947.8L4805.28 7053.21C5039.35 7113.68 5149.28 7382.4 5024.7 7589.58C4967.31 7685.04 4869.12 7748.71 4758.55 7762.17L4103.86 7841.9Z" fill="#E6C5BA"/>
<path id="Vector 775" d="M-93.0977 8172.03L-169.156 8062.62C-276.506 7908.19 -261.775 7699.84 -133.766 7562.05L108.505 7301.27C168.753 7236.42 248.81 7193.39 336.135 7178.91L431.797 7163.05C742.273 7111.58 987.834 7422.24 866.059 7712.44L824.028 7812.61C799.597 7870.83 789.295 7934.01 793.966 7996.97L811.653 8235.42C827.462 8448.55 665.418 8633.23 452.041 8645.25C317.819 8652.82 189.494 8589.3 114.11 8477.99L-93.0977 8172.03Z" fill="#E6C5BA"/>
<path id="Vector 773" d="M8079.27 8163.87L7603.32 8610.78C7541.81 8668.54 7463.62 8705.36 7379.92 8716L6857.22 8782.4C6704.08 8801.85 6553.42 8731.45 6470.09 8601.51L6308.93 8350.18C6166.52 8128.1 6274.33 7831.4 6526.08 7752.54L6956.7 7617.66C7095.1 7574.31 7199.2 7459.44 7228.75 7317.46L7285.95 7042.61C7337.03 6797.24 7598.58 6658.74 7830.24 6754.4L7962.44 6809C8112.96 6871.15 8210.77 7018.35 8209.76 7181.2L8205.46 7874.75C8204.78 7984.34 8159.16 8088.85 8079.27 8163.87Z" fill="#E6C5BA"/>
<path id="Vector 756" d="M2359.43 3855.61L2590.12 3493.21C2645.38 3406.4 2738.73 3351.14 2841.42 3344.45C3030.06 3332.15 3188.84 3483.89 3185.12 3672.89L3175.74 4149.01C3172.1 4333.6 3042.6 4491.72 2862.35 4531.66L2816.62 4541.79C2626.71 4583.87 2434.05 4483.23 2360.12 4303.31L2326.89 4222.45C2277.45 4102.15 2289.59 3965.33 2359.43 3855.61Z" fill="#E6C5BA"/>
<path id="Vector 757" d="M1885.97 520.754L2224.45 -117.483C2288.76 -238.745 2410.75 -318.564 2547.62 -328.931L2647.82 -336.521C2792.54 -347.482 2931.84 -279.199 3011.82 -158.095L3143.42 41.1878C3239.25 186.286 3230.36 376.67 3121.42 512.204L2904.14 782.557C2855.28 843.339 2789.73 888.517 2715.54 912.532L2321.68 1040.02C2119.48 1105.47 1904.27 985.377 1853.81 778.932C1832.52 691.839 1843.96 599.961 1885.97 520.754Z" fill="#E6C5BA"/>
<path id="Vector 777" d="M9.66639 1763.8L-264.897 1288.29C-333.164 1170.06 -336.043 1025.08 -272.524 904.236C-205.362 776.46 -74.2586 695.085 70.0517 691.603L168.357 689.231C342.19 685.036 498.821 793.626 555.867 957.886L623.615 1152.96C649.198 1226.63 652.691 1306.16 633.664 1381.78L556.75 1687.49C514.495 1855.44 338.466 1952.12 174.061 1897.68C104.703 1874.71 46.2 1827.07 9.66639 1763.8Z" fill="#E6C5BA"/>
<path id="Vector 758" d="M5320.8 2255.56L5260.52 1947.05C5235.71 1820.07 5273.85 1688.93 5362.89 1595.06L5586.81 1359.01C5659.21 1282.69 5758.75 1237.96 5863.88 1234.51L6173.92 1224.32C6425.83 1216.04 6622.53 1440 6581.8 1688.74L6558.71 1829.75C6549.56 1885.62 6528.65 1938.92 6497.37 1986.11L6219.9 2404.71C6143.6 2519.83 6013.31 2587.44 5875.26 2583.56L5702.14 2578.7C5515.09 2573.44 5356.68 2439.21 5320.8 2255.56Z" fill="#E6C5BA"/>
<path id="Vector 759" d="M6881.55 2986.95L6954.26 2903C7110.75 2722.3 7389.74 2718.3 7551.35 2894.42L7563.18 2907.31C7755.94 3117.38 7673.31 3455.92 7405.44 3553.56L7298.74 3592.45C7163.62 3641.71 7012.26 3610.42 6907.75 3511.62C6759.98 3371.93 6748.44 3140.66 6881.55 2986.95Z" fill="#E6C5BA"/>
<path id="Vector 779" d="M5160.8 975.483L5107.39 950.843C4954.75 880.435 4912.24 683.334 5022.28 556.271C5128.19 433.98 5320.17 441.444 5416.27 571.588L5451.21 618.912C5491.5 673.475 5506.52 742.666 5492.5 809.024C5460.98 958.103 5299.17 1039.31 5160.8 975.483Z" fill="#E6C5BA"/>
<path id="Vector 760" d="M1980.55 1482.68L2004 1425.55C2070.98 1262.31 2275.78 1208.87 2413.99 1318.57C2547 1424.15 2547.8 1625.83 2415.62 1732.46L2367.56 1771.23C2312.14 1815.94 2240.25 1834.8 2170.03 1823.07C2012.26 1796.71 1919.83 1630.66 1980.55 1482.68Z" fill="#E6C5BA"/>
<path id="Vector 766" d="M7946.41 758.307L8511.27 1353.97C8657.14 1507.8 8657.67 1748.71 8512.48 1903.17L8013.37 2434.15C7914.51 2539.32 7766.65 2583.08 7626.48 2548.64L7257.16 2457.9C7035.9 2403.54 6904.66 2175.61 6968.74 1956.97L7272.31 921.058C7359.06 625.006 7734.13 534.452 7946.41 758.307Z" fill="#E6C5BA"/>
<path id="Vector 778" d="M7203.28 -73.3498L7726.91 -736.463C7833.67 -871.667 8015.01 -923.327 8176.99 -864.686L8884.74 -608.473C9068.75 -541.86 9177.54 -351.893 9141.89 -159.474L9137.65 -136.601C9092.18 108.769 8835.6 253.058 8602.31 164.449L8341.38 65.3398C8207.14 14.351 8055.87 39.2316 7945.03 130.53L7655.17 369.299C7533.09 469.857 7355.67 465.446 7238.74 358.948C7115.27 246.497 7099.79 57.7147 7203.28 -73.3498Z" fill="#E6C5BA"/>
<path id="Vector 767" d="M6957.7 6672.22L6433.44 7303.92C6298.06 7467.04 6058.92 7496.22 5888.28 7370.43L5301.71 6938.02C5185.53 6852.37 5124.5 6710.76 5142.02 6567.49L5188.19 6190C5215.85 5963.84 5426.55 5806.43 5651.27 5844.05L6715.93 6022.25C7020.2 6073.18 7154.72 6434.82 6957.7 6672.22Z" fill="#E6C5BA"/>
<path id="Vector 768" d="M8852.53 4056.24L8466.25 4018.61C8282.75 4000.74 8135.23 3859.75 8109.08 3677.25L8043.21 3217.68C8019.59 3052.89 8100.5 2890.71 8246.34 2810.47L8341.31 2758.22C8524.89 2657.21 8755.3 2714.99 8869.5 2890.66L9226.68 3440.12C9409.36 3721.14 9186.13 4088.74 8852.53 4056.24Z" fill="#E6C5BA"/>
<path id="Vector 769" d="M7961.88 6548.18L7525.83 5696.38C7441.81 5532.27 7480.86 5331.99 7620.36 5211.44L8055.46 4835.49C8181.42 4726.66 8361.62 4707.21 8507.9 4786.66L8843.85 4969.13C8943 5022.98 9014.8 5116.21 9041.54 5225.83L9222.86 5969.1C9264.77 6140.92 9188.87 6319.88 9036.21 6409.17L8519.89 6711.18C8321.59 6827.17 8066.56 6752.67 7961.88 6548.18Z" fill="#E6C5BA"/>
<path id="Vector 770" d="M6468.85 5276.81L6530.92 5179.29C6606.12 5061.11 6752.36 5009.64 6885.01 5054.67L6898.22 5059.16C7010.03 5097.12 7086.65 5200.36 7090.59 5318.37C7093.26 5398.36 7062.02 5475.76 7004.57 5531.49L6902.71 5630.3C6813.29 5717.03 6677.53 5734.75 6568.85 5673.87C6427.68 5594.79 6381.98 5413.32 6468.85 5276.81Z" fill="#E6C5BA"/>
<path id="Vector 780" d="M4887.68 4885.47L5098.36 5015C5218.62 5088.93 5291 5220.79 5288.81 5361.94L5286.7 5498.38C5284.33 5650.88 5165.15 5775.94 5012.94 5785.63C4933.78 5790.67 4855.97 5763.33 4797.36 5709.88L4482.92 5423.13C4395.55 5343.45 4356.17 5223.92 4379.08 5107.91C4424.72 4876.75 4686.96 4762.06 4887.68 4885.47Z" fill="#E6C5BA"/>
<path id="Vector 771" d="M7223.47 4001.23L7349 3875.19C7531.4 3692.04 7837.01 3727.38 7972.79 3947.33L7983.48 3964.64C8042.81 4060.74 8058.74 4177.44 8027.36 4285.93L7957.58 4527.09C7928.11 4628.96 7859.39 4714.96 7766.53 4766.17L7757.46 4771.18C7549 4886.16 7286.86 4794.72 7195.14 4575.02L7137.77 4437.59C7075.4 4288.2 7109.23 4115.94 7223.47 4001.23Z" fill="#E6C5BA"/>
<path id="Vector 763" d="M3964.55 70.6697L3988 13.5403C4054.98 -149.701 4259.78 -203.141 4397.99 -93.4382C4531 12.1432 4531.8 213.822 4399.62 320.45L4351.56 359.223C4296.14 403.927 4224.25 422.793 4154.03 411.06C3996.26 384.702 3903.83 218.648 3964.55 70.6697Z" fill="#E6C5BA"/>
<path id="Vector 764" d="M6110.67 3288.37L5984.62 3323.11C5811.18 3370.91 5638.16 3245.54 5629.56 3065.84C5625.72 2985.71 5656.34 2907.76 5713.69 2851.67L5739.01 2826.91C5841.05 2727.12 5995.68 2704.25 6122.23 2770.23L6163.44 2791.71C6269.72 2847.12 6326.37 2966.29 6302.24 3083.7C6281.93 3182.5 6207.92 3261.58 6110.67 3288.37Z" fill="#E6C5BA"/>
<path id="Vector 783" d="M1850.78 7638.93L1624.43 7662.41C1394.5 7686.27 1198.26 7497.8 1212.8 7267.09C1231.94 6963.72 1585.92 6808.83 1821.73 7000.65L1998.26 7144.25C2058.08 7192.9 2095.13 7264.12 2100.64 7341.02C2111.43 7491.49 2000.83 7623.36 1850.78 7638.93Z" fill="#E6C5BA"/>
<path id="Vector 759_2" d="M77.3175 -51.8212L1.5965 -86.7497C-214.77 -186.555 -275.033 -465.954 -119.042 -646.072C31.0883 -819.424 303.229 -808.844 439.448 -624.36L488.981 -557.276C546.091 -479.93 567.39 -381.849 547.503 -287.783C502.825 -76.4579 273.453 38.652 77.3175 -51.8212Z" fill="#E6C5BA"/>
<path id="Vector 776" d="M147.315 5900.77L-26.1228 5864.93C-264.762 5815.62 -396.116 5557.76 -295.689 5335.74C-250.906 5236.73 -165.913 5161.61 -62.1557 5129.33L16.1117 5104.97C181.329 5053.57 360.867 5114.22 461.06 5255.29L517.2 5334.33C611.207 5466.69 606.043 5645.34 504.546 5772.05C419.126 5878.69 281.12 5928.41 147.315 5900.77Z" fill="#E6C5BA"/>
</g>
</g>
<g id="road">
<path id="Union" fill-rule="evenodd" clip-rule="evenodd" d="M3933.5 686.5C4046.72 686.5 4138.5 778.281 4138.5 891.5C4138.5 968.516 4146.6 1024.53 4156.05 1089.85C4160.61 1121.38 4165.48 1155.08 4169.91 1194.36C4182.99 1310.36 4184.23 1439.11 4125.24 1595.04C4085.04 1701.27 4039.99 1798.78 3986.74 1884.91C3975.57 1902.97 3971.01 1924.64 3976.56 1945.13C3999.89 2031.29 4040.41 2091.92 4088.32 2133.11C4148.99 2185.26 4238.73 2221 4364.5 2221C4392.09 2221 4431.86 2209.31 4515.34 2164.56C4531.69 2155.79 4550.14 2145.49 4570.33 2134.21C4638.69 2096.02 4726.97 2046.71 4821.04 2008.49C5092.99 1898.03 5435.71 1864.67 5914.74 2094.7C6214.48 2238.64 6291.24 2546.5 6322.5 2798.51C6335.62 2904.3 6342.46 3017.83 6348.94 3125.5C6350.46 3150.83 6351.97 3175.84 6353.53 3200.34C6362.03 3333.61 6372.43 3457.7 6394.7 3571.7C6425.62 3730.04 6382.78 3865.13 6319.04 3973.69C6261.01 4072.54 6179.31 4159.33 6115.71 4226.91L6110.33 4232.62C6038.74 4308.71 5987.39 4364.36 5953.96 4420.12C5924.42 4469.4 5917.93 4504.31 5924.03 4539.75C5938.5 4623.86 5981.64 4669.7 6073.87 4766.03C6163.09 4859.2 6294.45 4999.3 6298.47 5241.09C6303.22 5526.91 6087.84 5699.65 5967.71 5795.99L5963.97 5798.99C5954.92 5806.25 5946.25 5813.18 5937.94 5819.83C5879.24 5866.75 5838.23 5899.52 5807.21 5933.63C5791.4 5951.01 5784.08 5962.74 5780.82 5969.52C5778.28 5974.79 5778.48 5976.35 5778.5 5976.49L5778.5 5976.5C5778.5 6112.53 5779.99 6287.26 5781.48 6428.46C5782.23 6498.95 5782.98 6560.9 5783.54 6605.22C5783.82 6627.38 5784.06 6645.12 5784.22 6657.32C5784.3 6663.42 5784.36 6668.13 5784.41 6671.31L5784.46 6674.92L5784.47 6675.83L5784.47 6676.06L5784.48 6676.11V6676.12C5784.48 6676.12 5784.48 6676.13 5579.5 6679L5704.48 6677.25C5748.66 6676.63 5786.46 6713.25 5770.21 6754.34C5740.56 6829.29 5667.96 6882.78 5582.37 6883.98C5469.16 6885.56 5376.1 6795.08 5374.52 6681.86L5374.52 6681.85L5374.51 6681.78L5374.51 6681.54L5374.5 6680.6L5374.45 6676.94L5374.32 6667.9L5374.26 6662.81C5374.09 6650.52 5373.86 6632.68 5373.57 6610.41C5373.01 6565.88 5372.26 6503.64 5371.51 6432.81C5370.01 6291.34 5368.5 6114.82 5368.5 5976.5C5368.5 5836.06 5437.6 5730.65 5503.92 5657.74C5558.84 5597.37 5628.71 5541.81 5684.03 5497.83C5692.17 5491.36 5699.99 5485.14 5707.4 5479.19C5849.52 5365.17 5889.55 5309.7 5888.53 5247.91C5887.31 5174.81 5859.62 5135.1 5777.74 5049.59C5772.62 5044.24 5767.25 5038.7 5761.67 5032.93V5032.93C5754.28 5025.29 5743.01 5022.83 5733.05 5026.53C5263.52 5200.96 4785.37 5147.24 4353.44 4846.79C4172.19 4720.72 4089.39 4596.64 4030.52 4508.43C4022.76 4496.79 4015.41 4485.78 4008.31 4475.47C3980.07 4434.48 3958.79 4408.53 3930.5 4385.48C3902.16 4362.39 3857.71 4335.02 3777.78 4306.82C3721.82 4287.07 3660.67 4288.29 3577.62 4309.97C3535.41 4320.99 3491.23 4336.29 3440.97 4354.83C3429.52 4359.05 3417.47 4363.55 3405 4368.21C3365.99 4382.79 3322.86 4398.91 3281.14 4412.8C3170.68 4449.59 3028.9 4485.99 2875.82 4457.5C2714.56 4427.5 2573.47 4332.49 2450.01 4171.99C2279.66 3950.52 2150.13 3857.9 2043.81 3781.87C2036.63 3776.74 2029.56 3771.68 2022.59 3766.67C1966.23 3726.11 1897.18 3675.55 1840.37 3602.75C1779.96 3525.34 1742.25 3435.4 1719.99 3324.25C1667.4 3061.65 1779.96 2869.73 1901.1 2722.58C1943.92 2670.57 1993.88 2617.09 2040.12 2567.6C2055.7 2550.92 2070.86 2534.7 2085.19 2519.13C2145.64 2453.43 2200.86 2389.59 2248.22 2319.61C2358.82 2156.17 2467.75 2010.9 2623.85 1927.29C2787.01 1839.9 2967.8 1836.26 3178.73 1860.32C3351.56 1880.04 3447.45 1854.8 3514.9 1807.97C3588.02 1757.21 3663.58 1656.6 3741.76 1449.96C3769.97 1375.42 3771.21 1317.67 3762.49 1240.29C3760.46 1222.25 3757.34 1200.56 3753.81 1175.95C3743.09 1101.27 3728.5 999.658 3728.5 891.5C3728.5 778.281 3820.28 686.5 3933.5 686.5ZM5479.05 4677.86C5508.57 4669.92 5525.15 4639.38 5519.96 4609.25V4609.25C5492.72 4450.87 5537.93 4316.68 5602.32 4209.29C5660.49 4112.27 5741.14 4026.63 5804.18 3959.67C5806.72 3956.98 5809.23 3954.31 5811.71 3951.68C5883.03 3875.88 5933.41 3820.72 5965.48 3766.1C5993.49 3718.39 5999.08 3684.98 5992.3 3650.3V3650.3C5984.46 3610.17 5938.16 3589.85 5903.35 3611.3C5720.23 3724.19 5544.47 3792.79 5377.31 3820.99C5104.73 3866.97 4867.1 3802.98 4682.21 3669C4479.44 3522.06 4302.64 3361.67 4216.81 3141.8C4162.46 3002.57 4150.2 2855.02 4172.13 2694.71C4178.17 2650.56 4149.67 2608.55 4106.83 2596.28C4001.28 2566.03 3904.43 2515.69 3821.05 2444.02C3764.07 2395.03 3715.92 2338.26 3676.62 2275.11C3653.77 2238.39 3607.76 2221.95 3566.69 2235.52C3432.64 2279.81 3286.61 2285.29 3132.26 2267.68C2942.92 2246.08 2866.96 2262.19 2817.44 2288.71C2760.86 2319.02 2701.17 2381.83 2587.78 2549.39C2523.14 2644.91 2451.52 2726.51 2386.9 2796.74C2367.3 2818.04 2348.94 2837.7 2331.59 2856.28C2288.5 2902.41 2251.65 2941.85 2217.64 2983.17C2128.85 3091.02 2104.91 3158.35 2122.01 3243.75C2134.6 3306.6 2150.55 3333.79 2163.6 3350.51C2180.25 3371.84 2204.44 3392.41 2262.05 3433.86C2268.73 3438.67 2275.6 3443.58 2282.65 3448.63C2399.83 3532.47 2567.81 3652.67 2774.99 3922.01C2852.28 4022.49 2911.27 4047.06 2950.83 4054.42C2998.56 4063.31 3058.33 4054.87 3151.58 4023.81C3185.67 4012.46 3218.74 4000.1 3255.77 3986.27C3269.57 3981.11 3283.93 3975.75 3299.09 3970.16C3351.93 3950.67 3411.57 3929.58 3474.06 3913.27C3600.43 3880.28 3752.24 3863.03 3914.22 3920.18C4028.67 3960.57 4117.16 4008.7 4189.48 4067.63C4261.85 4126.59 4308.95 4189.18 4345.94 4242.86C4355.1 4256.17 4363.74 4269 4372.12 4281.47C4427.33 4363.53 4471.86 4429.73 4587.56 4510.21C4872.43 4708.36 5171.74 4760.53 5479.05 4677.86ZM4652.63 2554.98C4631.92 2565.09 4615.77 2583 4609.52 2605.18C4556.8 2792.1 4565.44 2907.39 4598.74 2992.7C4639.68 3097.58 4733.64 3199.94 4922.79 3337C5017.46 3405.61 5143.58 3444.62 5309.12 3416.7C5464.96 3390.41 5664.59 3302.85 5904.41 3106.92C5924.03 3090.9 5934.53 3066.25 5932.84 3040.98C5928.35 2973.77 5923.21 2910.18 5915.62 2848.99C5886.01 2610.25 5829.02 2508.36 5737.26 2464.3C5359.29 2282.8 5137.01 2322.68 4975.33 2388.35C4906.92 2416.14 4850.52 2447.61 4787.12 2482.97C4762.52 2496.7 4736.86 2511.01 4709.05 2525.92C4691.45 2535.35 4672.62 2545.22 4652.63 2554.98Z" fill="black" fill-opacity="0.04"/>
<path id="Union_2" fill-rule="evenodd" clip-rule="evenodd" d="M3934.5 736.808C4020.1 736.808 4089.5 806.204 4089.5 891.808C4089.5 972.416 4098.29 1033.38 4107.99 1100.63C4112.47 1131.66 4117.14 1164.02 4121.22 1200.27C4133.77 1311.56 4134.71 1431.65 4079.47 1577.66C4035.3 1694.4 3985.9 1798.34 3927.18 1887.1C3920.71 1896.88 3918 1908.77 3920.31 1920.27C3943.31 2034.65 3992.93 2116.49 4056.72 2171.33C4128 2232.61 4229.97 2271.31 4365.5 2271.31C4406.57 2271.31 4455.96 2253.96 4539.96 2208.93C4557.53 2199.52 4576.85 2188.73 4597.66 2177.11C4665.83 2139.04 4750.01 2092.03 4840.85 2055.13C5099.35 1950.13 5427.38 1915.97 5894.09 2140.08C6168.47 2271.84 6242.82 2554.58 6273.88 2804.98C6286.79 2909.02 6293.5 3020.53 6299.98 3128.1C6301.52 3153.62 6303.04 3178.91 6304.63 3203.83C6313.14 3337.32 6323.69 3464.18 6346.62 3581.6C6374.6 3724.85 6336.31 3847.54 6276.92 3948.68C6221.78 4042.59 6143.45 4125.83 6079.03 4194.29L6074.91 4198.67C6004.24 4273.78 5948.81 4333.45 5912.08 4394.71C5878.28 4451.08 5867.08 4498.1 5875.75 4548.53C5892.98 4648.7 5946.77 4704.87 6035.34 4797.35L6038.75 4800.92C6127.07 4893.15 6245.8 5021.01 6249.47 5242.23C6253.81 5503.36 6055.79 5662.33 5933.67 5760.3C5924.71 5767.49 5916.04 5774.42 5907.65 5781.12C5849.55 5827.53 5805.11 5863.04 5771.22 5900.29C5734.95 5940.16 5729.49 5962.54 5729.49 5976.81C5729.49 6113.12 5730.99 6288.07 5732.48 6429.29C5733.23 6499.83 5733.98 6561.81 5734.54 6606.16C5734.82 6628.33 5735.06 6646.09 5735.22 6658.3C5735.3 6664.4 5735.37 6669.12 5735.41 6672.31L5735.46 6675.92L5735.47 6676.83L5735.48 6677.06L5735.48 6677.12V6677.13C5735.48 6677.13 5735.48 6677.14 5580.49 6679.31L5690.48 6677.77C5715.33 6677.42 5736.42 6697.69 5729.65 6721.61C5711.46 6785.84 5652.84 6833.31 5582.66 6834.29C5497.07 6835.49 5426.71 6767.07 5425.51 6681.47L5425.51 6681.46L5425.51 6681.39L5425.5 6681.16L5425.49 6680.22L5425.44 6676.56C5425.39 6673.34 5425.33 6668.59 5425.25 6662.45C5425.08 6650.17 5424.85 6632.34 5424.57 6610.08C5424 6565.58 5423.25 6503.38 5422.5 6432.58C5421 6291.15 5419.49 6114.85 5419.49 5976.81C5419.49 5853.89 5479.76 5760.01 5541.9 5691.69C5593.86 5634.58 5660.13 5581.85 5715.79 5537.56C5724.02 5531.02 5732.01 5524.66 5739.68 5518.5C5879.03 5406.71 5941 5336.86 5939.52 5247.38C5937.96 5153.72 5897.63 5101.76 5814.85 5015.31C5809.83 5010.07 5804.63 5004.69 5799.27 4999.15C5794.58 4994.29 5789.76 4989.3 5784.86 4984.2C5771.95 4970.75 5752.13 4966.44 5734.73 4973.13C5274.37 5150.16 4806.71 5100.8 4382.98 4806.05C4209.79 4685.58 4131.69 4568.66 4073.13 4481C4065.29 4469.26 4057.8 4458.04 4050.48 4447.41C4021.17 4404.87 3996.75 4374.45 3963.08 4347.02C3929.38 4319.56 3879.56 4289.67 3795.42 4259.97C3726.53 4235.66 3654.32 4238.84 3565.99 4261.9C3521.3 4273.57 3475.24 4289.57 3424.66 4308.22C3412.8 4312.6 3400.47 4317.21 3387.82 4321.93C3348.97 4336.45 3307.11 4352.09 3266.33 4365.67C3157.98 4401.76 3026.2 4434.75 2885.96 4408.66C2739.54 4381.41 2608.47 4295 2490.64 4141.81C2315.79 3914.51 2181.6 3818.54 2073.91 3741.52C2066.75 3736.4 2059.72 3731.37 2052.79 3726.39C1996.27 3685.73 1932.7 3638.82 1880.78 3572.3C1826.15 3502.29 1791.09 3420 1770.01 3314.74C1721.76 3073.75 1823.51 2897.02 1940.7 2754.67C1982.42 2703.98 2030.73 2652.27 2076.7 2603.07C2092.53 2586.13 2108.07 2569.5 2122.98 2553.3C2183.94 2487.04 2241.16 2421.03 2290.63 2347.94C2401.57 2184 2504.49 2048.79 2648.46 1971.68C2797.76 1891.71 2965.76 1886.54 3174.06 1910.31C3353.55 1930.78 3463.28 1905.67 3544.41 1849.35C3629.83 1790.06 3709.99 1678.19 3789.53 1467.96C3821.48 1383.49 3822.43 1317.08 3813.17 1234.99C3810.89 1214.77 3807.56 1191.51 3803.86 1165.73C3793.18 1091.34 3779.5 995.927 3779.5 891.808C3779.5 806.204 3848.89 736.808 3934.5 736.808ZM5552.06 4709.01C5575.43 4701.49 5587.47 4676.15 5581.29 4652.39C5577 4635.9 5573.29 4618.81 5570.24 4601.08C5545.57 4457.7 5586.06 4335.62 5646.2 4235.31C5701.52 4143.04 5778.85 4060.9 5842.63 3993.14C5844.82 3990.83 5846.98 3988.53 5849.13 3986.25C5919.59 3911.35 5974.16 3852.08 6009.59 3791.73C6041.97 3736.59 6052.09 3690.78 6042.37 3641.02C6036.61 3611.5 6031.55 3581.72 6027.07 3551.84C6021.99 3517.85 5982.55 3500.61 5954.1 3519.89C5747.55 3659.8 5552.24 3741.25 5369.99 3771.99C5110.47 3815.77 4886.43 3754.83 4712.54 3628.82C4511.43 3483.09 4344.74 3329.77 4264.39 3123.92C4205.27 2972.48 4198.65 2808.53 4236.05 2622.98C4241.34 2596.74 4223.6 2571.18 4197.28 2566.3C4068.11 2542.33 3951.27 2489.47 3854.64 2406.41C3783.45 2345.22 3726.72 2270.62 3684.78 2185.4C3672.92 2161.31 3643.49 2151 3619.05 2162.12C3476.74 2226.88 3315.95 2238.5 3138.93 2218.31C2946.95 2196.41 2858.21 2211 2794.83 2244.94C2726.11 2281.75 2660.42 2354.62 2547.36 2521.68C2484.83 2614.08 2415.22 2693.52 2351.1 2763.2C2332.21 2783.73 2314.25 2802.96 2297.08 2821.33C2253.49 2868 2215.1 2909.1 2180.03 2951.7C2087.3 3064.34 2052.55 3146.86 2073.98 3253.87C2087.74 3322.62 2106.36 3357.46 2125.18 3381.58C2146.72 3409.19 2176.38 3433.41 2233.84 3474.75C2240.55 3479.58 2247.43 3484.51 2254.5 3489.56C2370.39 3572.48 2533.66 3689.3 2736.35 3952.81C2819.27 4060.6 2888.27 4093.77 2942.67 4103.89C3003.25 4115.16 3073.03 4103.31 3168.37 4071.56C3203.38 4059.9 3237.64 4047.1 3274.99 4033.15C3288.65 4028.04 3302.72 4022.79 3317.39 4017.38C3369.92 3998 3427.67 3977.62 3487.69 3961.96C3608.77 3930.35 3749.53 3915.05 3898.58 3967.64C4008.81 4006.54 4091.94 4052.14 4158.9 4106.7C4225.89 4161.28 4269.84 4219.4 4305.76 4271.54C4314.63 4284.42 4323.09 4297.01 4331.4 4309.37C4387.21 4392.41 4436.38 4465.57 4560 4551.56C4875.49 4771.01 5210.32 4818.95 5552.06 4709.01ZM4599 2525.62C4586.99 2530.98 4577.62 2541.05 4573.73 2553.61C4507.1 2768.83 4512.12 2906.06 4553.16 3011.2C4599.58 3130.09 4703.63 3239.53 4894.44 3377.8C5000.12 3454.38 5139.84 3496.44 5318.43 3466.31C5492.78 3436.9 5711.64 3337.07 5970.83 3117.86C5981.58 3108.77 5987.39 3095.06 5986.51 3081.01C5981.27 2997.33 5975.57 2918.4 5966.24 2843.14C5936.42 2602.79 5877.02 2475.78 5759.9 2419.53C5369.61 2232.11 5132.64 2271.21 4957.51 2342.34C4886.07 2371.36 4825.99 2404.87 4761.56 2440.81C4737.4 2454.29 4712.63 2468.11 4686.42 2482.16C4659.33 2496.68 4630.12 2511.75 4599 2525.62Z" fill="#1C506F"/>
<path id="Union_3" fill-rule="evenodd" clip-rule="evenodd" d="M3934.5 791.5C3989.72 791.5 4034.5 836.271 4034.5 891.5C4034.5 976.116 4044.08 1042.72 4054.03 1111.85C4058.4 1142.2 4062.84 1173.05 4066.57 1206.12C4078.53 1312.23 4079.14 1422.8 4028.03 1557.89C3983.63 1675.22 3934.71 1776.94 3877.56 1862.08C3866.07 1879.2 3860.6 1899.91 3864.35 1920.18C3888.39 2050.19 3944.39 2146.99 4020.87 2212.73C4103.83 2284.04 4219.25 2326 4365.49 2326C4421.4 2326 4481.38 2302.43 4565.95 2257.1C4584.9 2246.94 4605.18 2235.62 4626.66 2223.63C4694.49 2185.76 4774.23 2141.25 4861.55 2105.78C5105.26 2006.78 5417.13 1971.75 5870.28 2189.35C6116.76 2307.71 6188.46 2562.82 6219.3 2811.44C6231.97 2913.58 6238.55 3022.85 6245.03 3130.31C6246.58 3156.03 6248.12 3181.64 6249.74 3207.03C6258.27 3340.74 6268.98 3470.66 6292.64 3591.83C6317.38 3718.5 6284.08 3827.55 6229.49 3920.53C6177.53 4009.03 6102.83 4088.42 6037.3 4158.07L6034.85 4160.67C5965.19 4234.71 5905.27 4298.8 5864.91 4366.12C5826.43 4430.29 5810.03 4490.62 5821.55 4557.55C5841.65 4674.46 5906.2 4741.79 5991.11 4830.39C5993.73 4833.12 5996.37 4835.87 5999.03 4838.65C6086.36 4929.86 6191.18 5044.25 6194.48 5242.84C6198.31 5473.51 6024.43 5616.67 5899.26 5717.09C5890.44 5724.17 5881.82 5731.05 5873.4 5737.77C5815.85 5783.71 5767.59 5822.24 5730.54 5862.97C5689.68 5907.89 5674.49 5942.96 5674.49 5976.5C5674.49 6113.12 5675.99 6288.3 5677.49 6429.57C5678.23 6500.15 5678.98 6562.17 5679.55 6606.55C5679.83 6628.73 5680.06 6646.5 5680.22 6658.73C5680.31 6664.84 5680.37 6669.56 5680.41 6672.75L5680.46 6676.38L5680.48 6677.29L5680.48 6677.52L5680.48 6677.58L5680.48 6677.59C5680.48 6677.6 5680.48 6677.6 5580.49 6679L5600.49 6678.72C5644.67 6678.1 5682.42 6718.52 5651.16 6749.75C5633.4 6767.49 5608.98 6778.61 5581.89 6778.99C5526.67 6779.76 5481.27 6735.62 5480.5 6680.39L5480.5 6680.38L5480.5 6680.32L5480.5 6680.08L5480.48 6679.15L5480.43 6675.49L5480.34 6669.05L5480.24 6661.4C5480.08 6649.14 5479.84 6631.32 5479.56 6609.08C5479 6564.6 5478.25 6502.44 5477.5 6431.69C5476 6290.29 5474.49 6114.23 5474.49 5976.5C5474.49 5872.86 5525.04 5791.66 5582.59 5728.4C5631.3 5674.84 5693.64 5625.21 5749.67 5580.59C5757.97 5573.98 5766.14 5567.48 5774.1 5561.09C5910.39 5451.75 5996.5 5366.09 5994.51 5246.16C5992.58 5129.86 5938.33 5064.44 5854.57 4976.97C5849.74 4971.92 5844.8 4966.8 5839.77 4961.58C5823.5 4944.71 5806.3 4926.88 5788.95 4907.68C5782.16 4900.17 5771 4898.8 5761.67 4902.72V4902.72C5302.8 5095.16 4837.14 5054.65 4414.39 4760.59C4250.04 4646.27 4177.09 4537.19 4118.92 4450.19C4110.99 4438.34 4103.34 4426.89 4095.77 4415.9C4065.29 4371.66 4037.4 4336.32 3997.82 4304.08C3958.22 4271.81 3902.49 4239.13 3813.72 4207.8C3730.61 4178.47 3646.23 4183.8 3552.1 4208.38C3504.69 4220.75 3456.55 4237.53 3405.63 4256.31C3393.3 4260.86 3380.66 4265.58 3367.82 4270.38C3329.18 4284.82 3288.69 4299.95 3248.95 4313.18C3142.91 4348.5 3022.13 4377.74 2896.02 4354.28C2765.93 4330.07 2645.87 4253.1 2534.23 4107.97C2354.45 3874.24 2215.1 3774.58 2105.93 3696.5C2098.79 3691.39 2091.79 3686.39 2084.91 3681.44C2028.23 3640.65 1970.67 3597.77 1924.14 3538.15C1875.86 3476.28 1843.72 3402.41 1823.94 3303.64C1780.44 3086.42 1870.31 2926.4 1983.16 2789.32C2023.69 2740.08 2070.19 2690.3 2115.83 2641.45C2131.91 2624.24 2147.88 2607.14 2163.45 2590.23C2224.97 2523.36 2284.39 2454.98 2336.18 2378.45C2447.49 2213.96 2543.81 2089.81 2674.42 2019.85C2808.48 1948.05 2962.42 1941.21 3167.83 1964.64C3354.65 1985.96 3479.59 1960.99 3575.77 1894.23C3674.71 1825.55 3759.94 1701.28 3840.97 1487.11C3877.06 1391.73 3877.66 1315.79 3867.83 1228.52C3865.26 1205.77 3861.68 1180.82 3857.82 1153.86C3847.23 1080.08 3834.5 991.267 3834.5 891.5C3834.5 836.271 3879.27 791.5 3934.5 791.5ZM5587.37 4754.97C5630.41 4740.45 5649.31 4691.64 5637.1 4647.89C5632.08 4629.9 5627.82 4611.1 5624.44 4591.45C5602.61 4464.56 5637.91 4355.79 5693.37 4263.28C5745.57 4176.22 5819.3 4097.88 5884.08 4029.05L5889.18 4023.63C5958.71 3949.73 6017.88 3885.93 6057.02 3819.26C6094.19 3755.97 6109.31 3696.52 6096.35 3630.17C6089.22 3593.63 6083.18 3556.64 6078.01 3519.45C6069.26 3456.52 5995.09 3424.4 5942.87 3460.6C5734.07 3605.37 5539.4 3687.33 5360.84 3717.45C5115.68 3758.8 4906.6 3701.21 4744.82 3583.97C4545.53 3439.57 4389.95 3294.04 4315.62 3103.61C4260.1 2961.39 4253.77 2804.81 4292.4 2621.71C4302.97 2571.58 4267.58 2522.39 4217.09 2513.67C4092.39 2492.14 3981.25 2442.41 3890.49 2364.4C3799.08 2285.81 3732.77 2182.33 3693.51 2059.78C3693.02 2058.23 3691.16 2057.6 3689.82 2058.52V2058.52C3538.93 2163.26 3358.62 2187.71 3145.16 2163.36C2950.29 2141.12 2847.48 2154.04 2768.86 2196.15C2686.79 2240.11 2614.49 2324.04 2501.81 2490.55C2441.6 2579.52 2374.18 2656.58 2310.63 2725.65C2292.5 2745.35 2274.96 2764.13 2258.02 2782.26C2213.91 2829.48 2173.8 2872.42 2137.57 2916.43C2040.5 3034.35 1993.86 3133.58 2020.05 3264.36C2035.11 3339.59 2056.64 3382.85 2081.82 3415.11C2108.75 3449.62 2144.43 3477.87 2201.72 3519.09C2208.46 3523.94 2215.36 3528.88 2222.44 3533.94C2336.9 3615.83 2495.01 3728.95 2692.76 3986.03C2781.87 4101.88 2861.89 4144.49 2932.61 4157.65C3007.32 4171.56 3088.1 4155.96 3185.75 4123.43C3221.77 4111.43 3257.36 4098.14 3295.04 4084.06C3308.53 4079.03 3322.28 4073.89 3336.42 4068.67C3388.6 4049.42 3444.28 4029.82 3501.58 4014.86C3616.85 3984.77 3745.45 3971.62 3880.27 4019.2C3985.88 4056.47 4063.1 4099.28 4124.15 4149.03C4185.24 4198.79 4225.72 4252 4260.47 4302.43C4269.04 4314.87 4277.31 4327.2 4285.54 4339.46C4341.95 4423.48 4396.22 4504.33 4528.6 4596.41C4864.19 4829.84 5223.31 4877.79 5587.37 4754.97ZM4570.79 2477.63C4548.86 2487.21 4531.24 2505.11 4524.04 2527.93C4452.4 2754.99 4454.1 2908.36 4501.93 3030.89C4554.36 3165.21 4669.53 3282.43 4862.17 3422.03C4979.95 3507.37 5134.63 3552.78 5327.57 3520.24C5522.83 3487.3 5762.62 3373.39 6042.14 3128.75V3128.75C6043.56 3127.5 6044.37 3125.67 6044.25 3123.78C6038.13 3022.63 6032.05 2926.65 6020.82 2836.06C5990.78 2593.93 5928.73 2439.29 5783.7 2369.65C5379.86 2175.71 5126.73 2213.93 4936.81 2291.07C4862 2321.46 4797.81 2357.27 4732.39 2393.77C4708.75 2406.95 4684.95 2420.23 4660.43 2433.37C4631.84 2448.7 4601.95 2464 4570.79 2477.63Z" fill="#1B4A67"/>
</g>
</g>
<defs>
<clipPath id="clip0_2245_1259">
<rect width="8192" height="7363" fill="white"/>
</clipPath>
</defs>
</svg>
