<svg width="7462" height="5625" viewBox="0 0 7462 5625" fill="none" xmlns="http://www.w3.org/2000/svg">
<g id="floor" clip-path="url(#clip0_2245_1259)">
<rect width="7462" height="5625" fill="#EEDAD5"/>
<g id="floorTexture">
<g id="floorTexture_2">
<path id="Vector 752" d="M907.749 1610.49L1220.46 1265.58C1364.89 1106.28 1609.42 1089.66 1774.07 1227.96L1794.71 1245.3C1819.15 1265.83 1841.04 1289.2 1859.92 1314.93L2181.32 1752.88C2318.55 1939.87 2268.47 2204.01 2072.32 2327.8L1830.85 2480.2C1700.02 2562.77 1533.3 2562.49 1402.75 2479.48L989.465 2216.7C780.2 2083.65 741.184 1794.2 907.749 1610.49Z" fill="#E6C5BA"/>
<path id="Vector 753" d="M2649.58 544.866L2831.88 287.616C2866.51 238.748 2911.67 198.281 2964.03 169.201L3178.14 50.2884C3238 17.046 3305.38 -0.275937 3373.85 -0.0193554L3904.69 1.97016C4156.99 2.91577 4345.41 234.356 4295.18 481.609L4255.69 675.974C4231.47 795.191 4154.31 896.905 4046.03 952.358L3432.29 1266.68C3319.94 1324.22 3187.02 1325.35 3073.7 1269.72L2799.68 1135.21C2578.52 1026.65 2507.13 745.882 2649.58 544.866Z" fill="#E6C5BA"/>
<path id="Vector 761" d="M3365.01 3952.39L3571.89 4079.73C3622.53 4110.9 3665.58 4152.97 3697.91 4202.87L3812.04 4379.01C3849.14 4436.27 3870.98 4502.08 3875.47 4570.17L3903.93 5001.53C3920.62 5254.45 3700.86 5458.92 3449.79 5424.06L3328.03 5407.16C3208.32 5390.54 3102.55 5320.68 3040.26 5217.11L2729.95 4701.15C2664.89 4592.97 2654.71 4460.43 2702.5 4343.58L2785.1 4141.62C2878.56 3913.07 3154.73 3822.96 3365.01 3952.39Z" fill="#E6C5BA"/>
<path id="Vector 754" d="M3246.68 2206.47L3339.59 2038.34C3430.33 1874.14 3622.99 1795.06 3802.92 1848.16L4257.98 1982.46C4361.52 2013.02 4448.3 2084.13 4498.63 2179.63L4660.67 2487.11C4754.77 2665.69 4701.08 2886.39 4535.46 3001.78L4310.94 3158.22C4225.33 3217.87 4119.81 3241.71 4016.87 3224.65L3687.33 3170.04C3551.16 3147.47 3436.25 3056.3 3383.31 2928.83L3227.38 2553.35C3180.64 2440.82 3187.75 2313.12 3246.68 2206.47Z" fill="#E6C5BA"/>
<path id="Vector 765" d="M1800.75 4062.9L1992.23 4078.2C2179.24 4093.14 2330.74 4236.04 2356.57 4421.86L2421.89 4891.81C2436.75 4998.73 2407.77 5107.12 2341.52 5192.35L2128.23 5466.78C2004.36 5626.15 1781.15 5668.26 1607.73 5564.97L1372.62 5424.95C1282.97 5371.56 1217.74 5285.26 1190.83 5184.45L1104.67 4861.71C1069.07 4728.36 1104.74 4586.07 1199.03 4485.28L1476.78 4188.37C1560.03 4099.39 1679.29 4053.2 1800.75 4062.9Z" fill="#E6C5BA"/>
<path id="Vector 755" d="M-52.6017 2338.86L492.951 2305.25C739.747 2290.04 929.914 2519.48 869.172 2759.17C831.779 2906.72 889.886 3061.98 1014.96 3148.72L1287.2 3337.52C1537.67 3511.23 1503.06 3891.71 1225.37 4017.38C1136.34 4057.67 1035.48 4063.28 942.535 4033.13L-151.436 3678.22C-316.332 3624.72 -428 3471.1 -428 3297.74L-428 2738.1C-428 2526.74 -263.562 2351.86 -52.6017 2338.86Z" fill="#E6C5BA"/>
<path id="Vector 762" d="M6196.82 4033.99L5809.24 4188.96C5729.62 4220.8 5641.87 4226.21 5558.94 4204.39L5046.89 4069.65C4927.77 4038.31 4829.73 3953.83 4781.13 3840.65L4726.48 3713.4C4606.46 3433.89 4829.98 3128.01 5132.74 3157.45L5270.91 3170.89C5437.31 3187.07 5595.35 3094.81 5663.09 2941.97C5766.18 2709.31 6061.61 2637.28 6260.22 2796.38L6379.99 2892.33C6494.26 2983.87 6549.39 3130.52 6523.71 3274.67L6442.11 3732.73C6417.87 3868.78 6325.13 3982.68 6196.82 4033.99Z" fill="#E6C5BA"/>
<path id="Vector 774" d="M3807.86 6977.9L3435.55 7026.48C3272 7047.82 3112.12 6966.58 3032.92 6821.9L2846.65 6481.59C2787.51 6373.54 2781.44 6244.27 2830.21 6131.16L2947.29 5859.62C3051.15 5618.73 3354.87 5541.34 3561.34 5703.16L3954.58 6011.35C3997.96 6045.35 4047.91 6070.02 4101.27 6083.8L4509.28 6189.21C4743.35 6249.68 4853.28 6518.4 4728.7 6725.58C4671.31 6821.04 4573.12 6884.71 4462.55 6898.17L3807.86 6977.9Z" fill="#E6C5BA"/>
<path id="Vector 773" d="M7783.27 7299.87L7307.32 7746.78C7245.81 7804.54 7167.62 7841.36 7083.92 7852L6561.22 7918.4C6408.08 7937.85 6257.42 7867.45 6174.09 7737.51L6012.93 7486.18C5870.52 7264.1 5978.33 6967.4 6230.08 6888.54L6660.7 6753.66C6799.1 6710.31 6903.2 6595.44 6932.75 6453.46L6989.95 6178.61C7041.03 5933.24 7302.58 5794.74 7534.24 5890.4L7666.44 5945C7816.96 6007.15 7914.77 6154.35 7913.76 6317.2L7909.46 7010.75C7908.78 7120.34 7863.16 7224.85 7783.27 7299.87Z" fill="#E6C5BA"/>
<path id="Vector 756" d="M2063.43 2991.61L2294.12 2629.21C2349.38 2542.4 2442.73 2487.14 2545.42 2480.45C2734.06 2468.15 2892.84 2619.89 2889.12 2808.89L2879.74 3285.01C2876.1 3469.6 2746.6 3627.72 2566.35 3667.66L2520.62 3677.79C2330.71 3719.87 2138.05 3619.23 2064.12 3439.31L2030.89 3358.45C1981.45 3238.15 1993.59 3101.33 2063.43 2991.61Z" fill="#E6C5BA"/>
<path id="Vector 757" d="M1589.97 -343.246L1928.45 -981.483C1992.76 -1102.74 2114.75 -1182.56 2251.62 -1192.93L2351.82 -1200.52C2496.54 -1211.48 2635.84 -1143.2 2715.82 -1022.1L2847.42 -822.812C2943.25 -677.714 2934.36 -487.33 2825.42 -351.796L2608.14 -81.4426C2559.28 -20.6607 2493.73 24.5165 2419.54 48.5317L2025.68 176.024C1823.48 241.474 1608.27 121.377 1557.81 -85.0682C1536.52 -172.161 1547.96 -264.039 1589.97 -343.246Z" fill="#E6C5BA"/>
<path id="Vector 777" d="M-286.334 899.796L-560.897 424.29C-629.164 306.06 -632.043 161.084 -568.524 40.2363C-501.362 -87.5404 -370.259 -168.915 -225.948 -172.397L-127.643 -174.769C46.1903 -178.964 202.821 -70.3738 259.867 93.8864L327.615 288.96C353.198 362.625 356.691 442.161 337.664 517.785L260.75 823.49C218.495 991.441 42.4657 1088.12 -121.939 1033.68C-191.297 1010.71 -249.8 963.067 -286.334 899.796Z" fill="#E6C5BA"/>
<path id="Vector 758" d="M5024.8 1391.56L4964.52 1083.05C4939.71 956.071 4977.85 824.93 5066.89 731.061L5290.81 495.005C5363.21 418.69 5462.75 373.962 5567.88 370.507L5877.92 360.319C6129.83 352.04 6326.53 576.002 6285.8 824.743L6262.71 965.752C6253.56 1021.62 6232.65 1074.92 6201.37 1122.11L5923.9 1540.71C5847.6 1655.83 5717.31 1723.44 5579.26 1719.56L5406.14 1714.7C5219.09 1709.44 5060.68 1575.21 5024.8 1391.56Z" fill="#E6C5BA"/>
<path id="Vector 759" d="M6585.55 2122.95L6658.26 2039C6814.75 1858.3 7093.74 1854.3 7255.35 2030.42L7267.18 2043.31C7459.94 2253.38 7377.31 2591.92 7109.44 2689.56L7002.74 2728.45C6867.62 2777.71 6716.26 2746.42 6611.75 2647.62C6463.98 2507.93 6452.44 2276.66 6585.55 2122.95Z" fill="#E6C5BA"/>
<path id="Vector 779" d="M4864.8 111.483L4811.39 86.8426C4658.75 16.4353 4616.24 -180.666 4726.28 -307.729C4832.19 -430.02 5024.17 -422.556 5120.27 -292.412L5155.21 -245.088C5195.5 -190.525 5210.52 -121.334 5196.5 -54.9756C5164.98 94.1031 5003.17 175.307 4864.8 111.483Z" fill="#E6C5BA"/>
<path id="Vector 760" d="M1684.55 618.68L1708 561.551C1774.98 398.309 1979.78 344.87 2117.99 454.573C2251 560.154 2251.8 761.833 2119.62 868.461L2071.56 907.234C2016.14 951.938 1944.25 970.804 1874.03 959.071C1716.26 932.712 1623.83 766.658 1684.55 618.68Z" fill="#E6C5BA"/>
<path id="Vector 766" d="M7650.41 -105.693L8215.27 489.974C8361.14 643.799 8361.67 884.711 8216.48 1039.17L7717.37 1570.15C7618.51 1675.32 7470.65 1719.08 7330.48 1684.64L6961.16 1593.9C6739.9 1539.54 6608.66 1311.61 6672.74 1092.97L6976.31 57.0577C7063.06 -238.994 7438.13 -329.548 7650.41 -105.693Z" fill="#E6C5BA"/>
<path id="Vector 778" d="M6907.28 -937.35L7430.91 -1600.46C7537.67 -1735.67 7719.01 -1787.33 7880.99 -1728.69L8588.74 -1472.47C8772.75 -1405.86 8881.54 -1215.89 8845.89 -1023.47L8841.65 -1000.6C8796.18 -755.231 8539.6 -610.942 8306.31 -699.551L8045.38 -798.66C7911.14 -849.649 7759.87 -824.768 7649.03 -733.47L7359.17 -494.701C7237.09 -394.143 7059.67 -398.554 6942.74 -505.052C6819.27 -617.503 6803.79 -806.285 6907.28 -937.35Z" fill="#E6C5BA"/>
<path id="Vector 767" d="M6661.7 5808.22L6137.44 6439.92C6002.06 6603.04 5762.92 6632.22 5592.28 6506.43L5005.71 6074.02C4889.53 5988.37 4828.5 5846.76 4846.02 5703.49L4892.19 5326C4919.85 5099.84 5130.55 4942.43 5355.27 4980.05L6419.93 5158.25C6724.2 5209.18 6858.72 5570.82 6661.7 5808.22Z" fill="#E6C5BA"/>
<path id="Vector 768" d="M8556.53 3192.24L8170.25 3154.61C7986.75 3136.74 7839.23 2995.75 7813.08 2813.25L7747.21 2353.68C7723.59 2188.89 7804.5 2026.71 7950.34 1946.47L8045.31 1894.22C8228.89 1793.21 8459.3 1850.99 8573.5 2026.66L8930.68 2576.12C9113.36 2857.14 8890.13 3224.74 8556.53 3192.24Z" fill="#E6C5BA"/>
<path id="Vector 769" d="M7665.88 5684.18L7229.83 4832.38C7145.81 4668.27 7184.86 4467.99 7324.36 4347.44L7759.46 3971.49C7885.42 3862.66 8065.62 3843.21 8211.9 3922.66L8547.85 4105.13C8647 4158.98 8718.8 4252.21 8745.54 4361.83L8926.86 5105.1C8968.77 5276.92 8892.87 5455.88 8740.21 5545.17L8223.89 5847.18C8025.59 5963.17 7770.56 5888.67 7665.88 5684.18Z" fill="#E6C5BA"/>
<path id="Vector 770" d="M6172.85 4412.81L6234.92 4315.29C6310.12 4197.11 6456.36 4145.64 6589.01 4190.67L6602.22 4195.16C6714.03 4233.12 6790.65 4336.36 6794.59 4454.37C6797.26 4534.36 6766.02 4611.76 6708.57 4667.49L6606.71 4766.3C6517.29 4853.03 6381.53 4870.75 6272.85 4809.87C6131.68 4730.79 6085.98 4549.32 6172.85 4412.81Z" fill="#E6C5BA"/>
<path id="Vector 780" d="M4591.68 4021.47L4802.36 4151C4922.62 4224.93 4995 4356.79 4992.81 4497.94L4990.7 4634.38C4988.33 4786.88 4869.15 4911.94 4716.94 4921.63C4637.78 4926.67 4559.97 4899.33 4501.36 4845.88L4186.92 4559.13C4099.55 4479.45 4060.17 4359.92 4083.08 4243.91C4128.72 4012.75 4390.96 3898.06 4591.68 4021.47Z" fill="#E6C5BA"/>
<path id="Vector 771" d="M6927.47 3137.23L7053 3011.19C7235.4 2828.04 7541.01 2863.38 7676.79 3083.33L7687.48 3100.64C7746.81 3196.74 7762.74 3313.44 7731.36 3421.93L7661.58 3663.09C7632.11 3764.96 7563.39 3850.96 7470.53 3902.17L7461.46 3907.18C7253 4022.16 6990.86 3930.72 6899.14 3711.02L6841.77 3573.59C6779.4 3424.2 6813.23 3251.94 6927.47 3137.23Z" fill="#E6C5BA"/>
<path id="Vector 764" d="M5814.67 2424.37L5688.62 2459.11C5515.18 2506.91 5342.16 2381.54 5333.56 2201.84C5329.72 2121.71 5360.34 2043.76 5417.69 1987.67L5443.01 1962.91C5545.05 1863.12 5699.68 1840.25 5826.23 1906.23L5867.44 1927.71C5973.72 1983.12 6030.37 2102.29 6006.24 2219.7C5985.93 2318.5 5911.92 2397.58 5814.67 2424.37Z" fill="#E6C5BA"/>
<path id="Vector 776" d="M-148.685 5036.77L-322.123 5000.93C-560.762 4951.62 -692.116 4693.76 -591.689 4471.74C-546.906 4372.73 -461.913 4297.61 -358.156 4265.33L-279.888 4240.97C-114.671 4189.57 64.8669 4250.22 165.06 4391.29L221.2 4470.33C315.207 4602.69 310.043 4781.34 208.546 4908.05C123.126 5014.69 -14.8797 5064.41 -148.685 5036.77Z" fill="#E6C5BA"/>
</g>
</g>
<g id="road">
<path id="Union" fill-rule="evenodd" clip-rule="evenodd" d="M3637.5 -229C3750.72 -229 3842.5 -137.218 3842.5 -24V-23.8524V-23.7026V-23.5506V-23.3963V-23.2399V-23.0812V-22.9204V-22.7575V-22.5923V-22.425V-22.2556V-22.084V-21.9103V-21.7345V-21.5566V-21.3765V-21.1944V-21.0102V-20.8239V-20.6356V-20.4452V-20.2527V-20.0582V-19.8617V-19.6631V-19.4625V-19.2599V-19.0554V-18.8488V-18.6402V-18.4297V-18.2172V-18.0028V-17.7864V-17.5681V-17.3478V-17.1256V-16.9016V-16.6756V-16.4477V-16.2179V-15.9863V-15.7528V-15.5174V-15.2802V-15.0411V-14.8002V-14.5575V-14.3129V-14.0666V-13.8184V-13.5685V-13.3168V-13.0633V-12.808V-12.551V-12.2922V-12.0317V-11.7695V-11.5056V-11.2399V-10.9725V-10.7035V-10.4327V-10.1603V-9.88618V-9.61042V-9.33301V-9.05396V-8.77327V-8.49096V-8.20702V-7.92148V-7.63434V-7.34561V-7.05529V-6.7634V-6.46995V-6.17494V-5.87838V-5.58028V-5.28065V-4.97949V-4.67683V-4.37266V-4.06699V-3.75983V-3.4512V-3.14109V-2.82952V-2.5165V-2.20204V-1.88614V-1.56881V-1.25006V-0.929909V-0.608353V-0.285402V0.0389309V0.364639V0.691715V1.02015V1.34993V1.68106V2.01351V2.34729V2.68238V3.01878V3.35648V3.69547V4.03573V4.37727V4.72007V5.06412V5.40942V5.75596V6.10372V6.45271V6.8029V7.1543V7.50689V7.86067V8.21562V8.57174V8.92902V9.28745V9.64701V10.0077V10.3695V10.7325V11.0965V11.4617V11.8279V12.1953V12.5636V12.9331V13.3036V13.6752V14.0478V14.4214V14.796V15.1717V15.5484V15.926V16.3047V16.6843V17.0649V17.4464V17.8289V18.2124V18.5967V18.982V19.3683V19.7554V20.1434V20.5323V20.9221V21.3128V21.7043V22.0967V22.49V22.8841V23.279V23.6747V24.0712V24.4686V24.8667V25.2657V25.6654V26.0659V26.4671V26.8691V27.2718V27.6753V28.0795V28.4844V28.8901V29.2964V29.7034V30.1111V30.5195V30.9285V31.3382V31.7486V32.1596V32.5712V32.9834V33.3963V33.8097V34.2238V34.6384V35.0537V35.4695V35.8858V36.3027V36.7202V37.1382V37.5567V37.9758V38.3953V38.8154V39.2359V39.6569V40.0784V40.5004V40.9228V41.3457V41.769V42.1928V42.617V43.0416V43.4666V43.892V44.3177V44.7439V45.1704V45.5973V46.0246V46.4522V46.8801V47.3084V47.737V48.1659V48.5951V49.0246V49.4544V49.8844V50.3148V50.7453V51.1762V51.6072V52.0386V52.4701V52.9018V53.3338V53.766V54.1983V54.6308V55.0635V55.4964V55.9294V56.3626V56.7959V57.2293V57.6629V58.0966V58.5303V58.9642V59.3982V59.8322V60.2663V60.7005V61.1347V61.5689V62.0032V62.4375V62.8719V63.3062V63.7406V64.1749V64.6092V65.0435V65.4778V65.912V66.3461V66.7802V67.2143V67.6482V68.0821V68.5159V68.9495V69.3831V69.8165V70.2498V70.683V71.116V71.5489V71.9815V72.4141V72.8464V73.2786V73.7105V74.1423V74.5738V75.0051V75.4362V75.867V76.2976V76.7279V77.1579V77.5877V78.0172V78.4464V78.8753V79.3038V79.7321V80.16V80.5876V81.0149V81.4417V81.8683V82.2944V82.7202V83.1456V83.5706V83.9952V84.4193V84.8431V85.2664V85.6892V86.1116V86.5336V86.9551V87.3761V87.7966V88.2167V88.6362V89.0552V89.4737V89.8917V90.3092V90.7261V91.1424V91.5582V91.9734V92.388V92.802V93.2155V93.6283V94.0406V94.4522V94.8631V95.2735V95.6831V96.0922V96.5005V96.9082V97.3152V97.7215V98.1271V98.532V98.9362V99.3396V99.7423V100.144V100.546V100.946V101.346V101.745V102.143V102.54V102.937V103.332V103.727V104.121V104.514V104.907V105.298V105.689V106.079V106.468V106.856V107.243V107.629V108.014V108.398V108.782V109.164V109.546V109.926V110.306V110.685V111.062V111.439V111.815V112.189V112.563V112.935V113.307V113.677V114.047V114.415V114.782V115.149V115.514V115.878V116.241V116.602V116.963V117.323V117.681V118.038V118.394V118.749V119.103V119.456V119.807V120.157V120.506V120.854V121.2V121.546V121.89V122.232V122.574V122.914V123.253V123.591V123.927V124.262V124.596V124.928V125.259V125.589V125.917V126.244V126.57V126.894V127.217V127.539V127.859V128.178V128.495V128.811V129.125V129.438V129.75V130.06V130.368V130.675V130.981V131.285V131.588V131.889V132.188V132.487V132.783V133.078V133.371V133.663V133.954V134.242V134.529V134.815V135.099V135.381V135.662V135.941V136.218V136.494V136.768V137.04V137.311V137.58V137.847V138.113V138.377V138.639V138.899V139.158V139.415V139.67V139.924V140.175V140.425V140.673V140.919V141.164V141.407V141.647V141.886V142.124V142.359V142.592V142.824V143.054V143.281V143.507V143.731V143.954V144.174V144.392V144.608V144.823V145.035V145.246V145.454V145.661V145.865V146.068V146.268V146.467V146.663V146.858V147.05V147.24V147.429V147.615V147.799V147.981V148.161V148.339V148.515V148.688V148.86V149.029V149.196V149.361V149.524V149.685V149.844V150C3842.5 157.251 3844.07 171.551 3851.02 207.397C3851.99 212.409 3853.07 217.874 3854.23 223.731C3860.13 253.521 3868.04 293.427 3873.48 335.22C3887.44 442.401 3887.89 576.028 3829.24 731.041C3789.05 837.273 3743.99 934.782 3690.74 1020.91C3679.57 1038.97 3675.01 1060.64 3680.56 1081.13C3703.89 1167.29 3744.41 1227.92 3792.32 1269.11C3852.99 1321.26 3942.73 1357 4068.5 1357C4096.09 1357 4135.86 1345.31 4219.34 1300.56C4235.69 1291.79 4254.14 1281.49 4274.33 1270.21C4342.69 1232.02 4430.97 1182.71 4525.04 1144.49C4796.99 1034.03 5139.71 1000.67 5618.74 1230.7C5918.48 1374.64 5995.24 1682.5 6026.5 1934.51C6039.62 2040.3 6046.46 2153.83 6052.94 2261.5C6054.46 2286.83 6055.97 2311.84 6057.53 2336.34C6066.03 2469.61 6076.43 2593.7 6098.7 2707.7C6129.63 2866.04 6086.79 3001.13 6023.04 3109.69C5965.01 3208.54 5883.31 3295.33 5819.71 3362.91L5814.33 3368.62C5742.74 3444.71 5691.39 3500.36 5657.96 3556.12C5628.42 3605.4 5621.93 3640.31 5628.03 3675.75C5642.5 3759.86 5685.64 3805.7 5777.87 3902.03C5867.09 3995.2 5998.45 4135.3 6002.47 4377.09C6007.22 4662.91 5791.84 4835.65 5671.71 4931.99L5667.97 4934.99C5658.92 4942.25 5650.25 4949.18 5641.94 4955.83C5583.24 5002.75 5542.23 5035.52 5511.21 5069.63C5495.4 5087.01 5488.08 5098.74 5484.82 5105.52C5482.28 5110.79 5482.48 5112.35 5482.5 5112.49L5482.5 5112.5V5114.1V5115.7V5117.3V5118.89V5120.48V5122.06V5123.64V5125.21V5126.78V5128.35V5129.91V5131.47V5133.02V5134.57V5136.11V5137.65V5139.18V5140.72V5142.24V5143.76V5145.28V5146.8V5148.3V5149.81V5151.31V5152.81V5154.3V5155.79V5157.27V5158.75V5160.23V5161.7V5163.17V5164.64V5166.1V5167.55V5169.01V5170.45V5171.9V5173.34V5174.77V5176.21V5177.64V5179.06V5180.48V5181.9V5183.31V5184.72V5186.13V5187.53V5188.93V5190.32V5191.71V5193.1V5194.48V5195.86V5197.24V5198.61V5199.98V5201.34V5202.7V5204.06V5205.41V5206.76V5208.11V5209.45V5210.79V5212.13V5213.46V5214.79V5216.12V5217.44V5218.76V5220.07V5221.39V5222.69V5224V5225.3V5226.6V5227.89V5229.19V5230.47V5231.76V5233.04V5234.32V5235.59V5236.87V5238.13V5239.4V5240.66V5241.92V5243.18V5244.43V5245.68V5246.93V5248.17V5249.41V5250.65V5251.88V5253.11V5254.34V5255.56V5256.79V5258.01V5259.22V5260.44V5261.65V5262.85V5264.06V5265.26V5266.46V5267.65V5268.85V5270.04V5271.22V5272.41V5273.59V5274.77V5275.94V5277.12V5278.29V5279.45V5280.62V5281.78V5282.94V5284.1V5285.25V5286.41V5287.55V5288.7V5289.84V5290.99V5292.12V5293.26V5294.4V5295.53V5296.66V5297.78V5298.91V5300.03V5301.15V5302.26V5303.38V5304.49V5305.6V5306.7V5307.81V5308.91V5310.01V5311.11V5312.2V5313.3V5314.39V5315.48V5316.56V5317.65V5318.73V5319.81V5320.89V5321.96V5323.04V5324.11V5325.18V5326.24V5327.31V5328.37V5329.43V5330.49V5331.55V5332.6V5333.65V5334.71V5335.75V5336.8V5337.85V5338.89V5339.93V5340.97V5342.01V5343.04V5344.08V5345.11V5346.14V5347.17V5348.19V5349.22V5350.24V5351.26V5352.28V5353.3V5354.31V5355.33V5356.34V5357.35V5358.36V5359.37V5360.38V5361.38V5362.38V5363.39V5364.39V5365.38V5366.38V5367.38V5368.37V5369.36V5370.35V5371.34V5372.33V5373.32V5374.3V5375.29V5376.27V5377.25V5378.23V5379.21V5380.19V5381.16V5382.14V5383.11V5384.08V5385.05V5386.02V5386.99V5387.96V5388.93V5389.89V5390.86V5391.82V5392.78V5393.74V5394.7V5395.66V5396.62V5397.57V5398.53V5399.48V5400.44V5401.39V5402.34V5403.29V5404.24V5405.19V5406.14V5407.08V5408.03V5408.97V5409.92V5410.86V5411.8V5412.75V5413.69V5414.63V5415.57V5416.51V5417.44V5418.38V5419.32V5420.25V5421.19V5422.12V5423.06V5423.99V5424.92V5425.86V5426.79V5427.72V5428.65V5429.58V5430.51V5431.44V5432.37V5433.3V5434.22V5435.15V5436.08V5437V5437.93V5438.85V5439.78V5440.7V5441.63V5442.55V5443.48V5444.4V5445.32V5446.25V5447.17V5448.09V5449.02V5449.94V5450.86V5451.78V5452.7V5453.62V5454.55V5455.47V5456.39V5457.31V5458.23V5459.15V5460.07V5460.99V5461.91V5462.83V5463.76V5464.68V5465.6V5466.52V5467.44V5468.36V5469.28V5470.2V5471.13V5472.05V5472.97V5473.89V5474.81V5475.74V5476.66V5477.58V5478.51V5479.43V5480.35V5481.28V5482.2V5483.13V5484.05V5484.98V5485.9V5486.83V5487.76V5488.68V5489.61V5490.54V5491.47V5492.4V5493.33V5494.26V5495.19V5496.12V5497.05V5497.98V5498.92V5499.85V5500.78V5501.72V5502.65V5503.59V5504.53V5505.46V5506.4V5507.34V5508.28V5509.22V5510.16V5511.1V5512.05V5512.99V5513.93V5514.88V5515.83V5516.77V5517.72V5518.67V5519.62V5520.57V5521.52V5522.47V5523.43V5524.38V5525.34V5526.29V5527.25V5528.21V5529.17V5530.13V5531.09V5532.05V5533.02V5533.98V5534.95V5535.92V5536.89V5537.85V5538.83V5539.8V5540.77V5541.75V5542.72V5543.7V5544.68V5545.66V5546.64V5547.62V5548.61V5549.59V5550.58V5551.57V5552.56V5553.55V5554.54V5555.54V5556.53V5557.53V5558.53V5559.53V5560.53V5561.53V5562.54V5563.54V5564.55V5565.56V5566.57V5567.58V5568.6V5569.61V5570.63V5571.65V5572.67V5573.7V5574.72V5575.75V5576.78V5577.81V5578.84V5579.87V5580.91V5581.94V5582.98V5584.02V5585.07V5586.11V5587.16V5588.21V5589.26V5590.31V5591.37V5592.42V5593.48V5594.54V5595.61V5596.67V5597.74V5598.81V5599.88V5600.95V5602.03V5603.11V5604.19V5605.27V5606.35V5607.44V5608.53V5609.62V5610.71V5611.81V5612.91V5614.01V5615.11V5616.21V5617.32V5618.43V5619.54V5620.66V5621.77V5622.89V5624.01V5625.14V5626.26V5627.39V5628.52V5629.66V5630.79V5631.93V5633.07V5634.22V5635.37V5636.51V5637.67V5638.82V5639.98V5641.14V5642.3V5643.47V5644.63V5645.8V5646.98V5648.15V5649.33V5650.52V5651.7V5652.89V5654.08V5655.27V5656.47V5657.66V5658.87V5660.07V5661.28V5662.49V5663.7V5664.92V5666.14V5667.36V5668.58V5669.81V5671.04V5672.28V5673.52V5674.76V5676C5482.5 5789.22 5390.71 5881 5277.5 5881C5164.28 5881 5072.5 5789.22 5072.5 5676V5674.76V5673.52V5672.28V5671.04V5669.81V5668.58V5667.36V5666.14V5664.92V5663.7V5662.49V5661.28V5660.07V5658.87V5657.66V5656.47V5655.27V5654.08V5652.89V5651.7V5650.52V5649.33V5648.15V5646.98V5645.8V5644.63V5643.47V5642.3V5641.14V5639.98V5638.82V5637.67V5636.51V5635.37V5634.22V5633.07V5631.93V5630.79V5629.66V5628.52V5627.39V5626.26V5625.14V5624.01V5622.89V5621.77V5620.66V5619.54V5618.43V5617.32V5616.21V5615.11V5614.01V5612.91V5611.81V5610.71V5609.62V5608.53V5607.44V5606.35V5605.27V5604.19V5603.11V5602.03V5600.95V5599.88V5598.81V5597.74V5596.67V5595.61V5594.54V5593.48V5592.42V5591.37V5590.31V5589.26V5588.21V5587.16V5586.11V5585.07V5584.02V5582.98V5581.94V5580.91V5579.87V5578.84V5577.81V5576.78V5575.75V5574.72V5573.7V5572.67V5571.65V5570.63V5569.61V5568.6V5567.58V5566.57V5565.56V5564.55V5563.54V5562.54V5561.53V5560.53V5559.53V5558.53V5557.53V5556.53V5555.54V5554.54V5553.55V5552.56V5551.57V5550.58V5549.59V5548.61V5547.62V5546.64V5545.66V5544.68V5543.7V5542.72V5541.75V5540.77V5539.8V5538.83V5537.85V5536.89V5535.92V5534.95V5533.98V5533.02V5532.05V5531.09V5530.13V5529.17V5528.21V5527.25V5526.29V5525.34V5524.38V5523.43V5522.47V5521.52V5520.57V5519.62V5518.67V5517.72V5516.77V5515.83V5514.88V5513.93V5512.99V5512.05V5511.1V5510.16V5509.22V5508.28V5507.34V5506.4V5505.46V5504.53V5503.59V5502.65V5501.72V5500.78V5499.85V5498.92V5497.98V5497.05V5496.12V5495.19V5494.26V5493.33V5492.4V5491.47V5490.54V5489.61V5488.68V5487.76V5486.83V5485.9V5484.98V5484.05V5483.13V5482.2V5481.28V5480.35V5479.43V5478.51V5477.58V5476.66V5475.74V5474.81V5473.89V5472.97V5472.05V5471.13V5470.2V5469.28V5468.36V5467.44V5466.52V5465.6V5464.68V5463.76V5462.83V5461.91V5460.99V5460.07V5459.15V5458.23V5457.31V5456.39V5455.47V5454.55V5453.62V5452.7V5451.78V5450.86V5449.94V5449.02V5448.09V5447.17V5446.25V5445.32V5444.4V5443.48V5442.55V5441.63V5440.7V5439.78V5438.85V5437.93V5437V5436.08V5435.15V5434.22V5433.3V5432.37V5431.44V5430.51V5429.58V5428.65V5427.72V5426.79V5425.86V5424.92V5423.99V5423.06V5422.12V5421.19V5420.25V5419.32V5418.38V5417.44V5416.51V5415.57V5414.63V5413.69V5412.75V5411.8V5410.86V5409.92V5408.97V5408.03V5407.08V5406.14V5405.19V5404.24V5403.29V5402.34V5401.39V5400.44V5399.48V5398.53V5397.57V5396.62V5395.66V5394.7V5393.74V5392.78V5391.82V5390.86V5389.89V5388.93V5387.96V5386.99V5386.02V5385.05V5384.08V5383.11V5382.14V5381.16V5380.19V5379.21V5378.23V5377.25V5376.27V5375.29V5374.3V5373.32V5372.33V5371.34V5370.35V5369.36V5368.37V5367.38V5366.38V5365.38V5364.39V5363.39V5362.38V5361.38V5360.38V5359.37V5358.36V5357.35V5356.34V5355.33V5354.31V5353.3V5352.28V5351.26V5350.24V5349.22V5348.19V5347.17V5346.14V5345.11V5344.08V5343.04V5342.01V5340.97V5339.93V5338.89V5337.85V5336.8V5335.75V5334.71V5333.65V5332.6V5331.55V5330.49V5329.43V5328.37V5327.31V5326.24V5325.18V5324.11V5323.04V5321.96V5320.89V5319.81V5318.73V5317.65V5316.56V5315.48V5314.39V5313.3V5312.2V5311.11V5310.01V5308.91V5307.81V5306.7V5305.6V5304.49V5303.38V5302.26V5301.15V5300.03V5298.91V5297.78V5296.66V5295.53V5294.4V5293.26V5292.12V5290.99V5289.84V5288.7V5287.55V5286.41V5285.25V5284.1V5282.94V5281.78V5280.62V5279.45V5278.29V5277.12V5275.94V5274.77V5273.59V5272.41V5271.22V5270.04V5268.85V5267.65V5266.46V5265.26V5264.06V5262.85V5261.65V5260.44V5259.22V5258.01V5256.79V5255.56V5254.34V5253.11V5251.88V5250.65V5249.41V5248.17V5246.93V5245.68V5244.43V5243.18V5241.92V5240.66V5239.4V5238.13V5236.87V5235.59V5234.32V5233.04V5231.76V5230.47V5229.19V5227.89V5226.6V5225.3V5224V5222.69V5221.39V5220.07V5218.76V5217.44V5216.12V5214.79V5213.46V5212.13V5210.79V5209.45V5208.11V5206.76V5205.41V5204.06V5202.7V5201.34V5199.98V5198.61V5197.24V5195.86V5194.48V5193.1V5191.71V5190.32V5188.93V5187.53V5186.13V5184.72V5183.31V5181.9V5180.48V5179.06V5177.64V5176.21V5174.77V5173.34V5171.9V5170.45V5169.01V5167.55V5166.1V5164.64V5163.17V5161.7V5160.23V5158.75V5157.27V5155.79V5154.3V5152.81V5151.31V5149.81V5148.3V5146.8V5145.28V5143.76V5142.24V5140.72V5139.18V5137.65V5136.11V5134.57V5133.02V5131.47V5129.91V5128.35V5126.78V5125.21V5123.64V5122.06V5120.48V5118.89V5117.3V5115.7V5114.1V5112.5C5072.5 4972.06 5141.6 4866.65 5207.92 4793.74C5262.84 4733.37 5332.71 4677.81 5388.03 4633.83C5396.17 4627.36 5403.99 4621.14 5411.4 4615.19C5553.52 4501.17 5593.56 4445.7 5592.53 4383.91C5591.31 4310.81 5563.62 4271.1 5481.74 4185.59C5476.63 4180.25 5471.25 4174.7 5465.67 4168.93V4168.93C5458.28 4161.29 5447.01 4158.83 5437.05 4162.53C4967.52 4336.96 4489.37 4283.24 4057.44 3982.79C3876.19 3856.72 3793.39 3732.64 3734.52 3644.43C3726.76 3632.79 3719.41 3621.78 3712.31 3611.47C3684.07 3570.48 3662.79 3544.53 3634.5 3521.48C3606.16 3498.39 3561.71 3471.02 3481.78 3442.82C3425.82 3423.07 3364.67 3424.29 3281.62 3445.97C3239.41 3456.99 3195.23 3472.29 3144.97 3490.83C3133.52 3495.05 3121.47 3499.55 3109 3504.21C3069.99 3518.79 3026.86 3534.91 2985.14 3548.8C2874.68 3585.59 2732.9 3621.99 2579.82 3593.5C2418.56 3563.5 2277.47 3468.49 2154.01 3307.99C1983.66 3086.52 1854.13 2993.9 1747.81 2917.87C1740.63 2912.74 1733.56 2907.68 1726.59 2902.67C1670.23 2862.11 1601.18 2811.55 1544.37 2738.75C1483.96 2661.34 1446.25 2571.4 1423.99 2460.25C1371.41 2197.65 1483.96 2005.73 1605.1 1858.58C1647.92 1806.57 1697.89 1753.09 1744.12 1703.6C1759.7 1686.92 1774.87 1670.7 1789.19 1655.13C1849.64 1589.43 1904.86 1525.59 1952.22 1455.61C2062.82 1292.17 2171.75 1146.9 2327.85 1063.29C2491.01 975.901 2671.8 972.258 2882.73 996.321C3055.57 1016.04 3151.45 990.796 3218.9 943.972C3292.02 893.214 3367.58 792.6 3445.77 585.958C3474.32 510.494 3474.76 448.371 3466.92 388.172C3463.38 360.996 3458.59 336.678 3452.82 307.397C3451.44 300.387 3450 293.093 3448.51 285.407C3441.83 250.952 3432.5 201.249 3432.5 150V149.844V149.685V149.524V149.361V149.196V149.029V148.86V148.688V148.515V148.339V148.161V147.981V147.799V147.615V147.429V147.24V147.05V146.858V146.663V146.467V146.268V146.068V145.865V145.661V145.454V145.246V145.035V144.823V144.608V144.392V144.174V143.954V143.731V143.507V143.281V143.054V142.824V142.592V142.359V142.124V141.886V141.647V141.407V141.164V140.919V140.673V140.425V140.175V139.924V139.67V139.415V139.158V138.899V138.639V138.377V138.113V137.847V137.58V137.311V137.04V136.768V136.494V136.218V135.941V135.662V135.381V135.099V134.815V134.529V134.242V133.954V133.663V133.371V133.078V132.783V132.487V132.188V131.889V131.588V131.285V130.981V130.675V130.368V130.06V129.75V129.438V129.125V128.811V128.495V128.178V127.859V127.539V127.217V126.894V126.57V126.244V125.917V125.589V125.259V124.928V124.596V124.262V123.927V123.591V123.253V122.914V122.574V122.232V121.89V121.546V121.2V120.854V120.506V120.157V119.807V119.456V119.103V118.749V118.394V118.038V117.681V117.323V116.963V116.602V116.241V115.878V115.514V115.149V114.782V114.415V114.047V113.677V113.307V112.935V112.563V112.189V111.815V111.439V111.062V110.685V110.306V109.926V109.546V109.164V108.782V108.398V108.014V107.629V107.243V106.856V106.468V106.079V105.689V105.298V104.907V104.514V104.121V103.727V103.332V102.937V102.54V102.143V101.745V101.346V100.946V100.546V100.144V99.7423V99.3396V98.9362V98.532V98.1271V97.7215V97.3152V96.9082V96.5005V96.0922V95.6831V95.2735V94.8631V94.4522V94.0406V93.6283V93.2155V92.802V92.388V91.9734V91.5582V91.1424V90.7261V90.3092V89.8917V89.4737V89.0552V88.6362V88.2167V87.7966V87.3761V86.9551V86.5336V86.1116V85.6892V85.2664V84.8431V84.4193V83.9952V83.5706V83.1456V82.7202V82.2944V81.8683V81.4417V81.0149V80.5876V80.16V79.7321V79.3038V78.8753V78.4464V78.0172V77.5877V77.1579V76.7279V76.2976V75.867V75.4362V75.0051V74.5738V74.1423V73.7105V73.2786V72.8464V72.4141V71.9815V71.5489V71.116V70.683V70.2498V69.8165V69.3831V68.9495V68.5159V68.0821V67.6482V67.2143V66.7802V66.3461V65.912V65.4778V65.0435V64.6092V64.1749V63.7406V63.3062V62.8719V62.4375V62.0032V61.5689V61.1347V60.7005V60.2663V59.8322V59.3982V58.9642V58.5303V58.0966V57.6629V57.2293V56.7959V56.3626V55.9294V55.4964V55.0635V54.6308V54.1983V53.766V53.3338V52.9018V52.4701V52.0386V51.6072V51.1762V50.7453V50.3148V49.8844V49.4544V49.0246V48.5951V48.1659V47.737V47.3084V46.8801V46.4522V46.0246V45.5973V45.1704V44.7439V44.3177V43.892V43.4666V43.0416V42.617V42.1928V41.769V41.3457V40.9228V40.5004V40.0784V39.6569V39.2359V38.8154V38.3953V37.9758V37.5567V37.1382V36.7202V36.3027V35.8858V35.4695V35.0537V34.6384V34.2238V33.8097V33.3963V32.9834V32.5712V32.1596V31.7486V31.3382V30.9285V30.5195V30.1111V29.7034V29.2964V28.8901V28.4844V28.0795V27.6753V27.2718V26.8691V26.4671V26.0659V25.6654V25.2657V24.8667V24.4686V24.0712V23.6747V23.279V22.8841V22.49V22.0967V21.7043V21.3128V20.9221V20.5323V20.1434V19.7554V19.3683V18.982V18.5967V18.2124V17.8289V17.4464V17.0649V16.6843V16.3047V15.926V15.5484V15.1717V14.796V14.4214V14.0478V13.6752V13.3036V12.9331V12.5636V12.1953V11.8279V11.4617V11.0965V10.7325V10.3695V10.0077V9.64701V9.28745V8.92902V8.57174V8.21562V7.86067V7.50689V7.1543V6.8029V6.45271V6.10372V5.75596V5.40942V5.06412V4.72007V4.37727V4.03573V3.69547V3.35648V3.01878V2.68238V2.34729V2.01351V1.68106V1.34993V1.02015V0.691715V0.364639V0.0389309V-0.285402V-0.608353V-0.929909V-1.25006V-1.56881V-1.88614V-2.20204V-2.5165V-2.82952V-3.14109V-3.4512V-3.75983V-4.06699V-4.37266V-4.67683V-4.97949V-5.28065V-5.58028V-5.87838V-6.17494V-6.46995V-6.7634V-7.05529V-7.34561V-7.63434V-7.92148V-8.20702V-8.49096V-8.77327V-9.05396V-9.33301V-9.61042V-9.88618V-10.1603V-10.4327V-10.7035V-10.9725V-11.2399V-11.5056V-11.7695V-12.0317V-12.2922V-12.551V-12.808V-13.0633V-13.3168V-13.5685V-13.8184V-14.0666V-14.3129V-14.5575V-14.8002V-15.0411V-15.2802V-15.5174V-15.7528V-15.9863V-16.2179V-16.4477V-16.6756V-16.9016V-17.1256V-17.3478V-17.5681V-17.7864V-18.0028V-18.2172V-18.4297V-18.6402V-18.8488V-19.0554V-19.2599V-19.4625V-19.6631V-19.8617V-20.0582V-20.2527V-20.4452V-20.6356V-20.8239V-21.0102V-21.1944V-21.3765V-21.5566V-21.7345V-21.9103V-22.084V-22.2556V-22.425V-22.5923V-22.7575V-22.9204V-23.0812V-23.2399V-23.3963V-23.5506V-23.7026V-23.8524V-24C3432.5 -137.218 3524.28 -229 3637.5 -229ZM5183.05 3813.86C5212.57 3805.92 5229.15 3775.38 5223.96 3745.25V3745.25C5196.72 3586.87 5241.93 3452.68 5306.32 3345.29C5364.49 3248.27 5445.14 3162.63 5508.19 3095.67C5510.72 3092.98 5513.24 3090.31 5515.71 3087.68C5587.03 3011.88 5637.41 2956.72 5669.48 2902.1C5697.49 2854.39 5703.08 2820.98 5696.3 2786.3V2786.3C5688.47 2746.17 5642.16 2725.85 5607.35 2747.3C5424.23 2860.19 5248.47 2928.79 5081.31 2956.99C4808.73 3002.97 4571.1 2938.98 4386.21 2805C4183.44 2658.06 4006.64 2497.67 3920.81 2277.8C3866.46 2138.57 3854.2 1991.02 3876.13 1830.71C3882.17 1786.56 3853.67 1744.55 3810.83 1732.28C3705.28 1702.03 3608.43 1651.69 3525.05 1580.02C3468.07 1531.03 3419.92 1474.26 3380.62 1411.11C3357.77 1374.39 3311.76 1357.95 3270.69 1371.52C3136.64 1415.81 2990.61 1421.29 2836.26 1403.68C2646.92 1382.08 2570.96 1398.19 2521.44 1424.71C2464.86 1455.02 2405.17 1517.83 2291.78 1685.39C2227.14 1780.91 2155.52 1862.51 2090.9 1932.74C2071.3 1954.04 2052.94 1973.7 2035.59 1992.28C1992.5 2038.41 1955.65 2077.85 1921.64 2119.17C1832.85 2227.02 1808.91 2294.35 1826.01 2379.75C1838.6 2442.6 1854.55 2469.79 1867.6 2486.51C1884.25 2507.84 1908.44 2528.41 1966.05 2569.86C1972.73 2574.67 1979.6 2579.58 1986.65 2584.63C2103.83 2668.47 2271.81 2788.67 2478.99 3058.01C2556.28 3158.49 2615.27 3183.06 2654.83 3190.42C2702.56 3199.31 2762.33 3190.87 2855.58 3159.81C2889.67 3148.46 2922.74 3136.1 2959.77 3122.27C2973.57 3117.11 2987.93 3111.75 3003.09 3106.16C3055.93 3086.67 3115.57 3065.58 3178.06 3049.27C3304.43 3016.28 3456.24 2999.03 3618.22 3056.18C3732.67 3096.57 3821.16 3144.7 3893.48 3203.63C3965.85 3262.59 4012.95 3325.18 4049.94 3378.86C4059.1 3392.17 4067.74 3405 4076.12 3417.47C4131.33 3499.53 4175.86 3565.73 4291.56 3646.21C4576.43 3844.36 4875.74 3896.53 5183.05 3813.86ZM4356.63 1690.98C4335.92 1701.09 4319.77 1719 4313.52 1741.18C4260.8 1928.1 4269.44 2043.39 4302.74 2128.7C4343.68 2233.58 4437.64 2335.94 4626.79 2473C4721.46 2541.61 4847.58 2580.62 5013.12 2552.7C5168.96 2526.41 5368.59 2438.85 5608.41 2242.92C5628.03 2226.9 5638.53 2202.25 5636.84 2176.98C5632.35 2109.77 5627.21 2046.18 5619.62 1984.99C5590.01 1746.25 5533.02 1644.36 5441.26 1600.3C5063.29 1418.8 4841.01 1458.68 4679.33 1524.35C4610.92 1552.14 4554.52 1583.61 4491.12 1618.97C4466.52 1632.7 4440.86 1647.01 4413.05 1661.92C4395.45 1671.35 4376.62 1681.22 4356.63 1690.98Z" fill="black" fill-opacity="0.04"/>
<path id="Union_2" fill-rule="evenodd" clip-rule="evenodd" d="M3638.5 -178.691C3724.1 -178.691 3793.5 -109.296 3793.5 -23.6914V-23.5438V-23.394V-23.242V-23.0877V-22.9313V-22.7727V-22.6119V-22.4489V-22.2837V-22.1164V-21.947V-21.7754V-21.6017V-21.4259V-21.248V-21.0679V-20.8858V-20.7016V-20.5153V-20.327V-20.1366V-19.9441V-19.7496V-19.5531V-19.3545V-19.1539V-18.9513V-18.7468V-18.5402V-18.3316V-18.1211V-17.9086V-17.6942V-17.4778V-17.2595V-17.0392V-16.817V-16.593V-16.367V-16.1391V-15.9093V-15.6777V-15.4442V-15.2088V-14.9716V-14.7325V-14.4916V-14.2489V-14.0043V-13.758V-13.5098V-13.2599V-13.0082V-12.7547V-12.4994V-12.2424V-11.9836V-11.7231V-11.4609V-11.197V-10.9313V-10.6639V-10.3949V-10.1241V-9.85168V-9.57759V-9.30183V-9.02442V-8.74537V-8.46468V-8.18236V-7.89843V-7.61289V-7.32575V-7.03702V-6.7467V-6.45481V-6.16136V-5.86634V-5.56978V-5.27168V-4.97205V-4.6709V-4.36823V-4.06406V-3.75839V-3.45124V-3.1426V-2.8325V-2.52093V-2.20791V-1.89345V-1.57755V-1.26022V-0.941471V-0.621315V-0.299759V0.0231915V0.347525V0.673233V1.00031V1.32874V1.65853V1.98965V2.3221V2.65588V2.99098V3.32738V3.66507V4.00406V4.34432V4.68586V5.02866V5.37271V5.71801V6.06455V6.41232V6.7613V7.11149V7.46289V7.81548V8.16926V8.52421V8.88033V9.23761V9.59604V9.95561V10.3163V10.6781V11.0411V11.4051V11.7703V12.1365V12.5038V12.8722V13.2417V13.6122V13.9838V14.3564V14.73V15.1046V15.4803V15.857V16.2346V16.6133V16.9929V17.3735V17.755V18.1375V18.521V18.9053V19.2906V19.6768V20.064V20.452V20.8409V21.2307V21.6214V22.0129V22.4053V22.7986V23.1926V23.5876V23.9833V24.3798V24.7772V25.1753V25.5743V25.974V26.3745V26.7757V27.1777V27.5804V27.9839V28.3881V28.793V29.1986V29.605V30.012V30.4197V30.8281V31.2371V31.6468V32.0572V32.4682V32.8798V33.292V33.7049V34.1183V34.5324V34.947V35.3623V35.7781V36.1944V36.6113V37.0288V37.4468V37.8653V38.2843V38.7039V39.124V39.5445V39.9655V40.387V40.809V41.2314V41.6543V42.0776V42.5014V42.9256V43.3502V43.7752V44.2005V44.6263V45.0525V45.479V45.9059V46.3332V46.7608V47.1887V47.617V48.0456V48.4745V48.9037V49.3332V49.763V50.193V50.6233V51.0539V51.4848V51.9158V52.3471V52.7787V53.2104V53.6424V54.0746V54.5069V54.9394V55.3721V55.805V56.238V56.6712V57.1045V57.5379V57.9715V58.4052V58.8389V59.2728V59.7068V60.1408V60.5749V61.0091V61.4433V61.8775V62.3118V62.7461V63.1805V63.6148V64.0492V64.4835V64.9178V65.3521V65.7864V66.2206V66.6547V67.0888V67.5229V67.9568V68.3907V68.8244V69.2581V69.6917V70.1251V70.5584V70.9916V71.4246V71.8574V72.2901V72.7227V73.155V73.5872V74.0191V74.4509V74.8824V75.3137V75.7448V76.1756V76.6062V77.0365V77.4665V77.8963V78.3258V78.755V79.1839V79.6124V80.0407V80.4686V80.8962V81.3235V81.7503V82.1769V82.603V83.0288V83.4542V83.8792V84.3037V84.7279V85.1516V85.575V85.9978V86.4202V86.8422V87.2637V87.6847V88.1052V88.5253V88.9448V89.3638V89.7823V90.2003V90.6178V91.0346V91.451V91.8668V92.282V92.6966V93.1106V93.5241V93.9369V94.3492V94.7607V95.1717V95.582V95.9917V96.4007V96.8091V97.2168V97.6238V98.0301V98.4357V98.8406V99.2448V99.6482V100.051V100.453V100.854V101.255V101.654V102.053V102.451V102.849V103.245V103.641V104.036V104.43V104.823V105.215V105.607V105.998V106.387V106.776V107.164V107.551V107.937V108.323V108.707V109.09V109.473V109.854V110.235V110.615V110.993V111.371V111.747V112.123V112.498V112.871V113.244V113.615V113.986V114.355V114.724V115.091V115.457V115.822V116.186V116.549V116.911V117.272V117.631V117.99V118.347V118.703V119.058V119.412V119.764V120.116V120.466V120.815V121.162V121.509V121.854V122.198V122.541V122.882V123.223V123.562V123.899V124.236V124.571V124.904V125.237V125.568V125.898V126.226V126.553V126.879V127.203V127.526V127.847V128.167V128.486V128.803V129.119V129.434V129.747V130.058V130.368V130.677V130.984V131.29V131.594V131.896V132.197V132.497V132.795V133.092V133.387V133.68V133.972V134.262V134.551V134.838V135.123V135.407V135.69V135.97V136.249V136.527V136.802V137.076V137.349V137.619V137.888V138.156V138.421V138.685V138.947V139.208V139.466V139.723V139.979V140.232V140.484V140.734V140.982V141.228V141.473V141.715V141.956V142.195V142.432V142.668V142.901V143.133V143.362V143.59V143.816V144.04V144.262V144.482V144.701V144.917V145.131V145.344V145.554V145.763V145.969V146.174V146.376V146.577V146.775V146.972V147.166V147.359V147.549V147.737V147.923V148.108V148.29V148.47V148.647V148.823V148.997V149.168V149.338V149.505V149.67V149.833V149.994V150.152V150.309C3793.5 162.925 3796.01 181.543 3802.93 217.219C3803.95 222.519 3805.08 228.197 3806.27 234.204C3812.18 264.054 3819.69 302.013 3824.9 341.986C3838.11 443.438 3838.44 568.345 3783.47 713.657C3739.3 830.396 3689.9 934.337 3631.18 1023.1C3624.71 1032.88 3622 1044.77 3624.31 1056.27C3647.31 1170.65 3696.93 1252.49 3760.72 1307.33C3832 1368.61 3933.97 1407.31 4069.49 1407.31C4110.57 1407.31 4159.96 1389.96 4243.96 1344.93C4261.52 1335.52 4280.85 1324.73 4301.66 1313.11C4369.83 1275.04 4454.01 1228.03 4544.85 1191.13C4803.35 1086.13 5131.38 1051.97 5598.09 1276.08C5872.46 1407.84 5946.82 1690.58 5977.88 1940.98C5990.78 2045.02 5997.5 2156.53 6003.98 2264.1C6005.51 2289.62 6007.04 2314.91 6008.63 2339.83C6017.14 2473.32 6027.69 2600.18 6050.62 2717.6C6078.6 2860.85 6040.3 2983.54 5980.92 3084.68C5925.78 3178.59 5847.45 3261.83 5783.03 3330.29L5778.9 3334.67C5708.24 3409.78 5652.81 3469.45 5616.08 3530.71C5582.28 3587.08 5571.07 3634.1 5579.75 3684.53C5596.98 3784.7 5650.77 3840.87 5739.34 3933.35L5742.75 3936.92C5831.07 4029.15 5949.8 4157.01 5953.47 4378.23C5957.81 4639.36 5759.79 4798.33 5637.67 4896.3C5628.71 4903.49 5620.04 4910.42 5611.65 4917.12C5553.55 4963.53 5509.11 4999.04 5475.22 5036.29C5438.95 5076.16 5433.49 5098.54 5433.49 5112.81V5114.41V5116.01V5117.61V5119.2V5120.79V5122.37V5123.95V5125.52V5127.09V5128.66V5130.22V5131.78V5133.33V5134.88V5136.42V5137.96V5139.49V5141.02V5142.55V5144.07V5145.59V5147.1V5148.61V5150.12V5151.62V5153.12V5154.61V5156.1V5157.58V5159.06V5160.54V5162.01V5163.48V5164.95V5166.41V5167.86V5169.31V5170.76V5172.21V5173.65V5175.08V5176.52V5177.94V5179.37V5180.79V5182.21V5183.62V5185.03V5186.44V5187.84V5189.24V5190.63V5192.02V5193.41V5194.79V5196.17V5197.55V5198.92V5200.29V5201.65V5203.01V5204.37V5205.72V5207.07V5208.42V5209.76V5211.1V5212.44V5213.77V5215.1V5216.43V5217.75V5219.07V5220.38V5221.69V5223V5224.31V5225.61V5226.91V5228.2V5229.49V5230.78V5232.07V5233.35V5234.63V5235.9V5237.17V5238.44V5239.71V5240.97V5242.23V5243.49V5244.74V5245.99V5247.23V5248.48V5249.72V5250.96V5252.19V5253.42V5254.65V5255.87V5257.1V5258.31V5259.53V5260.74V5261.95V5263.16V5264.37V5265.57V5266.77V5267.96V5269.15V5270.34V5271.53V5272.72V5273.9V5275.08V5276.25V5277.42V5278.6V5279.76V5280.93V5282.09V5283.25V5284.41V5285.56V5286.71V5287.86V5289.01V5290.15V5291.29V5292.43V5293.57V5294.7V5295.83V5296.96V5298.09V5299.21V5300.34V5301.45V5302.57V5303.69V5304.8V5305.91V5307.01V5308.12V5309.22V5310.32V5311.42V5312.51V5313.61V5314.7V5315.79V5316.87V5317.96V5319.04V5320.12V5321.2V5322.27V5323.34V5324.42V5325.48V5326.55V5327.62V5328.68V5329.74V5330.8V5331.86V5332.91V5333.96V5335.01V5336.06V5337.11V5338.15V5339.2V5340.24V5341.28V5342.31V5343.35V5344.38V5345.42V5346.45V5347.47V5348.5V5349.53V5350.55V5351.57V5352.59V5353.61V5354.62V5355.64V5356.65V5357.66V5358.67V5359.68V5360.68V5361.69V5362.69V5363.69V5364.69V5365.69V5366.69V5367.68V5368.68V5369.67V5370.66V5371.65V5372.64V5373.63V5374.61V5375.6V5376.58V5377.56V5378.54V5379.52V5380.5V5381.47V5382.45V5383.42V5384.39V5385.36V5386.33V5387.3V5388.27V5389.24V5390.2V5391.16V5392.13V5393.09V5394.05V5395.01V5395.97V5396.92V5397.88V5398.84V5399.79V5400.74V5401.7V5402.65V5403.6V5404.55V5405.5V5406.44V5407.39V5408.34V5409.28V5410.23V5411.17V5412.11V5413.05V5414V5414.94V5415.88V5416.81V5417.75V5418.69V5419.63V5420.56V5421.5V5422.43V5423.37V5424.3V5425.23V5426.17V5427.1V5428.03V5428.96V5429.89V5430.82V5431.75V5432.68V5433.6V5434.53V5435.46V5436.39V5437.31V5438.24V5439.16V5440.09V5441.01V5441.94V5442.86V5443.79V5444.71V5445.63V5446.56V5447.48V5448.4V5449.32V5450.25V5451.17V5452.09V5453.01V5453.93V5454.85V5455.78V5456.7V5457.62V5458.54V5459.46V5460.38V5461.3V5462.22V5463.14V5464.06V5464.99V5465.91V5466.83V5467.75V5468.67V5469.59V5470.51V5471.43V5472.36V5473.28V5474.2V5475.12V5476.05V5476.97V5477.89V5478.81V5479.74V5480.66V5481.59V5482.51V5483.44V5484.36V5485.29V5486.21V5487.14V5488.07V5488.99V5489.92V5490.85V5491.78V5492.71V5493.64V5494.57V5495.5V5496.43V5497.36V5498.29V5499.22V5500.16V5501.09V5502.03V5502.96V5503.9V5504.83V5505.77V5506.71V5507.65V5508.59V5509.53V5510.47V5511.41V5512.35V5513.3V5514.24V5515.19V5516.13V5517.08V5518.03V5518.98V5519.93V5520.88V5521.83V5522.78V5523.73V5524.69V5525.65V5526.6V5527.56V5528.52V5529.48V5530.44V5531.4V5532.36V5533.33V5534.29V5535.26V5536.23V5537.19V5538.16V5539.13V5540.11V5541.08V5542.06V5543.03V5544.01V5544.99V5545.97V5546.95V5547.93V5548.92V5549.9V5550.89V5551.88V5552.87V5553.86V5554.85V5555.84V5556.84V5557.84V5558.83V5559.83V5560.84V5561.84V5562.84V5563.85V5564.86V5565.87V5566.88V5567.89V5568.91V5569.92V5570.94V5571.96V5572.98V5574V5575.03V5576.06V5577.08V5578.11V5579.15V5580.18V5581.22V5582.25V5583.29V5584.33V5585.38V5586.42V5587.47V5588.52V5589.57V5590.62V5591.68V5592.73V5593.79V5594.85V5595.92V5596.98V5598.05V5599.12V5600.19V5601.26V5602.34V5603.42V5604.5V5605.58V5606.66V5607.75V5608.84V5609.93V5611.02V5612.12V5613.21V5614.31V5615.42V5616.52V5617.63V5618.74V5619.85V5620.96V5622.08V5623.2V5624.32V5625.45V5626.57V5627.7V5628.83V5629.97V5631.1V5632.24V5633.38V5634.53V5635.67V5636.82V5637.98V5639.13V5640.29V5641.45V5642.61V5643.77V5644.94V5646.11V5647.29V5648.46V5649.64V5650.82V5652.01V5653.2V5654.39V5655.58V5656.77V5657.97V5659.17V5660.38V5661.59V5662.8V5664.01V5665.23V5666.45V5667.67V5668.89V5670.12V5671.35V5672.59V5673.82V5675.06V5676.31C5433.49 5761.91 5364.1 5831.31 5278.49 5831.31C5192.89 5831.31 5123.49 5761.91 5123.49 5676.31V5675.06V5673.82V5672.59V5671.35V5670.12V5668.89V5667.67V5666.45V5665.23V5664.01V5662.8V5661.59V5660.38V5659.17V5657.97V5656.77V5655.58V5654.39V5653.2V5652.01V5650.82V5649.64V5648.46V5647.29V5646.11V5644.94V5643.77V5642.61V5641.45V5640.29V5639.13V5637.98V5636.82V5635.67V5634.53V5633.38V5632.24V5631.1V5629.97V5628.83V5627.7V5626.57V5625.45V5624.32V5623.2V5622.08V5620.96V5619.85V5618.74V5617.63V5616.52V5615.42V5614.31V5613.21V5612.12V5611.02V5609.93V5608.84V5607.75V5606.66V5605.58V5604.5V5603.42V5602.34V5601.26V5600.19V5599.12V5598.05V5596.98V5595.92V5594.85V5593.79V5592.73V5591.68V5590.62V5589.57V5588.52V5587.47V5586.42V5585.38V5584.33V5583.29V5582.25V5581.22V5580.18V5579.15V5578.11V5577.08V5576.06V5575.03V5574V5572.98V5571.96V5570.94V5569.92V5568.91V5567.89V5566.88V5565.87V5564.86V5563.85V5562.84V5561.84V5560.84V5559.83V5558.83V5557.84V5556.84V5555.84V5554.85V5553.86V5552.87V5551.88V5550.89V5549.9V5548.92V5547.93V5546.95V5545.97V5544.99V5544.01V5543.03V5542.06V5541.08V5540.11V5539.13V5538.16V5537.19V5536.23V5535.26V5534.29V5533.33V5532.36V5531.4V5530.44V5529.48V5528.52V5527.56V5526.6V5525.65V5524.69V5523.73V5522.78V5521.83V5520.88V5519.93V5518.98V5518.03V5517.08V5516.13V5515.19V5514.24V5513.3V5512.35V5511.41V5510.47V5509.53V5508.59V5507.65V5506.71V5505.77V5504.83V5503.9V5502.96V5502.03V5501.09V5500.16V5499.22V5498.29V5497.36V5496.43V5495.5V5494.57V5493.64V5492.71V5491.78V5490.85V5489.92V5488.99V5488.07V5487.14V5486.21V5485.29V5484.36V5483.44V5482.51V5481.59V5480.66V5479.74V5478.81V5477.89V5476.97V5476.05V5475.12V5474.2V5473.28V5472.36V5471.43V5470.51V5469.59V5468.67V5467.75V5466.83V5465.91V5464.99V5464.06V5463.14V5462.22V5461.3V5460.38V5459.46V5458.54V5457.62V5456.7V5455.78V5454.85V5453.93V5453.01V5452.09V5451.17V5450.25V5449.32V5448.4V5447.48V5446.56V5445.63V5444.71V5443.79V5442.86V5441.94V5441.01V5440.09V5439.16V5438.24V5437.31V5436.39V5435.46V5434.53V5433.6V5432.68V5431.75V5430.82V5429.89V5428.96V5428.03V5427.1V5426.17V5425.23V5424.3V5423.37V5422.43V5421.5V5420.56V5419.63V5418.69V5417.75V5416.81V5415.88V5414.94V5414V5413.05V5412.11V5411.17V5410.23V5409.28V5408.34V5407.39V5406.44V5405.5V5404.55V5403.6V5402.65V5401.7V5400.74V5399.79V5398.84V5397.88V5396.92V5395.97V5395.01V5394.05V5393.09V5392.13V5391.16V5390.2V5389.24V5388.27V5387.3V5386.33V5385.36V5384.39V5383.42V5382.45V5381.47V5380.5V5379.52V5378.54V5377.56V5376.58V5375.6V5374.61V5373.63V5372.64V5371.65V5370.66V5369.67V5368.68V5367.68V5366.69V5365.69V5364.69V5363.69V5362.69V5361.69V5360.68V5359.68V5358.67V5357.66V5356.65V5355.64V5354.62V5353.61V5352.59V5351.57V5350.55V5349.53V5348.5V5347.47V5346.45V5345.42V5344.38V5343.35V5342.31V5341.28V5340.24V5339.2V5338.15V5337.11V5336.06V5335.01V5333.96V5332.91V5331.86V5330.8V5329.74V5328.68V5327.62V5326.55V5325.48V5324.42V5323.34V5322.27V5321.2V5320.12V5319.04V5317.96V5316.87V5315.79V5314.7V5313.61V5312.51V5311.42V5310.32V5309.22V5308.12V5307.01V5305.91V5304.8V5303.69V5302.57V5301.45V5300.34V5299.21V5298.09V5296.96V5295.83V5294.7V5293.57V5292.43V5291.29V5290.15V5289.01V5287.86V5286.71V5285.56V5284.41V5283.25V5282.09V5280.93V5279.76V5278.6V5277.42V5276.25V5275.08V5273.9V5272.72V5271.53V5270.34V5269.15V5267.96V5266.77V5265.57V5264.37V5263.16V5261.95V5260.74V5259.53V5258.31V5257.1V5255.87V5254.65V5253.42V5252.19V5250.96V5249.72V5248.48V5247.23V5245.99V5244.74V5243.49V5242.23V5240.97V5239.71V5238.44V5237.17V5235.9V5234.63V5233.35V5232.07V5230.78V5229.49V5228.2V5226.91V5225.61V5224.31V5223V5221.69V5220.38V5219.07V5217.75V5216.43V5215.1V5213.77V5212.44V5211.1V5209.76V5208.42V5207.07V5205.72V5204.37V5203.01V5201.65V5200.29V5198.92V5197.55V5196.17V5194.79V5193.41V5192.02V5190.63V5189.24V5187.84V5186.44V5185.03V5183.62V5182.21V5180.79V5179.37V5177.94V5176.52V5175.08V5173.65V5172.21V5170.76V5169.31V5167.86V5166.41V5164.95V5163.48V5162.01V5160.54V5159.06V5157.58V5156.1V5154.61V5153.12V5151.62V5150.12V5148.61V5147.1V5145.59V5144.07V5142.55V5141.02V5139.49V5137.96V5136.42V5134.88V5133.33V5131.78V5130.22V5128.66V5127.09V5125.52V5123.95V5122.37V5120.79V5119.2V5117.61V5116.01V5114.41V5112.81C5123.49 4989.89 5183.76 4896.01 5245.9 4827.69C5297.86 4770.58 5364.13 4717.85 5419.79 4673.56C5428.01 4667.02 5436 4660.66 5443.68 4654.5C5583.03 4542.71 5645 4472.86 5643.52 4383.38C5641.96 4289.72 5601.62 4237.76 5518.85 4151.31C5513.83 4146.07 5508.62 4140.69 5503.27 4135.15C5498.57 4130.29 5493.76 4125.3 5488.85 4120.19C5475.94 4106.75 5456.12 4102.44 5438.73 4109.13C4978.37 4286.16 4510.71 4236.8 4086.98 3942.05C3913.79 3821.58 3835.69 3704.66 3777.13 3617C3769.29 3605.26 3761.8 3594.04 3754.48 3583.41C3725.17 3540.87 3700.75 3510.45 3667.08 3483.02C3633.38 3455.56 3583.56 3425.67 3499.41 3395.97C3430.52 3371.66 3358.31 3374.84 3269.99 3397.9C3225.3 3409.57 3179.24 3425.57 3128.66 3444.22C3116.8 3448.6 3104.47 3453.21 3091.82 3457.93C3052.97 3472.45 3011.11 3488.09 2970.33 3501.67C2861.98 3537.76 2730.2 3570.75 2589.96 3544.66C2443.54 3517.41 2312.47 3431 2194.64 3277.81C2019.79 3050.51 1885.59 2954.54 1777.9 2877.52C1770.75 2872.4 1763.71 2867.37 1756.79 2862.39C1700.27 2821.73 1636.69 2774.82 1584.78 2708.3C1530.15 2638.29 1495.09 2556 1474.01 2450.74C1425.75 2209.75 1527.51 2033.02 1644.69 1890.67C1686.42 1839.98 1734.73 1788.27 1780.7 1739.07C1796.52 1722.13 1812.07 1705.5 1826.97 1689.3C1887.94 1623.04 1945.16 1557.03 1994.63 1483.94C2105.57 1320 2208.49 1184.79 2352.45 1107.68C2501.75 1027.71 2669.76 1022.54 2878.06 1046.31C3057.55 1066.78 3167.27 1041.67 3248.41 985.355C3333.82 926.063 3413.99 814.186 3493.52 603.959C3525.75 518.795 3526.08 447.952 3517.49 382.023C3513.73 353.096 3508.56 326.92 3502.75 297.441C3501.4 290.566 3500.01 283.512 3498.59 276.202C3491.88 241.577 3483.5 196.192 3483.5 150.309V150.152V149.994V149.833V149.67V149.505V149.338V149.168V148.997V148.823V148.647V148.47V148.29V148.108V147.923V147.737V147.549V147.359V147.166V146.972V146.775V146.577V146.376V146.174V145.969V145.763V145.554V145.344V145.131V144.917V144.701V144.482V144.262V144.04V143.816V143.59V143.362V143.133V142.901V142.668V142.432V142.195V141.956V141.715V141.473V141.228V140.982V140.734V140.484V140.232V139.979V139.723V139.466V139.208V138.947V138.685V138.421V138.156V137.888V137.619V137.349V137.076V136.802V136.527V136.249V135.97V135.69V135.407V135.123V134.838V134.551V134.262V133.972V133.68V133.387V133.092V132.795V132.497V132.197V131.896V131.594V131.29V130.984V130.677V130.368V130.058V129.747V129.434V129.119V128.803V128.486V128.167V127.847V127.526V127.203V126.879V126.553V126.226V125.898V125.568V125.237V124.904V124.571V124.236V123.899V123.562V123.223V122.882V122.541V122.198V121.854V121.509V121.162V120.815V120.466V120.116V119.764V119.412V119.058V118.703V118.347V117.99V117.631V117.272V116.911V116.549V116.186V115.822V115.457V115.091V114.724V114.355V113.986V113.615V113.244V112.871V112.498V112.123V111.747V111.371V110.993V110.615V110.235V109.854V109.473V109.09V108.707V108.323V107.937V107.551V107.164V106.776V106.387V105.998V105.607V105.215V104.823V104.43V104.036V103.641V103.245V102.849V102.451V102.053V101.654V101.255V100.854V100.453V100.051V99.6482V99.2448V98.8406V98.4357V98.0301V97.6238V97.2168V96.8091V96.4007V95.9917V95.582V95.1717V94.7607V94.3492V93.9369V93.5241V93.1106V92.6966V92.282V91.8668V91.451V91.0346V90.6178V90.2003V89.7823V89.3638V88.9448V88.5253V88.1052V87.6847V87.2637V86.8422V86.4202V85.9978V85.575V85.1516V84.7279V84.3037V83.8792V83.4542V83.0288V82.603V82.1769V81.7503V81.3235V80.8962V80.4686V80.0407V79.6124V79.1839V78.755V78.3258V77.8963V77.4665V77.0365V76.6062V76.1756V75.7448V75.3137V74.8824V74.4509V74.0191V73.5872V73.155V72.7227V72.2901V71.8574V71.4246V70.9916V70.5584V70.1251V69.6917V69.2581V68.8244V68.3907V67.9568V67.5229V67.0888V66.6547V66.2206V65.7864V65.3521V64.9178V64.4835V64.0492V63.6148V63.1805V62.7461V62.3118V61.8775V61.4433V61.0091V60.5749V60.1408V59.7068V59.2728V58.8389V58.4052V57.9715V57.5379V57.1045V56.6712V56.238V55.805V55.3721V54.9394V54.5069V54.0746V53.6424V53.2104V52.7787V52.3471V51.9158V51.4848V51.0539V50.6233V50.193V49.763V49.3332V48.9037V48.4745V48.0456V47.617V47.1887V46.7608V46.3332V45.9059V45.479V45.0525V44.6263V44.2005V43.7752V43.3502V42.9256V42.5014V42.0776V41.6543V41.2314V40.809V40.387V39.9655V39.5445V39.124V38.7039V38.2843V37.8653V37.4468V37.0288V36.6113V36.1944V35.7781V35.3623V34.947V34.5324V34.1183V33.7049V33.292V32.8798V32.4682V32.0572V31.6468V31.2371V30.8281V30.4197V30.012V29.605V29.1986V28.793V28.3881V27.9839V27.5804V27.1777V26.7757V26.3745V25.974V25.5743V25.1753V24.7772V24.3798V23.9833V23.5876V23.1926V22.7986V22.4053V22.0129V21.6214V21.2307V20.8409V20.452V20.064V19.6768V19.2906V18.9053V18.521V18.1375V17.755V17.3735V16.9929V16.6133V16.2346V15.857V15.4803V15.1046V14.73V14.3564V13.9838V13.6122V13.2417V12.8722V12.5038V12.1365V11.7703V11.4051V11.0411V10.6781V10.3163V9.95561V9.59604V9.23761V8.88033V8.52421V8.16926V7.81548V7.46289V7.11149V6.7613V6.41232V6.06455V5.71801V5.37271V5.02866V4.68586V4.34432V4.00406V3.66507V3.32738V2.99098V2.65588V2.3221V1.98965V1.65853V1.32874V1.00031V0.673233V0.347525V0.0231915V-0.299759V-0.621315V-0.941471V-1.26022V-1.57755V-1.89345V-2.20791V-2.52093V-2.8325V-3.1426V-3.45124V-3.75839V-4.06406V-4.36823V-4.6709V-4.97205V-5.27168V-5.56978V-5.86634V-6.16136V-6.45481V-6.7467V-7.03702V-7.32575V-7.61289V-7.89843V-8.18236V-8.46468V-8.74537V-9.02442V-9.30183V-9.57759V-9.85168V-10.1241V-10.3949V-10.6639V-10.9313V-11.197V-11.4609V-11.7231V-11.9836V-12.2424V-12.4994V-12.7547V-13.0082V-13.2599V-13.5098V-13.758V-14.0043V-14.2489V-14.4916V-14.7325V-14.9716V-15.2088V-15.4442V-15.6777V-15.9093V-16.1391V-16.367V-16.593V-16.817V-17.0392V-17.2595V-17.4778V-17.6942V-17.9086V-18.1211V-18.3316V-18.5402V-18.7468V-18.9513V-19.1539V-19.3545V-19.5531V-19.7496V-19.9441V-20.1366V-20.327V-20.5153V-20.7016V-20.8858V-21.0679V-21.248V-21.4259V-21.6017V-21.7754V-21.947V-22.1164V-22.2837V-22.4489V-22.6119V-22.7727V-22.9313V-23.0877V-23.242V-23.394V-23.5438V-23.6914C3483.5 -109.296 3552.89 -178.691 3638.5 -178.691ZM5256.06 3845.01C5279.43 3837.49 5291.47 3812.15 5285.29 3788.39C5281 3771.9 5277.28 3754.81 5274.24 3737.08C5249.57 3593.7 5290.06 3471.62 5350.2 3371.31C5405.52 3279.04 5482.85 3196.9 5546.63 3129.14C5548.81 3126.83 5550.98 3124.53 5553.12 3122.25C5623.59 3047.35 5678.15 2988.08 5713.59 2927.73C5745.96 2872.59 5756.09 2826.78 5746.37 2777.02C5740.6 2747.5 5735.55 2717.72 5731.07 2687.84C5725.99 2653.85 5686.55 2636.61 5658.1 2655.89C5451.55 2795.8 5256.23 2877.25 5073.99 2907.99C4814.46 2951.77 4590.43 2890.83 4416.54 2764.82C4215.43 2619.09 4048.74 2465.77 3968.38 2259.92C3909.27 2108.48 3902.65 1944.53 3940.05 1758.98C3945.33 1732.75 3927.6 1707.18 3901.28 1702.3C3772.11 1678.33 3655.27 1625.47 3558.64 1542.41C3487.45 1481.22 3430.72 1406.62 3388.78 1321.4C3376.92 1297.31 3347.49 1287 3323.05 1298.12C3180.74 1362.88 3019.95 1374.5 2842.93 1354.31C2650.95 1332.41 2562.2 1347 2498.82 1380.94C2430.11 1417.75 2364.42 1490.62 2251.36 1657.68C2188.83 1750.08 2119.21 1829.52 2055.1 1899.2C2036.21 1919.73 2018.24 1938.96 2001.08 1957.33C1957.49 2004 1919.09 2045.1 1884.03 2087.7C1791.3 2200.34 1756.55 2282.86 1777.98 2389.87C1791.74 2458.62 1810.35 2493.46 1829.18 2517.58C1850.72 2545.19 1880.38 2569.41 1937.84 2610.75C1944.55 2615.58 1951.43 2620.51 1958.49 2625.56C2074.39 2708.48 2237.66 2825.3 2440.35 3088.81C2523.27 3196.6 2592.27 3229.77 2646.67 3239.89C2707.25 3251.16 2777.03 3239.31 2872.37 3207.56C2907.38 3195.9 2941.64 3183.1 2978.99 3169.15C2992.65 3164.04 3006.72 3158.79 3021.39 3153.38C3073.91 3134 3131.67 3113.62 3191.68 3097.96C3312.77 3066.35 3453.53 3051.05 3602.57 3103.64C3712.81 3142.54 3795.94 3188.14 3862.89 3242.7C3929.89 3297.28 3973.84 3355.4 4009.76 3407.54C4018.63 3420.42 4027.09 3433.01 4035.4 3445.37C4091.21 3528.41 4140.37 3601.57 4264 3687.56C4579.49 3907.01 4914.32 3954.95 5256.06 3845.01ZM4303 1661.62C4290.99 1666.98 4281.62 1677.05 4277.73 1689.61C4211.1 1904.83 4216.12 2042.06 4257.16 2147.2C4303.57 2266.09 4407.63 2375.53 4598.44 2513.8C4704.12 2590.38 4843.84 2632.44 5022.43 2602.31C5196.77 2572.9 5415.63 2473.07 5674.83 2253.86C5685.58 2244.77 5691.38 2231.06 5690.5 2217.01C5685.27 2133.33 5679.57 2054.4 5670.23 1979.14C5640.42 1738.79 5581.02 1611.78 5463.89 1555.53C5073.6 1368.11 4836.63 1407.21 4661.51 1478.34C4590.07 1507.36 4529.99 1540.87 4465.56 1576.81C4441.4 1590.29 4416.63 1604.11 4390.42 1618.16C4363.32 1632.68 4334.12 1647.75 4303 1661.62Z" fill="#1C506F"/>
<path id="Union_3" fill-rule="evenodd" clip-rule="evenodd" d="M3638.5 -124C3693.72 -124 3738.5 -79.2285 3738.5 -24V-23.8524V-23.7026V-23.5506V-23.3963V-23.2399V-23.0812V-22.9204V-22.7575V-22.5923V-22.425V-22.2556V-22.084V-21.9103V-21.7345V-21.5566V-21.3765V-21.1944V-21.0102V-20.8239V-20.6356V-20.4452V-20.2527V-20.0582V-19.8617V-19.6631V-19.4625V-19.2599V-19.0554V-18.8488V-18.6402V-18.4297V-18.2172V-18.0028V-17.7864V-17.5681V-17.3478V-17.1256V-16.9016V-16.6756V-16.4477V-16.2179V-15.9863V-15.7528V-15.5174V-15.2802V-15.0411V-14.8002V-14.5575V-14.3129V-14.0666V-13.8184V-13.5685V-13.3168V-13.0633V-12.808V-12.551V-12.2922V-12.0317V-11.7695V-11.5056V-11.2399V-10.9725V-10.7035V-10.4327V-10.1603V-9.88618V-9.61042V-9.33301V-9.05396V-8.77327V-8.49096V-8.20702V-7.92148V-7.63434V-7.34561V-7.05529V-6.7634V-6.46995V-6.17494V-5.87838V-5.58028V-5.28065V-4.97949V-4.67683V-4.37266V-4.06699V-3.75983V-3.4512V-3.14109V-2.82952V-2.5165V-2.20204V-1.88614V-1.56881V-1.25006V-0.929909V-0.608353V-0.285402V0.0389309V0.364639V0.691715V1.02015V1.34993V1.68106V2.01351V2.34729V2.68238V3.01878V3.35648V3.69547V4.03573V4.37727V4.72007V5.06412V5.40942V5.75596V6.10372V6.45271V6.8029V7.1543V7.50689V7.86067V8.21562V8.57174V8.92902V9.28745V9.64701V10.0077V10.3695V10.7325V11.0965V11.4617V11.8279V12.1953V12.5636V12.9331V13.3036V13.6752V14.0478V14.4214V14.796V15.1717V15.5484V15.926V16.3047V16.6843V17.0649V17.4464V17.8289V18.2124V18.5967V18.982V19.3683V19.7554V20.1434V20.5323V20.9221V21.3128V21.7043V22.0967V22.49V22.8841V23.279V23.6747V24.0712V24.4686V24.8667V25.2657V25.6654V26.0659V26.4671V26.8691V27.2718V27.6753V28.0795V28.4844V28.8901V29.2964V29.7034V30.1111V30.5195V30.9285V31.3382V31.7486V32.1596V32.5712V32.9834V33.3963V33.8097V34.2238V34.6384V35.0537V35.4695V35.8858V36.3027V36.7202V37.1382V37.5567V37.9758V38.3953V38.8154V39.2359V39.6569V40.0784V40.5004V40.9228V41.3457V41.769V42.1928V42.617V43.0416V43.4666V43.892V44.3177V44.7439V45.1704V45.5973V46.0246V46.4522V46.8801V47.3084V47.737V48.1659V48.5951V49.0246V49.4544V49.8844V50.3148V50.7453V51.1762V51.6072V52.0386V52.4701V52.9018V53.3338V53.766V54.1983V54.6308V55.0635V55.4964V55.9294V56.3626V56.7959V57.2293V57.6629V58.0966V58.5303V58.9642V59.3982V59.8322V60.2663V60.7005V61.1347V61.5689V62.0032V62.4375V62.8719V63.3062V63.7406V64.1749V64.6092V65.0435V65.4778V65.912V66.3461V66.7802V67.2143V67.6482V68.0821V68.5159V68.9495V69.3831V69.8165V70.2498V70.683V71.116V71.5489V71.9815V72.4141V72.8464V73.2786V73.7105V74.1423V74.5738V75.0051V75.4362V75.867V76.2976V76.7279V77.1579V77.5877V78.0172V78.4464V78.8753V79.3038V79.7321V80.16V80.5876V81.0149V81.4417V81.8683V82.2944V82.7202V83.1456V83.5706V83.9952V84.4193V84.8431V85.2664V85.6892V86.1116V86.5336V86.9551V87.3761V87.7966V88.2167V88.6362V89.0552V89.4737V89.8917V90.3092V90.7261V91.1424V91.5582V91.9734V92.388V92.802V93.2155V93.6283V94.0406V94.4522V94.8631V95.2735V95.6831V96.0922V96.5005V96.9082V97.3152V97.7215V98.1271V98.532V98.9362V99.3396V99.7423V100.144V100.546V100.946V101.346V101.745V102.143V102.54V102.937V103.332V103.727V104.121V104.514V104.907V105.298V105.689V106.079V106.468V106.856V107.243V107.629V108.014V108.398V108.782V109.164V109.546V109.926V110.306V110.685V111.062V111.439V111.815V112.189V112.563V112.935V113.307V113.677V114.047V114.415V114.782V115.149V115.514V115.878V116.241V116.602V116.963V117.323V117.681V118.038V118.394V118.749V119.103V119.456V119.807V120.157V120.506V120.854V121.2V121.546V121.89V122.232V122.574V122.914V123.253V123.591V123.927V124.262V124.596V124.928V125.259V125.589V125.917V126.244V126.57V126.894V127.217V127.539V127.859V128.178V128.495V128.811V129.125V129.438V129.75V130.06V130.368V130.675V130.981V131.285V131.588V131.889V132.188V132.487V132.783V133.078V133.371V133.663V133.954V134.242V134.529V134.815V135.099V135.381V135.662V135.941V136.218V136.494V136.768V137.04V137.311V137.58V137.847V138.113V138.377V138.639V138.899V139.158V139.415V139.67V139.924V140.175V140.425V140.673V140.919V141.164V141.407V141.647V141.886V142.124V142.359V142.592V142.824V143.054V143.281V143.507V143.731V143.954V144.174V144.392V144.608V144.823V145.035V145.246V145.454V145.661V145.865V146.068V146.268V146.467V146.663V146.858V147.05V147.24V147.429V147.615V147.799V147.981V148.161V148.339V148.515V148.688V148.86V149.029V149.196V149.361V149.524V149.685V149.844V150C3738.5 168.519 3742.05 191.885 3748.93 227.375C3750.02 233 3751.19 238.912 3752.41 245.077C3758.32 274.957 3765.41 310.792 3770.36 348.781C3782.75 443.93 3782.97 559.245 3732.03 693.886C3687.63 811.218 3638.71 912.944 3581.56 998.075C3570.07 1015.2 3564.6 1035.91 3568.35 1056.18C3592.39 1186.19 3648.39 1282.99 3724.87 1348.73C3807.83 1420.04 3923.25 1462 4069.49 1462C4125.4 1462 4185.38 1438.43 4269.94 1393.1C4288.9 1382.94 4309.18 1371.62 4330.66 1359.63C4398.49 1321.76 4478.23 1277.25 4565.55 1241.78C4809.26 1142.78 5121.13 1107.75 5574.28 1325.35C5820.76 1443.71 5892.45 1698.82 5923.3 1947.44C5935.97 2049.58 5942.55 2158.85 5949.03 2266.31C5950.57 2292.03 5952.12 2317.64 5953.74 2343.03C5962.27 2476.74 5972.97 2606.66 5996.64 2727.83C6021.38 2854.5 5988.08 2963.55 5933.49 3056.53C5881.53 3145.03 5806.83 3224.42 5741.3 3294.07L5738.85 3296.67C5669.19 3370.71 5609.27 3434.8 5568.9 3502.12C5530.43 3566.29 5514.03 3626.62 5525.54 3693.55C5545.65 3810.46 5610.19 3877.79 5695.11 3966.39C5697.73 3969.12 5700.37 3971.87 5703.03 3974.65C5790.36 4065.86 5895.18 4180.25 5898.48 4378.84C5902.31 4609.51 5728.43 4752.67 5603.25 4853.09C5594.44 4860.17 5585.82 4867.05 5577.4 4873.77C5519.84 4919.71 5471.59 4958.24 5434.54 4998.97C5393.68 5043.89 5378.49 5078.96 5378.49 5112.5V5114.1V5115.7V5117.3V5118.89V5120.48V5122.06V5123.64V5125.21V5126.78V5128.35V5129.91V5131.47V5133.02V5134.57V5136.11V5137.65V5139.18V5140.72V5142.24V5143.76V5145.28V5146.8V5148.3V5149.81V5151.31V5152.81V5154.3V5155.79V5157.27V5158.75V5160.23V5161.7V5163.17V5164.64V5166.1V5167.55V5169.01V5170.45V5171.9V5173.34V5174.77V5176.21V5177.64V5179.06V5180.48V5181.9V5183.31V5184.72V5186.13V5187.53V5188.93V5190.32V5191.71V5193.1V5194.48V5195.86V5197.24V5198.61V5199.98V5201.34V5202.7V5204.06V5205.41V5206.76V5208.11V5209.45V5210.79V5212.13V5213.46V5214.79V5216.12V5217.44V5218.76V5220.07V5221.39V5222.69V5224V5225.3V5226.6V5227.89V5229.19V5230.47V5231.76V5233.04V5234.32V5235.59V5236.87V5238.13V5239.4V5240.66V5241.92V5243.18V5244.43V5245.68V5246.93V5248.17V5249.41V5250.65V5251.88V5253.11V5254.34V5255.56V5256.79V5258.01V5259.22V5260.44V5261.65V5262.85V5264.06V5265.26V5266.46V5267.65V5268.85V5270.04V5271.22V5272.41V5273.59V5274.77V5275.94V5277.12V5278.29V5279.45V5280.62V5281.78V5282.94V5284.1V5285.25V5286.41V5287.55V5288.7V5289.84V5290.99V5292.12V5293.26V5294.4V5295.53V5296.66V5297.78V5298.91V5300.03V5301.15V5302.26V5303.38V5304.49V5305.6V5306.7V5307.81V5308.91V5310.01V5311.11V5312.2V5313.3V5314.39V5315.48V5316.56V5317.65V5318.73V5319.81V5320.89V5321.96V5323.04V5324.11V5325.18V5326.24V5327.31V5328.37V5329.43V5330.49V5331.55V5332.6V5333.65V5334.71V5335.75V5336.8V5337.85V5338.89V5339.93V5340.97V5342.01V5343.04V5344.08V5345.11V5346.14V5347.17V5348.19V5349.22V5350.24V5351.26V5352.28V5353.3V5354.31V5355.33V5356.34V5357.35V5358.36V5359.37V5360.38V5361.38V5362.38V5363.39V5364.39V5365.38V5366.38V5367.38V5368.37V5369.36V5370.35V5371.34V5372.33V5373.32V5374.3V5375.29V5376.27V5377.25V5378.23V5379.21V5380.19V5381.16V5382.14V5383.11V5384.08V5385.05V5386.02V5386.99V5387.96V5388.93V5389.89V5390.86V5391.82V5392.78V5393.74V5394.7V5395.66V5396.62V5397.57V5398.53V5399.48V5400.44V5401.39V5402.34V5403.29V5404.24V5405.19V5406.14V5407.08V5408.03V5408.97V5409.92V5410.86V5411.8V5412.75V5413.69V5414.63V5415.57V5416.51V5417.44V5418.38V5419.32V5420.25V5421.19V5422.12V5423.06V5423.99V5424.92V5425.86V5426.79V5427.72V5428.65V5429.58V5430.51V5431.44V5432.37V5433.3V5434.22V5435.15V5436.08V5437V5437.93V5438.85V5439.78V5440.7V5441.63V5442.55V5443.48V5444.4V5445.32V5446.25V5447.17V5448.09V5449.02V5449.94V5450.86V5451.78V5452.7V5453.62V5454.55V5455.47V5456.39V5457.31V5458.23V5459.15V5460.07V5460.99V5461.91V5462.83V5463.76V5464.68V5465.6V5466.52V5467.44V5468.36V5469.28V5470.2V5471.13V5472.05V5472.97V5473.89V5474.81V5475.74V5476.66V5477.58V5478.51V5479.43V5480.35V5481.28V5482.2V5483.13V5484.05V5484.98V5485.9V5486.83V5487.76V5488.68V5489.61V5490.54V5491.47V5492.4V5493.33V5494.26V5495.19V5496.12V5497.05V5497.98V5498.92V5499.85V5500.78V5501.72V5502.65V5503.59V5504.53V5505.46V5506.4V5507.34V5508.28V5509.22V5510.16V5511.1V5512.05V5512.99V5513.93V5514.88V5515.83V5516.77V5517.72V5518.67V5519.62V5520.57V5521.52V5522.47V5523.43V5524.38V5525.34V5526.29V5527.25V5528.21V5529.17V5530.13V5531.09V5532.05V5533.02V5533.98V5534.95V5535.92V5536.89V5537.85V5538.83V5539.8V5540.77V5541.75V5542.72V5543.7V5544.68V5545.66V5546.64V5547.62V5548.61V5549.59V5550.58V5551.57V5552.56V5553.55V5554.54V5555.54V5556.53V5557.53V5558.53V5559.53V5560.53V5561.53V5562.54V5563.54V5564.55V5565.56V5566.57V5567.58V5568.6V5569.61V5570.63V5571.65V5572.67V5573.7V5574.72V5575.75V5576.78V5577.81V5578.84V5579.87V5580.91V5581.94V5582.98V5584.02V5585.07V5586.11V5587.16V5588.21V5589.26V5590.31V5591.37V5592.42V5593.48V5594.54V5595.61V5596.67V5597.74V5598.81V5599.88V5600.95V5602.03V5603.11V5604.19V5605.27V5606.35V5607.44V5608.53V5609.62V5610.71V5611.81V5612.91V5614.01V5615.11V5616.21V5617.32V5618.43V5619.54V5620.66V5621.77V5622.89V5624.01V5625.14V5626.26V5627.39V5628.52V5629.66V5630.79V5631.93V5633.07V5634.22V5635.37V5636.51V5637.67V5638.82V5639.98V5641.14V5642.3V5643.47V5644.63V5645.8V5646.98V5648.15V5649.33V5650.52V5651.7V5652.89V5654.08V5655.27V5656.47V5657.66V5658.87V5660.07V5661.28V5662.49V5663.7V5664.92V5666.14V5667.36V5668.58V5669.81V5671.04V5672.28V5673.52V5674.76V5676C5378.49 5731.23 5333.72 5776 5278.49 5776C5223.26 5776 5178.49 5731.23 5178.49 5676V5674.76V5673.52V5672.28V5671.04V5669.81V5668.58V5667.36V5666.14V5664.92V5663.7V5662.49V5661.28V5660.07V5658.87V5657.66V5656.47V5655.27V5654.08V5652.89V5651.7V5650.52V5649.33V5648.15V5646.98V5645.8V5644.63V5643.47V5642.3V5641.14V5639.98V5638.82V5637.67V5636.51V5635.37V5634.22V5633.07V5631.93V5630.79V5629.66V5628.52V5627.39V5626.26V5625.14V5624.01V5622.89V5621.77V5620.66V5619.54V5618.43V5617.32V5616.21V5615.11V5614.01V5612.91V5611.81V5610.71V5609.62V5608.53V5607.44V5606.35V5605.27V5604.19V5603.11V5602.03V5600.95V5599.88V5598.81V5597.74V5596.67V5595.61V5594.54V5593.48V5592.42V5591.37V5590.31V5589.26V5588.21V5587.16V5586.11V5585.07V5584.02V5582.98V5581.94V5580.91V5579.87V5578.84V5577.81V5576.78V5575.75V5574.72V5573.7V5572.67V5571.65V5570.63V5569.61V5568.6V5567.58V5566.57V5565.56V5564.55V5563.54V5562.54V5561.53V5560.53V5559.53V5558.53V5557.53V5556.53V5555.54V5554.54V5553.55V5552.56V5551.57V5550.58V5549.59V5548.61V5547.62V5546.64V5545.66V5544.68V5543.7V5542.72V5541.75V5540.77V5539.8V5538.83V5537.85V5536.89V5535.92V5534.95V5533.98V5533.02V5532.05V5531.09V5530.13V5529.17V5528.21V5527.25V5526.29V5525.34V5524.38V5523.43V5522.47V5521.52V5520.57V5519.62V5518.67V5517.72V5516.77V5515.83V5514.88V5513.93V5512.99V5512.05V5511.1V5510.16V5509.22V5508.28V5507.34V5506.4V5505.46V5504.53V5503.59V5502.65V5501.72V5500.78V5499.85V5498.92V5497.98V5497.05V5496.12V5495.19V5494.26V5493.33V5492.4V5491.47V5490.54V5489.61V5488.68V5487.76V5486.83V5485.9V5484.98V5484.05V5483.13V5482.2V5481.28V5480.35V5479.43V5478.51V5477.58V5476.66V5475.74V5474.81V5473.89V5472.97V5472.05V5471.13V5470.2V5469.28V5468.36V5467.44V5466.52V5465.6V5464.68V5463.76V5462.83V5461.91V5460.99V5460.07V5459.15V5458.23V5457.31V5456.39V5455.47V5454.55V5453.62V5452.7V5451.78V5450.86V5449.94V5449.02V5448.09V5447.17V5446.25V5445.32V5444.4V5443.48V5442.55V5441.63V5440.7V5439.78V5438.85V5437.93V5437V5436.08V5435.15V5434.22V5433.3V5432.37V5431.44V5430.51V5429.58V5428.65V5427.72V5426.79V5425.86V5424.92V5423.99V5423.06V5422.12V5421.19V5420.25V5419.32V5418.38V5417.44V5416.51V5415.57V5414.63V5413.69V5412.75V5411.8V5410.86V5409.92V5408.97V5408.03V5407.08V5406.14V5405.19V5404.24V5403.29V5402.34V5401.39V5400.44V5399.48V5398.53V5397.57V5396.62V5395.66V5394.7V5393.74V5392.78V5391.82V5390.86V5389.89V5388.93V5387.96V5386.99V5386.02V5385.05V5384.08V5383.11V5382.14V5381.16V5380.19V5379.21V5378.23V5377.25V5376.27V5375.29V5374.3V5373.32V5372.33V5371.34V5370.35V5369.36V5368.37V5367.38V5366.38V5365.38V5364.39V5363.39V5362.38V5361.38V5360.38V5359.37V5358.36V5357.35V5356.34V5355.33V5354.31V5353.3V5352.28V5351.26V5350.24V5349.22V5348.19V5347.17V5346.14V5345.11V5344.08V5343.04V5342.01V5340.97V5339.93V5338.89V5337.85V5336.8V5335.75V5334.71V5333.65V5332.6V5331.55V5330.49V5329.43V5328.37V5327.31V5326.24V5325.18V5324.11V5323.04V5321.96V5320.89V5319.81V5318.73V5317.65V5316.56V5315.48V5314.39V5313.3V5312.2V5311.11V5310.01V5308.91V5307.81V5306.7V5305.6V5304.49V5303.38V5302.26V5301.15V5300.03V5298.91V5297.78V5296.66V5295.53V5294.4V5293.26V5292.12V5290.99V5289.84V5288.7V5287.55V5286.41V5285.25V5284.1V5282.94V5281.78V5280.62V5279.45V5278.29V5277.12V5275.94V5274.77V5273.59V5272.41V5271.22V5270.04V5268.85V5267.65V5266.46V5265.26V5264.06V5262.85V5261.65V5260.44V5259.22V5258.01V5256.79V5255.56V5254.34V5253.11V5251.88V5250.65V5249.41V5248.17V5246.93V5245.68V5244.43V5243.18V5241.92V5240.66V5239.4V5238.13V5236.87V5235.59V5234.32V5233.04V5231.76V5230.47V5229.19V5227.89V5226.6V5225.3V5224V5222.69V5221.39V5220.07V5218.76V5217.44V5216.12V5214.79V5213.46V5212.13V5210.79V5209.45V5208.11V5206.76V5205.41V5204.06V5202.7V5201.34V5199.98V5198.61V5197.24V5195.86V5194.48V5193.1V5191.71V5190.32V5188.93V5187.53V5186.13V5184.72V5183.31V5181.9V5180.48V5179.06V5177.64V5176.21V5174.77V5173.34V5171.9V5170.45V5169.01V5167.55V5166.1V5164.64V5163.17V5161.7V5160.23V5158.75V5157.27V5155.79V5154.3V5152.81V5151.31V5149.81V5148.3V5146.8V5145.28V5143.76V5142.24V5140.72V5139.18V5137.65V5136.11V5134.57V5133.02V5131.47V5129.91V5128.35V5126.78V5125.21V5123.64V5122.06V5120.48V5118.89V5117.3V5115.7V5114.1V5112.5C5178.49 5008.86 5229.04 4927.66 5286.59 4864.4C5335.3 4810.84 5397.64 4761.21 5453.67 4716.59C5461.97 4709.98 5470.14 4703.48 5478.1 4697.09C5614.39 4587.75 5700.5 4502.09 5698.51 4382.16C5696.57 4265.86 5642.33 4200.44 5558.57 4112.97C5553.74 4107.92 5548.8 4102.8 5543.76 4097.58C5527.5 4080.71 5510.3 4062.88 5492.95 4043.68C5486.16 4036.17 5475 4034.8 5465.67 4038.72V4038.72C5006.8 4231.16 4541.14 4190.65 4118.39 3896.59C3954.04 3782.27 3881.09 3673.19 3822.92 3586.19C3814.99 3574.34 3807.34 3562.89 3799.77 3551.9C3769.29 3507.66 3741.4 3472.32 3701.82 3440.08C3662.22 3407.81 3606.49 3375.13 3517.72 3343.8C3434.6 3314.47 3350.23 3319.8 3256.09 3344.38C3208.69 3356.75 3160.55 3373.53 3109.63 3392.31C3097.29 3396.86 3084.66 3401.58 3071.82 3406.38C3033.18 3420.82 2992.69 3435.95 2952.95 3449.18C2846.9 3484.5 2726.13 3513.74 2600.02 3490.28C2469.93 3466.07 2349.87 3389.1 2238.23 3243.97C2058.45 3010.24 1919.1 2910.58 1809.92 2832.49C1802.79 2827.39 1795.79 2822.38 1788.91 2817.44C1732.23 2776.65 1674.67 2733.77 1628.14 2674.15C1579.86 2612.28 1547.72 2538.41 1527.94 2439.64C1484.44 2222.42 1574.31 2062.4 1687.16 1925.32C1727.69 1876.09 1774.19 1826.3 1819.83 1777.45C1835.91 1760.24 1851.88 1743.14 1867.45 1726.23C1928.97 1659.36 1988.39 1590.98 2040.18 1514.45C2151.49 1349.96 2247.81 1225.81 2378.42 1155.85C2512.48 1084.05 2666.42 1077.21 2871.83 1100.64C3058.65 1121.96 3183.59 1096.99 3279.77 1030.23C3378.71 961.548 3463.94 837.282 3544.97 623.113C3581.22 527.277 3581.44 446.842 3572.03 374.611C3568.01 343.748 3562.44 315.515 3556.59 285.867C3555.27 279.143 3553.92 272.346 3552.58 265.428C3545.84 230.617 3538.5 189.981 3538.5 150V149.844V149.685V149.524V149.361V149.196V149.029V148.86V148.688V148.515V148.339V148.161V147.981V147.799V147.615V147.429V147.24V147.05V146.858V146.663V146.467V146.268V146.068V145.865V145.661V145.454V145.246V145.035V144.823V144.608V144.392V144.174V143.954V143.731V143.507V143.281V143.054V142.824V142.592V142.359V142.124V141.886V141.647V141.407V141.164V140.919V140.673V140.425V140.175V139.924V139.67V139.415V139.158V138.899V138.639V138.377V138.113V137.847V137.58V137.311V137.04V136.768V136.494V136.218V135.941V135.662V135.381V135.099V134.815V134.529V134.242V133.954V133.663V133.371V133.078V132.783V132.487V132.188V131.889V131.588V131.285V130.981V130.675V130.368V130.06V129.75V129.438V129.125V128.811V128.495V128.178V127.859V127.539V127.217V126.894V126.57V126.244V125.917V125.589V125.259V124.928V124.596V124.262V123.927V123.591V123.253V122.914V122.574V122.232V121.89V121.546V121.2V120.854V120.506V120.157V119.807V119.456V119.103V118.749V118.394V118.038V117.681V117.323V116.963V116.602V116.241V115.878V115.514V115.149V114.782V114.415V114.047V113.677V113.307V112.935V112.563V112.189V111.815V111.439V111.062V110.685V110.306V109.926V109.546V109.164V108.782V108.398V108.014V107.629V107.243V106.856V106.468V106.079V105.689V105.298V104.907V104.514V104.121V103.727V103.332V102.937V102.54V102.143V101.745V101.346V100.946V100.546V100.144V99.7423V99.3396V98.9362V98.532V98.1271V97.7215V97.3152V96.9082V96.5005V96.0922V95.6831V95.2735V94.8631V94.4522V94.0406V93.6283V93.2155V92.802V92.388V91.9734V91.5582V91.1424V90.7261V90.3092V89.8917V89.4737V89.0552V88.6362V88.2167V87.7966V87.3761V86.9551V86.5336V86.1116V85.6892V85.2664V84.8431V84.4193V83.9952V83.5706V83.1456V82.7202V82.2944V81.8683V81.4417V81.0149V80.5876V80.16V79.7321V79.3038V78.8753V78.4464V78.0172V77.5877V77.1579V76.7279V76.2976V75.867V75.4362V75.0051V74.5738V74.1423V73.7105V73.2786V72.8464V72.4141V71.9815V71.5489V71.116V70.683V70.2498V69.8165V69.3831V68.9495V68.5159V68.0821V67.6482V67.2143V66.7802V66.3461V65.912V65.4778V65.0435V64.6092V64.1749V63.7406V63.3062V62.8719V62.4375V62.0032V61.5689V61.1347V60.7005V60.2663V59.8322V59.3982V58.9642V58.5303V58.0966V57.6629V57.2293V56.7959V56.3626V55.9294V55.4964V55.0635V54.6308V54.1983V53.766V53.3338V52.9018V52.4701V52.0386V51.6072V51.1762V50.7453V50.3148V49.8844V49.4544V49.0246V48.5951V48.1659V47.737V47.3084V46.8801V46.4522V46.0246V45.5973V45.1704V44.7439V44.3177V43.892V43.4666V43.0416V42.617V42.1928V41.769V41.3457V40.9228V40.5004V40.0784V39.6569V39.2359V38.8154V38.3953V37.9758V37.5567V37.1382V36.7202V36.3027V35.8858V35.4695V35.0537V34.6384V34.2238V33.8097V33.3963V32.9834V32.5712V32.1596V31.7486V31.3382V30.9285V30.5195V30.1111V29.7034V29.2964V28.8901V28.4844V28.0795V27.6753V27.2718V26.8691V26.4671V26.0659V25.6654V25.2657V24.8667V24.4686V24.0712V23.6747V23.279V22.8841V22.49V22.0967V21.7043V21.3128V20.9221V20.5323V20.1434V19.7554V19.3683V18.982V18.5967V18.2124V17.8289V17.4464V17.0649V16.6843V16.3047V15.926V15.5484V15.1717V14.796V14.4214V14.0478V13.6752V13.3036V12.9331V12.5636V12.1953V11.8279V11.4617V11.0965V10.7325V10.3695V10.0077V9.64701V9.28745V8.92902V8.57174V8.21562V7.86067V7.50689V7.1543V6.8029V6.45271V6.10372V5.75596V5.40942V5.06412V4.72007V4.37727V4.03573V3.69547V3.35648V3.01878V2.68238V2.34729V2.01351V1.68106V1.34993V1.02015V0.691715V0.364639V0.0389309V-0.285402V-0.608353V-0.929909V-1.25006V-1.56881V-1.88614V-2.20204V-2.5165V-2.82952V-3.14109V-3.4512V-3.75983V-4.06699V-4.37266V-4.67683V-4.97949V-5.28065V-5.58028V-5.87838V-6.17494V-6.46995V-6.7634V-7.05529V-7.34561V-7.63434V-7.92148V-8.20702V-8.49096V-8.77327V-9.05396V-9.33301V-9.61042V-9.88618V-10.1603V-10.4327V-10.7035V-10.9725V-11.2399V-11.5056V-11.7695V-12.0317V-12.2922V-12.551V-12.808V-13.0633V-13.3168V-13.5685V-13.8184V-14.0666V-14.3129V-14.5575V-14.8002V-15.0411V-15.2802V-15.5174V-15.7528V-15.9863V-16.2179V-16.4477V-16.6756V-16.9016V-17.1256V-17.3478V-17.5681V-17.7864V-18.0028V-18.2172V-18.4297V-18.6402V-18.8488V-19.0554V-19.2599V-19.4625V-19.6631V-19.8617V-20.0582V-20.2527V-20.4452V-20.6356V-20.8239V-21.0102V-21.1944V-21.3765V-21.5566V-21.7345V-21.9103V-22.084V-22.2556V-22.425V-22.5923V-22.7575V-22.9204V-23.0812V-23.2399V-23.3963V-23.5506V-23.7026V-23.8524V-24C3538.5 -79.2285 3583.27 -124 3638.5 -124ZM5291.37 3890.97C5334.41 3876.45 5353.31 3827.64 5341.1 3783.89C5336.08 3765.9 5331.82 3747.1 5328.44 3727.45C5306.61 3600.56 5341.91 3491.79 5397.37 3399.28C5449.57 3312.22 5523.3 3233.88 5588.08 3165.05L5593.18 3159.63C5662.71 3085.73 5721.88 3021.93 5761.02 2955.26C5798.19 2891.97 5813.31 2832.52 5800.35 2766.17C5793.21 2729.63 5787.18 2692.64 5782.01 2655.45C5773.26 2592.52 5699.09 2560.4 5646.87 2596.6C5438.07 2741.37 5243.4 2823.33 5064.84 2853.45C4819.68 2894.8 4610.6 2837.21 4448.81 2719.97C4249.53 2575.57 4093.95 2430.04 4019.62 2239.61C3964.1 2097.39 3957.77 1940.81 3996.4 1757.71C4006.97 1707.58 3971.57 1658.39 3921.09 1649.67C3796.39 1628.14 3685.25 1578.41 3594.49 1500.4C3503.08 1421.81 3436.77 1318.33 3397.51 1195.78C3397.01 1194.23 3395.15 1193.6 3393.82 1194.52V1194.52C3242.93 1299.26 3062.62 1323.71 2849.16 1299.36C2654.29 1277.12 2551.48 1290.04 2472.85 1332.15C2390.79 1376.11 2318.49 1460.04 2205.81 1626.55C2145.6 1715.52 2078.18 1792.58 2014.63 1861.65C1996.5 1881.35 1978.96 1900.13 1962.02 1918.26C1917.91 1965.48 1877.8 2008.42 1841.57 2052.43C1744.49 2170.35 1697.86 2269.58 1724.05 2400.36C1739.11 2475.59 1760.64 2518.85 1785.82 2551.11C1812.75 2585.62 1848.43 2613.87 1905.72 2655.09C1912.46 2659.94 1919.36 2664.88 1926.44 2669.94C2040.9 2751.83 2199.01 2864.95 2396.76 3122.03C2485.87 3237.88 2565.89 3280.49 2636.61 3293.65C2711.32 3307.56 2792.1 3291.96 2889.75 3259.43C2925.77 3247.43 2961.36 3234.14 2999.04 3220.06C3012.52 3215.03 3026.28 3209.89 3040.42 3204.67C3092.6 3185.42 3148.28 3165.82 3205.58 3150.86C3320.85 3120.77 3449.44 3107.62 3584.27 3155.2C3689.88 3192.47 3767.1 3235.28 3828.15 3285.03C3889.23 3334.79 3929.72 3388 3964.46 3438.43C3973.03 3450.87 3981.31 3463.2 3989.54 3475.46C4045.95 3559.48 4100.22 3640.33 4232.6 3732.41C4568.19 3965.84 4927.31 4013.79 5291.37 3890.97ZM4274.79 1613.63C4252.86 1623.21 4235.24 1641.11 4228.04 1663.93C4156.4 1890.99 4158.1 2044.36 4205.93 2166.89C4258.36 2301.21 4373.53 2418.43 4566.17 2558.03C4683.95 2643.37 4838.63 2688.78 5031.57 2656.24C5226.82 2623.3 5466.62 2509.39 5746.13 2264.75V2264.75C5747.56 2263.5 5748.37 2261.67 5748.25 2259.78C5742.13 2158.63 5736.05 2062.64 5724.82 1972.06C5694.78 1729.93 5632.73 1575.29 5487.7 1505.65C5083.85 1311.71 4830.73 1349.93 4640.81 1427.07C4566 1457.46 4501.81 1493.27 4436.39 1529.77C4412.75 1542.95 4388.95 1556.23 4364.43 1569.37C4335.84 1584.7 4305.95 1600 4274.79 1613.63Z" fill="#1B4A67"/>
</g>
</g>
<defs>
<clipPath id="clip0_2245_1259">
<rect width="7462" height="5625" fill="white"/>
</clipPath>
</defs>
</svg>
