<svg width="8192" height="7363" viewBox="0 0 8192 7363" fill="none" xmlns="http://www.w3.org/2000/svg">
<g id="hitbox" clip-path="url(#clip0_2245_1284)">
<g id="room1Road">
<path id="road" d="M3929.65 896.5C3929.65 1154.5 4016.85 1297.02 3929.65 1527.5C3762.17 1970.17 3551.93 2114.66 3151.65 2069C2751.37 2023.34 2638.15 2108.5 2414.15 2439.5C2190.15 2770.5 1847.46 2941 1917.15 3289C1986.84 3637 2207.15 3530.04 2608.65 4052C3010.15 4573.96 3406.27 3964.69 3842.15 4118.5C4230.91 4255.69 4128.22 4448.09 4466.65 4683.5C4860.7 4957.6 5290.15 4995 5718.15 4815.5M5575.65 6684C5575.65 6684 5569.65 6255.85 5569.65 5981.5C5569.65 5707.14 6095.48 5600.1 6089.65 5249.5C6084.42 4934.61 5771.53 4889.88 5718.15 4579.5C5651.47 4191.86 6265.05 4002.04 6189.65 3616C6089.65 3104 6213.65 2472.5 5822.15 2284.5C4965.15 1872.97 4692.15 2431 4360.65 2431C4029.15 2431 3801.15 2239.5 3755.15 1906M6103.15 3209C5526.15 3714 5078.22 3710.59 4798.65 3508C4406.73 3224 4257.15 2982.5 4441.15 2450.5" stroke="#1C506F" stroke-opacity="0.05" stroke-width="310" stroke-linecap="round"/>
</g>
<g id="exit blocks">
<g id="stone7:blocksExit=true">
<path id="Rectangle 2189" d="M3689.94 1432.53C3676.61 1419.2 3679.99 1396.78 3696.66 1387.97L3833.49 1315.67C3844.35 1309.93 3857.68 1311.94 3866.37 1320.62L3894.53 1348.79C3898.86 1353.11 3901.65 1358.74 3902.48 1364.8L3910.85 1426.25C3912.18 1436.02 3908.28 1445.77 3900.58 1451.92L3857.62 1486.21C3853.3 1489.66 3848.06 1491.75 3842.56 1492.23L3770.03 1498.5C3761.79 1499.21 3753.66 1496.25 3747.82 1490.4L3689.94 1432.53Z" fill="black" fill-opacity="0.15"/>
<path id="Vector 1152" d="M3669.24 1295.23L3716.39 1265.58C3729.97 1257.05 3746.8 1255.54 3761.68 1261.53L3828.16 1288.29C3846.59 1295.71 3858.88 1313.33 3859.47 1333.19L3860.59 1371.31C3861.38 1398 3841.05 1420.6 3814.43 1422.64L3712.61 1430.43C3689.19 1432.22 3667.68 1417.47 3660.91 1394.98L3647.97 1351.97C3641.49 1330.42 3650.19 1307.21 3669.24 1295.23Z" fill="#BB816E"/>
<path id="Vector 1153" d="M3799.88 1338.08L3785.51 1316.38C3778.1 1305.21 3764.19 1300.3 3751.41 1304.36L3725.74 1312.51C3710.69 1317.29 3701.92 1332.91 3705.68 1348.25L3711.23 1370.87C3715.23 1387.15 3731.79 1397 3748 1392.74L3782.5 1383.66C3802.37 1378.43 3811.22 1355.22 3799.88 1338.08Z" fill="#9A6A5A"/>
<rect id="mapHelper" x="3643" y="1257" width="5" height="5" fill="#A4C424" fill-opacity="0.01"/>
</g>
<g id="stone6:blocksExit=true">
<path id="Rectangle 2189_2" d="M3886.27 1332.85C3873.14 1319.73 3876.19 1297.7 3892.38 1288.62L4012.23 1221.49C4021.05 1216.55 4031.84 1216.75 4040.47 1222L4089.37 1251.76C4096.1 1255.85 4100.79 1262.59 4102.3 1270.31L4112.76 1323.88C4114.75 1334.1 4110.91 1344.58 4102.79 1351.09L4054.71 1389.62C4050.34 1393.13 4045.01 1395.24 4039.43 1395.68L3968.65 1401.32C3960.47 1401.98 3952.42 1399.01 3946.63 1393.21L3886.27 1332.85Z" fill="black" fill-opacity="0.15"/>
<path id="Vector 1152_2" d="M3864.58 1251.59L3909.03 1190.65C3924.5 1169.44 3953.74 1163.81 3975.99 1177.76L4031.04 1212.28C4060.57 1230.79 4062.57 1273.08 4034.92 1294.31L3970.06 1344.09C3953 1357.18 3929.48 1357.9 3911.66 1345.87L3877.01 1322.51C3853.52 1306.66 3847.88 1274.48 3864.58 1251.59Z" fill="#BB816E"/>
<path id="Vector 1153_2" d="M3980.54 1287.3L3988.79 1266.75C3998.64 1242.23 3974.27 1217.88 3949.76 1227.74L3926.52 1237.08C3904.81 1245.82 3901.01 1274.94 3919.76 1288.95L3934.75 1300.15C3950.53 1311.94 3973.2 1305.58 3980.54 1287.3Z" fill="#9A6A5A"/>
<rect id="mapHelper_2" x="3852" y="1167" width="5" height="5" fill="#A4C424" fill-opacity="0.01"/>
</g>
<g id="stone5:blocksExit=true">
<path id="Rectangle 2189_3" d="M4059.98 1404.09C4046.05 1390.16 4050.48 1366.59 4068.51 1358.66L4163.72 1316.81C4174.28 1312.16 4186.62 1314.48 4194.78 1322.64L4223 1350.86C4226.31 1354.17 4228.73 1358.24 4230.05 1362.72L4243.42 1407.91C4246.72 1419.07 4242.78 1431.11 4233.51 1438.15L4204.54 1460.15C4199.46 1464.01 4193.22 1466.02 4186.84 1465.85L4131.06 1464.33C4123.9 1464.13 4117.09 1461.2 4112.02 1456.14L4059.98 1404.09Z" fill="black" fill-opacity="0.15"/>
<path id="Vector 1152_3" d="M4040.79 1329.96L4064.25 1286.89C4079.03 1259.74 4114.67 1252.37 4139 1271.45L4181.72 1304.93C4195.27 1315.55 4202.4 1332.4 4200.6 1349.53L4198.26 1371.67C4195.36 1399.17 4170.68 1419.1 4143.18 1416.13L4101.53 1411.65C4097.53 1411.22 4093.59 1410.3 4089.8 1408.93L4067.62 1400.86C4038.87 1390.41 4026.16 1356.82 4040.79 1329.96Z" fill="#BB816E"/>
<path id="Vector 1153_3" d="M4082.27 1334.91L4086.65 1322.5C4093 1304.49 4114.35 1296.92 4130.63 1306.91L4150.24 1318.95C4162.56 1326.51 4167.73 1341.79 4162.54 1355.29L4161.87 1357.03C4157.18 1369.22 4145.15 1376.98 4132.11 1376.21L4108.8 1374.84C4088.87 1373.67 4075.62 1353.73 4082.27 1334.91Z" fill="#9A6A5A"/>
<rect id="mapHelper_3" x="4033" y="1259" width="5" height="5" fill="#A4C424" fill-opacity="0.01"/>
</g>
<g id="stone3:blocksExit=true">
<path id="Rectangle 2189_4" d="M3885.55 1466.04C3874.62 1455.1 3874.62 1437.37 3885.55 1426.44L3919.09 1392.9C3930.02 1381.97 3947.75 1381.97 3958.68 1392.9L3979.9 1414.12C3987.07 1421.28 3989.8 1431.75 3987.06 1441.5L3979.69 1467.68C3977.05 1477.07 3969.71 1484.4 3960.32 1487.05L3934.15 1494.41C3924.4 1497.15 3913.93 1494.42 3906.77 1487.26L3885.55 1466.04Z" fill="black" fill-opacity="0.15"/>
<path id="Rectangle293" d="M3860.38 1409.23L3865.01 1395.66C3871.56 1376.47 3891.44 1365.21 3911.27 1369.47L3933.27 1374.2C3958.76 1379.68 3972.28 1407.68 3960.72 1431.05L3952.75 1447.16C3943.55 1465.75 3921.68 1474.22 3902.37 1466.69L3883.71 1459.42C3863.74 1451.64 3853.46 1429.51 3860.38 1409.23Z" fill="#BB816E"/>
<rect id="mapHelper_4" x="3857" y="1368" width="5" height="5" fill="#A4C424" fill-opacity="0.01"/>
</g>
<g id="stone4:blocksExit=true">
<path id="Rectangle 2188" d="M4196.25 1486.18C4185.32 1475.24 4185.32 1457.52 4196.25 1446.58L4222.58 1420.25C4233.52 1409.32 4251.24 1409.32 4262.18 1420.25L4263.87 1421.95C4269.91 1427.98 4272.86 1436.44 4271.89 1444.92L4269.19 1468.55C4267.71 1481.5 4257.5 1491.71 4244.55 1493.19L4220.92 1495.89C4212.44 1496.86 4203.98 1493.91 4197.95 1487.87L4196.25 1486.18Z" fill="black" fill-opacity="0.15"/>
<path id="Rectangle293_2" d="M4197.75 1411.67L4229.82 1405.13C4244.34 1402.17 4258.87 1410.17 4264.14 1424.02C4269.06 1436.95 4264.58 1451.57 4253.26 1459.53L4226.48 1478.35C4207.51 1491.69 4181.09 1484.54 4171.43 1463.45C4161.5 1441.75 4174.36 1416.44 4197.75 1411.67Z" fill="#BB816E"/>
<rect id="mapHelper_5" x="4167" y="1404" width="5" height="5" fill="#A4C424" fill-opacity="0.01"/>
</g>
<g id="stone2:blocksExit=true">
<path id="Rectangle 2188_2" d="M3586.34 1485.12C3575.4 1474.19 3575.4 1456.46 3586.34 1445.52L3624.52 1407.34C3635.46 1396.4 3653.19 1396.4 3664.12 1407.34L3681.25 1424.47C3687.83 1431.05 3690.71 1440.48 3688.93 1449.62L3682.7 1481.58C3680.52 1492.77 3671.77 1501.52 3660.58 1503.7L3628.62 1509.93C3619.48 1511.71 3610.05 1508.83 3603.47 1502.25L3586.34 1485.12Z" fill="black" fill-opacity="0.15"/>
<path id="Rectangle293_3" d="M3584.23 1398.83L3616.11 1389.11C3647.53 1379.55 3676.45 1409.81 3665.47 1440.76L3654.93 1470.45C3645.29 1497.61 3610.95 1505.97 3589.9 1486.27L3568.55 1466.3C3546.08 1445.27 3554.78 1407.8 3584.23 1398.83Z" fill="#BB816E"/>
<rect id="mapHelper_6" x="3555" y="1388" width="5" height="5" fill="#A4C424" fill-opacity="0.01"/>
</g>
</g>
<g id="walls" opacity="0.01">
<path id="wall" d="M4207.9 1312.95L4240.17 1620.78C4241.7 1635.41 4239.99 1650.21 4235.15 1664.1L4162.4 1872.92C4154.41 1895.85 4155.04 1920.91 4164.17 1943.42L4249.55 2153.86C4274.26 2214.75 4349.98 2235.67 4402.44 2196.1L4803.37 1893.65C4811.41 1887.58 4820.32 1882.77 4829.8 1879.37L5441.81 1659.59C5470.94 1649.12 5503.28 1652.74 5529.38 1669.39L6414.61 2233.94C6452.63 2258.18 6469.72 2304.87 6456.33 2347.93L6317.69 2794.02C6307.87 2825.6 6314.31 2860 6334.87 2885.89L6515.71 3113.61C6534.26 3136.97 6541.41 3167.4 6535.22 3196.57L6375.34 3949.43C6370.59 3971.8 6373.65 3995.12 6384.01 4015.5L6709.64 4656.37C6721.42 4679.54 6723.7 4706.39 6716.02 4731.22L6486.41 5473.53C6481.55 5489.27 6472.87 5503.56 6461.15 5515.13L5955 6015L5843 6143.84C5836.04 6151.84 5830.41 6160.89 5826.29 6170.66L5771.92 6299.9C5766.75 6312.18 5764.09 6325.36 5764.09 6338.68V6421.5C5764.09 6476.73 5719.32 6521.5 5664.09 6521.5H5464.5C5409.27 6521.5 5364.5 6476.73 5364.5 6421.5V6322.23C5364.5 6311.48 5362.77 6300.8 5359.37 6290.61L5335.12 6217.85C5332.06 6208.67 5327.68 6199.97 5322.11 6192.05L5266.16 6112.28C5262.06 6106.44 5257.36 6101.06 5252.12 6096.23L4890 5762C4881.4 5754.06 4874.26 5744.68 4868.91 5734.27L4627.64 5265.37C4622.91 5256.18 4616.78 5247.78 4609.48 5240.46L3965.2 4595.25C3944.17 4574.19 3914.85 4563.59 3885.22 4566.33L2851.63 4662.03C2815.18 4665.4 2779.8 4648.59 2759.39 4618.2L2359.31 4022.43C2342.94 3998.05 2316.68 3982.1 2287.5 3978.81L1560.22 3896.72C1502.01 3890.14 1461.88 3835.16 1473.39 3777.71L1581.3 3238.88C1590.02 3195.38 1569.02 3151.33 1529.74 3130.71L419.523 2547.69C367.616 2520.43 303.502 2543.47 280.818 2597.53L22.3817 3213.46C11.9105 3238.41 12.0014 3266.55 22.6337 3291.44L851.532 5231.68C857.113 5244.74 865.414 5256.47 875.881 5266.07L1718.46 6039.25C1724.8 6045.06 1731.85 6050.03 1739.45 6054.03L3096 6769.05C3100.99 6771.68 3106.19 6773.88 3111.55 6775.63L4652.61 7279.48C4663.78 7283.13 4675.51 7284.79 4687.26 7284.37L6558.14 7217.51C6585.22 7216.55 6610.74 7204.64 6628.87 7184.51L7460.56 6261.31C7465.84 6255.46 7470.4 6249 7474.16 6242.08L8173.8 4952.81C8181.75 4938.17 8185.91 4921.77 8185.91 4905.12V3848.5L7986.93 1852.89C7984.71 1830.61 7975.07 1809.72 7959.57 1793.57L6849.93 637.433C6834.43 621.28 6813.95 610.797 6791.78 607.663L5351 404L4015.51 171.482C4009.85 170.496 4004.11 170 3998.36 170H2222.1C2202.78 170 2183.88 175.595 2167.67 186.109L996.883 945.707C980.02 956.648 966.845 972.417 959.078 990.957L657.542 1710.71C639.184 1754.53 654.192 1805.22 693.449 1831.98L1505.18 2385.33C1573.01 2431.56 1664.57 2380.91 1661.44 2298.89L1651.86 2048.11C1649.94 1997.76 1685.78 1953.84 1735.49 1945.63L2505 1818.5L3307.23 1605.7C3323.8 1601.31 3338.96 1592.73 3351.26 1580.78L3631 1309.09L3692.79 1241.09C3708.13 1224.21 3717.24 1202.58 3718.61 1179.81L3723.5 1098V842.5C3723.5 787.272 3768.27 742.5 3823.5 742.5H4023.09C4078.32 742.5 4123.09 787.272 4123.09 842.5V1066.71C4123.09 1079.13 4125.4 1091.44 4129.91 1103.01L4201.62 1287.07C4204.86 1295.38 4206.97 1304.08 4207.9 1312.95Z" fill="#1C506F"/>
<path id="wall_2" d="M1680.18 2723.8L1476.03 3762.27C1463.69 3825.02 1396.45 3860.22 1337.86 3834.61L96.4257 3292.02C46.2925 3270.11 23.0759 3211.98 44.3222 3161.56L899.531 1132.1C930.324 1059.03 1029.85 1049.15 1074.41 1114.75L1632.6 1936.6C1643 1951.9 1648.94 1969.78 1649.78 1988.26L1681.96 2699.99C1682.32 2707.97 1681.72 2715.96 1680.18 2723.8Z" fill="#1C506F"/>
<path id="wall_3" d="M5413.6 3362.81L5842.51 3089.22C5876.44 3067.57 5894.08 3027.7 5887.29 2988.04L5822.97 2612.25C5816.82 2576.32 5791.6 2546.58 5757.16 2534.64L5452.7 2429.1C5434.61 2422.83 5415.11 2421.89 5396.5 2426.38L4753.71 2581.44C4711.56 2591.61 4680.76 2627.79 4677.46 2671.03L4650.5 3023.67C4648.28 3052.76 4658.87 3081.37 4679.5 3102L4926.71 3349.21C4945.46 3367.96 4970.9 3378.5 4997.42 3378.5H5359.82C5378.88 3378.5 5397.53 3373.06 5413.6 3362.81Z" fill="#1B4A67"/>
<path id="wall_4" d="M5539.17 4244.82L5182.51 3898.75C5166.01 3882.74 5144.5 3872.9 5121.59 3870.9L4797.66 3842.53C4782.42 3841.19 4767.08 3843.37 4752.82 3848.9L4367.65 3998.11C4310.68 4020.17 4286.64 4087.71 4316.85 4140.8L4484.94 4436.26C4496.6 4456.76 4515.14 4472.47 4537.27 4480.63L5144.97 4704.68C5181.82 4718.27 5223.22 4709.02 5250.79 4681.05L5540.76 4386.78C5579.74 4347.23 5579.03 4283.49 5539.17 4244.82Z" fill="#1B4A67"/>
<path id="wall_5" d="M3072.03 2364.99L3391.91 2270.86C3421.61 2262.12 3453.68 2267.62 3478.76 2285.77L4083.11 2723.06C4116.76 2747.4 4131.85 2790.01 4121.04 2830.11L3939.27 3504.33C3933.89 3524.29 3922.46 3542.08 3906.55 3555.28L3624.44 3789.22C3610.41 3800.85 3593.47 3808.43 3575.45 3811.14L2974.83 3901.29C2942.65 3906.13 2910.13 3894.99 2887.66 3871.46L2334.85 3292.41C2308.35 3264.65 2300.07 3224.16 2313.56 3188.22L2505.71 2676.25C2514.57 2652.63 2532.04 2633.23 2554.61 2621.95L3055.54 2371.48C3060.84 2368.83 3066.36 2366.66 3072.03 2364.99Z" fill="#1B4A67"/>
</g>
<g id="spawn" clip-path="url(#clip1_2245_1284)">
<rect id="Rectangle 2166" x="5550" y="6333" width="100" height="60" transform="rotate(-90 5550 6333)" fill="#DC567C"/>
</g>
<g id="exit:to=room2">
<rect id="hitbox_2" x="3510" y="461" width="807" height="632" fill="white" fill-opacity="0.05"/>
</g>
<g id="enemies">
<g id="wave 0">
<g id="PoliceBasic:wave=0">
<path id="Rectangle 1710" d="M4599 3598.39C4602.31 3592.65 4609.65 3590.69 4615.39 3594L4694.2 3639.5C4701.38 3643.64 4703.83 3652.82 4699.69 3659.99L4687.69 3680.77C4683.55 3687.95 4674.38 3690.41 4667.2 3686.27L4588.39 3640.77C4582.65 3637.45 4580.69 3630.11 4584 3624.37L4599 3598.39Z" fill="#28363E"/>
<path id="Rectangle 1715" d="M4626.06 3609.51L4665.9 3632.51L4647 3665.25L4607.16 3642.25L4626.06 3609.51Z" fill="#8598A2"/>
<path id="Rectangle 1709" d="M4628.32 3617.08C4630.3 3613.66 4628.49 3609.29 4624.67 3608.28L4620.25 3607.1C4617.94 3606.49 4615.47 3607.32 4613.98 3609.21V3609.21C4608.57 3616.09 4604.12 3623.81 4600.86 3631.94V3631.94C4599.97 3634.17 4600.48 3636.72 4602.17 3638.42L4605.4 3641.66C4608.18 3644.46 4612.87 3643.85 4614.84 3640.43L4628.32 3617.08Z" fill="#3B5766"/>
<g id="Group 120">
<path id="Rectangle 1712" d="M4639.5 3616.67C4640.81 3614.4 4643.7 3613.63 4645.97 3614.94V3614.94C4648.23 3616.24 4649.01 3619.14 4647.7 3621.41L4628.28 3655.04C4626.97 3657.31 4624.08 3658.09 4621.81 3656.78V3656.78C4619.54 3655.47 4618.77 3652.57 4620.08 3650.31L4639.5 3616.67Z" fill="#BACBD6"/>
<path id="Rectangle 1713" d="M4639.5 3616.67C4640.81 3614.4 4643.7 3613.63 4645.97 3614.94V3614.94C4648.23 3616.24 4649.01 3619.14 4647.7 3621.41L4643.91 3627.97C4642.6 3630.23 4639.71 3631.01 4637.44 3629.7V3629.7C4635.18 3628.4 4634.4 3625.5 4635.71 3623.23L4639.5 3616.67Z" fill="#A5586E"/>
<path id="Rectangle 1714" d="M4623.87 3643.74C4625.17 3641.48 4628.07 3640.7 4630.34 3642.01V3642.01C4632.6 3643.32 4633.38 3646.21 4632.07 3648.48L4628.28 3655.04C4626.97 3657.31 4624.08 3658.09 4621.81 3656.78V3656.78C4619.54 3655.47 4618.77 3652.57 4620.08 3650.31L4623.87 3643.74Z" fill="#216994"/>
</g>
<path id="Rectangle 1708" d="M4653.37 3630.54C4655.21 3627.36 4659.44 3626.56 4662.3 3628.84L4669.21 3634.34C4670.79 3635.6 4671.39 3637.71 4670.72 3639.6V3639.6C4667.3 3649.21 4662.16 3658.11 4655.55 3665.88V3665.88C4654.24 3667.41 4652.11 3667.94 4650.24 3667.2L4642.02 3663.97C4638.61 3662.63 4637.19 3658.56 4639.02 3655.39L4653.37 3630.54Z" fill="#3B5766"/>
<rect id="mapHelper_7" x="4605" y="3588" width="118" height="54" transform="rotate(30 4605 3588)" fill="#A4C424" fill-opacity="0.01"/>
</g>
<g id="GroundBasic:wave=0">
<rect id="person" x="4587" y="3378" width="60" height="60" rx="30" fill="#E87F7B"/>
</g>
<g id="GroundBasic:wave=0_2">
<rect id="person_2" x="4617" y="3233" width="60" height="60" rx="30" fill="#E87F7B"/>
</g>
<g id="GroundBasic:wave=0_3">
<rect id="person_3" x="4452" y="3263" width="60" height="60" rx="30" fill="#E87F7B"/>
</g>
</g>
<g id="wave 1">
<g id="GroundBasic:wave=1">
<rect id="person_4" x="3971" y="2374" width="60" height="60" rx="30" fill="#E87F7B"/>
</g>
<g id="GroundBasic:wave=1_2">
<rect id="person_5" x="4194" y="2280" width="60" height="60" rx="30" fill="#E87F7B"/>
</g>
<g id="GroundBasic:wave=1_3">
<rect id="person_6" x="4260" y="2437" width="60" height="60" rx="30" fill="#E87F7B"/>
</g>
<g id="PoliceBasic:wave=1">
<path id="Rectangle 1710_2" d="M4936.85 1998.57C4938.56 2004.97 4934.77 2011.55 4928.36 2013.27L4840.46 2036.82C4832.46 2038.96 4824.24 2034.21 4822.09 2026.21L4815.88 2003.03C4813.74 1995.03 4818.49 1986.8 4826.49 1984.66L4914.39 1961.11C4920.79 1959.39 4927.37 1963.19 4929.08 1969.59L4936.85 1998.57Z" fill="#28363E"/>
<path id="Rectangle 1715_2" d="M4909.85 2009.84L4865.41 2021.75L4855.63 1985.24L4900.06 1973.33L4909.85 2009.84Z" fill="#8598A2"/>
<path id="Rectangle 1709_2" d="M4902.9 2006.09C4903.93 2009.91 4908.29 2011.71 4911.71 2009.73L4915.66 2007.44C4917.74 2006.23 4918.89 2003.9 4918.61 2001.52V2001.52C4917.56 1992.82 4915.26 1984.21 4911.81 1976.16V1976.16C4910.87 1973.96 4908.7 1972.51 4906.3 1972.5L4901.73 1972.5C4897.78 1972.49 4894.9 1976.23 4895.92 1980.05L4902.9 2006.09Z" fill="#3B5766"/>
<g id="Group 120_2">
<path id="Rectangle 1712_2" d="M4895.29 2014.28C4895.97 2016.81 4894.47 2019.41 4891.94 2020.08V2020.08C4889.41 2020.76 4886.82 2019.26 4886.14 2016.73L4876.09 1979.22C4875.41 1976.69 4876.91 1974.09 4879.44 1973.41V1973.41C4881.96 1972.74 4884.56 1974.24 4885.24 1976.76L4895.29 2014.28Z" fill="#BACBD6"/>
<path id="Rectangle 1713_2" d="M4895.29 2014.28C4895.97 2016.81 4894.47 2019.41 4891.94 2020.08V2020.08C4889.41 2020.76 4886.82 2019.26 4886.14 2016.73L4884.18 2009.41C4883.5 2006.89 4885 2004.29 4887.53 2003.61V2003.61C4890.05 2002.93 4892.65 2004.43 4893.33 2006.96L4895.29 2014.28Z" fill="#A5586E"/>
<path id="Rectangle 1714_2" d="M4887.2 1984.08C4887.87 1986.61 4886.38 1989.21 4883.85 1989.89V1989.89C4881.32 1990.56 4878.72 1989.06 4878.05 1986.54L4876.09 1979.22C4875.41 1976.69 4876.91 1974.09 4879.43 1973.41V1973.41C4881.96 1972.74 4884.56 1974.24 4885.24 1976.76L4887.2 1984.08Z" fill="#216994"/>
</g>
<path id="Rectangle 1708_2" d="M4875.68 2014.29C4876.62 2017.83 4874.2 2021.39 4870.56 2021.8L4861.78 2022.8C4859.78 2023.02 4857.86 2021.96 4857 2020.14V2020.14C4852.62 2010.93 4849.96 2001 4849.15 1990.84V1990.84C4848.99 1988.83 4850.12 1986.95 4851.96 1986.14L4860.06 1982.62C4863.42 1981.15 4867.3 1983.02 4868.25 1986.57L4875.68 2014.29Z" fill="#3B5766"/>
<rect id="mapHelper_8" x="4939.96" y="2010.16" width="118" height="54" transform="rotate(165 4939.96 2010.16)" fill="#A4C424" fill-opacity="0.01"/>
</g>
<g id="PoliceBasic:wave=1_2">
<path id="Rectangle 1710_3" d="M4020.87 2554.59C4022.59 2548.19 4029.17 2544.39 4035.57 2546.11L4123.47 2569.66C4131.47 2571.8 4136.22 2580.03 4134.07 2588.03L4127.86 2611.21C4125.72 2619.21 4117.49 2623.96 4109.49 2621.82L4021.59 2598.27C4015.19 2596.55 4011.39 2589.97 4013.11 2583.57L4020.87 2554.59Z" fill="#28363E"/>
<path id="Rectangle 1715_3" d="M4049.89 2558.33L4094.32 2570.24L4084.54 2606.75L4040.11 2594.84L4049.89 2558.33Z" fill="#8598A2"/>
<path id="Rectangle 1709_3" d="M4054.03 2565.05C4055.05 2561.23 4052.17 2557.49 4048.22 2557.5L4043.65 2557.5C4041.26 2557.51 4039.09 2558.96 4038.14 2561.16V2561.16C4034.7 2569.21 4032.39 2577.82 4031.35 2586.52V2586.52C4031.06 2588.9 4032.22 2591.23 4034.29 2592.44L4038.25 2594.73C4041.66 2596.71 4046.03 2594.91 4047.05 2591.09L4054.03 2565.05Z" fill="#3B5766"/>
<g id="Group 120_3">
<path id="Rectangle 1712_3" d="M4064.72 2561.76C4065.4 2559.24 4067.99 2557.74 4070.52 2558.41V2558.41C4073.05 2559.09 4074.55 2561.69 4073.87 2564.21L4063.82 2601.73C4063.14 2604.26 4060.54 2605.76 4058.02 2605.08V2605.08C4055.49 2604.41 4053.99 2601.81 4054.67 2599.28L4064.72 2561.76Z" fill="#BACBD6"/>
<path id="Rectangle 1713_3" d="M4064.72 2561.76C4065.4 2559.24 4067.99 2557.74 4070.52 2558.41V2558.41C4073.05 2559.09 4074.55 2561.69 4073.87 2564.21L4071.91 2571.54C4071.23 2574.06 4068.63 2575.56 4066.11 2574.89V2574.89C4063.58 2574.21 4062.08 2571.61 4062.76 2569.08L4064.72 2561.76Z" fill="#A5586E"/>
<path id="Rectangle 1714_3" d="M4056.63 2591.96C4057.3 2589.43 4059.9 2587.93 4062.43 2588.61V2588.61C4064.96 2589.29 4066.46 2591.89 4065.78 2594.41L4063.82 2601.73C4063.14 2604.26 4060.54 2605.76 4058.02 2605.08V2605.08C4055.49 2604.41 4053.99 2601.81 4054.67 2599.28L4056.63 2591.96Z" fill="#216994"/>
</g>
<path id="Rectangle 1708_3" d="M4081.71 2571.57C4082.66 2568.02 4086.54 2566.15 4089.9 2567.62L4098 2571.14C4099.84 2571.95 4100.97 2573.83 4100.81 2575.84V2575.84C4099.99 2586 4097.33 2595.93 4092.96 2605.14V2605.14C4092.09 2606.95 4090.17 2608.02 4088.18 2607.8L4079.4 2606.8C4075.75 2606.39 4073.33 2602.83 4074.28 2599.29L4081.71 2571.57Z" fill="#3B5766"/>
<rect id="mapHelper_9" x="4023.98" y="2543" width="118" height="54" transform="rotate(15 4023.98 2543)" fill="#A4C424" fill-opacity="0.01"/>
</g>
</g>
</g>
<g id="environment">
<g id="tree1" clip-path="url(#clip2_2245_1284)">
<path id="Union" fill-rule="evenodd" clip-rule="evenodd" d="M5721.32 3939.69C5732.89 3939.07 5743.1 3935.12 5750.65 3927.57C5773.49 3904.73 5763.37 3857.59 5728.05 3822.27C5692.73 3786.95 5645.58 3776.83 5622.75 3799.66C5599.91 3822.5 5610.03 3869.64 5645.35 3904.96C5656.22 3915.84 5668.22 3924.32 5680.28 3930.19C5665.11 3930.69 5651.17 3936 5640.76 3946.4C5614.46 3972.7 5620.75 4021.63 5654.8 4055.69C5688.86 4089.74 5737.79 4096.03 5764.09 4069.73C5790.39 4043.43 5784.1 3994.5 5750.05 3960.44C5741.25 3951.65 5731.46 3944.7 5721.32 3939.69ZM5610.35 4028.45C5590.76 4048.04 5553.26 4042.32 5526.6 4015.65C5499.94 3988.99 5494.21 3951.49 5513.8 3931.9C5533.4 3912.3 5570.9 3918.03 5597.56 3944.69C5624.22 3971.36 5629.95 4008.85 5610.35 4028.45Z" fill="black" fill-opacity="0.15"/>
<circle id="Ellipse 1" cx="5661.15" cy="3969.79" r="72.0544" fill="#63A45E"/>
<circle id="Ellipse 1_2" cx="5526.04" cy="3943.04" r="57.0431" fill="#86B557"/>
<circle id="Ellipse 1_3" cx="5643.13" cy="3823.05" r="63.0476" fill="#73AE65"/>
<rect id="Rectangle 2165" x="5469" y="3760" width="5" height="5" fill="#A4C424" fill-opacity="0.01"/>
</g>
<g id="tree1_2" clip-path="url(#clip3_2245_1284)">
<path id="Union_2" fill-rule="evenodd" clip-rule="evenodd" d="M1798.32 3735.69C1809.89 3735.07 1820.1 3731.12 1827.65 3723.57C1850.49 3700.73 1840.37 3653.59 1805.05 3618.27C1769.73 3582.95 1722.58 3572.83 1699.75 3595.66C1676.91 3618.5 1687.03 3665.64 1722.35 3700.96C1733.22 3711.84 1745.22 3720.32 1757.28 3726.19C1742.11 3726.69 1728.17 3732 1717.76 3742.4C1691.46 3768.7 1697.75 3817.63 1731.8 3851.69C1765.86 3885.74 1814.79 3892.03 1841.09 3865.73C1867.39 3839.43 1861.1 3790.5 1827.05 3756.44C1818.25 3747.65 1808.46 3740.7 1798.32 3735.69ZM1687.35 3824.45C1667.76 3844.04 1630.26 3838.32 1603.6 3811.65C1576.94 3784.99 1571.21 3747.49 1590.8 3727.9C1610.4 3708.3 1647.9 3714.03 1674.56 3740.69C1701.22 3767.36 1706.95 3804.85 1687.35 3824.45Z" fill="black" fill-opacity="0.15"/>
<circle id="Ellipse 1_4" cx="1738.15" cy="3765.79" r="72.0544" fill="#63A45E"/>
<circle id="Ellipse 1_5" cx="1603.04" cy="3739.04" r="57.0431" fill="#86B557"/>
<circle id="Ellipse 1_6" cx="1720.13" cy="3619.05" r="63.0476" fill="#73AE65"/>
<rect id="Rectangle 2165_2" x="1546" y="3556" width="5" height="5" fill="#A4C424" fill-opacity="0.01"/>
</g>
<g id="tree1_3" clip-path="url(#clip4_2245_1284)">
<path id="Union_3" fill-rule="evenodd" clip-rule="evenodd" d="M4290.32 3479.69C4301.89 3479.07 4312.1 3475.12 4319.65 3467.57C4342.49 3444.73 4332.37 3397.59 4297.05 3362.27C4261.73 3326.95 4214.58 3316.83 4191.75 3339.66C4168.91 3362.5 4179.03 3409.64 4214.35 3444.96C4225.22 3455.84 4237.22 3464.32 4249.28 3470.19C4234.11 3470.69 4220.17 3476 4209.76 3486.4C4183.46 3512.7 4189.75 3561.63 4223.8 3595.69C4257.86 3629.74 4306.79 3636.03 4333.09 3609.73C4359.39 3583.43 4353.1 3534.5 4319.05 3500.44C4310.25 3491.65 4300.46 3484.7 4290.32 3479.69ZM4179.35 3568.45C4159.76 3588.04 4122.26 3582.32 4095.6 3555.65C4068.94 3528.99 4063.21 3491.49 4082.8 3471.9C4102.4 3452.3 4139.9 3458.03 4166.56 3484.69C4193.22 3511.36 4198.95 3548.85 4179.35 3568.45Z" fill="black" fill-opacity="0.15"/>
<circle id="Ellipse 1_7" cx="4230.15" cy="3509.79" r="72.0544" fill="#63A45E"/>
<circle id="Ellipse 1_8" cx="4095.04" cy="3483.04" r="57.0431" fill="#86B557"/>
<circle id="Ellipse 1_9" cx="4212.13" cy="3363.05" r="63.0476" fill="#73AE65"/>
<rect id="Rectangle 2165_3" x="4038" y="3300" width="5" height="5" fill="#A4C424" fill-opacity="0.01"/>
</g>
<g id="tree4">
<path id="Union_4" fill-rule="evenodd" clip-rule="evenodd" d="M3970.08 3841.36C3990.88 3845.77 4010.49 3841.94 4023.51 3828.92C4048.29 3804.14 4039.79 3755.47 4004.53 3720.2C3969.27 3684.94 3920.59 3676.44 3895.81 3701.22C3871.03 3726 3879.53 3774.68 3914.79 3809.94C3915.76 3810.91 3916.74 3811.86 3917.73 3812.78C3903.11 3810.77 3889.74 3814.03 3880.63 3823.14C3860.96 3842.82 3868.56 3882.32 3897.61 3911.37C3926.67 3940.43 3966.17 3948.03 3985.84 3928.36C4005.24 3908.96 3998.12 3870.29 3970.08 3841.36Z" fill="black" fill-opacity="0.15"/>
<circle id="Ellipse 1_10" cx="3899.05" cy="3841.56" r="54.0408" fill="#86B557"/>
<circle id="Ellipse 1_11" cx="3908.05" cy="3709.46" r="72.0544" fill="#73AE65"/>
<rect id="Rectangle 2165_4" x="3836" y="3637" width="5" height="5" fill="#A4C424" fill-opacity="0.01"/>
</g>
<g id="tree4_2">
<path id="Union_5" fill-rule="evenodd" clip-rule="evenodd" d="M6466.08 3304.36C6486.88 3308.77 6506.49 3304.94 6519.51 3291.92C6544.29 3267.14 6535.79 3218.47 6500.53 3183.2C6465.27 3147.94 6416.59 3139.44 6391.81 3164.22C6367.03 3189 6375.53 3237.68 6410.79 3272.94C6411.76 3273.91 6412.74 3274.86 6413.73 3275.78C6399.11 3273.77 6385.74 3277.03 6376.63 3286.14C6356.96 3305.82 6364.56 3345.32 6393.61 3374.37C6422.67 3403.43 6462.17 3411.03 6481.84 3391.36C6501.24 3371.96 6494.12 3333.29 6466.08 3304.36Z" fill="black" fill-opacity="0.15"/>
<circle id="Ellipse 1_12" cx="6395.05" cy="3304.56" r="54.0408" fill="#86B557"/>
<circle id="Ellipse 1_13" cx="6404.05" cy="3172.46" r="72.0544" fill="#73AE65"/>
<rect id="Rectangle 2165_5" x="6332" y="3100" width="5" height="5" fill="#A4C424" fill-opacity="0.01"/>
</g>
<g id="bush1" clip-path="url(#clip5_2245_1284)">
<path id="Union_6" fill-rule="evenodd" clip-rule="evenodd" d="M5209.1 5283.41C5213.4 5287.71 5219.2 5289.76 5225.3 5289.66C5224.24 5298.97 5228.37 5310.07 5237.08 5318.78C5250.18 5331.88 5268.67 5334.62 5278.39 5324.91C5279.09 5324.2 5279.74 5323.45 5280.31 5322.65C5296.07 5333.36 5314.8 5334.2 5325.44 5323.55C5330.57 5318.42 5333.04 5311.42 5333.01 5303.77C5334.17 5302.95 5335.27 5302.02 5336.3 5300.99C5347.78 5289.5 5346.45 5269.55 5333.31 5256.42C5320.18 5243.28 5300.23 5241.95 5288.74 5253.43C5288.27 5253.9 5287.83 5254.38 5287.4 5254.88C5278.43 5254.01 5270.06 5256.38 5264.16 5262.27C5260.93 5265.51 5258.75 5269.49 5257.59 5273.91C5255.83 5273.24 5254.07 5272.71 5252.32 5272.34C5257.72 5262.17 5256.99 5250.31 5249.59 5242.92C5240.16 5233.48 5223.44 5234.89 5212.26 5246.08C5201.07 5257.26 5199.66 5273.97 5209.1 5283.41Z" fill="black" fill-opacity="0.15"/>
<g id="Group 119">
<circle id="Ellipse 1_14" cx="5225.99" cy="5259.7" r="25.9855" fill="#6FA662"/>
<circle id="Ellipse 2" cx="5248.39" cy="5280.31" r="32.2578" fill="#6FA662"/>
<ellipse id="Ellipse 3" cx="5253.76" cy="5243.57" rx="28.6736" ry="29.5697" fill="#6FA662"/>
<circle id="Ellipse 4" cx="5287.81" cy="5278.52" r="28.6736" fill="#6FA662"/>
<circle id="Ellipse 5" cx="5288.71" cy="5247.15" r="25.9855" fill="#6FA662"/>
<circle id="Ellipse 6" cx="5311.11" cy="5267.76" r="25.0894" fill="#6FA662"/>
</g>
<rect id="Rectangle 2165_6" x="5200" y="5214" width="5" height="5" fill="#A4C424" fill-opacity="0.01"/>
</g>
<g id="tree1_4" clip-path="url(#clip6_2245_1284)">
<path id="Union_7" fill-rule="evenodd" clip-rule="evenodd" d="M5053.32 5297.69C5064.89 5297.07 5075.1 5293.12 5082.65 5285.57C5105.49 5262.73 5095.37 5215.59 5060.05 5180.27C5024.73 5144.95 4977.58 5134.83 4954.75 5157.66C4931.91 5180.5 4942.03 5227.64 4977.35 5262.96C4988.22 5273.84 5000.22 5282.32 5012.28 5288.19C4997.11 5288.69 4983.17 5294 4972.76 5304.4C4946.46 5330.7 4952.75 5379.63 4986.8 5413.69C5020.86 5447.74 5069.79 5454.03 5096.09 5427.73C5122.39 5401.43 5116.1 5352.5 5082.05 5318.44C5073.25 5309.65 5063.46 5302.7 5053.32 5297.69ZM4942.35 5386.45C4922.76 5406.04 4885.26 5400.32 4858.6 5373.65C4831.94 5346.99 4826.21 5309.49 4845.8 5289.9C4865.4 5270.3 4902.9 5276.03 4929.56 5302.69C4956.22 5329.36 4961.95 5366.85 4942.35 5386.45Z" fill="black" fill-opacity="0.15"/>
<circle id="Ellipse 1_15" cx="4993.15" cy="5327.79" r="72.0544" fill="#63A45E"/>
<circle id="Ellipse 1_16" cx="4858.04" cy="5301.04" r="57.0431" fill="#86B557"/>
<circle id="Ellipse 1_17" cx="4975.13" cy="5181.05" r="63.0476" fill="#73AE65"/>
<rect id="Rectangle 2165_7" x="4801" y="5118" width="5" height="5" fill="#A4C424" fill-opacity="0.01"/>
</g>
<g id="tree4_3">
<path id="Union_8" fill-rule="evenodd" clip-rule="evenodd" d="M6365.08 2444.36C6385.88 2448.77 6405.49 2444.94 6418.51 2431.92C6443.29 2407.14 6434.79 2358.47 6399.53 2323.2C6364.27 2287.94 6315.59 2279.44 6290.81 2304.22C6266.03 2329 6274.53 2377.68 6309.79 2412.94C6310.76 2413.91 6311.74 2414.86 6312.73 2415.78C6298.11 2413.77 6284.74 2417.03 6275.63 2426.14C6255.96 2445.82 6263.56 2485.32 6292.61 2514.37C6321.67 2543.43 6361.17 2551.03 6380.84 2531.36C6400.24 2511.96 6393.12 2473.29 6365.08 2444.36Z" fill="black" fill-opacity="0.15"/>
<circle id="Ellipse 1_18" cx="6294.05" cy="2444.56" r="54.0408" fill="#86B557"/>
<circle id="Ellipse 1_19" cx="6303.05" cy="2312.46" r="72.0544" fill="#73AE65"/>
<rect id="Rectangle 2165_8" x="6231" y="2240" width="5" height="5" fill="#A4C424" fill-opacity="0.01"/>
</g>
<g id="tree2">
<path id="Union_9" fill-rule="evenodd" clip-rule="evenodd" d="M6309.23 4354.36C6322.83 4354.53 6334.7 4350.61 6343.15 4342.15C6346.94 4338.36 6349.82 4333.88 6351.83 4328.87C6354.89 4332.63 6358.2 4336.32 6361.78 4339.9C6395.83 4373.95 6440.27 4384.73 6461.04 4363.97C6481.8 4343.2 6471.03 4298.76 6436.97 4264.71C6402.92 4230.65 6358.48 4219.88 6337.71 4240.64C6335.78 4242.58 6334.11 4244.72 6332.72 4247.04C6327.25 4239.22 6320.84 4231.55 6313.56 4224.26C6272.83 4183.54 6220.05 4170.29 6195.67 4194.67C6171.29 4219.05 6184.54 4271.83 6225.27 4312.56C6228.83 4316.12 6232.48 4319.47 6236.2 4322.61C6228.27 4323.71 6221.34 4326.83 6216.04 4332.13C6196.45 4351.73 6206.6 4393.65 6238.71 4425.76C6270.82 4457.87 6312.74 4468.02 6332.34 4448.43C6351.93 4428.83 6341.78 4386.91 6309.67 4354.8C6309.52 4354.65 6309.38 4354.51 6309.23 4354.36Z" fill="black" fill-opacity="0.15"/>
<circle id="Ellipse 1_20" cx="6360.23" cy="4266.16" r="60.0454" fill="#63A45E"/>
<circle id="Ellipse 1_21" cx="6237.07" cy="4353.16" r="54.0408" fill="#73AE65"/>
<circle id="Ellipse 1_22" cx="6216.05" cy="4218.05" r="72.0544" fill="#86B557"/>
<rect id="Rectangle 2165_9" x="6144" y="4146" width="5" height="5" fill="#A4C424" fill-opacity="0.01"/>
</g>
<g id="tree2_2">
<path id="Union_10" fill-rule="evenodd" clip-rule="evenodd" d="M2293.23 2131.36C2306.83 2131.54 2318.7 2127.61 2327.15 2119.15C2330.94 2115.36 2333.82 2110.88 2335.83 2105.87C2338.89 2109.63 2342.2 2113.32 2345.78 2116.9C2379.83 2150.95 2424.27 2161.73 2445.04 2140.97C2465.8 2120.2 2455.03 2075.76 2420.97 2041.71C2386.92 2007.65 2342.48 1996.88 2321.71 2017.64C2319.78 2019.58 2318.11 2021.72 2316.72 2024.04C2311.25 2016.22 2304.84 2008.55 2297.56 2001.26C2256.83 1960.54 2204.05 1947.29 2179.67 1971.67C2155.29 1996.05 2168.54 2048.83 2209.27 2089.56C2212.83 2093.12 2216.48 2096.47 2220.2 2099.61C2212.27 2100.71 2205.34 2103.83 2200.04 2109.13C2180.45 2128.73 2190.6 2170.65 2222.71 2202.76C2254.82 2234.87 2296.74 2245.02 2316.34 2225.43C2335.93 2205.83 2325.78 2163.91 2293.67 2131.8C2293.52 2131.65 2293.38 2131.51 2293.23 2131.36Z" fill="black" fill-opacity="0.15"/>
<circle id="Ellipse 1_23" cx="2344.23" cy="2043.16" r="60.0454" fill="#63A45E"/>
<circle id="Ellipse 1_24" cx="2221.07" cy="2130.16" r="54.0408" fill="#73AE65"/>
<circle id="Ellipse 1_25" cx="2200.05" cy="1995.05" r="72.0544" fill="#86B557"/>
<rect id="Rectangle 2165_10" x="2128" y="1923" width="5" height="5" fill="#A4C424" fill-opacity="0.01"/>
</g>
<g id="tree2_3">
<path id="Union_11" fill-rule="evenodd" clip-rule="evenodd" d="M5685.23 5290.36C5698.83 5290.53 5710.7 5286.61 5719.15 5278.15C5722.94 5274.36 5725.82 5269.88 5727.83 5264.87C5730.89 5268.63 5734.2 5272.32 5737.78 5275.9C5771.83 5309.95 5816.27 5320.73 5837.04 5299.97C5857.8 5279.2 5847.03 5234.76 5812.97 5200.71C5778.92 5166.65 5734.48 5155.88 5713.71 5176.64C5711.78 5178.58 5710.11 5180.72 5708.72 5183.04C5703.25 5175.22 5696.84 5167.55 5689.56 5160.26C5648.83 5119.54 5596.05 5106.29 5571.67 5130.67C5547.29 5155.05 5560.54 5207.83 5601.27 5248.56C5604.83 5252.12 5608.48 5255.47 5612.2 5258.61C5604.27 5259.71 5597.34 5262.83 5592.04 5268.13C5572.45 5287.73 5582.6 5329.65 5614.71 5361.76C5646.82 5393.87 5688.74 5404.02 5708.34 5384.43C5727.93 5364.83 5717.78 5322.91 5685.67 5290.8C5685.52 5290.65 5685.38 5290.51 5685.23 5290.36Z" fill="black" fill-opacity="0.15"/>
<circle id="Ellipse 1_26" cx="5736.23" cy="5202.16" r="60.0454" fill="#63A45E"/>
<circle id="Ellipse 1_27" cx="5613.07" cy="5289.16" r="54.0408" fill="#73AE65"/>
<circle id="Ellipse 1_28" cx="5592.05" cy="5154.05" r="72.0544" fill="#86B557"/>
<rect id="Rectangle 2165_11" x="5520" y="5082" width="5" height="5" fill="#A4C424" fill-opacity="0.01"/>
</g>
<g id="tree4_4">
<path id="Union_12" fill-rule="evenodd" clip-rule="evenodd" d="M6547.08 4952.36C6567.88 4956.77 6587.49 4952.94 6600.51 4939.92C6625.29 4915.14 6616.79 4866.47 6581.53 4831.2C6546.27 4795.94 6497.59 4787.44 6472.81 4812.22C6448.03 4837 6456.53 4885.68 6491.79 4920.94C6492.76 4921.91 6493.74 4922.86 6494.73 4923.78C6480.11 4921.77 6466.74 4925.03 6457.63 4934.14C6437.96 4953.82 6445.56 4993.32 6474.61 5022.37C6503.67 5051.43 6543.17 5059.03 6562.84 5039.36C6582.24 5019.96 6575.12 4981.29 6547.08 4952.36Z" fill="black" fill-opacity="0.15"/>
<circle id="Ellipse 1_29" cx="6476.05" cy="4952.56" r="54.0408" fill="#86B557"/>
<circle id="Ellipse 1_30" cx="6485.05" cy="4820.46" r="72.0544" fill="#73AE65"/>
<rect id="Rectangle 2165_12" x="6413" y="4748" width="5" height="5" fill="#A4C424" fill-opacity="0.01"/>
</g>
<g id="tree4_5">
<path id="Union_13" fill-rule="evenodd" clip-rule="evenodd" d="M1857.08 2480.36C1877.88 2484.77 1897.49 2480.94 1910.51 2467.92C1935.29 2443.14 1926.79 2394.47 1891.53 2359.2C1856.27 2323.94 1807.59 2315.44 1782.81 2340.22C1758.03 2365 1766.53 2413.68 1801.79 2448.94C1802.76 2449.91 1803.74 2450.86 1804.73 2451.78C1790.11 2449.77 1776.74 2453.03 1767.63 2462.14C1747.96 2481.82 1755.56 2521.32 1784.61 2550.37C1813.67 2579.43 1853.17 2587.03 1872.84 2567.36C1892.24 2547.96 1885.12 2509.29 1857.08 2480.36Z" fill="black" fill-opacity="0.15"/>
<circle id="Ellipse 1_31" cx="1786.05" cy="2480.56" r="54.0408" fill="#86B557"/>
<circle id="Ellipse 1_32" cx="1795.05" cy="2348.46" r="72.0544" fill="#73AE65"/>
<rect id="Rectangle 2165_13" x="1723" y="2276" width="5" height="5" fill="#A4C424" fill-opacity="0.01"/>
</g>
<g id="tree3" clip-path="url(#clip7_2245_1284)">
<path id="Union_14" fill-rule="evenodd" clip-rule="evenodd" d="M5612.28 2007.31C5650.73 2045.76 5701.61 2057.23 5725.92 2032.92C5730.95 2027.88 5734.45 2021.7 5736.5 2014.74C5737.02 2015.28 5737.56 2015.82 5738.1 2016.36C5766.81 2045.08 5804.71 2053.73 5822.75 2035.69C5840.79 2017.65 5832.14 1979.74 5803.43 1951.03C5774.71 1922.32 5736.81 1913.67 5718.77 1931.71C5717.36 1933.12 5716.11 1934.65 5715.03 1936.29C5710.68 1930.44 5705.77 1924.73 5700.31 1919.28C5661.86 1880.82 5610.98 1869.36 5586.67 1893.67C5562.36 1917.98 5573.83 1968.86 5612.28 2007.31Z" fill="black" fill-opacity="0.15"/>
<circle id="Ellipse 1_33" cx="5739.15" cy="1955.46" r="54.0408" fill="#73AE65"/>
<circle id="Ellipse 1_34" cx="5607.05" cy="1917.05" r="72.0544" fill="#63A45E"/>
<rect id="Rectangle 2165_14" x="5535" y="1845" width="5" height="5" fill="#A4C424" fill-opacity="0.01"/>
</g>
<g id="tree3_2" clip-path="url(#clip8_2245_1284)">
<path id="Union_15" fill-rule="evenodd" clip-rule="evenodd" d="M6048.28 4627.31C6086.73 4665.76 6137.61 4677.23 6161.92 4652.92C6166.95 4647.88 6170.45 4641.7 6172.5 4634.73C6173.02 4635.28 6173.56 4635.82 6174.1 4636.36C6202.81 4665.08 6240.71 4673.73 6258.75 4655.69C6276.79 4637.65 6268.14 4599.74 6239.43 4571.03C6210.71 4542.32 6172.81 4533.67 6154.77 4551.71C6153.36 4553.12 6152.11 4554.65 6151.03 4556.29C6146.68 4550.44 6141.77 4544.73 6136.31 4539.27C6097.86 4500.82 6046.98 4489.36 6022.67 4513.67C5998.36 4537.98 6009.83 4588.86 6048.28 4627.31Z" fill="black" fill-opacity="0.15"/>
<circle id="Ellipse 1_35" cx="6175.15" cy="4575.46" r="54.0408" fill="#73AE65"/>
<circle id="Ellipse 1_36" cx="6043.05" cy="4537.05" r="72.0544" fill="#63A45E"/>
<rect id="Rectangle 2165_15" x="5971" y="4465" width="5" height="5" fill="#A4C424" fill-opacity="0.01"/>
</g>
<g id="tree3_3" clip-path="url(#clip9_2245_1284)">
<path id="Union_16" fill-rule="evenodd" clip-rule="evenodd" d="M3307.28 4565.31C3345.73 4603.76 3396.61 4615.23 3420.92 4590.92C3425.95 4585.88 3429.45 4579.7 3431.5 4572.73C3432.02 4573.28 3432.56 4573.82 3433.1 4574.36C3461.81 4603.08 3499.71 4611.73 3517.75 4593.69C3535.79 4575.65 3527.14 4537.74 3498.43 4509.03C3469.71 4480.32 3431.81 4471.67 3413.77 4489.71C3412.36 4491.12 3411.11 4492.65 3410.03 4494.29C3405.68 4488.44 3400.77 4482.73 3395.31 4477.27C3356.86 4438.82 3305.98 4427.36 3281.67 4451.67C3257.36 4475.98 3268.83 4526.86 3307.28 4565.31Z" fill="black" fill-opacity="0.15"/>
<circle id="Ellipse 1_37" cx="3434.15" cy="4513.46" r="54.0408" fill="#73AE65"/>
<circle id="Ellipse 1_38" cx="3302.05" cy="4475.05" r="72.0544" fill="#63A45E"/>
<rect id="Rectangle 2165_16" x="3230" y="4403" width="5" height="5" fill="#A4C424" fill-opacity="0.01"/>
</g>
<g id="tree6" clip-path="url(#clip10_2245_1284)">
<path id="Union_17" d="M1751.02 3524.31C1732.94 3542.38 1691.2 3529.95 1657.79 3496.54C1624.38 3463.12 1611.94 3421.39 1630.02 3403.31C1648.09 3385.24 1689.83 3397.67 1723.24 3431.08C1756.66 3464.5 1769.09 3506.24 1751.02 3524.31Z" fill="black" fill-opacity="0.15"/>
<circle id="Ellipse 1_39" cx="1651" cy="3424.29" r="53" fill="#86B557"/>
<rect id="Rectangle 2165_17" x="1591" y="3364" width="5" height="5" fill="#A4C424" fill-opacity="0.01"/>
</g>
<g id="tree6_2" clip-path="url(#clip11_2245_1284)">
<path id="Union_18" d="M2308.02 3456.31C2289.94 3474.38 2248.2 3461.95 2214.79 3428.54C2181.38 3395.12 2168.94 3353.39 2187.02 3335.31C2205.09 3317.24 2246.83 3329.67 2280.24 3363.08C2313.66 3396.5 2326.09 3438.24 2308.02 3456.31Z" fill="black" fill-opacity="0.15"/>
<circle id="Ellipse 1_40" cx="2208" cy="3356.29" r="53" fill="#86B557"/>
<rect id="Rectangle 2165_18" x="2148" y="3296" width="5" height="5" fill="#A4C424" fill-opacity="0.01"/>
</g>
<g id="tree6_3" clip-path="url(#clip12_2245_1284)">
<path id="Union_19" d="M3030.02 4056.31C3011.94 4074.38 2970.2 4061.95 2936.79 4028.54C2903.38 3995.12 2890.94 3953.39 2909.02 3935.31C2927.09 3917.24 2968.83 3929.67 3002.24 3963.08C3035.66 3996.5 3048.09 4038.24 3030.02 4056.31Z" fill="black" fill-opacity="0.15"/>
<circle id="Ellipse 1_41" cx="2930" cy="3956.29" r="53" fill="#86B557"/>
<rect id="Rectangle 2165_19" x="2870" y="3896" width="5" height="5" fill="#A4C424" fill-opacity="0.01"/>
</g>
<g id="tree6_4" clip-path="url(#clip13_2245_1284)">
<path id="Union_20" d="M4312.02 4115.31C4293.94 4133.38 4252.2 4120.95 4218.79 4087.54C4185.38 4054.12 4172.94 4012.39 4191.02 3994.31C4209.09 3976.24 4250.83 3988.67 4284.24 4022.08C4317.66 4055.5 4330.09 4097.24 4312.02 4115.31Z" fill="black" fill-opacity="0.15"/>
<circle id="Ellipse 1_42" cx="4212" cy="4015.29" r="53" fill="#86B557"/>
<rect id="Rectangle 2165_20" x="4152" y="3955" width="5" height="5" fill="#A4C424" fill-opacity="0.01"/>
</g>
<g id="tree6_5" clip-path="url(#clip14_2245_1284)">
<path id="Union_21" d="M4833.02 3874.31C4814.94 3892.38 4773.2 3879.95 4739.79 3846.54C4706.38 3813.12 4693.94 3771.39 4712.02 3753.31C4730.09 3735.24 4771.83 3747.67 4805.24 3781.08C4838.66 3814.5 4851.09 3856.24 4833.02 3874.31Z" fill="black" fill-opacity="0.15"/>
<circle id="Ellipse 1_43" cx="4733" cy="3774.29" r="53" fill="#86B557"/>
<rect id="Rectangle 2165_21" x="4673" y="3714" width="5" height="5" fill="#A4C424" fill-opacity="0.01"/>
</g>
<g id="tree6_6" clip-path="url(#clip15_2245_1284)">
<path id="Union_22" d="M5917.02 3837.31C5898.94 3855.38 5857.2 3842.95 5823.79 3809.54C5790.38 3776.12 5777.94 3734.39 5796.02 3716.31C5814.09 3698.24 5855.83 3710.67 5889.24 3744.08C5922.66 3777.5 5935.09 3819.24 5917.02 3837.31Z" fill="black" fill-opacity="0.15"/>
<circle id="Ellipse 1_44" cx="5817" cy="3737.29" r="53" fill="#86B557"/>
<rect id="Rectangle 2165_22" x="5757" y="3677" width="5" height="5" fill="#A4C424" fill-opacity="0.01"/>
</g>
<g id="tree6_7" clip-path="url(#clip16_2245_1284)">
<path id="Union_23" d="M6568.02 4625.31C6549.94 4643.38 6508.2 4630.95 6474.79 4597.54C6441.38 4564.12 6428.94 4522.39 6447.02 4504.31C6465.09 4486.24 6506.83 4498.67 6540.24 4532.08C6573.66 4565.5 6586.09 4607.24 6568.02 4625.31Z" fill="black" fill-opacity="0.15"/>
<circle id="Ellipse 1_45" cx="6468" cy="4525.29" r="53" fill="#86B557"/>
<rect id="Rectangle 2165_23" x="6408" y="4465" width="5" height="5" fill="#A4C424" fill-opacity="0.01"/>
</g>
<g id="tree6_8" clip-path="url(#clip17_2245_1284)">
<path id="Union_24" d="M5339.02 6056.31C5320.94 6074.38 5279.2 6061.95 5245.79 6028.54C5212.38 5995.12 5199.94 5953.39 5218.02 5935.31C5236.09 5917.24 5277.83 5929.67 5311.24 5963.08C5344.66 5996.5 5357.09 6038.24 5339.02 6056.31Z" fill="black" fill-opacity="0.15"/>
<circle id="Ellipse 1_46" cx="5239" cy="5956.29" r="53" fill="#86B557"/>
<rect id="Rectangle 2165_24" x="5179" y="5896" width="5" height="5" fill="#A4C424" fill-opacity="0.01"/>
</g>
<g id="tree6_9" clip-path="url(#clip18_2245_1284)">
<path id="Union_25" d="M5492.02 5564.31C5473.94 5582.38 5432.2 5569.95 5398.79 5536.54C5365.38 5503.12 5352.94 5461.39 5371.02 5443.31C5389.09 5425.24 5430.83 5437.67 5464.24 5471.08C5497.66 5504.5 5510.09 5546.24 5492.02 5564.31Z" fill="black" fill-opacity="0.15"/>
<circle id="Ellipse 1_47" cx="5392" cy="5464.29" r="53" fill="#86B557"/>
<rect id="Rectangle 2165_25" x="5332" y="5404" width="5" height="5" fill="#A4C424" fill-opacity="0.01"/>
</g>
<g id="tree6_10" clip-path="url(#clip19_2245_1284)">
<path id="Union_26" d="M4756.02 5238.31C4737.94 5256.38 4696.2 5243.95 4662.79 5210.54C4629.38 5177.12 4616.94 5135.39 4635.02 5117.31C4653.09 5099.24 4694.83 5111.67 4728.24 5145.08C4761.66 5178.5 4774.09 5220.24 4756.02 5238.31Z" fill="black" fill-opacity="0.15"/>
<circle id="Ellipse 1_48" cx="4656" cy="5138.29" r="53" fill="#86B557"/>
<rect id="Rectangle 2165_26" x="4596" y="5078" width="5" height="5" fill="#A4C424" fill-opacity="0.01"/>
</g>
<g id="tree6_11" clip-path="url(#clip20_2245_1284)">
<path id="Union_27" d="M5081.02 2518.31C5062.94 2536.38 5021.2 2523.95 4987.79 2490.54C4954.38 2457.12 4941.94 2415.39 4960.02 2397.31C4978.09 2379.24 5019.83 2391.67 5053.24 2425.08C5086.66 2458.5 5099.09 2500.24 5081.02 2518.31Z" fill="black" fill-opacity="0.15"/>
<circle id="Ellipse 1_49" cx="4981" cy="2418.29" r="53" fill="#86B557"/>
<rect id="Rectangle 2165_27" x="4921" y="2358" width="5" height="5" fill="#A4C424" fill-opacity="0.01"/>
</g>
<g id="tree6_12" clip-path="url(#clip21_2245_1284)">
<path id="Union_28" d="M5290.02 1969.31C5271.94 1987.38 5230.2 1974.95 5196.79 1941.54C5163.38 1908.12 5150.94 1866.39 5169.02 1848.31C5187.09 1830.24 5228.83 1842.67 5262.24 1876.08C5295.66 1909.5 5308.09 1951.24 5290.02 1969.31Z" fill="black" fill-opacity="0.15"/>
<circle id="Ellipse 1_50" cx="5190" cy="1869.29" r="53" fill="#86B557"/>
<rect id="Rectangle 2165_28" x="5130" y="1809" width="5" height="5" fill="#A4C424" fill-opacity="0.01"/>
</g>
<g id="tree6_13" clip-path="url(#clip22_2245_1284)">
<path id="Union_29" d="M3283.02 1858.31C3264.94 1876.38 3223.2 1863.95 3189.79 1830.54C3156.38 1797.12 3143.94 1755.39 3162.02 1737.31C3180.09 1719.24 3221.83 1731.67 3255.24 1765.08C3288.66 1798.5 3301.09 1840.24 3283.02 1858.31Z" fill="black" fill-opacity="0.15"/>
<circle id="Ellipse 1_51" cx="3183" cy="1758.29" r="53" fill="#86B557"/>
<rect id="Rectangle 2165_29" x="3123" y="1698" width="5" height="5" fill="#A4C424" fill-opacity="0.01"/>
</g>
<g id="tree6_14" clip-path="url(#clip23_2245_1284)">
<path id="Union_30" d="M2133.02 2296.31C2114.94 2314.38 2073.2 2301.95 2039.79 2268.54C2006.38 2235.12 1993.94 2193.39 2012.02 2175.31C2030.09 2157.24 2071.83 2169.67 2105.24 2203.08C2138.66 2236.5 2151.09 2278.24 2133.02 2296.31Z" fill="black" fill-opacity="0.15"/>
<circle id="Ellipse 1_52" cx="2033" cy="2196.29" r="53" fill="#86B557"/>
<rect id="Rectangle 2165_30" x="1973" y="2136" width="5" height="5" fill="#A4C424" fill-opacity="0.01"/>
</g>
<g id="tree5" clip-path="url(#clip24_2245_1284)">
<path id="Union_31" d="M2298.55 3184.55C2276.82 3206.28 2232.36 3197.06 2199.26 3163.95C2166.15 3130.85 2156.93 3086.4 2178.67 3064.66C2200.4 3042.93 2244.85 3052.15 2277.96 3085.25C2311.06 3118.36 2320.28 3162.81 2298.55 3184.55Z" fill="black" fill-opacity="0.15"/>
<circle id="Ellipse 1_53" cx="2199.05" cy="3088.05" r="66.0499" fill="#63A45E"/>
<rect id="Rectangle 2165_31" x="2133" y="3022" width="5" height="5" fill="#A4C424" fill-opacity="0.01"/>
</g>
<g id="tree5_2" clip-path="url(#clip25_2245_1284)">
<path id="Union_32" d="M5117.55 5709.55C5095.82 5731.28 5051.36 5722.06 5018.26 5688.95C4985.15 5655.85 4975.93 5611.4 4997.67 5589.66C5019.4 5567.93 5063.85 5577.15 5096.96 5610.25C5130.06 5643.36 5139.28 5687.81 5117.55 5709.55Z" fill="black" fill-opacity="0.15"/>
<circle id="Ellipse 1_54" cx="5018.05" cy="5613.05" r="66.0499" fill="#63A45E"/>
<rect id="Rectangle 2165_32" x="4952" y="5547" width="5" height="5" fill="#A4C424" fill-opacity="0.01"/>
</g>
<g id="tree5_3" clip-path="url(#clip26_2245_1284)">
<path id="Union_33" d="M6027.55 5971.55C6005.82 5993.28 5961.36 5984.06 5928.26 5950.95C5895.15 5917.85 5885.93 5873.4 5907.67 5851.66C5929.4 5829.93 5973.85 5839.15 6006.96 5872.25C6040.06 5905.36 6049.28 5949.81 6027.55 5971.55Z" fill="black" fill-opacity="0.15"/>
<circle id="Ellipse 1_55" cx="5928.05" cy="5875.05" r="66.0499" fill="#63A45E"/>
<rect id="Rectangle 2165_33" x="5862" y="5809" width="5" height="5" fill="#A4C424" fill-opacity="0.01"/>
</g>
<g id="tree5_4" clip-path="url(#clip27_2245_1284)">
<path id="Union_34" d="M3740.55 4534.55C3718.82 4556.28 3674.36 4547.06 3641.26 4513.95C3608.15 4480.85 3598.93 4436.4 3620.67 4414.66C3642.4 4392.93 3686.85 4402.15 3719.96 4435.25C3753.06 4468.36 3762.28 4512.81 3740.55 4534.55Z" fill="black" fill-opacity="0.15"/>
<circle id="Ellipse 1_56" cx="3641.05" cy="4438.05" r="66.0499" fill="#63A45E"/>
<rect id="Rectangle 2165_34" x="3575" y="4372" width="5" height="5" fill="#A4C424" fill-opacity="0.01"/>
</g>
<g id="stone1" clip-path="url(#clip28_2245_1284)">
<path id="Vector 755" d="M3921.17 4474.14C3921.17 4464.65 3916.68 4455.72 3909.06 4450.06L3893.24 4438.31C3881.38 4429.5 3864.87 4430.64 3854.33 4441L3836.99 4458.04C3825.79 4469.05 3824.97 4486.82 3835.1 4498.8L3848.07 4514.15C3853.19 4520.21 3860.49 4523.99 3868.38 4524.68L3876.08 4525.35C3885.24 4526.14 3894.26 4522.7 3900.55 4516L3913.04 4502.7C3918.26 4497.13 3921.17 4489.79 3921.17 4482.16L3921.17 4474.14Z" fill="black" fill-opacity="0.15"/>
<rect id="Rectangle 1712_4" x="3848.66" y="4384" width="95.6841" height="95.6841" rx="27" transform="rotate(45 3848.66 4384)" fill="#476E86"/>
<rect id="Rectangle 2165_35" x="3791" y="4395" width="5" height="5" fill="#A4C424" fill-opacity="0.01"/>
</g>
<g id="stone1_2" clip-path="url(#clip29_2245_1284)">
<path id="Vector 755_2" d="M4182.17 3211.14C4182.17 3201.65 4177.68 3192.72 4170.06 3187.06L4154.24 3175.31C4142.38 3166.5 4125.87 3167.64 4115.33 3178L4097.99 3195.04C4086.79 3206.05 4085.97 3223.82 4096.1 3235.8L4109.07 3251.15C4114.19 3257.21 4121.49 3260.99 4129.38 3261.68L4137.08 3262.35C4146.24 3263.14 4155.26 3259.7 4161.55 3253L4174.04 3239.7C4179.26 3234.13 4182.17 3226.79 4182.17 3219.16L4182.17 3211.14Z" fill="black" fill-opacity="0.15"/>
<rect id="Rectangle 1712_5" x="4109.66" y="3121" width="95.6841" height="95.6841" rx="27" transform="rotate(45 4109.66 3121)" fill="#476E86"/>
<rect id="Rectangle 2165_36" x="4052" y="3132" width="5" height="5" fill="#A4C424" fill-opacity="0.01"/>
</g>
<g id="stone1_3" clip-path="url(#clip30_2245_1284)">
<path id="Vector 755_3" d="M5552.17 4601.14C5552.17 4591.65 5547.68 4582.72 5540.06 4577.06L5524.24 4565.31C5512.38 4556.5 5495.87 4557.64 5485.33 4568L5467.99 4585.04C5456.79 4596.05 5455.97 4613.82 5466.1 4625.8L5479.07 4641.15C5484.19 4647.21 5491.49 4650.99 5499.38 4651.68L5507.08 4652.35C5516.24 4653.14 5525.26 4649.7 5531.55 4643L5544.04 4629.7C5549.26 4624.13 5552.17 4616.79 5552.17 4609.16L5552.17 4601.14Z" fill="black" fill-opacity="0.15"/>
<rect id="Rectangle 1712_6" x="5479.66" y="4511" width="95.6841" height="95.6841" rx="27" transform="rotate(45 5479.66 4511)" fill="#476E86"/>
<rect id="Rectangle 2165_37" x="5422" y="4522" width="5" height="5" fill="#A4C424" fill-opacity="0.01"/>
</g>
<g id="stone1_4" clip-path="url(#clip31_2245_1284)">
<path id="Vector 755_4" d="M5457.17 1790.14C5457.17 1780.65 5452.68 1771.72 5445.06 1766.06L5429.24 1754.31C5417.38 1745.5 5400.87 1746.64 5390.33 1757L5372.99 1774.04C5361.79 1785.05 5360.97 1802.82 5371.1 1814.8L5384.07 1830.15C5389.19 1836.21 5396.49 1839.99 5404.38 1840.68L5412.08 1841.35C5421.24 1842.14 5430.26 1838.7 5436.55 1832L5449.04 1818.7C5454.26 1813.13 5457.17 1805.79 5457.17 1798.16L5457.17 1790.14Z" fill="black" fill-opacity="0.15"/>
<rect id="Rectangle 1712_7" x="5384.66" y="1700" width="95.6841" height="95.6841" rx="27" transform="rotate(45 5384.66 1700)" fill="#476E86"/>
<rect id="Rectangle 2165_38" x="5327" y="1711" width="5" height="5" fill="#A4C424" fill-opacity="0.01"/>
</g>
<g id="stone1_5" clip-path="url(#clip32_2245_1284)">
<path id="Vector 755_5" d="M1954.17 2081.14C1954.17 2071.65 1949.68 2062.72 1942.06 2057.06L1926.24 2045.31C1914.38 2036.5 1897.87 2037.64 1887.33 2048L1869.99 2065.04C1858.79 2076.05 1857.97 2093.82 1868.1 2105.8L1881.07 2121.15C1886.19 2127.21 1893.49 2130.99 1901.38 2131.68L1909.08 2132.35C1918.24 2133.14 1927.26 2129.7 1933.55 2123L1946.04 2109.7C1951.26 2104.13 1954.17 2096.79 1954.17 2089.16L1954.17 2081.14Z" fill="black" fill-opacity="0.15"/>
<rect id="Rectangle 1712_8" x="1881.66" y="1991" width="95.6841" height="95.6841" rx="27" transform="rotate(45 1881.66 1991)" fill="#476E86"/>
<rect id="Rectangle 2165_39" x="1824" y="2002" width="5" height="5" fill="#A4C424" fill-opacity="0.01"/>
</g>
<g id="stone1_6" clip-path="url(#clip33_2245_1284)">
<path id="Vector 755_6" d="M6349.17 4785.14C6349.17 4775.65 6344.68 4766.72 6337.06 4761.06L6321.24 4749.31C6309.38 4740.5 6292.87 4741.64 6282.33 4752L6264.99 4769.04C6253.79 4780.05 6252.97 4797.82 6263.1 4809.8L6276.07 4825.15C6281.19 4831.21 6288.49 4834.99 6296.38 4835.68L6304.08 4836.35C6313.24 4837.14 6322.26 4833.7 6328.55 4827L6341.04 4813.7C6346.26 4808.13 6349.17 4800.79 6349.17 4793.16L6349.17 4785.14Z" fill="black" fill-opacity="0.15"/>
<rect id="Rectangle 1712_9" x="6276.66" y="4695" width="95.6841" height="95.6841" rx="27" transform="rotate(45 6276.66 4695)" fill="#476E86"/>
<rect id="Rectangle 2165_40" x="6219" y="4706" width="5" height="5" fill="#A4C424" fill-opacity="0.01"/>
</g>
<g id="stone1_7" clip-path="url(#clip34_2245_1284)">
<path id="Vector 755_7" d="M5376.17 5716.14C5376.17 5706.65 5371.68 5697.72 5364.06 5692.06L5348.24 5680.31C5336.38 5671.5 5319.87 5672.64 5309.33 5683L5291.99 5700.04C5280.79 5711.05 5279.97 5728.82 5290.1 5740.8L5303.07 5756.15C5308.19 5762.21 5315.49 5765.99 5323.38 5766.68L5331.08 5767.35C5340.24 5768.14 5349.26 5764.7 5355.55 5758L5368.04 5744.7C5373.26 5739.13 5376.17 5731.79 5376.17 5724.16L5376.17 5716.14Z" fill="black" fill-opacity="0.15"/>
<rect id="Rectangle 1712_10" x="5303.66" y="5626" width="95.6841" height="95.6841" rx="27" transform="rotate(45 5303.66 5626)" fill="#476E86"/>
<rect id="Rectangle 2165_41" x="5246" y="5637" width="5" height="5" fill="#A4C424" fill-opacity="0.01"/>
</g>
<g id="stone1_8" clip-path="url(#clip35_2245_1284)">
<path id="Vector 755_8" d="M3586.17 1603.14C3586.17 1593.65 3581.68 1584.72 3574.06 1579.06L3558.24 1567.31C3546.38 1558.5 3529.87 1559.64 3519.33 1570L3501.99 1587.04C3490.79 1598.05 3489.97 1615.82 3500.1 1627.8L3513.07 1643.15C3518.19 1649.21 3525.49 1652.99 3533.38 1653.68L3541.08 1654.35C3550.24 1655.14 3559.26 1651.7 3565.55 1645L3578.04 1631.7C3583.26 1626.13 3586.17 1618.79 3586.17 1611.16L3586.17 1603.14Z" fill="black" fill-opacity="0.15"/>
<rect id="Rectangle 1712_11" x="3513.66" y="1513" width="95.6841" height="95.6841" rx="27" transform="rotate(45 3513.66 1513)" fill="#476E86"/>
<rect id="Rectangle 2165_42" x="3456" y="1524" width="5" height="5" fill="#A4C424" fill-opacity="0.01"/>
</g>
<g id="bush1_2" clip-path="url(#clip36_2245_1284)">
<path id="Union_35" fill-rule="evenodd" clip-rule="evenodd" d="M3535.1 2263.41C3539.4 2267.71 3545.2 2269.76 3551.3 2269.66C3550.24 2278.97 3554.37 2290.07 3563.08 2298.78C3576.18 2311.88 3594.67 2314.62 3604.39 2304.91C3605.09 2304.2 3605.74 2303.45 3606.31 2302.65C3622.07 2313.36 3640.8 2314.2 3651.44 2303.55C3656.57 2298.42 3659.04 2291.42 3659.01 2283.77C3660.17 2282.95 3661.27 2282.02 3662.3 2280.99C3673.78 2269.5 3672.45 2249.55 3659.31 2236.42C3646.18 2223.28 3626.23 2221.95 3614.74 2233.43C3614.27 2233.9 3613.83 2234.38 3613.4 2234.88C3604.43 2234.01 3596.06 2236.38 3590.16 2242.27C3586.93 2245.51 3584.75 2249.49 3583.59 2253.91C3581.83 2253.24 3580.07 2252.71 3578.32 2252.34C3583.72 2242.17 3582.99 2230.31 3575.59 2222.92C3566.16 2213.48 3549.44 2214.89 3538.26 2226.08C3527.07 2237.26 3525.66 2253.97 3535.1 2263.41Z" fill="black" fill-opacity="0.15"/>
<g id="Group 119_2">
<circle id="Ellipse 1_57" cx="3551.99" cy="2239.7" r="25.9855" fill="#6FA662"/>
<circle id="Ellipse 2_2" cx="3574.39" cy="2260.31" r="32.2578" fill="#6FA662"/>
<ellipse id="Ellipse 3_2" cx="3579.76" cy="2223.57" rx="28.6736" ry="29.5697" fill="#6FA662"/>
<circle id="Ellipse 4_2" cx="3613.81" cy="2258.52" r="28.6736" fill="#6FA662"/>
<circle id="Ellipse 5_2" cx="3614.71" cy="2227.15" r="25.9855" fill="#6FA662"/>
<circle id="Ellipse 6_2" cx="3637.11" cy="2247.76" r="25.0894" fill="#6FA662"/>
</g>
<rect id="Rectangle 2165_43" x="3526" y="2194" width="5" height="5" fill="#A4C424" fill-opacity="0.01"/>
</g>
<g id="bush1_3" clip-path="url(#clip37_2245_1284)">
<path id="Union_36" fill-rule="evenodd" clip-rule="evenodd" d="M4347.1 3885.41C4351.4 3889.71 4357.2 3891.76 4363.3 3891.66C4362.24 3900.97 4366.37 3912.07 4375.08 3920.78C4388.18 3933.88 4406.67 3936.62 4416.39 3926.91C4417.09 3926.2 4417.74 3925.45 4418.31 3924.65C4434.07 3935.36 4452.8 3936.2 4463.44 3925.55C4468.57 3920.42 4471.04 3913.42 4471.01 3905.77C4472.17 3904.95 4473.27 3904.02 4474.3 3902.99C4485.78 3891.5 4484.45 3871.55 4471.31 3858.42C4458.18 3845.28 4438.23 3843.95 4426.74 3855.43C4426.27 3855.9 4425.83 3856.38 4425.4 3856.88C4416.43 3856.01 4408.06 3858.38 4402.16 3864.27C4398.93 3867.51 4396.75 3871.49 4395.59 3875.91C4393.83 3875.24 4392.07 3874.71 4390.32 3874.34C4395.72 3864.17 4394.99 3852.31 4387.59 3844.92C4378.16 3835.48 4361.44 3836.89 4350.26 3848.08C4339.07 3859.26 4337.66 3875.97 4347.1 3885.41Z" fill="black" fill-opacity="0.15"/>
<g id="Group 119_3">
<circle id="Ellipse 1_58" cx="4363.99" cy="3861.7" r="25.9855" fill="#6FA662"/>
<circle id="Ellipse 2_3" cx="4386.39" cy="3882.31" r="32.2578" fill="#6FA662"/>
<ellipse id="Ellipse 3_3" cx="4391.76" cy="3845.57" rx="28.6736" ry="29.5697" fill="#6FA662"/>
<circle id="Ellipse 4_3" cx="4425.81" cy="3880.52" r="28.6736" fill="#6FA662"/>
<circle id="Ellipse 5_3" cx="4426.71" cy="3849.15" r="25.9855" fill="#6FA662"/>
<circle id="Ellipse 6_3" cx="4449.11" cy="3869.76" r="25.0894" fill="#6FA662"/>
</g>
<rect id="Rectangle 2165_44" x="4338" y="3816" width="5" height="5" fill="#A4C424" fill-opacity="0.01"/>
</g>
<g id="bush1_4" clip-path="url(#clip38_2245_1284)">
<path id="Union_37" fill-rule="evenodd" clip-rule="evenodd" d="M6357.1 5187.41C6361.4 5191.71 6367.2 5193.76 6373.3 5193.66C6372.24 5202.97 6376.37 5214.07 6385.08 5222.78C6398.18 5235.88 6416.67 5238.62 6426.39 5228.91C6427.09 5228.2 6427.74 5227.45 6428.31 5226.65C6444.07 5237.36 6462.8 5238.2 6473.44 5227.55C6478.57 5222.42 6481.04 5215.42 6481.01 5207.77C6482.17 5206.95 6483.27 5206.02 6484.3 5204.99C6495.78 5193.5 6494.45 5173.55 6481.31 5160.42C6468.18 5147.28 6448.23 5145.95 6436.74 5157.43C6436.27 5157.9 6435.83 5158.38 6435.4 5158.88C6426.43 5158.01 6418.06 5160.38 6412.16 5166.27C6408.93 5169.51 6406.75 5173.49 6405.59 5177.91C6403.83 5177.24 6402.07 5176.71 6400.32 5176.34C6405.72 5166.17 6404.99 5154.31 6397.59 5146.92C6388.16 5137.48 6371.44 5138.89 6360.26 5150.08C6349.07 5161.26 6347.66 5177.97 6357.1 5187.41Z" fill="black" fill-opacity="0.15"/>
<g id="Group 119_4">
<circle id="Ellipse 1_59" cx="6373.99" cy="5163.7" r="25.9855" fill="#6FA662"/>
<circle id="Ellipse 2_4" cx="6396.39" cy="5184.31" r="32.2578" fill="#6FA662"/>
<ellipse id="Ellipse 3_4" cx="6401.76" cy="5147.57" rx="28.6736" ry="29.5697" fill="#6FA662"/>
<circle id="Ellipse 4_4" cx="6435.81" cy="5182.52" r="28.6736" fill="#6FA662"/>
<circle id="Ellipse 5_4" cx="6436.71" cy="5151.15" r="25.9855" fill="#6FA662"/>
<circle id="Ellipse 6_4" cx="6459.11" cy="5171.76" r="25.0894" fill="#6FA662"/>
</g>
<rect id="Rectangle 2165_45" x="6348" y="5118" width="5" height="5" fill="#A4C424" fill-opacity="0.01"/>
</g>
<g id="bush1_5" clip-path="url(#clip39_2245_1284)">
<path id="Union_38" fill-rule="evenodd" clip-rule="evenodd" d="M2333.1 3495.41C2337.4 3499.71 2343.2 3501.76 2349.3 3501.66C2348.24 3510.97 2352.37 3522.07 2361.08 3530.78C2374.18 3543.88 2392.67 3546.62 2402.39 3536.91C2403.09 3536.2 2403.74 3535.45 2404.31 3534.65C2420.07 3545.36 2438.8 3546.2 2449.44 3535.55C2454.57 3530.42 2457.04 3523.42 2457.01 3515.77C2458.17 3514.95 2459.27 3514.02 2460.3 3512.99C2471.78 3501.5 2470.45 3481.55 2457.31 3468.42C2444.18 3455.28 2424.23 3453.95 2412.74 3465.43C2412.27 3465.9 2411.83 3466.38 2411.4 3466.88C2402.43 3466.01 2394.06 3468.38 2388.16 3474.27C2384.93 3477.51 2382.75 3481.49 2381.59 3485.91C2379.83 3485.24 2378.07 3484.71 2376.32 3484.34C2381.72 3474.17 2380.99 3462.31 2373.59 3454.92C2364.16 3445.48 2347.44 3446.89 2336.26 3458.08C2325.07 3469.26 2323.66 3485.97 2333.1 3495.41Z" fill="black" fill-opacity="0.15"/>
<g id="Group 119_5">
<circle id="Ellipse 1_60" cx="2349.99" cy="3471.7" r="25.9855" fill="#6FA662"/>
<circle id="Ellipse 2_5" cx="2372.39" cy="3492.31" r="32.2578" fill="#6FA662"/>
<ellipse id="Ellipse 3_5" cx="2377.76" cy="3455.57" rx="28.6736" ry="29.5697" fill="#6FA662"/>
<circle id="Ellipse 4_5" cx="2411.81" cy="3490.52" r="28.6736" fill="#6FA662"/>
<circle id="Ellipse 5_5" cx="2412.71" cy="3459.15" r="25.9855" fill="#6FA662"/>
<circle id="Ellipse 6_5" cx="2435.11" cy="3479.76" r="25.0894" fill="#6FA662"/>
</g>
<rect id="Rectangle 2165_46" x="2324" y="3426" width="5" height="5" fill="#A4C424" fill-opacity="0.01"/>
</g>
<g id="bush1_6" clip-path="url(#clip40_2245_1284)">
<path id="Union_39" fill-rule="evenodd" clip-rule="evenodd" d="M1977.1 2476.41C1981.4 2480.71 1987.2 2482.76 1993.3 2482.66C1992.24 2491.97 1996.37 2503.07 2005.08 2511.78C2018.18 2524.88 2036.67 2527.62 2046.39 2517.91C2047.09 2517.2 2047.74 2516.45 2048.31 2515.65C2064.07 2526.36 2082.8 2527.2 2093.44 2516.55C2098.57 2511.42 2101.04 2504.42 2101.01 2496.77C2102.17 2495.95 2103.27 2495.02 2104.3 2493.99C2115.78 2482.5 2114.45 2462.55 2101.31 2449.42C2088.18 2436.28 2068.23 2434.95 2056.74 2446.43C2056.27 2446.9 2055.83 2447.38 2055.4 2447.88C2046.43 2447.01 2038.06 2449.38 2032.16 2455.27C2028.93 2458.51 2026.75 2462.49 2025.59 2466.91C2023.83 2466.24 2022.07 2465.71 2020.32 2465.34C2025.72 2455.17 2024.99 2443.31 2017.59 2435.92C2008.16 2426.48 1991.44 2427.89 1980.26 2439.08C1969.07 2450.26 1967.66 2466.97 1977.1 2476.41Z" fill="black" fill-opacity="0.15"/>
<g id="Group 119_6">
<circle id="Ellipse 1_61" cx="1993.99" cy="2452.7" r="25.9855" fill="#6FA662"/>
<circle id="Ellipse 2_6" cx="2016.39" cy="2473.31" r="32.2578" fill="#6FA662"/>
<ellipse id="Ellipse 3_6" cx="2021.76" cy="2436.57" rx="28.6736" ry="29.5697" fill="#6FA662"/>
<circle id="Ellipse 4_6" cx="2055.81" cy="2471.52" r="28.6736" fill="#6FA662"/>
<circle id="Ellipse 5_6" cx="2056.71" cy="2440.15" r="25.9855" fill="#6FA662"/>
<circle id="Ellipse 6_6" cx="2079.11" cy="2460.76" r="25.0894" fill="#6FA662"/>
</g>
<rect id="Rectangle 2165_47" x="1968" y="2407" width="5" height="5" fill="#A4C424" fill-opacity="0.01"/>
</g>
<g id="bush1_7" clip-path="url(#clip41_2245_1284)">
<path id="Union_40" fill-rule="evenodd" clip-rule="evenodd" d="M2898.1 1797.41C2902.4 1801.71 2908.2 1803.76 2914.3 1803.66C2913.24 1812.97 2917.37 1824.07 2926.08 1832.78C2939.18 1845.88 2957.67 1848.62 2967.39 1838.91C2968.09 1838.2 2968.74 1837.45 2969.31 1836.65C2985.07 1847.36 3003.8 1848.2 3014.44 1837.55C3019.57 1832.42 3022.04 1825.42 3022.01 1817.77C3023.17 1816.95 3024.27 1816.02 3025.3 1814.99C3036.78 1803.5 3035.45 1783.55 3022.31 1770.42C3009.18 1757.28 2989.23 1755.95 2977.74 1767.43C2977.27 1767.9 2976.83 1768.38 2976.4 1768.88C2967.43 1768.01 2959.06 1770.38 2953.16 1776.27C2949.93 1779.51 2947.75 1783.49 2946.59 1787.91C2944.83 1787.24 2943.07 1786.71 2941.32 1786.34C2946.72 1776.17 2945.99 1764.31 2938.59 1756.92C2929.16 1747.48 2912.44 1748.89 2901.26 1760.08C2890.07 1771.26 2888.66 1787.97 2898.1 1797.41Z" fill="black" fill-opacity="0.15"/>
<g id="Group 119_7">
<circle id="Ellipse 1_62" cx="2914.99" cy="1773.7" r="25.9855" fill="#6FA662"/>
<circle id="Ellipse 2_7" cx="2937.39" cy="1794.31" r="32.2578" fill="#6FA662"/>
<ellipse id="Ellipse 3_7" cx="2942.76" cy="1757.57" rx="28.6736" ry="29.5697" fill="#6FA662"/>
<circle id="Ellipse 4_7" cx="2976.81" cy="1792.52" r="28.6736" fill="#6FA662"/>
<circle id="Ellipse 5_7" cx="2977.71" cy="1761.15" r="25.9855" fill="#6FA662"/>
<circle id="Ellipse 6_7" cx="3000.11" cy="1781.76" r="25.0894" fill="#6FA662"/>
</g>
<rect id="Rectangle 2165_48" x="2889" y="1728" width="5" height="5" fill="#A4C424" fill-opacity="0.01"/>
</g>
<g id="bush1_8" clip-path="url(#clip42_2245_1284)">
<path id="Union_41" fill-rule="evenodd" clip-rule="evenodd" d="M5327.1 4690.41C5331.4 4694.71 5337.2 4696.76 5343.3 4696.66C5342.24 4705.97 5346.37 4717.07 5355.08 4725.78C5368.18 4738.88 5386.67 4741.62 5396.39 4731.91C5397.09 4731.2 5397.74 4730.45 5398.31 4729.65C5414.07 4740.36 5432.8 4741.2 5443.44 4730.55C5448.57 4725.42 5451.04 4718.42 5451.01 4710.77C5452.17 4709.95 5453.27 4709.02 5454.3 4707.99C5465.78 4696.5 5464.45 4676.55 5451.31 4663.42C5438.18 4650.28 5418.23 4648.95 5406.74 4660.43C5406.27 4660.9 5405.83 4661.38 5405.4 4661.88C5396.43 4661.01 5388.06 4663.38 5382.16 4669.27C5378.93 4672.51 5376.75 4676.49 5375.59 4680.91C5373.83 4680.24 5372.07 4679.71 5370.32 4679.34C5375.72 4669.17 5374.99 4657.31 5367.59 4649.92C5358.16 4640.48 5341.44 4641.89 5330.26 4653.08C5319.07 4664.26 5317.66 4680.97 5327.1 4690.41Z" fill="black" fill-opacity="0.15"/>
<g id="Group 119_8">
<circle id="Ellipse 1_63" cx="5343.99" cy="4666.7" r="25.9855" fill="#6FA662"/>
<circle id="Ellipse 2_8" cx="5366.39" cy="4687.31" r="32.2578" fill="#6FA662"/>
<ellipse id="Ellipse 3_8" cx="5371.76" cy="4650.57" rx="28.6736" ry="29.5697" fill="#6FA662"/>
<circle id="Ellipse 4_8" cx="5405.81" cy="4685.52" r="28.6736" fill="#6FA662"/>
<circle id="Ellipse 5_8" cx="5406.71" cy="4654.15" r="25.9855" fill="#6FA662"/>
<circle id="Ellipse 6_8" cx="5429.11" cy="4674.76" r="25.0894" fill="#6FA662"/>
</g>
<rect id="Rectangle 2165_49" x="5318" y="4621" width="5" height="5" fill="#A4C424" fill-opacity="0.01"/>
</g>
<g id="barrel">
<g id="Ellipse 9" filter="url(#filter0_d_2245_1284)">
<circle cx="2995" cy="2272" r="35" fill="#A5586E"/>
</g>
<circle id="Ellipse 10" cx="3006.5" cy="2283.5" r="8.5" fill="#803A4E"/>
<rect id="Rectangle 2165_50" x="2960" y="2237" width="5" height="5" fill="#A4C424" fill-opacity="0.01"/>
</g>
<g id="barrel_2">
<g id="Ellipse 9_2" filter="url(#filter1_d_2245_1284)">
<circle cx="2781" cy="3876" r="35" fill="#A5586E"/>
</g>
<circle id="Ellipse 10_2" cx="2792.5" cy="3887.5" r="8.5" fill="#803A4E"/>
<rect id="Rectangle 2165_51" x="2746" y="3841" width="5" height="5" fill="#A4C424" fill-opacity="0.01"/>
</g>
<g id="barrel_3">
<g id="Ellipse 9_3" filter="url(#filter2_d_2245_1284)">
<circle cx="4030" cy="4597" r="35" fill="#A5586E"/>
</g>
<circle id="Ellipse 10_3" cx="4041.5" cy="4608.5" r="8.5" fill="#803A4E"/>
<rect id="Rectangle 2165_52" x="3995" y="4562" width="5" height="5" fill="#A4C424" fill-opacity="0.01"/>
</g>
<g id="barrel_4">
<g id="Ellipse 9_4" filter="url(#filter3_d_2245_1284)">
<circle cx="5968" cy="3560" r="35" fill="#A5586E"/>
</g>
<circle id="Ellipse 10_4" cx="5979.5" cy="3571.5" r="8.5" fill="#803A4E"/>
<rect id="Rectangle 2165_53" x="5933" y="3525" width="5" height="5" fill="#A4C424" fill-opacity="0.01"/>
</g>
<g id="barrel_5">
<g id="Ellipse 9_5" filter="url(#filter4_d_2245_1284)">
<circle cx="4627" cy="2559" r="35" fill="#A5586E"/>
</g>
<circle id="Ellipse 10_5" cx="4638.5" cy="2570.5" r="8.5" fill="#803A4E"/>
<rect id="Rectangle 2165_54" x="4592" y="2524" width="5" height="5" fill="#A4C424" fill-opacity="0.01"/>
</g>
<g id="barrel_6">
<g id="Ellipse 9_6" filter="url(#filter5_d_2245_1284)">
<circle cx="2113" cy="3237" r="35" fill="#A5586E"/>
</g>
<circle id="Ellipse 10_6" cx="2124.5" cy="3248.5" r="8.5" fill="#803A4E"/>
<rect id="Rectangle 2165_55" x="2078" y="3202" width="5" height="5" fill="#A4C424" fill-opacity="0.01"/>
</g>
<g id="barrel_7">
<g id="Ellipse 9_7" filter="url(#filter6_d_2245_1284)">
<circle cx="4368" cy="3423" r="35" fill="#A5586E"/>
</g>
<circle id="Ellipse 10_7" cx="4379.5" cy="3434.5" r="8.5" fill="#803A4E"/>
<rect id="Rectangle 2165_56" x="4333" y="3388" width="5" height="5" fill="#A4C424" fill-opacity="0.01"/>
</g>
<g id="barrel_8">
<g id="Ellipse 9_8" filter="url(#filter7_d_2245_1284)">
<circle cx="5745" cy="5053" r="35" fill="#A5586E"/>
</g>
<circle id="Ellipse 10_8" cx="5756.5" cy="5064.5" r="8.5" fill="#803A4E"/>
<rect id="Rectangle 2165_57" x="5710" y="5018" width="5" height="5" fill="#A4C424" fill-opacity="0.01"/>
</g>
<g id="stone5">
<path id="Rectangle 2189_5" d="M4461.98 5055.09C4448.05 5041.16 4452.48 5017.59 4470.51 5009.66L4565.72 4967.81C4576.28 4963.16 4588.62 4965.48 4596.78 4973.64L4625 5001.86C4628.31 5005.17 4630.73 5009.24 4632.05 5013.72L4645.42 5058.91C4648.72 5070.07 4644.78 5082.11 4635.51 5089.15L4606.54 5111.15C4601.46 5115.01 4595.22 5117.02 4588.84 5116.85L4533.06 5115.33C4525.9 5115.13 4519.09 5112.2 4514.02 5107.14L4461.98 5055.09Z" fill="black" fill-opacity="0.15"/>
<path id="Vector 1152_4" d="M4442.79 4980.96L4466.25 4937.89C4481.03 4910.74 4516.67 4903.37 4541 4922.45L4583.72 4955.93C4597.27 4966.55 4604.4 4983.4 4602.6 5000.53L4600.26 5022.67C4597.36 5050.17 4572.68 5070.1 4545.18 5067.13L4503.53 5062.65C4499.53 5062.22 4495.59 5061.3 4491.8 5059.93L4469.62 5051.86C4440.87 5041.41 4428.16 5007.82 4442.79 4980.96Z" fill="#BB816E"/>
<path id="Vector 1153_4" d="M4484.27 4985.91L4488.65 4973.5C4495 4955.49 4516.35 4947.92 4532.63 4957.91L4552.24 4969.95C4564.56 4977.51 4569.73 4992.79 4564.54 5006.29L4563.87 5008.03C4559.18 5020.22 4547.15 5027.98 4534.11 5027.21L4510.8 5025.84C4490.87 5024.67 4477.62 5004.73 4484.27 4985.91Z" fill="#9A6A5A"/>
<rect id="mapHelper_10" x="4435" y="4910" width="5" height="5" fill="#A4C424" fill-opacity="0.01"/>
</g>
<g id="stone6">
<path id="Rectangle 2189_6" d="M2787.27 2413.85C2774.14 2400.73 2777.19 2378.7 2793.38 2369.62L2913.23 2302.49C2922.05 2297.55 2932.84 2297.75 2941.47 2303L2990.37 2332.76C2997.1 2336.85 3001.79 2343.59 3003.3 2351.31L3013.76 2404.88C3015.75 2415.1 3011.91 2425.58 3003.79 2432.09L2955.71 2470.62C2951.34 2474.13 2946.01 2476.24 2940.43 2476.68L2869.65 2482.32C2861.47 2482.98 2853.42 2480.01 2847.63 2474.21L2787.27 2413.85Z" fill="black" fill-opacity="0.15"/>
<path id="Vector 1152_5" d="M2765.58 2332.59L2810.03 2271.65C2825.5 2250.44 2854.74 2244.81 2876.99 2258.76L2932.04 2293.28C2961.57 2311.79 2963.57 2354.08 2935.92 2375.31L2871.06 2425.09C2854 2438.18 2830.48 2438.9 2812.66 2426.87L2778.01 2403.51C2754.52 2387.66 2748.88 2355.48 2765.58 2332.59Z" fill="#BB816E"/>
<path id="Vector 1153_5" d="M2881.54 2368.3L2889.79 2347.75C2899.64 2323.23 2875.27 2298.88 2850.76 2308.74L2827.52 2318.08C2805.81 2326.82 2802.01 2355.94 2820.76 2369.95L2835.75 2381.15C2851.53 2392.94 2874.2 2386.58 2881.54 2368.3Z" fill="#9A6A5A"/>
<rect id="mapHelper_11" x="2753" y="2248" width="5" height="5" fill="#A4C424" fill-opacity="0.01"/>
</g>
<g id="stone3">
<path id="Rectangle 2189_7" d="M6201.55 5624.04C6190.62 5613.1 6190.62 5595.37 6201.55 5584.44L6235.09 5550.9C6246.02 5539.97 6263.75 5539.97 6274.68 5550.9L6295.9 5572.12C6303.07 5579.28 6305.8 5589.75 6303.06 5599.5L6295.69 5625.68C6293.05 5635.07 6285.71 5642.4 6276.32 5645.05L6250.15 5652.41C6240.4 5655.15 6229.93 5652.42 6222.77 5645.26L6201.55 5624.04Z" fill="black" fill-opacity="0.15"/>
<path id="Rectangle293_4" d="M6176.38 5567.23L6181.01 5553.66C6187.56 5534.47 6207.44 5523.21 6227.27 5527.47L6249.27 5532.2C6274.76 5537.68 6288.28 5565.68 6276.72 5589.05L6268.75 5605.16C6259.55 5623.75 6237.68 5632.22 6218.37 5624.69L6199.71 5617.42C6179.74 5609.64 6169.46 5587.51 6176.38 5567.23Z" fill="#BB816E"/>
<rect id="mapHelper_12" x="6173" y="5526" width="5" height="5" fill="#A4C424" fill-opacity="0.01"/>
</g>
<g id="stone2">
<path id="Rectangle 2188_3" d="M6130.34 2254.12C6119.4 2243.19 6119.4 2225.46 6130.34 2214.52L6168.52 2176.34C6179.46 2165.4 6197.19 2165.4 6208.12 2176.34L6225.25 2193.47C6231.83 2200.05 6234.71 2209.48 6232.93 2218.62L6226.7 2250.58C6224.52 2261.77 6215.77 2270.52 6204.58 2272.7L6172.62 2278.93C6163.48 2280.71 6154.05 2277.83 6147.47 2271.25L6130.34 2254.12Z" fill="black" fill-opacity="0.15"/>
<path id="Rectangle293_5" d="M6128.23 2167.83L6160.11 2158.11C6191.53 2148.55 6220.45 2178.81 6209.47 2209.76L6198.93 2239.45C6189.29 2266.61 6154.95 2274.97 6133.9 2255.27L6112.55 2235.3C6090.08 2214.27 6098.78 2176.8 6128.23 2167.83Z" fill="#BB816E"/>
<rect id="mapHelper_13" x="6099" y="2157" width="5" height="5" fill="#A4C424" fill-opacity="0.01"/>
</g>
<g id="stone2_2">
<path id="Rectangle 2188_4" d="M4020.34 1942.12C4009.4 1931.19 4009.4 1913.46 4020.34 1902.52L4058.52 1864.34C4069.46 1853.4 4087.19 1853.4 4098.12 1864.34L4115.25 1881.47C4121.83 1888.05 4124.71 1897.48 4122.93 1906.62L4116.7 1938.58C4114.52 1949.77 4105.77 1958.52 4094.58 1960.7L4062.62 1966.93C4053.48 1968.71 4044.05 1965.83 4037.47 1959.25L4020.34 1942.12Z" fill="black" fill-opacity="0.15"/>
<path id="Rectangle293_6" d="M4018.23 1855.83L4050.11 1846.11C4081.53 1836.55 4110.45 1866.81 4099.47 1897.76L4088.93 1927.45C4079.29 1954.61 4044.95 1962.97 4023.9 1943.27L4002.55 1923.3C3980.08 1902.27 3988.78 1864.8 4018.23 1855.83Z" fill="#BB816E"/>
<rect id="mapHelper_14" x="3989" y="1845" width="5" height="5" fill="#A4C424" fill-opacity="0.01"/>
</g>
</g>
</g>
<defs>
<filter id="filter0_d_2245_1284" x="2960" y="2237" width="82" height="82" filterUnits="userSpaceOnUse" color-interpolation-filters="sRGB">
<feFlood flood-opacity="0" result="BackgroundImageFix"/>
<feColorMatrix in="SourceAlpha" type="matrix" values="0 0 0 0 0 0 0 0 0 0 0 0 0 0 0 0 0 0 127 0" result="hardAlpha"/>
<feOffset dx="12" dy="12"/>
<feComposite in2="hardAlpha" operator="out"/>
<feColorMatrix type="matrix" values="0 0 0 0 0 0 0 0 0 0 0 0 0 0 0 0 0 0 0.15 0"/>
<feBlend mode="normal" in2="BackgroundImageFix" result="effect1_dropShadow_2245_1284"/>
<feBlend mode="normal" in="SourceGraphic" in2="effect1_dropShadow_2245_1284" result="shape"/>
</filter>
<filter id="filter1_d_2245_1284" x="2746" y="3841" width="82" height="82" filterUnits="userSpaceOnUse" color-interpolation-filters="sRGB">
<feFlood flood-opacity="0" result="BackgroundImageFix"/>
<feColorMatrix in="SourceAlpha" type="matrix" values="0 0 0 0 0 0 0 0 0 0 0 0 0 0 0 0 0 0 127 0" result="hardAlpha"/>
<feOffset dx="12" dy="12"/>
<feComposite in2="hardAlpha" operator="out"/>
<feColorMatrix type="matrix" values="0 0 0 0 0 0 0 0 0 0 0 0 0 0 0 0 0 0 0.15 0"/>
<feBlend mode="normal" in2="BackgroundImageFix" result="effect1_dropShadow_2245_1284"/>
<feBlend mode="normal" in="SourceGraphic" in2="effect1_dropShadow_2245_1284" result="shape"/>
</filter>
<filter id="filter2_d_2245_1284" x="3995" y="4562" width="82" height="82" filterUnits="userSpaceOnUse" color-interpolation-filters="sRGB">
<feFlood flood-opacity="0" result="BackgroundImageFix"/>
<feColorMatrix in="SourceAlpha" type="matrix" values="0 0 0 0 0 0 0 0 0 0 0 0 0 0 0 0 0 0 127 0" result="hardAlpha"/>
<feOffset dx="12" dy="12"/>
<feComposite in2="hardAlpha" operator="out"/>
<feColorMatrix type="matrix" values="0 0 0 0 0 0 0 0 0 0 0 0 0 0 0 0 0 0 0.15 0"/>
<feBlend mode="normal" in2="BackgroundImageFix" result="effect1_dropShadow_2245_1284"/>
<feBlend mode="normal" in="SourceGraphic" in2="effect1_dropShadow_2245_1284" result="shape"/>
</filter>
<filter id="filter3_d_2245_1284" x="5933" y="3525" width="82" height="82" filterUnits="userSpaceOnUse" color-interpolation-filters="sRGB">
<feFlood flood-opacity="0" result="BackgroundImageFix"/>
<feColorMatrix in="SourceAlpha" type="matrix" values="0 0 0 0 0 0 0 0 0 0 0 0 0 0 0 0 0 0 127 0" result="hardAlpha"/>
<feOffset dx="12" dy="12"/>
<feComposite in2="hardAlpha" operator="out"/>
<feColorMatrix type="matrix" values="0 0 0 0 0 0 0 0 0 0 0 0 0 0 0 0 0 0 0.15 0"/>
<feBlend mode="normal" in2="BackgroundImageFix" result="effect1_dropShadow_2245_1284"/>
<feBlend mode="normal" in="SourceGraphic" in2="effect1_dropShadow_2245_1284" result="shape"/>
</filter>
<filter id="filter4_d_2245_1284" x="4592" y="2524" width="82" height="82" filterUnits="userSpaceOnUse" color-interpolation-filters="sRGB">
<feFlood flood-opacity="0" result="BackgroundImageFix"/>
<feColorMatrix in="SourceAlpha" type="matrix" values="0 0 0 0 0 0 0 0 0 0 0 0 0 0 0 0 0 0 127 0" result="hardAlpha"/>
<feOffset dx="12" dy="12"/>
<feComposite in2="hardAlpha" operator="out"/>
<feColorMatrix type="matrix" values="0 0 0 0 0 0 0 0 0 0 0 0 0 0 0 0 0 0 0.15 0"/>
<feBlend mode="normal" in2="BackgroundImageFix" result="effect1_dropShadow_2245_1284"/>
<feBlend mode="normal" in="SourceGraphic" in2="effect1_dropShadow_2245_1284" result="shape"/>
</filter>
<filter id="filter5_d_2245_1284" x="2078" y="3202" width="82" height="82" filterUnits="userSpaceOnUse" color-interpolation-filters="sRGB">
<feFlood flood-opacity="0" result="BackgroundImageFix"/>
<feColorMatrix in="SourceAlpha" type="matrix" values="0 0 0 0 0 0 0 0 0 0 0 0 0 0 0 0 0 0 127 0" result="hardAlpha"/>
<feOffset dx="12" dy="12"/>
<feComposite in2="hardAlpha" operator="out"/>
<feColorMatrix type="matrix" values="0 0 0 0 0 0 0 0 0 0 0 0 0 0 0 0 0 0 0.15 0"/>
<feBlend mode="normal" in2="BackgroundImageFix" result="effect1_dropShadow_2245_1284"/>
<feBlend mode="normal" in="SourceGraphic" in2="effect1_dropShadow_2245_1284" result="shape"/>
</filter>
<filter id="filter6_d_2245_1284" x="4333" y="3388" width="82" height="82" filterUnits="userSpaceOnUse" color-interpolation-filters="sRGB">
<feFlood flood-opacity="0" result="BackgroundImageFix"/>
<feColorMatrix in="SourceAlpha" type="matrix" values="0 0 0 0 0 0 0 0 0 0 0 0 0 0 0 0 0 0 127 0" result="hardAlpha"/>
<feOffset dx="12" dy="12"/>
<feComposite in2="hardAlpha" operator="out"/>
<feColorMatrix type="matrix" values="0 0 0 0 0 0 0 0 0 0 0 0 0 0 0 0 0 0 0.15 0"/>
<feBlend mode="normal" in2="BackgroundImageFix" result="effect1_dropShadow_2245_1284"/>
<feBlend mode="normal" in="SourceGraphic" in2="effect1_dropShadow_2245_1284" result="shape"/>
</filter>
<filter id="filter7_d_2245_1284" x="5710" y="5018" width="82" height="82" filterUnits="userSpaceOnUse" color-interpolation-filters="sRGB">
<feFlood flood-opacity="0" result="BackgroundImageFix"/>
<feColorMatrix in="SourceAlpha" type="matrix" values="0 0 0 0 0 0 0 0 0 0 0 0 0 0 0 0 0 0 127 0" result="hardAlpha"/>
<feOffset dx="12" dy="12"/>
<feComposite in2="hardAlpha" operator="out"/>
<feColorMatrix type="matrix" values="0 0 0 0 0 0 0 0 0 0 0 0 0 0 0 0 0 0 0.15 0"/>
<feBlend mode="normal" in2="BackgroundImageFix" result="effect1_dropShadow_2245_1284"/>
<feBlend mode="normal" in="SourceGraphic" in2="effect1_dropShadow_2245_1284" result="shape"/>
</filter>
<clipPath id="clip0_2245_1284">
<rect width="8192" height="7363" fill="white"/>
</clipPath>
<clipPath id="clip1_2245_1284">
<rect width="100" height="60" fill="white" transform="translate(5550 6333) rotate(-90)"/>
</clipPath>
<clipPath id="clip2_2245_1284">
<rect width="311" height="326" fill="white" transform="translate(5469 3760)"/>
</clipPath>
<clipPath id="clip3_2245_1284">
<rect width="311" height="326" fill="white" transform="translate(1546 3556)"/>
</clipPath>
<clipPath id="clip4_2245_1284">
<rect width="311" height="326" fill="white" transform="translate(4038 3300)"/>
</clipPath>
<clipPath id="clip5_2245_1284">
<rect width="144" height="120" fill="white" transform="translate(5200 5214)"/>
</clipPath>
<clipPath id="clip6_2245_1284">
<rect width="311" height="326" fill="white" transform="translate(4801 5118)"/>
</clipPath>
<clipPath id="clip7_2245_1284">
<rect width="297" height="206" fill="white" transform="translate(5535 1845)"/>
</clipPath>
<clipPath id="clip8_2245_1284">
<rect width="297" height="206" fill="white" transform="translate(5971 4465)"/>
</clipPath>
<clipPath id="clip9_2245_1284">
<rect width="297" height="206" fill="white" transform="translate(3230 4403)"/>
</clipPath>
<clipPath id="clip10_2245_1284">
<rect width="168" height="176" fill="white" transform="translate(1591 3364)"/>
</clipPath>
<clipPath id="clip11_2245_1284">
<rect width="168" height="176" fill="white" transform="translate(2148 3296)"/>
</clipPath>
<clipPath id="clip12_2245_1284">
<rect width="168" height="176" fill="white" transform="translate(2870 3896)"/>
</clipPath>
<clipPath id="clip13_2245_1284">
<rect width="168" height="176" fill="white" transform="translate(4152 3955)"/>
</clipPath>
<clipPath id="clip14_2245_1284">
<rect width="168" height="176" fill="white" transform="translate(4673 3714)"/>
</clipPath>
<clipPath id="clip15_2245_1284">
<rect width="168" height="176" fill="white" transform="translate(5757 3677)"/>
</clipPath>
<clipPath id="clip16_2245_1284">
<rect width="168" height="176" fill="white" transform="translate(6408 4465)"/>
</clipPath>
<clipPath id="clip17_2245_1284">
<rect width="168" height="176" fill="white" transform="translate(5179 5896)"/>
</clipPath>
<clipPath id="clip18_2245_1284">
<rect width="168" height="176" fill="white" transform="translate(5332 5404)"/>
</clipPath>
<clipPath id="clip19_2245_1284">
<rect width="168" height="176" fill="white" transform="translate(4596 5078)"/>
</clipPath>
<clipPath id="clip20_2245_1284">
<rect width="168" height="176" fill="white" transform="translate(4921 2358)"/>
</clipPath>
<clipPath id="clip21_2245_1284">
<rect width="168" height="176" fill="white" transform="translate(5130 1809)"/>
</clipPath>
<clipPath id="clip22_2245_1284">
<rect width="168" height="176" fill="white" transform="translate(3123 1698)"/>
</clipPath>
<clipPath id="clip23_2245_1284">
<rect width="168" height="176" fill="white" transform="translate(1973 2136)"/>
</clipPath>
<clipPath id="clip24_2245_1284">
<rect width="177" height="180" fill="white" transform="translate(2133 3022)"/>
</clipPath>
<clipPath id="clip25_2245_1284">
<rect width="177" height="180" fill="white" transform="translate(4952 5547)"/>
</clipPath>
<clipPath id="clip26_2245_1284">
<rect width="177" height="180" fill="white" transform="translate(5862 5809)"/>
</clipPath>
<clipPath id="clip27_2245_1284">
<rect width="177" height="180" fill="white" transform="translate(3575 4372)"/>
</clipPath>
<clipPath id="clip28_2245_1284">
<rect width="149" height="134" fill="white" transform="translate(3791 4395)"/>
</clipPath>
<clipPath id="clip29_2245_1284">
<rect width="149" height="134" fill="white" transform="translate(4052 3132)"/>
</clipPath>
<clipPath id="clip30_2245_1284">
<rect width="149" height="134" fill="white" transform="translate(5422 4522)"/>
</clipPath>
<clipPath id="clip31_2245_1284">
<rect width="149" height="134" fill="white" transform="translate(5327 1711)"/>
</clipPath>
<clipPath id="clip32_2245_1284">
<rect width="149" height="134" fill="white" transform="translate(1824 2002)"/>
</clipPath>
<clipPath id="clip33_2245_1284">
<rect width="149" height="134" fill="white" transform="translate(6219 4706)"/>
</clipPath>
<clipPath id="clip34_2245_1284">
<rect width="149" height="134" fill="white" transform="translate(5246 5637)"/>
</clipPath>
<clipPath id="clip35_2245_1284">
<rect width="149" height="134" fill="white" transform="translate(3456 1524)"/>
</clipPath>
<clipPath id="clip36_2245_1284">
<rect width="144" height="120" fill="white" transform="translate(3526 2194)"/>
</clipPath>
<clipPath id="clip37_2245_1284">
<rect width="144" height="120" fill="white" transform="translate(4338 3816)"/>
</clipPath>
<clipPath id="clip38_2245_1284">
<rect width="144" height="120" fill="white" transform="translate(6348 5118)"/>
</clipPath>
<clipPath id="clip39_2245_1284">
<rect width="144" height="120" fill="white" transform="translate(2324 3426)"/>
</clipPath>
<clipPath id="clip40_2245_1284">
<rect width="144" height="120" fill="white" transform="translate(1968 2407)"/>
</clipPath>
<clipPath id="clip41_2245_1284">
<rect width="144" height="120" fill="white" transform="translate(2889 1728)"/>
</clipPath>
<clipPath id="clip42_2245_1284">
<rect width="144" height="120" fill="white" transform="translate(5318 4621)"/>
</clipPath>
</defs>
</svg>
