<svg width="7462" height="5625" viewBox="0 0 7462 5625" fill="none" xmlns="http://www.w3.org/2000/svg">
<g id="hitbox" clip-path="url(#clip0_2245_1284)">
<g id="room1Road">
<path id="road" d="M5273.65 5681C5273.65 5468.5 5273.65 5391.85 5273.65 5117.5C5273.65 4843.14 5799.48 4736.1 5793.65 4385.5C5788.42 4070.61 5475.53 4025.88 5422.15 3715.5C5355.47 3327.86 5969.05 3138.04 5893.65 2752C5793.65 2240 5917.65 1608.5 5526.15 1420.5C4669.15 1008.97 4396.15 1567 4064.65 1567C3733.15 1567 3505.15 1375.5 3459.15 1042M5422.15 3951.5C4994.15 4131 4564.7 4093.6 4170.65 3819.5C3832.22 3584.09 3934.91 3391.69 3546.15 3254.5C3110.27 3100.69 2714.15 3709.96 2312.65 3188C1911.15 2666.04 1690.84 2773 1621.15 2425C1551.46 2077 1894.15 1906.5 2118.15 1575.5C2342.15 1244.5 2455.37 1159.34 2855.65 1205C3255.93 1250.66 3466.17 1106.17 3633.65 663.5C3720.85 433.023 3633.65 272 3633.65 155C3633.65 128.5 3633.65 5.99962 3633.65 -19M5807.15 2345C5230.15 2850 4782.22 2846.59 4502.65 2644C4110.73 2360 3961.15 2118.5 4145.15 1586.5" stroke="#1C506F" stroke-opacity="0.05" stroke-width="310" stroke-linecap="round"/>
</g>
<g id="exit blocks">
<g id="stone7:blocksExit=true">
<path id="Rectangle 2189" d="M3393.94 568.528C3380.61 555.2 3383.99 532.778 3400.66 523.973L3537.49 451.667C3548.35 445.927 3561.68 447.937 3570.37 456.624L3598.53 484.786C3602.86 489.113 3605.65 494.739 3606.48 500.803L3614.85 562.252C3616.18 572.019 3612.28 581.766 3604.58 587.916L3561.62 622.215C3557.3 625.661 3552.06 627.754 3546.56 628.229L3474.03 634.499C3465.79 635.211 3457.66 632.247 3451.82 626.402L3393.94 568.528Z" fill="black" fill-opacity="0.15"/>
<path id="Vector 1152" d="M3373.24 431.232L3420.39 401.584C3433.97 393.052 3450.8 391.544 3465.68 397.529L3532.16 424.287C3550.59 431.706 3562.88 449.334 3563.47 469.195L3564.59 507.31C3565.38 534.002 3545.05 556.603 3518.43 558.64L3416.61 566.431C3393.19 568.223 3371.68 553.473 3364.91 530.981L3351.97 487.965C3345.49 466.423 3354.19 443.205 3373.24 431.232Z" fill="#BB816E"/>
<path id="Vector 1153" d="M3503.88 474.082L3489.51 452.384C3482.1 441.208 3468.19 436.298 3455.41 440.355L3429.74 448.508C3414.69 453.287 3405.92 468.913 3409.68 484.248L3415.23 506.87C3419.23 523.153 3435.79 533.003 3452 528.736L3486.5 519.658C3506.37 514.428 3515.22 491.216 3503.88 474.082Z" fill="#9A6A5A"/>
<rect id="mapHelper" x="3347" y="393" width="5" height="5" fill="#A4C424" fill-opacity="0.01"/>
</g>
<g id="stone6:blocksExit=true">
<path id="Rectangle 2189_2" d="M3590.27 468.852C3577.14 455.727 3580.19 433.696 3596.38 424.624L3716.23 357.492C3725.05 352.554 3735.84 352.749 3744.47 358.002L3793.37 387.761C3800.1 391.853 3804.79 398.588 3806.3 406.314L3816.76 459.878C3818.75 470.097 3814.91 480.58 3806.79 487.092L3758.71 525.62C3754.34 529.126 3749.01 531.238 3743.43 531.683L3672.65 537.324C3664.47 537.975 3656.42 535.01 3650.63 529.211L3590.27 468.852Z" fill="black" fill-opacity="0.15"/>
<path id="Vector 1152_2" d="M3568.58 387.587L3613.03 326.651C3628.5 305.443 3657.74 299.812 3679.99 313.758L3735.04 348.278C3764.57 366.794 3766.57 409.085 3738.92 430.305L3674.06 480.085C3657 493.176 3633.48 493.896 3615.66 481.874L3581.01 458.509C3557.52 442.664 3551.88 410.48 3568.58 387.587Z" fill="#BB816E"/>
<path id="Vector 1153_2" d="M3684.54 423.296L3692.79 402.752C3702.64 378.233 3678.27 353.879 3653.76 363.738L3630.52 373.084C3608.81 381.816 3605.01 410.941 3623.76 424.949L3638.75 436.147C3654.53 447.939 3677.2 441.577 3684.54 423.296Z" fill="#9A6A5A"/>
<rect id="mapHelper_2" x="3556" y="303" width="5" height="5" fill="#A4C424" fill-opacity="0.01"/>
</g>
<g id="stone5:blocksExit=true">
<path id="Rectangle 2189_3" d="M3763.98 540.092C3750.05 526.163 3754.48 502.588 3772.51 494.661L3867.72 452.81C3878.28 448.164 3890.62 450.481 3898.78 458.644L3927 486.864C3930.31 490.166 3932.73 494.242 3934.05 498.721L3947.42 543.909C3950.72 555.069 3946.78 567.107 3937.51 574.147L3908.54 596.153C3903.46 600.012 3897.22 602.021 3890.84 601.847L3835.06 600.326C3827.9 600.131 3821.09 597.199 3816.02 592.135L3763.98 540.092Z" fill="black" fill-opacity="0.15"/>
<path id="Vector 1152_3" d="M3744.79 465.96L3768.25 422.889C3783.03 395.736 3818.67 388.375 3843 407.447L3885.72 440.926C3899.27 451.549 3906.4 468.4 3904.6 485.526L3902.26 507.67C3899.36 535.173 3874.68 555.096 3847.18 552.135L3805.53 547.65C3801.53 547.218 3797.59 546.304 3793.8 544.927L3771.62 536.861C3742.87 526.408 3730.16 492.824 3744.79 465.96Z" fill="#BB816E"/>
<path id="Vector 1153_3" d="M3786.27 470.908L3790.65 458.498C3797 440.486 3818.35 432.923 3834.63 442.915L3854.24 454.949C3866.56 462.513 3871.73 477.791 3866.54 491.286L3865.87 493.033C3861.18 505.223 3849.15 512.979 3836.11 512.212L3812.8 510.841C3792.87 509.669 3779.62 489.729 3786.27 470.908Z" fill="#9A6A5A"/>
<rect id="mapHelper_3" x="3737" y="395" width="5" height="5" fill="#A4C424" fill-opacity="0.01"/>
</g>
<g id="stone3:blocksExit=true">
<path id="Rectangle 2189_4" d="M3589.55 602.037C3578.62 591.102 3578.62 573.373 3589.55 562.439L3623.09 528.902C3634.02 517.968 3651.75 517.968 3662.68 528.902L3683.9 550.122C3691.07 557.284 3693.8 567.755 3691.06 577.505L3683.69 603.677C3681.05 613.067 3673.71 620.405 3664.32 623.047L3638.15 630.411C3628.4 633.154 3617.93 630.418 3610.77 623.256L3589.55 602.037Z" fill="black" fill-opacity="0.15"/>
<path id="Rectangle293" d="M3564.38 545.23L3569.01 531.66C3575.56 512.466 3595.44 501.212 3615.27 505.475L3637.27 510.203C3662.76 515.682 3676.28 543.683 3664.72 567.048L3656.75 583.162C3647.55 601.746 3625.68 610.224 3606.37 602.693L3587.71 595.42C3567.74 587.638 3557.46 565.508 3564.38 545.23Z" fill="#BB816E"/>
<rect id="mapHelper_4" x="3561" y="504" width="5" height="5" fill="#A4C424" fill-opacity="0.01"/>
</g>
<g id="stone4:blocksExit=true">
<path id="Rectangle 2188" d="M3900.25 622.178C3889.32 611.244 3889.32 593.515 3900.25 582.58L3926.58 556.254C3937.52 545.319 3955.24 545.319 3966.18 556.254L3967.87 557.947C3973.91 563.983 3976.86 572.442 3975.89 580.923L3973.19 604.551C3971.71 617.498 3961.5 627.714 3948.55 629.193L3924.92 631.891C3916.44 632.86 3907.98 629.907 3901.95 623.871L3900.25 622.178Z" fill="black" fill-opacity="0.15"/>
<path id="Rectangle293_2" d="M3901.75 547.674L3933.82 541.135C3948.34 538.174 3962.87 546.169 3968.14 560.02C3973.06 572.95 3968.58 587.57 3957.26 595.526L3930.48 614.351C3911.51 627.689 3885.09 620.537 3875.43 599.45C3865.5 577.746 3878.36 552.442 3901.75 547.674Z" fill="#BB816E"/>
<rect id="mapHelper_5" x="3871" y="540" width="5" height="5" fill="#A4C424" fill-opacity="0.01"/>
</g>
<g id="stone2:blocksExit=true">
<path id="Rectangle 2188_2" d="M3290.34 621.121C3279.4 610.186 3279.4 592.458 3290.34 581.523L3328.52 543.339C3339.46 532.405 3357.19 532.405 3368.12 543.339L3385.25 560.466C3391.83 567.052 3394.71 576.48 3392.93 585.622L3386.7 617.577C3384.52 628.771 3375.77 637.523 3364.58 639.704L3332.62 645.932C3323.48 647.714 3314.05 644.834 3307.47 638.248L3290.34 621.121Z" fill="black" fill-opacity="0.15"/>
<path id="Rectangle293_3" d="M3288.23 534.827L3320.11 525.115C3351.53 515.547 3380.45 545.813 3369.47 576.759L3358.93 606.446C3349.29 633.609 3314.95 641.967 3293.9 622.275L3272.55 602.3C3250.08 581.27 3258.78 543.796 3288.23 534.827Z" fill="#BB816E"/>
<rect id="mapHelper_6" x="3259" y="524" width="5" height="5" fill="#A4C424" fill-opacity="0.01"/>
</g>
</g>
<g id="walls" opacity="0.01">
<path id="wall" d="M5117.1 2498.81L5546.01 2225.22C5579.94 2203.57 5597.58 2163.7 5590.79 2124.04L5526.47 1748.25C5520.32 1712.32 5495.1 1682.58 5460.66 1670.64L5156.2 1565.1C5138.11 1558.83 5118.61 1557.89 5100 1562.38L4457.21 1717.44C4415.06 1727.61 4384.26 1763.79 4380.96 1807.03L4354 2159.67C4351.78 2188.76 4362.37 2217.37 4383 2238L4630.21 2485.21C4648.96 2503.96 4674.4 2514.5 4700.92 2514.5H5063.32C5082.38 2514.5 5101.03 2509.06 5117.1 2498.81Z" fill="#1B4A67"/>
<path id="wall_2" d="M5242.67 3380.82L4886.01 3034.75C4869.51 3018.74 4848 3008.91 4825.09 3006.9L4501.16 2978.53C4485.92 2977.19 4470.58 2979.37 4456.32 2984.9L4071.15 3134.11C4014.18 3156.17 3990.14 3223.71 4020.35 3276.8L4188.44 3572.26C4200.1 3592.76 4218.64 3608.47 4240.77 3616.63L4848.47 3840.68C4885.32 3854.27 4926.72 3845.02 4954.29 3817.05L5244.26 3522.78C5283.24 3483.23 5282.53 3419.49 5242.67 3380.82Z" fill="#1B4A67"/>
<path id="wall_3" d="M2775.53 1500.99L3095.41 1406.86C3125.11 1398.12 3157.18 1403.62 3182.27 1421.77L3786.61 1859.06C3820.26 1883.4 3835.35 1926.01 3824.54 1966.11L3642.77 2640.33C3637.39 2660.29 3625.96 2678.08 3610.05 2691.28L3327.94 2925.22C3313.91 2936.85 3296.98 2944.43 3278.95 2947.14L2678.33 3037.29C2646.15 3042.13 2613.63 3030.99 2591.16 3007.46L2038.35 2428.41C2011.85 2400.65 2003.57 2360.16 2017.06 2324.22L2209.21 1812.25C2218.07 1788.63 2235.54 1769.23 2258.11 1757.95L2759.04 1507.48C2764.34 1504.83 2769.86 1502.66 2775.53 1500.99Z" fill="#1B4A67"/>
<path id="wall_4" d="M3055.76 716.781L3335.5 445.085L3398.9 375.319C3413.26 359.522 3422.18 339.546 3424.37 318.312L3433 234.5V-14.5145C3433 -69.7373 3388.24 -114.506 3333.01 -114.514L76.8968 -114.986C21.7086 -114.994 -23.0527 -70.2911 -23.1176 -15.103L-29.8821 5728.88C-29.9472 5784.16 14.8433 5829 70.1177 5829H4974.5C5029.73 5829 5074.5 5784.23 5074.5 5729V5461.1C5074.5 5448.81 5072.23 5436.62 5067.81 5425.14L5039.41 5351.44C5036.48 5343.84 5032.64 5336.63 5027.96 5329.97L4970.66 5248.28C4966.56 5242.44 4961.86 5237.06 4956.62 5232.23L4594.5 4898C4585.9 4890.06 4578.76 4880.68 4573.41 4870.27L4332.14 4401.37C4327.41 4392.18 4321.28 4383.78 4313.98 4376.46L3669.7 3731.25C3648.67 3710.19 3619.35 3699.59 3589.72 3702.33L2556.13 3798.03C2519.68 3801.4 2484.3 3784.59 2463.89 3754.2L2063.81 3158.43C2047.44 3134.05 2021.18 3118.1 1992 3114.81L1264.34 3032.67C1206.26 3026.12 1166.16 2971.36 1177.43 2914.01L1384.68 1859.8C1386.22 1851.96 1386.82 1843.97 1386.46 1835.99L1357.01 1184.71C1354.72 1134.1 1390.63 1089.78 1440.61 1081.53L2209.5 954.5L3011.73 741.704C3028.3 737.308 3043.46 728.726 3055.76 716.781Z" fill="#1B4A67"/>
<path id="wall_5" d="M3912.05 445.613L3944.65 756.585C3946.2 771.343 3944.44 786.26 3939.51 800.255L3867.48 1004.58C3859.44 1027.42 3859.94 1052.39 3868.91 1074.88L3954.48 1289.38C3978.92 1350.63 4054.9 1371.87 4107.56 1332.18L4514.78 1025.22C4522.88 1019.11 4531.86 1014.27 4541.42 1010.86L5146.42 795.409C5175.49 785.056 5207.72 788.706 5233.74 805.3L6119 1369.87C6157.07 1394.14 6174.15 1440.92 6160.67 1484.02L6021.06 1930.62C6011.03 1962.7 6017.79 1997.67 6039.04 2023.7L6223.48 2249.62C6242.76 2273.24 6250.22 2304.36 6243.73 2334.15L6080.09 3085.18C6075.18 3107.7 6078.2 3131.22 6088.64 3151.77L6414.14 3792.37C6425.92 3815.54 6428.2 3842.39 6420.52 3867.22L6190.91 4609.53C6186.05 4625.27 6177.37 4639.56 6165.65 4651.13L5659.5 5151L5549.11 5277.98C5541.1 5287.19 5534.85 5297.79 5530.66 5309.25L5490.58 5418.87C5486.56 5429.87 5484.5 5441.49 5484.5 5453.21V5729C5484.5 5784.23 5529.27 5829 5584.5 5829H7391.5C7446.73 5829 7491.5 5784.23 7491.5 5729V-10C7491.5 -65.2285 7446.73 -110 7391.5 -110H3943.5C3888.27 -110 3843.5 -65.2285 3843.5 -10V206.109C3843.5 216.31 3845.06 226.45 3848.13 236.179L3907.97 425.969C3909.98 432.364 3911.35 438.945 3912.05 445.613Z" fill="#1B4A67"/>
</g>
<g id="spawn" clip-path="url(#clip1_2245_1284)">
<rect id="Rectangle 2166" x="5254" y="5469" width="100" height="60" transform="rotate(-90 5254 5469)" fill="#DC567C"/>
</g>
<g id="enemies">
<g id="wave 0">
<g id="PoliceBasic:wave=0">
<path id="Rectangle 1710" d="M4303 2734.39C4306.31 2728.65 4313.65 2726.69 4319.39 2730L4398.2 2775.5C4405.38 2779.64 4407.83 2788.82 4403.69 2795.99L4391.69 2816.77C4387.55 2823.95 4378.38 2826.41 4371.2 2822.27L4292.39 2776.77C4286.65 2773.45 4284.69 2766.11 4288 2760.37L4303 2734.39Z" fill="#28363E"/>
<path id="Rectangle 1715" d="M4330.06 2745.51L4369.9 2768.51L4351 2801.25L4311.16 2778.25L4330.06 2745.51Z" fill="#8598A2"/>
<path id="Rectangle 1709" d="M4332.32 2753.08C4334.3 2749.66 4332.49 2745.29 4328.67 2744.28L4324.25 2743.1C4321.94 2742.49 4319.47 2743.32 4317.98 2745.21C4312.57 2752.09 4308.12 2759.81 4304.86 2767.94C4303.97 2770.17 4304.48 2772.72 4306.17 2774.42L4309.4 2777.66C4312.18 2780.46 4316.87 2779.85 4318.84 2776.43L4332.32 2753.08Z" fill="#3B5766"/>
<g id="Group 120">
<path id="Rectangle 1712" d="M4343.5 2752.67C4344.81 2750.4 4347.7 2749.63 4349.97 2750.94C4352.23 2752.24 4353.01 2755.14 4351.7 2757.41L4332.28 2791.04C4330.97 2793.31 4328.08 2794.09 4325.81 2792.78C4323.54 2791.47 4322.77 2788.57 4324.08 2786.31L4343.5 2752.67Z" fill="#BACBD6"/>
<path id="Rectangle 1713" d="M4343.5 2752.67C4344.81 2750.4 4347.7 2749.63 4349.97 2750.94C4352.23 2752.24 4353.01 2755.14 4351.7 2757.41L4347.91 2763.97C4346.6 2766.23 4343.71 2767.01 4341.44 2765.7C4339.18 2764.4 4338.4 2761.5 4339.71 2759.23L4343.5 2752.67Z" fill="#A5586E"/>
<path id="Rectangle 1714" d="M4327.87 2779.74C4329.17 2777.48 4332.07 2776.7 4334.34 2778.01C4336.6 2779.32 4337.38 2782.21 4336.07 2784.48L4332.28 2791.04C4330.97 2793.31 4328.08 2794.09 4325.81 2792.78C4323.54 2791.47 4322.77 2788.57 4324.08 2786.31L4327.87 2779.74Z" fill="#216994"/>
</g>
<path id="Rectangle 1708" d="M4357.37 2766.54C4359.21 2763.36 4363.44 2762.56 4366.3 2764.84L4373.21 2770.34C4374.79 2771.6 4375.39 2773.71 4374.72 2775.6C4371.3 2785.21 4366.16 2794.11 4359.55 2801.88C4358.24 2803.41 4356.11 2803.94 4354.24 2803.2L4346.02 2799.97C4342.61 2798.63 4341.19 2794.56 4343.02 2791.39L4357.37 2766.54Z" fill="#3B5766"/>
<rect id="mapHelper_7" x="4309" y="2724" width="118" height="54" transform="rotate(30 4309 2724)" fill="#A4C424" fill-opacity="0.01"/>
</g>
<g id="GroundBasic:wave=0">
<rect id="person" x="4291" y="2514" width="60" height="60" rx="30" fill="#E87F7B"/>
</g>
<g id="GroundBasic:wave=0_2">
<rect id="person_2" x="4321" y="2369" width="60" height="60" rx="30" fill="#E87F7B"/>
</g>
<g id="GroundBasic:wave=0_3">
<rect id="person_3" x="4156" y="2399" width="60" height="60" rx="30" fill="#E87F7B"/>
</g>
</g>
<g id="wave 1">
<g id="GroundBasic:wave=1">
<rect id="person_4" x="3675" y="1510" width="60" height="60" rx="30" fill="#E87F7B"/>
</g>
<g id="GroundBasic:wave=1_2">
<rect id="person_5" x="3898" y="1416" width="60" height="60" rx="30" fill="#E87F7B"/>
</g>
<g id="GroundBasic:wave=1_3">
<rect id="person_6" x="3964" y="1573" width="60" height="60" rx="30" fill="#E87F7B"/>
</g>
<g id="GroundBasic:wave=1_4">
<rect id="person_7" x="4118" y="2273" width="60" height="60" rx="30" fill="#E87F7B"/>
</g>
<g id="GroundBasic:wave=1_5">
<rect id="person_8" x="4254" y="2268" width="60" height="60" rx="30" fill="#E87F7B"/>
</g>
<g id="GroundBasic:wave=1_6">
<rect id="person_9" x="4237" y="2496" width="60" height="60" rx="30" fill="#E87F7B"/>
</g>
<g id="PoliceBasic:wave=1">
<path id="Rectangle 1710_2" d="M4318.17 1338.02C4320.62 1344.18 4317.61 1351.16 4311.45 1353.61L4226.9 1387.26C4219.2 1390.32 4210.48 1386.56 4207.42 1378.86L4198.55 1356.56C4195.48 1348.87 4199.24 1340.14 4206.94 1337.08L4291.49 1303.44C4297.65 1300.99 4304.62 1303.99 4307.07 1310.15L4318.17 1338.02Z" fill="#28363E"/>
<path id="Rectangle 1715_2" d="M4292.66 1352.37L4249.92 1369.38L4235.95 1334.26L4278.69 1317.25L4292.66 1352.37Z" fill="#8598A2"/>
<path id="Rectangle 1709_2" d="M4285.33 1349.46C4286.79 1353.13 4291.34 1354.41 4294.5 1352.04L4298.16 1349.3C4300.08 1347.87 4300.95 1345.41 4300.39 1343.08C4298.34 1334.56 4295.05 1326.28 4290.69 1318.69C4289.49 1316.61 4287.17 1315.43 4284.79 1315.7L4280.25 1316.23C4276.32 1316.68 4273.9 1320.73 4275.36 1324.4L4285.33 1349.46Z" fill="#3B5766"/>
<g id="Group 120_2">
<path id="Rectangle 1712_2" d="M4278.72 1358.48C4279.69 1360.91 4278.5 1363.66 4276.07 1364.63C4273.64 1365.6 4270.89 1364.41 4269.92 1361.98L4255.56 1325.89C4254.59 1323.46 4255.78 1320.71 4258.21 1319.74C4260.64 1318.77 4263.4 1319.96 4264.36 1322.39L4278.72 1358.48Z" fill="#BACBD6"/>
<path id="Rectangle 1713_2" d="M4278.72 1358.48C4279.69 1360.91 4278.5 1363.66 4276.07 1364.63C4273.64 1365.6 4270.89 1364.41 4269.92 1361.98L4267.12 1354.94C4266.15 1352.51 4267.34 1349.75 4269.77 1348.79C4272.2 1347.82 4274.95 1349 4275.92 1351.44L4278.72 1358.48Z" fill="#A5586E"/>
<path id="Rectangle 1714_2" d="M4267.16 1329.43C4268.13 1331.86 4266.95 1334.61 4264.51 1335.58C4262.08 1336.55 4259.33 1335.36 4258.36 1332.93L4255.56 1325.89C4254.59 1323.46 4255.78 1320.71 4258.21 1319.74C4260.64 1318.77 4263.4 1319.96 4264.36 1322.39L4267.16 1329.43Z" fill="#216994"/>
</g>
<path id="Rectangle 1708_2" d="M4259.24 1360.77C4260.6 1364.18 4258.61 1367.99 4255.04 1368.83L4246.44 1370.84C4244.48 1371.3 4242.45 1370.46 4241.38 1368.76C4235.96 1360.13 4232.16 1350.57 4230.16 1340.57C4229.77 1338.6 4230.67 1336.6 4232.41 1335.59L4240.04 1331.14C4243.21 1329.29 4247.28 1330.7 4248.63 1334.11L4259.24 1360.77Z" fill="#3B5766"/>
<rect id="mapHelper_8" x="4322.6" y="1349.17" width="118" height="54" transform="rotate(158.301 4322.6 1349.17)" fill="#A4C424" fill-opacity="0.01"/>
</g>
<g id="PoliceBasic:wave=1_2">
<path id="Rectangle 1710_3" d="M5447.45 2414.62C5450.7 2420.4 5448.64 2427.71 5442.86 2430.96L5363.52 2475.52C5356.3 2479.58 5347.15 2477.01 5343.1 2469.79L5331.34 2448.86C5327.29 2441.64 5329.86 2432.49 5337.08 2428.44L5416.42 2383.88C5422.2 2380.63 5429.52 2382.68 5432.76 2388.46L5447.45 2414.62Z" fill="#28363E"/>
<path id="Rectangle 1715_3" d="M5424.08 2432.22L5383.97 2454.75L5365.46 2421.79L5405.57 2399.26L5424.08 2432.22Z" fill="#8598A2"/>
<path id="Rectangle 1709_3" d="M5416.42 2430.3C5418.35 2433.75 5423.03 2434.42 5425.85 2431.65L5429.12 2428.45C5430.83 2426.77 5431.37 2424.22 5430.5 2421.99V2421.99C5427.34 2413.82 5422.98 2406.05 5417.65 2399.1V2399.1C5416.19 2397.2 5413.73 2396.33 5411.41 2396.92L5406.98 2398.04C5403.15 2399.01 5401.28 2403.35 5403.22 2406.8L5416.42 2430.3Z" fill="#3B5766"/>
<g id="Group 120_3">
<path id="Rectangle 1712_3" d="M5411.07 2440.12C5412.35 2442.4 5411.54 2445.29 5409.26 2446.57V2446.57C5406.98 2447.85 5404.09 2447.04 5402.81 2444.76L5383.79 2410.9C5382.51 2408.61 5383.32 2405.73 5385.6 2404.45V2404.45C5387.88 2403.16 5390.77 2403.98 5392.05 2406.26L5411.07 2440.12Z" fill="#BACBD6"/>
<path id="Rectangle 1713_3" d="M5411.07 2440.12C5412.35 2442.4 5411.54 2445.29 5409.26 2446.57V2446.57C5406.98 2447.85 5404.09 2447.04 5402.81 2444.76L5399.1 2438.15C5397.82 2435.87 5398.63 2432.99 5400.91 2431.7V2431.7C5403.19 2430.42 5406.08 2431.23 5407.36 2433.52L5411.07 2440.12Z" fill="#A5586E"/>
<path id="Rectangle 1714_3" d="M5395.76 2412.86C5397.04 2415.15 5396.23 2418.03 5393.95 2419.31V2419.31C5391.67 2420.6 5388.78 2419.78 5387.5 2417.5L5383.79 2410.9C5382.51 2408.61 5383.32 2405.73 5385.6 2404.45V2404.45C5387.88 2403.16 5390.77 2403.98 5392.05 2406.26L5395.76 2412.86Z" fill="#216994"/>
</g>
<path id="Rectangle 1708_3" d="M5392.06 2444.98C5393.86 2448.18 5392.39 2452.22 5388.96 2453.53L5380.71 2456.66C5378.83 2457.37 5376.7 2456.81 5375.42 2455.27V2455.27C5368.9 2447.43 5363.86 2438.46 5360.56 2428.82V2428.82C5359.91 2426.92 5360.54 2424.81 5362.13 2423.58L5369.1 2418.16C5372 2415.91 5376.22 2416.76 5378.01 2419.96L5392.06 2444.98Z" fill="#3B5766"/>
<rect id="mapHelper_9" x="5453.33" y="2425.08" width="118" height="54" transform="rotate(150.681 5453.33 2425.08)" fill="#A4C424" fill-opacity="0.01"/>
</g>
<g id="PoliceBasic:wave=1_3">
<path id="Rectangle 1710_4" d="M3724.87 1690.59C3726.59 1684.19 3733.17 1680.39 3739.57 1682.11L3827.47 1705.66C3835.47 1707.8 3840.22 1716.03 3838.07 1724.03L3831.86 1747.21C3829.72 1755.21 3821.49 1759.96 3813.49 1757.82L3725.59 1734.27C3719.19 1732.55 3715.39 1725.97 3717.11 1719.57L3724.87 1690.59Z" fill="#28363E"/>
<path id="Rectangle 1715_4" d="M3753.89 1694.33L3798.32 1706.24L3788.54 1742.75L3744.11 1730.84L3753.89 1694.33Z" fill="#8598A2"/>
<path id="Rectangle 1709_4" d="M3758.03 1701.05C3759.05 1697.23 3756.17 1693.49 3752.22 1693.5L3747.65 1693.5C3745.26 1693.51 3743.09 1694.96 3742.14 1697.16C3738.7 1705.21 3736.39 1713.82 3735.35 1722.52C3735.06 1724.9 3736.22 1727.23 3738.29 1728.44L3742.25 1730.73C3745.66 1732.71 3750.03 1730.91 3751.05 1727.09L3758.03 1701.05Z" fill="#3B5766"/>
<g id="Group 120_4">
<path id="Rectangle 1712_4" d="M3768.72 1697.76C3769.4 1695.24 3771.99 1693.74 3774.52 1694.41C3777.05 1695.09 3778.55 1697.69 3777.87 1700.22L3767.82 1737.73C3767.14 1740.26 3764.54 1741.76 3762.02 1741.08C3759.49 1740.41 3757.99 1737.81 3758.67 1735.28L3768.72 1697.76Z" fill="#BACBD6"/>
<path id="Rectangle 1713_4" d="M3768.72 1697.76C3769.4 1695.24 3771.99 1693.74 3774.52 1694.41C3777.05 1695.09 3778.55 1697.69 3777.87 1700.22L3775.91 1707.54C3775.23 1710.06 3772.63 1711.56 3770.11 1710.89C3767.58 1710.21 3766.08 1707.61 3766.76 1705.08L3768.72 1697.76Z" fill="#A5586E"/>
<path id="Rectangle 1714_4" d="M3760.63 1727.96C3761.3 1725.43 3763.9 1723.93 3766.43 1724.61C3768.96 1725.29 3770.46 1727.89 3769.78 1730.41L3767.82 1737.73C3767.14 1740.26 3764.54 1741.76 3762.02 1741.08C3759.49 1740.41 3757.99 1737.81 3758.67 1735.28L3760.63 1727.96Z" fill="#216994"/>
</g>
<path id="Rectangle 1708_4" d="M3785.71 1707.57C3786.66 1704.02 3790.54 1702.15 3793.9 1703.62L3802 1707.14C3803.84 1707.95 3804.97 1709.83 3804.81 1711.84C3803.99 1722 3801.33 1731.93 3796.96 1741.14C3796.09 1742.96 3794.17 1744.02 3792.18 1743.8L3783.4 1742.8C3779.75 1742.39 3777.33 1738.83 3778.28 1735.29L3785.71 1707.57Z" fill="#3B5766"/>
<rect id="mapHelper_10" x="3727.98" y="1679" width="118" height="54" transform="rotate(15 3727.98 1679)" fill="#A4C424" fill-opacity="0.01"/>
</g>
</g>
</g>
<g id="environment">
<g id="tree1" clip-path="url(#clip2_2245_1284)">
<path id="Union" fill-rule="evenodd" clip-rule="evenodd" d="M5425.32 3075.69C5436.89 3075.07 5447.1 3071.12 5454.65 3063.57C5477.49 3040.73 5467.37 2993.59 5432.05 2958.27C5396.73 2922.95 5349.58 2912.83 5326.75 2935.66C5303.91 2958.5 5314.03 3005.64 5349.35 3040.96C5360.22 3051.84 5372.22 3060.32 5384.28 3066.19C5369.11 3066.69 5355.17 3072 5344.76 3082.4C5318.46 3108.7 5324.75 3157.63 5358.8 3191.69C5392.86 3225.74 5441.79 3232.03 5468.09 3205.73C5494.39 3179.43 5488.1 3130.5 5454.05 3096.44C5445.25 3087.65 5435.46 3080.7 5425.32 3075.69ZM5314.35 3164.45C5294.76 3184.04 5257.26 3178.32 5230.6 3151.65C5203.94 3124.99 5198.21 3087.49 5217.8 3067.9C5237.4 3048.3 5274.9 3054.03 5301.56 3080.69C5328.22 3107.36 5333.95 3144.85 5314.35 3164.45Z" fill="black" fill-opacity="0.15"/>
<circle id="Ellipse 1" cx="5365.15" cy="3105.79" r="72.0544" fill="#63A45E"/>
<circle id="Ellipse 1_2" cx="5230.04" cy="3079.04" r="57.0431" fill="#86B557"/>
<circle id="Ellipse 1_3" cx="5347.13" cy="2959.05" r="63.0476" fill="#73AE65"/>
<rect id="Rectangle 2165" x="5173" y="2896" width="5" height="5" fill="#A4C424" fill-opacity="0.01"/>
</g>
<g id="tree1_2" clip-path="url(#clip3_2245_1284)">
<path id="Union_2" fill-rule="evenodd" clip-rule="evenodd" d="M1502.32 2871.69C1513.89 2871.07 1524.1 2867.12 1531.65 2859.57C1554.49 2836.73 1544.37 2789.59 1509.05 2754.27C1473.73 2718.95 1426.58 2708.83 1403.75 2731.66C1380.91 2754.5 1391.03 2801.64 1426.35 2836.96C1437.22 2847.84 1449.22 2856.32 1461.28 2862.19C1446.11 2862.69 1432.17 2868 1421.76 2878.4C1395.46 2904.7 1401.75 2953.63 1435.8 2987.69C1469.86 3021.74 1518.79 3028.03 1545.09 3001.73C1571.39 2975.43 1565.1 2926.5 1531.05 2892.44C1522.25 2883.65 1512.46 2876.7 1502.32 2871.69ZM1391.35 2960.45C1371.76 2980.04 1334.26 2974.32 1307.6 2947.65C1280.94 2920.99 1275.21 2883.49 1294.8 2863.9C1314.4 2844.3 1351.9 2850.03 1378.56 2876.69C1405.22 2903.36 1410.95 2940.85 1391.35 2960.45Z" fill="black" fill-opacity="0.15"/>
<circle id="Ellipse 1_4" cx="1442.15" cy="2901.79" r="72.0544" fill="#63A45E"/>
<circle id="Ellipse 1_5" cx="1307.04" cy="2875.04" r="57.0431" fill="#86B557"/>
<circle id="Ellipse 1_6" cx="1424.13" cy="2755.05" r="63.0476" fill="#73AE65"/>
<rect id="Rectangle 2165_2" x="1250" y="2692" width="5" height="5" fill="#A4C424" fill-opacity="0.01"/>
</g>
<g id="tree1_3" clip-path="url(#clip4_2245_1284)">
<path id="Union_3" fill-rule="evenodd" clip-rule="evenodd" d="M3994.32 2615.69C4005.89 2615.07 4016.1 2611.12 4023.65 2603.57C4046.49 2580.73 4036.37 2533.59 4001.05 2498.27C3965.73 2462.95 3918.58 2452.83 3895.75 2475.66C3872.91 2498.5 3883.03 2545.64 3918.35 2580.96C3929.22 2591.84 3941.22 2600.32 3953.28 2606.19C3938.11 2606.69 3924.17 2612 3913.76 2622.4C3887.46 2648.7 3893.75 2697.63 3927.8 2731.69C3961.86 2765.74 4010.79 2772.03 4037.09 2745.73C4063.39 2719.43 4057.1 2670.5 4023.05 2636.44C4014.25 2627.65 4004.46 2620.7 3994.32 2615.69ZM3883.35 2704.45C3863.76 2724.04 3826.26 2718.32 3799.6 2691.65C3772.94 2664.99 3767.21 2627.49 3786.8 2607.9C3806.4 2588.3 3843.9 2594.03 3870.56 2620.69C3897.22 2647.36 3902.95 2684.85 3883.35 2704.45Z" fill="black" fill-opacity="0.15"/>
<circle id="Ellipse 1_7" cx="3934.15" cy="2645.79" r="72.0544" fill="#63A45E"/>
<circle id="Ellipse 1_8" cx="3799.04" cy="2619.04" r="57.0431" fill="#86B557"/>
<circle id="Ellipse 1_9" cx="3916.13" cy="2499.05" r="63.0476" fill="#73AE65"/>
<rect id="Rectangle 2165_3" x="3742" y="2436" width="5" height="5" fill="#A4C424" fill-opacity="0.01"/>
</g>
<g id="tree4">
<path id="Union_4" fill-rule="evenodd" clip-rule="evenodd" d="M3674.08 2977.36C3694.88 2981.77 3714.49 2977.94 3727.51 2964.92C3752.29 2940.14 3743.79 2891.47 3708.53 2856.2C3673.27 2820.94 3624.59 2812.44 3599.81 2837.22C3575.03 2862 3583.53 2910.68 3618.79 2945.94C3619.76 2946.91 3620.74 2947.86 3621.73 2948.78C3607.11 2946.77 3593.74 2950.03 3584.63 2959.14C3564.96 2978.82 3572.56 3018.32 3601.61 3047.37C3630.67 3076.43 3670.17 3084.03 3689.84 3064.36C3709.24 3044.96 3702.12 3006.29 3674.08 2977.36Z" fill="black" fill-opacity="0.15"/>
<circle id="Ellipse 1_10" cx="3603.05" cy="2977.56" r="54.0408" fill="#86B557"/>
<circle id="Ellipse 1_11" cx="3612.05" cy="2845.46" r="72.0544" fill="#73AE65"/>
<rect id="Rectangle 2165_4" x="3540" y="2773" width="5" height="5" fill="#A4C424" fill-opacity="0.01"/>
</g>
<g id="tree4_2">
<path id="Union_5" fill-rule="evenodd" clip-rule="evenodd" d="M6170.08 2440.36C6190.88 2444.77 6210.49 2440.94 6223.51 2427.92C6248.29 2403.14 6239.79 2354.47 6204.53 2319.2C6169.27 2283.94 6120.59 2275.44 6095.81 2300.22C6071.03 2325 6079.53 2373.68 6114.79 2408.94C6115.76 2409.91 6116.74 2410.86 6117.73 2411.78C6103.11 2409.77 6089.74 2413.03 6080.63 2422.14C6060.96 2441.82 6068.56 2481.32 6097.61 2510.37C6126.67 2539.43 6166.17 2547.03 6185.84 2527.36C6205.24 2507.96 6198.12 2469.29 6170.08 2440.36Z" fill="black" fill-opacity="0.15"/>
<circle id="Ellipse 1_12" cx="6099.05" cy="2440.56" r="54.0408" fill="#86B557"/>
<circle id="Ellipse 1_13" cx="6108.05" cy="2308.46" r="72.0544" fill="#73AE65"/>
<rect id="Rectangle 2165_5" x="6036" y="2236" width="5" height="5" fill="#A4C424" fill-opacity="0.01"/>
</g>
<g id="bush1" clip-path="url(#clip5_2245_1284)">
<path id="Union_6" fill-rule="evenodd" clip-rule="evenodd" d="M4913.1 4419.41C4917.4 4423.71 4923.2 4425.76 4929.3 4425.66C4928.24 4434.97 4932.37 4446.07 4941.08 4454.78C4954.18 4467.88 4972.67 4470.62 4982.39 4460.91C4983.09 4460.2 4983.74 4459.45 4984.31 4458.65C5000.07 4469.36 5018.8 4470.2 5029.44 4459.55C5034.57 4454.42 5037.04 4447.42 5037.01 4439.77C5038.17 4438.95 5039.27 4438.02 5040.3 4436.99C5051.78 4425.5 5050.45 4405.55 5037.31 4392.42C5024.18 4379.28 5004.23 4377.95 4992.74 4389.43C4992.27 4389.9 4991.83 4390.38 4991.4 4390.88C4982.43 4390.01 4974.06 4392.38 4968.16 4398.27C4964.93 4401.51 4962.75 4405.49 4961.59 4409.91C4959.83 4409.24 4958.07 4408.71 4956.32 4408.34C4961.72 4398.17 4960.99 4386.31 4953.59 4378.92C4944.16 4369.48 4927.44 4370.89 4916.26 4382.08C4905.07 4393.26 4903.66 4409.97 4913.1 4419.41Z" fill="black" fill-opacity="0.15"/>
<g id="Group 119">
<circle id="Ellipse 1_14" cx="4929.99" cy="4395.7" r="25.9855" fill="#6FA662"/>
<circle id="Ellipse 2" cx="4952.39" cy="4416.31" r="32.2578" fill="#6FA662"/>
<ellipse id="Ellipse 3" cx="4957.76" cy="4379.57" rx="28.6736" ry="29.5697" fill="#6FA662"/>
<circle id="Ellipse 4" cx="4991.81" cy="4414.52" r="28.6736" fill="#6FA662"/>
<circle id="Ellipse 5" cx="4992.71" cy="4383.15" r="25.9855" fill="#6FA662"/>
<circle id="Ellipse 6" cx="5015.11" cy="4403.76" r="25.0894" fill="#6FA662"/>
</g>
<rect id="Rectangle 2165_6" x="4904" y="4350" width="5" height="5" fill="#A4C424" fill-opacity="0.01"/>
</g>
<g id="tree1_4" clip-path="url(#clip6_2245_1284)">
<path id="Union_7" fill-rule="evenodd" clip-rule="evenodd" d="M4757.32 4433.69C4768.89 4433.07 4779.1 4429.12 4786.65 4421.57C4809.49 4398.73 4799.37 4351.59 4764.05 4316.27C4728.73 4280.95 4681.58 4270.83 4658.75 4293.66C4635.91 4316.5 4646.03 4363.64 4681.35 4398.96C4692.22 4409.84 4704.22 4418.32 4716.28 4424.19C4701.11 4424.69 4687.17 4430 4676.76 4440.4C4650.46 4466.7 4656.75 4515.63 4690.8 4549.69C4724.86 4583.74 4773.79 4590.03 4800.09 4563.73C4826.39 4537.43 4820.1 4488.5 4786.05 4454.44C4777.25 4445.65 4767.46 4438.7 4757.32 4433.69ZM4646.35 4522.45C4626.76 4542.04 4589.26 4536.32 4562.6 4509.65C4535.94 4482.99 4530.21 4445.49 4549.8 4425.9C4569.4 4406.3 4606.9 4412.03 4633.56 4438.69C4660.22 4465.36 4665.95 4502.85 4646.35 4522.45Z" fill="black" fill-opacity="0.15"/>
<circle id="Ellipse 1_15" cx="4697.15" cy="4463.79" r="72.0544" fill="#63A45E"/>
<circle id="Ellipse 1_16" cx="4562.04" cy="4437.04" r="57.0431" fill="#86B557"/>
<circle id="Ellipse 1_17" cx="4679.13" cy="4317.05" r="63.0476" fill="#73AE65"/>
<rect id="Rectangle 2165_7" x="4505" y="4254" width="5" height="5" fill="#A4C424" fill-opacity="0.01"/>
</g>
<g id="tree4_3">
<path id="Union_8" fill-rule="evenodd" clip-rule="evenodd" d="M6069.08 1580.36C6089.88 1584.77 6109.49 1580.94 6122.51 1567.92C6147.29 1543.14 6138.79 1494.47 6103.53 1459.2C6068.27 1423.94 6019.59 1415.44 5994.81 1440.22C5970.03 1465 5978.53 1513.68 6013.79 1548.94C6014.76 1549.91 6015.74 1550.86 6016.73 1551.78C6002.11 1549.77 5988.74 1553.03 5979.63 1562.14C5959.96 1581.82 5967.56 1621.32 5996.61 1650.37C6025.67 1679.43 6065.17 1687.03 6084.84 1667.36C6104.24 1647.96 6097.12 1609.29 6069.08 1580.36Z" fill="black" fill-opacity="0.15"/>
<circle id="Ellipse 1_18" cx="5998.05" cy="1580.56" r="54.0408" fill="#86B557"/>
<circle id="Ellipse 1_19" cx="6007.05" cy="1448.46" r="72.0544" fill="#73AE65"/>
<rect id="Rectangle 2165_8" x="5935" y="1376" width="5" height="5" fill="#A4C424" fill-opacity="0.01"/>
</g>
<g id="tree2">
<path id="Union_9" fill-rule="evenodd" clip-rule="evenodd" d="M6013.23 3490.36C6026.83 3490.53 6038.7 3486.61 6047.15 3478.15C6050.94 3474.36 6053.82 3469.88 6055.83 3464.87C6058.89 3468.63 6062.2 3472.32 6065.78 3475.9C6099.83 3509.95 6144.27 3520.73 6165.04 3499.97C6185.8 3479.2 6175.03 3434.76 6140.97 3400.71C6106.92 3366.65 6062.48 3355.88 6041.71 3376.64C6039.78 3378.58 6038.11 3380.72 6036.72 3383.04C6031.25 3375.22 6024.84 3367.55 6017.56 3360.26C5976.83 3319.54 5924.05 3306.29 5899.67 3330.67C5875.29 3355.05 5888.54 3407.83 5929.27 3448.56C5932.83 3452.12 5936.48 3455.47 5940.2 3458.61C5932.27 3459.71 5925.34 3462.83 5920.04 3468.13C5900.45 3487.73 5910.6 3529.65 5942.71 3561.76C5974.82 3593.87 6016.74 3604.02 6036.34 3584.43C6055.93 3564.83 6045.78 3522.91 6013.67 3490.8C6013.52 3490.65 6013.38 3490.51 6013.23 3490.36Z" fill="black" fill-opacity="0.15"/>
<circle id="Ellipse 1_20" cx="6064.23" cy="3402.16" r="60.0454" fill="#63A45E"/>
<circle id="Ellipse 1_21" cx="5941.07" cy="3489.16" r="54.0408" fill="#73AE65"/>
<circle id="Ellipse 1_22" cx="5920.05" cy="3354.05" r="72.0544" fill="#86B557"/>
<rect id="Rectangle 2165_9" x="5848" y="3282" width="5" height="5" fill="#A4C424" fill-opacity="0.01"/>
</g>
<g id="tree2_2">
<path id="Union_10" fill-rule="evenodd" clip-rule="evenodd" d="M1997.23 1267.36C2010.83 1267.54 2022.7 1263.61 2031.15 1255.15C2034.94 1251.36 2037.82 1246.88 2039.83 1241.87C2042.89 1245.63 2046.2 1249.32 2049.78 1252.9C2083.83 1286.95 2128.27 1297.73 2149.04 1276.97C2169.8 1256.2 2159.03 1211.76 2124.97 1177.71C2090.92 1143.65 2046.48 1132.88 2025.71 1153.64C2023.78 1155.58 2022.11 1157.72 2020.72 1160.04C2015.25 1152.22 2008.84 1144.55 2001.56 1137.26C1960.83 1096.54 1908.05 1083.29 1883.67 1107.67C1859.29 1132.05 1872.54 1184.83 1913.27 1225.56C1916.83 1229.12 1920.48 1232.47 1924.2 1235.61C1916.27 1236.71 1909.34 1239.83 1904.04 1245.13C1884.45 1264.73 1894.6 1306.65 1926.71 1338.76C1958.82 1370.87 2000.74 1381.02 2020.34 1361.43C2039.93 1341.83 2029.78 1299.91 1997.67 1267.8C1997.52 1267.65 1997.38 1267.51 1997.23 1267.36Z" fill="black" fill-opacity="0.15"/>
<circle id="Ellipse 1_23" cx="2048.23" cy="1179.16" r="60.0454" fill="#63A45E"/>
<circle id="Ellipse 1_24" cx="1925.07" cy="1266.16" r="54.0408" fill="#73AE65"/>
<circle id="Ellipse 1_25" cx="1904.05" cy="1131.05" r="72.0544" fill="#86B557"/>
<rect id="Rectangle 2165_10" x="1832" y="1059" width="5" height="5" fill="#A4C424" fill-opacity="0.01"/>
</g>
<g id="tree2_3">
<path id="Union_11" fill-rule="evenodd" clip-rule="evenodd" d="M5389.23 4426.36C5402.83 4426.53 5414.7 4422.61 5423.15 4414.15C5426.94 4410.36 5429.82 4405.88 5431.83 4400.87C5434.89 4404.63 5438.2 4408.32 5441.78 4411.9C5475.83 4445.95 5520.27 4456.73 5541.04 4435.97C5561.8 4415.2 5551.03 4370.76 5516.97 4336.71C5482.92 4302.65 5438.48 4291.88 5417.71 4312.64C5415.78 4314.58 5414.11 4316.72 5412.72 4319.04C5407.25 4311.22 5400.84 4303.55 5393.56 4296.26C5352.83 4255.54 5300.05 4242.29 5275.67 4266.67C5251.29 4291.05 5264.54 4343.83 5305.27 4384.56C5308.83 4388.12 5312.48 4391.47 5316.2 4394.61C5308.27 4395.71 5301.34 4398.83 5296.04 4404.13C5276.45 4423.73 5286.6 4465.65 5318.71 4497.76C5350.82 4529.87 5392.74 4540.02 5412.34 4520.43C5431.93 4500.83 5421.78 4458.91 5389.67 4426.8C5389.52 4426.65 5389.38 4426.51 5389.23 4426.36Z" fill="black" fill-opacity="0.15"/>
<circle id="Ellipse 1_26" cx="5440.23" cy="4338.16" r="60.0454" fill="#63A45E"/>
<circle id="Ellipse 1_27" cx="5317.07" cy="4425.16" r="54.0408" fill="#73AE65"/>
<circle id="Ellipse 1_28" cx="5296.05" cy="4290.05" r="72.0544" fill="#86B557"/>
<rect id="Rectangle 2165_11" x="5224" y="4218" width="5" height="5" fill="#A4C424" fill-opacity="0.01"/>
</g>
<g id="tree4_4">
<path id="Union_12" fill-rule="evenodd" clip-rule="evenodd" d="M6251.08 4088.36C6271.88 4092.77 6291.49 4088.94 6304.51 4075.92C6329.29 4051.14 6320.79 4002.47 6285.53 3967.2C6250.27 3931.94 6201.59 3923.44 6176.81 3948.22C6152.03 3973 6160.53 4021.68 6195.79 4056.94C6196.76 4057.91 6197.74 4058.86 6198.73 4059.78C6184.11 4057.77 6170.74 4061.03 6161.63 4070.14C6141.96 4089.82 6149.56 4129.32 6178.61 4158.37C6207.67 4187.43 6247.17 4195.03 6266.84 4175.36C6286.24 4155.96 6279.12 4117.29 6251.08 4088.36Z" fill="black" fill-opacity="0.15"/>
<circle id="Ellipse 1_29" cx="6180.05" cy="4088.56" r="54.0408" fill="#86B557"/>
<circle id="Ellipse 1_30" cx="6189.05" cy="3956.46" r="72.0544" fill="#73AE65"/>
<rect id="Rectangle 2165_12" x="6117" y="3884" width="5" height="5" fill="#A4C424" fill-opacity="0.01"/>
</g>
<g id="tree4_5">
<path id="Union_13" fill-rule="evenodd" clip-rule="evenodd" d="M1561.08 1616.36C1581.88 1620.77 1601.49 1616.94 1614.51 1603.92C1639.29 1579.14 1630.79 1530.47 1595.53 1495.2C1560.27 1459.94 1511.59 1451.44 1486.81 1476.22C1462.03 1501 1470.53 1549.68 1505.79 1584.94C1506.76 1585.91 1507.74 1586.86 1508.73 1587.78C1494.11 1585.77 1480.74 1589.03 1471.63 1598.14C1451.96 1617.82 1459.56 1657.32 1488.61 1686.37C1517.67 1715.43 1557.17 1723.03 1576.84 1703.36C1596.24 1683.96 1589.12 1645.29 1561.08 1616.36Z" fill="black" fill-opacity="0.15"/>
<circle id="Ellipse 1_31" cx="1490.05" cy="1616.56" r="54.0408" fill="#86B557"/>
<circle id="Ellipse 1_32" cx="1499.05" cy="1484.46" r="72.0544" fill="#73AE65"/>
<rect id="Rectangle 2165_13" x="1427" y="1412" width="5" height="5" fill="#A4C424" fill-opacity="0.01"/>
</g>
<g id="tree3" clip-path="url(#clip7_2245_1284)">
<path id="Union_14" fill-rule="evenodd" clip-rule="evenodd" d="M5316.28 1143.31C5354.73 1181.76 5405.61 1193.23 5429.92 1168.92C5434.95 1163.88 5438.45 1157.7 5440.5 1150.74C5441.02 1151.28 5441.56 1151.82 5442.1 1152.36C5470.81 1181.08 5508.71 1189.73 5526.75 1171.69C5544.79 1153.65 5536.14 1115.74 5507.43 1087.03C5478.71 1058.32 5440.81 1049.67 5422.77 1067.71C5421.36 1069.12 5420.11 1070.65 5419.03 1072.29C5414.68 1066.44 5409.77 1060.73 5404.31 1055.28C5365.86 1016.82 5314.98 1005.36 5290.67 1029.67C5266.36 1053.98 5277.83 1104.86 5316.28 1143.31Z" fill="black" fill-opacity="0.15"/>
<circle id="Ellipse 1_33" cx="5443.15" cy="1091.46" r="54.0408" fill="#73AE65"/>
<circle id="Ellipse 1_34" cx="5311.05" cy="1053.05" r="72.0544" fill="#63A45E"/>
<rect id="Rectangle 2165_14" x="5239" y="981" width="5" height="5" fill="#A4C424" fill-opacity="0.01"/>
</g>
<g id="tree3_2" clip-path="url(#clip8_2245_1284)">
<path id="Union_15" fill-rule="evenodd" clip-rule="evenodd" d="M5752.28 3763.31C5790.73 3801.76 5841.61 3813.23 5865.92 3788.92C5870.95 3783.88 5874.45 3777.7 5876.5 3770.73C5877.02 3771.28 5877.56 3771.82 5878.1 3772.36C5906.81 3801.08 5944.71 3809.73 5962.75 3791.69C5980.79 3773.65 5972.14 3735.74 5943.43 3707.03C5914.71 3678.32 5876.81 3669.67 5858.77 3687.71C5857.36 3689.12 5856.11 3690.65 5855.03 3692.29C5850.68 3686.44 5845.77 3680.73 5840.31 3675.27C5801.86 3636.82 5750.98 3625.36 5726.67 3649.67C5702.36 3673.98 5713.83 3724.86 5752.28 3763.31Z" fill="black" fill-opacity="0.15"/>
<circle id="Ellipse 1_35" cx="5879.15" cy="3711.46" r="54.0408" fill="#73AE65"/>
<circle id="Ellipse 1_36" cx="5747.05" cy="3673.05" r="72.0544" fill="#63A45E"/>
<rect id="Rectangle 2165_15" x="5675" y="3601" width="5" height="5" fill="#A4C424" fill-opacity="0.01"/>
</g>
<g id="tree3_3" clip-path="url(#clip9_2245_1284)">
<path id="Union_16" fill-rule="evenodd" clip-rule="evenodd" d="M3011.28 3701.31C3049.73 3739.76 3100.61 3751.23 3124.92 3726.92C3129.95 3721.88 3133.45 3715.7 3135.5 3708.73C3136.02 3709.28 3136.56 3709.82 3137.1 3710.36C3165.81 3739.08 3203.71 3747.73 3221.75 3729.69C3239.79 3711.65 3231.14 3673.74 3202.43 3645.03C3173.71 3616.32 3135.81 3607.67 3117.77 3625.71C3116.36 3627.12 3115.11 3628.65 3114.03 3630.29C3109.68 3624.44 3104.77 3618.73 3099.31 3613.27C3060.86 3574.82 3009.98 3563.36 2985.67 3587.67C2961.36 3611.98 2972.83 3662.86 3011.28 3701.31Z" fill="black" fill-opacity="0.15"/>
<circle id="Ellipse 1_37" cx="3138.15" cy="3649.46" r="54.0408" fill="#73AE65"/>
<circle id="Ellipse 1_38" cx="3006.05" cy="3611.05" r="72.0544" fill="#63A45E"/>
<rect id="Rectangle 2165_16" x="2934" y="3539" width="5" height="5" fill="#A4C424" fill-opacity="0.01"/>
</g>
<g id="tree6" clip-path="url(#clip10_2245_1284)">
<path id="Union_17" d="M1455.02 2660.31C1436.94 2678.38 1395.2 2665.95 1361.79 2632.54C1328.38 2599.12 1315.94 2557.39 1334.02 2539.31C1352.09 2521.24 1393.83 2533.67 1427.24 2567.08C1460.66 2600.5 1473.09 2642.24 1455.02 2660.31Z" fill="black" fill-opacity="0.15"/>
<circle id="Ellipse 1_39" cx="1355" cy="2560.29" r="53" fill="#86B557"/>
<rect id="Rectangle 2165_17" x="1295" y="2500" width="5" height="5" fill="#A4C424" fill-opacity="0.01"/>
</g>
<g id="tree6_2" clip-path="url(#clip11_2245_1284)">
<path id="Union_18" d="M2012.02 2592.31C1993.94 2610.38 1952.2 2597.95 1918.79 2564.54C1885.38 2531.12 1872.94 2489.39 1891.02 2471.31C1909.09 2453.24 1950.83 2465.67 1984.24 2499.08C2017.66 2532.5 2030.09 2574.24 2012.02 2592.31Z" fill="black" fill-opacity="0.15"/>
<circle id="Ellipse 1_40" cx="1912" cy="2492.29" r="53" fill="#86B557"/>
<rect id="Rectangle 2165_18" x="1852" y="2432" width="5" height="5" fill="#A4C424" fill-opacity="0.01"/>
</g>
<g id="tree6_3" clip-path="url(#clip12_2245_1284)">
<path id="Union_19" d="M2734.02 3192.31C2715.94 3210.38 2674.2 3197.95 2640.79 3164.54C2607.38 3131.12 2594.94 3089.39 2613.02 3071.31C2631.09 3053.24 2672.83 3065.67 2706.24 3099.08C2739.66 3132.5 2752.09 3174.24 2734.02 3192.31Z" fill="black" fill-opacity="0.15"/>
<circle id="Ellipse 1_41" cx="2634" cy="3092.29" r="53" fill="#86B557"/>
<rect id="Rectangle 2165_19" x="2574" y="3032" width="5" height="5" fill="#A4C424" fill-opacity="0.01"/>
</g>
<g id="tree6_4" clip-path="url(#clip13_2245_1284)">
<path id="Union_20" d="M4016.02 3251.31C3997.94 3269.38 3956.2 3256.95 3922.79 3223.54C3889.38 3190.12 3876.94 3148.39 3895.02 3130.31C3913.09 3112.24 3954.83 3124.67 3988.24 3158.08C4021.66 3191.5 4034.09 3233.24 4016.02 3251.31Z" fill="black" fill-opacity="0.15"/>
<circle id="Ellipse 1_42" cx="3916" cy="3151.29" r="53" fill="#86B557"/>
<rect id="Rectangle 2165_20" x="3856" y="3091" width="5" height="5" fill="#A4C424" fill-opacity="0.01"/>
</g>
<g id="tree6_5" clip-path="url(#clip14_2245_1284)">
<path id="Union_21" d="M4537.02 3010.31C4518.94 3028.38 4477.2 3015.95 4443.79 2982.54C4410.38 2949.12 4397.94 2907.39 4416.02 2889.31C4434.09 2871.24 4475.83 2883.67 4509.24 2917.08C4542.66 2950.5 4555.09 2992.24 4537.02 3010.31Z" fill="black" fill-opacity="0.15"/>
<circle id="Ellipse 1_43" cx="4437" cy="2910.29" r="53" fill="#86B557"/>
<rect id="Rectangle 2165_21" x="4377" y="2850" width="5" height="5" fill="#A4C424" fill-opacity="0.01"/>
</g>
<g id="tree6_6" clip-path="url(#clip15_2245_1284)">
<path id="Union_22" d="M5621.02 2973.31C5602.94 2991.38 5561.2 2978.95 5527.79 2945.54C5494.38 2912.12 5481.94 2870.39 5500.02 2852.31C5518.09 2834.24 5559.83 2846.67 5593.24 2880.08C5626.66 2913.5 5639.09 2955.24 5621.02 2973.31Z" fill="black" fill-opacity="0.15"/>
<circle id="Ellipse 1_44" cx="5521" cy="2873.29" r="53" fill="#86B557"/>
<rect id="Rectangle 2165_22" x="5461" y="2813" width="5" height="5" fill="#A4C424" fill-opacity="0.01"/>
</g>
<g id="tree6_7" clip-path="url(#clip16_2245_1284)">
<path id="Union_23" d="M6272.02 3761.31C6253.94 3779.38 6212.2 3766.95 6178.79 3733.54C6145.38 3700.12 6132.94 3658.39 6151.02 3640.31C6169.09 3622.24 6210.83 3634.67 6244.24 3668.08C6277.66 3701.5 6290.09 3743.24 6272.02 3761.31Z" fill="black" fill-opacity="0.15"/>
<circle id="Ellipse 1_45" cx="6172" cy="3661.29" r="53" fill="#86B557"/>
<rect id="Rectangle 2165_23" x="6112" y="3601" width="5" height="5" fill="#A4C424" fill-opacity="0.01"/>
</g>
<g id="tree6_8" clip-path="url(#clip17_2245_1284)">
<path id="Union_24" d="M5043.02 5192.31C5024.94 5210.38 4983.2 5197.95 4949.79 5164.54C4916.38 5131.12 4903.94 5089.39 4922.02 5071.31C4940.09 5053.24 4981.83 5065.67 5015.24 5099.08C5048.66 5132.5 5061.09 5174.24 5043.02 5192.31Z" fill="black" fill-opacity="0.15"/>
<circle id="Ellipse 1_46" cx="4943" cy="5092.29" r="53" fill="#86B557"/>
<rect id="Rectangle 2165_24" x="4883" y="5032" width="5" height="5" fill="#A4C424" fill-opacity="0.01"/>
</g>
<g id="tree6_9" clip-path="url(#clip18_2245_1284)">
<path id="Union_25" d="M5196.02 4700.31C5177.94 4718.38 5136.2 4705.95 5102.79 4672.54C5069.38 4639.12 5056.94 4597.39 5075.02 4579.31C5093.09 4561.24 5134.83 4573.67 5168.24 4607.08C5201.66 4640.5 5214.09 4682.24 5196.02 4700.31Z" fill="black" fill-opacity="0.15"/>
<circle id="Ellipse 1_47" cx="5096" cy="4600.29" r="53" fill="#86B557"/>
<rect id="Rectangle 2165_25" x="5036" y="4540" width="5" height="5" fill="#A4C424" fill-opacity="0.01"/>
</g>
<g id="tree6_10" clip-path="url(#clip19_2245_1284)">
<path id="Union_26" d="M4460.02 4374.31C4441.94 4392.38 4400.2 4379.95 4366.79 4346.54C4333.38 4313.12 4320.94 4271.39 4339.02 4253.31C4357.09 4235.24 4398.83 4247.67 4432.24 4281.08C4465.66 4314.5 4478.09 4356.24 4460.02 4374.31Z" fill="black" fill-opacity="0.15"/>
<circle id="Ellipse 1_48" cx="4360" cy="4274.29" r="53" fill="#86B557"/>
<rect id="Rectangle 2165_26" x="4300" y="4214" width="5" height="5" fill="#A4C424" fill-opacity="0.01"/>
</g>
<g id="tree6_11" clip-path="url(#clip20_2245_1284)">
<path id="Union_27" d="M4785.02 1654.31C4766.94 1672.38 4725.2 1659.95 4691.79 1626.54C4658.38 1593.12 4645.94 1551.39 4664.02 1533.31C4682.09 1515.24 4723.83 1527.67 4757.24 1561.08C4790.66 1594.5 4803.09 1636.24 4785.02 1654.31Z" fill="black" fill-opacity="0.15"/>
<circle id="Ellipse 1_49" cx="4685" cy="1554.29" r="53" fill="#86B557"/>
<rect id="Rectangle 2165_27" x="4625" y="1494" width="5" height="5" fill="#A4C424" fill-opacity="0.01"/>
</g>
<g id="tree6_12" clip-path="url(#clip21_2245_1284)">
<path id="Union_28" d="M4994.02 1105.31C4975.94 1123.38 4934.2 1110.95 4900.79 1077.54C4867.38 1044.12 4854.94 1002.39 4873.02 984.311C4891.09 966.237 4932.83 978.672 4966.24 1012.08C4999.66 1045.5 5012.09 1087.24 4994.02 1105.31Z" fill="black" fill-opacity="0.15"/>
<circle id="Ellipse 1_50" cx="4894" cy="1005.29" r="53" fill="#86B557"/>
<rect id="Rectangle 2165_28" x="4834" y="945" width="5" height="5" fill="#A4C424" fill-opacity="0.01"/>
</g>
<g id="tree6_13" clip-path="url(#clip22_2245_1284)">
<path id="Union_29" d="M2987.02 994.31C2968.94 1012.38 2927.2 999.949 2893.79 966.537C2860.38 933.124 2847.94 891.385 2866.02 873.311C2884.09 855.237 2925.83 867.672 2959.24 901.084C2992.66 934.497 3005.09 976.236 2987.02 994.31Z" fill="black" fill-opacity="0.15"/>
<circle id="Ellipse 1_51" cx="2887" cy="894.289" r="53" fill="#86B557"/>
<rect id="Rectangle 2165_29" x="2827" y="834" width="5" height="5" fill="#A4C424" fill-opacity="0.01"/>
</g>
<g id="tree6_14" clip-path="url(#clip23_2245_1284)">
<path id="Union_30" d="M1837.02 1432.31C1818.94 1450.38 1777.2 1437.95 1743.79 1404.54C1710.38 1371.12 1697.94 1329.39 1716.02 1311.31C1734.09 1293.24 1775.83 1305.67 1809.24 1339.08C1842.66 1372.5 1855.09 1414.24 1837.02 1432.31Z" fill="black" fill-opacity="0.15"/>
<circle id="Ellipse 1_52" cx="1737" cy="1332.29" r="53" fill="#86B557"/>
<rect id="Rectangle 2165_30" x="1677" y="1272" width="5" height="5" fill="#A4C424" fill-opacity="0.01"/>
</g>
<g id="tree5" clip-path="url(#clip24_2245_1284)">
<path id="Union_31" d="M2002.55 2320.55C1980.82 2342.28 1936.36 2333.06 1903.26 2299.95C1870.15 2266.85 1860.93 2222.4 1882.67 2200.66C1904.4 2178.93 1948.85 2188.15 1981.96 2221.25C2015.06 2254.36 2024.28 2298.81 2002.55 2320.55Z" fill="black" fill-opacity="0.15"/>
<circle id="Ellipse 1_53" cx="1903.05" cy="2224.05" r="66.0499" fill="#63A45E"/>
<rect id="Rectangle 2165_31" x="1837" y="2158" width="5" height="5" fill="#A4C424" fill-opacity="0.01"/>
</g>
<g id="tree5_2" clip-path="url(#clip25_2245_1284)">
<path id="Union_32" d="M4821.55 4845.55C4799.82 4867.28 4755.36 4858.06 4722.26 4824.95C4689.15 4791.85 4679.93 4747.4 4701.67 4725.66C4723.4 4703.93 4767.85 4713.15 4800.96 4746.25C4834.06 4779.36 4843.28 4823.81 4821.55 4845.55Z" fill="black" fill-opacity="0.15"/>
<circle id="Ellipse 1_54" cx="4722.05" cy="4749.05" r="66.0499" fill="#63A45E"/>
<rect id="Rectangle 2165_32" x="4656" y="4683" width="5" height="5" fill="#A4C424" fill-opacity="0.01"/>
</g>
<g id="tree5_3" clip-path="url(#clip26_2245_1284)">
<path id="Union_33" d="M5731.55 5107.55C5709.82 5129.28 5665.36 5120.06 5632.26 5086.95C5599.15 5053.85 5589.93 5009.4 5611.67 4987.66C5633.4 4965.93 5677.85 4975.15 5710.96 5008.25C5744.06 5041.36 5753.28 5085.81 5731.55 5107.55Z" fill="black" fill-opacity="0.15"/>
<circle id="Ellipse 1_55" cx="5632.05" cy="5011.05" r="66.0499" fill="#63A45E"/>
<rect id="Rectangle 2165_33" x="5566" y="4945" width="5" height="5" fill="#A4C424" fill-opacity="0.01"/>
</g>
<g id="tree5_4" clip-path="url(#clip27_2245_1284)">
<path id="Union_34" d="M3444.55 3670.55C3422.82 3692.28 3378.36 3683.06 3345.26 3649.95C3312.15 3616.85 3302.93 3572.4 3324.67 3550.66C3346.4 3528.93 3390.85 3538.15 3423.96 3571.25C3457.06 3604.36 3466.28 3648.81 3444.55 3670.55Z" fill="black" fill-opacity="0.15"/>
<circle id="Ellipse 1_56" cx="3345.05" cy="3574.05" r="66.0499" fill="#63A45E"/>
<rect id="Rectangle 2165_34" x="3279" y="3508" width="5" height="5" fill="#A4C424" fill-opacity="0.01"/>
</g>
<g id="stone1" clip-path="url(#clip28_2245_1284)">
<path id="Vector 755" d="M3625.17 3610.14C3625.17 3600.65 3620.68 3591.72 3613.06 3586.06L3597.24 3574.31C3585.38 3565.5 3568.87 3566.64 3558.33 3577L3540.99 3594.04C3529.79 3605.05 3528.97 3622.82 3539.1 3634.8L3552.07 3650.15C3557.19 3656.21 3564.49 3659.99 3572.38 3660.68L3580.08 3661.35C3589.24 3662.14 3598.26 3658.7 3604.55 3652L3617.04 3638.7C3622.26 3633.13 3625.17 3625.79 3625.17 3618.16L3625.17 3610.14Z" fill="black" fill-opacity="0.15"/>
<rect id="Rectangle 1712_5" x="3552.66" y="3520" width="95.6841" height="95.6841" rx="27" transform="rotate(45 3552.66 3520)" fill="#476E86"/>
<rect id="Rectangle 2165_35" x="3495" y="3531" width="5" height="5" fill="#A4C424" fill-opacity="0.01"/>
</g>
<g id="stone1_2" clip-path="url(#clip29_2245_1284)">
<path id="Vector 755_2" d="M3886.17 2347.14C3886.17 2337.65 3881.68 2328.72 3874.06 2323.06L3858.24 2311.31C3846.38 2302.5 3829.87 2303.64 3819.33 2314L3801.99 2331.04C3790.79 2342.05 3789.97 2359.82 3800.1 2371.8L3813.07 2387.15C3818.19 2393.21 3825.49 2396.99 3833.38 2397.68L3841.08 2398.35C3850.24 2399.14 3859.26 2395.7 3865.55 2389L3878.04 2375.7C3883.26 2370.13 3886.17 2362.79 3886.17 2355.16L3886.17 2347.14Z" fill="black" fill-opacity="0.15"/>
<rect id="Rectangle 1712_6" x="3813.66" y="2257" width="95.6841" height="95.6841" rx="27" transform="rotate(45 3813.66 2257)" fill="#476E86"/>
<rect id="Rectangle 2165_36" x="3756" y="2268" width="5" height="5" fill="#A4C424" fill-opacity="0.01"/>
</g>
<g id="stone1_3" clip-path="url(#clip30_2245_1284)">
<path id="Vector 755_3" d="M5256.17 3737.14C5256.17 3727.65 5251.68 3718.72 5244.06 3713.06L5228.24 3701.31C5216.38 3692.5 5199.87 3693.64 5189.33 3704L5171.99 3721.04C5160.79 3732.05 5159.97 3749.82 5170.1 3761.8L5183.07 3777.15C5188.19 3783.21 5195.49 3786.99 5203.38 3787.68L5211.08 3788.35C5220.24 3789.14 5229.26 3785.7 5235.55 3779L5248.04 3765.7C5253.26 3760.13 5256.17 3752.79 5256.17 3745.16L5256.17 3737.14Z" fill="black" fill-opacity="0.15"/>
<rect id="Rectangle 1712_7" x="5183.66" y="3647" width="95.6841" height="95.6841" rx="27" transform="rotate(45 5183.66 3647)" fill="#476E86"/>
<rect id="Rectangle 2165_37" x="5126" y="3658" width="5" height="5" fill="#A4C424" fill-opacity="0.01"/>
</g>
<g id="stone1_4" clip-path="url(#clip31_2245_1284)">
<path id="Vector 755_4" d="M5161.17 926.145C5161.17 916.653 5156.68 907.72 5149.06 902.061L5133.24 890.314C5121.38 881.504 5104.87 882.644 5094.33 893.002L5076.99 910.045C5065.79 921.046 5064.97 938.816 5075.1 950.805L5088.07 966.153C5093.19 972.207 5100.49 975.991 5108.38 976.677L5116.08 977.347C5125.24 978.143 5134.26 974.697 5140.55 967.997L5153.04 954.696C5158.26 949.134 5161.17 941.789 5161.17 934.158L5161.17 926.145Z" fill="black" fill-opacity="0.15"/>
<rect id="Rectangle 1712_8" x="5088.66" y="836" width="95.6841" height="95.6841" rx="27" transform="rotate(45 5088.66 836)" fill="#476E86"/>
<rect id="Rectangle 2165_38" x="5031" y="847" width="5" height="5" fill="#A4C424" fill-opacity="0.01"/>
</g>
<g id="stone1_5" clip-path="url(#clip32_2245_1284)">
<path id="Vector 755_5" d="M1658.17 1217.14C1658.17 1207.65 1653.68 1198.72 1646.06 1193.06L1630.24 1181.31C1618.38 1172.5 1601.87 1173.64 1591.33 1184L1573.99 1201.04C1562.79 1212.05 1561.97 1229.82 1572.1 1241.8L1585.07 1257.15C1590.19 1263.21 1597.49 1266.99 1605.38 1267.68L1613.08 1268.35C1622.24 1269.14 1631.26 1265.7 1637.55 1259L1650.04 1245.7C1655.26 1240.13 1658.17 1232.79 1658.17 1225.16L1658.17 1217.14Z" fill="black" fill-opacity="0.15"/>
<rect id="Rectangle 1712_9" x="1585.66" y="1127" width="95.6841" height="95.6841" rx="27" transform="rotate(45 1585.66 1127)" fill="#476E86"/>
<rect id="Rectangle 2165_39" x="1528" y="1138" width="5" height="5" fill="#A4C424" fill-opacity="0.01"/>
</g>
<g id="stone1_6" clip-path="url(#clip33_2245_1284)">
<path id="Vector 755_6" d="M6053.17 3921.14C6053.17 3911.65 6048.68 3902.72 6041.06 3897.06L6025.24 3885.31C6013.38 3876.5 5996.87 3877.64 5986.33 3888L5968.99 3905.04C5957.79 3916.05 5956.97 3933.82 5967.1 3945.8L5980.07 3961.15C5985.19 3967.21 5992.49 3970.99 6000.38 3971.68L6008.08 3972.35C6017.24 3973.14 6026.26 3969.7 6032.55 3963L6045.04 3949.7C6050.26 3944.13 6053.17 3936.79 6053.17 3929.16L6053.17 3921.14Z" fill="black" fill-opacity="0.15"/>
<rect id="Rectangle 1712_10" x="5980.66" y="3831" width="95.6841" height="95.6841" rx="27" transform="rotate(45 5980.66 3831)" fill="#476E86"/>
<rect id="Rectangle 2165_40" x="5923" y="3842" width="5" height="5" fill="#A4C424" fill-opacity="0.01"/>
</g>
<g id="stone1_7" clip-path="url(#clip34_2245_1284)">
<path id="Vector 755_7" d="M5080.17 4852.14C5080.17 4842.65 5075.68 4833.72 5068.06 4828.06L5052.24 4816.31C5040.38 4807.5 5023.87 4808.64 5013.33 4819L4995.99 4836.04C4984.79 4847.05 4983.97 4864.82 4994.1 4876.8L5007.07 4892.15C5012.19 4898.21 5019.49 4901.99 5027.38 4902.68L5035.08 4903.35C5044.24 4904.14 5053.26 4900.7 5059.55 4894L5072.04 4880.7C5077.26 4875.13 5080.17 4867.79 5080.17 4860.16L5080.17 4852.14Z" fill="black" fill-opacity="0.15"/>
<rect id="Rectangle 1712_11" x="5007.66" y="4762" width="95.6841" height="95.6841" rx="27" transform="rotate(45 5007.66 4762)" fill="#476E86"/>
<rect id="Rectangle 2165_41" x="4950" y="4773" width="5" height="5" fill="#A4C424" fill-opacity="0.01"/>
</g>
<g id="stone1_8" clip-path="url(#clip35_2245_1284)">
<path id="Vector 755_8" d="M3290.17 739.145C3290.17 729.653 3285.68 720.72 3278.06 715.061L3262.24 703.314C3250.38 694.504 3233.87 695.644 3223.33 706.002L3205.99 723.045C3194.79 734.046 3193.97 751.816 3204.1 763.805L3217.07 779.153C3222.19 785.207 3229.49 788.991 3237.38 789.677L3245.08 790.347C3254.24 791.143 3263.26 787.697 3269.55 780.997L3282.04 767.696C3287.26 762.134 3290.17 754.789 3290.17 747.158L3290.17 739.145Z" fill="black" fill-opacity="0.15"/>
<rect id="Rectangle 1712_12" x="3217.66" y="649" width="95.6841" height="95.6841" rx="27" transform="rotate(45 3217.66 649)" fill="#476E86"/>
<rect id="Rectangle 2165_42" x="3160" y="660" width="5" height="5" fill="#A4C424" fill-opacity="0.01"/>
</g>
<g id="bush1_2" clip-path="url(#clip36_2245_1284)">
<path id="Union_35" fill-rule="evenodd" clip-rule="evenodd" d="M3239.1 1399.41C3243.39 1403.71 3249.2 1405.76 3255.3 1405.66C3254.24 1414.97 3258.37 1426.07 3267.08 1434.78C3280.18 1447.88 3298.67 1450.62 3308.39 1440.91C3309.09 1440.2 3309.74 1439.45 3310.31 1438.65C3326.07 1449.36 3344.8 1450.2 3355.44 1439.55C3360.57 1434.42 3363.04 1427.42 3363.01 1419.77C3364.17 1418.95 3365.27 1418.02 3366.3 1416.99C3377.78 1405.5 3376.45 1385.55 3363.31 1372.42C3350.18 1359.28 3330.23 1357.95 3318.74 1369.43C3318.27 1369.9 3317.83 1370.38 3317.4 1370.88C3308.43 1370.01 3300.06 1372.38 3294.16 1378.27C3290.93 1381.51 3288.75 1385.49 3287.59 1389.91C3285.83 1389.24 3284.07 1388.71 3282.32 1388.34C3287.72 1378.17 3286.99 1366.31 3279.59 1358.92C3270.16 1349.48 3253.44 1350.89 3242.26 1362.08C3231.07 1373.26 3229.66 1389.97 3239.1 1399.41Z" fill="black" fill-opacity="0.15"/>
<g id="Group 119_2">
<circle id="Ellipse 1_57" cx="3255.99" cy="1375.7" r="25.9855" fill="#6FA662"/>
<circle id="Ellipse 2_2" cx="3278.39" cy="1396.31" r="32.2578" fill="#6FA662"/>
<ellipse id="Ellipse 3_2" cx="3283.76" cy="1359.57" rx="28.6736" ry="29.5697" fill="#6FA662"/>
<circle id="Ellipse 4_2" cx="3317.81" cy="1394.52" r="28.6736" fill="#6FA662"/>
<circle id="Ellipse 5_2" cx="3318.71" cy="1363.15" r="25.9855" fill="#6FA662"/>
<circle id="Ellipse 6_2" cx="3341.11" cy="1383.76" r="25.0894" fill="#6FA662"/>
</g>
<rect id="Rectangle 2165_43" x="3230" y="1330" width="5" height="5" fill="#A4C424" fill-opacity="0.01"/>
</g>
<g id="bush1_3" clip-path="url(#clip37_2245_1284)">
<path id="Union_36" fill-rule="evenodd" clip-rule="evenodd" d="M4051.1 3021.41C4055.4 3025.71 4061.2 3027.76 4067.3 3027.66C4066.24 3036.97 4070.37 3048.07 4079.08 3056.78C4092.18 3069.88 4110.67 3072.62 4120.39 3062.91C4121.09 3062.2 4121.74 3061.45 4122.31 3060.65C4138.07 3071.36 4156.8 3072.2 4167.44 3061.55C4172.57 3056.42 4175.04 3049.42 4175.01 3041.77C4176.17 3040.95 4177.27 3040.02 4178.3 3038.99C4189.78 3027.5 4188.45 3007.55 4175.31 2994.42C4162.18 2981.28 4142.23 2979.95 4130.74 2991.43C4130.27 2991.9 4129.83 2992.38 4129.4 2992.88C4120.43 2992.01 4112.06 2994.38 4106.16 3000.27C4102.93 3003.51 4100.75 3007.49 4099.59 3011.91C4097.83 3011.24 4096.07 3010.71 4094.32 3010.34C4099.72 3000.17 4098.99 2988.31 4091.59 2980.92C4082.16 2971.48 4065.44 2972.89 4054.26 2984.08C4043.07 2995.26 4041.66 3011.97 4051.1 3021.41Z" fill="black" fill-opacity="0.15"/>
<g id="Group 119_3">
<circle id="Ellipse 1_58" cx="4067.99" cy="2997.7" r="25.9855" fill="#6FA662"/>
<circle id="Ellipse 2_3" cx="4090.39" cy="3018.31" r="32.2578" fill="#6FA662"/>
<ellipse id="Ellipse 3_3" cx="4095.76" cy="2981.57" rx="28.6736" ry="29.5697" fill="#6FA662"/>
<circle id="Ellipse 4_3" cx="4129.81" cy="3016.52" r="28.6736" fill="#6FA662"/>
<circle id="Ellipse 5_3" cx="4130.71" cy="2985.15" r="25.9855" fill="#6FA662"/>
<circle id="Ellipse 6_3" cx="4153.11" cy="3005.76" r="25.0894" fill="#6FA662"/>
</g>
<rect id="Rectangle 2165_44" x="4042" y="2952" width="5" height="5" fill="#A4C424" fill-opacity="0.01"/>
</g>
<g id="bush1_4" clip-path="url(#clip38_2245_1284)">
<path id="Union_37" fill-rule="evenodd" clip-rule="evenodd" d="M6061.1 4323.41C6065.4 4327.71 6071.2 4329.76 6077.3 4329.66C6076.24 4338.97 6080.37 4350.07 6089.08 4358.78C6102.18 4371.88 6120.67 4374.62 6130.39 4364.91C6131.09 4364.2 6131.74 4363.45 6132.31 4362.65C6148.07 4373.36 6166.8 4374.2 6177.44 4363.55C6182.57 4358.42 6185.04 4351.42 6185.01 4343.77C6186.17 4342.95 6187.27 4342.02 6188.3 4340.99C6199.78 4329.5 6198.45 4309.55 6185.31 4296.42C6172.18 4283.28 6152.23 4281.95 6140.74 4293.43C6140.27 4293.9 6139.83 4294.38 6139.4 4294.88C6130.43 4294.01 6122.06 4296.38 6116.16 4302.27C6112.93 4305.51 6110.75 4309.49 6109.59 4313.91C6107.83 4313.24 6106.07 4312.71 6104.32 4312.34C6109.72 4302.17 6108.99 4290.31 6101.59 4282.92C6092.16 4273.48 6075.44 4274.89 6064.26 4286.08C6053.07 4297.26 6051.66 4313.97 6061.1 4323.41Z" fill="black" fill-opacity="0.15"/>
<g id="Group 119_4">
<circle id="Ellipse 1_59" cx="6077.99" cy="4299.7" r="25.9855" fill="#6FA662"/>
<circle id="Ellipse 2_4" cx="6100.39" cy="4320.31" r="32.2578" fill="#6FA662"/>
<ellipse id="Ellipse 3_4" cx="6105.76" cy="4283.57" rx="28.6736" ry="29.5697" fill="#6FA662"/>
<circle id="Ellipse 4_4" cx="6139.81" cy="4318.52" r="28.6736" fill="#6FA662"/>
<circle id="Ellipse 5_4" cx="6140.71" cy="4287.15" r="25.9855" fill="#6FA662"/>
<circle id="Ellipse 6_4" cx="6163.11" cy="4307.76" r="25.0894" fill="#6FA662"/>
</g>
<rect id="Rectangle 2165_45" x="6052" y="4254" width="5" height="5" fill="#A4C424" fill-opacity="0.01"/>
</g>
<g id="bush1_5" clip-path="url(#clip39_2245_1284)">
<path id="Union_38" fill-rule="evenodd" clip-rule="evenodd" d="M2037.1 2631.41C2041.39 2635.71 2047.2 2637.76 2053.3 2637.66C2052.24 2646.97 2056.37 2658.07 2065.08 2666.78C2078.18 2679.88 2096.67 2682.62 2106.39 2672.91C2107.09 2672.2 2107.74 2671.45 2108.31 2670.65C2124.07 2681.36 2142.8 2682.2 2153.44 2671.55C2158.57 2666.42 2161.04 2659.42 2161.01 2651.77C2162.17 2650.95 2163.27 2650.02 2164.3 2648.99C2175.78 2637.5 2174.45 2617.55 2161.31 2604.42C2148.18 2591.28 2128.23 2589.95 2116.74 2601.43C2116.27 2601.9 2115.83 2602.38 2115.4 2602.88C2106.43 2602.01 2098.06 2604.38 2092.16 2610.27C2088.93 2613.51 2086.75 2617.49 2085.59 2621.91C2083.83 2621.24 2082.07 2620.71 2080.32 2620.34C2085.72 2610.17 2084.99 2598.31 2077.59 2590.92C2068.16 2581.48 2051.44 2582.89 2040.26 2594.08C2029.07 2605.26 2027.66 2621.97 2037.1 2631.41Z" fill="black" fill-opacity="0.15"/>
<g id="Group 119_5">
<circle id="Ellipse 1_60" cx="2053.99" cy="2607.7" r="25.9855" fill="#6FA662"/>
<circle id="Ellipse 2_5" cx="2076.39" cy="2628.31" r="32.2578" fill="#6FA662"/>
<ellipse id="Ellipse 3_5" cx="2081.76" cy="2591.57" rx="28.6736" ry="29.5697" fill="#6FA662"/>
<circle id="Ellipse 4_5" cx="2115.81" cy="2626.52" r="28.6736" fill="#6FA662"/>
<circle id="Ellipse 5_5" cx="2116.71" cy="2595.15" r="25.9855" fill="#6FA662"/>
<circle id="Ellipse 6_5" cx="2139.11" cy="2615.76" r="25.0894" fill="#6FA662"/>
</g>
<rect id="Rectangle 2165_46" x="2028" y="2562" width="5" height="5" fill="#A4C424" fill-opacity="0.01"/>
</g>
<g id="bush1_6" clip-path="url(#clip40_2245_1284)">
<path id="Union_39" fill-rule="evenodd" clip-rule="evenodd" d="M1681.1 1612.41C1685.39 1616.71 1691.2 1618.76 1697.3 1618.66C1696.24 1627.97 1700.37 1639.07 1709.08 1647.78C1722.18 1660.88 1740.67 1663.62 1750.39 1653.91C1751.09 1653.2 1751.74 1652.45 1752.31 1651.65C1768.07 1662.36 1786.8 1663.2 1797.44 1652.55C1802.57 1647.42 1805.04 1640.42 1805.01 1632.77C1806.17 1631.95 1807.27 1631.02 1808.3 1629.99C1819.78 1618.5 1818.45 1598.55 1805.31 1585.42C1792.18 1572.28 1772.23 1570.95 1760.74 1582.43C1760.27 1582.9 1759.83 1583.38 1759.4 1583.88C1750.43 1583.01 1742.06 1585.38 1736.16 1591.27C1732.93 1594.51 1730.75 1598.49 1729.59 1602.91C1727.83 1602.24 1726.07 1601.71 1724.32 1601.34C1729.72 1591.17 1728.99 1579.31 1721.59 1571.92C1712.16 1562.48 1695.44 1563.89 1684.26 1575.08C1673.07 1586.26 1671.66 1602.97 1681.1 1612.41Z" fill="black" fill-opacity="0.15"/>
<g id="Group 119_6">
<circle id="Ellipse 1_61" cx="1697.99" cy="1588.7" r="25.9855" fill="#6FA662"/>
<circle id="Ellipse 2_6" cx="1720.39" cy="1609.31" r="32.2578" fill="#6FA662"/>
<ellipse id="Ellipse 3_6" cx="1725.76" cy="1572.57" rx="28.6736" ry="29.5697" fill="#6FA662"/>
<circle id="Ellipse 4_6" cx="1759.81" cy="1607.52" r="28.6736" fill="#6FA662"/>
<circle id="Ellipse 5_6" cx="1760.71" cy="1576.15" r="25.9855" fill="#6FA662"/>
<circle id="Ellipse 6_6" cx="1783.11" cy="1596.76" r="25.0894" fill="#6FA662"/>
</g>
<rect id="Rectangle 2165_47" x="1672" y="1543" width="5" height="5" fill="#A4C424" fill-opacity="0.01"/>
</g>
<g id="bush1_7" clip-path="url(#clip41_2245_1284)">
<path id="Union_40" fill-rule="evenodd" clip-rule="evenodd" d="M2602.1 933.413C2606.39 937.708 2612.2 939.756 2618.3 939.658C2617.24 948.972 2621.37 960.068 2630.08 968.778C2643.18 981.878 2661.67 984.621 2671.39 974.906C2672.09 974.199 2672.74 973.445 2673.31 972.65C2689.07 983.36 2707.8 984.2 2718.44 973.554C2723.57 968.425 2726.04 961.418 2726.01 953.772C2727.17 952.947 2728.27 952.019 2729.3 950.987C2740.78 939.504 2739.45 919.549 2726.31 906.417C2713.18 893.284 2693.23 891.947 2681.74 903.43C2681.27 903.899 2680.83 904.383 2680.4 904.879C2671.43 904.006 2663.06 906.38 2657.16 912.273C2653.93 915.51 2651.75 919.493 2650.59 923.912C2648.83 923.236 2647.07 922.71 2645.32 922.336C2650.72 912.17 2649.99 900.311 2642.59 892.918C2633.16 883.479 2616.44 884.893 2605.26 896.075C2594.07 907.258 2592.66 923.974 2602.1 933.413Z" fill="black" fill-opacity="0.15"/>
<g id="Group 119_7">
<circle id="Ellipse 1_62" cx="2618.99" cy="909.699" r="25.9855" fill="#6FA662"/>
<circle id="Ellipse 2_7" cx="2641.39" cy="930.308" r="32.2578" fill="#6FA662"/>
<ellipse id="Ellipse 3_7" cx="2646.76" cy="893.57" rx="28.6736" ry="29.5697" fill="#6FA662"/>
<circle id="Ellipse 4_7" cx="2680.81" cy="928.516" r="28.6736" fill="#6FA662"/>
<circle id="Ellipse 5_7" cx="2681.71" cy="897.154" r="25.9855" fill="#6FA662"/>
<circle id="Ellipse 6_7" cx="2704.11" cy="917.763" r="25.0894" fill="#6FA662"/>
</g>
<rect id="Rectangle 2165_48" x="2593" y="864" width="5" height="5" fill="#A4C424" fill-opacity="0.01"/>
</g>
<g id="bush1_8" clip-path="url(#clip42_2245_1284)">
<path id="Union_41" fill-rule="evenodd" clip-rule="evenodd" d="M5031.1 3826.41C5035.4 3830.71 5041.2 3832.76 5047.3 3832.66C5046.24 3841.97 5050.37 3853.07 5059.08 3861.78C5072.18 3874.88 5090.67 3877.62 5100.39 3867.91C5101.09 3867.2 5101.74 3866.45 5102.31 3865.65C5118.07 3876.36 5136.8 3877.2 5147.44 3866.55C5152.57 3861.42 5155.04 3854.42 5155.01 3846.77C5156.17 3845.95 5157.27 3845.02 5158.3 3843.99C5169.78 3832.5 5168.45 3812.55 5155.31 3799.42C5142.18 3786.28 5122.23 3784.95 5110.74 3796.43C5110.27 3796.9 5109.83 3797.38 5109.4 3797.88C5100.43 3797.01 5092.06 3799.38 5086.16 3805.27C5082.93 3808.51 5080.75 3812.49 5079.59 3816.91C5077.83 3816.24 5076.07 3815.71 5074.32 3815.34C5079.72 3805.17 5078.99 3793.31 5071.59 3785.92C5062.16 3776.48 5045.44 3777.89 5034.26 3789.08C5023.07 3800.26 5021.66 3816.97 5031.1 3826.41Z" fill="black" fill-opacity="0.15"/>
<g id="Group 119_8">
<circle id="Ellipse 1_63" cx="5047.99" cy="3802.7" r="25.9855" fill="#6FA662"/>
<circle id="Ellipse 2_8" cx="5070.39" cy="3823.31" r="32.2578" fill="#6FA662"/>
<ellipse id="Ellipse 3_8" cx="5075.76" cy="3786.57" rx="28.6736" ry="29.5697" fill="#6FA662"/>
<circle id="Ellipse 4_8" cx="5109.81" cy="3821.52" r="28.6736" fill="#6FA662"/>
<circle id="Ellipse 5_8" cx="5110.71" cy="3790.15" r="25.9855" fill="#6FA662"/>
<circle id="Ellipse 6_8" cx="5133.11" cy="3810.76" r="25.0894" fill="#6FA662"/>
</g>
<rect id="Rectangle 2165_49" x="5022" y="3757" width="5" height="5" fill="#A4C424" fill-opacity="0.01"/>
</g>
<g id="barrel">
<g id="Ellipse 9" filter="url(#filter0_d_2245_1284)">
<circle cx="2699" cy="1408" r="35" fill="#A5586E"/>
</g>
<circle id="Ellipse 10" cx="2710.5" cy="1419.5" r="8.5" fill="#803A4E"/>
<rect id="Rectangle 2165_50" x="2664" y="1373" width="5" height="5" fill="#A4C424" fill-opacity="0.01"/>
</g>
<g id="barrel_2">
<g id="Ellipse 9_2" filter="url(#filter1_d_2245_1284)">
<circle cx="2485" cy="3012" r="35" fill="#A5586E"/>
</g>
<circle id="Ellipse 10_2" cx="2496.5" cy="3023.5" r="8.5" fill="#803A4E"/>
<rect id="Rectangle 2165_51" x="2450" y="2977" width="5" height="5" fill="#A4C424" fill-opacity="0.01"/>
</g>
<g id="barrel_3">
<g id="Ellipse 9_3" filter="url(#filter2_d_2245_1284)">
<circle cx="3734" cy="3733" r="35" fill="#A5586E"/>
</g>
<circle id="Ellipse 10_3" cx="3745.5" cy="3744.5" r="8.5" fill="#803A4E"/>
<rect id="Rectangle 2165_52" x="3699" y="3698" width="5" height="5" fill="#A4C424" fill-opacity="0.01"/>
</g>
<g id="barrel_4">
<g id="Ellipse 9_4" filter="url(#filter3_d_2245_1284)">
<circle cx="5672" cy="2696" r="35" fill="#A5586E"/>
</g>
<circle id="Ellipse 10_4" cx="5683.5" cy="2707.5" r="8.5" fill="#803A4E"/>
<rect id="Rectangle 2165_53" x="5637" y="2661" width="5" height="5" fill="#A4C424" fill-opacity="0.01"/>
</g>
<g id="barrel_5">
<g id="Ellipse 9_5" filter="url(#filter4_d_2245_1284)">
<circle cx="4331" cy="1695" r="35" fill="#A5586E"/>
</g>
<circle id="Ellipse 10_5" cx="4342.5" cy="1706.5" r="8.5" fill="#803A4E"/>
<rect id="Rectangle 2165_54" x="4296" y="1660" width="5" height="5" fill="#A4C424" fill-opacity="0.01"/>
</g>
<g id="barrel_6">
<g id="Ellipse 9_6" filter="url(#filter5_d_2245_1284)">
<circle cx="1817" cy="2373" r="35" fill="#A5586E"/>
</g>
<circle id="Ellipse 10_6" cx="1828.5" cy="2384.5" r="8.5" fill="#803A4E"/>
<rect id="Rectangle 2165_55" x="1782" y="2338" width="5" height="5" fill="#A4C424" fill-opacity="0.01"/>
</g>
<g id="barrel_7">
<g id="Ellipse 9_7" filter="url(#filter6_d_2245_1284)">
<circle cx="4072" cy="2559" r="35" fill="#A5586E"/>
</g>
<circle id="Ellipse 10_7" cx="4083.5" cy="2570.5" r="8.5" fill="#803A4E"/>
<rect id="Rectangle 2165_56" x="4037" y="2524" width="5" height="5" fill="#A4C424" fill-opacity="0.01"/>
</g>
<g id="barrel_8">
<g id="Ellipse 9_8" filter="url(#filter7_d_2245_1284)">
<circle cx="5449" cy="4189" r="35" fill="#A5586E"/>
</g>
<circle id="Ellipse 10_8" cx="5460.5" cy="4200.5" r="8.5" fill="#803A4E"/>
<rect id="Rectangle 2165_57" x="5414" y="4154" width="5" height="5" fill="#A4C424" fill-opacity="0.01"/>
</g>
<g id="stone5">
<path id="Rectangle 2189_5" d="M4165.98 4191.09C4152.05 4177.16 4156.48 4153.59 4174.51 4145.66L4269.72 4103.81C4280.28 4099.16 4292.62 4101.48 4300.78 4109.64L4329 4137.86C4332.31 4141.17 4334.73 4145.24 4336.05 4149.72L4349.42 4194.91C4352.72 4206.07 4348.78 4218.11 4339.51 4225.15L4310.54 4247.15C4305.46 4251.01 4299.22 4253.02 4292.84 4252.85L4237.06 4251.33C4229.9 4251.13 4223.09 4248.2 4218.02 4243.14L4165.98 4191.09Z" fill="black" fill-opacity="0.15"/>
<path id="Vector 1152_4" d="M4146.79 4116.96L4170.25 4073.89C4185.03 4046.74 4220.67 4039.37 4245 4058.45L4287.72 4091.93C4301.27 4102.55 4308.4 4119.4 4306.6 4136.53L4304.26 4158.67C4301.36 4186.17 4276.68 4206.1 4249.18 4203.13L4207.53 4198.65C4203.53 4198.22 4199.59 4197.3 4195.8 4195.93L4173.62 4187.86C4144.87 4177.41 4132.16 4143.82 4146.79 4116.96Z" fill="#BB816E"/>
<path id="Vector 1153_4" d="M4188.27 4121.91L4192.65 4109.5C4199 4091.49 4220.35 4083.92 4236.63 4093.91L4256.24 4105.95C4268.56 4113.51 4273.73 4128.79 4268.54 4142.29L4267.87 4144.03C4263.18 4156.22 4251.15 4163.98 4238.11 4163.21L4214.8 4161.84C4194.87 4160.67 4181.62 4140.73 4188.27 4121.91Z" fill="#9A6A5A"/>
<rect id="mapHelper_11" x="4139" y="4046" width="5" height="5" fill="#A4C424" fill-opacity="0.01"/>
</g>
<g id="stone6">
<path id="Rectangle 2189_6" d="M2491.27 1549.85C2478.14 1536.73 2481.19 1514.7 2497.38 1505.62L2617.23 1438.49C2626.05 1433.55 2636.84 1433.75 2645.47 1439L2694.37 1468.76C2701.1 1472.85 2705.79 1479.59 2707.3 1487.31L2717.75 1540.88C2719.75 1551.1 2715.91 1561.58 2707.78 1568.09L2659.71 1606.62C2655.34 1610.13 2650.01 1612.24 2644.43 1612.68L2573.65 1618.32C2565.47 1618.98 2557.42 1616.01 2551.62 1610.21L2491.27 1549.85Z" fill="black" fill-opacity="0.15"/>
<path id="Vector 1152_5" d="M2469.58 1468.59L2514.03 1407.65C2529.5 1386.44 2558.74 1380.81 2580.99 1394.76L2636.04 1429.28C2665.57 1447.79 2667.57 1490.08 2639.92 1511.31L2575.06 1561.09C2558 1574.18 2534.48 1574.9 2516.66 1562.87L2482.01 1539.51C2458.52 1523.66 2452.88 1491.48 2469.58 1468.59Z" fill="#BB816E"/>
<path id="Vector 1153_5" d="M2585.54 1504.3L2593.79 1483.75C2603.64 1459.23 2579.27 1434.88 2554.76 1444.74L2531.52 1454.08C2509.81 1462.82 2506.01 1491.94 2524.76 1505.95L2539.75 1517.15C2555.53 1528.94 2578.2 1522.58 2585.54 1504.3Z" fill="#9A6A5A"/>
<rect id="mapHelper_12" x="2457" y="1384" width="5" height="5" fill="#A4C424" fill-opacity="0.01"/>
</g>
<g id="stone3">
<path id="Rectangle 2189_7" d="M5905.55 4760.04C5894.62 4749.1 5894.62 4731.37 5905.55 4720.44L5939.09 4686.9C5950.02 4675.97 5967.75 4675.97 5978.68 4686.9L5999.9 4708.12C6007.07 4715.28 6009.8 4725.75 6007.06 4735.5L5999.69 4761.68C5997.05 4771.07 5989.71 4778.4 5980.32 4781.05L5954.15 4788.41C5944.4 4791.15 5933.93 4788.42 5926.77 4781.26L5905.55 4760.04Z" fill="black" fill-opacity="0.15"/>
<path id="Rectangle293_4" d="M5880.38 4703.23L5885.01 4689.66C5891.56 4670.47 5911.44 4659.21 5931.27 4663.47L5953.27 4668.2C5978.76 4673.68 5992.28 4701.68 5980.72 4725.05L5972.75 4741.16C5963.55 4759.75 5941.68 4768.22 5922.37 4760.69L5903.71 4753.42C5883.74 4745.64 5873.46 4723.51 5880.38 4703.23Z" fill="#BB816E"/>
<rect id="mapHelper_13" x="5877" y="4662" width="5" height="5" fill="#A4C424" fill-opacity="0.01"/>
</g>
<g id="stone2">
<path id="Rectangle 2188_3" d="M5834.34 1390.12C5823.4 1379.19 5823.4 1361.46 5834.34 1350.52L5872.52 1312.34C5883.46 1301.4 5901.19 1301.4 5912.12 1312.34L5929.25 1329.47C5935.83 1336.05 5938.71 1345.48 5936.93 1354.62L5930.7 1386.58C5928.52 1397.77 5919.77 1406.52 5908.58 1408.7L5876.62 1414.93C5867.48 1416.71 5858.05 1413.83 5851.47 1407.25L5834.34 1390.12Z" fill="black" fill-opacity="0.15"/>
<path id="Rectangle293_5" d="M5832.23 1303.83L5864.11 1294.11C5895.53 1284.55 5924.45 1314.81 5913.47 1345.76L5902.93 1375.45C5893.29 1402.61 5858.95 1410.97 5837.9 1391.27L5816.55 1371.3C5794.08 1350.27 5802.78 1312.8 5832.23 1303.83Z" fill="#BB816E"/>
<rect id="mapHelper_14" x="5803" y="1293" width="5" height="5" fill="#A4C424" fill-opacity="0.01"/>
</g>
<g id="stone2_2">
<path id="Rectangle 2188_4" d="M3724.34 1078.12C3713.4 1067.19 3713.4 1049.46 3724.34 1038.52L3762.52 1000.34C3773.46 989.405 3791.19 989.405 3802.12 1000.34L3819.25 1017.47C3825.83 1024.05 3828.71 1033.48 3826.93 1042.62L3820.7 1074.58C3818.52 1085.77 3809.77 1094.52 3798.58 1096.7L3766.62 1102.93C3757.48 1104.71 3748.05 1101.83 3741.47 1095.25L3724.34 1078.12Z" fill="black" fill-opacity="0.15"/>
<path id="Rectangle293_6" d="M3722.23 991.827L3754.11 982.115C3785.53 972.547 3814.45 1002.81 3803.47 1033.76L3792.93 1063.45C3783.29 1090.61 3748.95 1098.97 3727.9 1079.27L3706.55 1059.3C3684.08 1038.27 3692.78 1000.8 3722.23 991.827Z" fill="#BB816E"/>
<rect id="mapHelper_15" x="3693" y="981" width="5" height="5" fill="#A4C424" fill-opacity="0.01"/>
</g>
</g>
<g id="exit:side=top">
<rect id="rect" x="3433" y="-5" width="410" height="10" fill="white" fill-opacity="0.2"/>
</g>
<g id="exit:side=bottom">
<rect id="rect_2" x="5074" y="5620" width="410" height="10" fill="white" fill-opacity="0.2"/>
</g>
</g>
<defs>
<filter id="filter0_d_2245_1284" x="2664" y="1373" width="82" height="82" filterUnits="userSpaceOnUse" color-interpolation-filters="sRGB">
<feFlood flood-opacity="0" result="BackgroundImageFix"/>
<feColorMatrix in="SourceAlpha" type="matrix" values="0 0 0 0 0 0 0 0 0 0 0 0 0 0 0 0 0 0 127 0" result="hardAlpha"/>
<feOffset dx="12" dy="12"/>
<feComposite in2="hardAlpha" operator="out"/>
<feColorMatrix type="matrix" values="0 0 0 0 0 0 0 0 0 0 0 0 0 0 0 0 0 0 0.15 0"/>
<feBlend mode="normal" in2="BackgroundImageFix" result="effect1_dropShadow_2245_1284"/>
<feBlend mode="normal" in="SourceGraphic" in2="effect1_dropShadow_2245_1284" result="shape"/>
</filter>
<filter id="filter1_d_2245_1284" x="2450" y="2977" width="82" height="82" filterUnits="userSpaceOnUse" color-interpolation-filters="sRGB">
<feFlood flood-opacity="0" result="BackgroundImageFix"/>
<feColorMatrix in="SourceAlpha" type="matrix" values="0 0 0 0 0 0 0 0 0 0 0 0 0 0 0 0 0 0 127 0" result="hardAlpha"/>
<feOffset dx="12" dy="12"/>
<feComposite in2="hardAlpha" operator="out"/>
<feColorMatrix type="matrix" values="0 0 0 0 0 0 0 0 0 0 0 0 0 0 0 0 0 0 0.15 0"/>
<feBlend mode="normal" in2="BackgroundImageFix" result="effect1_dropShadow_2245_1284"/>
<feBlend mode="normal" in="SourceGraphic" in2="effect1_dropShadow_2245_1284" result="shape"/>
</filter>
<filter id="filter2_d_2245_1284" x="3699" y="3698" width="82" height="82" filterUnits="userSpaceOnUse" color-interpolation-filters="sRGB">
<feFlood flood-opacity="0" result="BackgroundImageFix"/>
<feColorMatrix in="SourceAlpha" type="matrix" values="0 0 0 0 0 0 0 0 0 0 0 0 0 0 0 0 0 0 127 0" result="hardAlpha"/>
<feOffset dx="12" dy="12"/>
<feComposite in2="hardAlpha" operator="out"/>
<feColorMatrix type="matrix" values="0 0 0 0 0 0 0 0 0 0 0 0 0 0 0 0 0 0 0.15 0"/>
<feBlend mode="normal" in2="BackgroundImageFix" result="effect1_dropShadow_2245_1284"/>
<feBlend mode="normal" in="SourceGraphic" in2="effect1_dropShadow_2245_1284" result="shape"/>
</filter>
<filter id="filter3_d_2245_1284" x="5637" y="2661" width="82" height="82" filterUnits="userSpaceOnUse" color-interpolation-filters="sRGB">
<feFlood flood-opacity="0" result="BackgroundImageFix"/>
<feColorMatrix in="SourceAlpha" type="matrix" values="0 0 0 0 0 0 0 0 0 0 0 0 0 0 0 0 0 0 127 0" result="hardAlpha"/>
<feOffset dx="12" dy="12"/>
<feComposite in2="hardAlpha" operator="out"/>
<feColorMatrix type="matrix" values="0 0 0 0 0 0 0 0 0 0 0 0 0 0 0 0 0 0 0.15 0"/>
<feBlend mode="normal" in2="BackgroundImageFix" result="effect1_dropShadow_2245_1284"/>
<feBlend mode="normal" in="SourceGraphic" in2="effect1_dropShadow_2245_1284" result="shape"/>
</filter>
<filter id="filter4_d_2245_1284" x="4296" y="1660" width="82" height="82" filterUnits="userSpaceOnUse" color-interpolation-filters="sRGB">
<feFlood flood-opacity="0" result="BackgroundImageFix"/>
<feColorMatrix in="SourceAlpha" type="matrix" values="0 0 0 0 0 0 0 0 0 0 0 0 0 0 0 0 0 0 127 0" result="hardAlpha"/>
<feOffset dx="12" dy="12"/>
<feComposite in2="hardAlpha" operator="out"/>
<feColorMatrix type="matrix" values="0 0 0 0 0 0 0 0 0 0 0 0 0 0 0 0 0 0 0.15 0"/>
<feBlend mode="normal" in2="BackgroundImageFix" result="effect1_dropShadow_2245_1284"/>
<feBlend mode="normal" in="SourceGraphic" in2="effect1_dropShadow_2245_1284" result="shape"/>
</filter>
<filter id="filter5_d_2245_1284" x="1782" y="2338" width="82" height="82" filterUnits="userSpaceOnUse" color-interpolation-filters="sRGB">
<feFlood flood-opacity="0" result="BackgroundImageFix"/>
<feColorMatrix in="SourceAlpha" type="matrix" values="0 0 0 0 0 0 0 0 0 0 0 0 0 0 0 0 0 0 127 0" result="hardAlpha"/>
<feOffset dx="12" dy="12"/>
<feComposite in2="hardAlpha" operator="out"/>
<feColorMatrix type="matrix" values="0 0 0 0 0 0 0 0 0 0 0 0 0 0 0 0 0 0 0.15 0"/>
<feBlend mode="normal" in2="BackgroundImageFix" result="effect1_dropShadow_2245_1284"/>
<feBlend mode="normal" in="SourceGraphic" in2="effect1_dropShadow_2245_1284" result="shape"/>
</filter>
<filter id="filter6_d_2245_1284" x="4037" y="2524" width="82" height="82" filterUnits="userSpaceOnUse" color-interpolation-filters="sRGB">
<feFlood flood-opacity="0" result="BackgroundImageFix"/>
<feColorMatrix in="SourceAlpha" type="matrix" values="0 0 0 0 0 0 0 0 0 0 0 0 0 0 0 0 0 0 127 0" result="hardAlpha"/>
<feOffset dx="12" dy="12"/>
<feComposite in2="hardAlpha" operator="out"/>
<feColorMatrix type="matrix" values="0 0 0 0 0 0 0 0 0 0 0 0 0 0 0 0 0 0 0.15 0"/>
<feBlend mode="normal" in2="BackgroundImageFix" result="effect1_dropShadow_2245_1284"/>
<feBlend mode="normal" in="SourceGraphic" in2="effect1_dropShadow_2245_1284" result="shape"/>
</filter>
<filter id="filter7_d_2245_1284" x="5414" y="4154" width="82" height="82" filterUnits="userSpaceOnUse" color-interpolation-filters="sRGB">
<feFlood flood-opacity="0" result="BackgroundImageFix"/>
<feColorMatrix in="SourceAlpha" type="matrix" values="0 0 0 0 0 0 0 0 0 0 0 0 0 0 0 0 0 0 127 0" result="hardAlpha"/>
<feOffset dx="12" dy="12"/>
<feComposite in2="hardAlpha" operator="out"/>
<feColorMatrix type="matrix" values="0 0 0 0 0 0 0 0 0 0 0 0 0 0 0 0 0 0 0.15 0"/>
<feBlend mode="normal" in2="BackgroundImageFix" result="effect1_dropShadow_2245_1284"/>
<feBlend mode="normal" in="SourceGraphic" in2="effect1_dropShadow_2245_1284" result="shape"/>
</filter>
<clipPath id="clip0_2245_1284">
<rect width="7462" height="5625" fill="white"/>
</clipPath>
<clipPath id="clip1_2245_1284">
<rect width="100" height="60" fill="white" transform="translate(5254 5469) rotate(-90)"/>
</clipPath>
<clipPath id="clip2_2245_1284">
<rect width="311" height="326" fill="white" transform="translate(5173 2896)"/>
</clipPath>
<clipPath id="clip3_2245_1284">
<rect width="311" height="326" fill="white" transform="translate(1250 2692)"/>
</clipPath>
<clipPath id="clip4_2245_1284">
<rect width="311" height="326" fill="white" transform="translate(3742 2436)"/>
</clipPath>
<clipPath id="clip5_2245_1284">
<rect width="144" height="120" fill="white" transform="translate(4904 4350)"/>
</clipPath>
<clipPath id="clip6_2245_1284">
<rect width="311" height="326" fill="white" transform="translate(4505 4254)"/>
</clipPath>
<clipPath id="clip7_2245_1284">
<rect width="297" height="206" fill="white" transform="translate(5239 981)"/>
</clipPath>
<clipPath id="clip8_2245_1284">
<rect width="297" height="206" fill="white" transform="translate(5675 3601)"/>
</clipPath>
<clipPath id="clip9_2245_1284">
<rect width="297" height="206" fill="white" transform="translate(2934 3539)"/>
</clipPath>
<clipPath id="clip10_2245_1284">
<rect width="168" height="176" fill="white" transform="translate(1295 2500)"/>
</clipPath>
<clipPath id="clip11_2245_1284">
<rect width="168" height="176" fill="white" transform="translate(1852 2432)"/>
</clipPath>
<clipPath id="clip12_2245_1284">
<rect width="168" height="176" fill="white" transform="translate(2574 3032)"/>
</clipPath>
<clipPath id="clip13_2245_1284">
<rect width="168" height="176" fill="white" transform="translate(3856 3091)"/>
</clipPath>
<clipPath id="clip14_2245_1284">
<rect width="168" height="176" fill="white" transform="translate(4377 2850)"/>
</clipPath>
<clipPath id="clip15_2245_1284">
<rect width="168" height="176" fill="white" transform="translate(5461 2813)"/>
</clipPath>
<clipPath id="clip16_2245_1284">
<rect width="168" height="176" fill="white" transform="translate(6112 3601)"/>
</clipPath>
<clipPath id="clip17_2245_1284">
<rect width="168" height="176" fill="white" transform="translate(4883 5032)"/>
</clipPath>
<clipPath id="clip18_2245_1284">
<rect width="168" height="176" fill="white" transform="translate(5036 4540)"/>
</clipPath>
<clipPath id="clip19_2245_1284">
<rect width="168" height="176" fill="white" transform="translate(4300 4214)"/>
</clipPath>
<clipPath id="clip20_2245_1284">
<rect width="168" height="176" fill="white" transform="translate(4625 1494)"/>
</clipPath>
<clipPath id="clip21_2245_1284">
<rect width="168" height="176" fill="white" transform="translate(4834 945)"/>
</clipPath>
<clipPath id="clip22_2245_1284">
<rect width="168" height="176" fill="white" transform="translate(2827 834)"/>
</clipPath>
<clipPath id="clip23_2245_1284">
<rect width="168" height="176" fill="white" transform="translate(1677 1272)"/>
</clipPath>
<clipPath id="clip24_2245_1284">
<rect width="177" height="180" fill="white" transform="translate(1837 2158)"/>
</clipPath>
<clipPath id="clip25_2245_1284">
<rect width="177" height="180" fill="white" transform="translate(4656 4683)"/>
</clipPath>
<clipPath id="clip26_2245_1284">
<rect width="177" height="180" fill="white" transform="translate(5566 4945)"/>
</clipPath>
<clipPath id="clip27_2245_1284">
<rect width="177" height="180" fill="white" transform="translate(3279 3508)"/>
</clipPath>
<clipPath id="clip28_2245_1284">
<rect width="149" height="134" fill="white" transform="translate(3495 3531)"/>
</clipPath>
<clipPath id="clip29_2245_1284">
<rect width="149" height="134" fill="white" transform="translate(3756 2268)"/>
</clipPath>
<clipPath id="clip30_2245_1284">
<rect width="149" height="134" fill="white" transform="translate(5126 3658)"/>
</clipPath>
<clipPath id="clip31_2245_1284">
<rect width="149" height="134" fill="white" transform="translate(5031 847)"/>
</clipPath>
<clipPath id="clip32_2245_1284">
<rect width="149" height="134" fill="white" transform="translate(1528 1138)"/>
</clipPath>
<clipPath id="clip33_2245_1284">
<rect width="149" height="134" fill="white" transform="translate(5923 3842)"/>
</clipPath>
<clipPath id="clip34_2245_1284">
<rect width="149" height="134" fill="white" transform="translate(4950 4773)"/>
</clipPath>
<clipPath id="clip35_2245_1284">
<rect width="149" height="134" fill="white" transform="translate(3160 660)"/>
</clipPath>
<clipPath id="clip36_2245_1284">
<rect width="144" height="120" fill="white" transform="translate(3230 1330)"/>
</clipPath>
<clipPath id="clip37_2245_1284">
<rect width="144" height="120" fill="white" transform="translate(4042 2952)"/>
</clipPath>
<clipPath id="clip38_2245_1284">
<rect width="144" height="120" fill="white" transform="translate(6052 4254)"/>
</clipPath>
<clipPath id="clip39_2245_1284">
<rect width="144" height="120" fill="white" transform="translate(2028 2562)"/>
</clipPath>
<clipPath id="clip40_2245_1284">
<rect width="144" height="120" fill="white" transform="translate(1672 1543)"/>
</clipPath>
<clipPath id="clip41_2245_1284">
<rect width="144" height="120" fill="white" transform="translate(2593 864)"/>
</clipPath>
<clipPath id="clip42_2245_1284">
<rect width="144" height="120" fill="white" transform="translate(5022 3757)"/>
</clipPath>
</defs>
</svg>
