<svg width="8192" height="7363" viewBox="0 0 8192 7363" fill="none" xmlns="http://www.w3.org/2000/svg">
<g id="walls" clip-path="url(#clip0_2245_1271)">
<rect id="exitDarkness" x="3542" y="942" width="780" height="303" fill="url(#paint0_linear_2245_1271)"/>
<rect id="exitDarkness_2" width="780" height="303" transform="matrix(1 0 0 -1 5182 6495)" fill="url(#paint1_linear_2245_1271)"/>
<g id="Group 127">
<path id="shadow" fill-rule="evenodd" clip-rule="evenodd" d="M4265.51 421.482C4259.85 420.496 4254.11 420 4248.36 420H2472.1C2452.78 420 2433.88 425.595 2417.67 436.109L1246.79 1195.77C1229.98 1206.67 1216.84 1222.37 1209.06 1240.83L272.477 3463.4C261.947 3488.39 262.016 3516.58 272.669 3541.52L1101.53 5481.68C1107.11 5494.74 1115.41 5506.47 1125.88 5516.07L1968.46 6289.25C1974.8 6295.06 1981.85 6300.03 1989.45 6304.03L3346 7019.05C3350.99 7021.68 3356.19 7023.88 3361.55 7025.63L4902.61 7529.48C4913.78 7533.13 4925.51 7534.79 4937.26 7534.37L6808.14 7467.51C6835.22 7466.55 6860.74 7454.64 6878.87 7434.51L7710.56 6511.31C7715.84 6505.46 7720.4 6499 7724.16 6492.08L8423.8 5202.81C8431.75 5188.17 8435.91 5171.77 8435.91 5155.12V4098.5L8236.93 2102.89C8234.71 2080.61 8225.07 2059.72 8209.57 2043.57L7099.93 887.433C7084.43 871.28 7063.95 860.797 7041.78 857.663L5601 654L4265.51 421.482ZM4421.23 1594.48C4443.09 1566.66 4448.62 1529.36 4435.78 1496.39L4381.34 1356.66C4375.92 1342.76 4367.24 1330.36 4356.02 1320.52L4331.6 1299.09C4316.83 1286.13 4295.53 1283.81 4278.32 1293.27C4264.96 1300.62 4248.85 1300.98 4235.18 1294.23L4219.13 1286.32C4195.81 1274.81 4168.39 1275.21 4145.41 1287.37L4119.74 1300.96C4105.42 1308.54 4088.37 1308.97 4073.69 1302.11C4055.31 1293.52 4033.6 1296.48 4018.2 1309.69L4001.27 1324.2C3983.52 1339.41 3972.71 1361.18 3971.32 1384.51L3968.61 1429.81C3967.24 1452.58 3958.13 1474.21 3942.79 1491.09L3881 1559.09L3601.26 1830.78C3588.96 1842.73 3573.8 1851.31 3557.23 1855.7L2755 2068.5L1986.11 2195.53C1936.13 2203.78 1900.22 2248.1 1902.51 2298.71L1931.96 2949.99C1932.32 2957.97 1931.72 2965.96 1930.18 2973.8L1731.43 3984.78C1717.54 4055.46 1780.67 4117.2 1851.03 4101.74L2280.27 4007.37C2312.63 4000.26 2346.41 4009.63 2370.47 4032.41L2575.42 4226.35C2580.79 4231.44 2585.58 4237.1 2589.7 4243.24L3009.39 4868.2C3029.8 4898.59 3065.18 4915.4 3101.63 4912.03L4135.22 4816.33C4164.85 4813.59 4194.17 4824.19 4215.2 4845.25L4859.48 5490.46C4866.78 5497.78 4872.91 5506.18 4877.64 5515.37L5117.64 5981.81C5123.82 5993.81 5132.36 6004.44 5142.75 6013.05L5255.5 6106.5L5503.21 6346.91C5507.73 6351.29 5511.82 6356.09 5515.43 6361.24L5572.11 6442.05C5577.68 6449.97 5582.06 6458.67 5585.12 6467.85L5605.74 6529.73C5611.47 6546.92 5621.77 6562.23 5635.53 6574.02L5659.2 6594.31C5674.6 6607.52 5696.31 6610.48 5714.69 6601.89C5729.37 6595.03 5746.42 6595.46 5760.74 6603.04L5786.41 6616.63C5809.39 6628.79 5836.81 6629.19 5860.13 6617.68L5876.18 6609.77C5889.85 6603.02 5905.96 6603.38 5919.32 6610.73C5936.54 6620.19 5957.83 6617.87 5972.6 6604.91L5997.77 6582.83C6008.51 6573.4 6016.97 6561.65 6022.52 6548.48L6076.29 6420.66C6080.41 6410.89 6086.04 6401.84 6093 6393.84L6205 6265L6711.15 5765.13C6722.87 5753.56 6731.55 5739.27 6736.41 5723.53L6966.02 4981.22C6973.7 4956.39 6971.42 4929.54 6959.64 4906.37L6634.14 4265.77C6623.7 4245.22 6620.68 4221.7 6625.59 4199.18L6790.03 3444.45C6796.06 3416.79 6790.08 3387.87 6773.58 3364.87L6547.56 3049.79C6526.79 3020.83 6523 2982.99 6537.62 2950.48L6693.54 2603.85C6713.9 2558.57 6697.96 2505.21 6656.11 2478.51L5779.24 1919.3C5753.22 1902.71 5720.99 1899.06 5691.92 1909.41L5086.92 2124.86C5077.36 2128.27 5068.38 2133.11 5060.28 2139.22L4626.06 2466.53C4582.86 2499.1 4521.61 2491.41 4487.8 2449.18L4276.29 2184.98C4269.15 2176.06 4263.59 2165.98 4259.85 2155.18L4192.34 1960.07C4181.22 1927.93 4187.2 1892.34 4208.21 1865.59L4421.23 1594.48ZM6142.51 3389.22L5713.6 3662.81C5697.54 3673.06 5678.88 3678.5 5659.82 3678.5H5297.42C5270.9 3678.5 5245.46 3667.96 5226.71 3649.21L4925.08 3347.58C4914.82 3337.32 4906.91 3324.94 4901.91 3311.31L4768.18 2946.72C4747.94 2891.54 4779.41 2830.89 4836.18 2815.69L5737.67 2574.15C5770.59 2565.33 5805.73 2573.89 5830.92 2596.85L6087.6 2830.85C6104.06 2845.85 6115.04 2865.92 6118.8 2887.88L6187.29 3288.04C6194.08 3327.7 6176.44 3367.57 6142.51 3389.22ZM5839.17 4544.82L5480.58 4196.88C5465.26 4182.02 5445.59 4172.45 5424.44 4169.57L4608.11 4058.44C4546.83 4050.1 4492.75 4098.82 4494.67 4160.64L4502.34 4407.12C4503.09 4431.22 4512.52 4454.25 4528.91 4471.95L4786.71 4750.4C4797.42 4761.97 4810.71 4770.84 4825.5 4776.29L5444.97 5004.68C5481.82 5018.27 5523.21 5009.02 5550.79 4981.05L5840.76 4686.78C5879.74 4647.23 5879.03 4583.49 5839.17 4544.82ZM3700.49 2568.33L3372.03 2664.99C3366.36 2666.66 3360.84 2668.83 3355.54 2671.48L2854.61 2921.95C2832.04 2933.23 2814.57 2952.63 2805.71 2976.25L2613.56 3488.22C2600.07 3524.16 2608.35 3564.65 2634.85 3592.41L3187.66 4171.46C3210.13 4194.99 3242.65 4206.13 3274.83 4201.29L3875.45 4111.14C3893.47 4108.43 3910.41 4100.85 3924.44 4089.22L4206.55 3855.28C4222.46 3842.08 4233.89 3824.29 4239.27 3804.33L4423.48 3121.08C4433.04 3085.61 4422.38 3047.75 4395.72 3022.47L4113.78 2755.24C4106.96 2748.78 4099.27 2743.31 4090.92 2738.99L3774.66 2575.44C3751.77 2563.61 3725.21 2561.06 3700.49 2568.33Z" fill="black" fill-opacity="0.15"/>
<path id="rock" fill-rule="evenodd" clip-rule="evenodd" d="M3998.36 170C4004.11 170 4009.85 170.496 4015.51 171.482L5351 404L6791.78 607.663C6813.95 610.797 6834.43 621.28 6849.93 637.433L7959.57 1793.57C7975.07 1809.72 7984.71 1830.61 7986.93 1852.89L8185.91 3848.5V4905.12C8185.91 4921.77 8181.75 4938.17 8173.8 4952.81L7474.16 6242.08C7470.4 6249 7465.84 6255.46 7460.56 6261.31L6628.87 7184.51C6610.74 7204.64 6585.22 7216.55 6558.14 7217.51L4687.26 7284.37C4675.51 7284.79 4663.78 7283.13 4652.61 7279.48L3111.55 6775.63C3106.19 6773.88 3100.99 6771.68 3096 6769.05L1739.45 6054.03C1731.85 6050.03 1724.8 6045.06 1718.46 6039.25L875.881 5266.07C865.414 5256.47 857.113 5244.74 851.532 5231.68L22.6693 3291.52C12.0161 3266.58 11.9466 3238.39 22.4768 3213.4L959.063 990.827C966.841 972.369 979.984 956.671 996.788 945.769L2167.67 186.109C2183.88 175.595 2202.78 170 2222.1 170H3998.36ZM4201.62 1287.07C4204.86 1295.38 4206.97 1304.08 4207.9 1312.95L4240.15 1620.59C4241.7 1635.34 4239.94 1650.26 4235.01 1664.26L4162.98 1868.58C4154.94 1891.42 4155.44 1916.39 4164.41 1938.88L4249.98 2153.38C4274.42 2214.63 4350.4 2235.87 4403.06 2196.18L4810.28 1889.22C4818.38 1883.11 4827.36 1878.27 4836.92 1874.86L5441.92 1659.41C5470.99 1649.06 5503.22 1652.71 5529.24 1669.3L6414.5 2233.87C6452.57 2258.14 6469.65 2304.92 6456.17 2348.02L6316.56 2794.62C6306.53 2826.7 6313.29 2861.67 6334.54 2887.7L6518.98 3113.62C6538.26 3137.24 6545.72 3168.36 6539.23 3198.15L6375.59 3949.18C6370.68 3971.7 6373.7 3995.22 6384.14 4015.77L6709.64 4656.37C6721.42 4679.54 6723.7 4706.39 6716.02 4731.22L6486.41 5473.53C6481.55 5489.27 6472.87 5503.56 6461.15 5515.13L5955 6015L5843 6143.84C5836.04 6151.84 5830.41 6160.89 5826.29 6170.66L5772.52 6298.48C5766.97 6311.65 5758.51 6323.4 5747.77 6332.83L5722.6 6354.91C5707.83 6367.87 5686.54 6370.19 5669.32 6360.73V6360.73C5655.96 6353.38 5639.85 6353.02 5626.18 6359.77L5610.13 6367.68C5586.81 6379.19 5559.39 6378.79 5536.41 6366.63L5510.74 6353.04C5496.42 6345.46 5479.37 6345.03 5464.69 6351.89V6351.89C5446.31 6360.48 5424.6 6357.52 5409.2 6344.31L5385.53 6324.02C5371.77 6312.23 5361.47 6296.92 5355.74 6279.73L5335.12 6217.85C5332.06 6208.67 5327.68 6199.97 5322.11 6192.05L5266.16 6112.28C5262.07 6106.44 5257.36 6101.06 5252.12 6096.23L4890 5762C4881.4 5754.06 4874.26 5744.68 4868.91 5734.27L4627.64 5265.37C4622.91 5256.18 4616.78 5247.78 4609.48 5240.46L3965.2 4595.25C3944.17 4574.19 3914.85 4563.59 3885.22 4566.33L2851.63 4662.03C2815.18 4665.4 2779.8 4648.59 2759.39 4618.2L2359.31 4022.43C2342.94 3998.05 2316.68 3982.1 2287.5 3978.81L1559.84 3896.67C1501.76 3890.12 1461.66 3835.36 1472.93 3778.01L1680.18 2723.8C1681.72 2715.96 1682.32 2707.97 1681.96 2699.99L1652.51 2048.71C1650.22 1998.1 1686.13 1953.78 1736.11 1945.53L2505 1818.5L3307.23 1605.7C3323.8 1601.31 3338.96 1592.73 3351.26 1580.78L3631 1309.09L3692.79 1241.09C3708.13 1224.21 3717.24 1202.58 3718.61 1179.81L3721.32 1134.51C3722.71 1111.18 3733.52 1089.41 3751.27 1074.2L3768.2 1059.69C3783.6 1046.48 3805.31 1043.52 3823.69 1052.11V1052.11C3838.37 1058.97 3855.42 1058.54 3869.74 1050.96L3895.41 1037.37C3918.39 1025.21 3945.81 1024.81 3969.13 1036.32L3985.18 1044.23C3998.85 1050.98 4014.96 1050.62 4028.32 1043.27V1043.27C4045.54 1033.81 4066.83 1036.13 4081.6 1049.09L4106.02 1070.52C4117.24 1080.36 4125.92 1092.76 4131.34 1106.66L4201.62 1287.07Z" fill="#BB816E"/>
<path id="wall" d="M5413.6 3362.81L5842.51 3089.22C5876.44 3067.57 5894.08 3027.7 5887.29 2988.04L5822.97 2612.25C5816.82 2576.32 5791.6 2546.58 5757.16 2534.64L5452.7 2429.1C5434.61 2422.83 5415.11 2421.89 5396.5 2426.38L4753.71 2581.44C4711.56 2591.61 4680.76 2627.79 4677.46 2671.03L4650.5 3023.67C4648.28 3052.76 4658.87 3081.37 4679.5 3102L4926.71 3349.21C4945.46 3367.96 4970.9 3378.5 4997.42 3378.5H5359.82C5378.88 3378.5 5397.53 3373.06 5413.6 3362.81Z" fill="#BB816E"/>
<path id="wall_2" d="M5539.17 4244.82L5182.51 3898.75C5166.01 3882.74 5144.5 3872.9 5121.59 3870.9L4797.66 3842.53C4782.42 3841.19 4767.08 3843.37 4752.82 3848.9L4367.65 3998.11C4310.68 4020.17 4286.64 4087.71 4316.85 4140.8L4484.94 4436.26C4496.6 4456.76 4515.14 4472.47 4537.27 4480.63L5144.97 4704.68C5181.82 4718.27 5223.22 4709.02 5250.79 4681.05L5540.76 4386.78C5579.74 4347.23 5579.03 4283.49 5539.17 4244.82Z" fill="#BB816E"/>
<path id="wall_3" d="M3072.03 2364.99L3391.91 2270.86C3421.61 2262.12 3453.68 2267.62 3478.76 2285.77L4083.11 2723.06C4116.76 2747.4 4131.85 2790.01 4121.04 2830.11L3939.27 3504.33C3933.89 3524.29 3922.46 3542.08 3906.55 3555.28L3624.44 3789.22C3610.41 3800.85 3593.47 3808.43 3575.45 3811.14L2974.83 3901.29C2942.65 3906.13 2910.13 3894.99 2887.66 3871.46L2334.85 3292.41C2308.35 3264.65 2300.07 3224.16 2313.56 3188.22L2505.71 2676.25C2514.57 2652.63 2532.04 2633.23 2554.61 2621.95L3055.54 2371.48C3060.84 2368.83 3066.36 2366.66 3072.03 2364.99Z" fill="#BB816E"/>
<g id="inside">
<path d="M2984.19 1324.78L3252.75 945.242C3295.03 885.503 3260.92 802.082 3188.9 789.073L2134.14 598.536C2076.14 588.057 2021.7 629.768 2016.72 688.501L1962.05 1333.84C1956.81 1395.76 2008.71 1447.42 2070.61 1441.88L2911.48 1366.62C2940.68 1364.01 2967.26 1348.71 2984.19 1324.78Z" fill="#9A6A5A"/>
<path d="M4722.77 1400.04L4536.04 1109.61C4518.46 1082.27 4515.27 1048.08 4527.48 1017.95L4629.6 766.12C4645.44 727.048 4684.09 702.11 4726.22 703.775L5844.23 747.957C5912.9 750.671 5958.43 820.244 5933.43 884.259L5778.87 1280C5765.41 1314.46 5734.03 1338.67 5697.29 1342.95L4818.45 1445.29C4780.54 1449.7 4743.41 1432.15 4722.77 1400.04Z" fill="#9A6A5A"/>
<path d="M3646.35 795.171L3587.82 624.42C3566.33 561.72 3610.67 495.839 3676.85 492.149L4223.6 461.667C4300.57 457.376 4353.24 538.102 4318.32 606.819L4236.33 768.144C4220.86 798.579 4190.94 819.02 4156.96 822.358L3750.72 862.266C3704.59 866.799 3661.38 839.026 3646.35 795.171Z" fill="#9A6A5A"/>
<path d="M6155.18 1724.25L6202.78 1287.97C6208.1 1239.26 6247.92 1201.58 6296.85 1198.96L6947.64 1164.12C6983.69 1162.19 7017.99 1179.85 7037.36 1210.32L7384.8 1756.68C7418.74 1810.06 7395.22 1881.14 7336.13 1903.74L6751.46 2127.35C6721.64 2138.76 6688.15 2135.23 6661.36 2117.86L6200.21 1819.01C6168.5 1798.46 6151.09 1761.8 6155.18 1724.25Z" fill="#9A6A5A"/>
<path d="M7482.1 2049.08L6913.37 2258.8C6832.34 2288.67 6824.74 2400.3 6900.96 2440.89L7574.56 2799.58C7648.44 2838.93 7735.08 2775.5 7719.9 2693.17L7615.04 2124.76C7603.79 2063.76 7540.3 2027.62 7482.1 2049.08Z" fill="#9A6A5A"/>
<path d="M7688.67 3251.53L7098.2 2934.33C7023.58 2894.24 6936.03 2959.29 6952.88 3042.31L7060.79 3574.07C7066.34 3601.43 7083.08 3625.23 7106.97 3639.7L7477.99 3864.51C7535.44 3899.32 7610.2 3868.71 7626.73 3803.59L7738.28 3364.23C7749.57 3319.73 7729.12 3273.25 7688.67 3251.53Z" fill="#9A6A5A"/>
<path d="M6784.24 4145.16L6899.63 4014.54C6925.71 3985 6966.71 3973.54 7004.33 3985.27L7630.69 4180.47C7689.04 4198.65 7717.57 4264.46 7690.96 4319.48L7550.76 4609.29C7525.31 4661.91 7460.35 4681.58 7409.98 4651.91L6808.43 4297.52C6754.28 4265.62 6742.63 4192.26 6784.24 4145.16Z" fill="#9A6A5A"/>
<path d="M6777.56 5454.09L6858.57 5061.93C6861.49 5047.81 6867.43 5034.49 6875.97 5022.88L7003.89 4849.12C7039 4801.43 7107.64 4794.53 7151.54 4834.28L7606.45 5246.19C7648.33 5284.1 7650.51 5349.15 7611.27 5389.78L7286.17 5726.46C7255.03 5758.71 7206.23 5766.29 7166.77 5745.01L6828.03 5562.34C6789.14 5541.37 6768.62 5497.36 6777.56 5454.09Z" fill="#9A6A5A"/>
<path d="M6118.03 6151.6L6341.29 5908.81C6360.22 5888.22 6386.92 5876.5 6414.9 5876.5H6768.39C6821.47 5876.5 6865.3 5917.97 6868.24 5970.96L6892.03 6399.86C6895.89 6469.45 6829.16 6521.55 6762.58 6500.92L6162.04 6314.81C6091.89 6293.07 6068.32 6205.66 6118.03 6151.6Z" fill="#9A6A5A"/>
<path d="M5821.29 6543.5H5492.79C5407.38 6543.5 5361.28 6643.67 5416.84 6708.54L5697.72 7036.53C5726.63 7070.29 5774.34 7080.92 5814.85 7062.62L6133.65 6918.58C6204.9 6886.39 6213.31 6788.57 6148.61 6744.69L5877.42 6560.74C5860.85 6549.51 5841.3 6543.5 5821.29 6543.5Z" fill="#9A6A5A"/>
<path d="M5170.5 6846.68L4998.55 6563.68C4960.18 6500.54 4868.95 6499.37 4828.98 6561.51L4669.69 6809.17C4629.44 6871.75 4669.19 6954.8 4743.18 6962.7L5074.43 6998.04C5156.77 7006.83 5213.5 6917.45 5170.5 6846.68Z" fill="#9A6A5A"/>
<path d="M1279.5 3840.59V3357.07C1279.5 3330.16 1268.66 3304.4 1249.43 3285.58L882.656 2926.81C838.391 2883.51 765.814 2890.44 730.54 2941.33L365.147 3468.51C329.147 3520.46 349.754 3592.35 407.803 3617.33L1139.97 3932.45C1205.97 3960.85 1279.5 3912.45 1279.5 3840.59Z" fill="#9A6A5A"/>
<path d="M1138.77 2867.62L834.839 2620.01C811.528 2601.02 798 2572.55 798 2542.48V2129.27C798 2090.63 820.258 2055.45 855.172 2038.9L1283.67 1835.82C1346.19 1806.19 1419.18 1847.47 1426.01 1916.32L1482.66 2487.77C1484.83 2509.65 1479.73 2531.62 1468.15 2550.31L1286.94 2842.76C1255.16 2894.05 1185.55 2905.73 1138.77 2867.62Z" fill="#9A6A5A"/>
<path d="M1584 1623.59L1165.66 1433.31C1096.04 1401.64 1086.3 1306.71 1148.04 1261.56L1588.21 939.692C1655.87 890.219 1750.72 940.932 1747.15 1024.67L1725.32 1536.83C1722.3 1607.67 1648.55 1652.95 1584 1623.59Z" fill="#9A6A5A"/>
<path d="M2740.69 2943.23L3073.68 2699.07C3099.06 2680.45 3131.73 2674.88 3161.85 2684.02L3510.2 2789.71C3538.01 2798.15 3560.78 2818.27 3572.57 2844.83L3693.33 3116.92C3710.52 3155.63 3701.45 3200.96 3670.7 3230.09L3378.52 3506.83C3356.39 3527.79 3325.92 3537.51 3295.74 3533.24L2961.75 3485.97C2928.78 3481.3 2900.29 3460.53 2885.77 3430.56L2709.83 3067.48C2688.79 3024.04 2701.77 2971.77 2740.69 2943.23Z" fill="#9A6A5A"/>
<path d="M4887.44 2872.69L4942.61 2790.93C4957.28 2769.18 4979.9 2754.08 5005.61 2748.86L5334.28 2682.13C5372.26 2674.42 5411.27 2689.35 5434.4 2720.44L5543.42 2866.96C5581.01 2917.48 5563.11 2989.76 5506.28 3016.89L5177.43 3173.93C5140.11 3191.75 5095.68 3184.76 5065.63 3156.35L4901.63 3001.28C4866.08 2967.66 4860.07 2913.25 4887.44 2872.69Z" fill="#9A6A5A"/>
<path d="M4716.05 6054.24L4513.14 5716.78C4508.4 5708.9 4502.6 5701.72 4495.91 5695.43L4106.83 5329.89C4063.25 5288.94 3993.71 5295.14 3958.07 5343.16L3422.49 6064.6C3382.9 6117.93 3405.34 6194.33 3467.49 6217.77L4270.9 6520.83C4307.51 6534.64 4348.82 6525.82 4376.61 6498.27L4700.77 6176.77C4733.49 6144.32 4739.8 6093.72 4716.05 6054.24Z" fill="#9A6A5A"/>
<path d="M3762.44 4902.12L3309.74 4725.97C3279.21 4714.09 3244.79 4717.92 3217.62 4736.22L2805.13 5014.03C2755.71 5047.31 2746.17 5116.15 2784.69 5161.61L3169.46 5615.75C3209.15 5662.59 3281.27 5662.95 3321.41 5616.51L3801.84 5060.7C3847.02 5008.43 3826.84 4927.17 3762.44 4902.12Z" fill="#9A6A5A"/>
<path d="M2475.62 4743.96L2218.87 4333.01C2200.6 4303.77 2168.55 4286 2134.06 4286H1468.12C1433.26 4286 1400.92 4304.15 1382.76 4333.91L1123.45 4758.8C1095.93 4803.88 1108.22 4862.58 1151.5 4892.85L1618.75 5219.61C1648.26 5240.25 1686.59 5243.42 1719.09 5227.93L2433.85 4887.22C2487.75 4861.52 2507.27 4794.61 2475.62 4743.96Z" fill="#9A6A5A"/>
<path d="M2850.18 5911.38L2582.11 5404.57C2556.15 5355.49 2495.17 5336.95 2446.29 5363.29L2059.74 5571.52C1986.98 5610.72 1990.47 5716.25 2065.67 5750.54L2720.29 6049.12C2807.13 6088.73 2894.81 5995.76 2850.18 5911.38Z" fill="#9A6A5A"/>
<path d="M5114.38 4150.3L4790.91 4093.54C4739.36 4084.49 4689.55 4116.73 4676.69 4167.46L4660.41 4231.66C4647.3 4283.37 4677.09 4336.26 4728.1 4351.86L4992.67 4432.78C5030.81 4444.45 5072.23 4432.33 5098.08 4401.96L5173.26 4313.59C5223.36 4254.7 5190.54 4163.66 5114.38 4150.3Z" fill="#9A6A5A"/>
<path d="M4759.45 1764.28L4531.66 1921.15C4501.38 1942 4462.1 1944.55 4429.37 1927.8L4407.12 1916.41C4365.99 1895.34 4344.65 1848.84 4355.49 1803.92L4407.17 1589.96C4421.02 1532.61 4481.24 1499.66 4537.01 1518.91L4735.37 1587.39C4812.91 1614.16 4827.01 1717.76 4759.45 1764.28Z" fill="#9A6A5A"/>
</g>
</g>
</g>
<defs>
<linearGradient id="paint0_linear_2245_1271" x1="3932" y1="942" x2="3932" y2="1245" gradientUnits="userSpaceOnUse">
<stop stop-color="#0E2736"/>
<stop offset="0.535416" stop-color="#0E2736" stop-opacity="0.76"/>
<stop offset="1" stop-color="#0E2736" stop-opacity="0"/>
</linearGradient>
<linearGradient id="paint1_linear_2245_1271" x1="390" y1="0" x2="390" y2="303" gradientUnits="userSpaceOnUse">
<stop stop-color="#0E2736"/>
<stop offset="0.535416" stop-color="#0E2736" stop-opacity="0.76"/>
<stop offset="1" stop-color="#0E2736" stop-opacity="0"/>
</linearGradient>
<clipPath id="clip0_2245_1271">
<rect width="8192" height="7363" fill="white"/>
</clipPath>
</defs>
</svg>
