<svg width="7462" height="5625" viewBox="0 0 7462 5625" fill="none" xmlns="http://www.w3.org/2000/svg">
<g id="walls" clip-path="url(#clip0_2245_1271)">
<g id="Group 127">
<path id="shadow" fill-rule="evenodd" clip-rule="evenodd" d="M3969.51 -442.518C3963.85 -443.504 3958.11 -444 3952.36 -444H2176.1C2156.78 -444 2137.88 -438.405 2121.67 -427.891L950.788 331.769C933.984 342.671 920.841 358.369 913.063 376.827L-23.5233 2599.4C-34.0534 2624.39 -33.984 2652.58 -23.3308 2677.52L805.532 4617.68C811.113 4630.74 819.414 4642.47 829.881 4652.07L1672.46 5425.25C1678.8 5431.06 1685.85 5436.03 1693.45 5440.03L3050 6155.05C3054.99 6157.68 3060.19 6159.88 3065.55 6161.63L4606.61 6665.48C4617.78 6669.13 4629.51 6670.79 4641.26 6670.37L6512.14 6603.51C6539.22 6602.55 6564.74 6590.64 6582.87 6570.51L7414.56 5647.31C7419.84 5641.46 7424.4 5635 7428.16 5628.08L8127.8 4338.81C8135.75 4324.17 8139.91 4307.77 8139.91 4291.12V3234.5L7940.93 1238.89C7938.71 1216.61 7929.07 1195.72 7913.57 1179.57L6803.93 23.4335C6788.43 7.27988 6767.95 -3.20331 6745.78 -6.3371L5305 -210L3969.51 -442.518ZM4125.23 730.475C4147.09 702.656 4152.62 665.357 4139.78 632.391L4080.19 479.454C4078.13 474.161 4076.52 468.702 4075.39 463.136L4071.7 445.047C4057.38 374.847 3976.05 342.037 3917.03 382.651L3895.78 397.27C3889.28 401.741 3882.28 405.427 3874.92 408.253L3737.65 460.92C3701.02 474.975 3676 509.149 3673.65 548.312L3672.61 565.809C3671.24 588.583 3662.13 610.206 3646.79 627.09L3585 695.085L3305.26 966.781C3292.96 978.726 3277.8 987.308 3261.23 991.704L2459 1204.5L1690.11 1331.53C1640.13 1339.78 1604.22 1384.1 1606.51 1434.71L1635.96 2085.99C1636.32 2093.97 1635.72 2101.96 1634.18 2109.8L1435.43 3120.78C1421.54 3191.46 1484.67 3253.2 1555.03 3237.74L1984.27 3143.37C2016.63 3136.26 2050.41 3145.63 2074.47 3168.41L2279.42 3362.35C2284.79 3367.44 2289.58 3373.1 2293.7 3379.24L2713.39 4004.2C2733.8 4034.59 2769.18 4051.4 2805.63 4048.03L3839.22 3952.33C3868.85 3949.59 3898.17 3960.19 3919.2 3981.25L4563.48 4626.46C4570.78 4633.78 4576.91 4642.18 4581.64 4651.37L4821.64 5117.81C4827.82 5129.81 4836.36 5140.44 4846.75 5149.05L4959.5 5242.5L5196.63 5472.64C5208.05 5483.72 5221.94 5491.92 5237.15 5496.55L5507.22 5578.76C5515.37 5581.24 5523.18 5584.76 5530.44 5589.22L5618.78 5643.49C5671 5675.57 5739.53 5653.56 5763.29 5597.07L5780.29 5556.66C5784.41 5546.89 5790.04 5537.84 5797 5529.84L5909 5401L6415.15 4901.13C6426.87 4889.56 6435.55 4875.27 6440.41 4859.53L6670.02 4117.22C6677.7 4092.39 6675.42 4065.54 6663.64 4042.37L6338.14 3401.77C6327.7 3381.22 6324.68 3357.7 6329.59 3335.18L6494.03 2580.45C6500.06 2552.79 6494.08 2523.87 6477.58 2500.87L6251.56 2185.79C6230.79 2156.83 6227 2118.99 6241.62 2086.48L6397.54 1739.85C6417.9 1694.57 6401.96 1641.21 6360.11 1614.51L5483.24 1055.3C5457.22 1038.71 5424.99 1035.06 5395.92 1045.41L4790.92 1260.86C4781.36 1264.27 4772.38 1269.11 4764.28 1275.22L4330.06 1602.53C4286.86 1635.1 4225.61 1627.41 4191.8 1585.18L3980.29 1320.98C3973.15 1312.06 3967.59 1301.98 3963.85 1291.18L3896.34 1096.07C3885.22 1063.93 3891.2 1028.34 3912.21 1001.59L4125.23 730.475ZM5846.51 2525.22L5417.6 2798.81C5401.54 2809.06 5382.88 2814.5 5363.82 2814.5H5001.42C4974.9 2814.5 4949.46 2803.96 4930.71 2785.21L4629.08 2483.58C4618.82 2473.32 4610.91 2460.94 4605.91 2447.31L4472.18 2082.72C4451.94 2027.54 4483.41 1966.89 4540.18 1951.69L5441.67 1710.15C5474.59 1701.33 5509.73 1709.89 5534.92 1732.85L5791.6 1966.85C5808.06 1981.85 5819.04 2001.92 5822.8 2023.88L5891.29 2424.04C5898.08 2463.7 5880.44 2503.57 5846.51 2525.22ZM5543.17 3680.82L5184.58 3332.88C5169.26 3318.02 5149.59 3308.45 5128.44 3305.57L4312.11 3194.44C4250.83 3186.1 4196.75 3234.82 4198.67 3296.64L4206.34 3543.12C4207.09 3567.22 4216.52 3590.25 4232.91 3607.95L4490.71 3886.4C4501.42 3897.97 4514.71 3906.84 4529.5 3912.29L5148.97 4140.68C5185.82 4154.27 5227.21 4145.02 5254.79 4117.05L5544.76 3822.78C5583.74 3783.23 5583.03 3719.49 5543.17 3680.82ZM3404.49 1704.33L3076.03 1800.99C3070.36 1802.66 3064.84 1804.83 3059.54 1807.48L2558.61 2057.95C2536.04 2069.23 2518.57 2088.63 2509.71 2112.25L2317.56 2624.22C2304.07 2660.16 2312.35 2700.65 2338.85 2728.41L2891.66 3307.46C2914.13 3330.99 2946.65 3342.13 2978.83 3337.29L3579.45 3247.14C3597.47 3244.43 3614.41 3236.85 3628.44 3225.22L3910.55 2991.28C3926.46 2978.08 3937.89 2960.29 3943.27 2940.33L4127.48 2257.08C4137.04 2221.61 4126.38 2183.75 4099.72 2158.47L3817.78 1891.24C3810.96 1884.78 3803.27 1879.31 3794.92 1874.99L3478.66 1711.44C3455.77 1699.61 3429.21 1697.06 3404.49 1704.33Z" fill="black" fill-opacity="0.15"/>
<g id="rock">
<path d="M3911.55 445.613L3944.15 756.585C3945.7 771.343 3943.94 786.26 3939.01 800.255L3866.98 1004.58C3858.94 1027.42 3859.44 1052.39 3868.41 1074.88L3953.98 1289.38C3978.42 1350.63 4054.4 1371.87 4107.06 1332.18L4514.28 1025.22C4522.38 1019.11 4531.36 1014.27 4540.92 1010.86L5145.92 795.409C5174.99 785.056 5207.22 788.706 5233.24 805.3L6118.5 1369.87C6156.57 1394.14 6173.65 1440.92 6160.17 1484.02L6020.56 1930.62C6010.53 1962.7 6017.29 1997.67 6038.54 2023.7L6222.98 2249.62C6242.26 2273.24 6249.72 2304.36 6243.23 2334.15L6079.59 3085.18C6074.68 3107.7 6077.7 3131.22 6088.14 3151.77L6413.64 3792.37C6425.42 3815.54 6427.7 3842.39 6420.02 3867.22L6190.41 4609.53C6185.55 4625.27 6176.87 4639.56 6165.15 4651.13L5659 5151L5548.61 5277.98C5540.6 5287.19 5534.35 5297.79 5530.16 5309.25L5490.08 5418.87C5486.06 5429.87 5484 5441.49 5484 5453.21V5729C5484 5784.23 5528.77 5829 5584 5829H7391C7446.23 5829 7491 5784.23 7491 5729V-10C7491 -65.2285 7446.23 -110 7391 -110H3943C3887.77 -110 3843 -65.2285 3843 -10V206.109C3843 216.31 3844.56 226.45 3847.63 236.179L3907.47 425.969C3909.48 432.364 3910.85 438.945 3911.55 445.613Z" fill="#BB816E"/>
<path d="M3055.26 716.781L3335 445.085L3398.54 375.164C3412.81 359.463 3421.71 339.63 3423.97 318.534L3433 234V-15C3433 -70.2285 3388.23 -115 3333 -115H76.3823C21.1998 -115 -23.5526 -70.3003 -23.6176 -15.1179L-30.3821 5728.88C-30.4472 5784.16 14.3433 5829 69.6177 5829H4974C5029.23 5829 5074 5784.23 5074 5729V5461.1C5074 5448.81 5071.73 5436.62 5067.31 5425.14L5038.91 5351.44C5035.98 5343.84 5032.14 5336.63 5027.46 5329.97L4970.16 5248.28C4966.06 5242.44 4961.36 5237.06 4956.12 5232.23L4594 4898C4585.4 4890.06 4578.26 4880.68 4572.91 4870.27L4331.64 4401.37C4326.91 4392.18 4320.78 4383.78 4313.48 4376.46L3669.2 3731.25C3648.17 3710.19 3618.85 3699.59 3589.22 3702.33L2555.63 3798.03C2519.18 3801.4 2483.8 3784.59 2463.39 3754.2L2063.31 3158.43C2046.94 3134.05 2020.68 3118.1 1991.5 3114.81L1263.84 3032.67C1205.76 3026.12 1165.66 2971.36 1176.93 2914.01L1384.18 1859.8C1385.72 1851.96 1386.32 1843.97 1385.96 1835.99L1356.51 1184.71C1354.22 1134.1 1390.13 1089.78 1440.11 1081.53L2209 954.5L3011.23 741.704C3027.8 737.308 3042.96 728.726 3055.26 716.781Z" fill="#BB816E"/>
</g>
<path id="wall" d="M5117.6 2498.81L5546.51 2225.22C5580.44 2203.57 5598.08 2163.7 5591.29 2124.04L5526.97 1748.25C5520.82 1712.32 5495.6 1682.58 5461.16 1670.64L5156.7 1565.1C5138.61 1558.83 5119.11 1557.89 5100.5 1562.38L4457.71 1717.44C4415.56 1727.61 4384.76 1763.79 4381.46 1807.03L4354.5 2159.67C4352.28 2188.76 4362.87 2217.37 4383.5 2238L4630.71 2485.21C4649.46 2503.96 4674.9 2514.5 4701.42 2514.5H5063.82C5082.88 2514.5 5101.53 2509.06 5117.6 2498.81Z" fill="#BB816E"/>
<path id="wall_2" d="M5243.17 3380.82L4886.51 3034.75C4870.01 3018.74 4848.5 3008.9 4825.59 3006.9L4501.66 2978.53C4486.42 2977.19 4471.08 2979.37 4456.82 2984.9L4071.65 3134.11C4014.68 3156.17 3990.64 3223.71 4020.85 3276.8L4188.94 3572.26C4200.6 3592.76 4219.14 3608.47 4241.27 3616.63L4848.97 3840.68C4885.82 3854.27 4927.22 3845.02 4954.79 3817.05L5244.76 3522.78C5283.74 3483.23 5283.03 3419.49 5243.17 3380.82Z" fill="#BB816E"/>
<path id="wall_3" d="M2776.03 1500.99L3095.91 1406.86C3125.61 1398.12 3157.68 1403.62 3182.76 1421.77L3787.11 1859.06C3820.76 1883.4 3835.85 1926.01 3825.04 1966.11L3643.27 2640.33C3637.89 2660.29 3626.46 2678.08 3610.55 2691.28L3328.44 2925.22C3314.41 2936.85 3297.47 2944.43 3279.45 2947.14L2678.83 3037.29C2646.65 3042.13 2614.13 3030.99 2591.66 3007.46L2038.85 2428.41C2012.35 2400.65 2004.07 2360.16 2017.56 2324.22L2209.71 1812.25C2218.57 1788.63 2236.04 1769.23 2258.61 1757.95L2759.54 1507.48C2764.84 1504.83 2770.36 1502.66 2776.03 1500.99Z" fill="#BB816E"/>
<g id="inside">
<path d="M2674.99 557.878L2732.03 240.279C2744.08 173.178 2686.92 113.955 2619.44 123.611L2153.72 190.246C2130.03 193.636 2108.34 205.411 2092.59 223.433L1819.97 535.379C1760.64 603.267 1814.38 708.824 1904.18 700.786L2585.48 639.804C2630.37 635.786 2667.02 602.237 2674.99 557.878Z" fill="#9A6A5A"/>
<path d="M4426.03 542.356L4266.82 329.222C4235.38 287.139 4241.86 227.907 4281.66 193.619L4350.66 134.164C4372.87 115.027 4402.36 106.601 4431.33 111.114L5300.83 246.579C5332.73 251.55 5360.28 271.623 5374.78 300.474L5396.8 344.291C5427.99 406.336 5388 480.5 5319.02 488.532L4517.71 581.838C4482.3 585.962 4447.37 570.919 4426.03 542.356Z" fill="#9A6A5A"/>
<path d="M5859.18 860.246L5908.63 407.077C5913.08 366.291 5941.99 332.362 5981.55 321.495L6733.79 114.866C6783.94 101.093 6836.27 128.048 6854.17 176.871L7120.55 903.404C7139.38 954.75 7113.46 1011.69 7062.38 1031.23L6455.46 1263.35C6425.64 1274.76 6392.15 1271.23 6365.36 1253.86L5904.21 955.011C5872.5 934.464 5855.09 897.803 5859.18 860.246Z" fill="#9A6A5A"/>
<path d="M7186.1 1185.08L6617.37 1394.8C6536.34 1424.67 6528.74 1536.3 6604.96 1576.89L7278.56 1935.58C7352.44 1974.93 7439.08 1911.5 7423.9 1829.17L7319.04 1260.76C7307.79 1199.76 7244.3 1163.62 7186.1 1185.08Z" fill="#9A6A5A"/>
<path d="M7392.67 2387.53L6802.2 2070.33C6727.58 2030.24 6640.03 2095.29 6656.88 2178.31L6764.79 2710.07C6770.34 2737.43 6787.08 2761.23 6810.97 2775.7L7181.99 3000.51C7239.44 3035.32 7314.2 3004.71 7330.73 2939.59L7442.28 2500.23C7453.57 2455.73 7433.12 2409.25 7392.67 2387.53Z" fill="#9A6A5A"/>
<path d="M6488.24 3281.16L6603.63 3150.54C6629.71 3121 6670.71 3109.54 6708.33 3121.27L7334.69 3316.47C7393.04 3334.65 7421.57 3400.46 7394.96 3455.48L7254.76 3745.29C7229.31 3797.91 7164.35 3817.58 7113.98 3787.91L6512.43 3433.52C6458.28 3401.62 6446.63 3328.26 6488.24 3281.16Z" fill="#9A6A5A"/>
<path d="M6481.56 4590.09L6562.57 4197.93C6565.49 4183.81 6571.43 4170.49 6579.97 4158.88L6707.89 3985.12C6743 3937.43 6811.64 3930.53 6855.54 3970.28L7310.45 4382.19C7352.33 4420.1 7354.51 4485.15 7315.27 4525.78L6990.17 4862.46C6959.03 4894.71 6910.23 4902.29 6870.77 4881.01L6532.03 4698.34C6493.14 4677.37 6472.62 4633.36 6481.56 4590.09Z" fill="#9A6A5A"/>
<path d="M5824.59 5284.82L6045.29 5044.81C6064.22 5024.22 6090.92 5012.5 6118.9 5012.5H6449.08C6510.83 5012.5 6557.83 5067.91 6547.74 5128.83L6484.83 5508.77C6475.07 5567.75 6416.08 5605.04 6358.61 5588.56L5870.64 5448.63C5799.15 5428.13 5774.26 5339.56 5824.59 5284.82Z" fill="#9A6A5A"/>
<path d="M4843.55 5387.02L4770.07 5296.67C4723.54 5239.45 4633.19 5250.57 4601.92 5317.37L4546.38 5436.02C4511.25 5511.08 4577.43 5593.85 4658.38 5576.09L4787.39 5547.79C4860.14 5531.83 4890.54 5444.8 4843.55 5387.02Z" fill="#9A6A5A"/>
<path d="M983.5 2976.59V2493.07C983.5 2466.16 972.659 2440.4 953.427 2421.58L586.656 2062.81C542.391 2019.51 469.814 2026.44 434.54 2077.33L69.1469 2604.51C33.1467 2656.46 53.7538 2728.35 111.803 2753.33L843.967 3068.45C909.971 3096.85 983.5 3048.45 983.5 2976.59Z" fill="#9A6A5A"/>
<path d="M842.773 2003.62L538.839 1756.01C515.528 1737.02 502 1708.55 502 1678.48V1265.27C502 1226.63 524.258 1191.45 559.172 1174.9L987.669 971.821C1050.19 942.191 1123.18 983.474 1130.01 1052.32L1186.66 1623.77C1188.83 1645.65 1183.73 1667.62 1172.15 1686.31L990.939 1978.76C959.161 2030.05 889.548 2041.73 842.773 2003.62Z" fill="#9A6A5A"/>
<path d="M1258.78 799.944L490.597 701.45C429.471 693.612 389.913 632.886 407.448 573.808L471.552 357.833C477.686 337.166 490.335 319.034 507.612 306.141L741.75 131.424C765.082 114.013 794.843 107.634 823.261 113.953L1136.96 183.707C1170.04 191.061 1197.14 214.664 1208.97 246.416L1365.21 665.849C1391.47 736.351 1333.4 809.512 1258.78 799.944Z" fill="#9A6A5A"/>
<path d="M2444.69 2079.23L2777.68 1835.07C2803.06 1816.45 2835.73 1810.88 2865.85 1820.02L3214.2 1925.71C3242.01 1934.15 3264.78 1954.27 3276.57 1980.83L3397.33 2252.92C3414.52 2291.63 3405.45 2336.96 3374.7 2366.09L3082.52 2642.83C3060.39 2663.79 3029.92 2673.51 2999.74 2669.24L2665.75 2621.97C2632.78 2617.3 2604.29 2596.53 2589.77 2566.56L2413.83 2203.48C2392.79 2160.04 2405.77 2107.77 2444.69 2079.23Z" fill="#9A6A5A"/>
<path d="M4591.44 2008.69L4646.61 1926.93C4661.28 1905.18 4683.9 1890.08 4709.61 1884.86L5038.28 1818.13C5076.26 1810.42 5115.27 1825.35 5138.4 1856.44L5247.42 2002.96C5285.01 2053.48 5267.11 2125.76 5210.28 2152.89L4881.43 2309.93C4844.11 2327.75 4799.68 2320.76 4769.63 2292.35L4605.63 2137.28C4570.08 2103.66 4564.07 2049.25 4591.44 2008.69Z" fill="#9A6A5A"/>
<path d="M4409.02 5171.88L4217.14 4852.78C4212.4 4844.9 4206.6 4837.72 4199.91 4831.43L3815.17 4469.96C3770.09 4427.6 3697.75 4435.92 3663.46 4487.41L3328.71 4990.09C3297.8 5036.51 3310.84 5099.26 3357.69 5129.52L3940.08 5505.65C3972.16 5526.36 4013.24 5527 4045.95 5507.3L4374.93 5309.06C4422.2 5280.58 4437.46 5219.18 4409.02 5171.88Z" fill="#9A6A5A"/>
<path d="M3466.44 4038.12L3013.74 3861.97C2983.21 3850.09 2948.79 3853.92 2921.62 3872.22L2509.13 4150.03C2459.71 4183.31 2450.17 4252.15 2488.69 4297.61L2873.46 4751.75C2913.15 4798.59 2985.27 4798.95 3025.41 4752.51L3505.84 4196.7C3551.02 4144.43 3530.84 4063.17 3466.44 4038.12Z" fill="#9A6A5A"/>
<path d="M2179.62 3879.96L1922.87 3469.01C1904.6 3439.77 1872.55 3422 1838.06 3422H1172.12C1137.26 3422 1104.92 3440.15 1086.76 3469.91L827.446 3894.8C799.934 3939.88 812.218 3998.58 855.496 4028.84L1322.75 4355.61C1352.26 4376.25 1390.59 4379.42 1423.09 4363.93L2137.85 4023.22C2191.75 3997.52 2211.27 3930.61 2179.62 3879.96Z" fill="#9A6A5A"/>
<path d="M2554.18 5047.38L2286.11 4540.57C2260.15 4491.49 2199.17 4472.95 2150.29 4499.29L1763.74 4707.52C1690.98 4746.72 1694.47 4852.25 1769.67 4886.54L2424.29 5185.12C2511.13 5224.73 2598.81 5131.76 2554.18 5047.38Z" fill="#9A6A5A"/>
<path d="M4818.38 3286.3L4494.91 3229.54C4443.36 3220.49 4393.55 3252.73 4380.69 3303.46L4364.41 3367.66C4351.3 3419.37 4381.09 3472.26 4432.1 3487.86L4696.67 3568.78C4734.81 3580.45 4776.23 3568.33 4802.08 3537.96L4877.26 3449.59C4927.36 3390.7 4894.54 3299.66 4818.38 3286.3Z" fill="#9A6A5A"/>
<path d="M4463.45 900.279L4235.66 1057.15C4205.38 1078 4166.1 1080.55 4133.37 1063.8L4111.12 1052.41C4069.99 1031.34 4048.65 984.84 4059.49 939.919L4111.17 725.958C4125.02 668.612 4185.24 635.656 4241.01 654.909L4439.37 723.394C4516.91 750.164 4531.01 853.757 4463.45 900.279Z" fill="#9A6A5A"/>
<path d="M1959.93 5273.47L1633.01 5045C1604.16 5024.84 1566.84 5021.33 1534.74 5035.75L1349.78 5118.85C1311.48 5136.05 1288 5175.36 1291.02 5217.24L1300.08 5343.2C1303.73 5394.04 1345.03 5433.99 1395.96 5435.95L1898.79 5455.37C1998.52 5459.22 2041.74 5330.64 1959.93 5273.47Z" fill="#9A6A5A"/>
<path d="M927.319 4710.29L510.22 4326.23C476.797 4295.45 426.828 4291.08 388.564 4315.57L169.835 4455.61C119.554 4487.8 108.499 4556.59 146.162 4602.91L483.041 5017.25C513.887 5055.19 567.645 5065.26 610.131 5041.05L909.081 4870.75C967.915 4837.23 977.13 4756.16 927.319 4710.29Z" fill="#9A6A5A"/>
<path d="M680.682 5248.82L353.305 5142.52C276.236 5117.49 202.963 5189.72 226.876 5267.14L282.491 5447.2C298.393 5498.68 352.228 5528.31 404.23 5514.2L675.992 5440.44C771.929 5414.4 775.23 5279.52 680.682 5248.82Z" fill="#9A6A5A"/>
<path d="M711.156 3364.68L360.17 3211.5C283.411 3178 201.941 3248.05 223.559 3328.96L332.117 3735.27C352.244 3810.6 447.015 3834.94 500.949 3778.63L743.377 3525.5C791.481 3475.27 774.896 3392.5 711.156 3364.68Z" fill="#9A6A5A"/>
<path d="M6711.13 5404.05L6892.36 5121.17C6918.26 5080.75 6969.24 5064.43 7013.79 5082.3L7251.71 5177.73C7316.89 5203.88 7335.53 5287.29 7287.68 5338.69L7113.16 5526.14C7094.24 5546.46 7067.73 5558 7039.97 5558H6795.33C6716.28 5558 6668.49 5470.61 6711.13 5404.05Z" fill="#9A6A5A"/>
<path d="M3286.62 5357.18L3085.71 5218.63C3036.04 5184.37 2967.56 5201.58 2939.99 5255.26L2868.83 5393.81C2834.65 5460.36 2882.97 5539.5 2957.78 5539.5H3229.85C3327.98 5539.5 3367.4 5412.89 3286.62 5357.18Z" fill="#9A6A5A"/>
</g>
</g>
</g>
<defs>
<clipPath id="clip0_2245_1271">
<rect width="7462" height="5625" fill="white"/>
</clipPath>
</defs>
</svg>
