<svg width="13918" height="15768" viewBox="0 0 13918 15768" fill="none" xmlns="http://www.w3.org/2000/svg">
<g clip-path="url(#clip0_1303_23297)">
<path opacity="0.4" d="M3966.5 15767C3966.5 15695 3966.5 15735 3966.5 15636C3966.5 14657.5 5265.51 15027.5 5394.51 14442C5523.51 13856.5 4843.51 13999 4843.51 13408.5C4843.51 12818 5416.51 12749 5157.5 12353.5C4898.49 11958 4160 12301 4089.5 11592.5C4019 10884 4547.2 10607.1 5075.5 10840C5342 10957.5 5551.5 11065.5 5845.5 10931C6139.5 10796.5 5995.5 10345 6454.5 10076.5C6742.86 9907.82 7013.5 10098.5 7181.5 9819C7349.5 9539.5 6958 9181.5 6752.5 9107.5C6338.57 8958.44 6392 8295 6659.5 7992C6927 7689 7290.9 7947.17 7497.5 7499C7686.5 7089 7009.64 7062 7173 6449.5C7336.36 5837 6228.5 5881.5 6228.5 5330.5C6228.5 4779.5 6667 4582.5 7195.5 4610.5C7724 4638.5 7788.52 5005.04 8179.51 4837C8570.5 4668.96 8126.36 4101.22 8772.5 3788.5C9053.5 3652.5 9302.89 3623.28 9810 4013C11004.5 4931 11713 3082.5 10314 2968.5C9412.99 2895.08 9280 1667.5 10079 1564C10878 1460.5 11024.3 1531 11174.5 1260.5C11324.7 990 10938 903.5 10938 -8.5" stroke="#53656A" stroke-width="500"/>
<g opacity="0.01">
<path d="M3966.5 15768C3966.5 15696 3966.5 15736 3966.5 15637C3966.5 14658.5 5265.51 15028.5 5394.51 14443C5523.51 13857.5 4843.51 14000 4843.51 13409.5C4843.51 12819 5416.51 12750 5157.5 12354.5C4898.49 11959 4160 12302 4089.5 11593.5C4019 10885 4547.2 10608.1 5075.5 10841C5342 10958.5 5551.5 11066.5 5845.5 10932C6139.5 10797.5 5995.5 10346 6454.5 10077.5C6742.86 9908.82 7013.5 10099.5 7181.5 9820C7349.5 9540.5 6958 9182.5 6752.5 9108.5C6338.57 8959.44 6392 8296 6659.5 7993C6927 7690 7290.9 7948.17 7497.5 7500C7686.5 7090 7009.64 7063 7173 6450.5C7336.36 5838 6228.5 5882.5 6228.5 5331.5C6228.5 4780.5 6667 4583.5 7195.5 4611.5C7724 4639.5 7788.52 5006.04 8179.51 4838C8570.5 4669.96 8126.36 4102.22 8772.5 3789.5C9053.5 3653.5 9302.89 3624.28 9810 4014C11004.5 4932 11713 3083.5 10314 2969.5C9412.99 2896.08 9280 1668.5 10079 1565C10878 1461.5 11024.3 1532 11174.5 1261.5C11324.7 991 10938 904.5 10938 -7.5" stroke="#FA5F3D" stroke-width="550"/>
</g>
<path opacity="0.05" d="M5251 12575C5227.4 12486.6 5174.74 12388.3 5151.35 12350.3C4892.35 11954.8 4153.85 12297.8 4083.35 11589.3C4012.85 10880.8 4541.06 10603.8 5069.35 10836.8C5104.24 10853 5197.7 10889.8 5292.5 10939" stroke="#8C432B" stroke-width="500"/>
<path opacity="0.05" d="M7146.5 6680C7138 6587 7159.83 6504.22 7173.5 6452.58C7336.86 5840.08 6229 5884.58 6229 5333.58C6229 4782.58 6667.5 4585.58 7196 4613.58C7246 4618.22 7364.2 4633 7437 4655" stroke="#8C432B" stroke-width="500"/>
<path opacity="0.05" d="M11284 1047C11264 1096.6 11201.6 1209.67 11172.9 1260C11022.7 1530.5 10876.4 1460 10077.4 1563.5C9278.45 1667 9411.43 2894.58 10312.4 2968C11711.4 3082 11002.9 4930.5 9808.45 4012.5C9759.8 3982.83 9650.8 3915.8 9604 3885" stroke="#8C432B" stroke-width="500"/>
<rect x="8712" y="15715" width="135" height="70" transform="rotate(-90 8712 15715)" fill="#BF3232"/>
<path d="M6057.51 11147C6207.01 11048.5 6329.01 10761.5 6361.01 10664C6388.45 10580.4 6400.5 10383.5 6640 10301.5C6908.99 10209.4 7017.01 10339.5 7384.5 10056.5" stroke="#592B21" stroke-width="35"/>
<rect x="6470" y="9464" width="269" height="266" fill="#46A325"/>
<rect x="6068" y="9278" width="269" height="266" fill="#46A325"/>
<rect x="5687" y="9625" width="269" height="266" fill="#46A325"/>
<rect x="5304" y="9787" width="269" height="266" fill="#46A325"/>
<rect x="5513" y="10194" width="269" height="266" fill="#46A325"/>
<rect x="4832" y="9730" width="269" height="266" fill="#46A325"/>
<rect x="4296" y="9758" width="269" height="266" fill="#46A325"/>
<rect x="3798" y="10150" width="269" height="266" fill="#46A325"/>
<rect x="3274" y="11125" width="269" height="266" fill="#46A325"/>
<rect x="2930" y="10757" width="269" height="266" fill="#46A325"/>
<rect x="3124" y="10356" width="269" height="266" fill="#46A325"/>
<rect x="4565" y="10924" width="269" height="266" fill="#46A325"/>
<rect x="4718" y="11298" width="269" height="266" fill="#46A325"/>
<rect x="4410" y="11492" width="269" height="266" fill="#46A325"/>
<rect x="5083" y="11492" width="269" height="266" fill="#46A325"/>
<rect x="3485" y="12381" width="269" height="266" fill="#46A325"/>
<rect x="3124" y="11974" width="269" height="266" fill="#46A325"/>
<rect x="4312" y="12605" width="269" height="266" fill="#46A325"/>
<rect x="3848" y="12770" width="269" height="266" fill="#46A325"/>
<rect x="5573" y="11802" width="269" height="266" fill="#46A325"/>
<rect x="5908" y="11492" width="269" height="266" fill="#46A325"/>
<rect x="6357" y="11298" width="269" height="266" fill="#46A325"/>
<rect x="7373" y="10492" width="269" height="266" fill="#46A325"/>
<rect x="7858" y="10492" width="269" height="266" fill="#46A325"/>
<rect x="8037" y="9359" width="269" height="266" fill="#46A325"/>
<rect x="7589" y="9521" width="269" height="266" fill="#46A325"/>
<rect x="7633" y="10053" width="269" height="266" fill="#46A325"/>
<rect x="6578" y="6774" width="269" height="266" fill="#46A325"/>
<rect x="6177" y="6027" width="269" height="266" fill="#46A325"/>
<rect x="5496" y="11359" width="269" height="266" fill="#46A325"/>
<rect x="8202" y="9787" width="269" height="266" fill="#46A325"/>
<rect x="7902" y="9012" width="269" height="266" fill="#46A325"/>
<rect x="7437" y="8843" width="269" height="266" fill="#46A325"/>
<rect x="7124" y="8746" width="269" height="266" fill="#46A325"/>
<rect x="6959" y="8298" width="269" height="266" fill="#46A325"/>
<rect x="5687" y="8904" width="269" height="266" fill="#46A325"/>
<rect x="5782" y="8298" width="269" height="266" fill="#46A325"/>
<rect x="6309" y="7521" width="269" height="266" fill="#46A325"/>
<rect x="6578" y="7255" width="269" height="266" fill="#46A325"/>
<rect x="7474" y="6588" width="269" height="266" fill="#46A325"/>
<rect x="6629" y="6293" width="269" height="266" fill="#46A325"/>
<rect x="6588" y="5199" width="269" height="266" fill="#46A325"/>
<rect x="5633" y="5630" width="269" height="266" fill="#46A325"/>
<rect x="5728" y="6160" width="269" height="266" fill="#46A325"/>
<rect x="5633" y="4574" width="269" height="266" fill="#46A325"/>
<rect x="6959" y="4933" width="269" height="266" fill="#46A325"/>
<rect x="7743" y="5311" width="269" height="266" fill="#46A325"/>
<rect x="8247" y="5250" width="269" height="266" fill="#46A325"/>
<rect x="7241" y="5535" width="269" height="266" fill="#46A325"/>
<rect x="7042" y="3752" width="269" height="266" fill="#46A325"/>
<rect x="6071" y="4049" width="269" height="266" fill="#46A325"/>
<rect x="7767" y="3855" width="269" height="266" fill="#46A325"/>
<rect x="8551" y="3057" width="269" height="266" fill="#46A325"/>
<rect x="8092" y="3057" width="269" height="266" fill="#46A325"/>
<rect x="8848" y="4077" width="269" height="266" fill="#46A325"/>
<rect x="9637" y="4606" width="269" height="266" fill="#46A325"/>
<rect x="9939" y="3525" width="269" height="266" fill="#46A325"/>
<rect x="10297" y="3471" width="269" height="266" fill="#46A325"/>
<rect x="9731" y="3169" width="269" height="266" fill="#46A325"/>
<rect x="9195" y="2968" width="269" height="266" fill="#46A325"/>
<rect x="8977" y="2578" width="269" height="266" fill="#46A325"/>
<rect x="9033" y="2077" width="269" height="266" fill="#46A325"/>
<rect x="10028" y="2312" width="269" height="266" fill="#46A325"/>
<rect x="9967" y="1874" width="269" height="266" fill="#46A325"/>
<rect x="10461" y="2046" width="269" height="266" fill="#46A325"/>
<rect x="9596" y="1108" width="269" height="266" fill="#46A325"/>
<rect x="9076" y="1108" width="269" height="266" fill="#46A325"/>
<rect x="10101" y="647" width="269" height="266" fill="#46A325"/>
<rect x="10405" y="780" width="269" height="266" fill="#46A325"/>
<rect x="10515" y="345" width="269" height="266" fill="#46A325"/>
<rect x="10270" y="62" width="269" height="266" fill="#46A325"/>
<rect x="11309" y="25" width="269" height="266" fill="#46A325"/>
<rect x="11630" y="611" width="269" height="266" fill="#46A325"/>
<rect x="12035" y="975" width="269" height="266" fill="#46A325"/>
<rect x="11444" y="1932" width="269" height="266" fill="#46A325"/>
<rect x="11899" y="1799" width="269" height="266" fill="#46A325"/>
<rect x="12241" y="1492" width="269" height="266" fill="#46A325"/>
<rect x="10991" y="2285" width="269" height="266" fill="#46A325"/>
<rect x="9625" y="755" width="269" height="266" fill="#46A325"/>
<rect x="9203" y="842" width="269" height="266" fill="#46A325"/>
<rect x="8686" y="1712" width="269" height="266" fill="#46A325"/>
<rect x="8599" y="1944" width="269" height="266" fill="#46A325"/>
<rect x="7527" y="3706" width="269" height="266" fill="#46A325"/>
<rect x="6690" y="3660" width="269" height="266" fill="#46A325"/>
<rect x="6127" y="3722" width="269" height="266" fill="#46A325"/>
<rect x="5217" y="4984" width="269" height="266" fill="#46A325"/>
<rect x="5217" y="5516" width="269" height="266" fill="#46A325"/>
<rect x="4117" y="13141" width="269" height="266" fill="#46A325"/>
<rect x="6043" y="12940" width="269" height="266" fill="#46A325"/>
<rect x="6062" y="12434" width="269" height="266" fill="#46A325"/>
<rect x="5632" y="13206" width="269" height="266" fill="#46A325"/>
<rect x="5981" y="11963" width="269" height="266" fill="#46A325"/>
<rect x="4312" y="13535" width="269" height="266" fill="#46A325"/>
<rect x="4626" y="13995" width="269" height="266" fill="#46A325"/>
<rect x="4292" y="14358" width="269" height="266" fill="#46A325"/>
<rect x="3919" y="14546" width="269" height="266" fill="#46A325"/>
<rect x="5819" y="13862" width="269" height="266" fill="#46A325"/>
<rect x="5927" y="14225" width="269" height="266" fill="#46A325"/>
<rect x="5684" y="14812" width="269" height="266" fill="#46A325"/>
<rect x="4993" y="15214" width="269" height="266" fill="#46A325"/>
<rect x="4357" y="15376" width="269" height="266" fill="#46A325"/>
<rect x="3378" y="14844" width="269" height="266" fill="#46A325"/>
<rect x="3174" y="15178" width="269" height="266" fill="#46A325"/>
<rect x="7861" y="3486" width="269" height="266" fill="#46A325"/>
<rect x="7726" y="4194" width="269" height="266" fill="#46A325"/>
<rect x="10073" y="4645" width="269" height="266" fill="#46A325"/>
<rect x="10753" y="4606" width="269" height="266" fill="#46A325"/>
<rect x="11310" y="3928" width="269" height="266" fill="#46A325"/>
<rect x="11477" y="3281" width="269" height="266" fill="#46A325"/>
<rect x="10933" y="1874" width="269" height="266" fill="#46A325"/>
<rect x="11630" y="1272" width="269" height="266" fill="#46A325"/>
<rect x="7477" y="8032" width="269" height="266" fill="#46A325"/>
<rect x="7831" y="7421" width="269" height="266" fill="#46A325"/>
<rect x="4251" y="10150" width="269" height="266" fill="#46A325"/>
<rect x="3543" y="10758" width="269" height="266" fill="#46A325"/>
<rect x="5289" y="13369" width="269" height="266" fill="#46A325"/>
<path d="M9994.22 1053.2L10037.5 1000.55L10087.4 1002.95L10179.9 1058.71L10155.9 1145.12L10077 1175.18L9992.08 1113.9L9994.22 1053.2Z" fill="#D1C9C3" stroke="#787878" stroke-width="40"/>
<path d="M4975.76 11184.6L5031.21 11132L5108.18 11165.9L5133.55 11223.7L5115.01 11271.9L5035.8 11264L4975.76 11184.6Z" fill="#D1C9C3" stroke="#787878" stroke-width="40"/>
<path d="M4463.92 11269.6L4521.44 11233L4568.07 11250.8L4638.63 11332.6L4588.92 11407.3L4504.53 11411.2L4442.97 11326.6L4463.92 11269.6Z" fill="#D1C9C3" stroke="#787878" stroke-width="40"/>
<path d="M5350.83 13242.7L5610.45 12800.6L5433.22 12696.5L5175.56 13135.2L5173.6 13138.6L5350.83 13242.7Z" fill="#D1C9C3"/>
<path d="M6193.36 8430.7L6355.92 7944.51L6160.99 7879.33L5999.66 8361.85L5998.43 8365.53L6193.36 8430.7Z" fill="#D1C9C3"/>
</g>
<defs>
<clipPath id="clip0_1303_23297">
<rect width="13918" height="15768" fill="white"/>
</clipPath>
</defs>
</svg>
