<svg width="10000" height="10000" viewBox="0 0 10000 10000" fill="none" xmlns="http://www.w3.org/2000/svg">
<g id="floor" clip-path="url(#clip0_1876_2941)">
<g id="Group 127">
<path id="Vector 752" opacity="0.4" d="M1751.66 2344.31L1756.95 2319.19C1781.15 2204.18 1881.78 2121.27 1999.3 2119.52C2059.98 2118.61 2118.94 2139.68 2165.3 2178.84L2198.3 2206.7C2306.63 2298.19 2325.61 2457.94 2241.73 2572.26C2148.25 2699.66 1965.76 2719.75 1846.81 2615.74L1840.5 2610.22C1764.97 2544.18 1731 2442.49 1751.66 2344.31Z" fill="#D9A692"/>
<path id="Vector 752_2" opacity="0.4" d="M1778.75 4608.49L2091.46 4263.58C2235.89 4104.28 2480.42 4087.67 2645.07 4225.97L2665.71 4243.31C2690.15 4263.84 2712.04 4287.21 2730.92 4312.94L3052.32 4750.88C3189.55 4937.88 3139.47 5202.02 2943.32 5325.81L2701.85 5478.21C2571.02 5560.78 2404.3 5560.5 2273.75 5477.49L1860.47 5214.71C1651.2 5081.66 1612.18 4792.21 1778.75 4608.49Z" fill="#D9A692"/>
<path id="Vector 753" opacity="0.4" d="M3520.58 3542.85L3702.88 3285.6C3737.51 3236.73 3782.67 3196.27 3835.03 3167.19L4049.14 3048.27C4109 3015.03 4176.38 2997.71 4244.85 2997.97L4775.69 2999.96C5027.99 3000.9 5216.41 3232.34 5166.18 3479.6L5126.69 3673.96C5102.47 3793.18 5025.31 3894.89 4917.03 3950.35L4303.29 4264.66C4190.94 4322.2 4058.02 4323.33 3944.7 4267.71L3670.68 4133.2C3449.52 4024.63 3378.13 3743.87 3520.58 3542.85Z" fill="#D9A692"/>
<path id="Vector 761" opacity="0.4" d="M4584.01 6906.39L4790.89 7033.73C4841.53 7064.9 4884.58 7106.97 4916.91 7156.87L5031.04 7333.01C5068.14 7390.27 5089.98 7456.08 5094.47 7524.17L5122.93 7955.53C5139.62 8208.45 4919.86 8412.92 4668.79 8378.06L4547.03 8361.16C4427.32 8344.54 4321.55 8274.68 4259.26 8171.11L3948.95 7655.15C3883.89 7546.97 3873.71 7414.43 3921.5 7297.58L4004.1 7095.62C4097.56 6867.07 4373.73 6776.96 4584.01 6906.39Z" fill="#D9A692"/>
<path id="Vector 754" opacity="0.4" d="M4117.68 5204.48L4210.59 5036.35C4301.33 4872.14 4493.99 4793.06 4673.92 4846.17L5128.98 4980.47C5232.52 5011.03 5319.3 5082.13 5369.63 5177.63L5531.67 5485.12C5625.77 5663.69 5572.08 5884.4 5406.46 5999.79L5181.94 6156.23C5096.33 6215.88 4990.81 6239.71 4887.87 6222.66L4558.33 6168.04C4422.16 6145.48 4307.25 6054.3 4254.31 5926.84L4098.38 5551.35C4051.64 5438.82 4058.75 5311.13 4117.68 5204.48Z" fill="#D9A692"/>
<path id="Vector 765" opacity="0.4" d="M2671.75 7060.91L2863.23 7076.21C3050.24 7091.15 3201.74 7234.05 3227.57 7419.87L3292.89 7889.81C3307.75 7996.74 3278.77 8105.12 3212.52 8190.36L2999.23 8464.78C2875.36 8624.15 2652.15 8666.26 2478.73 8562.98L2243.62 8422.96C2153.97 8369.57 2088.74 8283.26 2061.83 8182.45L1975.67 7859.72C1940.07 7726.36 1975.74 7584.08 2070.03 7483.29L2347.78 7186.38C2431.03 7097.39 2550.29 7051.2 2671.75 7060.91Z" fill="#D9A692"/>
<path id="Vector 755" opacity="0.4" d="M818.398 5336.87L1363.95 5303.25C1610.75 5288.04 1800.91 5517.49 1740.17 5757.17C1702.78 5904.72 1760.89 6059.98 1885.96 6146.73L2158.2 6335.53C2408.67 6509.23 2374.06 6889.72 2096.37 7015.38C2007.34 7055.67 1906.48 7061.29 1813.53 7031.13L719.564 6676.22C554.668 6622.73 443 6469.1 443 6295.75L443 5736.11C443 5524.75 607.438 5349.87 818.398 5336.87Z" fill="#D9A692"/>
<path id="Vector 762" opacity="0.4" d="M7067.82 7031.99L6680.24 7186.97C6600.62 7218.81 6512.87 7224.22 6429.94 7202.39L5917.89 7067.66C5798.77 7036.32 5700.73 6951.84 5652.13 6838.66L5597.48 6711.41C5477.46 6431.9 5700.98 6126.01 6003.74 6155.46L6141.91 6168.89C6308.31 6185.07 6466.35 6092.82 6534.09 5939.97C6637.18 5707.31 6932.61 5635.29 7131.22 5794.39L7250.99 5890.33C7365.26 5981.87 7420.39 6128.53 7394.71 6272.67L7313.11 6730.74C7288.87 6866.79 7196.13 6980.69 7067.82 7031.99Z" fill="#D9A692"/>
<path id="Vector 756" opacity="0.4" d="M2934.43 5989.62L3165.12 5627.21C3220.38 5540.4 3313.73 5485.15 3416.42 5478.45C3605.06 5466.16 3763.84 5617.89 3760.12 5806.9L3750.74 6283.02C3747.1 6467.61 3617.6 6625.73 3437.35 6665.67L3391.62 6675.8C3201.71 6717.88 3009.05 6617.23 2935.12 6437.31L2901.89 6356.46C2852.45 6236.16 2864.59 6099.34 2934.43 5989.62Z" fill="#D9A692"/>
<path id="Vector 757" opacity="0.4" d="M2460.97 2654.74L2799.45 2016.5C2863.76 1895.24 2985.75 1815.42 3122.62 1805.05L3222.82 1797.46C3367.54 1786.5 3506.84 1854.78 3586.82 1975.89L3718.42 2175.17C3814.25 2320.27 3805.36 2510.65 3696.42 2646.19L3479.14 2916.54C3430.28 2977.32 3364.73 3022.5 3290.54 3046.52L2896.68 3174.01C2694.48 3239.46 2479.27 3119.36 2428.81 2912.92C2407.52 2825.82 2418.96 2733.94 2460.97 2654.74Z" fill="#D9A692"/>
<path id="Vector 758" opacity="0.4" d="M5895.8 4389.55L5835.52 4081.04C5810.71 3954.06 5848.85 3822.92 5937.89 3729.05L6161.81 3493C6234.21 3416.68 6333.75 3371.95 6438.88 3368.5L6748.92 3358.31C7000.83 3350.03 7197.53 3573.99 7156.8 3822.73L7133.71 3963.74C7124.56 4019.61 7103.65 4072.91 7072.37 4120.1L6794.9 4538.7C6718.6 4653.82 6588.31 4721.43 6450.26 4717.55L6277.14 4712.69C6090.09 4707.43 5931.68 4573.2 5895.8 4389.55Z" fill="#D9A692"/>
<path id="Vector 759" opacity="0.4" d="M7270.32 5630.18L7194.6 5595.25C6978.23 5495.44 6917.97 5216.05 7073.96 5035.93C7224.09 4862.58 7496.23 4873.16 7632.45 5057.64L7681.98 5124.72C7739.09 5202.07 7760.39 5300.15 7740.5 5394.22C7695.82 5605.54 7466.45 5720.65 7270.32 5630.18Z" fill="#D9A692"/>
<path id="Vector 760" opacity="0.4" d="M2555.55 3616.66L2579 3559.54C2645.98 3396.29 2850.78 3342.85 2988.99 3452.56C3122 3558.14 3122.8 3759.82 2990.62 3866.45L2942.56 3905.22C2887.14 3949.92 2815.25 3968.79 2745.03 3957.06C2587.26 3930.7 2494.83 3764.64 2555.55 3616.66Z" fill="#D9A692"/>
<path id="Vector 766" opacity="0.4" d="M8521.41 2892.3L9086.27 3487.97C9232.14 3641.79 9232.67 3882.7 9087.48 4037.17L8588.37 4568.15C8489.51 4673.32 8341.65 4717.07 8201.48 4682.63L7832.16 4591.89C7610.89 4537.53 7479.66 4309.61 7543.74 4090.96L7847.3 3055.05C7934.06 2759 8309.13 2668.44 8521.41 2892.3Z" fill="#D9A692"/>
<path id="Vector 767" opacity="0.4" d="M7532.7 8806.21L7008.44 9437.91C6873.06 9601.04 6633.92 9630.22 6463.28 9504.43L5876.71 9072.01C5760.53 8986.36 5699.5 8844.76 5717.02 8701.49L5763.19 8324C5790.85 8097.84 6001.55 7940.43 6226.27 7978.04L7290.93 8156.25C7595.2 8207.18 7729.72 8568.82 7532.7 8806.21Z" fill="#D9A692"/>
<path id="Vector 768" opacity="0.4" d="M9427.53 6190.25L9041.25 6152.62C8857.75 6134.74 8710.23 5993.76 8684.08 5811.25L8618.21 5351.68C8594.59 5186.9 8675.5 5024.72 8821.34 4944.47L8916.31 4892.22C9099.89 4791.22 9330.3 4849 9444.5 5024.67L9801.68 5574.12C9984.36 5855.14 9761.13 6222.75 9427.53 6190.25Z" fill="#D9A692"/>
<path id="Vector 769" opacity="0.4" d="M8536.88 8682.18L8100.83 7830.38C8016.81 7666.26 8055.86 7465.98 8195.36 7345.44L8630.46 6969.49C8756.42 6860.65 8936.62 6841.2 9082.9 6920.66L9418.85 7103.12C9518 7156.98 9589.8 7250.2 9616.54 7359.82L9797.86 8103.1C9839.77 8274.92 9763.87 8453.87 9611.21 8543.17L9094.89 8845.18C8896.59 8961.17 8641.56 8886.67 8536.88 8682.18Z" fill="#D9A692"/>
<path id="Vector 770" opacity="0.4" d="M7043.85 7410.82L7105.92 7313.29C7181.12 7195.11 7327.36 7143.65 7460.01 7188.68L7473.22 7193.16C7585.03 7231.12 7661.65 7334.36 7665.59 7452.38C7668.26 7532.37 7637.02 7609.77 7579.57 7665.5L7477.71 7764.3C7388.29 7851.04 7252.53 7868.76 7143.85 7807.88C7002.68 7728.8 6956.98 7547.33 7043.85 7410.82Z" fill="#D9A692"/>
<path id="Vector 771" opacity="0.4" d="M7798.47 6135.24L7924 6009.19C8106.4 5826.04 8412.01 5861.39 8547.79 6081.33L8558.48 6098.65C8617.81 6194.75 8633.74 6311.45 8602.36 6419.94L8532.58 6661.1C8503.11 6762.97 8434.39 6848.96 8341.53 6900.18L8332.46 6905.18C8124 7020.17 7861.86 6928.73 7770.14 6709.03L7712.77 6571.6C7650.4 6422.2 7684.23 6249.95 7798.47 6135.24Z" fill="#D9A692"/>
<path id="Vector 763" opacity="0.4" d="M4539.55 2204.66L4563 2147.54C4629.98 1984.29 4834.78 1930.85 4972.99 2040.56C5106 2146.14 5106.8 2347.82 4974.62 2454.45L4926.56 2493.22C4871.14 2537.92 4799.25 2556.79 4729.03 2545.06C4571.26 2518.7 4478.83 2352.64 4539.55 2204.66Z" fill="#D9A692"/>
<path id="Vector 764" opacity="0.4" d="M6394.56 5671.83L6223.82 5718.88C5988.9 5783.62 5754.56 5613.82 5742.9 5370.42C5737.7 5261.88 5779.18 5156.3 5856.87 5080.32L5915.47 5023.01C6039.17 4902.03 6226.64 4874.3 6380.07 4954.29L6466.03 4999.11C6609.99 5074.16 6686.72 5235.58 6654.03 5394.6C6626.52 5528.43 6526.28 5635.53 6394.56 5671.83Z" fill="#D9A692"/>
</g>
<g id="road">
<g id="level0Road0">
<path id="Vector 756_2" d="M2170.5 4894.81C2169.97 5110.58 2169.98 5223.16 2171 5395.99C2171 5902.21 2726.5 6227.41 3162.2 6118.21C3706.83 5981.72 4083.17 6502.52 3918.85 7211.49C3754.53 7920.47 4800.06 8036.42 5156.52 7715.73C5512.98 7395.03 5405.65 7059.09 5181.04 6662.86C4956.43 6266.63 5156.52 5861.79 5789.27 5878.35C6422.02 5894.92 6341.85 6642.99 6866.6 6795.38C7286.41 6917.3 7749.39 6726.48 7815.4 6486.61C7881.41 6246.75 8005.42 5796.59 8108.25 5437.73C8236.79 4989.15 7683.55 4400.1 7086.58 4484.25C6489.6 4568.4 5949.61 4235.78 5929.74 3943.58C5909.86 3651.37 5557.37 3226.65 4764.28 3551.32C4146.3 3804.31 3503.42 3359.17 3567.03 2693.93C3630.63 2028.68 2581.79 1961.1 2337.3 2601.83C2159.94 3066.65 3006.38 3244.92 2733.52 3739.5C2521.5 4123.8 2171 4203.98 2171 4600.21C2172.05 4827.85 2171.75 4938.41 2170.73 5126.31M3458.5 2295.31C4347 1998.31 4166.54 1693.56 4790.5 1757.31C5078 1786.68 5233.45 2170.81 5105 2373.31C4924.6 2657.71 5108 3132.31 5289 3410.31M3389 6058.5V5734" stroke="black" stroke-opacity="0.04" stroke-width="410" stroke-linecap="round"/>
</g>
<g id="level0Road0_2">
<path id="Vector 756_3" d="M2170.5 4894.81C2169.97 5110.58 2169.98 5223.16 2171 5395.99C2171 5902.21 2726.5 6227.41 3162.2 6118.21C3706.83 5981.72 4083.17 6502.52 3918.85 7211.49C3754.53 7920.47 4800.06 8036.42 5156.52 7715.73C5512.98 7395.03 5405.65 7059.09 5181.04 6662.86C4956.43 6266.63 5156.52 5861.79 5789.27 5878.35C6422.02 5894.92 6341.85 6642.99 6866.6 6795.38C7286.41 6917.3 7749.39 6726.48 7815.4 6486.61C7881.41 6246.75 8005.42 5796.59 8108.25 5437.73C8236.79 4989.15 7683.55 4400.1 7086.58 4484.25C6489.6 4568.4 5949.61 4235.78 5929.74 3943.58C5909.86 3651.37 5557.37 3226.65 4764.28 3551.32C4146.3 3804.31 3503.42 3359.17 3567.03 2693.93C3630.63 2028.68 2581.79 1961.1 2337.3 2601.83C2159.94 3066.65 3006.38 3244.92 2733.52 3739.5C2521.5 4123.8 2171 4203.98 2171 4600.21C2172.05 4827.85 2171.75 4938.41 2170.73 5126.31M3458.5 2295.31C4347 1998.31 4166.54 1693.56 4790.5 1757.31C5078 1786.68 5233.45 2170.81 5105 2373.31C4924.6 2657.71 5108 3132.31 5289 3410.31M3389 6058.5V5734" stroke="#1B4A67" stroke-width="310" stroke-linecap="round"/>
</g>
<g id="level0Road0_3">
<path id="Vector 756_4" d="M2170.5 4894.5C2169.97 5110.27 2169.98 5222.85 2171 5395.68C2171 5901.9 2726.5 6227.1 3162.2 6117.9C3706.83 5981.41 4083.17 6502.21 3918.85 7211.18C3754.53 7920.16 4800.06 8036.11 5156.52 7715.42C5512.98 7394.72 5405.65 7058.79 5181.04 6662.55C4956.43 6266.32 5156.52 5861.48 5789.27 5878.04C6422.02 5894.61 6341.85 6642.68 6866.6 6795.07C7286.41 6916.99 7749.39 6726.17 7815.4 6486.3C7881.41 6246.44 8005.42 5796.28 8108.25 5437.42C8236.79 4988.84 7683.55 4399.8 7086.58 4483.94C6489.6 4568.09 5949.61 4235.47 5929.74 3943.27C5909.86 3651.06 5557.37 3226.34 4764.28 3551.01C4146.29 3804 3503.42 3358.86 3567.03 2693.62C3630.63 2028.37 2581.79 1960.79 2337.3 2601.52C2159.94 3066.34 3006.38 3244.61 2733.52 3739.19C2521.5 4123.49 2171 4203.67 2171 4599.9C2172.05 4827.55 2171.75 4938.1 2170.73 5126M3458.5 2295C4347 1998 4166.54 1693.25 4790.5 1757C5078 1786.37 5233.45 2170.5 5105 2373C4924.6 2657.4 5108 3132 5289 3410M3389 6058.19V5733.69" stroke="#1C506F" stroke-width="200" stroke-linecap="round"/>
</g>
</g>
<g id="Group 147">
<rect id="Rectangle 2188" x="2927" y="1862" width="197" height="189" rx="10" fill="#1B4A68"/>
<rect id="Rectangle 2189" x="2975" y="1862" width="100" height="204" fill="#1C506F"/>
</g>
<g id="Group 148">
<rect id="Rectangle 2188_2" x="8509" y="5214" width="202" height="281" rx="10" transform="rotate(90 8509 5214)" fill="#1B4A68"/>
<rect id="Rectangle 2189_2" x="8509" y="5257" width="115" height="303" transform="rotate(90 8509 5257)" fill="#1C506F"/>
</g>
<g id="Group 149">
<rect id="Rectangle 2188_3" x="4516" y="4002" width="202" height="281" rx="10" transform="rotate(-180 4516 4002)" fill="#1B4A68"/>
<rect id="Rectangle 2189_3" x="4473" y="4002" width="115" height="303" transform="rotate(-180 4473 4002)" fill="#1C506F"/>
</g>
</g>
<defs>
<clipPath id="clip0_1876_2941">
<rect width="10000" height="10000" fill="white"/>
</clipPath>
</defs>
</svg>
