<svg width="12857" height="11078" viewBox="0 0 12857 11078" fill="none" xmlns="http://www.w3.org/2000/svg">
<g id="floor">
<g id="Group 127">
<path id="Vector 752" opacity="0.4" d="M2774.66 2883.31L2779.95 2858.19C2804.15 2743.18 2904.78 2660.27 3022.3 2658.52C3082.98 2657.61 3141.94 2678.68 3188.3 2717.84L3221.3 2745.7C3329.63 2837.19 3348.61 2996.94 3264.73 3111.26C3171.25 3238.66 2988.76 3258.75 2869.81 3154.74L2863.5 3149.22C2787.97 3083.18 2754 2981.49 2774.66 2883.31Z" fill="#D9A692"/>
<path id="Vector 752_2" opacity="0.4" d="M2801.75 5147.49L3114.46 4802.58C3258.89 4643.28 3503.42 4626.67 3668.07 4764.97L3688.71 4782.31C3713.15 4802.84 3735.04 4826.21 3753.92 4851.94L4075.32 5289.88C4212.55 5476.88 4162.47 5741.02 3966.32 5864.81L3724.85 6017.21C3594.02 6099.78 3427.3 6099.5 3296.75 6016.49L2883.47 5753.71C2674.2 5620.66 2635.18 5331.21 2801.75 5147.49Z" fill="#D9A692"/>
<path id="Vector 753" opacity="0.4" d="M4543.58 4081.85L4725.88 3824.6C4760.51 3775.73 4805.67 3735.27 4858.03 3706.19L5072.14 3587.27C5132 3554.03 5199.38 3536.71 5267.85 3536.97L5798.69 3538.96C6050.99 3539.9 6239.41 3771.34 6189.18 4018.6L6149.69 4212.96C6125.47 4332.18 6048.31 4433.89 5940.03 4489.35L5326.29 4803.66C5213.94 4861.2 5081.02 4862.33 4967.7 4806.71L4693.68 4672.2C4472.52 4563.63 4401.13 4282.87 4543.58 4081.85Z" fill="#D9A692"/>
<path id="Vector 761" opacity="0.4" d="M5607.01 7445.39L5813.89 7572.73C5864.53 7603.9 5907.58 7645.97 5939.91 7695.87L6054.04 7872.01C6091.14 7929.27 6112.98 7995.08 6117.47 8063.17L6145.93 8494.53C6162.62 8747.45 5942.86 8951.92 5691.79 8917.06L5570.03 8900.16C5450.32 8883.54 5344.55 8813.68 5282.26 8710.11L4971.95 8194.15C4906.89 8085.97 4896.71 7953.43 4944.5 7836.58L5027.1 7634.62C5120.56 7406.07 5396.73 7315.96 5607.01 7445.39Z" fill="#D9A692"/>
<path id="Vector 754" opacity="0.4" d="M5140.68 5743.48L5233.59 5575.35C5324.33 5411.14 5516.99 5332.06 5696.92 5385.17L6151.98 5519.47C6255.52 5550.03 6342.3 5621.13 6392.63 5716.63L6554.67 6024.12C6648.77 6202.69 6595.08 6423.4 6429.46 6538.79L6204.94 6695.23C6119.33 6754.88 6013.81 6778.71 5910.87 6761.66L5581.33 6707.04C5445.16 6684.48 5330.25 6593.3 5277.31 6465.84L5121.38 6090.35C5074.64 5977.82 5081.75 5850.13 5140.68 5743.48Z" fill="#D9A692"/>
<path id="Vector 765" opacity="0.4" d="M3694.75 7599.91L3886.23 7615.21C4073.24 7630.15 4224.74 7773.05 4250.57 7958.87L4315.89 8428.81C4330.75 8535.74 4301.77 8644.12 4235.52 8729.36L4022.23 9003.78C3898.36 9163.15 3675.15 9205.26 3501.73 9101.98L3266.62 8961.96C3176.97 8908.57 3111.74 8822.26 3084.83 8721.45L2998.67 8398.72C2963.07 8265.36 2998.74 8123.08 3093.03 8022.29L3370.78 7725.38C3454.03 7636.39 3573.29 7590.2 3694.75 7599.91Z" fill="#D9A692"/>
<path id="Vector 755" opacity="0.4" d="M1841.4 5875.87L2386.95 5842.25C2633.75 5827.04 2823.91 6056.49 2763.17 6296.17C2725.78 6443.72 2783.89 6598.98 2908.96 6685.73L3181.2 6874.53C3431.67 7048.23 3397.06 7428.72 3119.37 7554.38C3030.34 7594.67 2929.48 7600.29 2836.53 7570.13L1742.56 7215.22C1577.67 7161.73 1466 7008.1 1466 6834.75L1466 6275.11C1466 6063.75 1630.44 5888.87 1841.4 5875.87Z" fill="#D9A692"/>
<path id="Vector 762" opacity="0.4" d="M8090.82 7570.99L7703.24 7725.97C7623.62 7757.81 7535.87 7763.22 7452.94 7741.39L6940.89 7606.66C6821.77 7575.32 6723.73 7490.84 6675.13 7377.66L6620.48 7250.41C6500.46 6970.9 6723.98 6665.01 7026.74 6694.46L7164.91 6707.89C7331.31 6724.07 7489.35 6631.82 7557.09 6478.97C7660.18 6246.31 7955.61 6174.29 8154.22 6333.39L8273.99 6429.33C8388.26 6520.87 8443.39 6667.53 8417.71 6811.67L8336.11 7269.74C8311.87 7405.79 8219.13 7519.69 8090.82 7570.99Z" fill="#D9A692"/>
<path id="Vector 756" opacity="0.4" d="M3957.43 6528.62L4188.12 6166.21C4243.38 6079.4 4336.73 6024.15 4439.42 6017.45C4628.06 6005.16 4786.84 6156.89 4783.12 6345.9L4773.74 6822.02C4770.1 7006.61 4640.6 7164.73 4460.35 7204.67L4414.62 7214.8C4224.71 7256.88 4032.05 7156.23 3958.12 6976.31L3924.89 6895.46C3875.45 6775.16 3887.59 6638.34 3957.43 6528.62Z" fill="#D9A692"/>
<path id="Vector 757" opacity="0.4" d="M3483.97 3193.74L3822.45 2555.5C3886.76 2434.24 4008.75 2354.42 4145.62 2344.05L4245.82 2336.46C4390.54 2325.5 4529.84 2393.78 4609.82 2514.89L4741.42 2714.17C4837.25 2859.27 4828.36 3049.65 4719.42 3185.19L4502.14 3455.54C4453.28 3516.32 4387.73 3561.5 4313.54 3585.52L3919.68 3713.01C3717.48 3778.46 3502.27 3658.36 3451.81 3451.92C3430.52 3364.82 3441.96 3272.94 3483.97 3193.74Z" fill="#D9A692"/>
<path id="Vector 758" opacity="0.4" d="M6918.8 4928.55L6858.52 4620.04C6833.71 4493.06 6871.85 4361.92 6960.89 4268.05L7184.81 4032C7257.21 3955.68 7356.75 3910.95 7461.88 3907.5L7771.92 3897.31C8023.83 3889.03 8220.53 4112.99 8179.8 4361.73L8156.71 4502.74C8147.56 4558.61 8126.65 4611.91 8095.37 4659.1L7817.9 5077.7C7741.6 5192.82 7611.31 5260.43 7473.26 5256.55L7300.14 5251.69C7113.09 5246.43 6954.68 5112.2 6918.8 4928.55Z" fill="#D9A692"/>
<path id="Vector 759" opacity="0.4" d="M8293.32 6169.18L8217.6 6134.25C8001.23 6034.44 7940.97 5755.05 8096.96 5574.93C8247.09 5401.58 8519.23 5412.16 8655.45 5596.64L8704.98 5663.72C8762.09 5741.07 8783.39 5839.15 8763.5 5933.22C8718.82 6144.54 8489.45 6259.65 8293.32 6169.18Z" fill="#D9A692"/>
<path id="Vector 760" opacity="0.4" d="M3578.55 4155.66L3602 4098.54C3668.98 3935.29 3873.78 3881.85 4011.99 3991.56C4145 4097.14 4145.8 4298.82 4013.62 4405.45L3965.56 4444.22C3910.14 4488.92 3838.25 4507.79 3768.03 4496.06C3610.26 4469.7 3517.83 4303.64 3578.55 4155.66Z" fill="#D9A692"/>
<path id="Vector 766" opacity="0.4" d="M9544.41 3431.3L10109.3 4026.97C10255.1 4180.79 10255.7 4421.7 10110.5 4576.17L9611.37 5107.15C9512.51 5212.32 9364.65 5256.07 9224.48 5221.63L8855.16 5130.89C8633.89 5076.53 8502.66 4848.61 8566.74 4629.96L8870.3 3594.05C8957.06 3298 9332.13 3207.44 9544.41 3431.3Z" fill="#D9A692"/>
<path id="Vector 767" opacity="0.4" d="M8555.7 9345.21L8031.44 9976.91C7896.06 10140 7656.92 10169.2 7486.28 10043.4L6899.71 9611.01C6783.53 9525.36 6722.5 9383.76 6740.02 9240.49L6786.19 8863C6813.85 8636.84 7024.55 8479.43 7249.27 8517.04L8313.93 8695.25C8618.2 8746.18 8752.72 9107.82 8555.7 9345.21Z" fill="#D9A692"/>
<path id="Vector 768" opacity="0.4" d="M10450.5 6729.25L10064.2 6691.62C9880.75 6673.74 9733.23 6532.76 9707.08 6350.25L9641.21 5890.68C9617.59 5725.9 9698.5 5563.72 9844.34 5483.47L9939.31 5431.22C10122.9 5330.22 10353.3 5388 10467.5 5563.67L10824.7 6113.12C11007.4 6394.14 10784.1 6761.75 10450.5 6729.25Z" fill="#D9A692"/>
<path id="Vector 769" opacity="0.4" d="M9559.88 9221.18L9123.83 8369.38C9039.81 8205.26 9078.86 8004.98 9218.36 7884.44L9653.46 7508.49C9779.42 7399.65 9959.62 7380.2 10105.9 7459.66L10441.8 7642.12C10541 7695.98 10612.8 7789.2 10639.5 7898.82L10820.9 8642.1C10862.8 8813.92 10786.9 8992.87 10634.2 9082.17L10117.9 9384.18C9919.59 9500.17 9664.56 9425.67 9559.88 9221.18Z" fill="#D9A692"/>
<path id="Vector 770" opacity="0.4" d="M8066.85 7949.82L8128.92 7852.29C8204.12 7734.11 8350.36 7682.65 8483.01 7727.68L8496.22 7732.16C8608.03 7770.12 8684.65 7873.36 8688.59 7991.38C8691.26 8071.37 8660.02 8148.77 8602.57 8204.5L8500.71 8303.3C8411.29 8390.04 8275.53 8407.76 8166.85 8346.88C8025.68 8267.8 7979.98 8086.33 8066.85 7949.82Z" fill="#D9A692"/>
<path id="Vector 771" opacity="0.4" d="M8821.47 6674.24L8947 6548.19C9129.4 6365.04 9435.01 6400.39 9570.79 6620.33L9581.48 6637.65C9640.81 6733.75 9656.74 6850.45 9625.36 6958.94L9555.58 7200.1C9526.11 7301.97 9457.39 7387.96 9364.53 7439.18L9355.46 7444.18C9147 7559.17 8884.86 7467.73 8793.14 7248.03L8735.77 7110.6C8673.4 6961.2 8707.23 6788.95 8821.47 6674.24Z" fill="#D9A692"/>
<path id="Vector 763" opacity="0.4" d="M5562.55 2743.66L5586 2686.54C5652.98 2523.29 5857.78 2469.85 5995.99 2579.56C6129 2685.14 6129.8 2886.82 5997.62 2993.45L5949.56 3032.22C5894.14 3076.92 5822.25 3095.79 5752.03 3084.06C5594.26 3057.7 5501.83 2891.64 5562.55 2743.66Z" fill="#D9A692"/>
<path id="Vector 764" opacity="0.4" d="M7417.56 6210.83L7246.82 6257.88C7011.9 6322.62 6777.56 6152.82 6765.9 5909.42C6760.7 5800.88 6802.18 5695.3 6879.87 5619.32L6938.47 5562.01C7062.17 5441.03 7249.64 5413.3 7403.07 5493.29L7489.03 5538.11C7632.99 5613.16 7709.72 5774.58 7677.03 5933.6C7649.52 6067.43 7549.28 6174.53 7417.56 6210.83Z" fill="#D9A692"/>
</g>
<g id="road">
<path id="Union" fill-rule="evenodd" clip-rule="evenodd" d="M6219.5 761C6219.5 647.782 6127.72 556 6014.5 556C5901.28 556 5809.5 647.782 5809.5 761V761.874V762.749V763.626V764.505V765.385V766.267V767.151V768.036V768.922V769.81V770.7V771.592V772.484V773.379V774.275V775.173V776.072V776.973V777.876V778.78V779.685V780.593V781.501V782.412V783.324V784.237V785.152V786.069V786.987V787.907V788.828V789.751V790.676V791.602V792.53V793.459V794.39V795.322V796.256V797.191V798.128V799.067V800.007V800.948V801.892V802.836V803.783V804.73V805.68V806.631V807.583V808.537V809.493V810.45V811.409V812.369V813.33V814.294V815.259V816.225V817.193V818.162V819.133V820.105V821.079V822.055V823.032V824.01V824.99V825.972V826.955V827.94V828.926V829.914V830.903V831.894V832.886V833.88V834.875V835.871V836.87V837.87V838.871V839.874V840.878V841.884V842.891V843.9V844.91V845.922V846.935V847.95V848.966V849.984V851.003V852.024V853.046V854.07V855.095V856.122V857.15V858.18V859.211V860.243V861.278V862.313V863.35V864.389V865.429V866.47V867.513V868.558V869.604V870.651V871.7V872.75V873.802V874.855V875.91V876.966V878.024V879.083V880.144V881.206V882.269V883.334V884.401V885.469V886.538V887.609V888.681V889.755V890.83V891.906V892.984V894.064V895.145V896.227V897.311V898.396V899.483V900.571V901.661V902.752V903.844V904.938V906.033V907.13V908.228V909.328V910.429V911.531V912.635V913.74V914.847V915.955V917.065V918.176V919.288V920.402V921.517V922.634V923.752V924.871V925.992V927.114V928.238V929.363V930.49V931.618V932.747V933.878V935.01V936.143V937.278V938.415V939.552V940.691V941.832V942.974V944.117V945.262V946.408V947.555V948.704V949.854V951.006V952.159V953.314V954.469V955.627V956.785V957.945V959.106V960.269V961.433V962.599V963.765V964.933V966.103V967.274V968.446V969.62V970.795V971.971V973.149V974.328V975.509V976.691V977.874V979.058V980.244V981.431V982.62V983.81V985.001V986.194V987.388V988.583V989.78V990.978V992.178V993.378V994.581V995.784V996.989V998.195V999.402V1000.61V1001.82V1003.03V1004.25V1005.46V1006.68V1007.89V1009.11V1010.33V1011.55V1012.77V1014V1015.22V1016.45V1017.67V1018.9V1020.13V1021.36V1022.6V1023.83V1025.07V1026.3V1027.54V1028.78V1030.02V1031.26V1032.51V1033.75V1035V1036.24V1037.49V1038.74V1039.99V1041.24V1042.5V1043.75V1045.01V1046.27V1047.52V1048.78V1050.05V1051.31V1052.57V1053.84V1055.1V1056.37V1057.64V1058.91V1060.18V1061.46V1062.73V1064.01V1065.28V1066.56V1067.84V1069.12V1070.4V1071.69V1072.97V1074.26V1075.54V1076.83V1078.12V1079.41V1080.7V1082V1083.29V1084.59V1085.88V1087.18V1088.48V1089.78V1091.08V1092.39V1093.69V1095V1096.3V1097.61V1098.92V1100.23V1101.54V1102.86V1104.17V1105.49V1106.81V1108.12V1109.44V1110.76V1112.09V1113.41V1114.73V1116.06V1117.39V1118.71V1120.04V1121.37V1122.71V1124.04V1125.37V1126.71V1128.04V1129.38V1130.72V1132.06V1133.4V1134.75V1136.09V1137.43V1138.78V1140.13V1141.48V1142.83V1144.18V1145.53V1146.88V1148.24V1149.6V1150.95V1152.31V1153.67V1155.03V1156.39V1157.76V1159.12V1160.49V1161.85V1163.22V1164.59V1165.96V1167.33V1168.71V1170.08V1171.45V1172.83V1174.21V1175.59V1176.97V1178.35V1179.73V1181.11V1182.5V1183.88V1185.27V1186.66V1188.05V1189.44V1190.83V1192.22V1193.62V1195.01V1196.41V1197.81V1199.2V1200.6V1202V1203.41V1204.81V1206.21V1207.62V1209.03V1210.43V1211.84V1213.25V1214.66V1216.08V1217.49V1218.9V1220.32V1221.74V1223.16V1224.57V1225.99V1227.42V1228.84V1230.26V1231.69V1233.11V1234.54V1235.97V1237.4V1238.83V1240.26V1241.69V1243.13V1244.56V1246V1247.44V1248.87V1250.31V1251.75V1253.2V1254.64V1256.08V1257.53V1258.97V1260.42V1261.87V1263.32V1264.77V1266.22V1267.68V1269.13V1270.58V1272.04V1273.5V1274.96V1276.42V1277.88V1279.34V1280.8V1282.26V1283.73V1285.2V1286.66V1288.13V1289.6V1291.07V1292.54V1294.01V1295.49V1296.96V1298.44V1299.92V1301.39V1302.87V1304.35V1305.83V1307.32V1308.8V1310.28V1311.77V1313.26V1314.74V1316.23V1317.72V1319.21V1320.7V1322.2V1323.69V1325.19V1326.68V1328.18V1329.68V1331.18V1332.68V1334.18V1335.68V1337.18V1338.69V1340.2V1341.7V1343.21V1344.72V1346.23V1347.74V1349.25V1350.76V1352.28V1353.79V1355.31V1356.83V1358.34V1359.86V1361.38V1362.9V1364.43V1365.95V1367.47V1369V1370.52V1372.05V1373.58V1375.11V1376.64V1378.17V1379.7V1381.24V1382.77V1384.31V1385.84V1387.38V1388.92V1390.46V1392C5809.5 1506.43 5795.39 1566.39 5784.57 1598.16C5779.11 1614.18 5773.26 1626.69 5766.59 1639.46C5766.12 1640.35 5765.05 1642.31 5763.57 1645.04C5757.31 1656.55 5743.63 1681.72 5736.12 1698.14L5736.11 1698.15C5736.06 1698.25 5735.72 1698.96 5734.95 1700.45C5733.98 1702.32 5732.61 1704.85 5730.64 1708.41C5727.92 1713.31 5725.82 1717.02 5723.27 1721.51L5723.26 1721.53C5720.92 1725.65 5718.21 1730.44 5714.3 1737.41C5700.47 1762.11 5682.83 1794.68 5664.24 1836.01C5640.91 1887.87 5617.42 1950.46 5596.36 2027.84C5587.14 2061.71 5557.94 2086.37 5523.14 2090.98C5483.52 2096.22 5445.89 2103.95 5409.67 2114.32C5288.96 2148.87 5201.35 2208.14 5124.63 2264.29C5111.01 2274.26 5097.26 2284.51 5083.15 2295.03L5083.12 2295.05C4964.93 2383.17 4822.14 2489.62 4526.87 2600.2C4503.78 2608.84 4478.07 2605.77 4456.54 2593.76C4396.92 2560.51 4333.01 2535.73 4267.38 2518.75C4229.88 2509.05 4202 2476.28 4202 2437.54V2299.5C4202 2255.32 4166.18 2219.5 4122 2219.5H3982C3937.82 2219.5 3902 2255.32 3902 2299.5V2430.14C3902 2470.02 3872.55 2503.46 3833.54 2511.75C3557.48 2570.36 3289.17 2749.29 3167.77 3067.43C3097.76 3250.91 3132.04 3412.74 3205.77 3544.77C3264.82 3650.53 3354.29 3744.49 3422.25 3815.86L3422.25 3815.86C3429.85 3823.84 3437.18 3831.54 3444.17 3838.94C3524.99 3924.52 3572.37 3981.73 3594.01 4034.68C3608.3 4069.65 3614.91 4108.67 3576.02 4179.16C3506.93 4304.39 3425.54 4384.63 3330.98 4477.85C3304.26 4504.2 3276.48 4531.58 3247.63 4561.31C3118.46 4694.42 2988 4862.51 2988 5138.9V5139.37L2988 5139.85C2988.52 5250.88 2988.71 5333.89 2988.65 5411.68C2987.91 5418.68 2987.52 5425.79 2987.5 5432.99C2986.97 5648.83 2986.98 5762.03 2988 5935.32C2988.24 6269.35 3172.65 6535.4 3410.26 6696.31C3645.33 6855.5 3952.37 6926.34 4234.03 6855.75C4424.05 6808.13 4567.75 6872 4660.59 7004.27C4760.37 7146.42 4813.85 7390.18 4741.14 7703.9C4687.78 7934.14 4730.41 8138.28 4851.76 8297.46C4967.84 8449.71 5139.7 8539.82 5310.66 8586.26C5483.03 8633.08 5671.39 8640.5 5843.84 8613.08C6013.75 8586.06 6187.69 8521.92 6315.63 8406.82C6534.1 8210.27 6627.85 7987.8 6613.32 7744.11C6599.94 7519.79 6495.17 7301.2 6381.38 7100.46C6295.47 6948.91 6310.3 6835.79 6355.19 6769.73C6402.23 6700.53 6528.18 6614.7 6805.91 6621.97C6918.26 6624.92 6987.42 6658.22 7041.39 6703.27C7102.25 6754.07 7153.06 6827.25 7214.56 6929.95C7225.05 6947.46 7235.94 6966.22 7247.37 6985.92L7247.37 6985.93C7354.46 7170.48 7509.34 7437.4 7831.43 7530.94C8086.48 7605.01 8351.2 7583.94 8564.06 7508.61C8763.85 7437.91 8975.4 7296.45 9035.05 7079.7C9101.1 6839.69 9224.83 6390.55 9327.32 6032.89V6032.89C9331.24 6019.21 9343.57 6009.5 9357.8 6009.5H9582.5C9626.68 6009.5 9662.5 5973.68 9662.5 5929.5V5789.5C9662.5 5745.32 9626.68 5709.5 9582.5 5709.5H9410.39C9371.46 5709.5 9338.56 5681.35 9328.85 5643.65C9281.04 5458.01 9170.36 5286.11 9034.92 5153.46C8802.29 4925.61 8453.8 4767.26 8079.96 4819.95C7825.64 4855.8 7584 4802.27 7407.56 4711.46C7319.4 4666.09 7253.18 4614.33 7210.5 4566.06C7166.52 4516.33 7157.18 4481.89 7156.26 4468.36C7141.67 4253.84 7009.55 4010.7 6756.12 3874.3C6674.76 3830.51 6584.07 3799.22 6484.46 3782.43C6459.98 3778.3 6438.06 3764.17 6426.06 3742.43C6366.49 3634.5 6312.71 3508.07 6282.68 3384.48C6241.79 3216.25 6254.14 3094.28 6300.11 3021.81C6414.05 2842.18 6388.7 2616.68 6311.27 2451.89C6259.71 2342.17 6173.3 2233.82 6054.92 2164.51C6020.41 2144.3 6000.1 2104.17 6013.36 2066.44C6021.92 2042.1 6030.33 2021.6 6038.14 2004.24C6049.86 1978.19 6061.13 1957.2 6071.99 1937.81C6073.37 1935.36 6075.01 1932.46 6076.86 1929.21L6076.86 1929.21C6085.83 1913.42 6099.49 1889.4 6108.91 1868.81C6110.84 1864.58 6111.78 1862.92 6113.9 1859.15C6116.41 1854.7 6120.57 1847.33 6129.94 1829.39C6143.05 1804.31 6158.51 1771.94 6172.68 1730.34C6201.11 1646.86 6219.5 1540.57 6219.5 1392V1390.46V1388.92V1387.38V1385.84V1384.31V1382.77V1381.24V1379.7V1378.17V1376.64V1375.11V1373.58V1372.05V1370.52V1369V1367.47V1365.95V1364.43V1362.9V1361.38V1359.86V1358.34V1356.83V1355.31V1353.79V1352.28V1350.76V1349.25V1347.74V1346.23V1344.72V1343.21V1341.7V1340.2V1338.69V1337.18V1335.68V1334.18V1332.68V1331.18V1329.68V1328.18V1326.68V1325.19V1323.69V1322.2V1320.7V1319.21V1317.72V1316.23V1314.74V1313.26V1311.77V1310.28V1308.8V1307.32V1305.83V1304.35V1302.87V1301.39V1299.92V1298.44V1296.96V1295.49V1294.01V1292.54V1291.07V1289.6V1288.13V1286.66V1285.2V1283.73V1282.26V1280.8V1279.34V1277.88V1276.42V1274.96V1273.5V1272.04V1270.58V1269.13V1267.68V1266.22V1264.77V1263.32V1261.87V1260.42V1258.97V1257.53V1256.08V1254.64V1253.2V1251.75V1250.31V1248.87V1247.44V1246V1244.56V1243.13V1241.69V1240.26V1238.83V1237.4V1235.97V1234.54V1233.11V1231.69V1230.26V1228.84V1227.42V1225.99V1224.57V1223.16V1221.74V1220.32V1218.9V1217.49V1216.08V1214.66V1213.25V1211.84V1210.43V1209.03V1207.62V1206.21V1204.81V1203.41V1202V1200.6V1199.2V1197.81V1196.41V1195.01V1193.62V1192.22V1190.83V1189.44V1188.05V1186.66V1185.27V1183.88V1182.5V1181.11V1179.73V1178.35V1176.97V1175.59V1174.21V1172.83V1171.45V1170.08V1168.71V1167.33V1165.96V1164.59V1163.22V1161.85V1160.49V1159.12V1157.76V1156.39V1155.03V1153.67V1152.31V1150.95V1149.6V1148.24V1146.88V1145.53V1144.18V1142.83V1141.48V1140.13V1138.78V1137.43V1136.09V1134.75V1133.4V1132.06V1130.72V1129.38V1128.04V1126.71V1125.37V1124.04V1122.71V1121.37V1120.04V1118.71V1117.39V1116.06V1114.73V1113.41V1112.09V1110.76V1109.44V1108.12V1106.81V1105.49V1104.17V1102.86V1101.54V1100.23V1098.92V1097.61V1096.3V1095V1093.69V1092.39V1091.08V1089.78V1088.48V1087.18V1085.88V1084.59V1083.29V1082V1080.7V1079.41V1078.12V1076.83V1075.54V1074.26V1072.97V1071.69V1070.4V1069.12V1067.84V1066.56V1065.28V1064.01V1062.73V1061.46V1060.18V1058.91V1057.64V1056.37V1055.1V1053.84V1052.57V1051.31V1050.05V1048.78V1047.52V1046.27V1045.01V1043.75V1042.5V1041.24V1039.99V1038.74V1037.49V1036.24V1035V1033.75V1032.51V1031.26V1030.02V1028.78V1027.54V1026.3V1025.07V1023.83V1022.6V1021.36V1020.13V1018.9V1017.67V1016.45V1015.22V1014V1012.77V1011.55V1010.33V1009.11V1007.89V1006.68V1005.46V1004.25V1003.03V1001.82V1000.61V999.402V998.195V996.989V995.784V994.581V993.378V992.178V990.978V989.78V988.583V987.388V986.194V985.001V983.81V982.62V981.431V980.244V979.058V977.874V976.691V975.509V974.328V973.149V971.971V970.795V969.62V968.446V967.274V966.103V964.933V963.765V962.599V961.433V960.269V959.106V957.945V956.785V955.627V954.469V953.314V952.159V951.006V949.854V948.704V947.555V946.408V945.262V944.117V942.974V941.832V940.691V939.552V938.415V937.278V936.143V935.01V933.878V932.747V931.618V930.49V929.363V928.238V927.114V925.992V924.871V923.752V922.634V921.517V920.402V919.288V918.176V917.065V915.955V914.847V913.74V912.635V911.531V910.429V909.328V908.228V907.13V906.033V904.938V903.844V902.752V901.661V900.571V899.483V898.396V897.311V896.227V895.145V894.064V892.984V891.906V890.83V889.755V888.681V887.609V886.538V885.469V884.401V883.334V882.269V881.206V880.144V879.083V878.024V876.966V875.91V874.855V873.802V872.75V871.7V870.651V869.604V868.558V867.513V866.47V865.429V864.389V863.35V862.313V861.278V860.243V859.211V858.18V857.15V856.122V855.095V854.07V853.046V852.024V851.003V849.984V848.966V847.95V846.935V845.922V844.91V843.9V842.891V841.884V840.878V839.874V838.871V837.87V836.87V835.871V834.875V833.88V832.886V831.894V830.903V829.914V828.926V827.94V826.955V825.972V824.99V824.01V823.032V822.055V821.079V820.105V819.133V818.162V817.193V816.225V815.259V814.294V813.33V812.369V811.409V810.45V809.493V808.537V807.583V806.631V805.68V804.73V803.783V802.836V801.892V800.948V800.007V799.067V798.128V797.191V796.256V795.322V794.39V793.459V792.53V791.602V790.676V789.751V788.828V787.907V786.987V786.069V785.152V784.237V783.324V782.412V781.501V780.593V779.685V778.78V777.876V776.973V776.072V775.173V774.275V773.379V772.484V771.592V770.7V769.81V768.922V768.036V767.151V766.267V765.385V764.505V763.626V762.749V761.874V761ZM4793.09 3252.13C4800.89 3170.58 4796.2 3093.51 4780.4 3021.94C4771.25 2980.49 4790.76 2936.67 4829.62 2919.58C5077.05 2810.68 5218.52 2705.36 5326.33 2625.09C5340.33 2614.67 5353.75 2604.68 5366.77 2595.15C5434 2545.95 5473.79 2522.43 5522.5 2508.49C5572.8 2494.09 5649.81 2485.45 5791.66 2499.94C5843.75 2505.26 5902.36 2545.76 5940.19 2626.26C5980.25 2711.5 5968.4 2779.32 5953.89 2802.19C5819.46 3014.12 5833.31 3271.65 5884.27 3481.32C5903.71 3561.29 5929.95 3640.38 5960.39 3716.1C5979.27 3763.07 5953.01 3816.85 5904.45 3831.15C5841.15 3849.8 5775.86 3872.77 5708.62 3900.29C5222.11 4099.46 4745.31 3751.95 4793.09 3252.13ZM3398 5933.46C3397.44 5840.16 3397.19 5764.53 3397.15 5680.48C3397.51 5675.73 3397.7 5670.94 3397.73 5666.12C3398.75 5477.81 3399.06 5366.58 3398 5138.47C3398.11 5018.89 3442.9 4948.82 3541.87 4846.83C3559.61 4828.55 3579.85 4808.76 3601.84 4787.26C3700.43 4690.84 3834.11 4560.12 3935.01 4377.22C4032.55 4200.42 4035.69 4031.69 3973.55 3879.61C3918.76 3745.51 3816.79 3636.36 3742.27 3557.45C3736.72 3551.57 3731.28 3545.82 3725.96 3540.2L3725.96 3540.19C3649.01 3458.82 3596.14 3402.9 3563.74 3344.88C3537.17 3297.3 3532.16 3262.54 3550.83 3213.6C3633.92 2995.87 3859.47 2886.2 4075.37 2901.33C4180.86 2908.72 4264.48 2945.56 4315.8 2995.04C4361.98 3039.57 4395.19 3106.1 4384.96 3213.11C4328.47 3803.84 4721.27 4248.96 5222.45 4346.48C5261.97 4354.17 5292 4387.85 5292 4428.11V4504.5C5292 4548.68 5327.82 4584.5 5372 4584.5H5512C5556.18 4584.5 5592 4548.68 5592 4504.5V4423.74C5592 4384.05 5621.18 4350.66 5660.03 4342.51C5728.02 4328.24 5796.23 4307.45 5863.95 4279.73C6222.05 4133.13 6441.3 4170.47 6561.81 4235.33C6687.87 4303.17 6741.92 4418.5 6747.21 4496.18C6756.23 4628.75 6821.84 4745.47 6903.36 4837.65C6986.17 4931.3 7095.99 5012.22 7219.93 5076.02C7467.7 5203.53 7794.53 5274.24 8137.19 5225.94C8360.33 5194.48 8586.94 5288.58 8748.04 5446.37C8914.35 5609.26 8969.08 5794.66 8933.18 5919.95C8830.01 6280.01 8705.71 6731.2 8639.75 6970.91C8633.38 6994.02 8580.44 7067.9 8427.28 7122.1C8287.2 7171.67 8110.53 7185.05 7945.78 7137.21C7788.2 7091.45 7716.24 6970.74 7592.3 6762.82C7583.89 6748.72 7575.24 6734.21 7566.31 6719.3C7503.17 6613.86 7422.58 6487.39 7304.12 6388.51C7178.76 6283.88 7020.66 6217.46 6816.64 6212.12C6461.62 6202.82 6171.15 6311.13 6016.1 6539.27C5858.91 6770.55 5885.99 7057.97 6024.7 7302.65C6135.52 7498.14 6196.72 7645.64 6204.04 7768.51C6210.22 7872.02 6179.4 7977.87 6041.41 8102.02C5991.12 8147.26 5900.7 8188.89 5779.45 8208.17C5660.75 8227.04 5531.16 8221.29 5418.13 8190.59C5303.69 8159.51 5222.69 8107.74 5177.81 8048.87C5138.21 7996.93 5111.76 7920.71 5140.56 7796.47C5232.16 7401.21 5179.64 7030.09 4996.17 6768.71C4899.55 6631.07 4770.38 6530.23 4620.25 6475.91C4586.32 6463.64 4562 6432.44 4562 6396.37V6302C4562 6257.82 4526.18 6222 4482 6222H4342C4297.82 6222 4262 6257.82 4262 6302V6363.28C4262 6404.15 4231.12 6438.09 4190.96 6445.64C4172.21 6449.16 4153.34 6453.3 4134.36 6458.05C3980.33 6496.66 3791.76 6459.5 3640.16 6356.83C3491.25 6255.99 3398 6106.57 3398 5934.68V5934.07L3398 5933.46Z" fill="black" fill-opacity="0.04"/>
<path id="Union_2" fill-rule="evenodd" clip-rule="evenodd" d="M6170.5 761.309C6170.5 675.705 6101.1 606.309 6015.5 606.309C5929.9 606.309 5860.5 675.705 5860.5 761.309V762.183V763.058V763.935V764.814V765.694V766.576V767.459V768.344V769.231V770.119V771.009V771.9V772.793V773.688V774.584V775.482V776.381V777.282V778.185V779.089V779.994V780.901V781.81V782.721V783.633V784.546V785.461V786.378V787.296V788.216V789.137V790.06V790.985V791.911V792.839V793.768V794.698V795.631V796.565V797.5V798.437V799.375V800.316V801.257V802.2V803.145V804.091V805.039V805.989V806.94V807.892V808.846V809.802V810.759V811.717V812.678V813.639V814.603V815.567V816.534V817.501V818.471V819.442V820.414V821.388V822.364V823.341V824.319V825.299V826.281V827.264V828.249V829.235V830.223V831.212V832.202V833.195V834.188V835.184V836.18V837.179V838.178V839.18V840.182V841.187V842.192V843.2V844.208V845.219V846.231V847.244V848.259V849.275V850.293V851.312V852.333V853.355V854.379V855.404V856.431V857.459V858.489V859.52V860.552V861.586V862.622V863.659V864.698V865.738V866.779V867.822V868.867V869.913V870.96V872.009V873.059V874.111V875.164V876.219V877.275V878.333V879.392V880.453V881.515V882.578V883.643V884.71V885.778V886.847V887.918V888.99V890.064V891.139V892.215V893.293V894.373V895.454V896.536V897.62V898.705V899.792V900.88V901.969V903.06V904.153V905.247V906.342V907.439V908.537V909.636V910.737V911.84V912.944V914.049V915.156V916.264V917.373V918.484V919.597V920.711V921.826V922.943V924.061V925.18V926.301V927.423V928.547V929.672V930.798V931.926V933.056V934.187V935.319V936.452V937.587V938.723V939.861V941V942.141V943.283V944.426V945.571V946.717V947.864V949.013V950.163V951.315V952.468V953.622V954.778V955.935V957.094V958.254V959.415V960.578V961.742V962.907V964.074V965.242V966.412V967.583V968.755V969.929V971.104V972.28V973.458V974.637V975.818V976.999V978.182V979.367V980.553V981.74V982.929V984.119V985.31V986.503V987.697V988.892V990.089V991.287V992.486V993.687V994.889V996.093V997.298V998.504V999.711V1000.92V1002.13V1003.34V1004.55V1005.77V1006.98V1008.2V1009.42V1010.64V1011.86V1013.08V1014.3V1015.53V1016.76V1017.98V1019.21V1020.44V1021.67V1022.91V1024.14V1025.38V1026.61V1027.85V1029.09V1030.33V1031.57V1032.81V1034.06V1035.3V1036.55V1037.8V1039.05V1040.3V1041.55V1042.81V1044.06V1045.32V1046.57V1047.83V1049.09V1050.36V1051.62V1052.88V1054.15V1055.41V1056.68V1057.95V1059.22V1060.49V1061.77V1063.04V1064.31V1065.59V1066.87V1068.15V1069.43V1070.71V1071.99V1073.28V1074.56V1075.85V1077.14V1078.43V1079.72V1081.01V1082.3V1083.6V1084.89V1086.19V1087.49V1088.79V1090.09V1091.39V1092.7V1094V1095.31V1096.61V1097.92V1099.23V1100.54V1101.85V1103.17V1104.48V1105.8V1107.11V1108.43V1109.75V1111.07V1112.39V1113.72V1115.04V1116.37V1117.69V1119.02V1120.35V1121.68V1123.01V1124.35V1125.68V1127.02V1128.35V1129.69V1131.03V1132.37V1133.71V1135.05V1136.4V1137.74V1139.09V1140.44V1141.79V1143.14V1144.49V1145.84V1147.19V1148.55V1149.9V1151.26V1152.62V1153.98V1155.34V1156.7V1158.07V1159.43V1160.8V1162.16V1163.53V1164.9V1166.27V1167.64V1169.01V1170.39V1171.76V1173.14V1174.52V1175.9V1177.28V1178.66V1180.04V1181.42V1182.81V1184.19V1185.58V1186.97V1188.36V1189.75V1191.14V1192.53V1193.93V1195.32V1196.72V1198.11V1199.51V1200.91V1202.31V1203.72V1205.12V1206.52V1207.93V1209.33V1210.74V1212.15V1213.56V1214.97V1216.39V1217.8V1219.21V1220.63V1222.05V1223.46V1224.88V1226.3V1227.73V1229.15V1230.57V1232V1233.42V1234.85V1236.28V1237.71V1239.14V1240.57V1242V1243.44V1244.87V1246.31V1247.74V1249.18V1250.62V1252.06V1253.51V1254.95V1256.39V1257.84V1259.28V1260.73V1262.18V1263.63V1265.08V1266.53V1267.98V1269.44V1270.89V1272.35V1273.81V1275.27V1276.72V1278.19V1279.65V1281.11V1282.57V1284.04V1285.5V1286.97V1288.44V1289.91V1291.38V1292.85V1294.32V1295.8V1297.27V1298.75V1300.22V1301.7V1303.18V1304.66V1306.14V1307.62V1309.11V1310.59V1312.08V1313.56V1315.05V1316.54V1318.03V1319.52V1321.01V1322.51V1324V1325.5V1326.99V1328.49V1329.99V1331.49V1332.99V1334.49V1335.99V1337.49V1339V1340.5V1342.01V1343.52V1345.03V1346.54V1348.05V1349.56V1351.07V1352.59V1354.1V1355.62V1357.13V1358.65V1360.17V1361.69V1363.21V1364.73V1366.26V1367.78V1369.31V1370.83V1372.36V1373.89V1375.42V1376.95V1378.48V1380.01V1381.55V1383.08V1384.62V1386.15V1387.69V1389.23V1390.77V1392.31C5860.5 1510.9 5845.87 1576.52 5832.9 1614.59C5826.38 1633.73 5819.36 1648.66 5811.9 1662.93C5810.87 1664.9 5809.13 1668.11 5806.96 1672.11L5806.95 1672.11C5800.15 1684.65 5789.13 1704.95 5782.56 1719.31C5780.26 1724.34 5777.21 1729.73 5770.15 1742.22L5770.15 1742.22C5767.19 1747.46 5763.53 1753.94 5758.92 1762.16C5745.45 1786.21 5728.59 1817.37 5710.84 1856.84C5683.17 1918.33 5654.91 1996.43 5631.08 2098.96C5626.4 2119.14 5608.89 2133.77 5588.22 2135.17C5528.74 2139.17 5474.86 2148.26 5424.43 2162.7C5312.5 2194.73 5230.72 2249.65 5155.16 2304.95C5141.62 2314.86 5127.9 2325.08 5113.8 2335.59C4989.15 2428.5 4834.73 2543.61 4506.04 2661.77C4492.56 2666.61 4477.54 2664.58 4465.44 2656.93C4383.73 2605.2 4291.19 2571.58 4195.88 2554.3C4173.7 2550.28 4157 2531.35 4157 2508.81V2264.5C4157 2239.65 4136.85 2219.5 4112 2219.5H3992C3967.15 2219.5 3947 2239.65 3947 2264.5V2504.26C3947 2527.38 3929.48 2546.62 3906.6 2549.91C3623.54 2590.66 3338.71 2762.63 3215.49 3085.57C3151.74 3252.64 3182.45 3398.97 3250.43 3520.7C3306.17 3620.53 3391.02 3709.73 3459.56 3781.77L3459.6 3781.82C3467.12 3789.73 3474.45 3797.43 3481.53 3804.92C3561.57 3889.69 3615.62 3953.23 3641.29 4016.08C3661.42 4065.33 3666.84 4120.17 3620.8 4203.62C3547.91 4335.74 3460.4 4421.94 3364.79 4516.12L3364.78 4516.13C3338.59 4541.93 3311.79 4568.33 3284.51 4596.44C3159.02 4725.77 3039 4881.91 3039 5139.21V5139.57L3039 5139.93C3039.52 5252.41 3039.71 5336.18 3039.65 5414.87C3038.91 5420.95 3038.52 5427.14 3038.5 5433.43C3037.97 5649.25 3037.98 5762.29 3039 5935.47C3039.18 6249.76 3212.49 6501.62 3439.3 6655.22C3664.19 6807.52 3956.78 6874.25 4222.88 6807.56C4432.97 6754.91 4597.77 6826.64 4702.51 6975.85C4812.5 7132.54 4865.87 7391.84 4790.85 7715.5C4740.49 7932.81 4781.14 8121.35 4892.53 8267.45C4999.92 8408.31 5160.7 8493.75 5324.76 8538.31C5489.9 8583.17 5671.09 8590.39 5836.99 8564.01C6000.96 8537.93 6164.72 8476.54 6283.19 8369.95C6491.85 8182.23 6577.92 7973.99 6564.41 7747.39C6551.77 7535.44 6452.31 7325.52 6338.88 7125.43C6246.53 6962.52 6256.25 6828.14 6314.84 6741.94C6375.05 6653.35 6521.06 6564.78 6808.22 6572.3C6931.75 6575.53 7011.75 6612.87 7074.43 6665.19C7142.32 6721.86 7196.76 6801.53 7258.46 6904.57C7269.23 6922.55 7280.27 6941.5 7291.71 6961.16C7399.94 7147 7544.74 7395.63 7846.38 7483.23C8090.41 7554.11 8344.4 7533.97 8548.38 7461.79C8742.49 7393.1 8934.69 7259.88 8987.84 7066.74C9053.88 6826.76 9177.69 6377.38 9280.26 6019.43C9282.04 6013.2 9283.72 6006.97 9285.31 6000.73C9290.62 5979.84 9308.98 5964.5 9330.54 5964.5H9617.5C9642.35 5964.5 9662.5 5944.35 9662.5 5919.5V5799.5C9662.5 5774.65 9642.35 5754.5 9617.5 5754.5H9339.84C9317.09 5754.5 9298.07 5737.5 9294.11 5715.1C9259.38 5518.57 9146.57 5332.13 9000.94 5189.48C8777.03 4970.18 8443.4 4819.67 8087.94 4869.77C7822.85 4907.14 7570.82 4851.52 7385.68 4756.23C7293.15 4708.61 7221.62 4653.29 7174.04 4599.49C7125.49 4544.58 7109.29 4500.11 7107.38 4472.06C7093.92 4274.23 6971.32 4046.67 6733.42 3918.63C6647.09 3872.17 6548.67 3840.28 6438.46 3826.38C6424.47 3824.61 6411.89 3816.77 6404.75 3804.61C6335.03 3685.8 6269.93 3539.94 6235.09 3396.6C6192.97 3223.32 6202.13 3084.81 6258.89 2995.33C6360.7 2834.82 6339.89 2628.56 6267.02 2473.47C6210.51 2353.22 6110.6 2237.43 5972.79 2178.92C5951.29 2169.8 5938.17 2146.89 5944.27 2124.35C5960.63 2063.9 5977.99 2018.59 5993.54 1984.03C6006.1 1956.12 6018.15 1933.72 6029.37 1913.68C6031.02 1910.74 6032.89 1907.45 6034.9 1903.91L6034.9 1903.9C6043.99 1887.88 6056.06 1866.62 6064.44 1848.31C6066.9 1842.94 6068.59 1839.9 6071.69 1834.3C6074.69 1828.9 6079.01 1821.11 6086.63 1806.53C6098.96 1782.96 6113.24 1753.01 6126.35 1714.53C6152.63 1637.35 6170.5 1536.72 6170.5 1392.31V1390.77V1389.23V1387.69V1386.15V1384.62V1383.08V1381.55V1380.01V1378.48V1376.95V1375.42V1373.89V1372.36V1370.83V1369.31V1367.78V1366.26V1364.73V1363.21V1361.69V1360.17V1358.65V1357.13V1355.62V1354.1V1352.59V1351.07V1349.56V1348.05V1346.54V1345.03V1343.52V1342.01V1340.5V1339V1337.49V1335.99V1334.49V1332.99V1331.49V1329.99V1328.49V1326.99V1325.5V1324V1322.51V1321.01V1319.52V1318.03V1316.54V1315.05V1313.56V1312.08V1310.59V1309.11V1307.62V1306.14V1304.66V1303.18V1301.7V1300.22V1298.75V1297.27V1295.8V1294.32V1292.85V1291.38V1289.91V1288.44V1286.97V1285.5V1284.04V1282.57V1281.11V1279.65V1278.19V1276.72V1275.27V1273.81V1272.35V1270.89V1269.44V1267.98V1266.53V1265.08V1263.63V1262.18V1260.73V1259.28V1257.84V1256.39V1254.95V1253.51V1252.06V1250.62V1249.18V1247.74V1246.31V1244.87V1243.44V1242V1240.57V1239.14V1237.71V1236.28V1234.85V1233.42V1232V1230.57V1229.15V1227.73V1226.3V1224.88V1223.46V1222.05V1220.63V1219.21V1217.8V1216.39V1214.97V1213.56V1212.15V1210.74V1209.33V1207.93V1206.52V1205.12V1203.72V1202.31V1200.91V1199.51V1198.11V1196.72V1195.32V1193.93V1192.53V1191.14V1189.75V1188.36V1186.97V1185.58V1184.19V1182.81V1181.42V1180.04V1178.66V1177.28V1175.9V1174.52V1173.14V1171.76V1170.39V1169.01V1167.64V1166.27V1164.9V1163.53V1162.16V1160.8V1159.43V1158.07V1156.7V1155.34V1153.98V1152.62V1151.26V1149.9V1148.55V1147.19V1145.84V1144.49V1143.14V1141.79V1140.44V1139.09V1137.74V1136.4V1135.05V1133.71V1132.37V1131.03V1129.69V1128.35V1127.02V1125.68V1124.35V1123.01V1121.68V1120.35V1119.02V1117.69V1116.37V1115.04V1113.72V1112.39V1111.07V1109.75V1108.43V1107.11V1105.8V1104.48V1103.17V1101.85V1100.54V1099.23V1097.92V1096.61V1095.31V1094V1092.7V1091.39V1090.09V1088.79V1087.49V1086.19V1084.89V1083.6V1082.3V1081.01V1079.72V1078.43V1077.14V1075.85V1074.56V1073.28V1071.99V1070.71V1069.43V1068.15V1066.87V1065.59V1064.31V1063.04V1061.77V1060.49V1059.22V1057.95V1056.68V1055.41V1054.15V1052.88V1051.62V1050.36V1049.09V1047.83V1046.57V1045.32V1044.06V1042.81V1041.55V1040.3V1039.05V1037.8V1036.55V1035.3V1034.06V1032.81V1031.57V1030.33V1029.09V1027.85V1026.61V1025.38V1024.14V1022.91V1021.67V1020.44V1019.21V1017.98V1016.76V1015.53V1014.3V1013.08V1011.86V1010.64V1009.42V1008.2V1006.98V1005.77V1004.55V1003.34V1002.13V1000.92V999.711V998.504V997.298V996.093V994.889V993.687V992.486V991.287V990.089V988.892V987.697V986.503V985.31V984.119V982.929V981.74V980.553V979.367V978.182V976.999V975.818V974.637V973.458V972.28V971.104V969.929V968.755V967.583V966.412V965.242V964.074V962.907V961.742V960.578V959.415V958.254V957.094V955.935V954.778V953.622V952.468V951.315V950.163V949.013V947.864V946.717V945.571V944.426V943.283V942.141V941V939.861V938.723V937.587V936.452V935.319V934.187V933.056V931.926V930.798V929.672V928.547V927.423V926.301V925.18V924.061V922.943V921.826V920.711V919.597V918.484V917.373V916.264V915.156V914.049V912.944V911.84V910.737V909.636V908.537V907.439V906.342V905.247V904.153V903.06V901.969V900.88V899.792V898.705V897.62V896.536V895.454V894.373V893.293V892.215V891.139V890.064V888.99V887.918V886.847V885.778V884.71V883.643V882.578V881.515V880.453V879.392V878.333V877.275V876.219V875.164V874.111V873.059V872.009V870.96V869.913V868.867V867.822V866.779V865.738V864.698V863.659V862.622V861.586V860.552V859.52V858.489V857.459V856.431V855.404V854.379V853.355V852.333V851.312V850.293V849.275V848.259V847.244V846.231V845.219V844.208V843.2V842.192V841.187V840.182V839.18V838.178V837.179V836.18V835.184V834.188V833.195V832.202V831.212V830.223V829.235V828.249V827.264V826.281V825.299V824.319V823.341V822.364V821.388V820.414V819.442V818.471V817.501V816.534V815.567V814.603V813.639V812.678V811.717V810.759V809.802V808.846V807.892V806.94V805.989V805.039V804.091V803.145V802.2V801.257V800.316V799.375V798.437V797.5V796.565V795.631V794.698V793.768V792.839V791.911V790.985V790.06V789.137V788.216V787.296V786.378V785.461V784.546V783.633V782.721V781.81V780.901V779.994V779.089V778.185V777.282V776.381V775.482V774.584V773.688V772.793V771.9V771.009V770.119V769.231V768.344V767.459V766.576V765.694V764.814V763.935V763.058V762.183V761.309ZM4744.32 3247.68C4754.19 3144.47 4742.74 3049.63 4713.41 2965.13C4705.02 2940.96 4716.25 2913.71 4739.94 2904.03C5026.73 2786.9 5181.07 2671.98 5297.7 2585.13C5311.7 2574.71 5325.16 2564.68 5338.24 2555.11C5406.62 2505.06 5452.25 2477.18 5509.74 2460.73C5568.43 2443.93 5652.45 2435.66 5797.75 2450.51C5872.19 2458.11 5943.52 2513.94 5986.45 2605.3C6031.06 2700.25 6023.75 2787.29 5997.11 2829.28C5873.47 3024.2 5884.13 3265.2 5933.86 3469.82C5960.6 3579.82 6000.72 3688.41 6047.01 3788.55C6059.52 3815.61 6043.68 3847.62 6014.64 3854.35C5924.25 3875.3 5828.86 3905.82 5728.56 3946.88C5209.99 4159.17 4692.68 3787.84 4744.32 3247.68ZM3349 5934.07C3348.44 5839.91 3348.18 5763.72 3348.15 5678.77C3348.51 5674.61 3348.71 5670.4 3348.73 5666.15C3349.75 5477.95 3350.06 5366.88 3349 5138.87C3349.09 5000.14 3404.32 4918.13 3506.99 4812.32C3525.9 4792.83 3547.02 4772.16 3569.63 4750.02C3668.25 4653.47 3795.3 4529.08 3892.23 4353.37C3982.62 4189.54 3984.56 4036.63 3928.27 3898.83C3877.52 3774.63 3782.2 3671.81 3706.92 3592.09C3700.72 3585.52 3694.63 3579.09 3688.66 3572.78L3688.65 3572.78C3613.81 3493.67 3556.67 3433.29 3521.09 3369.57C3488.77 3311.69 3480.19 3261.43 3505.12 3196.08C3597.75 2953.32 3847.16 2835.45 4079.86 2851.76C4194.36 2859.78 4289.97 2900.03 4351.51 2959.36C4409.16 3014.95 4447.34 3096.7 4435.73 3218.17C4379.65 3804.67 4788.38 4241.72 5296.12 4308.12C5319.2 4311.14 5337 4330.47 5337 4353.75V4539.5C5337 4564.35 5357.15 4584.5 5382 4584.5H5502C5526.85 4584.5 5547 4564.35 5547 4539.5V4350.82C5547 4327.88 5564.28 4308.71 5586.98 4305.34C5673.02 4292.57 5759.88 4269.02 5846.01 4233.77C6213.48 4083.33 6449.11 4117.66 6586.51 4191.61C6728.1 4267.81 6791.67 4398.72 6798.09 4493.1C6806.12 4611.15 6864.88 4717.83 6941.81 4804.84C7019.73 4892.96 7124.23 4970.32 7243.82 5031.87C7482.88 5154.91 7799.33 5223.52 8131.21 5176.74C8372.73 5142.69 8614.2 5244.62 8784.02 5410.95C8957.79 5581.14 9025.07 5784.59 8982.25 5934.03C8879.16 6293.8 8754.93 6744.74 8688.95 6984.49C8676.09 7031.21 8603.8 7113.33 8444.96 7169.54C8296.01 7222.26 8108.6 7236.58 7932.83 7185.53C7755.62 7134.07 7673.49 6995.92 7553.62 6794.3C7544.15 6778.36 7534.43 6762.02 7524.42 6745.3C7461.47 6640.19 7384.52 6520.22 7273.08 6427.2C7156.43 6329.84 7009.18 6267.46 6816.33 6262.41C6470.74 6253.36 6200.33 6358.93 6058.45 6567.68C5914.95 6778.82 5936.93 7044.98 6069.2 7278.3C6180.38 7474.43 6246.89 7630.6 6254.96 7765.85C6262.15 7886.45 6223.66 8006.52 6075.85 8139.49C6016.09 8193.26 5915.49 8237.63 5788.31 8257.85C5663.05 8277.77 5526.29 8271.82 5406.02 8239.15C5284.69 8206.2 5192.62 8149.76 5139.05 8079.5C5089.47 8014.48 5061.06 7922.66 5092.85 7785.49C5182.15 7400.17 5129.51 7044.58 4956.24 6797.75C4854.65 6653.01 4715.1 6551.64 4552.03 6506.62C4531.7 6501 4517 6482.89 4517 6461.8V6267C4517 6242.15 4496.85 6222 4472 6222H4352C4327.15 6222 4307 6242.15 4307 6267V6439.53C4307 6463.32 4288.46 6482.88 4264.81 6485.53C4226.35 6489.84 4187.21 6496.92 4147.52 6506.86C3977.92 6549.37 3774.91 6508.1 3613.12 6398.54C3453.38 6290.36 3349 6126.69 3349 5934.99V5934.53L3349 5934.07Z" fill="#1C506F"/>
<path id="Union_3" fill-rule="evenodd" clip-rule="evenodd" d="M6115.5 761C6115.5 705.772 6070.73 661 6015.5 661C5960.27 661 5915.5 705.772 5915.5 761V761.874V762.749V763.626V764.505V765.385V766.267V767.151V768.036V768.922V769.81V770.7V771.592V772.485V773.379V774.275V775.173V776.072V776.973V777.876V778.78V779.686V780.593V781.502V782.412V783.324V784.237V785.152V786.069V786.987V787.907V788.829V789.751V790.676V791.602V792.53V793.459V794.39V795.322V796.256V797.191V798.128V799.067V800.007V800.948V801.892V802.836V803.783V804.731V805.68V806.631V807.583V808.537V809.493V810.45V811.409V812.369V813.331V814.294V815.259V816.225V817.193V818.162V819.133V820.105V821.079V822.055V823.032V824.011V824.991V825.972V826.955V827.94V828.926V829.914V830.903V831.894V832.886V833.88V834.875V835.872V836.87V837.87V838.871V839.874V840.878V841.884V842.891V843.9V844.91V845.922V846.935V847.95V848.966V849.984V851.003V852.024V853.046V854.07V855.095V856.122V857.15V858.18V859.211V860.244V861.278V862.313V863.35V864.389V865.429V866.471V867.514V868.558V869.604V870.651V871.7V872.75V873.802V874.856V875.91V876.967V878.024V879.083V880.144V881.206V882.27V883.334V884.401V885.469V886.538V887.609V888.681V889.755V890.83V891.906V892.985V894.064V895.145V896.227V897.311V898.396V899.483V900.571V901.661V902.752V903.844V904.938V906.033V907.13V908.228V909.328V910.429V911.531V912.635V913.74V914.847V915.955V917.065V918.176V919.288V920.402V921.517V922.634V923.752V924.871V925.992V927.115V928.238V929.363V930.49V931.618V932.747V933.878V935.01V936.143V937.278V938.415V939.552V940.692V941.832V942.974V944.117V945.262V946.408V947.556V948.704V949.855V951.006V952.159V953.314V954.469V955.627V956.785V957.945V959.106V960.269V961.433V962.599V963.765V964.934V966.103V967.274V968.446V969.62V970.795V971.971V973.149V974.328V975.509V976.691V977.874V979.058V980.244V981.432V982.62V983.81V985.001V986.194V987.388V988.583V989.78V990.978V992.178V993.379V994.581V995.784V996.989V998.195V999.402V1000.61V1001.82V1003.03V1004.25V1005.46V1006.68V1007.89V1009.11V1010.33V1011.55V1012.77V1014V1015.22V1016.45V1017.67V1018.9V1020.13V1021.36V1022.6V1023.83V1025.07V1026.3V1027.54V1028.78V1030.02V1031.26V1032.51V1033.75V1035V1036.24V1037.49V1038.74V1039.99V1041.24V1042.5V1043.75V1045.01V1046.27V1047.53V1048.79V1050.05V1051.31V1052.57V1053.84V1055.1V1056.37V1057.64V1058.91V1060.18V1061.46V1062.73V1064.01V1065.28V1066.56V1067.84V1069.12V1070.4V1071.69V1072.97V1074.26V1075.54V1076.83V1078.12V1079.41V1080.7V1082V1083.29V1084.59V1085.88V1087.18V1088.48V1089.78V1091.08V1092.39V1093.69V1095V1096.3V1097.61V1098.92V1100.23V1101.54V1102.86V1104.17V1105.49V1106.81V1108.12V1109.44V1110.76V1112.09V1113.41V1114.73V1116.06V1117.39V1118.71V1120.04V1121.37V1122.71V1124.04V1125.37V1126.71V1128.04V1129.38V1130.72V1132.06V1133.4V1134.75V1136.09V1137.44V1138.78V1140.13V1141.48V1142.83V1144.18V1145.53V1146.89V1148.24V1149.6V1150.95V1152.31V1153.67V1155.03V1156.39V1157.76V1159.12V1160.49V1161.85V1163.22V1164.59V1165.96V1167.33V1168.71V1170.08V1171.45V1172.83V1174.21V1175.59V1176.97V1178.35V1179.73V1181.11V1182.5V1183.88V1185.27V1186.66V1188.05V1189.44V1190.83V1192.22V1193.62V1195.01V1196.41V1197.81V1199.2V1200.6V1202V1203.41V1204.81V1206.21V1207.62V1209.03V1210.43V1211.84V1213.25V1214.66V1216.08V1217.49V1218.9V1220.32V1221.74V1223.16V1224.57V1225.99V1227.42V1228.84V1230.26V1231.69V1233.11V1234.54V1235.97V1237.4V1238.83V1240.26V1241.69V1243.13V1244.56V1246V1247.44V1248.87V1250.31V1251.75V1253.2V1254.64V1256.08V1257.53V1258.97V1260.42V1261.87V1263.32V1264.77V1266.22V1267.68V1269.13V1270.58V1272.04V1273.5V1274.96V1276.42V1277.88V1279.34V1280.8V1282.26V1283.73V1285.2V1286.66V1288.13V1289.6V1291.07V1292.54V1294.01V1295.49V1296.96V1298.44V1299.92V1301.39V1302.87V1304.35V1305.83V1307.32V1308.8V1310.28V1311.77V1313.26V1314.74V1316.23V1317.72V1319.21V1320.7V1322.2V1323.69V1325.19V1326.68V1328.18V1329.68V1331.18V1332.68V1334.18V1335.68V1337.19V1338.69V1340.2V1341.7V1343.21V1344.72V1346.23V1347.74V1349.25V1350.76V1352.28V1353.79V1355.31V1356.83V1358.34V1359.86V1361.38V1362.9V1364.43V1365.95V1367.47V1369V1370.53V1372.05V1373.58V1375.11V1376.64V1378.17V1379.7V1381.24V1382.77V1384.31V1385.84V1387.38V1388.92V1390.46V1392C5915.5 1515.17 5900.29 1587 5884.96 1632.01C5877.28 1654.58 5868.96 1672.18 5860.64 1688.1C5858.84 1691.54 5856.42 1696.01 5853.69 1701.04C5846.92 1713.51 5838.26 1729.45 5832.57 1741.89C5829.24 1749.17 5824.69 1757.22 5816.68 1771.38C5813.88 1776.34 5810.65 1782.05 5806.91 1788.73C5793.83 1812.07 5777.83 1841.68 5760.99 1879.1C5733.89 1939.34 5705.73 2017.38 5682.16 2121.99C5673.66 2159.74 5640.54 2186.92 5601.9 2189.11C5541.69 2192.53 5488.51 2201.26 5439.57 2215.26C5337.3 2244.54 5261.93 2294.66 5187.64 2349.02C5174.21 2358.85 5160.57 2369.02 5146.52 2379.49L5146.45 2379.54C5019.16 2474.4 4858.16 2594.38 4515.72 2716.41C4490.73 2725.32 4463.1 2720.56 4440.82 2706.17C4365.49 2657.49 4279.15 2625.34 4189.15 2608.67C4148.54 2601.14 4117 2567.08 4117 2525.79V2284.5C4117 2248.6 4087.9 2219.5 4052 2219.5V2219.5C4016.1 2219.5 3987 2248.6 3987 2284.5V2521.24C3987 2563.57 3953.96 2598.18 3912.08 2604.31C3646.33 2643.18 3381.32 2804.95 3266.87 3104.87C3210.01 3253.89 3236.8 3383.18 3298.45 3493.58C3350.56 3586.91 3430.38 3670.9 3499.62 3743.77L3499.71 3743.86C3507.11 3751.65 3514.4 3759.32 3521.51 3766.85C3600.72 3850.73 3662.08 3921.23 3692.21 3994.97C3718.75 4059.93 3722.87 4132.17 3668.96 4229.88C3591.87 4369.61 3497.53 4462.45 3400.97 4557.48L3400.97 4557.48C3375.37 4582.67 3349.62 4608.02 3323.99 4634.43C3202.52 4759.6 3094 4902.6 3094 5138.9V5139.13L3094 5139.36C3094.52 5250.87 3094.71 5334.2 3094.65 5412.32C3094.64 5416.33 3094.28 5420.32 3093.92 5424.3C3093.65 5427.25 3093.51 5430.24 3093.5 5433.25C3092.97 5649.05 3092.98 5761.93 3094 5934.98C3094.11 6227.57 3255.2 6463.82 3470.14 6609.37C3683.83 6754.09 3960.53 6816.3 4209.51 6753.9C4441.68 6695.72 4629.7 6776.08 4747.53 6943.95C4868.74 7116.62 4921.98 7393.01 4844.43 7727.6C4797.36 7930.7 4835.84 8102.08 4936.26 8233.8C5034.11 8362.13 5182.7 8442.42 5339.18 8484.93C5496.36 8527.62 5669.66 8534.62 5828.35 8509.38C5985.8 8484.34 6138.35 8425.97 6246.4 8328.76C6444.26 8150.75 6521.89 7958.15 6509.5 7750.36C6497.68 7552.02 6404.06 7351.64 6291.03 7152.24C6191.6 6976.84 6195.7 6819.08 6269.35 6710.71C6344.05 6600.81 6512.13 6509.22 6809.66 6517.01C6945.48 6520.57 7037.42 6562.35 7109.67 6622.66C7185.29 6685.78 7243.72 6772.6 7305.65 6876C7316.65 6894.38 7327.79 6913.42 7339.18 6932.91C7448.76 7120.32 7582.47 7349.01 7861.71 7430.11C8093.64 7497.46 8335.81 7478.36 8530.03 7409.63C8717.88 7343.15 8888.81 7219 8934.81 7051.84C9000.84 6811.9 9124.72 6362.24 9227.38 6003.97C9228.47 6000.18 9229.51 5996.39 9230.51 5992.6C9240.72 5954.06 9273.91 5924.5 9313.78 5924.5H9597.5C9633.4 5924.5 9662.5 5895.4 9662.5 5859.5V5859.5C9662.5 5823.6 9633.4 5794.5 9597.5 5794.5H9323.1C9281.1 5794.5 9246.7 5761.9 9239.19 5720.58C9206.24 5539.49 9101.77 5364.92 8962.45 5228.47C8748.14 5018.57 8430.86 4876.67 8095.62 4923.92C7818.68 4962.96 7555.22 4905.03 7360.51 4804.82C7263.18 4754.74 7185.8 4695.5 7132.84 4635.61C7079.25 4575.01 7055.5 4519.5 7052.51 4475.48C7040.3 4296.01 6928.17 4085.6 6707.36 3966.76C6625.71 3922.81 6531.29 3892.38 6424.1 3879.75C6398.9 3876.78 6375.84 3863.31 6362.86 3841.51C6288.81 3717.21 6218.89 3562.5 6181.65 3409.28C6138.18 3230.44 6143.82 3073.75 6212.44 2965.56C6300.92 2826.08 6285.1 2640.97 6217.24 2496.55C6164.12 2383.51 6071.11 2277.99 5945.02 2226.7C5904.36 2210.15 5875.91 2168.8 5886.81 2126.28C5905.13 2054.82 5925.17 2001.63 5943.38 1961.15C5956.86 1931.2 5969.76 1907.24 5981.39 1886.49C5983.37 1882.96 5985.47 1879.24 5987.65 1875.4L5987.68 1875.35C5996.8 1859.26 6007.17 1840.97 6014.43 1825.11C6017.5 1818.4 6020.24 1813.42 6024.41 1805.84L6024.41 1805.83C6027.71 1799.82 6031.91 1792.18 6037.89 1780.75C6049.35 1758.82 6062.35 1731.54 6074.29 1696.49C6098.21 1626.25 6115.5 1531.83 6115.5 1392V1390.46V1388.92V1387.38V1385.84V1384.31V1382.77V1381.24V1379.7V1378.17V1376.64V1375.11V1373.58V1372.05V1370.53V1369V1367.47V1365.95V1364.43V1362.9V1361.38V1359.86V1358.34V1356.83V1355.31V1353.79V1352.28V1350.76V1349.25V1347.74V1346.23V1344.72V1343.21V1341.7V1340.2V1338.69V1337.19V1335.68V1334.18V1332.68V1331.18V1329.68V1328.18V1326.68V1325.19V1323.69V1322.2V1320.7V1319.21V1317.72V1316.23V1314.74V1313.26V1311.77V1310.28V1308.8V1307.32V1305.83V1304.35V1302.87V1301.39V1299.92V1298.44V1296.96V1295.49V1294.01V1292.54V1291.07V1289.6V1288.13V1286.66V1285.2V1283.73V1282.26V1280.8V1279.34V1277.88V1276.42V1274.96V1273.5V1272.04V1270.58V1269.13V1267.68V1266.22V1264.77V1263.32V1261.87V1260.42V1258.97V1257.53V1256.08V1254.64V1253.2V1251.75V1250.31V1248.87V1247.44V1246V1244.56V1243.13V1241.69V1240.26V1238.83V1237.4V1235.97V1234.54V1233.11V1231.69V1230.26V1228.84V1227.42V1225.99V1224.57V1223.16V1221.74V1220.32V1218.9V1217.49V1216.08V1214.66V1213.25V1211.84V1210.43V1209.03V1207.62V1206.21V1204.81V1203.41V1202V1200.6V1199.2V1197.81V1196.41V1195.01V1193.62V1192.22V1190.83V1189.44V1188.05V1186.66V1185.27V1183.88V1182.5V1181.11V1179.73V1178.35V1176.97V1175.59V1174.21V1172.83V1171.45V1170.08V1168.71V1167.33V1165.96V1164.59V1163.22V1161.85V1160.49V1159.12V1157.76V1156.39V1155.03V1153.67V1152.31V1150.95V1149.6V1148.24V1146.89V1145.53V1144.18V1142.83V1141.48V1140.13V1138.78V1137.44V1136.09V1134.75V1133.4V1132.06V1130.72V1129.38V1128.04V1126.71V1125.37V1124.04V1122.71V1121.37V1120.04V1118.71V1117.39V1116.06V1114.73V1113.41V1112.09V1110.76V1109.44V1108.12V1106.81V1105.49V1104.17V1102.86V1101.54V1100.23V1098.92V1097.61V1096.3V1095V1093.69V1092.39V1091.08V1089.78V1088.48V1087.18V1085.88V1084.59V1083.29V1082V1080.7V1079.41V1078.12V1076.83V1075.54V1074.26V1072.97V1071.69V1070.4V1069.12V1067.84V1066.56V1065.28V1064.01V1062.73V1061.46V1060.18V1058.91V1057.64V1056.37V1055.1V1053.84V1052.57V1051.31V1050.05V1048.79V1047.53V1046.27V1045.01V1043.75V1042.5V1041.24V1039.99V1038.74V1037.49V1036.24V1035V1033.75V1032.51V1031.26V1030.02V1028.78V1027.54V1026.3V1025.07V1023.83V1022.6V1021.36V1020.13V1018.9V1017.67V1016.45V1015.22V1014V1012.77V1011.55V1010.33V1009.11V1007.89V1006.68V1005.46V1004.25V1003.03V1001.82V1000.61V999.402V998.195V996.989V995.784V994.581V993.379V992.178V990.978V989.78V988.583V987.388V986.194V985.001V983.81V982.62V981.432V980.244V979.058V977.874V976.691V975.509V974.328V973.149V971.971V970.795V969.62V968.446V967.274V966.103V964.934V963.765V962.599V961.433V960.269V959.106V957.945V956.785V955.627V954.469V953.314V952.159V951.006V949.855V948.704V947.556V946.408V945.262V944.117V942.974V941.832V940.692V939.552V938.415V937.278V936.143V935.01V933.878V932.747V931.618V930.49V929.363V928.238V927.115V925.992V924.871V923.752V922.634V921.517V920.402V919.288V918.176V917.065V915.955V914.847V913.74V912.635V911.531V910.429V909.328V908.228V907.13V906.033V904.938V903.844V902.752V901.661V900.571V899.483V898.396V897.311V896.227V895.145V894.064V892.985V891.906V890.83V889.755V888.681V887.609V886.538V885.469V884.401V883.334V882.27V881.206V880.144V879.083V878.024V876.967V875.91V874.856V873.802V872.75V871.7V870.651V869.604V868.558V867.514V866.471V865.429V864.389V863.35V862.313V861.278V860.244V859.211V858.18V857.15V856.122V855.095V854.07V853.046V852.024V851.003V849.984V848.966V847.95V846.935V845.922V844.91V843.9V842.891V841.884V840.878V839.874V838.871V837.87V836.87V835.872V834.875V833.88V832.886V831.894V830.903V829.914V828.926V827.94V826.955V825.972V824.991V824.011V823.032V822.055V821.079V820.105V819.133V818.162V817.193V816.225V815.259V814.294V813.331V812.369V811.409V810.45V809.493V808.537V807.583V806.631V805.68V804.731V803.783V802.836V801.892V800.948V800.007V799.067V798.128V797.191V796.256V795.322V794.39V793.459V792.53V791.602V790.676V789.751V788.829V787.907V786.987V786.069V785.152V784.237V783.324V782.412V781.502V780.593V779.686V778.78V777.876V776.973V776.072V775.173V774.275V773.379V772.485V771.592V770.7V769.81V768.922V768.036V767.151V766.267V765.385V764.505V763.626V762.749V761.874V761ZM4689.57 3242.14C4698.91 3144.5 4687.67 3055.83 4659.58 2977.57C4642.81 2930.84 4662.31 2875.79 4708.34 2857.2C4995.67 2741.18 5148.33 2627.49 5265.09 2540.54L5265.09 2540.53C5279.11 2530.1 5292.61 2520.04 5305.76 2510.42C5375.42 2459.44 5427.46 2426.76 5494.6 2407.54C5562.53 2388.1 5654.24 2380.25 5803.34 2395.48C5902.37 2405.6 5987.68 2478.3 6036.22 2581.61C6085.85 2687.22 6083.53 2795.42 6043.56 2858.44C5931.78 3034.65 5938.92 3257.46 5987.3 3456.52C6014.43 3568.14 6056 3678.66 6103.84 3779.93C6127.83 3830.71 6096.86 3892.08 6042.03 3904.21C5950.45 3924.46 5852.91 3955.09 5749.4 3997.47C5195.55 4224.2 4633.68 3826.68 4689.57 3242.14ZM3294 5934.08C3293.43 5838.82 3293.18 5761.92 3293.15 5675.81C3293.52 5672.44 3293.71 5669.01 3293.73 5665.54C3294.75 5477.45 3295.05 5366.56 3294 5138.68C3294.06 4978.88 3360.78 4883.71 3467.52 4773.71C3487.77 4752.84 3509.86 4731.18 3533.14 4708.36C3631.63 4611.82 3751.47 4494.35 3844.08 4326.5C3926.6 4176.92 3927.23 4041.41 3877.35 3919.32C3831.05 3806.01 3743.06 3710.16 3666.93 3629.54C3660.26 3622.48 3653.68 3615.53 3647.18 3608.67C3574.09 3531.48 3512.17 3466.11 3473.07 3396.07C3434.42 3326.87 3421.91 3259.56 3453.73 3176.17C3556.87 2905.87 3832.51 2778.98 4083.71 2796.58C4208.11 2805.3 4316.91 2849.29 4389.68 2919.46C4459.95 2987.21 4503.61 3085.72 4490.48 3223.1C4437.62 3775.93 4821.54 4189.7 5301.53 4253.22C5343.66 4258.79 5377 4293.52 5377 4336.01V4519.5C5377 4555.4 5406.1 4584.5 5442 4584.5V4584.5C5477.9 4584.5 5507 4555.4 5507 4519.5V4332.89C5507 4291.08 5539.27 4256.65 5580.62 4250.43C5661.78 4238.21 5743.77 4215.88 5825.17 4182.56C6202.96 4027.9 6456.6 4058.92 6612.57 4142.87C6771.25 4228.27 6845.3 4376.33 6852.97 4489.06C6859.91 4591.14 6911.11 4686.78 6983.02 4768.1C7055.55 4850.13 7154.2 4923.58 7268.98 4982.65C7498.48 5100.77 7803.5 5167.08 8123.53 5121.97C8385.26 5085.07 8643.09 5195.62 8822.51 5371.35C9004.47 5549.57 9085.55 5772.88 9035.12 5948.87C8932.12 6308.32 8807.97 6758.98 8741.98 6998.77C8721.97 7071.47 8628.41 7162.66 8463.31 7221.09C8304.59 7277.25 8105.37 7292.6 7917.49 7238.04C7718.53 7180.26 7625.24 7022.83 7508.64 6826.06C7498.38 6808.75 7487.94 6791.13 7477.23 6773.25C7414.51 6668.51 7341.55 6555.69 7237.83 6469.12C7130.76 6379.74 6995.44 6321.81 6814.89 6317.08C6479.66 6308.3 6231.32 6410.86 6103.94 6598.29C5975.51 6787.26 5991.86 7030.04 6117.04 7250.87C6228.62 7447.71 6300.98 7613.41 6309.86 7762.26C6318.17 7901.67 6271.24 8037.39 6112.64 8180.07C6042.46 8243.21 5930.65 8290.6 5796.94 8311.86C5664.47 8332.93 5519.83 8326.75 5391.61 8291.92C5262.69 8256.91 5158.43 8195.32 5095.31 8112.54C5034.77 8033.13 5004.18 7924.15 5039.27 7772.76C5126.03 7398.38 5073.26 7059.88 4911.23 6829.04C4818.16 6696.45 4691.21 6603.08 4542.31 6560.71C4505 6550.09 4477 6517.41 4477 6478.62V6287C4477 6251.1 4447.9 6222 4412 6222V6222C4376.1 6222 4347 6251.1 4347 6287V6456.05C4347 6499.87 4311.64 6535.16 4268.1 6540.2C4232.97 6544.27 4197.2 6550.8 4160.89 6559.9C3974.17 6606.7 3755.26 6560.91 3582.28 6443.77C3410.62 6327.52 3294 6148.17 3294 5934.68V5934.38L3294 5934.08Z" fill="#1B4A67"/>
</g>
</g>
</svg>
