<svg width="10000" height="10000" viewBox="0 0 10000 10000" fill="none" xmlns="http://www.w3.org/2000/svg">
<g id="walls" clip-path="url(#clip0_1876_2977)">
<g id="Group 124">
<path id="Union" fill-rule="evenodd" clip-rule="evenodd" d="M3101.8 5391.3L2855 5144.5L2885.44 5092.53L2827.1 5011.97C2805.49 4982.12 2802.04 4942.81 2818.12 4909.66L2932.96 4672.95C2948.28 4641.38 2979.03 4620.14 3013.98 4617L3172.33 4602.77L3336.5 4322.5L3601.34 4588.82C3610.72 4595.6 3619 4604.06 3625.68 4613.96L3884.65 4997.88C3919.15 5049.03 3899.57 5118.91 3843.51 5144.67L3227.6 5427.72C3197.08 5441.74 3162.58 5439.22 3135.06 5423.01L3134.5 5424L3130.97 5420.47C3121.04 5413.96 3112.15 5405.59 3104.85 5395.51L3101.8 5391.3Z" fill="black" fill-opacity="0.15"/>
<path id="Rectangle 1712" d="M2743.98 4347L3263.83 4300.29C3300.12 4297.03 3335.31 4313.76 3355.68 4343.96L3614.65 4727.88C3649.15 4779.03 3629.57 4848.91 3573.51 4874.67L2957.6 5157.72C2914.24 5177.64 2862.84 5164.16 2834.85 5125.51L2557.1 4741.97C2535.49 4712.12 2532.04 4672.81 2548.12 4639.66L2662.96 4402.95C2678.28 4371.38 2709.03 4350.14 2743.98 4347Z" fill="#BB816E"/>
<path id="Rectangle 1711" d="M2887.28 4515.54L3146.21 4497.62C3178.96 4495.35 3210.73 4509.3 3231.23 4534.94L3321.93 4648.42C3364.67 4701.9 3342.25 4781.55 3277.89 4804.87L3063.11 4882.72C3022.35 4897.49 2976.71 4884.32 2950.09 4850.09L2815.24 4676.69C2766.1 4613.5 2807.42 4521.07 2887.28 4515.54Z" fill="#9A6A5A"/>
</g>
<g id="Group 125">
<path id="Union_2" fill-rule="evenodd" clip-rule="evenodd" d="M6163.92 3447.92L5856 3140L6591 2118L6900 2427L6899.99 2427.01C6905.2 2431.05 6910.04 2435.63 6914.42 2440.71L7281.04 2866.08C7308.04 2897.41 7312.97 2942.13 7293.44 2978.59L6956.06 3608.44C6933.85 3649.92 6885.73 3670.3 6840.48 3657.39L6211.57 3478.03C6192.94 3472.71 6176.46 3462.17 6163.92 3447.92Z" fill="black" fill-opacity="0.15"/>
<path id="Rectangle 1712_2" d="M6127.28 2086H6518.67C6547.77 2086 6575.42 2098.67 6594.42 2120.71L6961.04 2546.08C6988.04 2577.41 6992.97 2622.13 6973.44 2658.59L6636.06 3288.44C6613.85 3329.92 6565.73 3350.3 6520.48 3337.39L5891.57 3158.03C5863.68 3150.07 5840.61 3130.4 5828.36 3104.11L5680.21 2786.26C5665.75 2755.25 5668.15 2719.01 5686.57 2690.18L6043.01 2132.17C6061.38 2103.41 6093.15 2086 6127.28 2086Z" fill="#BB816E"/>
<path id="Rectangle 1711_2" d="M5966.45 2619.04L6209.33 2326.34C6244.72 2283.69 6308.04 2277.95 6350.52 2313.55L6544.17 2475.85C6571.6 2498.83 6584.65 2534.72 6578.4 2569.95L6516.99 2916.28C6506.41 2975.92 6445.66 3012.54 6387.99 2994.04L6174.73 2925.65C6161.07 2921.27 6148.51 2914 6137.91 2904.33L5976.05 2756.8C5936.57 2720.82 5932.34 2660.15 5966.45 2619.04Z" fill="#9A6A5A"/>
</g>
<g id="Group 127">
<path id="Union_3" fill-rule="evenodd" clip-rule="evenodd" d="M925.645 2580.27C942.464 2602.11 949.517 2629.93 945.138 2657.15L839.522 3313.66C837.624 3325.46 833.626 3336.82 827.719 3347.21L502.892 3918.41C489.921 3941.22 486.435 3968.21 493.185 3993.57L694.906 4751.3C698.368 4764.3 699.17 4777.86 697.265 4791.18L537.813 5905.89C536.381 5915.9 536.476 5926.08 538.098 5936.07L557.958 6058.42C559.314 6066.77 559.604 6075.26 558.822 6083.69L488.5 6841L342.655 8531.31C341.562 8543.99 342.896 8556.75 346.587 8568.93L736.388 9854.55C744.139 9880.12 761.794 9901.51 785.418 9913.98L1797.6 10448.1C1808.77 10454 1820.94 10457.7 1833.49 10459.1L5066.31 10809.6C5078.01 10810.9 5089.85 10810 5101.27 10807.2L7445.5 10223L9545.8 9645.53C9564.84 9640.29 9581.9 9629.54 9594.84 9614.62L10403.7 8681.87C10412.8 8671.4 10419.6 8659.17 10423.7 8645.94L11065.4 6573.97C11067.1 6568.33 11068.4 6562.56 11069.1 6556.7L11289.6 4779.73C11290.5 4772.27 11290.6 4764.72 11289.8 4757.25L11129.6 3188.79C11128.9 3181.95 11127.5 3175.2 11125.4 3168.65L10885.9 2415.7C10879.2 2394.51 10865.5 2376.16 10847.2 2363.57L9502.27 1440.02C9496.44 1436.02 9491.05 1431.41 9486.19 1426.27L8842.88 745.5C8825 726.583 8800.45 715.381 8774.45 714.274L6653.5 624L4152.86 219.258C4145.64 218.089 4138.32 217.716 4131.02 218.145L1681.34 362.119C1671.41 362.703 1661.61 364.767 1652.29 368.244L521.97 789.534C484.573 803.473 459.045 838.313 457.024 878.172L406.868 1867.16C405.663 1890.94 412.979 1914.36 427.503 1933.23L925.645 2580.27ZM1490.16 7744.39C1469.62 7783.85 1477.63 7832.14 1509.8 7862.86L1972.48 8304.76C1990.81 8322.27 2001.81 8346.07 2003.25 8371.37L2057.15 9313.15C2059.48 9353.85 2086.28 9389.07 2124.89 9402.15L2902 9665.5L4030.46 9887.98C4051.89 9892.21 4074.13 9889.3 4093.75 9879.7L4505.33 9678.31C4522.42 9669.94 4541.54 9666.63 4560.45 9668.76L5616.23 9787.45C5625.37 9788.48 5634.6 9788.24 5643.67 9786.74L6495.25 9646.28C6528.49 9640.8 6556.73 9618.96 6570.39 9588.17L6791.04 9090.86C6804.47 9060.6 6831.99 9038.95 6864.55 9033.03L7360.16 8942.84C7372.28 8940.63 7383.89 8936.2 7394.41 8929.78L7826 8666L8437.1 8399.34C8451.18 8393.19 8466.48 8390.38 8481.82 8391.1L8975.09 8414.42C9003.07 8415.75 9030.32 8405.27 9050.22 8385.55L9464.51 7974.8C9478.83 7960.6 9488.53 7942.4 9492.32 7922.58L9573.44 7498.66C9574.48 7493.23 9575.97 7487.89 9577.89 7482.71L9792.83 6902.65C9800.09 6883.04 9801.03 6861.65 9795.51 6841.49L9693.23 6468.09C9689.78 6455.49 9688.83 6442.33 9690.44 6429.35L9758.04 5884.94C9761.22 5859.31 9774.19 5835.91 9794.24 5819.63L10094.8 5575.52C10132.3 5545.09 10142.7 5492.25 10119.5 5449.91L9908.62 5064.24C9899.09 5046.81 9894.97 5026.94 9896.77 5007.15L9959 4326.5L10089 3476.22C10091.3 3461.27 10090.2 3445.99 10085.7 3431.54L9952.94 3002.49C9941.92 2966.86 9911.97 2940.32 9875.27 2933.66L9386.32 2844.91C9373.88 2842.66 9361.99 2838.07 9351.27 2831.38L8671.48 2407.61C8659.22 2399.97 8648.91 2389.86 8641.1 2378.1L8237 1974L8355.69 1804.45L8129 1646.63C8101.52 1627.5 8066.28 1623.39 8035.14 1635.69L7263.67 1940.31C7241.31 1949.14 7216.51 1949.62 7193.83 1941.66L6456.47 1682.88C6448.19 1679.97 6439.57 1678.17 6430.82 1677.51L5638.55 1618.18C5619.58 1616.75 5601.4 1609.95 5586.16 1598.56L5162.07 1281.68C5135.18 1261.59 5100 1256.33 5068.4 1267.68L4276.65 1552.15C4252.78 1560.73 4226.54 1559.91 4203.25 1549.87L3539.93 1263.91C3518.34 1254.6 3494.15 1253.2 3471.63 1259.95L2757.27 1474.03C2741.98 1478.61 2725.81 1479.46 2710.13 1476.52L2265.07 1393.05C2245.79 1389.43 2225.86 1391.57 2207.78 1399.19L1890.71 1532.93C1846.04 1551.77 1821.32 1599.94 1832.06 1647.22L1970.39 2256.2C1971.79 2262.38 1972.61 2268.69 1972.82 2275.03L1995.65 2964L2077.85 3609.64C2080.33 3629.12 2088.49 3647.43 2101.3 3662.3L2471.78 4092.15C2501.85 4127.04 2504.2 4177.96 2477.48 4215.47L2087.91 4762.21C2083.75 4768.05 2080.23 4774.33 2077.41 4780.92L1883.4 5234.66C1872.41 5260.37 1872.68 5289.51 1884.15 5315.01L2060.02 5705.91C2073.56 5736.01 2071.38 5770.84 2054.19 5799.02L1644.23 6471.1C1629.16 6495.81 1625.53 6525.84 1634.29 6553.43L1801.93 7081.42C1809.98 7106.76 1807.6 7134.26 1795.33 7157.84L1490.16 7744.39Z" fill="black" fill-opacity="0.15"/>
<path id="rock" fill-rule="evenodd" clip-rule="evenodd" d="M545.138 2257.15C549.517 2229.93 542.464 2202.11 525.645 2180.27L27.5025 1533.23C12.9792 1514.36 5.66259 1490.94 6.86841 1467.16L57.0237 478.173C59.0451 438.314 84.5733 403.473 121.97 389.534L1252.29 -31.7562C1261.61 -35.2326 1271.41 -37.2969 1281.34 -37.8809L3731.02 -181.854C3738.32 -182.284 3745.64 -181.91 3752.86 -180.742L6253.5 224L8374.45 314.274C8400.45 315.381 8425 326.583 8442.88 345.5L9086.19 1026.27C9091.05 1031.41 9096.44 1036.02 9102.27 1040.02L10447.2 1963.57C10465.5 1976.16 10479.2 1994.51 10485.9 2015.7L10725.4 2768.65C10727.4 2775.2 10728.9 2781.95 10729.6 2788.79L10889.8 4357.25C10890.6 4364.72 10890.5 4372.27 10889.6 4379.73L10669.1 6156.7C10668.4 6162.56 10667.1 6168.33 10665.4 6173.97L10023.7 8245.94C10019.6 8259.17 10012.8 8271.4 10003.7 8281.87L9194.84 9214.62C9181.9 9229.54 9164.84 9240.29 9145.8 9245.53L7045.5 9823L4701.27 10407.2C4689.85 10410 4678.01 10410.9 4666.31 10409.6L1433.49 10059.1C1420.94 10057.7 1408.77 10054 1397.6 10048.1L385.418 9513.98C361.794 9501.51 344.139 9480.12 336.388 9454.55L-53.4128 8168.93C-57.1037 8156.75 -58.4382 8143.99 -57.3447 8131.32L88.5 6441L158.822 5683.69C159.604 5675.26 159.314 5666.77 157.958 5658.42L138.098 5536.07C136.476 5526.08 136.381 5515.9 137.813 5505.89L297.265 4391.18C299.17 4377.86 298.368 4364.3 294.906 4351.3L93.185 3593.57C86.4347 3568.21 89.921 3541.22 102.892 3518.41L427.719 2947.21C433.626 2936.82 437.624 2925.46 439.522 2913.66L545.138 2257.15ZM1109.8 7462.86C1077.63 7432.14 1069.62 7383.85 1090.16 7344.39L1395.33 6757.84C1407.6 6734.26 1409.98 6706.76 1401.93 6681.42L1234.29 6153.43C1225.53 6125.84 1229.16 6095.81 1244.23 6071.1L1654.19 5399.02C1671.38 5370.84 1673.56 5336.01 1660.02 5305.91L1484.15 4915.01C1472.68 4889.51 1472.41 4860.37 1483.4 4834.66L1677.41 4380.92C1680.23 4374.33 1683.75 4368.05 1687.91 4362.21L2077.48 3815.47C2104.2 3777.96 2101.85 3727.04 2071.78 3692.15L1701.3 3262.3C1688.49 3247.43 1680.33 3229.12 1677.85 3209.64L1595.65 2564L1572.82 1875.03C1572.61 1868.69 1571.79 1862.39 1570.39 1856.2L1432.06 1247.22C1421.32 1199.94 1446.04 1151.77 1490.71 1132.93L1807.78 999.194C1825.86 991.567 1845.79 989.429 1865.07 993.047L2310.13 1076.52C2325.81 1079.46 2341.98 1078.61 2357.27 1074.03L3071.63 859.949C3094.15 853.2 3118.34 854.602 3139.93 863.91L3803.25 1149.87C3826.54 1159.91 3852.78 1160.73 3876.65 1152.15L4668.4 867.68C4700 856.328 4735.18 861.588 4762.07 881.682L5186.16 1198.56C5201.4 1209.95 5219.58 1216.75 5238.55 1218.18L6030.82 1277.51C6039.57 1278.17 6048.19 1279.97 6056.47 1282.88L6793.83 1541.66C6816.51 1549.62 6841.31 1549.14 6863.67 1540.31L7635.14 1235.69C7666.28 1223.39 7701.52 1227.5 7729 1246.63L8134.82 1529.16C8157.58 1545 8172.73 1569.59 8176.67 1597.04L8225.4 1936.94C8229.58 1966.14 8246.45 1992.01 8271.48 2007.61L8951.27 2431.38C8961.99 2438.07 8973.88 2442.66 8986.32 2444.91L9475.27 2533.66C9511.97 2540.32 9541.92 2566.86 9552.94 2602.49L9685.71 3031.54C9690.18 3045.99 9691.31 3061.27 9689.03 3076.22L9559 3926.5L9496.77 4607.15C9494.97 4626.94 9499.09 4646.81 9508.62 4664.24L9719.53 5049.91C9742.69 5092.25 9732.3 5145.09 9694.83 5175.52L9394.24 5419.63C9374.19 5435.91 9361.22 5459.31 9358.04 5484.94L9290.44 6029.35C9288.83 6042.33 9289.78 6055.49 9293.23 6068.09L9395.51 6441.49C9401.03 6461.65 9400.09 6483.04 9392.83 6502.65L9177.89 7082.71C9175.97 7087.89 9174.48 7093.23 9173.44 7098.66L9092.32 7522.58C9088.53 7542.4 9078.83 7560.6 9064.51 7574.8L8650.22 7985.55C8630.32 8005.27 8603.07 8015.75 8575.09 8014.42L8081.82 7991.1C8066.48 7990.38 8051.18 7993.19 8037.1 7999.34L7426 8266L6994.41 8529.78C6983.89 8536.2 6972.28 8540.63 6960.16 8542.84L6464.55 8633.03C6431.99 8638.95 6404.47 8660.6 6391.04 8690.86L6170.39 9188.17C6156.73 9218.96 6128.49 9240.8 6095.25 9246.28L5243.67 9386.74C5234.6 9388.24 5225.37 9388.48 5216.23 9387.45L4160.45 9268.76C4141.54 9266.63 4122.42 9269.94 4105.33 9278.31L3693.75 9479.7C3674.13 9489.3 3651.89 9492.21 3630.46 9487.99L2502 9265.5L1724.89 9002.15C1686.28 8989.07 1659.48 8953.85 1657.15 8913.15L1603.25 7971.37C1601.81 7946.07 1590.81 7922.27 1572.48 7904.76L1109.8 7462.86Z" fill="#BB816E"/>
<path id="Rectangle 1715" d="M1499.1 3789.59L1248.16 4191.32C1237.32 4208.69 1221.4 4222.31 1202.57 4230.34L916.153 4352.44C862.82 4375.18 801.391 4347.94 782.433 4293.15L648.493 3906.05C642.923 3889.95 641.558 3872.7 644.525 3855.92L698.594 3550.33C704.187 3518.72 724.615 3491.72 753.512 3477.74L1033.43 3342.31C1070.05 3324.59 1113.76 3330.82 1143.96 3358.07L1481.27 3662.36C1517.27 3694.84 1524.78 3748.46 1499.1 3789.59Z" fill="#9A6A5A"/>
<path id="Rectangle 1713" d="M1256.2 2200.05L1359.98 2417.01C1370.32 2438.62 1372.55 2463.21 1366.28 2486.33L1272.53 2832.08C1263.22 2866.4 1236.39 2893.19 1202.06 2902.46L1011.18 2953.95C953.705 2969.46 895.494 2931.62 886.328 2872.8L817.634 2431.96C811.741 2394.14 827.952 2356.28 859.386 2334.44L1108.93 2161.07C1159.55 2125.91 1229.61 2144.45 1256.2 2200.05Z" fill="#9A6A5A"/>
<path id="Rectangle 1712_3" d="M1263.7 5412.9L998.85 5836.92C982.82 5862.58 956.033 5879.6 925.992 5883.22L661.956 5915.02C602.417 5922.19 550 5875.7 550 5815.73V5389.34C550 5381.8 550.852 5374.29 552.54 5366.95L658.667 4905.1C669.104 4859.69 709.527 4827.5 756.127 4827.5H1081.09C1127.82 4827.5 1168.32 4859.86 1178.63 4905.44L1276.42 5337.86C1282.24 5363.58 1277.67 5390.54 1263.7 5412.9Z" fill="#9A6A5A"/>
<g id="inside">
<path d="M1091.45 6685.82L998.713 6443.9C973.704 6378.66 891.207 6358.52 838.955 6404.91L407.386 6787.98C362.873 6827.5 362.516 6896.9 406.619 6936.87L666.562 7172.43C711.133 7212.83 781.017 7205.01 815.569 7155.78L1079.94 6779.05C1099.04 6751.83 1103.36 6716.88 1091.45 6685.82Z" fill="#9A6A5A"/>
<path d="M1012.29 7700L636.492 7491.84C556.192 7447.36 463.408 7525.52 493.602 7612.21L624.489 7988.01C646.161 8050.23 721.037 8074.85 775.409 8037.64L1020.32 7870C1081.7 7827.99 1077.36 7736.05 1012.29 7700Z" fill="#9A6A5A"/>
<path d="M1348.88 8976.36L1388.58 8621.02C1396.02 8554.46 1337.21 8499.55 1271.32 8511.53L689.388 8617.31C593.215 8634.79 576.667 8765.67 665.463 8806.54L1207.69 9056.09C1269.63 9084.6 1341.31 9044.12 1348.88 8976.36Z" fill="#9A6A5A"/>
<path d="M922.998 8328.27L1273.86 8411.71C1336.69 8426.66 1397 8379.01 1397 8314.43V8041.96C1397 7966.28 1316.2 7918.03 1249.57 7953.92L898.708 8142.94C817.799 8186.53 833.59 8307 922.998 8328.27Z" fill="#9A6A5A"/>
<path d="M2379.09 9437.55L1614.94 9195.82C1584.5 9186.19 1551.29 9191.68 1525.56 9210.58L1162.57 9477.3C1104.76 9519.78 1109.17 9607.53 1170.96 9644L1635.38 9918.13C1655.49 9930 1679.12 9934.46 1702.17 9930.73L2419.87 9814.71C2479.53 9805.06 2517.07 9745.11 2499.69 9687.23L2444.71 9504.14C2435.19 9472.46 2410.63 9447.53 2379.09 9437.55Z" fill="#9A6A5A"/>
<path d="M3453.13 9681.04L3114.81 9547.21C3097.92 9540.53 3079.54 9538.57 3061.62 9541.55L2915.02 9565.92C2828.92 9580.24 2801.2 9690.27 2870.24 9743.67L3094.36 9917C3118.46 9935.64 3149.74 9942.28 3179.33 9935.03L3440.13 9871.16C3534.79 9847.98 3543.75 9716.89 3453.13 9681.04Z" fill="#9A6A5A"/>
<path d="M4123.02 9809.67L4059.74 9674.86C4036.77 9625.92 4056.86 9567.58 4105.09 9543.16L4265.52 9461.93C4284.66 9452.23 4306.42 9448.96 4327.57 9452.58L5103.73 9585.48C5205.19 9602.86 5217.37 9743.71 5120.4 9778.25L4673.02 9937.59C4656.62 9943.43 4638.99 9944.89 4621.86 9941.82L4195.93 9865.61C4163.99 9859.9 4136.8 9839.04 4123.02 9809.67Z" fill="#9A6A5A"/>
<path d="M6127.26 9749.99L6029.27 9529.98C6003.88 9472.98 6036.32 9406.9 6096.95 9392.14L6302.02 9342.19C6332.26 9334.82 6357.35 9313.79 6369.89 9285.3L6407.23 9200.42C6433.8 9140.04 6510.52 9121.48 6561.76 9163.03L6965.57 9490.54C7031.09 9543.69 7005.41 9649.1 6922.78 9666.15L6238.81 9807.24C6192.79 9816.73 6146.38 9792.91 6127.26 9749.99Z" fill="#9A6A5A"/>
<path d="M7390.07 8578.57L7047.91 8662.44C7025.34 8667.97 7005.41 8681.19 6991.53 8699.82L6811.73 8941.15C6777.97 8986.46 6788.43 9050.73 6834.83 9082.99L7177.66 9321.4C7203.95 9339.68 7237.39 9344.27 7267.63 9333.75L7779.89 9155.42C7846.6 9132.2 7868.86 9049.01 7822.66 8995.58L7489.52 8610.29C7464.96 8581.88 7426.55 8569.63 7390.07 8578.57Z" fill="#9A6A5A"/>
<path d="M8012.77 8355.25L7915.33 8546.55C7889.9 8596.47 7910.45 8657.55 7960.88 8681.95L8287.75 8840.09C8337.75 8864.29 8397.88 8843.09 8421.67 8792.9L8560.88 8499.11C8589.58 8438.53 8551.72 8367.42 8485.43 8357.41L8116.8 8301.76C8074.23 8295.34 8032.31 8316.89 8012.77 8355.25Z" fill="#9A6A5A"/>
<path d="M8900.72 8196.9L9080.09 7974.24C9114.21 7931.87 9175.95 7924.56 9219.03 7957.78L9438.39 8126.92C9483.63 8161.8 9490.5 8227.42 9453.48 8270.92L9221.84 8543.1C9180.53 8591.65 9104.94 8589.66 9066.23 8539L8899.14 8320.35C8871.17 8283.74 8871.83 8232.77 8900.72 8196.9Z" fill="#9A6A5A"/>
<path d="M8645.27 8914.1L8686.53 8683.08C8701.08 8601.64 8802.57 8572.08 8858.57 8632.95L9025.81 8814.74C9077.57 8871.01 9049.61 8962.2 8975.2 8979.77L8766.7 9029C8696.67 9045.54 8632.62 8984.93 8645.27 8914.1Z" fill="#9A6A5A"/>
<path d="M9255.79 7306.8L9333.71 7076.5C9350.91 7025.66 9405.18 6997.47 9456.66 7012.62L9552.73 7040.88C9595.28 7053.4 9624.5 7092.46 9624.5 7136.82V7367.31C9624.5 7428.98 9569.22 7475.96 9508.36 7466L9334.37 7437.54C9273.43 7427.57 9236 7365.29 9255.79 7306.8Z" fill="#9A6A5A"/>
<path d="M9572.22 7638.5H9381.68C9292.76 7638.5 9248.07 7745.85 9310.71 7808.95L9476.67 7976.14C9534.71 8034.6 9634.59 8001.74 9646.58 7920.23L9671.16 7753.05C9680.03 7692.68 9633.24 7638.5 9572.22 7638.5Z" fill="#9A6A5A"/>
<path d="M9549.21 6595.4L9643.61 6484.6C9670.37 6453.19 9713.67 6441.44 9752.63 6455.02L9836.26 6484.16C9873.51 6497.14 9899.65 6530.81 9902.99 6570.12L9910.37 6656.88C9912.98 6687.56 9901.3 6717.74 9878.72 6738.68L9770.42 6839.09C9726.54 6879.77 9656.99 6873.07 9621.69 6824.76L9544.59 6719.25C9517.27 6681.87 9519.19 6630.64 9549.21 6595.4Z" fill="#9A6A5A"/>
<path d="M9523.66 6204.27L9486.81 6063.16C9479.04 6033.39 9485.4 6001.71 9504.06 5977.25L9537.08 5933.97C9558.16 5906.34 9592.07 5891.63 9626.65 5895.13L9777.57 5910.4C9828.64 5915.57 9867.5 5958.56 9867.5 6009.89V6127.89C9867.5 6170.46 9840.54 6208.37 9800.33 6222.35L9653.24 6273.47C9598.13 6292.62 9538.39 6260.72 9523.66 6204.27Z" fill="#9A6A5A"/>
<path d="M9514.69 5509.12L9637.32 5405.73C9668.04 5379.83 9711.28 5374.83 9747.09 5393.04L9846.8 5443.72C9878.23 5459.71 9898.93 5491.07 9901.26 5526.25L9908.33 5632.95C9911.81 5685.36 9874.15 5731.52 9822.11 5738.64L9600.96 5768.91C9544.75 5776.6 9493.4 5736.04 9487.87 5679.58L9479.62 5595.32C9476.42 5562.56 9489.53 5530.33 9514.69 5509.12Z" fill="#9A6A5A"/>
<path d="M9789.55 4604.28L9729.58 4515.24C9704.91 4478.6 9707.19 4430.1 9735.21 4395.95L9798.88 4318.35C9824.4 4287.23 9866.09 4274.45 9904.66 4285.91L10005.2 4315.76C10072.2 4335.68 10098.6 4416.56 10056.2 4472.22L9952.05 4609.01C9910.55 4663.48 9827.81 4661.07 9789.55 4604.28Z" fill="#9A6A5A"/>
<path d="M9761.11 3776.63L9864.79 3481.21C9882.92 3429.55 9939.22 3402.07 9991.1 3419.57L10330.5 3534C10376.7 3549.59 10404.9 3596.26 10397.3 3644.44L10340.9 3999.67C10333.2 4048.24 10291.3 4084 10242.1 4084H9932.6C9893.02 4084 9857.17 4060.66 9841.15 4024.47L9764.03 3850.22C9753.73 3826.95 9752.69 3800.64 9761.11 3776.63Z" fill="#9A6A5A"/>
<path d="M9797.8 2774.33L9697.4 2586.82C9668 2531.92 9695.39 2463.8 9754.61 2444.53L10162.5 2311.77C10213.6 2295.15 10268.7 2321.86 10287.3 2372.26L10347.6 2535.72C10366 2585.73 10342 2641.41 10293 2662.32L9925.18 2819.11C9877.53 2839.43 9822.25 2819.99 9797.8 2774.33Z" fill="#9A6A5A"/>
<path d="M10075.7 3303.24L9900.03 3164.18C9832.79 3110.95 9859.35 3003.33 9943.63 2987.49L10263.7 2927.37C10352.6 2910.67 10416.2 3011.12 10363.1 3084.34L10218.7 3283.52C10185.3 3329.59 10120.3 3338.55 10075.7 3303.24Z" fill="#9A6A5A"/>
<path d="M9456.55 2352.54L9180.07 2202.74C9121.05 2170.77 9109.67 2090.88 9157.41 2043.7L9339.62 1863.59C9355.73 1847.67 9376.76 1837.69 9399.29 1835.28L9804.37 1791.96C9856.76 1786.36 9904.51 1822.37 9913.53 1874.28L9953.69 2105.47C9961.75 2151.87 9936.33 2197.61 9892.67 2215.28L9541.7 2357.31C9514.03 2368.51 9482.8 2366.76 9456.55 2352.54Z" fill="#9A6A5A"/>
<path d="M8662.35 2006.12L8513.82 1912.33C8478.71 1890.16 8460.96 1848.59 8469.21 1807.9L8487.81 1716.19C8497.9 1666.47 8543.61 1632.19 8594.15 1636.41L8865.28 1659.09C8946.83 1665.91 8986.11 1762.44 8932.5 1824.26L8791.29 1987.09C8758.92 2024.42 8704.13 2032.51 8662.35 2006.12Z" fill="#9A6A5A"/>
<path d="M8251.18 1416.77L8062.44 1188.53C8036.24 1156.84 8032.1 1112.34 8052.02 1076.36L8119.84 953.893C8141.05 915.593 8184.71 895.541 8227.58 904.409L8694.73 1001.04C8751.04 1012.68 8785.95 1069.31 8771.06 1124.85L8718.19 1322.11C8708.28 1359.06 8678.17 1387.12 8640.62 1394.39L8347.26 1451.21C8311.34 1458.17 8274.5 1444.96 8251.18 1416.77Z" fill="#9A6A5A"/>
<path d="M7793.75 1096.64L7487.23 1166.84C7471 1170.55 7454.1 1170.16 7438.06 1165.69L7215.53 1103.69C7170.95 1091.26 7140.72 1049.87 7142.44 1003.63L7155.29 659.463C7157.52 599.438 7211.8 554.918 7271.1 564.462L7841 656.182C7897.73 665.312 7935.11 720.258 7922.78 776.377L7869.1 1020.63C7860.8 1058.41 7831.45 1088.01 7793.75 1096.64Z" fill="#9A6A5A"/>
<path d="M6671.59 1279.64L6469.33 1195.33C6402.46 1167.45 6386.49 1079.94 6439.22 1030.25L6689.32 794.566C6758.41 729.459 6870.84 788.238 6856.8 882.127L6808.97 1202.12C6799.34 1266.53 6731.7 1304.7 6671.59 1279.64Z" fill="#9A6A5A"/>
<path d="M5981.83 1063.91L5672.39 1075.16C5589.67 1078.17 5539.32 985.114 5587.09 917.514L5886.26 494.158C5910.68 459.593 5954.22 444.148 5994.97 455.596L6330.03 549.732C6404.08 570.535 6427.9 663.655 6372.94 717.462L6048.15 1035.43C6030.36 1052.85 6006.71 1063 5981.83 1063.91Z" fill="#9A6A5A"/>
<path d="M5154.51 904.897L4962.56 793.752C4895.57 754.967 4896.15 658.053 4963.6 620.075L5271.04 446.967C5353.52 400.522 5448.37 484.041 5412.75 571.741L5297.27 855.994C5274.41 912.265 5207.08 935.33 5154.51 904.897Z" fill="#9A6A5A"/>
<path d="M4440.41 640.578L4007.72 789.452C3951.16 808.914 3890.28 774.696 3877.5 716.26L3779.15 266.636C3764.28 198.658 3821.66 136.653 3890.59 146.218L4477.32 227.64C4536.36 235.834 4575.17 293.532 4560.5 351.305L4504.8 570.633C4496.5 603.312 4472.29 629.609 4440.41 640.578Z" fill="#9A6A5A"/>
<path d="M3475.45 727.601L3407.77 697.27C3354.53 673.408 3332.94 609.222 3360.94 558.033L3394.16 497.282C3435.16 422.32 3545.2 429.972 3575.43 509.886L3609.88 600.968C3641.36 684.187 3556.64 763.99 3475.45 727.601Z" fill="#9A6A5A"/>
<path d="M2777.76 706.623L2275.52 860.746C2232.64 873.903 2186.25 856.904 2162.03 819.16L1951.44 491.051C1919.93 441.966 1936.95 376.446 1988.36 348.896L2299.5 182.157C2335.7 162.754 2380.09 167.466 2411.42 194.037L2813.11 534.763C2873.38 585.889 2853.32 683.436 2777.76 706.623Z" fill="#9A6A5A"/>
<path d="M1393.11 887.868L1288.39 676.045C1280.92 660.927 1277.39 644.166 1278.13 627.318L1285.68 456.389C1289.7 365.334 1403.49 326.686 1462.13 396.456L1740.56 727.703C1787.24 783.228 1761.12 868.413 1691.35 888.239L1510.08 939.745C1463.68 952.929 1414.48 931.111 1393.11 887.868Z" fill="#9A6A5A"/>
<path d="M1151.21 1012.52L628.5 792.504C557.916 762.794 481.499 820.204 490.381 896.269L535.766 1284.98C540.697 1327.21 571.797 1361.71 613.295 1370.98L1114.17 1482.84C1180.04 1497.54 1241.26 1444.13 1235.61 1376.87L1212.06 1096.32C1208.95 1059.24 1185.51 1026.95 1151.21 1012.52Z" fill="#9A6A5A"/>
<path d="M1167.15 1950.83L951.697 2066.55C878.826 2105.7 792.65 2044.48 805.615 1962.78L830.461 1806.22C839.448 1749.59 894.113 1712.1 950.178 1724.11L1140.78 1764.95C1231.79 1784.45 1249.14 1906.79 1167.15 1950.83Z" fill="#9A6A5A"/>
<path d="M7755.73 8441.51C7741.44 8487.48 7690.49 8510.97 7646.25 8491.97C7577.62 8462.51 7581.91 8363.8 7652.83 8340.39C7715.49 8319.72 7775.31 8378.5 7755.73 8441.51Z" fill="#9A6A5A"/>
</g>
</g>
</g>
<defs>
<clipPath id="clip0_1876_2977">
<rect width="10000" height="10000" fill="white"/>
</clipPath>
</defs>
</svg>
