<svg width="12857" height="11078" viewBox="0 0 12857 11078" fill="none" xmlns="http://www.w3.org/2000/svg">
<g id="walls" clip-path="url(#clip0_1876_2977)">
<g id="Group 124">
<path id="Union" fill-rule="evenodd" clip-rule="evenodd" d="M4124.8 5930.3L3878 5683.5L3908.44 5631.53L3850.1 5550.97C3828.49 5521.12 3825.04 5481.81 3841.12 5448.66L3955.96 5211.95C3971.28 5180.38 4002.03 5159.14 4036.98 5156L4195.33 5141.77L4359.5 4861.5L4624.34 5127.82C4633.72 5134.6 4642 5143.06 4648.68 5152.96L4907.65 5536.88C4942.15 5588.03 4922.57 5657.91 4866.51 5683.67L4250.6 5966.72C4220.08 5980.74 4185.58 5978.22 4158.06 5962.01L4157.5 5963L4153.97 5959.47C4144.04 5952.96 4135.15 5944.59 4127.85 5934.51L4124.8 5930.3Z" fill="black" fill-opacity="0.15"/>
<path id="Rectangle 1712" d="M3766.98 4886L4286.83 4839.29C4323.12 4836.03 4358.31 4852.76 4378.68 4882.96L4637.65 5266.88C4672.15 5318.03 4652.57 5387.91 4596.51 5413.67L3980.6 5696.72C3937.24 5716.64 3885.84 5703.16 3857.85 5664.51L3580.1 5280.97C3558.49 5251.12 3555.04 5211.81 3571.12 5178.66L3685.96 4941.95C3701.28 4910.38 3732.03 4889.14 3766.98 4886Z" fill="#BB816E"/>
<path id="Rectangle 1711" d="M3910.28 5054.54L4169.21 5036.62C4201.96 5034.35 4233.73 5048.3 4254.23 5073.94L4344.93 5187.42C4387.67 5240.9 4365.25 5320.55 4300.89 5343.87L4086.11 5421.72C4045.35 5436.49 3999.71 5423.32 3973.09 5389.09L3838.24 5215.69C3789.1 5152.5 3830.42 5060.07 3910.28 5054.54Z" fill="#9A6A5A"/>
</g>
<g id="Group 125">
<path id="Union_2" fill-rule="evenodd" clip-rule="evenodd" d="M7186.92 3986.92L6879 3679L7614 2657L7923 2966L7922.99 2966.01C7928.2 2970.05 7933.04 2974.63 7937.42 2979.71L8304.04 3405.08C8331.04 3436.41 8335.97 3481.13 8316.44 3517.59L7979.06 4147.44C7956.85 4188.92 7908.73 4209.3 7863.48 4196.39L7234.57 4017.03C7215.94 4011.71 7199.46 4001.17 7186.92 3986.92Z" fill="black" fill-opacity="0.15"/>
<path id="Rectangle 1712_2" d="M7150.28 2625H7541.67C7570.77 2625 7598.42 2637.67 7617.42 2659.71L7984.04 3085.08C8011.04 3116.41 8015.97 3161.13 7996.44 3197.59L7659.06 3827.44C7636.85 3868.92 7588.73 3889.3 7543.48 3876.39L6914.57 3697.03C6886.68 3689.07 6863.61 3669.4 6851.36 3643.11L6703.21 3325.26C6688.75 3294.25 6691.15 3258.01 6709.57 3229.18L7066.01 2671.17C7084.38 2642.41 7116.15 2625 7150.28 2625Z" fill="#BB816E"/>
<path id="Rectangle 1711_2" d="M6989.45 3158.04L7232.33 2865.34C7267.72 2822.69 7331.04 2816.95 7373.52 2852.55L7567.17 3014.85C7594.6 3037.83 7607.65 3073.72 7601.4 3108.95L7539.99 3455.28C7529.41 3514.92 7468.66 3551.54 7410.99 3533.04L7197.73 3464.65C7184.07 3460.27 7171.51 3453 7160.91 3443.33L6999.05 3295.8C6959.57 3259.82 6955.34 3199.15 6989.45 3158.04Z" fill="#9A6A5A"/>
</g>
<rect id="exitDarkness" x="5649" y="1047" width="780" height="303" fill="url(#paint0_linear_1876_2977)"/>
<g id="Group 127">
<path id="Union_3" fill-rule="evenodd" clip-rule="evenodd" d="M1948.65 3119.27C1965.46 3141.11 1972.52 3168.93 1968.14 3196.15L1862.52 3852.66C1860.62 3864.46 1856.63 3875.82 1850.72 3886.21L1525.89 4457.41C1512.92 4480.22 1509.43 4507.21 1516.19 4532.57L1717.91 5290.3C1721.37 5303.3 1722.17 5316.86 1720.26 5330.18L1560.81 6444.89C1559.38 6454.9 1559.48 6465.08 1561.1 6475.07L1580.96 6597.42C1582.31 6605.77 1582.6 6614.26 1581.82 6622.69L1511.5 7380L1365.66 9070.32C1364.56 9082.99 1365.9 9095.75 1369.59 9107.93L1759.39 10393.6C1767.14 10419.1 1784.79 10440.5 1808.42 10453L2820.6 10987.1C2831.77 10993 2843.94 10996.7 2856.49 10998.1L6089.31 11348.6C6101.01 11349.9 6112.85 11349 6124.27 11346.2L8468.5 10762L10568.8 10184.5C10587.8 10179.3 10604.9 10168.5 10617.8 10153.6L11426.7 9220.87C11435.8 9210.4 11442.6 9198.17 11446.7 9184.93L12088.4 7112.97C12090.1 7107.33 12091.4 7101.56 12092.1 7095.7L12312.6 5318.73C12313.5 5311.27 12313.6 5303.72 12312.8 5296.24L12152.6 3727.79C12151.9 3720.95 12150.5 3714.2 12148.4 3707.65L11908.9 2954.7C11902.2 2933.51 11888.5 2915.16 11870.2 2902.57L10525.3 1979.02C10519.4 1975.02 10514.1 1970.41 10509.2 1965.27L9865.88 1284.5C9848 1265.58 9823.45 1254.38 9797.45 1253.27L7704.83 1164.21C7686.31 1163.42 7668.37 1157.5 7653.02 1147.1L6561.63 408.174C6545.56 397.293 6526.67 391.324 6507.26 390.994L5341.31 371.183C5334.12 371.061 5326.95 371.714 5319.9 373.131L2697.13 900.436C2691.96 901.477 2686.87 902.926 2681.92 904.771L1544.97 1328.53C1507.57 1342.47 1482.05 1377.31 1480.02 1417.17L1429.87 2406.16C1428.66 2429.94 1435.98 2453.36 1450.5 2472.23L1948.65 3119.27ZM2513.16 8283.39C2492.62 8322.85 2500.63 8371.14 2532.8 8401.86L2995.48 8843.76C3013.81 8861.27 3024.81 8885.07 3026.25 8910.37L3080.15 9852.15C3082.48 9892.85 3109.28 9928.07 3147.89 9941.15L3925 10204.5L5053.46 10427C5074.89 10431.2 5097.13 10428.3 5116.75 10418.7L5528.33 10217.3C5545.42 10208.9 5564.54 10205.6 5583.45 10207.8L6639.23 10326.5C6648.37 10327.5 6657.6 10327.2 6666.67 10325.7L7518.25 10185.3C7551.49 10179.8 7579.73 10158 7593.39 10127.2L7814.04 9629.86C7827.47 9599.6 7854.99 9577.95 7887.55 9572.03L8383.16 9481.84C8395.28 9479.63 8406.89 9475.2 8417.41 9468.78L8849 9205L9460.1 8938.34C9474.18 8932.19 9489.48 8929.38 9504.82 8930.1L9998.09 8953.42C10026.1 8954.75 10053.3 8944.27 10073.2 8924.55L10487.5 8513.8C10501.8 8499.6 10511.5 8481.4 10515.3 8461.58L10596.4 8037.66C10597.5 8032.23 10599 8026.89 10600.9 8021.71L10815.8 7441.65C10823.1 7422.04 10824 7400.65 10818.5 7380.49L10716.2 7007.09C10712.8 6994.49 10711.8 6981.32 10713.4 6968.35L10781 6423.93C10784.2 6398.31 10797.2 6374.91 10817.2 6358.63L11117.8 6114.52C11155.3 6084.09 11165.7 6031.25 11142.5 5988.91L10931.6 5603.24C10922.1 5585.81 10918 5565.93 10919.8 5546.15L10982 4865.5L11112 4015.22C11114.3 4000.27 11113.2 3984.99 11108.7 3970.54L10975.9 3541.49C10964.9 3505.86 10935 3479.32 10898.3 3472.66L10409.3 3383.91C10396.9 3381.66 10385 3377.07 10374.3 3370.38L9694.48 2946.61C9682.22 2938.97 9671.91 2928.86 9664.1 2917.1L9260 2513L9378.69 2343.45L9152 2185.63C9124.52 2166.5 9089.28 2162.39 9058.14 2174.69L8286.67 2479.31C8264.31 2488.14 8239.51 2488.62 8216.83 2480.66L7479.47 2221.88C7471.19 2218.97 7462.57 2217.17 7453.82 2216.51L6661.55 2157.18C6642.58 2155.75 6624.4 2148.95 6609.16 2137.56L6185.07 1820.68C6158.18 1800.59 6123 1795.33 6091.4 1806.68L5299.65 2091.15C5275.78 2099.73 5249.54 2098.91 5226.25 2088.87L4562.93 1802.91C4541.34 1793.6 4517.15 1792.2 4494.63 1798.95L3780.27 2013.03C3764.98 2017.61 3748.81 2018.46 3733.13 2015.52L3288.07 1932.05C3268.79 1928.43 3248.86 1930.57 3230.78 1938.19L2913.71 2071.93C2869.04 2090.77 2844.32 2138.94 2855.06 2186.22L2993.39 2795.2C2994.79 2801.38 2995.61 2807.69 2995.82 2814.03L3018.65 3503L3100.85 4148.64C3103.33 4168.12 3111.49 4186.43 3124.3 4201.3L3494.78 4631.15C3524.85 4666.04 3527.2 4716.96 3500.48 4754.47L3110.91 5301.21C3106.75 5307.05 3103.23 5313.33 3100.41 5319.92L2906.4 5773.66C2895.41 5799.37 2895.68 5828.51 2907.15 5854.01L3083.02 6244.91C3096.56 6275.01 3094.38 6309.84 3077.19 6338.02L2667.23 7010.1C2652.16 7034.81 2648.53 7064.84 2657.29 7092.43L2824.93 7620.42C2832.98 7645.76 2830.6 7673.26 2818.33 7696.84L2513.16 8283.39Z" fill="black" fill-opacity="0.15"/>
<path id="rock" fill-rule="evenodd" clip-rule="evenodd" d="M312.64 2300.14C311.558 2286.52 313.276 2272.83 317.688 2259.91L672.5 1220.5L841.695 658.053C850.707 628.096 873.218 604.083 902.531 593.157L2045.11 167.297C2056.28 163.133 2068.11 161 2080.03 161H4753.5L6218.5 20.8473C6226.2 20.1107 6233.96 20.27 6241.63 21.3221L7272.41 162.834C7279.22 163.768 7286.1 163.998 7292.95 163.522L8447.74 83.2135C8454.56 82.7391 8461.41 82.9656 8468.19 83.8895L9723 255H10736.6C10760.1 255 10782.9 263.297 10800.9 278.43L11585.5 937.56C11599.9 949.611 11610.6 965.449 11616.3 983.27L11884.7 1810.54C11886.2 1815.17 11888.1 1819.69 11890.2 1824.06L12369.3 2791.46C12377.3 2807.53 12380.8 2825.43 12379.5 2843.3L12329.9 3505.68C12329.3 3513.86 12329.7 3522.09 12331.1 3530.18L12561.5 4862.38C12563.8 4875.66 12563.4 4889.26 12560.3 4902.38L12145.5 6661L11872.6 8318.1C11870.9 8328.63 11867.5 8338.82 11862.5 8348.28L11304.4 9412.95C11299.2 9422.91 11295.7 9433.68 11294 9444.81L11137.3 10509.4C11131.4 10549.7 11101.6 10582.3 11062.1 10592L9900 10875.5L8392.5 11057L5167 11016.5L3268.5 11057L944.755 10802.6C920.734 10799.9 898.478 10788.7 882.102 10770.9L390.931 10238C379.179 10225.2 370.946 10209.6 367.039 10192.7L4.70287 8625.84C1.60105 8612.42 1.30238 8598.51 3.82557 8584.98L279.097 7108.44C281.67 7094.63 281.308 7080.44 278.034 7066.79L143.894 6507.42C138.774 6486.07 140.823 6463.63 149.724 6443.56L447.51 5772.13C451.809 5762.44 454.539 5752.12 455.598 5741.57L526.774 5032.17C528.559 5014.38 525.542 4996.44 518.038 4980.21L61.5919 3993.19C48.0412 3963.89 49.4703 3929.85 65.4292 3901.78L378.807 3350.72C388.707 3333.31 393.152 3313.33 391.565 3293.36L312.64 2300.14ZM2132.8 8001.86C2100.63 7971.14 2092.62 7922.85 2113.16 7883.39L2418.33 7296.84C2430.6 7273.26 2432.98 7245.76 2424.93 7220.42L2257.29 6692.43C2248.53 6664.84 2252.16 6634.81 2267.23 6610.1L2677.19 5938.02C2694.38 5909.84 2696.56 5875.01 2683.02 5844.91L2507.15 5454.01C2495.68 5428.51 2495.41 5399.37 2506.4 5373.66L2700.41 4919.92C2703.23 4913.33 2706.75 4907.05 2710.91 4901.21L3100.48 4354.47C3127.2 4316.96 3124.85 4266.04 3094.78 4231.15L2724.3 3801.3C2711.49 3786.43 2703.33 3768.12 2700.85 3748.64L2618.65 3103L2595.82 2414.03C2595.61 2407.69 2594.79 2401.38 2593.39 2395.2L2455.06 1786.22C2444.32 1738.94 2469.04 1690.77 2513.71 1671.93L2830.78 1538.19C2848.86 1530.57 2868.79 1528.43 2888.07 1532.05L3333.13 1615.52C3348.81 1618.46 3364.98 1617.61 3380.27 1613.03L4094.63 1398.95C4117.15 1392.2 4141.34 1393.6 4162.93 1402.91L4843.55 1696.33C4856.05 1701.72 4869.52 1704.5 4883.14 1704.5H5398.93C5424.95 1704.5 5449.94 1694.36 5468.6 1676.23L5738 1414.59L5799.79 1346.59C5815.13 1329.71 5824.24 1308.08 5825.61 1285.31L5828.32 1240.01C5829.71 1216.68 5840.52 1194.91 5858.27 1179.7L5875.2 1165.19C5890.6 1151.98 5912.31 1149.02 5930.69 1157.61V1157.61C5945.37 1164.47 5962.42 1164.04 5976.74 1156.46L6002.41 1142.87C6025.39 1130.71 6052.81 1130.31 6076.13 1141.82L6092.18 1149.73C6105.85 1156.48 6121.96 1156.12 6135.32 1148.77V1148.77C6152.54 1139.31 6173.83 1141.63 6188.6 1154.59L6213.02 1176.02C6224.24 1185.86 6232.92 1198.26 6238.34 1212.16L6308.97 1393.46C6311.98 1401.18 6315.93 1408.5 6320.74 1415.24L6533.39 1713.3C6549.41 1735.76 6574.01 1750.6 6601.35 1754.31L7056.92 1816.13C7063.62 1817.04 7070.21 1818.63 7076.59 1820.87L7816.83 2080.66C7839.51 2088.62 7864.31 2088.14 7886.67 2079.31L8658.14 1774.69C8689.28 1762.39 8724.52 1766.5 8752 1785.63L9157.82 2068.16C9180.58 2084 9195.73 2108.59 9199.67 2136.04L9248.4 2475.94C9252.58 2505.14 9269.45 2531.01 9294.48 2546.61L9974.27 2970.38C9984.99 2977.07 9996.88 2981.66 10009.3 2983.91L10498.3 3072.66C10535 3079.32 10564.9 3105.86 10575.9 3141.49L10708.7 3570.54C10713.2 3584.99 10714.3 3600.27 10712 3615.22L10582 4465.5L10519.8 5146.15C10518 5165.94 10522.1 5185.81 10531.6 5203.24L10742.5 5588.91C10765.7 5631.25 10755.3 5684.09 10717.8 5714.52L10417.2 5958.63C10397.2 5974.91 10384.2 5998.31 10381 6023.94L10313.4 6568.35C10311.8 6581.33 10312.8 6594.49 10316.2 6607.09L10418.5 6980.49C10424 7000.65 10423.1 7022.04 10415.8 7041.65L10200.9 7621.71C10199 7626.89 10197.5 7632.23 10196.4 7637.66L10115.3 8061.58C10111.5 8081.4 10101.8 8099.6 10087.5 8113.8L9673.22 8524.55C9653.32 8544.27 9626.07 8554.75 9598.09 8553.42L9104.82 8530.1C9089.48 8529.38 9074.18 8532.2 9060.1 8538.34L8449 8805L8017.41 9068.78C8006.89 9075.2 7995.28 9079.63 7983.16 9081.84L7487.55 9172.03C7454.99 9177.95 7427.47 9199.61 7414.04 9229.86L7193.39 9727.17C7179.73 9757.96 7151.49 9779.8 7118.25 9785.28L6266.67 9925.75C6257.6 9927.24 6248.37 9927.48 6239.23 9926.45L5183.45 9807.76C5164.54 9805.63 5145.42 9808.94 5128.33 9817.31L4716.75 10018.7C4697.13 10028.3 4674.89 10031.2 4653.46 10027L3525 9804.5L2747.89 9541.15C2709.28 9528.07 2682.48 9492.85 2680.15 9452.15L2626.25 8510.37C2624.81 8485.07 2613.81 8461.27 2595.48 8443.77L2132.8 8001.86Z" fill="#BB816E"/>
<path id="Rectangle 1715" d="M2522.1 4328.59L2271.16 4730.32C2260.32 4747.69 2244.4 4761.31 2225.57 4769.34L1939.15 4891.44C1885.82 4914.18 1824.39 4886.94 1805.43 4832.15L1671.49 4445.05C1665.92 4428.95 1664.56 4411.7 1667.53 4394.92L1721.59 4089.33C1727.19 4057.72 1747.62 4030.72 1776.51 4016.74L2056.43 3881.31C2093.05 3863.59 2136.76 3869.82 2166.96 3897.07L2504.27 4201.36C2540.27 4233.84 2547.78 4287.46 2522.1 4328.59Z" fill="#9A6A5A"/>
<path id="Rectangle 1713" d="M2279.2 2739.05L2382.98 2956.01C2393.32 2977.62 2395.55 3002.21 2389.28 3025.33L2295.53 3371.08C2286.22 3405.4 2259.39 3432.19 2225.06 3441.46L2034.18 3492.95C1976.7 3508.46 1918.49 3470.62 1909.33 3411.8L1840.63 2970.96C1834.74 2933.14 1850.95 2895.28 1882.39 2873.44L2131.93 2700.07C2182.55 2664.91 2252.61 2683.45 2279.2 2739.05Z" fill="#9A6A5A"/>
<path id="Rectangle 1712_3" d="M2286.7 5951.9L2021.85 6375.92C2005.82 6401.58 1979.03 6418.6 1948.99 6422.22L1684.96 6454.02C1625.42 6461.19 1573 6414.7 1573 6354.73V5928.34C1573 5920.8 1573.85 5913.29 1575.54 5905.95L1681.67 5444.1C1692.1 5398.69 1732.53 5366.5 1779.13 5366.5H2104.09C2150.82 5366.5 2191.32 5398.86 2201.63 5444.44L2299.42 5876.86C2305.24 5902.58 2300.67 5929.54 2286.7 5951.9Z" fill="#9A6A5A"/>
<g id="inside">
<path d="M2114.45 7224.82L2021.71 6982.9C1996.7 6917.66 1914.21 6897.52 1861.95 6943.91L1430.39 7326.98C1385.87 7366.5 1385.52 7435.9 1429.62 7475.87L1689.56 7711.43C1734.13 7751.83 1804.02 7744.01 1838.57 7694.78L2102.94 7318.05C2122.04 7290.83 2126.36 7255.88 2114.45 7224.82Z" fill="#9A6A5A"/>
<path d="M2035.29 8239L1659.49 8030.84C1579.19 7986.36 1486.41 8064.52 1516.6 8151.21L1647.49 8527.01C1669.16 8589.23 1744.04 8613.85 1798.41 8576.64L2043.32 8409C2104.7 8366.99 2100.36 8275.05 2035.29 8239Z" fill="#9A6A5A"/>
<path d="M2371.88 9515.36L2411.58 9160.02C2419.02 9093.46 2360.21 9038.55 2294.32 9050.53L1712.39 9156.31C1616.21 9173.79 1599.67 9304.67 1688.46 9345.54L2230.69 9595.09C2292.63 9623.6 2364.31 9583.12 2371.88 9515.36Z" fill="#9A6A5A"/>
<path d="M1946 8867.27L2296.86 8950.71C2359.69 8965.66 2420 8918.01 2420 8853.43V8580.96C2420 8505.28 2339.2 8457.03 2272.57 8492.92L1921.71 8681.94C1840.8 8725.53 1856.59 8846 1946 8867.27Z" fill="#9A6A5A"/>
<path d="M3402.09 9976.55L2637.94 9734.82C2607.5 9725.19 2574.29 9730.68 2548.56 9749.58L2185.57 10016.3C2127.76 10058.8 2132.17 10146.5 2193.96 10183L2658.38 10457.1C2678.49 10469 2702.12 10473.5 2725.17 10469.7L3442.87 10353.7C3502.53 10344.1 3540.07 10284.1 3522.69 10226.2L3467.71 10043.1C3458.19 10011.5 3433.63 9986.53 3402.09 9976.55Z" fill="#9A6A5A"/>
<path d="M4476.13 10220L4137.81 10086.2C4120.92 10079.5 4102.54 10077.6 4084.62 10080.6L3938.02 10104.9C3851.92 10119.2 3824.2 10229.3 3893.24 10282.7L4117.36 10456C4141.46 10474.6 4172.74 10481.3 4202.33 10474L4463.13 10410.2C4557.79 10387 4566.75 10255.9 4476.13 10220Z" fill="#9A6A5A"/>
<path d="M5146.02 10348.7L5082.74 10213.9C5059.77 10164.9 5079.86 10106.6 5128.09 10082.2L5288.52 10000.9C5307.66 9991.23 5329.42 9987.96 5350.57 9991.58L6126.73 10124.5C6228.19 10141.9 6240.37 10282.7 6143.4 10317.3L5696.02 10476.6C5679.62 10482.4 5661.99 10483.9 5644.86 10480.8L5218.93 10404.6C5186.99 10398.9 5159.8 10378 5146.02 10348.7Z" fill="#9A6A5A"/>
<path d="M7150.26 10289L7052.27 10069C7026.88 10012 7059.32 9945.9 7119.95 9931.14L7325.02 9881.19C7355.26 9873.82 7380.35 9852.79 7392.89 9824.3L7430.23 9739.42C7456.8 9679.04 7533.52 9660.48 7584.76 9702.03L7988.57 10029.5C8054.09 10082.7 8028.41 10188.1 7945.78 10205.1L7261.81 10346.2C7215.79 10355.7 7169.38 10331.9 7150.26 10289Z" fill="#9A6A5A"/>
<path d="M8413.07 9117.57L8070.91 9201.44C8048.34 9206.97 8028.41 9220.19 8014.53 9238.82L7834.73 9480.15C7800.97 9525.46 7811.43 9589.73 7857.83 9621.99L8200.66 9860.4C8226.95 9878.68 8260.39 9883.27 8290.63 9872.75L8802.89 9694.42C8869.6 9671.2 8891.86 9588.01 8845.66 9534.58L8512.52 9149.29C8487.96 9120.88 8449.55 9108.63 8413.07 9117.57Z" fill="#9A6A5A"/>
<path d="M9035.77 8894.25L8938.33 9085.55C8912.9 9135.47 8933.45 9196.55 8983.88 9220.95L9310.75 9379.09C9360.75 9403.29 9420.88 9382.09 9444.67 9331.9L9583.88 9038.11C9612.58 8977.53 9574.72 8906.42 9508.43 8896.41L9139.8 8840.76C9097.23 8834.34 9055.31 8855.89 9035.77 8894.25Z" fill="#9A6A5A"/>
<path d="M9923.72 8735.89L10103.1 8513.24C10137.2 8470.87 10198.9 8463.56 10242 8496.78L10461.4 8665.92C10506.6 8700.8 10513.5 8766.42 10476.5 8809.92L10244.8 9082.1C10203.5 9130.65 10127.9 9128.66 10089.2 9078L9922.14 8859.35C9894.17 8822.74 9894.83 8771.77 9923.72 8735.89Z" fill="#9A6A5A"/>
<path d="M9668.27 9453.1L9709.53 9222.08C9724.08 9140.64 9825.57 9111.08 9881.57 9171.95L10048.8 9353.74C10100.6 9410.01 10072.6 9501.2 9998.2 9518.77L9789.7 9568C9719.67 9584.54 9655.62 9523.93 9668.27 9453.1Z" fill="#9A6A5A"/>
<path d="M10278.8 7845.8L10356.7 7615.5C10373.9 7564.66 10428.2 7536.47 10479.7 7551.62L10575.7 7579.88C10618.3 7592.4 10647.5 7631.46 10647.5 7675.82V7906.31C10647.5 7967.98 10592.2 8014.96 10531.4 8005L10357.4 7976.54C10296.4 7966.57 10259 7904.29 10278.8 7845.8Z" fill="#9A6A5A"/>
<path d="M10595.2 8177.5H10404.7C10315.8 8177.5 10271.1 8284.85 10333.7 8347.95L10499.7 8515.14C10557.7 8573.6 10657.6 8540.74 10669.6 8459.23L10694.2 8292.05C10703 8231.68 10656.2 8177.5 10595.2 8177.5Z" fill="#9A6A5A"/>
<path d="M10572.2 7134.4L10666.6 7023.6C10693.4 6992.19 10736.7 6980.44 10775.6 6994.02L10859.3 7023.16C10896.5 7036.14 10922.7 7069.81 10926 7109.12L10933.4 7195.88C10936 7226.56 10924.3 7256.74 10901.7 7277.68L10793.4 7378.09C10749.5 7418.77 10680 7412.07 10644.7 7363.76L10567.6 7258.25C10540.3 7220.87 10542.2 7169.64 10572.2 7134.4Z" fill="#9A6A5A"/>
<path d="M10546.7 6743.27L10509.8 6602.16C10502 6572.39 10508.4 6540.71 10527.1 6516.25L10560.1 6472.97C10581.2 6445.34 10615.1 6430.63 10649.6 6434.13L10800.6 6449.4C10851.6 6454.57 10890.5 6497.56 10890.5 6548.89V6666.89C10890.5 6709.46 10863.5 6747.37 10823.3 6761.35L10676.2 6812.47C10621.1 6831.62 10561.4 6799.72 10546.7 6743.27Z" fill="#9A6A5A"/>
<path d="M10537.7 6048.12L10660.3 5944.73C10691 5918.83 10734.3 5913.83 10770.1 5932.04L10869.8 5982.72C10901.2 5998.71 10921.9 6030.07 10924.3 6065.25L10931.3 6171.95C10934.8 6224.36 10897.1 6270.52 10845.1 6277.64L10624 6307.91C10567.7 6315.6 10516.4 6275.04 10510.9 6218.58L10502.6 6134.32C10499.4 6101.56 10512.5 6069.33 10537.7 6048.12Z" fill="#9A6A5A"/>
<path d="M10812.6 5143.28L10752.6 5054.24C10727.9 5017.6 10730.2 4969.1 10758.2 4934.95L10821.9 4857.35C10847.4 4826.23 10889.1 4813.45 10927.7 4824.91L11028.2 4854.76C11095.2 4874.68 11121.6 4955.56 11079.2 5011.22L10975 5148.01C10933.5 5202.48 10850.8 5200.07 10812.6 5143.28Z" fill="#9A6A5A"/>
<path d="M10784.1 4315.63L10887.8 4020.21C10905.9 3968.55 10962.2 3941.07 11014.1 3958.57L11353.5 4073C11399.7 4088.59 11427.9 4135.26 11420.3 4183.44L11363.9 4538.67C11356.2 4587.24 11314.3 4623 11265.1 4623H10955.6C10916 4623 10880.2 4599.66 10864.2 4563.47L10787 4389.22C10776.7 4365.95 10775.7 4339.64 10784.1 4315.63Z" fill="#9A6A5A"/>
<path d="M10820.8 3313.33L10720.4 3125.82C10691 3070.92 10718.4 3002.8 10777.6 2983.53L11185.5 2850.77C11236.6 2834.15 11291.7 2860.86 11310.3 2911.26L11370.6 3074.72C11389 3124.73 11365 3180.41 11316 3201.32L10948.2 3358.11C10900.5 3378.43 10845.3 3358.99 10820.8 3313.33Z" fill="#9A6A5A"/>
<path d="M11098.7 3842.24L10923 3703.18C10855.8 3649.95 10882.3 3542.33 10966.6 3526.49L11286.7 3466.37C11375.6 3449.67 11439.2 3550.12 11386.1 3623.34L11241.7 3822.52C11208.3 3868.59 11143.3 3877.55 11098.7 3842.24Z" fill="#9A6A5A"/>
<path d="M10479.5 2891.54L10203.1 2741.74C10144.1 2709.77 10132.7 2629.88 10180.4 2582.7L10362.6 2402.59C10378.7 2386.67 10399.8 2376.69 10422.3 2374.28L10827.4 2330.96C10879.8 2325.36 10927.5 2361.37 10936.5 2413.28L10976.7 2644.47C10984.7 2690.87 10959.3 2736.61 10915.7 2754.28L10564.7 2896.31C10537 2907.51 10505.8 2905.76 10479.5 2891.54Z" fill="#9A6A5A"/>
<path d="M9685.35 2545.12L9536.82 2451.33C9501.71 2429.16 9483.96 2387.59 9492.21 2346.9L9510.82 2255.19C9520.9 2205.47 9566.61 2171.19 9617.15 2175.41L9888.28 2198.09C9969.83 2204.91 10009.1 2301.44 9955.5 2363.26L9814.29 2526.09C9781.92 2563.42 9727.13 2571.51 9685.35 2545.12Z" fill="#9A6A5A"/>
<path d="M9274.18 1955.77L9085.44 1727.53C9059.24 1695.84 9055.1 1651.34 9075.02 1615.36L9142.84 1492.89C9164.05 1454.59 9207.71 1434.54 9250.58 1443.41L9717.73 1540.04C9774.04 1551.68 9808.95 1608.31 9794.06 1663.85L9741.19 1861.11C9731.28 1898.06 9701.17 1926.12 9663.62 1933.39L9370.26 1990.21C9334.34 1997.17 9297.5 1983.96 9274.18 1955.77Z" fill="#9A6A5A"/>
<path d="M8816.75 1635.64L8510.23 1705.84C8494 1709.55 8477.1 1709.16 8461.06 1704.69L8238.53 1642.69C8193.95 1630.26 8163.72 1588.87 8165.44 1542.63L8178.29 1198.46C8180.52 1138.44 8234.8 1093.92 8294.1 1103.46L8864 1195.18C8920.73 1204.31 8958.11 1259.26 8945.78 1315.38L8892.1 1559.63C8883.8 1597.41 8854.45 1627.01 8816.75 1635.64Z" fill="#9A6A5A"/>
<path d="M7694.59 1818.64L7492.33 1734.33C7425.46 1706.45 7409.49 1618.94 7462.22 1569.25L7712.32 1333.57C7781.41 1268.46 7893.84 1327.24 7879.8 1421.13L7831.97 1741.12C7822.34 1805.53 7754.7 1843.7 7694.59 1818.64Z" fill="#9A6A5A"/>
<path d="M7004.83 1602.91L6695.39 1614.16C6612.67 1617.17 6562.32 1524.11 6610.09 1456.51L6909.26 1033.16C6933.68 998.593 6977.22 983.148 7017.97 994.596L7353.03 1088.73C7427.08 1109.54 7450.9 1202.66 7395.94 1256.46L7071.15 1574.43C7053.36 1591.85 7029.71 1602 7004.83 1602.91Z" fill="#9A6A5A"/>
<path d="M5458.23 1181.36L5030.72 1328.45C4974.16 1347.91 4913.28 1313.7 4900.5 1255.26L4793.08 764.148C4781.19 709.823 4815.92 656.238 4870.35 644.886L5484.31 516.86C5553.19 502.496 5614.97 561.87 5603.35 631.265L5524.32 1103.31C5518.27 1139.48 5492.91 1169.43 5458.23 1181.36Z" fill="#9A6A5A"/>
<path d="M4498.45 1266.6L4430.77 1236.27C4377.53 1212.41 4355.94 1148.22 4383.94 1097.03L4417.16 1036.28C4458.16 961.32 4568.2 968.972 4598.43 1048.89L4632.88 1139.97C4664.36 1223.19 4579.64 1302.99 4498.45 1266.6Z" fill="#9A6A5A"/>
<path d="M3800.76 1245.62L3298.52 1399.75C3255.64 1412.9 3209.25 1395.9 3185.03 1358.16L2974.44 1030.05C2942.93 980.966 2959.95 915.446 3011.36 887.896L3322.5 721.157C3358.7 701.754 3403.09 706.466 3434.42 733.037L3836.11 1073.76C3896.38 1124.89 3876.32 1222.44 3800.76 1245.62Z" fill="#9A6A5A"/>
<path d="M2416.11 1426.87L2311.39 1215.04C2303.92 1199.93 2300.39 1183.17 2301.13 1166.32L2308.68 995.389C2312.7 904.334 2426.49 865.686 2485.13 935.456L2763.56 1266.7C2810.24 1322.23 2784.12 1407.41 2714.35 1427.24L2533.08 1478.74C2486.68 1491.93 2437.48 1470.11 2416.11 1426.87Z" fill="#9A6A5A"/>
<path d="M2174.21 1551.52L1651.5 1331.5C1580.92 1301.79 1504.5 1359.2 1513.38 1435.27L1558.77 1823.98C1563.7 1866.21 1594.8 1900.71 1636.3 1909.98L2137.17 2021.84C2203.04 2036.54 2264.26 1983.13 2258.61 1915.87L2235.06 1635.32C2231.95 1598.24 2208.51 1565.95 2174.21 1551.52Z" fill="#9A6A5A"/>
<path d="M2190.15 2489.83L1974.7 2605.55C1901.83 2644.7 1815.65 2583.48 1828.61 2501.78L1853.46 2345.22C1862.45 2288.59 1917.11 2251.1 1973.18 2263.11L2163.78 2303.95C2254.79 2323.45 2272.14 2445.79 2190.15 2489.83Z" fill="#9A6A5A"/>
<path d="M6486.55 1106.09L6430.8 854.655C6415.13 784.024 6477.34 720.649 6548.25 734.992L6811.01 788.139C6884.21 802.945 6915.94 889.849 6869.5 948.336L6704.95 1155.58C6681.39 1185.25 6643.08 1199.06 6606 1191.24L6563.55 1182.29C6525.16 1174.2 6495.04 1144.4 6486.55 1106.09Z" fill="#9A6A5A"/>
<path d="M8868.51 10124.5L9150.26 9851.21C9180.67 9821.71 9226.37 9814.58 9264.32 9833.4L9684.36 10041.7C9748.88 10073.7 9759.44 10161.4 9704.36 10207.8L9445 10426.3C9418.03 10449.1 9381.08 10455.9 9347.76 10444.3L8905.34 10290.7C8835 10266.3 8815.06 10176.3 8868.51 10124.5Z" fill="#9A6A5A"/>
<path d="M10558.9 9502.42L10135.1 9737.92C10114.1 9749.58 10098 9768.41 10089.7 9790.97L10016.3 9991.5C10000.8 10034 10015.7 10081.6 10052.7 10107.6L10403.4 10354.5C10435.4 10377 10477.7 10378.8 10511.5 10359L10861.5 10154C10905 10128.6 10922.7 10074.8 10903 10028.5L10699.5 9550.66C10676.2 9496.05 10610.8 9473.6 10558.9 9502.42Z" fill="#9A6A5A"/>
<path d="M10655.3 8884.96L10719.9 8774.81C10754.1 8716.48 10835.2 8708.23 10880.4 8758.47L10991.3 8881.55C11051.7 8948.5 10999.6 9054.84 10909.7 9048.22L10734.2 9035.29C10660.3 9029.86 10617.8 8948.83 10655.3 8884.96Z" fill="#9A6A5A"/>
<path d="M10890.5 8399.45V8001C10890.5 7945.77 10935.3 7901 10990.5 7901H11441.5C11492.9 7901 11535.9 7939.91 11541 7991.02L11578.1 8360.81C11583.8 8417.37 11541.2 8467.28 11484.5 8470.61L10996.4 8499.28C10938.9 8502.66 10890.5 8456.99 10890.5 8399.45Z" fill="#9A6A5A"/>
<path d="M11006.5 7444.69L11105.5 7220.57C11113 7203.53 11125.1 7188.93 11140.5 7178.42L11575.6 6880.97C11641.9 6835.59 11732 6883.11 11732 6963.51V7433.67C11732 7485.18 11692.9 7528.27 11641.6 7533.21L11107.6 7584.62C11031.5 7591.95 10975.6 7514.63 11006.5 7444.69Z" fill="#9A6A5A"/>
<path d="M11109.8 6604.31L11095.5 6185.19C11093.4 6123.36 11147.4 6074.47 11208.7 6082.66L11636.5 6139.81C11721.7 6151.19 11753.8 6257.58 11689.1 6314.18L11275.6 6676.15C11212.2 6731.69 11112.7 6688.59 11109.8 6604.31Z" fill="#9A6A5A"/>
<path d="M11020.2 5710.13L11102 5483.09C11111.6 5456.6 11131.8 5435.36 11157.8 5424.6L11516.9 5276.01C11543.1 5265.18 11572.6 5265.95 11598.2 5278.14L11929.2 5435.89C11995 5467.26 12006.2 5556.23 11950.2 5602.94L11557.8 5930.46C11532.3 5951.74 11497.9 5958.97 11466 5949.75L11086.5 5840.11C11031 5824.08 11000.6 5764.48 11020.2 5710.13Z" fill="#9A6A5A"/>
<path d="M11940.5 5193.32L11533.9 5032.28C11479.8 5010.82 11455.3 4947.79 11480.9 4895.44L11613.9 4623L12061.2 4598.28C12127.4 4594.63 12178.7 4655.15 12164.4 4719.83L12074.9 5122.05C12061.6 5182.11 11997.7 5215.98 11940.5 5193.32Z" fill="#9A6A5A"/>
<path d="M11723.4 4127.92L11772.1 3797.19C11778.8 3751.82 11815.5 3716.81 11861.1 3712.27L12185.6 3679.95C12244.4 3674.09 12295.5 3720.31 12295.5 3779.46V4142.5C12295.5 4197.73 12250.7 4242.5 12195.5 4242.5H11822.3C11761.3 4242.5 11714.5 4188.3 11723.4 4127.92Z" fill="#9A6A5A"/>
<path d="M11771 3269.22L11717.7 3102.13C11700.4 3047.84 11731.9 2990.09 11786.9 2975.23L12112.9 2887.19C12213.5 2860.02 12283.4 2985.57 12207.3 3056.75L11934.6 3311.9C11880.9 3362.09 11793.3 3339.22 11771 3269.22Z" fill="#9A6A5A"/>
<path d="M11097.6 2539.25L11117.2 2296.55C11122.4 2231.43 11187.7 2188.74 11249.4 2210.04L11652.2 2348.89C11746.4 2381.39 11740.3 2516.73 11643.5 2540.54L11221.2 2644.38C11154.9 2660.68 11092.2 2607.27 11097.6 2539.25Z" fill="#9A6A5A"/>
<path d="M10123 1864.05V1635.11C10123 1613.3 10130.1 1592.09 10143.3 1574.71L10251.4 1432.03C10276 1399.66 10317.7 1385.34 10356.9 1395.81L11194.8 1619.32C11277.1 1641.28 11296 1749.56 11226 1798.11L10677.8 2178.21C10645.9 2200.35 10604 2201.99 10570.5 2182.42L10172.6 1950.44C10141.9 1932.52 10123 1899.62 10123 1864.05Z" fill="#9A6A5A"/>
<path d="M10732.5 1256.89L10548.3 912.713C10506.4 834.471 10579.6 744.499 10664.7 769.6L11155.1 914.195C11236.9 938.328 11252.9 1047.28 11181.4 1093.88L10875.3 1293.46C10826.2 1325.48 10760.2 1308.57 10732.5 1256.89Z" fill="#9A6A5A"/>
<path d="M9278.48 1238.67L9120.75 990.096C9082.95 930.528 9117.05 851.601 9186.34 838.309L9965.66 688.799C10027.3 676.97 10084.5 724.224 10084.5 787.008V1114.69C10084.5 1165.56 10046.3 1208.33 9995.75 1214.05L9374.17 1284.46C9336.14 1288.77 9298.98 1270.99 9278.48 1238.67Z" fill="#9A6A5A"/>
<path d="M8326.7 832.117L8135.58 541.834C8085.08 465.139 8155.99 366.64 8244.74 390.187L8744.04 522.654C8832.63 546.158 8845.56 666.539 8763.98 708.318L8455.8 866.134C8410.39 889.389 8354.75 874.729 8326.7 832.117Z" fill="#9A6A5A"/>
<path d="M7374.63 891.064L7149.97 762.581C7071.61 717.771 7088.04 600.283 7175.68 578.68L7496.94 499.49C7524.07 492.804 7552.75 497.77 7576.05 513.185L7835.06 684.55C7913.42 736.392 7883.51 857.888 7790.04 867.431L7434.44 903.739C7413.67 905.86 7392.76 901.427 7374.63 891.064Z" fill="#9A6A5A"/>
<path d="M3990.24 899.973L3803.19 679.418C3752.6 619.767 3786.99 527.746 3864.3 515.893L4335.67 443.625C4430.44 429.096 4489.36 543.347 4422.57 612.132L4138.25 904.955C4097.12 947.317 4028.43 945.005 3990.24 899.973Z" fill="#9A6A5A"/>
<path d="M1772.38 1122.3L1506.38 932.369C1441.72 886.203 1454.12 786.71 1528.13 757.827L1963.11 588.079C2047.27 555.236 2128.39 641.989 2089.97 723.758L1921 1083.44C1894.46 1139.94 1823.19 1158.58 1772.38 1122.3Z" fill="#9A6A5A"/>
<path d="M2706.03 697.958L2599.03 598.097C2564.59 565.952 2557.26 514.127 2581.43 473.687L2675.88 315.671C2702.1 271.787 2757.21 254.755 2803.63 276.184L3128.71 426.262C3210.51 464.025 3204.57 582.212 3119.4 611.588L2806.86 719.387C2771.88 731.455 2733.08 723.211 2706.03 697.958Z" fill="#9A6A5A"/>
<path d="M978.739 1483.34L736.487 1698.43C719.656 1713.37 708.358 1733.56 704.422 1755.72L567.249 2527.9C553.685 2604.26 628.433 2666.33 700.996 2638.96L1346.07 2395.67C1397.1 2376.42 1423.3 2319.84 1404.96 2268.48L1139.31 1524.49C1115.48 1457.76 1031.73 1436.3 978.739 1483.34Z" fill="#9A6A5A"/>
<path d="M1559.17 3686.58L1531.33 3112.46C1528.14 3046.7 1463.36 3001.91 1400.71 3022.14L663.833 3260.15C576.327 3288.41 570.146 3409.85 654.33 3446.85L1419.05 3782.97C1487.06 3812.86 1562.77 3760.78 1559.17 3686.58Z" fill="#9A6A5A"/>
<path d="M1672.31 5056.03L1303.04 4602.32C1281.79 4576.22 1248.84 4562.55 1215.36 4565.96L788.942 4609.34C725.161 4615.83 683.874 4679.81 704.246 4740.6L913.384 5364.67C931.258 5418.01 989.59 5446.12 1042.44 5426.86L1628.99 5213.11C1693.59 5189.56 1715.71 5109.36 1672.31 5056.03Z" fill="#9A6A5A"/>
<path d="M1026.57 4004.01L615.079 3858.12C555.729 3837.08 491.938 3875.47 482.736 3937.76L437.648 4243.01C426.665 4317.37 498.564 4376.81 569.529 4352.04L1026.11 4192.68C1115.28 4161.56 1115.58 4035.57 1026.57 4004.01Z" fill="#9A6A5A"/>
<path d="M1212.55 6422.46L1315.3 5947.14C1330.38 5877.39 1269.64 5814.74 1199.45 5827.67L803.822 5900.51C762.991 5908.03 731.053 5940 723.569 5980.83L661.961 6317C652.031 6371.18 687.79 6423.19 741.937 6433.32L1096.42 6499.62C1149.63 6509.58 1201.11 6475.37 1212.55 6422.46Z" fill="#9A6A5A"/>
<path d="M691.153 6863.64L1192.59 6826.92C1281.03 6820.44 1333.52 6923.76 1276.13 6991.37L921.856 7408.75C872.772 7466.58 779.695 7450.85 752.344 7380.1L605.183 6999.43C580.964 6936.78 624.165 6868.54 691.153 6863.64Z" fill="#9A6A5A"/>
<path d="M1370.61 8752.01L1134.51 8321.57C1109.19 8275.39 1052.39 8256.77 1004.64 8279L389.442 8565.35C327.804 8594.04 312.147 8674.54 358.539 8724.24L902.747 9307.24C946.139 9353.73 1021.33 9348.44 1057.78 9296.33L1364.87 8857.42C1386.69 8826.24 1388.91 8785.38 1370.61 8752.01Z" fill="#9A6A5A"/>
<path d="M1873.15 9726.64L1514.8 9613.77C1491.72 9606.51 1466.79 9607.85 1444.62 9617.56L866.691 9870.8C821.217 9890.73 797.248 9941 810.395 9988.87L963.169 10545.2C976.717 10594.6 1025.32 10625.7 1075.81 10617.4L1803.13 10498C1847.86 10490.6 1882.06 10454.1 1886.45 10409L1942.64 9831.71C1947.22 9784.67 1918.24 9740.84 1873.15 9726.64Z" fill="#9A6A5A"/>
<path d="M4637.4 10755.8L4751.45 10636.5C4782.74 10603.8 4832.11 10596.1 4871.81 10617.9L5067.19 10725C5156.1 10773.8 5124.35 10908.7 5023.03 10912.7L4713.6 10924.8C4623.76 10928.3 4575.26 10820.7 4637.4 10755.8Z" fill="#9A6A5A"/>
<path d="M6446.43 10623.3L6672.1 10464C6702.21 10442.8 6741.57 10439.8 6774.53 10456.3L7094.46 10616.4C7165.26 10651.8 7168.76 10751.6 7100.62 10791.9L6833.5 10949.9C6802.58 10968.2 6764.24 10968.5 6733.04 10950.7L6454.56 10791.9C6390.97 10755.6 6386.63 10665.6 6446.43 10623.3Z" fill="#9A6A5A"/>
<path d="M4016.41 10713.7L3800.2 10522C3774.55 10499.3 3739.04 10491.3 3706.11 10500.8L3274.04 10625.6C3209.56 10644.2 3181.37 10719.8 3217.91 10776.1L3350.93 10981C3374.53 11017.4 3418.84 11034.4 3460.7 11023.2L3975.95 10885.1C4052.91 10864.5 4076.03 10766.5 4016.41 10713.7Z" fill="#9A6A5A"/>
<path d="M8286.49 10384.9L7709.05 10559.5C7666.86 10572.3 7638 10611.2 7638 10655.2V10749.2C7638 10797.2 7672.17 10838.5 7719.38 10847.4L8125.63 10924.4C8143.22 10927.7 8161.38 10926.3 8178.22 10920.2L8491.31 10807.1C8550.81 10785.6 8575.65 10715 8542.69 10661L8400.79 10428.5C8377.06 10389.6 8330.07 10371.7 8286.49 10384.9Z" fill="#9A6A5A"/>
<path d="M6243.4 681.701L5973.16 657.275C5891.56 649.9 5852.97 552.902 5907.21 491.488L5992.15 395.307C6011.13 373.811 6038.42 361.5 6067.1 361.5H6350.19C6434.34 361.5 6480.86 459.109 6427.86 524.478L6330.08 645.085C6309.09 670.97 6276.59 684.7 6243.4 681.701Z" fill="#9A6A5A"/>
<path d="M8778.73 8980.51C8764.44 9026.48 8713.49 9049.97 8669.25 9030.97C8600.62 9001.51 8604.91 8902.8 8675.83 8879.39C8738.49 8858.72 8798.31 8917.5 8778.73 8980.51Z" fill="#9A6A5A"/>
</g>
</g>
</g>
<defs>
<linearGradient id="paint0_linear_1876_2977" x1="6039" y1="1047" x2="6039" y2="1350" gradientUnits="userSpaceOnUse">
<stop stop-color="#0E2736"/>
<stop offset="0.535416" stop-color="#0E2736" stop-opacity="0.76"/>
<stop offset="1" stop-color="#0E2736" stop-opacity="0"/>
</linearGradient>
<clipPath id="clip0_1876_2977">
<rect width="12857" height="11078" fill="white"/>
</clipPath>
</defs>
</svg>
