<svg width="14000" height="14000" viewBox="0 0 14000 14000" fill="none" xmlns="http://www.w3.org/2000/svg">
<g opacity="0.5">
<path d="M2925.5 7330.5L2844 7222L3340.5 7113.5L3288.5 7273L3321.5 7396L3423.5 7548.5L3594.5 7733L2988 7615V7503.5L2925.5 7330.5Z" fill="#97592D"/>
<path d="M6096.5 8921.5L5931.5 8863V9461L6096.5 9320L6305.5 9220.5L6614 9169.5L6782 9201L6942 9237.5L6738 8775.5L6432 8890L6096.5 8921.5Z" fill="#97592D"/>
<path d="M6023.5 3157.5L5887.5 3416.5L5733 3664.5L5641.5 3774L5370.5 3858.5L6432.5 3939.5L6306 3739.5L6403 3438.5L6486.5 3182L6549 2864.5L6602.5 2643.5L6800 2492.5L6101 2417L6169 2621L6133 2909.5L6023.5 3157.5Z" fill="#97592D"/>
<path d="M5565 4503.5L5295.5 4324L6428.5 4418L6059 4597L6032.5 4913L6141.5 5203.5L6239 5504.5L6429.5 5804.5L6729.5 5995L5338.5 5972L5711 5724L5773 5504.5L5720.5 5261L5625 4971.5V4597L5565 4503.5Z" fill="#97592D"/>
<path d="M4964 9311.5L4904.5 9193.5L4659 9675L4984 9653L5195 9745.5L5369.5 9862L5464 9958L5518.5 9460.5L5391 9471.5L5195 9418.5L4964 9311.5Z" fill="#97592D"/>
</g>
<path d="M1724 6396H1022L946 7622L959.5 8118L1126 8341L1453 8439.5L2029.5 8465L2440 8370.5L3113.5 8104.5L3219.5 8156.5L3246.5 8305L3198.5 8439.5L3647.5 8670L3810 8352.5L3771.5 8010L3616 7746L3354.5 7622L3019 7604L2771 7696.5L2376.5 7886L1741.5 8025.5L1493.5 8005.5L1421.5 7904V6971L1453 6892H1579L2185 7092.5L2744 7234.5L3057.5 7219L3418 7092.5L3589 6926L3656.5 6556.5L3644 6015.5V5716L3841.5 5400.5L4116.5 5157H4177.5L4202 5249.5L4177.5 5716L4287 6057.5L4588.5 6364L4872.5 6469.5H6579.5L6655 6516L6702.5 6681V8239H7214V5971H5330L4872.5 5941.5L4739.5 5814L4668 5508L4689 4995L4596 4793L4290.5 4641H4019L3644 4899L3311.5 5351L3133.5 5795.5L3168 6516L3019 6681L2758.5 6712.5L2338.5 6564L1724 6396Z" fill="#425155"/>
<path d="M7231 6585.5L7213 6755L6957 6371L7205 5971L8024.5 5973.5L8296.5 6081L8590.5 6385.5L8701 6435.5L8817 6385.5L9033.5 6186.5L9272 6017L9400 5973.5L9729 5946L10006.5 5870L10260 5710.5L10404 5544.5L10360.5 5451L10228 5338L9699 5030.5L9353.5 4778.5L9138 4563.5L8958 4272L8912 4035L8958 3815L9098.5 3552L9385 3117L9471 2862.5V2660L9420 2478.5L9283 2348L9054 2266.5L8627 2236.5L7983.5 2290.5L7620 2367L7491 2437L7465.5 2507L6951 2610.5L6903.5 2551.5L6798 2493L6545 2454.5L5821.5 2403.5L5608 2421L5541.5 2472L5522 2551.5V2786L5484 2943.5L5412.5 3068L5289.5 3163.5L5113 3205L4960 3217.5L4783 3297L4624 3471L4598.5 3598.5L4207.5 3213.5L4388.5 2964L4548 2847.5L4794.5 2775L4973.5 2722.5L5049 2649L5062 2541.5V2281L5114.5 2123L5234 1989.5L5417 1908L5704 1869.5L6057 1880.5L6931 1980.5H7072L8704 1729H8998L9290.5 1765L9569.5 1864.5L9803.5 2020.5L9962.5 2241L10034 2495.5V2779L9965.5 3082.5L9797.5 3449L9583.5 3828L9514 4003V4086.5L9583.5 4209.5L9940.5 4525L10698 5030L10886 5141.5L11071 5310L11294 5551L11490.5 6055L11634 6488.5L11883 7018L12088 7321.5L11208 6924L11034 6416L10852 5973.5L10615 6177.5L10376 6345.5L10035.5 6475.5L9729 6510L9585.5 6536L9381 6705.5L9111.5 6909.5L8784 6982.5L8514.5 6968.5L8270.5 6878.5L8078.5 6688L7936.5 6537.5L7793 6472H7450L7326.5 6488.5L7231 6585.5Z" fill="#425155"/>
<path d="M7467 2503L6950 2609L7088 3126L7156 3633L7121.5 3803.5L6998 3904.5L6775.5 3939.5L6023.5 3915.5L5466.5 3870L4918.5 3765.5L4616.5 3604.5L4607 3566.5L4294.5 3265L3926.5 3014L3560 2843.5L3276 2802.5L3048.5 2831L2856 2924L2663 2984H2429.5L1798 2853L1471 2879.5L1273.5 3003L1131.5 3176.5L1096.5 3367.5L1166 3615.5L1509 4159L1613 4396L1603.5 4534.5L1434.5 4705.5L1249 4957.5L1108 5320L1016.5 6397H1559L1512.5 6315L1632 5519L1758.5 5198.5L2045.5 4846.5L2163 4596.5V4343.5L2028.5 4056.5L1710 3596L1661.5 3439.5L1732.5 3383.5H1911.5L2269 3449L2599 3480.5L2791 3465.5L3024 3383.5L3266 3305.5L3489.5 3339L3730 3501L3991 3780.5L4330 4084.5L4693.5 4242.5L5254.5 4347L6180.5 4425.5H6800L7199 4388.5L7467 4230.5L7635.5 3943.5L7681 3577.5L7606.5 3112L7467 2503Z" fill="#425155"/>
<path d="M4502 9901.5L4683 9641.5L3900 9992L3861.5 10634L3994 11167.5L4304 11501L4661 11653.5L5063.5 11685.5L5412.5 11576.5L5747.5 11420.5L5811.5 11437.5L5484.5 10875.5L5265 11070L4923 11196L4683 11167.5L4475 10998L4354.5 10686V10278.5L4502 9901.5Z" fill="#425155"/>
<path d="M3006 9275L3662 8648.5L3216.5 8396.5L2988.5 8572L2706.5 8817.5L2504 9136.5L2481 9520L2649.5 9805.5L3018.5 9988L3430.5 10042.5L3899.5 10019.5L4584.5 9765L4757.5 9591.5L4910 9191L5117.5 8594.5L5210.5 8560.5L5368 8799L5449.5 9311.5V9881L5390.5 10434L5449.5 10869L5759.5 11413L5889 11524.5L6167 11665.5H6604L7501 11413L7776.5 11360.5L7951.5 11456.5L8505 12226L9119.5 12786L9586.5 12847.5L10025.5 12733.5L10308 12433L10556 12039L10706.5 11989L10820.5 11923L10586 11572.5L10333 11670.5L10176 11786.5L9980 12039L9848.5 12240L9610.5 12378.5L9347 12355.5L9060.5 12101L8716 11632L8464 11144.5L8113 10885.5L7616 10862.5L7207 10992L6678 11188.5H6271L6056 10992L5922 10675.5L5938.5 10234L6012.5 9709.5V9323.5L5947.5 8836L5781 8318L5517.5 8038.5L5132 7967L4829 8080L4591 8385L4438.5 8799L4309 9252L4122 9406.5L3764 9520L3230 9501.5L2957.5 9406.5L3006 9275Z" fill="#425155"/>
<path d="M10867 11899L10693.5 11990.5L10514.5 11599L10693.5 11447.5L10723.5 11164L10958 10810L11363 10668.5L11710.5 10747L12310.5 11034L12819 10960L13103.5 10638L12993 10194.5L12528.5 9755.5L12184.5 9507.5L12028 9122L11923.5 8203L11775.5 7755L11262.5 7407.5L10617 7433.5L10412.5 7624.5L10514.5 7872.5L11054 8246.5L11284 8607.5L11158 9055.5L10767 9299L10175.5 9259.5H9384L8745 9507.5L7958 9686L7381 9590L6936 9259.5L6718.5 8751L6696.5 8147H7214.5L7223 8416L7381 8894L7610.5 9096.5L7877 9122L8440.5 8969L9181.5 8714.5L9533.5 8684L10412.5 8800L10617 8753V8617L10208 8325.5L9959.5 8050.5L9884 7680L10013.5 7311L10286.5 7064.5L10709 6957L11262.5 6927L11710 7037.5L12074 7296L12208 7542.5L12310.5 7916L12372.5 8699.5L12528.5 9106.5L12716 9363L13202.5 9777.5L13434 10082.5L13487.5 10419.5L13460.5 10810L13330 11117L13103.5 11300L12610.5 11447.5L12228 11438L11940 11345L11576 11132L11363 11110.5L11199 11193L11139 11438L11036 11729L10867 11899Z" fill="#425155"/>
<path d="M874.5 6648L686 6636.5L635.5 6655L598.5 6706.5L571.5 7097.5L588 7149L650 7189.5L839.5 7199.5L890 7177.5L925 7123L949.5 6739L938.5 6693L874.5 6648Z" fill="#D1C9C3"/>
<path d="M1849 7556.7L1566.5 7543.5L1503 7567.5L1474 7626.5L1467 7862.5L1490.5 7916.5L1539.5 7945L1825 7955.5L1879.5 7935L1913 7879.5L1921 7644L1901.5 7589.5L1849 7556.7Z" fill="#D1C9C3"/>
<path d="M1911 5901.5L1654 5892L1597.5 5915L1569 5969.5L1552.5 6245L1575 6297L1608.5 6332.01L1894 6342.51L1940.5 6318.5L1968.5 6270L1987.5 5992.5L1962 5934L1911 5901.5Z" fill="#D1C9C3"/>
<path d="M9817 4281L9998 4037L10043 4015L10096.5 4018.5L10335.5 4204.5L10360.5 4255L10354.5 4302L10176.5 4549L10134.5 4570.5H10069.5L9830 4383L9807.5 4330.5L9817 4281Z" fill="#D1C9C3"/>
<path d="M916 4737.5L961 4727L1208.5 4814.5L1233.5 4856.5L1242.5 4908.5L1103 5256L1066.5 5291L1002 5301.5L789 5223.5L744 5187L734 5123.5L874 4772.5L916 4737.5Z" fill="#D1C9C3"/>
<path d="M4366.5 2819.5L4059.5 2571L4005 2560L3953 2582L3810 2757.5L3791.5 2817L3815 2877.5L4113 3114.5L4170.5 3130L4225.5 3114.5L4366.5 2917L4378.5 2867.5L4366.5 2819.5Z" fill="#D1C9C3"/>
<path d="M7924.5 2360.5L7864 2349L7586.5 2422.5L7545.5 2452.5L7524.5 2512.5L7594 2798L7637 2844L7699.5 2854L7960.5 2786.5L8014.5 2751.5L8034.5 2701L7964.5 2407L7924.5 2360.5Z" fill="#D1C9C3"/>
<path d="M1999.5 8532.5L1365.5 8502.5L1307.5 8522L1275 8569L1267 8807L1285.5 8859L1331.5 8892.5L1964 8926L2014 8903L2042 8876L2059 8615.5L2042 8569L1999.5 8532.5Z" fill="#D1C9C3"/>
<path d="M3523.5 8855L3854 8461L3910 8436L3962.5 8441.5L4184.5 8631L4205 8680L4191.5 8742L3854 9114.5L3803.5 9142L3738 9132L3538 8959.5L3515 8907.5L3523.5 8855Z" fill="#D1C9C3"/>
<path d="M8411 12186L8194 11863L8145.5 11834.5L8090.5 11843.5L7840 12007.5L7810 12052L7815 12119.5L8022 12431.5L8069 12459L8125.5 12456L8388.5 12283.5L8411 12239V12186Z" fill="#D1C9C3"/>
<path d="M8824 11598.5L9061 11391L9102 11380L9154.5 11395.5L9558.5 11837.5L9578.5 11893L9568 11941.5L9337 12150L9275.5 12169L9219 12150L8824 11711.5L8804.5 11655.5L8824 11598.5Z" fill="#D1C9C3"/>
<path d="M5068.5 8869L5064.5 8948L5019 8944L5025 8887L5064.5 8731L5109 8657L5151 8625.5L5186 8596L5244 8625.5L5305.5 8696.5L5343.5 8789.5L5366 8881.5L5379 8938.5L5333 8948L5325.5 8881.5L5265.5 8712.5L5233 8671.5L5186 8657L5138.5 8685L5099.5 8766.5L5068.5 8869Z" fill="#D1C9C3"/>
<path d="M6096 9527L6126.5 9559L6156.5 9537L6234.5 9356L6622 9256L6868 9395L6894 9443L6945 9429L6931.5 9389.5L6710.5 9235.5L6614 9204L6202 9310L6096 9527Z" fill="#D1C9C3"/>
<path d="M3034.5 8164L2844 8224.5L2854 8279.5L3073.5 8200H3150.5L3195 8253L3165 8341.5L3073.5 8439.5L2849.5 8594L2654 8777L2476.5 9027.5L2408.5 9238V9552.5L2584 9848L2749 9961.5L3048 10067.5L3453.5 10117L3874.5 10098L3897.5 10067.5L3874.5 10035L3495.5 10050L3079.5 10010.5L2715 9885.5L2507 9657.5L2452 9378L2493 9155L2591 8958.5L2743.5 8777L2849.5 8671L3057.5 8529.5L3132 8463.5L3224 8350L3244 8244L3224 8185L3132 8149L3034.5 8164Z" fill="#D1C9C3"/>
<path d="M4374.5 10296H4433V10672.5L4566.5 10907.5L4653 11012.5L4792 11090.5H4936.5L5097.5 11042L5239.5 10958.5L5371.5 10823L5425.5 10854.5L5320 10966L5148.5 11086L5006.5 11132L4792 11151.5L4678.5 11101.5L4518.5 10946L4379 10684.5L4374.5 10296Z" fill="#D1C9C3"/>
<path d="M3825 5500L3674 5745.5L3667 5888L3700 6079.5L3723 6280L3731.5 6437H3768.5L3762 6280L3738 6072.5L3705 5883L3710 5765.5L3861.5 5522.5L3966.5 5386L4085.5 5331.5L4118.5 5417.5L4101.5 5620V5797L4126 5935L4200.5 6072.5L4339.5 6280L4573.5 6476.5L4778 6543L4961 6562V6527.5L4788.5 6506L4596.5 6444.5L4367.5 6257.5L4262.5 6100.5L4164 5919.5L4137 5797V5609L4156 5450.5L4142.5 5352.5L4107 5288.5L4036.5 5301L3935 5375L3825 5500Z" fill="#D1C9C3"/>
<path d="M3341 5162L3162.5 5457.5L3107 5436L3170 5355.5L3320.5 5117.5L3469 4933.5L3704 4707L3878.5 4606.5L4069.5 4556.5L4329.5 4551L4532 4625L4671 4768L4735 4909L4759 5012.5L4767.5 5159.5H4729.5L4724.5 5012.5L4698 4920L4644.5 4801L4503.5 4657L4334.5 4595H4069.5L3870 4649.5L3735 4729.5L3565.5 4889.5L3341 5162Z" fill="#D1C9C3"/>
<path d="M1941.5 3904.5L1989 3876.5L1820 3665L1736.5 3516L1750 3458L1791 3425L1968 3451.5L2218.5 3500L2525 3544V3494.5L2223 3458L1988 3409.5L1791 3382.5L1702.5 3425L1694.5 3516L1772.5 3676.5L1941.5 3904.5Z" fill="#D1C9C3"/>
<path d="M9259 3265L9219 3239.5L9390 2990L9437 2815L9446.5 2674L9379.5 2509.5L9306.5 2420.5L9174.5 2347.5L8952 2297H8478V2257.5H8952L9183 2308.5L9336 2383.5L9412 2485.5L9484.5 2666.5L9475.5 2815L9431.5 2999.5L9259 3265Z" fill="#D1C9C3"/>
<path d="M9672.5 5114L9698 5063.5L10247 5375L10337 5445L10374 5511L10352.5 5571.5L10218.5 5709.5L9998.5 5825.5L9699 5899L9369 5943.5L9106.5 6032L8951.5 6167L8840 6299.5L8765 6367L8697 6389L8629.5 6367L8421.5 6159.5L8307.5 6055L8145.5 5979L7923 5950.5H7801V5898H7923L8153 5938L8324.5 6012L8445 6130L8657.5 6333.5L8729.5 6339.5L8809.5 6269L8923.5 6136L9083.5 6002.5L9369 5904.5L9699 5865.5L9987 5786.5L10201 5675.5L10317.5 5549V5492.5L10251.5 5423.5L9672.5 5114Z" fill="#D1C9C3"/>
<path d="M1393.5 4727.5L1359 4696.5L1534.5 4536L1555.5 4459L1528.5 4347.5L1452.5 4191L1270.5 3931L1145.5 3707L1039 3458.5V3269.5L1098 3088.5L1250 2930.5L1428.5 2840L1671.5 2794L1951.5 2817L2066.5 2832.5L2053.5 2877.5L1947 2851L1671.5 2832L1438.5 2876L1271 2961L1137 3101L1078 3269.5V3452L1181.5 3680.5L1302 3904L1489 4173L1562 4332.5L1593 4459L1567 4554.5L1393.5 4727.5Z" fill="#D1C9C3"/>
<path d="M6653.5 2539.5L6562.5 2620L6587.5 2652L6670.5 2571.5L6755 2546L6813 2565L6870 2620L6897.5 2718.5L7050 3335L7074.5 3613L7063.5 3745.5L7007.5 3829L6901 3860.5L6594 3878L6306 3851.5L6302 3891L6594 3915L6916 3901L7035 3855L7102 3751.5L7114.5 3613L7092.5 3335L6936 2718.5L6903 2612.5L6834 2530L6755 2509L6653.5 2539.5Z" fill="#D1C9C3"/>
<path d="M5757.5 2461.5L5941.5 2471L5947 2422.5H5753L5655 2461.5L5544 2602.5L5527 2764.5L5504.5 2908H5552.5L5562 2768.5L5589.5 2620L5672.5 2496.5L5757.5 2461.5Z" fill="#D1C9C3"/>
<path d="M9365 8623.5L9360.5 8666L9427 8657L9636.5 8666L9976.5 8724.5L10382.5 8782L10515 8773.5L10587 8738L10613 8673.5L10577.5 8601L10423 8483.5L10173.5 8333L9976.5 8117.5L9875 7913.5L9848 7672.5L9908 7452L10025.5 7243L10215 7088.5L10401 7000L10700 6929L10982.5 6897H11099.5V6854.5L10982.5 6860L10700 6880.5L10384 6964L10192 7057L9999.5 7209.5L9875 7429L9811 7655L9826 7884L9924 8117.5L10144 8360L10395 8512L10567.5 8655L10542 8724.5L10423 8749L10055 8695.5L9550 8623.5H9365Z" fill="#D1C9C3"/>
<path d="M9575.5 2088L5968.5 5357" stroke="#955EBF" stroke-width="10"/>
<path d="M6663 2199.5L7061 6281" stroke="#955EBF" stroke-width="10"/>
<path d="M10861.5 5510L1185 6730.5" stroke="#955EBF" stroke-width="10"/>
<path d="M6153 3252L4103 4928" stroke="#955EBF" stroke-width="10"/>
<path d="M3364.5 6115.5L6388.5 11505.5" stroke="#955EBF" stroke-width="10"/>
<path d="M5237 8354L13258 10738" stroke="#955EBF" stroke-width="10"/>
<path d="M3116 7873.5L11377 7166.5" stroke="#955EBF" stroke-width="10"/>
<path d="M4654 11321.5L1491 3321" stroke="#955EBF" stroke-width="10"/>
<path d="M4369 3433L7432.5 9151" stroke="#955EBF" stroke-width="10"/>
<path d="M9280.5 4102.5L2136 3073" stroke="#955EBF" stroke-width="10"/>
<path d="M11426.5 10987L2880.5 9610" stroke="#955EBF" stroke-width="10"/>
<path d="M1119 8109L5472.5 2043.5" stroke="#955EBF" stroke-width="10"/>
<path d="M12319.5 9250.5L7097.5 2242" stroke="#955EBF" stroke-width="10"/>
<rect x="6929" y="7608" width="135" height="70" transform="rotate(-90 6929 7608)" fill="#BF3232"/>
<path opacity="0.01" d="M10123 7749.5L10698 8459.5L10887.5 8940L10001.5 9054.5L8737 9203.5L7803.5 9447L7161 8940L6451 9054.5L7039.5 8338L6958.5 7553.5V6775.5L6843.5 6241.5H5923.5L4713 6167L4382 5531.5V5004L3874.5 4963.5L3367.5 5761.5L3306.5 6775.5L3130.5 7377.5L2488 6857L1548 6660.5L1183 6775.5V8033.5L1778 8270.5L2684.5 7945.5H3482.5L3367.5 8649L2684.5 9359L3259 9758H4185.5L4551 9109L4923 8270.5L5585.5 8426L5660 9163L5098.5 9575.5L5707 9900V10684.5L5531.5 11300L4551 11361L4043.5 10515.5L6295.5 11361L7492.5 11219H8081L8547.5 11847.5L8987 12443L9650 12605L10251.5 12152L10698 11732.5L11090.5 11002.5L11672 10928L12490 11293L13220.5 10928V10116.5L12578 9521.5L12274 8940L12104.5 8270.5L11935.5 7513L11171.5 7174.5L10333 7310L11353.5 6400.5L10887.5 5531.5L9890 6167L8683 6660.5L7492.5 6241.5L10123 4963.5L9132 4082.5L9676.5 3014.5L9548.5 2149.5L8081 2042.5L7039.5 2331L7492.5 3602L6760.5 4221.5H5531.5L5923.5 5332.5L4827.5 3986.5L5863.5 3506L4090.5 3538L5019.5 2876L5531.5 2042.5L6504.5 2149.5L3428 3153.5L2403 3281.5L1420 3153.5L1548 3986.5L1778 4595.5L1313.5 5418L1183 6101.5" stroke="#2027CD"/>
<rect x="6146" y="6677" width="323.05" height="323.05" fill="#46A325"/>
<rect x="9700" y="5313" width="323.05" height="323.05" fill="#46A325"/>
<rect x="8517" y="5779" width="323.05" height="323.05" fill="#46A325"/>
<rect x="8975" y="2574" width="323.05" height="323.05" fill="#46A325"/>
<rect x="8448" y="2372" width="323.05" height="323.05" fill="#46A325"/>
<rect x="6548" y="2571" width="323.05" height="323.05" fill="#46A325"/>
<rect x="6283" y="3413" width="323.05" height="323.05" fill="#46A325"/>
<rect x="4761" y="3331" width="323.05" height="323.05" fill="#46A325"/>
<rect x="1854" y="3442" width="323.05" height="323.05" fill="#46A325"/>
<rect x="1711" y="5397" width="323.05" height="323.05" fill="#46A325"/>
<rect x="3272" y="3569" width="323.05" height="323.05" fill="#46A325"/>
<rect x="7614" y="4044" width="323.05" height="323.05" fill="#46A325"/>
<rect x="6774" y="4665" width="323.05" height="323.05" fill="#46A325"/>
<rect x="7291" y="5508" width="323.05" height="323.05" fill="#46A325"/>
<rect x="6060" y="4491" width="323.05" height="323.05" fill="#46A325"/>
<rect x="5207" y="4773" width="323.05" height="323.05" fill="#46A325"/>
<rect x="11117" y="4915" width="323.05" height="323.05" fill="#46A325"/>
<rect x="11854" y="6265" width="323.05" height="323.05" fill="#46A325"/>
<rect x="13338" y="7371" width="323.05" height="323.05" fill="#46A325"/>
<rect x="9809" y="3610" width="323.05" height="323.05" fill="#46A325"/>
<rect x="10393" y="908" width="323.05" height="323.05" fill="#46A325"/>
<rect x="9470" y="1489" width="323.05" height="323.05" fill="#46A325"/>
<rect x="10477" y="2105" width="323.05" height="323.05" fill="#46A325"/>
<rect x="9971" y="2380" width="323.05" height="323.05" fill="#46A325"/>
<rect x="6845" y="1545" width="323.05" height="323.05" fill="#46A325"/>
<rect x="8242" y="1296" width="323.05" height="323.05" fill="#46A325"/>
<rect x="6693" y="895" width="323.05" height="323.05" fill="#46A325"/>
<rect x="4719" y="1782" width="323.05" height="323.05" fill="#46A325"/>
<rect x="2085" y="2577" width="323.05" height="323.05" fill="#46A325"/>
<rect x="2223" y="1782" width="323.05" height="323.05" fill="#46A325"/>
<rect x="885" y="1896" width="323.05" height="323.05" fill="#46A325"/>
<rect x="1529" y="1285" width="323.05" height="323.05" fill="#46A325"/>
<rect x="5984" y="1296" width="323.05" height="323.05" fill="#46A325"/>
<rect x="4677" y="2359" width="323.05" height="323.05" fill="#46A325"/>
<rect x="1320" y="2440" width="323.05" height="323.05" fill="#46A325"/>
<rect x="680" y="3169" width="323.05" height="323.05" fill="#46A325"/>
<rect x="1158" y="4206" width="323.05" height="323.05" fill="#46A325"/>
<rect x="2085" y="4773" width="323.05" height="323.05" fill="#46A325"/>
<rect x="6307" y="8368" width="323.05" height="323.05" fill="#46A325"/>
<rect x="4854" y="5526" width="323.05" height="323.05" fill="#46A325"/>
<rect x="4437" y="7046" width="323.05" height="323.05" fill="#46A325"/>
<rect x="5505" y="6748" width="323.05" height="323.05" fill="#46A325"/>
<rect x="5998" y="7421" width="323.05" height="323.05" fill="#46A325"/>
<rect x="7455" y="8318" width="323.05" height="323.05" fill="#46A325"/>
<rect x="7385" y="7769" width="323.05" height="323.05" fill="#46A325"/>
<rect x="6433" y="10038" width="323.05" height="323.05" fill="#46A325"/>
<rect x="2596" y="7250" width="323.05" height="323.05" fill="#46A325"/>
<rect x="3977" y="6086" width="323.05" height="323.05" fill="#46A325"/>
<rect x="2339" y="4313" width="323.05" height="323.05" fill="#46A325"/>
<rect x="6860" y="5215" width="323.05" height="323.05" fill="#46A325"/>
<rect x="7737" y="2894" width="323.05" height="323.05" fill="#46A325"/>
<rect x="8242" y="3459" width="323.05" height="323.05" fill="#46A325"/>
<rect x="5266" y="3389" width="323.05" height="323.05" fill="#46A325"/>
<rect x="2303" y="6184" width="323.05" height="323.05" fill="#46A325"/>
<rect x="4586" y="4367" width="323.05" height="323.05" fill="#46A325"/>
<rect x="3275" y="4429" width="323.05" height="323.05" fill="#46A325"/>
<rect x="4365" y="7582" width="323.05" height="323.05" fill="#46A325"/>
<rect x="6146" y="9384" width="323.05" height="323.05" fill="#46A325"/>
<rect x="7113" y="9651" width="323.05" height="323.05" fill="#46A325"/>
<rect x="8775" y="9489" width="323.05" height="323.05" fill="#46A325"/>
<rect x="7230" y="10210" width="323.05" height="323.05" fill="#46A325"/>
<rect x="8884" y="10832" width="323.05" height="323.05" fill="#46A325"/>
<rect x="10084" y="11285" width="323.05" height="323.05" fill="#46A325"/>
<rect x="10799" y="10191" width="323.05" height="323.05" fill="#46A325"/>
<rect x="12284" y="10524" width="323.05" height="323.05" fill="#46A325"/>
<rect x="11278" y="7608" width="323.05" height="323.05" fill="#46A325"/>
<rect x="9033" y="7362" width="323.05" height="323.05" fill="#46A325"/>
<rect x="12515" y="7645" width="323.05" height="323.05" fill="#46A325"/>
<rect x="4421" y="10365" width="323.05" height="323.05" fill="#46A325"/>
<rect x="4700" y="9545" width="323.05" height="323.05" fill="#46A325"/>
<rect x="4811" y="10051" width="323.05" height="323.05" fill="#46A325"/>
<rect x="3466" y="10177" width="323.05" height="323.05" fill="#46A325"/>
<rect x="3954" y="11613" width="323.05" height="323.05" fill="#46A325"/>
<rect x="5569" y="11640" width="323.05" height="323.05" fill="#46A325"/>
<rect x="7274" y="11483" width="323.05" height="323.05" fill="#46A325"/>
<rect x="562" y="7959" width="323.05" height="323.05" fill="#46A325"/>
<rect x="1968" y="9965" width="323.05" height="323.05" fill="#46A325"/>
<rect x="2701" y="5097" width="323.05" height="323.05" fill="#46A325"/>
<rect x="3598" y="7181" width="323.05" height="323.05" fill="#46A325"/>
<rect x="1645" y="7089" width="323.05" height="323.05" fill="#46A325"/>
<rect x="2730" y="8211" width="323.05" height="323.05" fill="#46A325"/>
<rect x="2046" y="9489" width="323.05" height="323.05" fill="#46A325"/>
<rect x="7611" y="11542" width="323.05" height="323.05" fill="#46A325"/>
<rect x="10743" y="12174" width="323.05" height="323.05" fill="#46A325"/>
<rect x="13388" y="11285" width="323.05" height="323.05" fill="#46A325"/>
<rect x="11439" y="11380" width="323.05" height="323.05" fill="#46A325"/>
<rect x="2246" y="5526" width="323.05" height="323.05" fill="#46A325"/>
<rect x="3822" y="5636" width="292.6" height="288.4" fill="#46A325"/>
<rect x="3775" y="6490" width="292.6" height="288.4" fill="#46A325"/>
<rect x="3969" y="4141" width="292.6" height="288.4" fill="#46A325"/>
<rect x="5276" y="7482" width="292.6" height="288.4" fill="#46A325"/>
<rect x="3288" y="9115" width="292.6" height="288.4" fill="#46A325"/>
<rect x="6714" y="3510" width="292.6" height="288.4" fill="#46A325"/>
<rect x="6517" y="3000" width="292.6" height="288.4" fill="#46A325"/>
<rect x="5670" y="2510" width="292.6" height="288.4" fill="#46A325"/>
<rect x="8336" y="2823" width="292.6" height="288.4" fill="#46A325"/>
<rect x="8858" y="3153" width="292.6" height="288.4" fill="#46A325"/>
<rect x="8595" y="4549" width="292.6" height="288.4" fill="#46A325"/>
<rect x="8610" y="3933" width="292.6" height="288.4" fill="#46A325"/>
<rect x="9163" y="5077" width="292.6" height="288.4" fill="#46A325"/>
<rect x="9104" y="5526" width="292.6" height="288.4" fill="#46A325"/>
<rect x="8165" y="5394" width="292.6" height="288.4" fill="#46A325"/>
<rect x="10641" y="4433" width="292.6" height="288.4" fill="#46A325"/>
<rect x="11051" y="4261" width="292.6" height="288.4" fill="#46A325"/>
<rect x="12838" y="5995" width="292.6" height="288.4" fill="#46A325"/>
<rect x="11957" y="4690" width="292.6" height="288.4" fill="#46A325"/>
<rect x="10163" y="2856" width="292.6" height="288.4" fill="#46A325"/>
<rect x="11672" y="5599" width="292.6" height="288.4" fill="#46A325"/>
<rect x="10597" y="6283" width="292.6" height="288.4" fill="#46A325"/>
<rect x="9063" y="6875" width="292.6" height="288.4" fill="#46A325"/>
<rect x="8118" y="6910" width="292.6" height="288.4" fill="#46A325"/>
<rect x="11565" y="8705" width="292.6" height="288.4" fill="#46A325"/>
<rect x="10976" y="9563" width="292.6" height="288.4" fill="#46A325"/>
<rect x="11965" y="9812" width="292.6" height="288.4" fill="#46A325"/>
<rect x="10246" y="3551" width="292.6" height="288.4" fill="#46A325"/>
<rect x="10148" y="1524" width="292.6" height="288.4" fill="#46A325"/>
<rect x="8854" y="1458" width="292.6" height="288.4" fill="#46A325"/>
<rect x="8317" y="817" width="292.6" height="288.4" fill="#46A325"/>
<rect x="10904" y="1724" width="292.6" height="288.4" fill="#46A325"/>
<rect x="7799" y="437" width="292.6" height="288.4" fill="#46A325"/>
<rect x="9840" y="1887" width="292.6" height="288.4" fill="#46A325"/>
<rect x="7531" y="1057" width="292.6" height="288.4" fill="#46A325"/>
<rect x="4946" y="1331" width="292.6" height="288.4" fill="#46A325"/>
<rect x="3993" y="1868" width="292.6" height="288.4" fill="#46A325"/>
<rect x="3441" y="2425" width="292.6" height="288.4" fill="#46A325"/>
<rect x="2979" y="1752" width="292.6" height="288.4" fill="#46A325"/>
<rect x="2731" y="2433" width="292.6" height="288.4" fill="#46A325"/>
<rect x="431" y="2521" width="292.6" height="288.4" fill="#46A325"/>
<rect x="667" y="3997" width="292.6" height="288.4" fill="#46A325"/>
<rect x="2339" y="3641" width="292.6" height="288.4" fill="#46A325"/>
<rect x="2903" y="4094" width="292.6" height="288.4" fill="#46A325"/>
<rect x="438" y="5434" width="292.6" height="288.4" fill="#46A325"/>
<rect x="5056" y="8951" width="292.6" height="288.4" fill="#46A325"/>
<rect x="5105" y="9736" width="292.6" height="288.4" fill="#46A325"/>
<rect x="2882" y="10051" width="292.6" height="288.4" fill="#46A325"/>
<rect x="1807" y="9189" width="292.6" height="288.4" fill="#46A325"/>
<rect x="2223" y="8485" width="292.6" height="288.4" fill="#46A325"/>
<rect x="827" y="8864" width="292.6" height="288.4" fill="#46A325"/>
<rect x="3581" y="11195" width="292.6" height="288.4" fill="#46A325"/>
<rect x="5058" y="10608" width="292.6" height="288.4" fill="#46A325"/>
<rect x="4583" y="11721" width="292.6" height="288.4" fill="#46A325"/>
<rect x="5256" y="11640" width="292.6" height="288.4" fill="#46A325"/>
<rect x="4879" y="12353" width="292.6" height="288.4" fill="#46A325"/>
<rect x="6402" y="12121" width="292.6" height="288.4" fill="#46A325"/>
<rect x="6176" y="10544" width="292.6" height="288.4" fill="#46A325"/>
<rect x="9527" y="11977" width="292.6" height="288.4" fill="#46A325"/>
<rect x="11361" y="10292" width="292.6" height="288.4" fill="#46A325"/>
<rect x="12527" y="11775" width="292.6" height="288.4" fill="#46A325"/>
<rect x="13565" y="9402" width="292.6" height="288.4" fill="#46A325"/>
<rect x="13095" y="8264" width="292.6" height="288.4" fill="#46A325"/>
<rect x="13095" y="8901" width="292.6" height="288.4" fill="#46A325"/>
<rect x="12593" y="6695" width="292.6" height="288.4" fill="#46A325"/>
<rect x="9796" y="6677" width="292.6" height="288.4" fill="#46A325"/>
<rect x="8060" y="7807" width="292.6" height="288.4" fill="#46A325"/>
<rect x="6037" y="7931" width="292.6" height="288.4" fill="#46A325"/>
<rect x="6014" y="8658" width="292.6" height="288.4" fill="#46A325"/>
<rect x="11654" y="12265" width="292.6" height="288.4" fill="#46A325"/>
<rect x="8884" y="13007" width="292.6" height="288.4" fill="#46A325"/>
<rect x="6762" y="11856" width="292.6" height="288.4" fill="#46A325"/>
<rect x="8086" y="10514" width="292.6" height="288.4" fill="#46A325"/>
<rect x="9586" y="11044" width="292.6" height="288.4" fill="#46A325"/>
<rect x="10346" y="10718" width="292.6" height="288.4" fill="#46A325"/>
<rect x="8413" y="9922" width="292.6" height="288.4" fill="#46A325"/>
<rect x="7678" y="9778" width="292.6" height="288.4" fill="#46A325"/>
<rect x="6610" y="9334" width="292.6" height="288.4" fill="#46A325"/>
<rect x="12607" y="10256" width="292.6" height="288.4" fill="#46A325"/>
<rect x="10597" y="7541" width="292.6" height="288.4" fill="#46A325"/>
<rect x="9732" y="9258" width="292.6" height="288.4" fill="#46A325"/>
<rect x="7971" y="8629" width="292.6" height="288.4" fill="#46A325"/>
<rect x="9293" y="8116" width="292.6" height="288.4" fill="#46A325"/>
<rect x="7468" y="6910" width="292.6" height="288.4" fill="#46A325"/>
<rect x="5322" y="5331" width="292.6" height="288.4" fill="#46A325"/>
<rect x="4854" y="5121" width="292.6" height="288.4" fill="#46A325"/>
<rect x="6170" y="4892" width="292.6" height="288.4" fill="#46A325"/>
<rect x="6514" y="5364" width="292.6" height="288.4" fill="#46A325"/>
<rect x="4219" y="6490" width="292.6" height="288.4" fill="#46A325"/>
<rect x="2777" y="6346" width="292.6" height="288.4" fill="#46A325"/>
<rect x="592" y="7295" width="292.6" height="288.4" fill="#46A325"/>
<rect x="379" y="5923" width="292.6" height="288.4" fill="#46A325"/>
<rect x="4854" y="6677" width="292.6" height="288.4" fill="#46A325"/>
</svg>
