<svg width="14000" height="14000" viewBox="0 0 14000 14000" fill="none" xmlns="http://www.w3.org/2000/svg">
<path d="M874.5 6648L686 6636.5L635.5 6655L598.5 6706.5L571.5 7097.5L588 7149L650 7189.5L839.5 7199.5L890 7177.5L925 7123L949.5 6739L938.5 6693L874.5 6648Z" fill="#D1C9C3"/>
<path d="M1867 7557.5L1583.5 7544.5L1514 7563L1486 7629.5L1472.5 7857.5L1490.5 7916.5L1539.5 7945L1830.5 7957.5L1885 7938L1915 7885.5L1932 7645L1915 7588.5L1867 7557.5Z" fill="#D1C9C3"/>
<path d="M1999.5 8532.5L1365.5 8502.5L1307.5 8522L1275 8569L1267 8807L1285.5 8859L1331.5 8892.5L1964 8926L2014 8903L2042 8876L2059 8615.5L2042 8569L1999.5 8532.5Z" fill="#D1C9C3"/>
<path d="M3523.5 8855L3854 8461L3910 8436L3962.5 8441.5L4184.5 8631L4205 8680L4191.5 8742L3854 9114.5L3803.5 9142L3738 9132L3538 8959.5L3515 8907.5L3523.5 8855Z" fill="#D1C9C3"/>
<path d="M8411 12186L8194 11863L8145.5 11834.5L8090.5 11843.5L7840 12007.5L7810 12052L7815 12119.5L8022 12431.5L8069 12459L8125.5 12456L8388.5 12283.5L8411 12239V12186Z" fill="#D1C9C3"/>
<path d="M8824 11598.5L9061 11391L9102 11380L9154.5 11395.5L9558.5 11837.5L9578.5 11893L9568 11941.5L9337 12150L9275.5 12169L9219 12150L8824 11711.5L8804.5 11655.5L8824 11598.5Z" fill="#D1C9C3"/>
<path d="M5068.5 8869L5064.5 8948L5019 8944L5025 8887L5064.5 8731L5109 8657L5151 8625.5L5186 8596L5244 8625.5L5305.5 8696.5L5343.5 8789.5L5366 8881.5L5379 8938.5L5333 8948L5325.5 8881.5L5265.5 8712.5L5233 8671.5L5186 8657L5138.5 8685L5099.5 8766.5L5068.5 8869Z" fill="#D1C9C3"/>
<path d="M6096 9527L6126.5 9559L6156.5 9537L6234.5 9356L6622 9256L6868 9395L6894 9443L6945 9429L6931.5 9389.5L6710.5 9235.5L6614 9204L6202 9310L6096 9527Z" fill="#D1C9C3"/>
<path d="M3034.5 8164L2844 8224.5L2854 8279.5L3073.5 8200H3150.5L3195 8253L3165 8341.5L3073.5 8439.5L2849.5 8594L2654 8777L2476.5 9027.5L2408.5 9238V9552.5L2584 9848L2749 9961.5L3048 10067.5L3453.5 10117L3874.5 10098L3897.5 10067.5L3874.5 10035L3495.5 10050L3079.5 10010.5L2715 9885.5L2507 9657.5L2452 9378L2493 9155L2591 8958.5L2743.5 8777L2849.5 8671L3057.5 8529.5L3132 8463.5L3224 8350L3244 8244L3224 8185L3132 8149L3034.5 8164Z" fill="#D1C9C3"/>
<path d="M4374.5 10296H4433V10672.5L4566.5 10907.5L4653 11012.5L4792 11090.5H4936.5L5097.5 11042L5239.5 10958.5L5371.5 10823L5425.5 10854.5L5320 10966L5148.5 11086L5006.5 11132L4792 11151.5L4678.5 11101.5L4518.5 10946L4379 10684.5L4374.5 10296Z" fill="#D1C9C3"/>
<path d="M3825 5500L3674 5745.5L3667 5888L3700 6079.5L3723 6280L3731.5 6437H3768.5L3762 6280L3738 6072.5L3705 5883L3710 5765.5L3861.5 5522.5L3966.5 5386L4085.5 5331.5L4118.5 5417.5L4101.5 5620V5797L4126 5935L4200.5 6072.5L4339.5 6280L4573.5 6476.5L4778 6543L4961 6562V6527.5L4788.5 6506L4596.5 6444.5L4367.5 6257.5L4262.5 6100.5L4164 5919.5L4137 5797V5609L4156 5450.5L4142.5 5352.5L4107 5288.5L4036.5 5301L3935 5375L3825 5500Z" fill="#D1C9C3"/>
<path d="M3341 5162L3162.5 5457.5L3107 5436L3170 5355.5L3320.5 5117.5L3469 4933.5L3704 4707L3878.5 4606.5L4069.5 4556.5L4329.5 4551L4532 4625L4671 4768L4735 4909L4759 5012.5L4767.5 5159.5H4729.5L4724.5 5012.5L4698 4920L4644.5 4801L4503.5 4657L4334.5 4595H4069.5L3870 4649.5L3735 4729.5L3565.5 4889.5L3341 5162Z" fill="#D1C9C3"/>
<path d="M9365 8623.5L9360.5 8666L9427 8657L9636.5 8666L9976.5 8724.5L10382.5 8782L10515 8773.5L10587 8738L10613 8673.5L10577.5 8601L10423 8483.5L10173.5 8333L9976.5 8117.5L9875 7913.5L9848 7672.5L9908 7452L10025.5 7243L10215 7088.5L10424.5 6994.5L10704.5 6933L10951.5 6916H11325V6871H11047L10743.5 6883L10384 6964L10192 7057L9999.5 7209.5L9875 7429L9811 7655L9826 7884L9924 8117.5L10144 8360L10395 8512L10567.5 8655L10542 8724.5L10423 8749L10055 8695.5L9550 8623.5H9365Z" fill="#D1C9C3"/>
<path d="M2925.5 7330.5L2844 7222L3340.5 7113.5L3288.5 7273L3321.5 7396L3423.5 7548.5L3594.5 7733L2988 7615V7503.5L2925.5 7330.5Z" fill="#97592D"/>
<path d="M6096.5 8921.5L5931.5 8863V9461L6096.5 9320L6305.5 9220.5L6614 9169.5L6782 9201L6942 9237.5L6738 8775.5L6432 8890L6096.5 8921.5Z" fill="#97592D"/>
<path d="M4964 9311.5L4904.5 9193.5L4659 9675L4984 9653L5195 9745.5L5369.5 9862L5464 9958L5518.5 9460.5L5391 9471.5L5195 9418.5L4964 9311.5Z" fill="#97592D"/>
<path d="M1724 6396H1022L946 7622L959.5 8118L1126 8341L1453 8439.5L2029.5 8465L2440 8370.5L3113.5 8104.5L3219.5 8156.5L3246.5 8305L3198.5 8439.5L3647.5 8670L3810 8352.5L3771.5 8010L3616 7746L3354.5 7622L3019 7604L2771 7696.5L2376.5 7886L1741.5 8025.5L1493.5 8005.5L1421.5 7904V6971L1453 6892H1579L2185 7092.5L2744 7234.5L3057.5 7219L3418 7092.5L3589 6926L3656.5 6556.5L3644 6015.5V5716L3841.5 5400.5L4116.5 5157H4177.5L4202 5249.5L4177.5 5716L4287 6057.5L4588.5 6364L4872.5 6469.5H6579.5L6655 6516L6702.5 6681V8239H7214V5971H5330L4872.5 5941.5L4739.5 5814L4668 5508L4689 4995L4596 4793L4290.5 4641H4019L3644 4899L3311.5 5351L3133.5 5795.5L3168 6516L3019 6681L2758.5 6712.5L2338.5 6564L1724 6396Z" fill="#425155"/>
<path d="M4502 9901.5L4683 9641.5L3900 9992L3861.5 10634L3994 11167.5L4304 11501L4661 11653.5L5063.5 11685.5L5412.5 11576.5L5747.5 11420.5L5811.5 11437.5L5484.5 10875.5L5265 11070L4923 11196L4683 11167.5L4475 10998L4354.5 10686V10278.5L4502 9901.5Z" fill="#425155"/>
<path d="M3006 9275L3662 8648.5L3216.5 8396.5L2988.5 8572L2706.5 8817.5L2504 9136.5L2481 9520L2649.5 9805.5L3018.5 9988L3430.5 10042.5L3899.5 10019.5L4584.5 9765L4757.5 9591.5L4910 9191L5117.5 8594.5L5210.5 8560.5L5368 8799L5449.5 9311.5V9881L5390.5 10434L5449.5 10869L5759.5 11413L5889 11524.5L6167 11665.5H6604L7501 11413L7776.5 11360.5L7951.5 11456.5L8505 12226L9119.5 12786L9586.5 12847.5L10025.5 12733.5L10308 12433L10556 12039L10706.5 11989L10820.5 11923L10586 11572.5L10333 11670.5L10176 11786.5L9980 12039L9848.5 12240L9610.5 12378.5L9347 12355.5L9060.5 12101L8716 11632L8464 11144.5L8113 10885.5L7616 10862.5L7207 10992L6678 11188.5H6271L6056 10992L5922 10675.5L5938.5 10234L6012.5 9709.5V9323.5L5947.5 8836L5781 8318L5517.5 8038.5L5132 7967L4829 8080L4591 8385L4438.5 8799L4309 9252L4122 9406.5L3764 9520L3230 9501.5L2957.5 9406.5L3006 9275Z" fill="#425155"/>
<path d="M10867 11899L10693.5 11990.5L10514.5 11599L10693.5 11447.5L10723.5 11164L10958 10810L11363 10668.5L11710.5 10747L12310.5 11034L12819 10960L13103.5 10638L12993 10194.5L12528.5 9755.5L12184.5 9507.5L12028 9122L11923.5 8203L11775.5 7755L11262.5 7407.5L10617 7433.5L10412.5 7624.5L10514.5 7872.5L11054 8246.5L11284 8607.5L11158 9055.5L10767 9299L10175.5 9259.5H9384L8745 9507.5L7958 9686L7381 9590L6936 9259.5L6718.5 8751L6696.5 8147H7214.5L7223 8416L7381 8894L7610.5 9096.5L7877 9122L8440.5 8969L9181.5 8714.5L9533.5 8684L10412.5 8800L10617 8753V8617L10208 8325.5L9959.5 8050.5L9884 7680L10013.5 7311L10286.5 7064.5L10709 6957L11262.5 6927L11710 7037.5L12074 7296L12208 7542.5L12310.5 7916L12372.5 8699.5L12528.5 9106.5L12716 9363L13202.5 9777.5L13434 10082.5L13487.5 10419.5L13460.5 10810L13330 11117L13103.5 11300L12610.5 11447.5L12228 11438L11940 11345L11576 11132L11363 11110.5L11199 11193L11139 11438L11036 11729L10867 11899Z" fill="#425155"/>
<rect x="6133" y="6682" width="323.05" height="323.05" fill="#46A325"/>
<rect x="6294" y="8373" width="323.05" height="323.05" fill="#46A325"/>
<rect x="7442" y="5563" width="323.05" height="323.05" fill="#46A325"/>
<rect x="4841" y="5531" width="323.05" height="323.05" fill="#46A325"/>
<rect x="4424" y="7051" width="323.05" height="323.05" fill="#46A325"/>
<rect x="5492" y="6753" width="323.05" height="323.05" fill="#46A325"/>
<rect x="5985" y="7426" width="323.05" height="323.05" fill="#46A325"/>
<rect x="7442" y="8323" width="323.05" height="323.05" fill="#46A325"/>
<rect x="7372" y="7774" width="323.05" height="323.05" fill="#46A325"/>
<rect x="6420" y="10043" width="323.05" height="323.05" fill="#46A325"/>
<rect x="2583" y="7255" width="323.05" height="323.05" fill="#46A325"/>
<rect x="3964" y="6091" width="323.05" height="323.05" fill="#46A325"/>
<rect x="2290" y="6189" width="323.05" height="323.05" fill="#46A325"/>
<rect x="4573" y="4372" width="323.05" height="323.05" fill="#46A325"/>
<rect x="3262" y="4434" width="323.05" height="323.05" fill="#46A325"/>
<rect x="4352" y="7587" width="323.05" height="323.05" fill="#46A325"/>
<rect x="6133" y="9389" width="323.05" height="323.05" fill="#46A325"/>
<rect x="7100" y="9656" width="323.05" height="323.05" fill="#46A325"/>
<rect x="8762" y="9494" width="323.05" height="323.05" fill="#46A325"/>
<rect x="7217" y="10215" width="323.05" height="323.05" fill="#46A325"/>
<rect x="8871" y="10837" width="323.05" height="323.05" fill="#46A325"/>
<rect x="10071" y="11290" width="323.05" height="323.05" fill="#46A325"/>
<rect x="10786" y="10196" width="323.05" height="323.05" fill="#46A325"/>
<rect x="12271" y="10529" width="323.05" height="323.05" fill="#46A325"/>
<rect x="11265" y="7613" width="323.05" height="323.05" fill="#46A325"/>
<rect x="11103" y="6246" width="323.05" height="323.05" fill="#46A325"/>
<rect x="9020" y="7367" width="323.05" height="323.05" fill="#46A325"/>
<rect x="12502" y="7650" width="323.05" height="323.05" fill="#46A325"/>
<rect x="10029" y="5970" width="323.05" height="323.05" fill="#46A325"/>
<rect x="12003" y="5970" width="323.05" height="323.05" fill="#46A325"/>
<rect x="4408" y="10370" width="323.05" height="323.05" fill="#46A325"/>
<rect x="4687" y="9550" width="323.05" height="323.05" fill="#46A325"/>
<rect x="4798" y="10056" width="323.05" height="323.05" fill="#46A325"/>
<rect x="3453" y="10182" width="323.05" height="323.05" fill="#46A325"/>
<rect x="3941" y="11618" width="323.05" height="323.05" fill="#46A325"/>
<rect x="5556" y="11645" width="323.05" height="323.05" fill="#46A325"/>
<rect x="7261" y="11488" width="323.05" height="323.05" fill="#46A325"/>
<rect x="549" y="7964" width="323.05" height="323.05" fill="#46A325"/>
<rect x="1955" y="9970" width="323.05" height="323.05" fill="#46A325"/>
<rect x="1033" y="5929" width="323.05" height="323.05" fill="#46A325"/>
<rect x="2556" y="5208" width="323.05" height="323.05" fill="#46A325"/>
<rect x="3585" y="7186" width="323.05" height="323.05" fill="#46A325"/>
<rect x="1632" y="7094" width="323.05" height="323.05" fill="#46A325"/>
<rect x="2717" y="8216" width="323.05" height="323.05" fill="#46A325"/>
<rect x="2033" y="9494" width="323.05" height="323.05" fill="#46A325"/>
<rect x="7598" y="11547" width="323.05" height="323.05" fill="#46A325"/>
<rect x="10730" y="12179" width="323.05" height="323.05" fill="#46A325"/>
<rect x="13375" y="11290" width="323.05" height="323.05" fill="#46A325"/>
<rect x="11426" y="11385" width="323.05" height="323.05" fill="#46A325"/>
<rect x="2014" y="5767" width="323.05" height="323.05" fill="#46A325"/>
<rect x="3809" y="5641" width="292.6" height="288.4" fill="#46A325"/>
<rect x="3762" y="6495" width="292.6" height="288.4" fill="#46A325"/>
<rect x="3956" y="4146" width="292.6" height="288.4" fill="#46A325"/>
<rect x="5263" y="7487" width="292.6" height="288.4" fill="#46A325"/>
<rect x="3275" y="9120" width="292.6" height="288.4" fill="#46A325"/>
<rect x="5043" y="8956" width="292.6" height="288.4" fill="#46A325"/>
<rect x="5092" y="9741" width="292.6" height="288.4" fill="#46A325"/>
<rect x="2869" y="10056" width="292.6" height="288.4" fill="#46A325"/>
<rect x="1794" y="9194" width="292.6" height="288.4" fill="#46A325"/>
<rect x="2210" y="8490" width="292.6" height="288.4" fill="#46A325"/>
<rect x="814" y="8869" width="292.6" height="288.4" fill="#46A325"/>
<rect x="3568" y="11200" width="292.6" height="288.4" fill="#46A325"/>
<rect x="5045" y="10613" width="292.6" height="288.4" fill="#46A325"/>
<rect x="4570" y="11726" width="292.6" height="288.4" fill="#46A325"/>
<rect x="5243" y="11645" width="292.6" height="288.4" fill="#46A325"/>
<rect x="4866" y="12358" width="292.6" height="288.4" fill="#46A325"/>
<rect x="6389" y="12126" width="292.6" height="288.4" fill="#46A325"/>
<rect x="6163" y="10549" width="292.6" height="288.4" fill="#46A325"/>
<rect x="9514" y="11982" width="292.6" height="288.4" fill="#46A325"/>
<rect x="11348" y="10297" width="292.6" height="288.4" fill="#46A325"/>
<rect x="12514" y="11780" width="292.6" height="288.4" fill="#46A325"/>
<rect x="13552" y="9407" width="292.6" height="288.4" fill="#46A325"/>
<rect x="13082" y="8269" width="292.6" height="288.4" fill="#46A325"/>
<rect x="13082" y="8906" width="292.6" height="288.4" fill="#46A325"/>
<rect x="12580" y="6700" width="292.6" height="288.4" fill="#46A325"/>
<rect x="9783" y="6682" width="292.6" height="288.4" fill="#46A325"/>
<rect x="8047" y="7812" width="292.6" height="288.4" fill="#46A325"/>
<rect x="7388" y="6207" width="292.6" height="288.4" fill="#46A325"/>
<rect x="6024" y="7936" width="292.6" height="288.4" fill="#46A325"/>
<rect x="6001" y="8663" width="292.6" height="288.4" fill="#46A325"/>
<rect x="11641" y="12270" width="292.6" height="288.4" fill="#46A325"/>
<rect x="8871" y="13012" width="292.6" height="288.4" fill="#46A325"/>
<rect x="6749" y="11861" width="292.6" height="288.4" fill="#46A325"/>
<rect x="8073" y="10519" width="292.6" height="288.4" fill="#46A325"/>
<rect x="9573" y="11049" width="292.6" height="288.4" fill="#46A325"/>
<rect x="10333" y="10723" width="292.6" height="288.4" fill="#46A325"/>
<rect x="8400" y="9927" width="292.6" height="288.4" fill="#46A325"/>
<rect x="7665" y="9783" width="292.6" height="288.4" fill="#46A325"/>
<rect x="6597" y="9339" width="292.6" height="288.4" fill="#46A325"/>
<rect x="12594" y="10261" width="292.6" height="288.4" fill="#46A325"/>
<rect x="10584" y="7546" width="292.6" height="288.4" fill="#46A325"/>
<rect x="9719" y="9263" width="292.6" height="288.4" fill="#46A325"/>
<rect x="7958" y="8634" width="292.6" height="288.4" fill="#46A325"/>
<rect x="9280" y="8121" width="292.6" height="288.4" fill="#46A325"/>
<rect x="7455" y="6915" width="292.6" height="288.4" fill="#46A325"/>
<rect x="6098" y="5243" width="292.6" height="288.4" fill="#46A325"/>
<rect x="4206" y="6495" width="292.6" height="288.4" fill="#46A325"/>
<rect x="2764" y="6351" width="292.6" height="288.4" fill="#46A325"/>
<rect x="579" y="7300" width="292.6" height="288.4" fill="#46A325"/>
<rect x="366" y="5928" width="292.6" height="288.4" fill="#46A325"/>
<rect x="4841" y="6682" width="292.6" height="288.4" fill="#46A325"/>
<g opacity="0.01">
<path d="M6964 6311L1315 6647.5" stroke="#955EBF" stroke-width="12"/>
<path d="M3157.5 7400.5L9451.5 8976" stroke="#955EBF" stroke-width="12"/>
<path d="M5196 8366L11096.5 10991.5" stroke="#955EBF" stroke-width="12"/>
<path d="M10720.5 11703.5L2780.5 9467" stroke="#955EBF" stroke-width="12"/>
<path d="M10178.5 7549.5L1357 8140" stroke="#955EBF" stroke-width="12"/>
<path d="M12347.5 9153.5L4315.5 9570.5" stroke="#955EBF" stroke-width="12"/>
<path d="M5775.5 11022.5L3512.5 8119" stroke="#955EBF" stroke-width="12"/>
<path d="M4176.5 4960.5L4617 11316" stroke="#955EBF" stroke-width="12"/>
</g>
<rect x="6929" y="7699" width="135" height="70" transform="rotate(-90 6929 7699)" fill="#BF3232"/>
</svg>
