<svg width="7762" height="5600" viewBox="0 0 7762 5600" fill="none" xmlns="http://www.w3.org/2000/svg">
<g clip-path="url(#clip0_297_540)">
<path d="M2912.4 2703.2L2587.95 3053.2L2568 3095.2L2580.95 3140.35L2811.25 3344.4L2851.5 3350.7L2894.55 3325.15L3244.9 2965.35V2918.8L3226.7 2892.55L3002.7 2684.3L2954.05 2678L2912.4 2703.2Z" fill="#D1C9C3"/>
<path d="M3000.65 4132.65L3504.65 3796.3L3552.6 3776L3599.15 3796.3L3782.9 4057.4L3792.7 4103.6L3769.6 4148.05L3240.4 4507.5L3188.6 4521.85L3139.25 4493.85L2964.95 4230.65L2959 4183.75L3000.65 4132.65Z" fill="#D1C9C3"/>
<path d="M2813.55 517.5L2563.3 875.2L2521.3 909.15L2466.7 896.2L2215.05 718.05L2193 683.75L2215.05 617.25L2460.4 267.25L2511.15 234L2563.3 246.6L2813.55 420.9L2831.05 452.4L2813.55 517.5Z" fill="#D1C9C3"/>
<path d="M6798.35 3249H6049.35L6003.15 3264.05L5979 3308.5V3693.85L6001.05 3736.2L6042.35 3754.4H6790.3L6836.5 3737.25L6859.6 3699.1V3319.7L6844.2 3272.1L6798.35 3249Z" fill="#D1C9C3"/>
<path d="M3939.3 3015.9L3851 3149.5V3186L3888.5 3205L3911 3182.5L3983 3054L4170.5 3011L4442.5 2966L4683 2957.5L4783.5 2982.5L4923 3075.5L5066.5 3150.5L5107.5 3143.5L5114 3109.5L5095.5 3092L4998.5 3063.85L4803 2936L4690 2895.5L4457.5 2920L4163.5 2940.5L3939.3 3015.9Z" fill="#D1C9C3"/>
<path d="M4339.65 1893.55L4214 1857L4114.35 1980L4096.5 2199.8L4100.85 2235.5H4157.55L4165.5 2199.8V2018.85L4200.5 1940L4273.5 1922.5L4358.5 2006.5L4390 2137.85L4401.5 2165.5H4438.5L4461.5 2137.85L4420.5 2018.85L4339.65 1893.55Z" fill="#D1C9C3"/>
<path d="M2139.5 2831.5L2154 2811L2139.5 2778H2105.5L1967.5 2894L1901 2964L1840 3074.5L1835.5 3209L1847 3356L1879 3437L1950.1 3567.95L2062 3686L2264.5 3725L2499.5 3686L2523.5 3663L2509.5 3626.5H2477L2264.5 3680.5L2095 3630.5L1980 3528.5L1932.5 3402.5L1883 3219.5L1911.5 3044L2015.95 2910.25L2139.5 2831.5Z" fill="#D1C9C3"/>
<path d="M3634.5 1907.5L3627 1948.5L3586 1960L3573 1933L3552.35 1824.5L3488.5 1725.75L3364.35 1638.25L3224.5 1581.55L3022.5 1540.95H2936.5L2577 1484L2395.5 1404.5L2283 1337L2169.85 1217.9L2057.3 1037.6L2023 794L2009.5 614.85L2093.9 410L2209 257L2328.5 140.95L2590 65L2846 87.5L3079 134.5L3290.5 244.5L3432.5 341.5L3507.9 498L3555.15 671.95L3588.5 746V788.5L3658 1071L3683.5 1109.5V1146L3765 1244.5L3877.5 1301L4003.85 1293L4032.5 1322.5L4010.5 1359L3832 1335.5L3711.25 1250.45L3621.5 1133L3582.1 944.55L3526 766L3481.3 573.2L3383.5 382L3253.8 274.65L3053 192L2869.15 140.95L2634.5 128.5L2389 171L2259 302L2152 421.65L2071 637.5L2064.15 784.25L2119.5 1016L2191.5 1166L2325 1288L2444 1381L2599.5 1421.5L2737.2 1464L2945.1 1473.1L3121.15 1500L3256.95 1540.95L3414 1610L3552.35 1725.75L3616 1878L3634.5 1907.5Z" fill="#D1C9C3"/>
<rect x="140" y="1157.45" width="292.6" height="288.4" fill="#46A325"/>
<rect x="4001" y="2431" width="292.6" height="288.4" fill="#46A325"/>
<rect x="6783" y="4129.65" width="292.6" height="288.4" fill="#46A325"/>
<rect x="263.199" y="2255.05" width="292.6" height="288.4" fill="#46A325"/>
<rect x="700.699" y="2938.25" width="292.6" height="288.4" fill="#46A325"/>
<rect x="1805.3" y="1333.15" width="292.6" height="288.4" fill="#46A325"/>
<rect x="3728.9" y="896.35" width="292.6" height="288.4" fill="#46A325"/>
<rect x="5569.9" y="2307.55" width="292.6" height="288.4" fill="#46A325"/>
<rect x="7236.6" y="2182.95" width="292.6" height="288.4" fill="#46A325"/>
<rect x="5121.9" y="3485.65" width="292.6" height="288.4" fill="#46A325"/>
<rect x="4511.5" y="3160.15" width="292.6" height="288.4" fill="#46A325"/>
<rect x="4304" y="2338" width="323.05" height="323.05" fill="#46A325"/>
<rect x="971.6" y="1146.25" width="323.05" height="323.05" fill="#46A325"/>
<rect x="2396.8" y="2172.45" width="323.05" height="323.05" fill="#46A325"/>
<rect x="1241.8" y="2167.55" width="323.05" height="323.05" fill="#46A325"/>
<rect x="2977.8" y="1645.35" width="323.05" height="323.05" fill="#46A325"/>
<rect x="3899" y="3252.55" width="323.05" height="323.05" fill="#46A325"/>
<rect x="5569.9" y="3270.05" width="323.05" height="323.05" fill="#46A325"/>
<rect x="6388.2" y="2334.15" width="323.05" height="323.05" fill="#46A325"/>
<rect x="1051.4" y="3721.55" width="323.05" height="323.05" fill="#46A325"/>
<rect x="2235.1" y="4225.55" width="323.05" height="323.05" fill="#46A325"/>
<rect x="3113.6" y="2388.05" width="323.05" height="323.05" fill="#46A325"/>
<rect x="2039.1" y="3264.45" width="323.05" height="323.05" fill="#46A325"/>
<rect x="4607.4" y="1165.85" width="323.05" height="323.05" fill="#46A325"/>
<rect x="7123.9" y="3264.45" width="323.05" height="323.05" fill="#46A325"/>
<rect x="7331.1" y="4135.95" width="323.05" height="323.05" fill="#46A325"/>
<path d="M2612.65 945.9L2888.8 560.2L3264 821.3L2991.35 1210.5L2612.65 945.9Z" fill="#DDB45F" fill-opacity="0.2"/>
<path d="M1390 1607H-6V1969.5H1309.5L1708.5 2021L1828.5 2270.5L1708.5 2513L1429.5 2829L1370.5 3128L1429.5 3562.5L1745.5 4027.5L2117.5 4178.5L2755 4073.5L3354 3676L3827.5 3064L3974 2561.5L4007.5 2021L4208.5 1685.5L4397 1786.5L4556.5 2092.5L4644 2561.5L4941.5 2888L5423.5 3093.5L6604.5 3118.5H7765V2704H5641L5122 2532L4920.5 2092.5L4824.5 1644L4523 1367.5L4208.5 1334L4007.5 1393L3643 1292.5L3442 840L3295.5 437.5L2830.5 169.5H2415.5L2135 450.5L2068 785.5L2340.5 1242L2943.5 1367.5L3534 1568.5L3672.5 1786.5L3572 2092.5L3534 2595L3354 3001.5L2943.5 3428.5L2482.5 3763.5L2068 3788.5L1779 3508L1708.5 3093.5L1828.5 2888L2103 2616L2201 2253.5L2117.5 1910.5L1870.5 1685.5L1390 1607Z" fill="#425155"/>
<rect x="202" y="1753" width="135" height="70" fill="#BF3232"/>
</g>
<defs>
<clipPath id="clip0_297_540">
<rect width="7762" height="5600" fill="white"/>
</clipPath>
</defs>
</svg>
