<svg width="6961" height="6632" viewBox="0 0 6961 6632" fill="none" xmlns="http://www.w3.org/2000/svg">
<g id="floor" clip-path="url(#clip0_2237_3693)">
<rect width="6961" height="6632" fill="#EEDAD5"/>
<g id="floorTexture">
<g id="floorTexture_2">
<path id="Vector 752" d="M-1302.25 971.485L-989.539 626.576C-845.109 467.275 -600.58 450.661 -435.931 588.963L-415.286 606.304C-390.851 626.829 -368.96 650.204 -350.079 675.931L-28.6816 1113.88C108.55 1300.87 58.4748 1565.01 -137.676 1688.8L-379.147 1841.2C-509.98 1923.77 -676.698 1923.49 -807.252 1840.48L-1220.53 1577.7C-1429.8 1444.65 -1468.82 1155.2 -1302.25 971.485Z" fill="#E6C5BA"/>
<path id="Vector 753" d="M439.581 -94.134L621.88 -351.385C656.51 -400.252 701.672 -440.72 754.032 -469.8L968.143 -588.712C1028 -621.954 1095.38 -639.276 1163.85 -639.02L1694.69 -637.03C1946.99 -636.084 2135.41 -404.644 2085.18 -157.391L2045.69 36.9737C2021.47 156.19 1944.31 257.905 1836.03 313.358L1222.29 627.676C1109.94 685.217 977.016 686.346 863.7 630.721L589.682 496.212C368.52 387.648 297.132 106.882 439.581 -94.134Z" fill="#E6C5BA"/>
<path id="Vector 761" d="M1155.01 3313.39L1361.89 3440.73C1412.53 3471.9 1455.58 3513.97 1487.91 3563.87L1602.04 3740.01C1639.14 3797.27 1660.98 3863.08 1665.47 3931.17L1693.93 4362.53C1710.62 4615.45 1490.86 4819.92 1239.79 4785.06L1118.03 4768.16C998.323 4751.54 892.548 4681.68 830.259 4578.11L519.951 4062.15C454.889 3953.97 444.713 3821.43 492.499 3704.58L575.098 3502.62C668.565 3274.07 944.733 3183.96 1155.01 3313.39Z" fill="#E6C5BA"/>
<path id="Vector 754" d="M1036.68 1567.47L1129.59 1399.34C1220.33 1235.14 1412.99 1156.06 1592.92 1209.16L2047.98 1343.46C2151.52 1374.02 2238.3 1445.13 2288.63 1540.63L2450.67 1848.11C2544.77 2026.69 2491.08 2247.39 2325.46 2362.78L2100.94 2519.22C2015.33 2578.87 1909.81 2602.71 1806.87 2585.65L1477.33 2531.04C1341.16 2508.47 1226.25 2417.3 1173.31 2289.83L1017.38 1914.35C970.645 1801.82 977.752 1674.12 1036.68 1567.47Z" fill="#E6C5BA"/>
<path id="Vector 765" d="M-409.251 3423.9L-217.765 3439.2C-30.7568 3454.14 120.742 3597.04 146.57 3782.86L211.892 4252.81C226.754 4359.73 197.769 4468.12 131.524 4553.35L-81.772 4827.78C-205.643 4987.15 -428.846 5029.26 -602.27 4925.97L-837.382 4785.95C-927.027 4732.56 -992.263 4646.26 -1019.17 4545.45L-1105.33 4222.71C-1140.93 4089.36 -1105.26 3947.07 -1010.97 3846.28L-733.215 3549.37C-649.974 3460.39 -530.712 3414.2 -409.251 3423.9Z" fill="#E6C5BA"/>
<path id="Vector 762" d="M3986.82 3394.99L3599.24 3549.96C3519.62 3581.8 3431.87 3587.21 3348.94 3565.39L2836.89 3430.65C2717.77 3399.31 2619.73 3314.83 2571.13 3201.65L2516.48 3074.4C2396.46 2794.89 2619.98 2489.01 2922.74 2518.45L3060.91 2531.89C3227.31 2548.07 3385.35 2455.81 3453.09 2302.97C3556.18 2070.31 3851.61 1998.28 4050.22 2157.38L4169.99 2253.33C4284.26 2344.87 4339.39 2491.52 4313.71 2635.67L4232.11 3093.73C4207.87 3229.78 4115.13 3343.68 3986.82 3394.99Z" fill="#E6C5BA"/>
<path id="Vector 774" d="M1597.86 6338.9L1225.55 6387.48C1062 6408.82 902.119 6327.58 822.924 6182.9L636.649 5842.59C577.507 5734.54 571.442 5605.27 620.21 5492.16L737.286 5220.62C841.146 4979.73 1144.87 4902.34 1351.34 5064.16L1744.58 5372.35C1787.96 5406.35 1837.91 5431.02 1891.27 5444.8L2299.28 5550.21C2533.35 5610.68 2643.28 5879.4 2518.7 6086.58C2461.31 6182.04 2363.12 6245.71 2252.55 6259.17L1597.86 6338.9Z" fill="#E6C5BA"/>
<path id="Vector 773" d="M5573.27 6660.87L5097.32 7107.78C5035.81 7165.54 4957.62 7202.36 4873.92 7213L4351.22 7279.4C4198.08 7298.85 4047.42 7228.45 3964.09 7098.51L3802.93 6847.18C3660.52 6625.1 3768.33 6328.4 4020.08 6249.54L4450.7 6114.66C4589.1 6071.31 4693.2 5956.44 4722.75 5814.46L4779.95 5539.61C4831.03 5294.24 5092.58 5155.74 5324.24 5251.4L5456.44 5306C5606.96 5368.15 5704.77 5515.35 5703.76 5678.2L5699.46 6371.75C5698.78 6481.34 5653.16 6585.85 5573.27 6660.87Z" fill="#E6C5BA"/>
<path id="Vector 756" d="M-146.569 2352.61L84.1236 1990.21C139.384 1903.4 232.728 1848.14 335.418 1841.45C524.063 1829.15 682.844 1980.89 679.12 2169.89L669.739 2646.01C666.103 2830.6 536.601 2988.72 356.347 3028.66L310.621 3038.79C120.707 3080.87 -71.9452 2980.23 -145.885 2800.31L-179.112 2719.45C-228.55 2599.15 -216.412 2462.33 -146.569 2352.61Z" fill="#E6C5BA"/>
<path id="Vector 758" d="M2814.8 752.561L2754.52 444.054C2729.71 317.072 2767.85 185.93 2856.89 92.0615L3080.81 -143.994C3153.21 -220.31 3252.75 -265.037 3357.88 -268.492L3667.92 -278.681C3919.83 -286.96 4116.53 -62.9982 4075.8 185.743L4052.71 326.752C4043.56 382.624 4022.65 435.918 3991.37 483.108L3713.9 901.714C3637.6 1016.83 3507.31 1084.44 3369.26 1080.56L3196.14 1075.7C3009.09 1070.44 2850.68 936.21 2814.8 752.561Z" fill="#E6C5BA"/>
<path id="Vector 759" d="M4375.55 1483.95L4448.26 1400C4604.75 1219.3 4883.74 1215.3 5045.36 1391.42L5057.18 1404.31C5249.94 1614.38 5167.31 1952.92 4899.44 2050.56L4792.74 2089.45C4657.62 2138.71 4506.26 2107.42 4401.75 2008.62C4253.98 1868.94 4242.44 1637.66 4375.55 1483.95Z" fill="#E6C5BA"/>
<path id="Vector 760" d="M-525.447 -20.3196L-502.005 -77.4489C-435.02 -240.691 -230.215 -294.13 -92.0114 -184.427C41.0006 -78.8461 41.7963 122.833 -90.3783 229.461L-138.441 268.234C-193.855 312.938 -265.746 331.804 -335.971 320.071C-493.736 293.712 -586.169 127.658 -525.447 -20.3196Z" fill="#E6C5BA"/>
<path id="Vector 766" d="M5440.41 -744.693L6005.27 -149.026C6151.14 4.79874 6151.67 245.711 6006.48 400.174L5507.37 931.152C5408.51 1036.32 5260.65 1080.08 5120.48 1045.64L4751.16 954.902C4529.9 900.541 4398.66 672.613 4462.74 453.966L4766.31 -581.942C4853.06 -877.994 5228.13 -968.548 5440.41 -744.693Z" fill="#E6C5BA"/>
<path id="Vector 782" d="M6868.53 754.675L6835.99 674.112C6764.79 497.834 6529.09 465.461 6413 616.013C6344.29 705.123 6344.78 829.493 6414.2 918.054L6467.8 986.435C6568.3 1114.64 6765.82 1103.33 6851.02 964.492C6889.8 901.29 6896.3 823.433 6868.53 754.675Z" fill="#E6C5BA"/>
<path id="Vector 767" d="M4451.7 5169.22L3927.44 5800.92C3792.06 5964.04 3552.92 5993.22 3382.28 5867.43L2795.71 5435.02C2679.53 5349.37 2618.5 5207.76 2636.02 5064.49L2682.19 4687C2709.85 4460.84 2920.55 4303.43 3145.27 4341.05L4209.93 4519.25C4514.2 4570.18 4648.72 4931.82 4451.7 5169.22Z" fill="#E6C5BA"/>
<path id="Vector 768" d="M6346.53 2553.24L5960.25 2515.61C5776.75 2497.74 5629.23 2356.75 5603.08 2174.25L5537.21 1714.68C5513.59 1549.89 5594.5 1387.71 5740.34 1307.47L5835.31 1255.22C6018.89 1154.21 6249.3 1211.99 6363.5 1387.66L6720.68 1937.12C6903.36 2218.14 6680.13 2585.74 6346.53 2553.24Z" fill="#E6C5BA"/>
<path id="Vector 769" d="M5455.88 5045.18L5019.83 4193.38C4935.81 4029.27 4974.86 3828.99 5114.36 3708.44L5549.46 3332.49C5675.42 3223.66 5855.62 3204.21 6001.9 3283.66L6337.85 3466.13C6437 3519.98 6508.8 3613.21 6535.54 3722.83L6716.86 4466.1C6758.77 4637.92 6682.87 4816.88 6530.21 4906.17L6013.89 5208.18C5815.59 5324.17 5560.56 5249.67 5455.88 5045.18Z" fill="#E6C5BA"/>
<path id="Vector 770" d="M3962.85 3773.81L4024.92 3676.29C4100.12 3558.11 4246.36 3506.64 4379.01 3551.67L4392.22 3556.16C4504.03 3594.12 4580.65 3697.36 4584.59 3815.37C4587.26 3895.36 4556.02 3972.76 4498.57 4028.49L4396.71 4127.3C4307.29 4214.03 4171.53 4231.75 4062.85 4170.87C3921.68 4091.79 3875.98 3910.32 3962.85 3773.81Z" fill="#E6C5BA"/>
<path id="Vector 780" d="M2381.68 3382.47L2592.36 3512C2712.62 3585.93 2785 3717.79 2782.81 3858.94L2780.7 3995.38C2778.33 4147.88 2659.15 4272.94 2506.94 4282.63C2427.78 4287.67 2349.97 4260.33 2291.36 4206.88L1976.92 3920.13C1889.55 3840.45 1850.17 3720.92 1873.08 3604.91C1918.72 3373.75 2180.96 3259.06 2381.68 3382.47Z" fill="#E6C5BA"/>
<path id="Vector 771" d="M4717.47 2498.23L4843 2372.19C5025.4 2189.04 5331.01 2224.38 5466.79 2444.33L5477.48 2461.64C5536.81 2557.74 5552.74 2674.44 5521.36 2782.93L5451.58 3024.09C5422.11 3125.96 5353.39 3211.96 5260.53 3263.17L5251.46 3268.18C5043 3383.16 4780.86 3291.72 4689.14 3072.02L4631.77 2934.59C4569.4 2785.2 4603.23 2612.94 4717.47 2498.23Z" fill="#E6C5BA"/>
<path id="Vector 764" d="M3604.67 1785.37L3478.62 1820.11C3305.18 1867.91 3132.16 1742.54 3123.55 1562.84C3119.72 1482.71 3150.34 1404.76 3207.69 1348.67L3233.01 1323.91C3335.05 1224.12 3489.68 1201.25 3616.23 1267.23L3657.44 1288.71C3763.72 1344.12 3820.37 1463.29 3796.24 1580.7C3775.93 1679.5 3701.92 1758.58 3604.67 1785.37Z" fill="#E6C5BA"/>
<path id="Vector 776" d="M-80.8087 7136.07L-254.247 7100.23C-492.886 7050.92 -624.24 6793.06 -523.813 6571.04C-479.03 6472.03 -394.037 6396.91 -290.28 6364.63L-212.012 6340.27C-46.7953 6288.87 132.743 6349.52 232.936 6490.59L289.076 6569.63C383.083 6701.99 377.919 6880.64 276.422 7007.35C191.002 7113.99 52.9963 7163.71 -80.8087 7136.07Z" fill="#E6C5BA"/>
<path id="Vector 777" d="M2892.32 7136.77L2718.88 7100.93C2480.24 7051.62 2348.88 6793.76 2449.31 6571.74C2494.09 6472.73 2579.09 6397.61 2682.84 6365.33L2761.11 6340.97C2926.33 6289.57 3105.87 6350.22 3206.06 6491.29L3262.2 6570.33C3356.21 6702.69 3351.04 6881.34 3249.55 7008.05C3164.13 7114.69 3026.12 7164.41 2892.32 7136.77Z" fill="#E6C5BA"/>
<path id="Vector 778" d="M6180.21 6498.71L6177.3 6385.82C6173.31 6230.49 6314.37 6111.52 6466.8 6141.67C6534.77 6155.12 6593.74 6197 6628.84 6256.74L6644.33 6283.12C6706.76 6389.4 6693.78 6523.78 6612.16 6616.15L6585.58 6646.22C6517.03 6723.79 6405.35 6746.5 6311.95 6701.86C6233.35 6664.28 6182.45 6585.8 6180.21 6498.71Z" fill="#E6C5BA"/>
</g>
</g>
<g id="road">
<path id="Union" fill-rule="evenodd" clip-rule="evenodd" d="M3271.35 769C3384.57 769 3476.35 860.781 3476.35 974V974.874V975.75V976.628V977.508V978.39V979.275V980.161V981.049V981.939V982.831V983.726V984.622V985.52V986.42V987.323V988.227V989.133V990.041V990.951V991.863V992.777V993.693V994.611V995.531V996.453V997.377V998.302V999.23V1000.16V1001.09V1002.02V1002.96V1003.9V1004.84V1005.78V1006.72V1007.67V1008.61V1009.56V1010.51V1011.46V1012.42V1013.37V1014.33V1015.29V1016.25V1017.22V1018.18V1019.15V1020.12V1021.09V1022.07V1023.04V1024.02V1025V1025.98V1026.96V1027.94V1028.93V1029.92V1030.91V1031.9V1032.89V1033.88V1034.88V1035.88V1036.88V1037.88V1038.89V1039.89V1040.9V1041.91V1042.92V1043.93V1044.95V1045.96V1046.98V1048V1049.02V1050.05V1051.07V1052.1V1053.13V1054.16V1055.19V1056.22V1057.26V1058.29V1059.33V1060.37V1061.42V1062.46V1063.5V1064.55V1065.6V1066.65V1067.7V1068.76V1069.81V1070.87V1071.93V1072.99V1074.05V1075.12V1076.18V1077.25V1078.32V1079.39V1080.46V1081.54V1082.61V1083.69V1084.77V1085.85V1086.93V1088.01V1089.1V1090.19V1091.27V1092.36V1093.46V1094.55V1095.64V1096.74V1097.84V1098.94V1100.04V1101.14V1102.24V1103.35V1104.46V1105.57V1106.68V1107.79V1108.9V1110.02V1111.13V1112.25V1113.37V1114.49V1115.62V1116.74V1117.86V1118.99V1120.12V1121.25V1122.38V1123.52V1124.65V1125.79V1126.92V1128.06V1129.2V1130.35V1131.49V1132.63V1133.78V1134.93V1136.08V1137.23V1138.38V1139.53V1140.69V1141.85V1143V1144.16V1145.32V1146.49V1147.65V1148.81V1149.98V1151.15V1152.32V1153.49V1154.66V1155.83V1157.01V1158.19V1159.36V1160.54V1161.72V1162.9V1164.09V1165.27V1166.46V1167.64V1168.83V1170.02V1171.21V1172.41V1173.6V1174.79V1175.99V1177.19V1178.39V1179.59V1180.79V1181.99V1183.2V1184.4V1185.61V1186.82V1188.03V1189.24V1190.45V1191.66V1192.88V1194.09V1195.31V1196.53V1197.75V1198.97V1200.19V1201.42V1202.64V1203.87V1205.09V1206.32V1207.55V1208.78V1210.01V1211.25V1212.48V1213.72V1214.95V1216.19V1217.43V1218.67V1219.91V1221.16V1222.4V1223.65V1224.89V1226.14V1227.39V1228.64V1229.89V1231.14V1232.39V1233.65V1234.9V1236.16V1237.42V1238.68V1239.94V1241.2V1242.46V1243.73V1244.99V1246.26V1247.52V1248.79V1250.06V1251.33V1252.6V1253.87V1255.15V1256.42V1257.7V1258.98V1260.25V1261.53V1262.81V1264.09V1265.37V1266.66V1267.94V1269.23V1270.51V1271.8V1273.09V1274.38V1275.67V1276.96V1278.25V1279.55V1280.84V1282.14V1283.43V1284.73V1286.03V1287.33V1288.63V1289.93V1291.23V1292.54V1293.84V1295.15V1296.45V1297.76V1299.07V1300.38V1301.69V1303V1304.31V1305.62V1306.94V1308.25V1309.57V1310.88V1312.2V1313.52V1314.84V1316.16V1317.48V1318.8V1320.13V1321.45V1322.78V1324.1V1325.43V1326.76V1328.08V1329.41V1330.74V1332.08V1333.41V1334.74V1336.07V1337.41V1338.74V1340.08V1341.42V1342.75V1344.09V1345.43V1346.77V1348.11V1349.46V1350.8V1352.14V1353.49V1354.83V1356.18V1357.53V1358.87V1360.22V1361.57V1362.92V1364.27V1365.62V1366.98V1368.33V1369.68V1371.04V1372.39V1373.75V1375.11V1376.46V1377.82V1379.18V1380.54V1381.9V1383.26V1384.62V1385.99V1387.35V1388.71V1390.08V1391.45V1392.81V1394.18V1395.55V1396.91V1398.28V1399.65V1401.02V1402.4V1403.77V1405.14V1406.51V1407.89V1409.26V1410.64V1412.01V1413.39V1414.76V1416.14V1417.52V1418.9V1420.28V1421.66V1423.04V1424.42V1425.8V1427.19V1428.57V1429.95V1431.34V1432.72V1434.11V1435.49V1436.88V1438.27V1439.66V1441.05V1442.43V1443.82V1445.21V1446.6V1448V1449.39V1450.78V1452.17V1453.57V1454.96V1456.36V1457.75V1459.15V1460.54V1461.94V1463.34V1464.73V1466.13V1467.53V1468.93V1470.33V1471.73V1473.13V1474.53V1475.93V1477.33V1478.74V1480.14V1481.54V1482.95V1484.35V1485.76V1487.16V1488.57V1489.97V1491.38V1492.79V1494.2V1495.6V1497.01V1498.42V1499.83V1501.24V1502.65V1504.06V1505.47V1506.88V1508.29V1509.7V1511.12V1512.53V1513.94V1515.36V1516.77V1518.18V1519.6V1521.01V1522.43V1523.85V1525.26V1526.68V1528.09V1529.51V1530.93V1532.35V1533.76V1535.18V1536.6V1538.02V1539.44V1540.86V1542.28V1543.7V1545.12V1546.54V1547.96V1549.38V1550.8V1552.23V1553.65V1555.07V1556.49V1557.92V1559.34V1560.76V1562.19V1563.61V1565.04V1566.46V1567.89V1569.31V1570.74V1572.16V1573.59V1575.01V1576.44V1577.86V1579.29V1580.72V1582.14V1583.57V1585V1586.43V1587.85V1589.28V1590.71V1592.14V1593.57V1595V1596.42V1597.85V1599.28V1600.71V1602.14V1603.57V1605C3476.35 1763.19 3368.47 1871.5 3300.04 1930.64C3244.47 1978.65 3172.67 2028.21 3110.02 2071.45C3090.29 2085.07 3071.46 2098.06 3054.34 2110.18C2972.9 2167.83 2910.36 2218.12 2868.95 2269.01C2830.85 2315.84 2819.74 2351.76 2821.69 2387.24C2824.3 2434.6 2838.85 2453.53 2868.57 2474.08C2913.23 2504.95 2982.74 2529.16 3094.66 2560.62C3106.22 2563.87 3118.27 2567.2 3130.74 2570.65C3182.44 2584.96 3241.19 2601.22 3301.08 2621.33C3329.59 2630.91 3361.69 2625.14 3381.38 2602.41C3441.59 2532.89 3480.15 2446.08 3527.42 2339.65C3534.73 2323.19 3542.25 2306.27 3550.09 2288.86C3580.44 2221.47 3623.9 2129.03 3693.01 2058.53C3775.35 1974.52 3887.01 1927.63 4022.72 1942.76C4157.51 1957.79 4347.46 1980.69 4510.8 2012.87C4591.62 2028.79 4673.7 2048.45 4741.85 2073.27C4775.66 2085.59 4813.15 2101.69 4847.47 2123.33C4877.61 2142.34 4930.2 2180.86 4959.93 2247.96C5008.25 2357.03 5014.52 2488.35 5018.86 2579.11C5019.36 2589.57 5019.84 2599.49 5020.35 2608.78C5026.34 2717.97 5035.41 2800.16 5067.46 2871.41C5116.13 2979.62 5166.28 3121.23 5146.68 3274.22C5125.41 3440.31 5028.52 3579.03 4867.49 3689.53C4748.31 3771.31 4603.14 3927.74 4479.63 4078.03C4419.98 4150.62 4368.86 4217.44 4332.69 4266.08C4328.66 4271.49 4324.83 4276.67 4321.19 4281.61C4313.17 4292.48 4308.27 4305.29 4305.9 4318.59C4281.79 4454.22 4195.18 4551.32 4110.69 4617.83C4029.92 4681.41 3925.18 4736.78 3837.66 4783.05C3820.29 4792.24 3803.6 4801.06 3787.9 4809.52C3599.23 4911.23 3497.73 4988.78 3469.95 5099.05C3468.54 5104.62 3467.99 5110.38 3468 5116.12C3468 5117.08 3468 5118.04 3468 5119C3468 5132.65 3466.67 5146 3464.12 5158.9C3462.86 5165.26 3462 5171.69 3462.01 5178.17C3462.09 5302.3 3463.54 5470.71 3464.99 5610.3C3465.74 5682.18 3466.49 5746.2 3467.05 5792.24C3467.33 5815.26 3467.56 5833.78 3467.73 5846.54C3467.81 5852.92 3467.87 5857.86 3467.92 5861.2L3467.96 5864.99L3467.98 5865.95L3467.98 5866.19L3467.98 5866.25L3467.98 5866.26C3467.98 5866.27 3467.98 5866.27 3263 5869C3058.02 5871.73 3058.02 5871.73 3058.02 5871.73L3058.02 5871.71L3058.02 5871.64L3058.01 5871.39L3058 5870.41L3057.95 5866.57L3057.84 5858L3057.76 5851.8C3057.59 5838.96 3057.36 5820.35 3057.08 5797.24C3056.51 5751.02 3055.76 5686.75 3055.01 5614.57C3053.51 5470.46 3052 5293.91 3052 5166.5C3052 5136.82 3053.71 5108.29 3056.95 5080.86C3057.39 5077.08 3057.61 5073.3 3057.54 5069.5C3055.03 4935.55 3041.7 4780.88 3003.94 4660.54C2982.73 4592.92 2958.78 4552.77 2939.22 4532.43C2925.49 4518.15 2915.68 4513.91 2896.56 4514.42C2569.94 4523.29 2283.21 4410.46 2082.12 4246.48C1890.81 4090.48 1739.32 3852.29 1780.22 3603.72C1811.18 3415.53 1872.7 3281.18 1967.8 3162.37C2033.06 3080.85 2117.38 3004.81 2200.64 2929.72C2224.61 2908.1 2248.49 2886.57 2271.8 2865.01C2328.72 2812.36 2379.09 2691.83 2409.52 2387.6C2409.79 2384.83 2410.13 2382.07 2410.51 2379.33C2411.1 2375.12 2411.51 2370.87 2411.61 2366.62C2414.92 2221.38 2475.71 2102.69 2550.92 2010.26C2630.13 1912.9 2732.56 1835.63 2817.46 1775.53C2845.53 1755.67 2871.12 1737.99 2894.61 1721.76C2950.54 1683.14 2994.6 1652.7 3031.97 1620.41C3050.97 1603.99 3061.19 1592.79 3066.34 1586.45C3066.35 1586.44 3066.35 1586.43 3066.35 1586.43V1586.43V1585V1583.57V1582.14V1580.72V1579.29V1577.86V1576.44V1575.01V1573.59V1572.16V1570.74V1569.31V1567.89V1566.46V1565.04V1563.61V1562.19V1560.76V1559.34V1557.92V1556.49V1555.07V1553.65V1552.23V1550.8V1549.38V1547.96V1546.54V1545.12V1543.7V1542.28V1540.86V1539.44V1538.02V1536.6V1535.18V1533.76V1532.35V1530.93V1529.51V1528.09V1526.68V1525.26V1523.85V1522.43V1521.01V1519.6V1518.18V1516.77V1515.36V1513.94V1512.53V1511.12V1509.7V1508.29V1506.88V1505.47V1504.06V1502.65V1501.24V1499.83V1498.42V1497.01V1495.6V1494.2V1492.79V1491.38V1489.97V1488.57V1487.16V1485.76V1484.35V1482.95V1481.54V1480.14V1478.74V1477.33V1475.93V1474.53V1473.13V1471.73V1470.33V1468.93V1467.53V1466.13V1464.73V1463.34V1461.94V1460.54V1459.15V1457.75V1456.36V1454.96V1453.57V1452.17V1450.78V1449.39V1448V1446.6V1445.21V1443.82V1442.43V1441.05V1439.66V1438.27V1436.88V1435.49V1434.11V1432.72V1431.34V1429.95V1428.57V1427.19V1425.8V1424.42V1423.04V1421.66V1420.28V1418.9V1417.52V1416.14V1414.76V1413.39V1412.01V1410.64V1409.26V1407.89V1406.51V1405.14V1403.77V1402.4V1401.02V1399.65V1398.28V1396.91V1395.55V1394.18V1392.81V1391.45V1390.08V1388.71V1387.35V1385.99V1384.62V1383.26V1381.9V1380.54V1379.18V1377.82V1376.46V1375.11V1373.75V1372.39V1371.04V1369.68V1368.33V1366.98V1365.62V1364.27V1362.92V1361.57V1360.22V1358.87V1357.53V1356.18V1354.83V1353.49V1352.14V1350.8V1349.46V1348.11V1346.77V1345.43V1344.09V1342.75V1341.42V1340.08V1338.74V1337.41V1336.07V1334.74V1333.41V1332.08V1330.74V1329.41V1328.08V1326.76V1325.43V1324.1V1322.78V1321.45V1320.13V1318.8V1317.48V1316.16V1314.84V1313.52V1312.2V1310.88V1309.57V1308.25V1306.94V1305.62V1304.31V1303V1301.69V1300.38V1299.07V1297.76V1296.45V1295.15V1293.84V1292.54V1291.23V1289.93V1288.63V1287.33V1286.03V1284.73V1283.43V1282.14V1280.84V1279.55V1278.25V1276.96V1275.67V1274.38V1273.09V1271.8V1270.51V1269.23V1267.94V1266.66V1265.37V1264.09V1262.81V1261.53V1260.25V1258.98V1257.7V1256.42V1255.15V1253.87V1252.6V1251.33V1250.06V1248.79V1247.52V1246.26V1244.99V1243.73V1242.46V1241.2V1239.94V1238.68V1237.42V1236.16V1234.9V1233.65V1232.39V1231.14V1229.89V1228.64V1227.39V1226.14V1224.89V1223.65V1222.4V1221.16V1219.91V1218.67V1217.43V1216.19V1214.95V1213.72V1212.48V1211.25V1210.01V1208.78V1207.55V1206.32V1205.09V1203.87V1202.64V1201.42V1200.19V1198.97V1197.75V1196.53V1195.31V1194.09V1192.88V1191.66V1190.45V1189.24V1188.03V1186.82V1185.61V1184.4V1183.2V1181.99V1180.79V1179.59V1178.39V1177.19V1175.99V1174.79V1173.6V1172.41V1171.21V1170.02V1168.83V1167.64V1166.46V1165.27V1164.09V1162.9V1161.72V1160.54V1159.36V1158.19V1157.01V1155.83V1154.66V1153.49V1152.32V1151.15V1149.98V1148.81V1147.65V1146.49V1145.32V1144.16V1143V1141.85V1140.69V1139.53V1138.38V1137.23V1136.08V1134.93V1133.78V1132.63V1131.49V1130.35V1129.2V1128.06V1126.92V1125.79V1124.65V1123.52V1122.38V1121.25V1120.12V1118.99V1117.86V1116.74V1115.62V1114.49V1113.37V1112.25V1111.13V1110.02V1108.9V1107.79V1106.68V1105.57V1104.46V1103.35V1102.24V1101.14V1100.04V1098.94V1097.84V1096.74V1095.64V1094.55V1093.46V1092.36V1091.27V1090.19V1089.1V1088.01V1086.93V1085.85V1084.77V1083.69V1082.61V1081.54V1080.46V1079.39V1078.32V1077.25V1076.18V1075.12V1074.05V1072.99V1071.93V1070.87V1069.81V1068.76V1067.7V1066.65V1065.6V1064.55V1063.5V1062.46V1061.42V1060.37V1059.33V1058.29V1057.26V1056.22V1055.19V1054.16V1053.13V1052.1V1051.07V1050.05V1049.02V1048V1046.98V1045.96V1044.95V1043.93V1042.92V1041.91V1040.9V1039.89V1038.89V1037.88V1036.88V1035.88V1034.88V1033.88V1032.89V1031.9V1030.91V1029.92V1028.93V1027.94V1026.96V1025.98V1025V1024.02V1023.04V1022.07V1021.09V1020.12V1019.15V1018.18V1017.22V1016.25V1015.29V1014.33V1013.37V1012.42V1011.46V1010.51V1009.56V1008.61V1007.67V1006.72V1005.78V1004.84V1003.9V1002.96V1002.02V1001.09V1000.16V999.23V998.302V997.377V996.453V995.531V994.611V993.693V992.777V991.863V990.951V990.041V989.133V988.227V987.323V986.42V985.52V984.622V983.726V982.831V981.939V981.049V980.161V979.275V978.39V977.508V976.628V975.75V974.874V974C3066.35 860.781 3158.13 769 3271.35 769ZM2816.46 2902.54C2771.68 2885.79 2720.55 2907.57 2700.83 2951.13C2663.64 3033.3 2614.96 3106.09 2550.2 3165.99C2514.82 3198.72 2483.68 3226.86 2455.92 3251.96C2380.94 3319.73 2330.6 3365.23 2287.88 3418.59C2240.42 3477.88 2205.32 3545.47 2184.78 3670.28C2177.97 3711.67 2204.48 3817.22 2341.23 3928.74C2468.18 4032.27 2659.56 4110.71 2885.44 4104.58C3029.71 4100.66 3148.1 4158.14 3234.74 4248.24C3315.57 4332.29 3364.2 4439.2 3395.14 4537.81V4537.81C3398.89 4549.76 3413.14 4554.86 3423.6 4547.96C3483.42 4508.49 3542.35 4476.11 3593.35 4448.62C3616.33 4436.24 3637.93 4424.74 3658.27 4413.92C3744.68 4367.95 3808.19 4334.16 3857.09 4295.67C3906.98 4256.39 3903.02 4242.16 3902.43 4240.01C3902.39 4239.89 3902.37 4239.8 3902.37 4239.76C3899.45 4191.09 3889.43 4173.67 3885.75 4167.94C3880.64 4159.99 3871.08 4149.07 3838.53 4125.9C3830.46 4120.15 3821.06 4113.83 3810.6 4106.79C3739.76 4059.12 3620.07 3978.6 3530.58 3820.46C3439.8 3660.03 3440.29 3509.4 3440.63 3404.89L3440.63 3403.78C3440.98 3295.34 3440.14 3237.66 3408.73 3172.29C3384.9 3122.71 3343.39 3084.48 3270.64 3049.53C3200.49 3015.83 3120.24 2993.44 3021.1 2965.78C3008.93 2962.38 2996.48 2958.91 2983.72 2955.32C2933.21 2941.13 2875.25 2924.54 2816.46 2902.54ZM3263 5869L3138.01 5870.67C3093.83 5871.26 3057.05 5908.9 3074.42 5949.52C3106.1 6023.64 3180.14 6075.12 3265.73 6073.98C3351.33 6072.84 3423.97 6019.4 3453.66 5944.47C3469.94 5903.39 3432.17 5866.74 3387.99 5867.33L3263 5869ZM4116.46 3822.04C4130.58 3833.35 4151.38 3831.7 4162.87 3817.72V3817.72C4288.36 3665.01 4464.69 3468.69 4635.51 3351.47C4724.63 3290.31 4736.96 3245.94 4740 3222.14C4744.73 3185.26 4734.3 3130.2 4693.54 3039.59C4627.09 2891.84 4616.95 2740.3 4610.96 2631.25C4607.96 2576.5 4605.66 2535.38 4602.79 2503.48C4600.2 2474.61 4580.19 2450.77 4552.27 2443.01C4519 2433.76 4478.42 2424.37 4431.55 2415.13C4302.99 2389.81 4150.85 2370.15 4024.47 2355.58C3997.5 2352.48 3970.9 2363.52 3957.93 2387.37C3948.74 2404.25 3937.6 2426.87 3923.92 2457.23C3917.81 2470.8 3911.32 2485.78 3904.33 2501.9C3867.68 2586.41 3817.37 2702.44 3736.79 2812.61C3713.81 2844.04 3713.92 2887.07 3735.49 2919.48C3751.01 2942.8 3765.36 2967.83 3778.27 2994.71C3852.08 3148.31 3851.27 3291.43 3850.71 3389.19C3850.68 3394.64 3850.65 3399.94 3850.63 3405.1C3850.3 3506.73 3854.2 3559.84 3887.42 3618.54C3926.93 3688.36 3966.52 3715.71 4033.37 3761.9C4046.55 3771.01 4060.79 3780.84 4076.3 3791.89C4088.78 3800.77 4102.35 3810.74 4116.46 3822.04Z" fill="black" fill-opacity="0.04"/>
<path id="Union_2" fill-rule="evenodd" clip-rule="evenodd" d="M3272.35 819.309C3357.95 819.309 3427.35 888.704 3427.35 974.309V975.183V976.059V976.937V977.817V978.699V979.583V980.47V981.358V982.248V983.14V984.035V984.931V985.829V986.729V987.631V988.536V989.442V990.35V991.26V992.172V993.086V994.002V994.92V995.84V996.762V997.685V998.611V999.539V1000.47V1001.4V1002.33V1003.27V1004.21V1005.15V1006.09V1007.03V1007.97V1008.92V1009.87V1010.82V1011.77V1012.73V1013.68V1014.64V1015.6V1016.56V1017.53V1018.49V1019.46V1020.43V1021.4V1022.37V1023.35V1024.33V1025.3V1026.28V1027.27V1028.25V1029.24V1030.22V1031.21V1032.21V1033.2V1034.19V1035.19V1036.19V1037.19V1038.19V1039.19V1040.2V1041.21V1042.22V1043.23V1044.24V1045.26V1046.27V1047.29V1048.31V1049.33V1050.35V1051.38V1052.41V1053.43V1054.46V1055.5V1056.53V1057.57V1058.6V1059.64V1060.68V1061.72V1062.77V1063.81V1064.86V1065.91V1066.96V1068.01V1069.07V1070.12V1071.18V1072.24V1073.3V1074.36V1075.43V1076.49V1077.56V1078.63V1079.7V1080.77V1081.84V1082.92V1084V1085.08V1086.16V1087.24V1088.32V1089.41V1090.49V1091.58V1092.67V1093.76V1094.86V1095.95V1097.05V1098.15V1099.25V1100.35V1101.45V1102.55V1103.66V1104.77V1105.88V1106.99V1108.1V1109.21V1110.33V1111.44V1112.56V1113.68V1114.8V1115.92V1117.05V1118.17V1119.3V1120.43V1121.56V1122.69V1123.82V1124.96V1126.1V1127.23V1128.37V1129.51V1130.65V1131.8V1132.94V1134.09V1135.24V1136.39V1137.54V1138.69V1139.84V1141V1142.15V1143.31V1144.47V1145.63V1146.8V1147.96V1149.12V1150.29V1151.46V1152.63V1153.8V1154.97V1156.14V1157.32V1158.49V1159.67V1160.85V1162.03V1163.21V1164.4V1165.58V1166.77V1167.95V1169.14V1170.33V1171.52V1172.71V1173.91V1175.1V1176.3V1177.5V1178.7V1179.9V1181.1V1182.3V1183.51V1184.71V1185.92V1187.13V1188.34V1189.55V1190.76V1191.97V1193.19V1194.4V1195.62V1196.84V1198.06V1199.28V1200.5V1201.72V1202.95V1204.17V1205.4V1206.63V1207.86V1209.09V1210.32V1211.56V1212.79V1214.03V1215.26V1216.5V1217.74V1218.98V1220.22V1221.47V1222.71V1223.95V1225.2V1226.45V1227.7V1228.95V1230.2V1231.45V1232.7V1233.96V1235.21V1236.47V1237.73V1238.99V1240.25V1241.51V1242.77V1244.04V1245.3V1246.57V1247.83V1249.1V1250.37V1251.64V1252.91V1254.18V1255.46V1256.73V1258.01V1259.28V1260.56V1261.84V1263.12V1264.4V1265.68V1266.97V1268.25V1269.54V1270.82V1272.11V1273.4V1274.69V1275.98V1277.27V1278.56V1279.86V1281.15V1282.44V1283.74V1285.04V1286.34V1287.64V1288.94V1290.24V1291.54V1292.84V1294.15V1295.45V1296.76V1298.07V1299.38V1300.69V1302V1303.31V1304.62V1305.93V1307.25V1308.56V1309.88V1311.19V1312.51V1313.83V1315.15V1316.47V1317.79V1319.11V1320.44V1321.76V1323.08V1324.41V1325.74V1327.06V1328.39V1329.72V1331.05V1332.38V1333.72V1335.05V1336.38V1337.72V1339.05V1340.39V1341.73V1343.06V1344.4V1345.74V1347.08V1348.42V1349.77V1351.11V1352.45V1353.8V1355.14V1356.49V1357.83V1359.18V1360.53V1361.88V1363.23V1364.58V1365.93V1367.28V1368.64V1369.99V1371.35V1372.7V1374.06V1375.41V1376.77V1378.13V1379.49V1380.85V1382.21V1383.57V1384.93V1386.3V1387.66V1389.02V1390.39V1391.75V1393.12V1394.49V1395.86V1397.22V1398.59V1399.96V1401.33V1402.7V1404.08V1405.45V1406.82V1408.2V1409.57V1410.94V1412.32V1413.7V1415.07V1416.45V1417.83V1419.21V1420.59V1421.97V1423.35V1424.73V1426.11V1427.5V1428.88V1430.26V1431.65V1433.03V1434.42V1435.8V1437.19V1438.58V1439.97V1441.35V1442.74V1444.13V1445.52V1446.91V1448.31V1449.7V1451.09V1452.48V1453.88V1455.27V1456.66V1458.06V1459.45V1460.85V1462.25V1463.64V1465.04V1466.44V1467.84V1469.24V1470.64V1472.04V1473.44V1474.84V1476.24V1477.64V1479.05V1480.45V1481.85V1483.26V1484.66V1486.07V1487.47V1488.88V1490.28V1491.69V1493.1V1494.5V1495.91V1497.32V1498.73V1500.14V1501.55V1502.96V1504.37V1505.78V1507.19V1508.6V1510.01V1511.43V1512.84V1514.25V1515.67V1517.08V1518.49V1519.91V1521.32V1522.74V1524.15V1525.57V1526.99V1528.4V1529.82V1531.24V1532.66V1534.07V1535.49V1536.91V1538.33V1539.75V1541.17V1542.59V1544.01V1545.43V1546.85V1548.27V1549.69V1551.11V1552.54V1553.96V1555.38V1556.8V1558.23V1559.65V1561.07V1562.5V1563.92V1565.34V1566.77V1568.19V1569.62V1571.04V1572.47V1573.9V1575.32V1576.75V1578.17V1579.6V1581.03V1582.45V1583.88V1585.31V1586.74V1588.16V1589.59V1591.02V1592.45V1593.88V1595.3V1596.73V1598.16V1599.59V1601.02V1602.45V1603.88V1605.31C3427.35 1739.79 3335.47 1835.11 3268.35 1893.12C3215.07 1939.15 3146.81 1986.27 3084.59 2029.23C3064.33 2043.21 3044.71 2056.76 3026.45 2069.68C2944.59 2127.62 2877.19 2181.21 2831.17 2237.77C2787.65 2291.26 2769.95 2339.01 2772.77 2390.3C2776.3 2454.47 2799.89 2487 2841.14 2515.52C2893.69 2551.84 2971.2 2577.88 3082.13 2609.06C3093.92 2612.38 3106.11 2615.75 3118.61 2619.22C3189.71 2638.92 3271.15 2661.48 3350.04 2692.01C3355.36 2694.07 3361.37 2692.86 3365.73 2689.18V2689.18C3465.71 2605.1 3515.85 2491.89 3574.01 2360.59C3581.4 2343.91 3588.92 2326.94 3596.68 2309.7C3627.23 2241.87 3667.6 2157.21 3729.72 2093.83C3801.84 2020.25 3898.5 1979.42 4018.18 1992.76C4152.9 2007.79 4341.03 2030.49 4502.14 2062.23C4582.05 2077.97 4661.18 2097.04 4725.74 2120.56C4757.81 2132.25 4791.66 2146.93 4821.8 2165.94C4848.79 2182.95 4891.44 2214.86 4915.21 2268.52C4959.44 2368.35 4965.38 2489.57 4969.89 2581.73C4970.4 2592.16 4970.89 2602.22 4971.42 2611.83C4977.41 2721 4986.62 2811.65 5022.86 2892.23C5070.56 2998.29 5115.87 3129.34 5098.09 3268.18C5079.04 3416.91 4992.47 3544.13 4840.2 3648.61C4714.72 3734.72 4565.75 3896.01 4442 4046.59C4381.71 4119.96 4330.09 4187.43 4293.56 4236.55C4284.35 4248.94 4276.12 4260.13 4268.97 4269.93C4264.23 4276.43 4261.41 4284.1 4260.39 4292.07C4243.93 4420.83 4163.94 4513.37 4080.76 4578.85C4003.95 4639.32 3904.34 4692.02 3816.66 4738.41C3798.92 4747.8 3781.66 4756.93 3765.18 4765.82C3572.35 4869.77 3449.28 4958.39 3419.85 5098.26C3419.24 5101.16 3418.97 5104.15 3418.98 5107.12C3418.99 5111.23 3419 5115.29 3419 5119.31C3419 5132.48 3417.36 5145.26 3414.27 5157.46C3413.49 5160.52 3413 5163.65 3413 5166.81V5166.81C3413 5292.18 3414.49 5467.11 3415.99 5611.13C3416.74 5683.05 3417.49 5747.1 3418.05 5793.16C3418.33 5816.19 3418.57 5834.72 3418.73 5847.49C3418.81 5853.88 3418.88 5858.82 3418.92 5862.17L3418.97 5865.96L3418.98 5866.92L3418.99 5867.17L3418.99 5867.22L3418.99 5867.24C3418.99 5867.24 3418.99 5867.24 3264 5869.31C3109.01 5871.38 3109.01 5871.37 3109.01 5871.37L3109.01 5871.35L3109.01 5871.29L3109.01 5871.04L3109 5870.06L3108.95 5866.22C3108.9 5862.85 3108.84 5857.88 3108.76 5851.47C3108.59 5838.64 3108.36 5820.04 3108.07 5796.94C3107.51 5750.74 3106.76 5686.5 3106.01 5614.36C3104.51 5470.26 3103 5293.93 3103 5166.81C3103 5137.28 3104.82 5108.97 3108.27 5081.81C3108.55 5079.63 3108.68 5077.44 3108.64 5075.24C3106.41 4937.98 3093.08 4774.76 3052.65 4645.88C3030.25 4574.48 3003.29 4526.19 2976.26 4498.08C2953.63 4474.55 2930.58 4463.82 2896.21 4464.75C2581.87 4473.29 2306.77 4364.65 2114.72 4208.04C1930.07 4057.47 1793.81 3835.45 1830.56 3612.14C1860.25 3431.69 1918.54 3305.47 2007.84 3193.92C2070.29 3115.91 2150.31 3043.71 2233.02 2969.1C2257.49 2947.02 2282.19 2924.74 2306.75 2902.02C2379.05 2835.14 2429.95 2696.09 2460.27 2392.89C2460.63 2389.33 2461.1 2385.81 2461.69 2382.34C2462.17 2379.49 2462.47 2376.6 2462.5 2373.71C2464.05 2239.78 2519.47 2129.67 2590.7 2042.12C2665.31 1950.43 2762.87 1876.45 2847.35 1816.65C2873.84 1797.9 2898.58 1780.82 2921.69 1764.85C2978.86 1725.36 3026.14 1692.71 3065.67 1658.55C3105.12 1624.46 3114.92 1606.57 3117.08 1602.19C3117.26 1601.83 3117.35 1601.43 3117.35 1601.02V1601.02V1599.59V1598.16V1596.73V1595.3V1593.88V1592.45V1591.02V1589.59V1588.16V1586.74V1585.31V1583.88V1582.45V1581.03V1579.6V1578.17V1576.75V1575.32V1573.9V1572.47V1571.04V1569.62V1568.19V1566.77V1565.34V1563.92V1562.5V1561.07V1559.65V1558.23V1556.8V1555.38V1553.96V1552.54V1551.11V1549.69V1548.27V1546.85V1545.43V1544.01V1542.59V1541.17V1539.75V1538.33V1536.91V1535.49V1534.07V1532.66V1531.24V1529.82V1528.4V1526.99V1525.57V1524.15V1522.74V1521.32V1519.91V1518.49V1517.08V1515.67V1514.25V1512.84V1511.43V1510.01V1508.6V1507.19V1505.78V1504.37V1502.96V1501.55V1500.14V1498.73V1497.32V1495.91V1494.5V1493.1V1491.69V1490.28V1488.88V1487.47V1486.07V1484.66V1483.26V1481.85V1480.45V1479.05V1477.64V1476.24V1474.84V1473.44V1472.04V1470.64V1469.24V1467.84V1466.44V1465.04V1463.64V1462.25V1460.85V1459.45V1458.06V1456.66V1455.27V1453.88V1452.48V1451.09V1449.7V1448.31V1446.91V1445.52V1444.13V1442.74V1441.35V1439.97V1438.58V1437.19V1435.8V1434.42V1433.03V1431.65V1430.26V1428.88V1427.5V1426.11V1424.73V1423.35V1421.97V1420.59V1419.21V1417.83V1416.45V1415.07V1413.7V1412.32V1410.94V1409.57V1408.2V1406.82V1405.45V1404.08V1402.7V1401.33V1399.96V1398.59V1397.22V1395.86V1394.49V1393.12V1391.75V1390.39V1389.02V1387.66V1386.3V1384.93V1383.57V1382.21V1380.85V1379.49V1378.13V1376.77V1375.41V1374.06V1372.7V1371.35V1369.99V1368.64V1367.28V1365.93V1364.58V1363.23V1361.88V1360.53V1359.18V1357.83V1356.49V1355.14V1353.8V1352.45V1351.11V1349.77V1348.42V1347.08V1345.74V1344.4V1343.06V1341.73V1340.39V1339.05V1337.72V1336.38V1335.05V1333.72V1332.38V1331.05V1329.72V1328.39V1327.06V1325.74V1324.41V1323.08V1321.76V1320.44V1319.11V1317.79V1316.47V1315.15V1313.83V1312.51V1311.19V1309.88V1308.56V1307.25V1305.93V1304.62V1303.31V1302V1300.69V1299.38V1298.07V1296.76V1295.45V1294.15V1292.84V1291.54V1290.24V1288.94V1287.64V1286.34V1285.04V1283.74V1282.44V1281.15V1279.86V1278.56V1277.27V1275.98V1274.69V1273.4V1272.11V1270.82V1269.54V1268.25V1266.97V1265.68V1264.4V1263.12V1261.84V1260.56V1259.28V1258.01V1256.73V1255.46V1254.18V1252.91V1251.64V1250.37V1249.1V1247.83V1246.57V1245.3V1244.04V1242.77V1241.51V1240.25V1238.99V1237.73V1236.47V1235.21V1233.96V1232.7V1231.45V1230.2V1228.95V1227.7V1226.45V1225.2V1223.95V1222.71V1221.47V1220.22V1218.98V1217.74V1216.5V1215.26V1214.03V1212.79V1211.56V1210.32V1209.09V1207.86V1206.63V1205.4V1204.17V1202.95V1201.72V1200.5V1199.28V1198.06V1196.84V1195.62V1194.4V1193.19V1191.97V1190.76V1189.55V1188.34V1187.13V1185.92V1184.71V1183.51V1182.3V1181.1V1179.9V1178.7V1177.5V1176.3V1175.1V1173.91V1172.71V1171.52V1170.33V1169.14V1167.95V1166.77V1165.58V1164.4V1163.21V1162.03V1160.85V1159.67V1158.49V1157.32V1156.14V1154.97V1153.8V1152.63V1151.46V1150.29V1149.12V1147.96V1146.8V1145.63V1144.47V1143.31V1142.15V1141V1139.84V1138.69V1137.54V1136.39V1135.24V1134.09V1132.94V1131.8V1130.65V1129.51V1128.37V1127.23V1126.1V1124.96V1123.82V1122.69V1121.56V1120.43V1119.3V1118.17V1117.05V1115.92V1114.8V1113.68V1112.56V1111.44V1110.33V1109.21V1108.1V1106.99V1105.88V1104.77V1103.66V1102.55V1101.45V1100.35V1099.25V1098.15V1097.05V1095.95V1094.86V1093.76V1092.67V1091.58V1090.49V1089.41V1088.32V1087.24V1086.16V1085.08V1084V1082.92V1081.84V1080.77V1079.7V1078.63V1077.56V1076.49V1075.43V1074.36V1073.3V1072.24V1071.18V1070.12V1069.07V1068.01V1066.96V1065.91V1064.86V1063.81V1062.77V1061.72V1060.68V1059.64V1058.6V1057.57V1056.53V1055.5V1054.46V1053.43V1052.41V1051.38V1050.35V1049.33V1048.31V1047.29V1046.27V1045.26V1044.24V1043.23V1042.22V1041.21V1040.2V1039.19V1038.19V1037.19V1036.19V1035.19V1034.19V1033.2V1032.21V1031.21V1030.22V1029.24V1028.25V1027.27V1026.28V1025.3V1024.33V1023.35V1022.37V1021.4V1020.43V1019.46V1018.49V1017.53V1016.56V1015.6V1014.64V1013.68V1012.73V1011.77V1010.82V1009.87V1008.92V1007.97V1007.03V1006.09V1005.15V1004.21V1003.27V1002.33V1001.4V1000.47V999.539V998.611V997.685V996.762V995.84V994.92V994.002V993.086V992.172V991.26V990.35V989.442V988.536V987.631V986.729V985.829V984.931V984.035V983.14V982.248V981.358V980.47V979.583V978.699V977.817V976.937V976.059V975.183V974.309C3117.35 888.704 3186.75 819.309 3272.35 819.309ZM2756.12 2822.77C2729.65 2810.13 2697.22 2823.31 2687.73 2851.06C2649.84 2961.88 2596.1 3056.66 2517.25 3129.59C2483.63 3160.7 2453.44 3187.98 2426.09 3212.69C2349.58 3281.83 2295.26 3330.92 2249.85 3387.65C2196.58 3454.2 2158.25 3529.93 2136.44 3662.47C2125.48 3729.13 2167.23 3850.86 2310.63 3967.79C2446.63 4078.7 2649.63 4161.33 2887.79 4154.87C3016.8 4151.36 3121.95 4202.35 3199.71 4283.2C3273.06 4359.49 3318.68 4458.25 3348.43 4553.08C3350.98 4561.21 3353.44 4569.4 3355.82 4577.64C3364.96 4609.38 3403.56 4623.17 3430.77 4604.45C3495.03 4560.24 3560.34 4524.07 3618.07 4492.95C3640.04 4481.11 3660.99 4469.97 3680.97 4459.35C3767.85 4413.15 3836.29 4376.77 3889.02 4335.26C3948 4288.83 3954.72 4261.17 3953.28 4237.08C3949.96 4181.74 3938.05 4155.6 3928.82 4141.23C3918.5 4125.17 3902.71 4109.8 3868.53 4085.48C3859.71 4079.19 3849.76 4072.48 3838.91 4065.15C3767.86 4017.18 3658.33 3943.23 3575.1 3796.14C3491.06 3647.62 3491.3 3508.45 3491.63 3404.25C3491.98 3297.11 3491.88 3228.12 3454.79 3150.94C3424.48 3087.85 3372.45 3042.8 3293.29 3004.77C3218.9 2969.04 3134.15 2945.41 3035.82 2918C3023.51 2914.57 3010.99 2911.08 2998.25 2907.5C2923.14 2886.39 2836.51 2861.18 2756.12 2822.77ZM3264 5869.31L3154.01 5870.78C3129.16 5871.11 3108.63 5891.95 3116.05 5915.67C3135.99 5979.38 3195.89 6025.23 3266.07 6024.29C3336.24 6023.36 3394.9 5975.93 3413.13 5911.71C3419.92 5887.8 3398.84 5867.51 3373.99 5867.84L3264 5869.31ZM4109.42 3880.96C4130.2 3899.45 4162.9 3898.46 4180.41 3876.85C4187.64 3867.93 4195 3858.9 4202.5 3849.77C4327.75 3697.36 4500.28 3505.9 4664.8 3393.01C4762.7 3325.83 4785.33 3269.95 4790.6 3228.8C4797.14 3177.76 4781.86 3112.15 4740.14 3019.39C4677.88 2880.97 4667.87 2737.89 4661.89 2628.82C4661.67 2624.8 4661.45 2620.84 4661.24 2616.95C4656.84 2536.55 4653.84 2481.9 4645.87 2441.14C4643.28 2427.89 4633.91 2417.1 4621.24 2412.43C4620.71 2412.23 4620.17 2412.03 4619.63 2411.84C4577.38 2396.45 4516.49 2381.02 4442.22 2366.39C4294.95 2337.37 4118.11 2315.83 3983.82 2300.85C3963.59 2298.6 3959.92 2301.84 3951.11 2310.83C3932.3 2330.02 3911.12 2366.44 3879.33 2437.01C3872.94 2451.21 3866.25 2466.6 3859.14 2482.94C3816.07 2581.95 3757.72 2716.09 3657.74 2833.96C3642.15 2852.34 3642.43 2879.61 3657.9 2898.09C3686.83 2932.64 3712.69 2971.89 3734.21 3016.68C3802.9 3159.62 3802.21 3292.44 3801.7 3390.31C3801.67 3395.38 3801.65 3400.36 3801.63 3405.24C3801.3 3507.23 3804.62 3572.3 3844.9 3643.47C3890.36 3723.81 3939.32 3757.53 4007.46 3804.46C4020.36 3813.34 4033.94 3822.7 4048.31 3832.93C4067.38 3846.51 4088.34 3862.2 4109.42 3880.96ZM4658.12 2429.32C4658.08 2429.33 4657.53 2428.98 4656.59 2428.24C4657.69 2428.94 4658.16 2429.31 4658.12 2429.32Z" fill="#1C506F"/>
<path id="Union_3" fill-rule="evenodd" clip-rule="evenodd" d="M3272.35 874C3327.58 874 3372.35 918.771 3372.35 974V974.874V975.75V976.628V977.508V978.39V979.274V980.161V981.049V981.939V982.831V983.725V984.622V985.52V986.42V987.322V988.226V989.133V990.041V990.951V991.863V992.777V993.693V994.611V995.531V996.453V997.376V998.302V999.23V1000.16V1001.09V1002.02V1002.96V1003.9V1004.84V1005.78V1006.72V1007.67V1008.61V1009.56V1010.51V1011.46V1012.42V1013.37V1014.33V1015.29V1016.25V1017.22V1018.18V1019.15V1020.12V1021.09V1022.07V1023.04V1024.02V1025V1025.98V1026.96V1027.94V1028.93V1029.92V1030.9V1031.9V1032.89V1033.88V1034.88V1035.88V1036.88V1037.88V1038.89V1039.89V1040.9V1041.91V1042.92V1043.93V1044.95V1045.96V1046.98V1048V1049.02V1050.05V1051.07V1052.1V1053.13V1054.16V1055.19V1056.22V1057.26V1058.29V1059.33V1060.37V1061.42V1062.46V1063.5V1064.55V1065.6V1066.65V1067.7V1068.76V1069.81V1070.87V1071.93V1072.99V1074.05V1075.12V1076.18V1077.25V1078.32V1079.39V1080.46V1081.54V1082.61V1083.69V1084.77V1085.85V1086.93V1088.01V1089.1V1090.18V1091.27V1092.36V1093.45V1094.55V1095.64V1096.74V1097.84V1098.94V1100.04V1101.14V1102.24V1103.35V1104.46V1105.57V1106.68V1107.79V1108.9V1110.02V1111.13V1112.25V1113.37V1114.49V1115.61V1116.74V1117.86V1118.99V1120.12V1121.25V1122.38V1123.52V1124.65V1125.79V1126.92V1128.06V1129.2V1130.35V1131.49V1132.63V1133.78V1134.93V1136.08V1137.23V1138.38V1139.53V1140.69V1141.85V1143V1144.16V1145.32V1146.49V1147.65V1148.81V1149.98V1151.15V1152.32V1153.49V1154.66V1155.83V1157.01V1158.19V1159.36V1160.54V1161.72V1162.9V1164.09V1165.27V1166.46V1167.64V1168.83V1170.02V1171.21V1172.41V1173.6V1174.79V1175.99V1177.19V1178.39V1179.59V1180.79V1181.99V1183.2V1184.4V1185.61V1186.82V1188.03V1189.24V1190.45V1191.66V1192.88V1194.09V1195.31V1196.53V1197.75V1198.97V1200.19V1201.42V1202.64V1203.87V1205.09V1206.32V1207.55V1208.78V1210.01V1211.25V1212.48V1213.72V1214.95V1216.19V1217.43V1218.67V1219.91V1221.16V1222.4V1223.65V1224.89V1226.14V1227.39V1228.64V1229.89V1231.14V1232.39V1233.65V1234.9V1236.16V1237.42V1238.68V1239.94V1241.2V1242.46V1243.73V1244.99V1246.26V1247.52V1248.79V1250.06V1251.33V1252.6V1253.87V1255.15V1256.42V1257.7V1258.97V1260.25V1261.53V1262.81V1264.09V1265.37V1266.66V1267.94V1269.23V1270.51V1271.8V1273.09V1274.38V1275.67V1276.96V1278.25V1279.55V1280.84V1282.14V1283.43V1284.73V1286.03V1287.33V1288.63V1289.93V1291.23V1292.54V1293.84V1295.15V1296.45V1297.76V1299.07V1300.38V1301.69V1303V1304.31V1305.62V1306.94V1308.25V1309.57V1310.88V1312.2V1313.52V1314.84V1316.16V1317.48V1318.8V1320.13V1321.45V1322.78V1324.1V1325.43V1326.76V1328.08V1329.41V1330.74V1332.07V1333.41V1334.74V1336.07V1337.41V1338.74V1340.08V1341.42V1342.75V1344.09V1345.43V1346.77V1348.11V1349.46V1350.8V1352.14V1353.49V1354.83V1356.18V1357.53V1358.87V1360.22V1361.57V1362.92V1364.27V1365.62V1366.98V1368.33V1369.68V1371.04V1372.39V1373.75V1375.11V1376.46V1377.82V1379.18V1380.54V1381.9V1383.26V1384.62V1385.99V1387.35V1388.71V1390.08V1391.45V1392.81V1394.18V1395.55V1396.91V1398.28V1399.65V1401.02V1402.39V1403.77V1405.14V1406.51V1407.89V1409.26V1410.64V1412.01V1413.39V1414.76V1416.14V1417.52V1418.9V1420.28V1421.66V1423.04V1424.42V1425.8V1427.19V1428.57V1429.95V1431.34V1432.72V1434.11V1435.49V1436.88V1438.27V1439.66V1441.04V1442.43V1443.82V1445.21V1446.6V1448V1449.39V1450.78V1452.17V1453.57V1454.96V1456.36V1457.75V1459.15V1460.54V1461.94V1463.34V1464.73V1466.13V1467.53V1468.93V1470.33V1471.73V1473.13V1474.53V1475.93V1477.33V1478.74V1480.14V1481.54V1482.95V1484.35V1485.76V1487.16V1488.57V1489.97V1491.38V1492.79V1494.2V1495.6V1497.01V1498.42V1499.83V1501.24V1502.65V1504.06V1505.47V1506.88V1508.29V1509.7V1511.12V1512.53V1513.94V1515.36V1516.77V1518.18V1519.6V1521.01V1522.43V1523.84V1525.26V1526.68V1528.09V1529.51V1530.93V1532.35V1533.76V1535.18V1536.6V1538.02V1539.44V1540.86V1542.28V1543.7V1545.12V1546.54V1547.96V1549.38V1550.8V1552.23V1553.65V1555.07V1556.49V1557.92V1559.34V1560.76V1562.19V1563.61V1565.04V1566.46V1567.88V1569.31V1570.74V1572.16V1573.59V1575.01V1576.44V1577.86V1579.29V1580.72V1582.14V1583.57V1585V1586.43V1587.85V1589.28V1590.71V1592.14V1593.57V1595V1596.42V1597.85V1599.28V1600.71V1602.14V1603.57V1605C3372.35 1713.41 3298.07 1794.43 3232.39 1851.19C3181.59 1895.08 3117.19 1939.54 3055.55 1982.11C3034.73 1996.48 3014.23 2010.64 2994.68 2024.48C2912.35 2082.75 2839.59 2139.95 2788.5 2202.75C2739.03 2263.56 2714.07 2324.34 2717.85 2393.01C2722.4 2475.67 2755.94 2523.17 2809.87 2560.45C2871.08 2602.77 2957.41 2630.83 3067.25 2661.7C3079.28 2665.08 3091.59 2668.5 3104.12 2671.97C3178.7 2692.66 3261.09 2715.51 3339.51 2746.63C3360.36 2754.9 3383.96 2745.41 3401.13 2730.97V2730.97C3511.48 2638.17 3566.88 2512.71 3624.35 2382.56C3631.77 2365.76 3639.22 2348.88 3646.83 2331.98C3677.6 2263.66 3714.56 2187.56 3769 2132.02C3829.89 2069.9 3910.05 2035.74 4012.08 2047.12C4146.72 2062.13 4332.86 2084.63 4491.5 2115.89C4570.42 2131.43 4646.31 2149.86 4706.91 2171.93C4737.08 2182.92 4766.91 2196.04 4792.47 2212.15C4815.98 2226.98 4847.7 2251.61 4864.93 2290.49C4904.69 2380.24 4910.23 2490.48 4914.94 2584.39C4915.46 2594.65 4915.96 2604.71 4916.5 2614.53C4922.5 2723.69 4931.84 2823.64 4972.7 2914.48C5019.34 3018.18 5059.32 3137.63 5043.53 3260.89C5026.93 3390.53 4951.7 3505.09 4809.08 3602.95C4676.67 3693.81 4523.53 3860.45 4399.51 4011.36C4338.53 4085.57 4286.35 4153.78 4249.43 4203.42C4238.92 4217.56 4229.66 4230.17 4221.8 4240.97C4212.76 4253.38 4207.86 4268.21 4205.96 4283.44C4192.28 4393.49 4124.16 4474.38 4046.74 4535.32C3974.25 4592.39 3880.25 4642.17 3792.49 4688.65C3774.33 4698.26 3756.45 4707.73 3739.08 4717.1C3546.47 4820.93 3399.02 4920.82 3365.29 5089.95C3364.34 5094.75 3363.94 5099.67 3363.97 5104.57C3363.99 5109.44 3364 5114.25 3364 5119C3364 5126.41 3363.19 5133.62 3361.67 5140.57C3359.89 5148.66 3358.03 5156.79 3358 5165.06C3358 5165.54 3358 5166.02 3358 5166.5C3358 5292.18 3359.5 5467.36 3360.99 5611.4C3361.74 5683.35 3362.49 5747.43 3363.06 5793.52C3363.34 5816.57 3363.57 5835.11 3363.73 5847.89C3363.82 5854.28 3363.88 5859.23 3363.92 5862.58L3363.97 5866.38L3363.99 5867.35L3363.99 5867.59L3363.99 5867.65L3363.99 5867.66C3363.99 5867.67 3363.99 5867.67 3264 5869C3164.01 5870.33 3164.01 5870.33 3164.01 5870.33L3164.01 5870.31L3164.01 5870.25L3164 5870L3163.99 5869.02L3163.94 5865.19C3163.9 5861.83 3163.83 5856.86 3163.75 5850.45C3163.59 5837.64 3163.35 5819.05 3163.07 5795.96C3162.51 5749.78 3161.76 5685.58 3161.01 5613.48C3159.51 5469.39 3158 5293.31 3158 5166.5C3158 5139.16 3159.7 5112.96 3162.94 5087.82C3163.46 5083.8 3163.73 5079.77 3163.66 5075.71C3161.48 4936.03 3148.03 4765.86 3105.13 4629.11C3081.42 4553.55 3051.15 4496.3 3015.9 4459.65C2983.5 4425.95 2945.88 4408.07 2894.71 4409.46C2593.89 4417.63 2331.58 4313.61 2149.47 4165.11C1972.14 4020.5 1852.66 3816.28 1884.83 3620.76C1913.12 3448.81 1967.87 3331.55 2050.77 3227.99C2110.16 3153.8 2185.5 3085.8 2267.47 3011.82C2292.49 2989.25 2318.11 2966.12 2344.1 2942.09C2433.32 2859.55 2484.79 2700.11 2515 2398.05C2515.14 2396.59 2515.32 2395.15 2515.52 2393.71C2516.49 2386.99 2517.42 2380.23 2517.51 2373.44C2519.06 2255.31 2567.79 2157.12 2633.37 2076.52C2702.9 1991.06 2795.11 1920.71 2879.13 1861.23C2903.98 1843.64 2927.78 1827.2 2950.44 1811.55C3008.84 1771.22 3059.7 1736.08 3101.62 1699.86C3162.07 1647.62 3172.35 1618.59 3172.35 1605V1603.57V1602.14V1600.71V1599.28V1597.85V1596.42V1595V1593.57V1592.14V1590.71V1589.28V1587.85V1586.43V1585V1583.57V1582.14V1580.72V1579.29V1577.86V1576.44V1575.01V1573.59V1572.16V1570.74V1569.31V1567.88V1566.46V1565.04V1563.61V1562.19V1560.76V1559.34V1557.92V1556.49V1555.07V1553.65V1552.23V1550.8V1549.38V1547.96V1546.54V1545.12V1543.7V1542.28V1540.86V1539.44V1538.02V1536.6V1535.18V1533.76V1532.35V1530.93V1529.51V1528.09V1526.68V1525.26V1523.84V1522.43V1521.01V1519.6V1518.18V1516.77V1515.36V1513.94V1512.53V1511.12V1509.7V1508.29V1506.88V1505.47V1504.06V1502.65V1501.24V1499.83V1498.42V1497.01V1495.6V1494.2V1492.79V1491.38V1489.97V1488.57V1487.16V1485.76V1484.35V1482.95V1481.54V1480.14V1478.74V1477.33V1475.93V1474.53V1473.13V1471.73V1470.33V1468.93V1467.53V1466.13V1464.73V1463.34V1461.94V1460.54V1459.15V1457.75V1456.36V1454.96V1453.57V1452.17V1450.78V1449.39V1448V1446.6V1445.21V1443.82V1442.43V1441.04V1439.66V1438.27V1436.88V1435.49V1434.11V1432.72V1431.34V1429.95V1428.57V1427.19V1425.8V1424.42V1423.04V1421.66V1420.28V1418.9V1417.52V1416.14V1414.76V1413.39V1412.01V1410.64V1409.26V1407.89V1406.51V1405.14V1403.77V1402.39V1401.02V1399.65V1398.28V1396.91V1395.55V1394.18V1392.81V1391.45V1390.08V1388.71V1387.35V1385.99V1384.62V1383.26V1381.9V1380.54V1379.18V1377.82V1376.46V1375.11V1373.75V1372.39V1371.04V1369.68V1368.33V1366.98V1365.62V1364.27V1362.92V1361.57V1360.22V1358.87V1357.53V1356.18V1354.83V1353.49V1352.14V1350.8V1349.46V1348.11V1346.77V1345.43V1344.09V1342.75V1341.42V1340.08V1338.74V1337.41V1336.07V1334.74V1333.41V1332.07V1330.74V1329.41V1328.08V1326.76V1325.43V1324.1V1322.78V1321.45V1320.13V1318.8V1317.48V1316.16V1314.84V1313.52V1312.2V1310.88V1309.57V1308.25V1306.94V1305.62V1304.31V1303V1301.69V1300.38V1299.07V1297.76V1296.45V1295.15V1293.84V1292.54V1291.23V1289.93V1288.63V1287.33V1286.03V1284.73V1283.43V1282.14V1280.84V1279.55V1278.25V1276.96V1275.67V1274.38V1273.09V1271.8V1270.51V1269.23V1267.94V1266.66V1265.37V1264.09V1262.81V1261.53V1260.25V1258.97V1257.7V1256.42V1255.15V1253.87V1252.6V1251.33V1250.06V1248.79V1247.52V1246.26V1244.99V1243.73V1242.46V1241.2V1239.94V1238.68V1237.42V1236.16V1234.9V1233.65V1232.39V1231.14V1229.89V1228.64V1227.39V1226.14V1224.89V1223.65V1222.4V1221.16V1219.91V1218.67V1217.43V1216.19V1214.95V1213.72V1212.48V1211.25V1210.01V1208.78V1207.55V1206.32V1205.09V1203.87V1202.64V1201.42V1200.19V1198.97V1197.75V1196.53V1195.31V1194.09V1192.88V1191.66V1190.45V1189.24V1188.03V1186.82V1185.61V1184.4V1183.2V1181.99V1180.79V1179.59V1178.39V1177.19V1175.99V1174.79V1173.6V1172.41V1171.21V1170.02V1168.83V1167.64V1166.46V1165.27V1164.09V1162.9V1161.72V1160.54V1159.36V1158.19V1157.01V1155.83V1154.66V1153.49V1152.32V1151.15V1149.98V1148.81V1147.65V1146.49V1145.32V1144.16V1143V1141.85V1140.69V1139.53V1138.38V1137.23V1136.08V1134.93V1133.78V1132.63V1131.49V1130.35V1129.2V1128.06V1126.92V1125.79V1124.65V1123.52V1122.38V1121.25V1120.12V1118.99V1117.86V1116.74V1115.61V1114.49V1113.37V1112.25V1111.13V1110.02V1108.9V1107.79V1106.68V1105.57V1104.46V1103.35V1102.24V1101.14V1100.04V1098.94V1097.84V1096.74V1095.64V1094.55V1093.45V1092.36V1091.27V1090.18V1089.1V1088.01V1086.93V1085.85V1084.77V1083.69V1082.61V1081.54V1080.46V1079.39V1078.32V1077.25V1076.18V1075.12V1074.05V1072.99V1071.93V1070.87V1069.81V1068.76V1067.7V1066.65V1065.6V1064.55V1063.5V1062.46V1061.42V1060.37V1059.33V1058.29V1057.26V1056.22V1055.19V1054.16V1053.13V1052.1V1051.07V1050.05V1049.02V1048V1046.98V1045.96V1044.95V1043.93V1042.92V1041.91V1040.9V1039.89V1038.89V1037.88V1036.88V1035.88V1034.88V1033.88V1032.89V1031.9V1030.9V1029.92V1028.93V1027.94V1026.96V1025.98V1025V1024.02V1023.04V1022.07V1021.09V1020.12V1019.15V1018.18V1017.22V1016.25V1015.29V1014.33V1013.37V1012.42V1011.46V1010.51V1009.56V1008.61V1007.67V1006.72V1005.78V1004.84V1003.9V1002.96V1002.02V1001.09V1000.16V999.23V998.302V997.376V996.453V995.531V994.611V993.693V992.777V991.863V990.951V990.041V989.133V988.226V987.322V986.42V985.52V984.622V983.725V982.831V981.939V981.049V980.161V979.274V978.39V977.508V976.628V975.75V974.874V974C3172.35 918.771 3217.12 874 3272.35 874ZM2696.14 2724.97C2684.13 2716.67 2667.06 2722.75 2663.58 2736.93C2627.28 2884.58 2571.56 3004.13 2479.9 3088.91C2448.1 3118.33 2418.94 3144.68 2392.06 3168.96C2314.06 3239.43 2255.3 3292.52 2206.91 3352.97C2147.25 3427.5 2105.38 3512.19 2082.17 3653.23C2066.63 3747.68 2125.15 3887.21 2275.87 4010.11C2421.81 4129.12 2637.61 4216.37 2889.29 4209.54C3001.51 4206.49 3092.09 4250.33 3160.06 4321.02C3225.2 4388.75 3267.51 4478.56 3295.96 4569.24C3299.11 4579.29 3302.12 4589.45 3305 4599.7C3322.52 4662.12 3403.69 4689.99 3456.92 4652.99C3519.37 4609.58 3584.37 4573.29 3644.17 4541.05C3665.07 4529.78 3685.33 4519.02 3704.92 4508.62C3792.19 4462.25 3866.09 4423 3923.04 4378.17C3988.98 4326.26 4011.15 4283.09 4008.18 4233.48C4004.43 4170.81 3990.43 4135.07 3975.09 4111.19C3959.05 4086.22 3936.4 4065.97 3900.43 4040.36C3890.74 4033.47 3880.18 4026.31 3868.92 4018.68C3797.86 3970.52 3699.38 3903.78 3622.97 3768.75C3546.69 3633.95 3546.3 3507.92 3546.63 3404.11L3546.64 3400.86C3546.98 3296.74 3547.24 3216.04 3504.37 3126.81C3466.91 3048.86 3403.3 2996.3 3317.1 2954.88C3238.04 2916.9 3148.3 2891.91 3050.76 2864.75C3038.34 2861.29 3025.79 2857.8 3013.13 2854.24C2907.26 2824.48 2788.89 2789.09 2696.14 2724.97V2724.97ZM3264 5869L3244 5869.27C3199.82 5869.86 3163.19 5911.29 3195.29 5941.66C3213.53 5958.91 3238.25 5969.35 3265.33 5968.99C3292.42 5968.63 3316.85 5957.53 3334.62 5939.8C3365.9 5908.59 3328.18 5868.14 3284 5868.73L3264 5869ZM4143.36 4003.09C4144.91 4005.5 4148.38 4005.68 4150.14 4003.41C4178.25 3967.07 4210.22 3926.69 4244.99 3884.38C4369.97 3732.3 4538.33 3546.19 4695.92 3438.05C4803.46 3364.25 4837.44 3295.72 4845.15 3235.48C4853.68 3168.86 4833.08 3091.64 4790.3 2996.52C4732.66 2868.36 4722.79 2734.58 4716.8 2625.5C4716.4 2618.22 4716.02 2611.1 4715.64 2604.13C4710.24 2504.32 4706.48 2434.83 4686.42 2382.1C4686.3 2381.78 4686.08 2381.51 4685.79 2381.33V2381.33C4676.94 2375.75 4661.69 2368.31 4638.45 2359.85C4592.25 2343.02 4528.12 2326.94 4452.85 2312.11C4303.13 2282.62 4124.28 2260.87 3989.92 2245.88C3952.04 2241.66 3931.88 2251.57 3911.83 2272.02C3885.33 2299.05 3860.75 2344.03 3829.19 2414.11C3822.49 2428.98 3815.59 2444.79 3808.37 2461.34C3764.42 2562.04 3708.5 2690.18 3613.21 2801.21C3581.65 2837.98 3583.05 2894.39 3614.31 2931.41C3641.11 2963.16 3664.92 2999.15 3684.63 3040.19C3747.71 3171.45 3747.14 3292.98 3746.69 3391.2C3746.66 3395.77 3746.64 3400.29 3746.63 3404.76C3746.3 3507.14 3748.99 3585.35 3797.03 3670.25C3849.08 3762.22 3908.48 3803 3977.73 3850.53C3990.29 3859.16 4003.18 3868.01 4016.41 3877.43C4058.92 3907.68 4106.5 3945.72 4143.36 4003.09V4003.09ZM4691.15 2385.17C4691.13 2385.17 4690.92 2384.99 4690.55 2384.63C4690.98 2384.98 4691.16 2385.16 4691.15 2385.17Z" fill="#1B4A67"/>
</g>
</g>
<defs>
<clipPath id="clip0_2237_3693">
<rect width="6961" height="6632" fill="white"/>
</clipPath>
</defs>
</svg>
