<svg width="5810" height="5925" viewBox="0 0 5810 5925" fill="none" xmlns="http://www.w3.org/2000/svg">
<g id="floor" clip-path="url(#clip0_2237_3693)">
<rect width="5810" height="5925" fill="#EEDAD5"/>
<g id="floorTexture">
<g id="floorTexture_2">
<path id="Vector 753" d="M-59.4193 -770.134L122.88 -1027.38C157.51 -1076.25 202.672 -1116.72 255.032 -1145.8L469.143 -1264.71C528.999 -1297.95 596.385 -1315.28 664.852 -1315.02L1195.69 -1313.03C1447.99 -1312.08 1636.41 -1080.64 1586.18 -833.391L1546.69 -639.026C1522.47 -519.81 1445.31 -418.095 1337.03 -362.642L723.295 -48.3242C610.94 9.21677 478.016 10.3458 364.7 -45.2786L90.6822 -179.788C-130.48 -288.352 -201.868 -569.118 -59.4193 -770.134Z" fill="#E6C5BA"/>
<path id="Vector 761" d="M656.008 2637.39L862.892 2764.73C913.53 2795.9 956.582 2837.97 988.914 2887.87L1103.04 3064.01C1140.14 3121.27 1161.98 3187.08 1166.47 3255.17L1194.93 3686.53C1211.62 3939.45 991.856 4143.92 740.791 4109.06L619.032 4092.16C499.323 4075.54 393.548 4005.68 331.259 3902.11L20.9511 3386.15C-44.1106 3277.97 -54.2866 3145.43 -6.50098 3028.58L76.0978 2826.62C169.565 2598.07 445.733 2507.96 656.008 2637.39Z" fill="#E6C5BA"/>
<path id="Vector 754" d="M537.685 891.473L630.592 723.339C721.328 559.137 913.99 480.056 1093.92 533.16L1548.98 667.464C1652.52 698.021 1739.3 769.126 1789.63 864.626L1951.67 1172.11C2045.77 1350.69 1992.08 1571.39 1826.46 1686.78L1601.94 1843.22C1516.33 1902.87 1410.81 1926.71 1307.87 1909.65L978.326 1855.04C842.161 1832.47 727.25 1741.3 674.314 1613.83L518.378 1238.35C471.645 1125.82 478.752 998.122 537.685 891.473Z" fill="#E6C5BA"/>
<path id="Vector 762" d="M3487.82 2718.99L3100.24 2873.96C3020.62 2905.8 2932.87 2911.21 2849.94 2889.39L2337.89 2754.65C2218.77 2723.31 2120.73 2638.83 2072.13 2525.65L2017.48 2398.4C1897.46 2118.89 2120.98 1813.01 2423.74 1842.45L2561.91 1855.89C2728.31 1872.07 2886.35 1779.81 2954.09 1626.97C3057.18 1394.31 3352.61 1322.28 3551.22 1481.38L3670.99 1577.33C3785.26 1668.87 3840.39 1815.52 3814.71 1959.67L3733.11 2417.73C3708.87 2553.78 3616.13 2667.68 3487.82 2718.99Z" fill="#E6C5BA"/>
<path id="Vector 774" d="M1098.86 5662.9L726.552 5711.48C563 5732.82 403.119 5651.58 323.924 5506.9L137.649 5166.59C78.5066 5058.54 72.4425 4929.27 121.21 4816.16L238.286 4544.62C342.146 4303.73 645.868 4226.34 852.34 4388.16L1245.58 4696.35C1288.96 4730.35 1338.91 4755.02 1392.27 4768.8L1800.28 4874.21C2034.35 4934.68 2144.28 5203.4 2019.7 5410.58C1962.31 5506.04 1864.12 5569.71 1753.55 5583.17L1098.86 5662.9Z" fill="#E6C5BA"/>
<path id="Vector 773" d="M5074.27 5984.87L4598.32 6431.78C4536.81 6489.54 4458.62 6526.36 4374.92 6537L3852.22 6603.4C3699.08 6622.85 3548.42 6552.45 3465.09 6422.51L3303.93 6171.18C3161.52 5949.1 3269.33 5652.4 3521.08 5573.54L3951.7 5438.66C4090.1 5395.31 4194.2 5280.44 4223.75 5138.46L4280.95 4863.61C4332.03 4618.24 4593.58 4479.74 4825.24 4575.4L4957.44 4630C5107.96 4692.15 5205.77 4839.35 5204.76 5002.2L5200.46 5695.75C5199.78 5805.34 5154.16 5909.85 5074.27 5984.87Z" fill="#E6C5BA"/>
<path id="Vector 756" d="M-645.569 1676.61L-414.876 1314.21C-359.616 1227.4 -266.272 1172.14 -163.582 1165.45C25.063 1153.15 183.844 1304.89 180.12 1493.89L170.739 1970.01C167.103 2154.6 37.601 2312.72 -142.653 2352.66L-188.379 2362.79C-378.293 2404.87 -570.945 2304.23 -644.885 2124.31L-678.112 2043.45C-727.55 1923.15 -715.412 1786.33 -645.569 1676.61Z" fill="#E6C5BA"/>
<path id="Vector 758" d="M2315.8 76.5608L2255.52 -231.946C2230.71 -358.928 2268.85 -490.07 2357.89 -583.939L2581.81 -819.994C2654.21 -896.31 2753.75 -941.037 2858.88 -944.492L3168.92 -954.681C3420.83 -962.96 3617.53 -738.998 3576.8 -490.257L3553.71 -349.248C3544.56 -293.376 3523.65 -240.082 3492.37 -192.892L3214.9 225.714C3138.6 340.829 3008.31 408.44 2870.26 404.56L2697.14 399.696C2510.09 394.44 2351.68 260.21 2315.8 76.5608Z" fill="#E6C5BA"/>
<path id="Vector 759" d="M3876.55 807.95L3949.26 723.996C4105.75 543.303 4384.74 539.297 4546.36 715.423L4558.18 728.309C4750.94 938.38 4668.31 1276.92 4400.44 1374.56L4293.74 1413.45C4158.62 1462.71 4007.26 1431.42 3902.75 1332.62C3754.98 1192.94 3743.44 961.657 3876.55 807.95Z" fill="#E6C5BA"/>
<path id="Vector 766" d="M4941.41 -1420.69L5506.27 -825.026C5652.14 -671.201 5652.67 -430.289 5507.48 -275.826L5008.37 255.152C4909.51 360.325 4761.65 404.077 4621.48 369.639L4252.16 278.902C4030.9 224.541 3899.66 -3.38667 3963.74 -222.034L4267.31 -1257.94C4354.06 -1553.99 4729.13 -1644.55 4941.41 -1420.69Z" fill="#E6C5BA"/>
<path id="Vector 767" d="M3952.7 4493.22L3428.44 5124.92C3293.06 5288.04 3053.92 5317.22 2883.28 5191.43L2296.71 4759.02C2180.53 4673.37 2119.5 4531.76 2137.02 4388.49L2183.19 4011C2210.85 3784.84 2421.55 3627.43 2646.27 3665.05L3710.93 3843.25C4015.2 3894.18 4149.72 4255.82 3952.7 4493.22Z" fill="#E6C5BA"/>
<path id="Vector 768" d="M5847.53 1877.24L5461.25 1839.61C5277.75 1821.74 5130.23 1680.75 5104.08 1498.25L5038.21 1038.68C5014.59 873.894 5095.5 711.711 5241.34 631.467L5336.31 579.216C5519.89 478.214 5750.3 535.991 5864.5 711.663L6221.68 1261.12C6404.36 1542.14 6181.13 1909.74 5847.53 1877.24Z" fill="#E6C5BA"/>
<path id="Vector 769" d="M4956.88 4369.18L4520.83 3517.38C4436.81 3353.27 4475.86 3152.99 4615.36 3032.44L5050.46 2656.49C5176.42 2547.66 5356.62 2528.21 5502.9 2607.66L5838.85 2790.13C5938 2843.98 6009.8 2937.21 6036.54 3046.83L6217.86 3790.1C6259.77 3961.92 6183.87 4140.88 6031.21 4230.17L5514.89 4532.18C5316.59 4648.17 5061.56 4573.67 4956.88 4369.18Z" fill="#E6C5BA"/>
<path id="Vector 770" d="M3463.85 3097.81L3525.92 3000.29C3601.12 2882.11 3747.36 2830.64 3880.01 2875.67L3893.22 2880.16C4005.03 2918.12 4081.65 3021.36 4085.59 3139.37C4088.26 3219.36 4057.02 3296.76 3999.57 3352.49L3897.71 3451.3C3808.29 3538.03 3672.53 3555.75 3563.85 3494.87C3422.68 3415.79 3376.98 3234.32 3463.85 3097.81Z" fill="#E6C5BA"/>
<path id="Vector 780" d="M1882.68 2706.47L2093.36 2836C2213.62 2909.93 2286 3041.79 2283.81 3182.94L2281.7 3319.38C2279.33 3471.88 2160.15 3596.94 2007.94 3606.63C1928.78 3611.67 1850.97 3584.33 1792.36 3530.88L1477.92 3244.13C1390.55 3164.45 1351.17 3044.92 1374.08 2928.91C1419.72 2697.75 1681.96 2583.06 1882.68 2706.47Z" fill="#E6C5BA"/>
<path id="Vector 771" d="M4218.47 1822.23L4344 1696.19C4526.4 1513.04 4832.01 1548.38 4967.79 1768.33L4978.48 1785.64C5037.81 1881.74 5053.74 1998.44 5022.36 2106.93L4952.58 2348.09C4923.11 2449.96 4854.39 2535.96 4761.53 2587.17L4752.46 2592.18C4544 2707.16 4281.86 2615.72 4190.14 2396.02L4132.77 2258.59C4070.4 2109.2 4104.23 1936.94 4218.47 1822.23Z" fill="#E6C5BA"/>
<path id="Vector 764" d="M3105.67 1109.37L2979.62 1144.11C2806.18 1191.91 2633.16 1066.54 2624.55 886.844C2620.72 806.711 2651.34 728.763 2708.69 672.669L2734.01 647.909C2836.05 548.119 2990.68 525.247 3117.23 591.227L3158.44 612.711C3264.72 668.121 3321.37 787.293 3297.24 904.697C3276.93 1003.5 3202.92 1082.58 3105.67 1109.37Z" fill="#E6C5BA"/>
<path id="Vector 776" d="M-579.809 6460.07L-753.247 6424.23C-991.886 6374.92 -1123.24 6117.06 -1022.81 5895.04C-978.03 5796.03 -893.037 5720.91 -789.28 5688.63L-711.012 5664.27C-545.795 5612.87 -366.257 5673.52 -266.064 5814.59L-209.924 5893.63C-115.917 6025.99 -121.081 6204.64 -222.578 6331.35C-307.998 6437.99 -446.004 6487.71 -579.809 6460.07Z" fill="#E6C5BA"/>
<path id="Vector 777" d="M2393.32 6460.77L2219.88 6424.93C1981.24 6375.62 1849.88 6117.76 1950.31 5895.74C1995.09 5796.73 2080.09 5721.61 2183.84 5689.33L2262.11 5664.97C2427.33 5613.57 2606.87 5674.22 2707.06 5815.29L2763.2 5894.33C2857.21 6026.69 2852.04 6205.34 2750.55 6332.05C2665.13 6438.69 2527.12 6488.41 2393.32 6460.77Z" fill="#E6C5BA"/>
<path id="Vector 778" d="M5681.21 5822.71L5678.3 5709.82C5674.31 5554.49 5815.37 5435.52 5967.8 5465.67C6035.77 5479.12 6094.74 5521 6129.84 5580.74L6145.33 5607.12C6207.76 5713.4 6194.78 5847.78 6113.16 5940.15L6086.58 5970.22C6018.03 6047.79 5906.35 6070.5 5812.95 6025.86C5734.35 5988.28 5683.45 5909.8 5681.21 5822.71Z" fill="#E6C5BA"/>
</g>
</g>
<g id="road">
<path id="Union" fill-rule="evenodd" clip-rule="evenodd" d="M2772.35 -205C2885.57 -205 2977.35 -113.218 2977.35 0V0.877471V1.76377V2.65886V3.56273V4.47532V5.39663V6.32661V7.26523V8.21247V9.1683V10.1327V11.1056V12.087V13.0768V14.0751V15.0818V16.0969V17.1203V18.152V19.192V20.2403V21.2967V22.3614V23.4342V24.5152V25.6042V26.7013V27.8065V28.9197V30.0408V31.1699V32.3069V33.4518V34.6045V35.7651V36.9335V38.1096V39.2935V40.485V41.6843V42.8912V44.1057V45.3278V46.5574V47.7946V49.0392V50.2913V51.5509V52.8178V54.0921V55.3738V56.6628V57.959V59.2625V60.5732V61.8911V63.2162V64.5484V65.8876V67.234V68.5874V69.9478V71.3151V72.6895V74.0707V75.4588V76.8538V78.2556V79.6641V81.0795V82.5016V83.9304V85.3658V86.8079V88.2566V89.7119V91.1738V92.6421V94.117V95.5983V97.086V98.5802V100.081V101.588V103.101V104.62V106.146V107.678V109.216V110.76V112.31V113.867V115.429V116.998V118.573V120.153V121.74V123.332V124.93V126.534V128.144V129.76V131.382V133.009V134.642V136.28V137.925V139.575V141.23V142.891V144.557V146.229V147.907V149.59V151.278V152.972V154.671V156.375V158.085V159.799V161.519V163.245V164.975V166.711V168.451V170.197V171.947V173.703V175.464V177.229V179V180.775V182.556V184.341V186.13V187.925V189.724V191.528V193.337V195.151V196.969V198.791V200.618V202.45V204.286V206.126V207.971V209.821V211.674V213.533V215.395V217.262V219.132V221.008V222.887V224.77V226.658V228.549V230.445V232.345V234.249V236.156V238.068V239.984V241.903V243.826V245.754V247.684V249.619V251.558V253.5V255.445V257.395V259.348V261.304V263.264V265.228V267.195V269.166V271.14V273.117V275.098V277.082V279.07V281.06V283.054V285.051V287.052V289.055V291.062V293.071V295.084V297.1V299.118V301.14V303.165V305.192V307.223V309.256V311.292V313.331V315.373V317.417V319.464V321.514V323.567V325.622V327.679V329.739V331.802V333.867V335.935V338.004V340.077V342.152V344.229V346.308V348.39V350.474V352.56V354.648V356.738V358.831V360.926V363.022V365.121V367.222V369.324V371.429V373.535V375.644V377.754V379.866V381.98V384.096V386.213V388.332V390.453V392.575V394.699V396.824V398.951V401.08V403.21V405.342V407.474V409.609V411.744V413.881V416.02V418.159V420.3V422.442V424.585V426.73V428.875V431.022V433.169V435.318V437.467V439.618V441.769V443.922V446.075V448.229V450.384V452.54V454.697V456.854V459.012V461.17V463.329V465.489V467.65V469.81V471.972V474.134V476.296V478.459V480.622V482.786V484.949V487.114V489.278V491.443V493.608V495.773V497.938V500.103V502.268V504.434V506.599V508.765V510.93V513.096V515.261V517.426V519.591V521.756V523.92V526.085V528.249V530.412V532.576V534.739V536.901V539.064V541.225V543.387V545.547V547.707V549.867V552.026V554.184V556.342V558.499V560.655V562.811V564.965V567.119V569.272V571.424V573.575V575.726V577.875V580.023V582.17V584.316V586.461V588.605V590.748V592.89V595.03V597.169V599.307V601.443V603.579V605.712V607.845V609.976V612.105V614.233V616.36V618.485V620.608V622.73V624.85V626.968V629.085V631.2V633.313V635.425V637.534V639.642V641.748V643.852V645.954V648.054V650.152V652.247V654.341V656.433V658.523V660.61V662.696V664.779V666.859V668.938V671.014V673.088V675.16V677.229V679.295V681.36V683.421V685.48V687.537V689.591V691.643V693.691V695.737V697.781V699.821V701.859V703.894V705.927V707.956V709.983V712.006V714.027V716.045V718.059V720.071V722.079V724.085V726.087V728.086V730.082V732.075V734.064V736.051V738.034V740.013V741.989V743.962V745.931V747.897V749.86V751.818V753.774V755.725V757.673V759.618V761.559V763.496V765.429V767.358V769.284V771.206V773.124V775.038V776.949V778.855V780.757V782.655V784.55V786.44V788.326V790.208V792.086V793.959V795.828V797.694V799.554V801.411V803.263V805.111V806.954V808.793V810.628V812.457V814.283V816.104V817.92V819.732V821.539V823.341V825.139V826.932V828.72V830.503V832.281V834.055V835.824V837.588V839.346V841.1V842.849V844.593V846.332V848.065V849.794V851.517V853.235V854.948V856.656V858.358V860.055V861.747V863.433V865.114V866.79V868.46V870.124V871.783V873.436V875.084V876.727V878.363V879.994V881.619V883.238V884.852V886.46V888.062V889.658V891.248V892.833V894.411V895.983V897.55V899.11V900.664V902.212V903.754V905.29V906.82V908.343V909.86V911.371V912.876V914.374V915.866V917.351V918.83V920.303V921.769V923.228V924.681V926.127V927.567V929C2977.35 1087.19 2869.47 1195.5 2801.04 1254.64C2745.47 1302.65 2673.67 1352.21 2611.02 1395.45C2591.29 1409.07 2572.46 1422.06 2555.34 1434.18C2473.9 1491.83 2411.36 1542.12 2369.95 1593.01C2331.85 1639.84 2320.74 1675.76 2322.69 1711.24C2325.3 1758.6 2339.85 1777.53 2369.57 1798.08C2414.23 1828.95 2483.74 1853.16 2595.66 1884.62C2607.22 1887.87 2619.27 1891.2 2631.74 1894.65C2683.44 1908.96 2742.19 1925.22 2802.08 1945.33C2830.59 1954.91 2862.69 1949.14 2882.38 1926.41C2942.59 1856.89 2981.15 1770.08 3028.42 1663.65C3035.73 1647.19 3043.25 1630.27 3051.09 1612.86C3081.44 1545.47 3124.9 1453.03 3194.01 1382.53C3276.35 1298.52 3388.01 1251.63 3523.72 1266.76C3545.05 1269.14 3568.48 1271.47 3593.52 1273.96C3708.21 1285.36 3856.4 1300.1 3988.46 1338.05C4156.16 1386.24 4343.62 1483.52 4439.58 1697.68C4487.3 1804.18 4499.78 1896.9 4509.15 1966.62C4509.93 1972.41 4510.69 1978.05 4511.45 1983.53C4520.89 2051.95 4530.95 2112.01 4568.46 2195.41C4617.13 2303.62 4667.28 2445.23 4647.68 2598.22C4626.41 2764.31 4529.52 2903.03 4368.49 3013.53C4249.31 3095.31 4104.14 3251.74 3980.63 3402.03C3920.98 3474.62 3869.86 3541.44 3833.69 3590.08C3829.66 3595.49 3825.83 3600.67 3822.19 3605.61C3814.17 3616.48 3809.27 3629.29 3806.9 3642.59C3782.79 3778.22 3696.18 3875.32 3611.69 3941.83C3530.92 4005.41 3426.18 4060.78 3338.66 4107.05C3321.29 4116.24 3304.6 4125.06 3288.9 4133.52C3100.23 4235.23 2998.73 4312.78 2970.95 4423.05C2969.54 4428.62 2968.99 4434.38 2969 4440.12C2969 4441.08 2969 4442.04 2969 4443C2969 4456.65 2967.67 4470 2965.12 4482.9C2963.86 4489.26 2963 4495.69 2963.01 4502.17C2963.09 4626.3 2964.54 4794.71 2965.99 4934.3C2966.74 5006.19 2967.49 5070.2 2968.05 5116.24C2968.33 5139.26 2968.56 5157.78 2968.73 5170.54C2968.81 5176.92 2968.87 5181.86 2968.92 5185.2L2968.96 5188.99L2968.98 5189.95L2968.98 5190.19L2968.98 5190.25L2968.98 5190.26C2968.98 5190.27 2968.98 5190.27 2764 5193C2559.02 5195.73 2559.02 5195.73 2559.02 5195.73L2559.02 5195.71L2559.02 5195.64L2559.01 5195.39L2559 5194.41L2558.95 5190.57C2558.91 5187.19 2558.84 5182.22 2558.76 5175.8C2558.59 5162.96 2558.36 5144.35 2558.08 5121.24C2557.51 5075.02 2556.76 5010.75 2556.01 4938.57C2554.51 4794.46 2553 4617.91 2553 4490.5C2553 4460.82 2554.71 4432.29 2557.95 4404.86C2558.39 4401.08 2558.61 4397.3 2558.54 4393.5C2556.03 4259.55 2542.7 4104.88 2504.94 3984.54C2483.73 3916.92 2459.78 3876.77 2440.22 3856.43C2426.49 3842.15 2416.68 3837.91 2397.56 3838.42C2070.94 3847.29 1784.21 3734.46 1583.12 3570.48C1391.81 3414.48 1240.32 3176.29 1281.22 2927.72C1312.18 2739.53 1373.7 2605.18 1468.8 2486.37C1534.06 2404.85 1618.38 2328.81 1701.64 2253.72C1725.61 2232.1 1749.49 2210.57 1772.8 2189.01C1829.72 2136.36 1880.09 2015.83 1910.52 1711.6C1910.79 1708.83 1911.13 1706.07 1911.51 1703.33C1912.1 1699.12 1912.51 1694.87 1912.61 1690.62C1915.92 1545.38 1976.71 1426.69 2051.92 1334.26C2131.13 1236.9 2233.56 1159.63 2318.46 1099.53C2346.53 1079.67 2372.12 1061.99 2395.61 1045.76C2451.54 1007.14 2495.6 976.702 2532.97 944.409C2551.55 928.362 2561.72 917.299 2566.99 910.882C2567.22 910.593 2567.35 910.234 2567.35 909.86V909.86V908.343V906.82V905.29V903.754V902.212V900.664V899.11V897.55V895.983V894.411V892.833V891.248V889.658V888.062V886.46V884.852V883.238V881.619V879.994V878.363V876.727V875.084V873.436V871.783V870.124V868.46V866.79V865.114V863.433V861.747V860.055V858.358V856.656V854.948V853.235V851.517V849.794V848.065V846.332V844.593V842.849V841.1V839.346V837.588V835.824V834.055V832.281V830.503V828.72V826.932V825.139V823.341V821.539V819.732V817.92V816.104V814.283V812.457V810.628V808.793V806.954V805.111V803.263V801.411V799.554V797.694V795.828V793.959V792.086V790.208V788.326V786.44V784.55V782.655V780.757V778.855V776.949V775.038V773.124V771.206V769.284V767.358V765.429V763.496V761.559V759.618V757.673V755.725V753.774V751.818V749.86V747.897V745.931V743.962V741.989V740.013V738.034V736.051V734.064V732.075V730.082V728.086V726.087V724.085V722.079V720.071V718.059V716.045V714.027V712.006V709.983V707.956V705.927V703.894V701.859V699.821V697.781V695.737V693.691V691.643V689.591V687.537V685.48V683.421V681.36V679.295V677.229V675.16V673.088V671.014V668.938V666.859V664.779V662.696V660.61V658.523V656.433V654.341V652.247V650.152V648.054V645.954V643.852V641.748V639.642V637.534V635.425V633.313V631.2V629.085V626.968V624.85V622.73V620.608V618.485V616.36V614.233V612.105V609.976V607.845V605.712V603.579V601.443V599.307V597.169V595.03V592.89V590.748V588.605V586.461V584.316V582.17V580.023V577.875V575.726V573.575V571.424V569.272V567.119V564.965V562.811V560.655V558.499V556.342V554.184V552.026V549.867V547.707V545.547V543.387V541.225V539.064V536.901V534.739V532.576V530.412V528.249V526.085V523.92V521.756V519.591V517.426V515.261V513.096V510.93V508.765V506.599V504.434V502.268V500.103V497.938V495.773V493.608V491.443V489.278V487.114V484.949V482.786V480.622V478.459V476.296V474.134V471.972V469.81V467.65V465.489V463.329V461.17V459.012V456.854V454.697V452.54V450.384V448.229V446.075V443.922V441.769V439.618V437.467V435.318V433.169V431.022V428.875V426.73V424.585V422.442V420.3V418.159V416.02V413.881V411.744V409.609V407.474V405.342V403.21V401.08V398.951V396.824V394.699V392.575V390.453V388.332V386.213V384.096V381.98V379.866V377.754V375.644V373.535V371.429V369.324V367.222V365.121V363.022V360.926V358.831V356.738V354.648V352.56V350.474V348.39V346.308V344.229V342.152V340.077V338.004V335.935V333.867V331.802V329.739V327.679V325.622V323.567V321.514V319.464V317.417V315.373V313.331V311.292V309.256V307.223V305.192V303.165V301.14V299.118V297.1V295.084V293.071V291.062V289.055V287.052V285.051V283.054V281.06V279.07V277.082V275.098V273.117V271.14V269.166V267.195V265.228V263.264V261.304V259.348V257.395V255.445V253.5V251.558V249.619V247.684V245.754V243.826V241.903V239.984V238.068V236.156V234.249V232.345V230.445V228.549V226.658V224.77V222.887V221.008V219.132V217.262V215.395V213.533V211.674V209.821V207.971V206.126V204.286V202.45V200.618V198.791V196.969V195.151V193.337V191.528V189.724V187.925V186.13V184.341V182.556V180.775V179V177.229V175.464V173.703V171.947V170.197V168.451V166.711V164.975V163.245V161.519V159.799V158.085V156.375V154.671V152.972V151.278V149.59V147.907V146.229V144.557V142.891V141.23V139.575V137.925V136.28V134.642V133.009V131.382V129.76V128.144V126.534V124.93V123.332V121.74V120.153V118.573V116.998V115.429V113.867V112.31V110.76V109.216V107.678V106.146V104.62V103.101V101.588V100.081V98.5802V97.086V95.5983V94.117V92.6421V91.1738V89.7119V88.2566V86.8079V85.3658V83.9304V82.5016V81.0795V79.6641V78.2556V76.8538V75.4588V74.0707V72.6895V71.3151V69.9478V68.5874V67.234V65.8876V64.5484V63.2162V61.8911V60.5732V59.2625V57.959V56.6628V55.3738V54.0921V52.8178V51.5509V50.2913V49.0392V47.7946V46.5574V45.3278V44.1057V42.8912V41.6843V40.485V39.2935V38.1096V36.9335V35.7651V34.6045V33.4518V32.3069V31.1699V30.0408V28.9197V27.8065V26.7013V25.6042V24.5152V23.4342V22.3614V21.2967V20.2403V19.192V18.152V17.1203V16.0969V15.0818V14.0751V13.0768V12.087V11.1056V10.1327V9.1683V8.21247V7.26523V6.32661V5.39663V4.47532V3.56273V2.65886V1.76377V0.877471V0C2567.35 -113.218 2659.13 -205 2772.35 -205ZM2317.46 2226.54C2272.68 2209.79 2221.55 2231.57 2201.83 2275.13C2164.64 2357.3 2115.96 2430.09 2051.2 2489.99C2015.82 2522.72 1984.68 2550.87 1956.92 2575.96C1881.94 2643.73 1831.6 2689.23 1788.88 2742.59C1741.42 2801.88 1706.32 2869.47 1685.78 2994.28C1678.97 3035.67 1705.48 3141.22 1842.23 3252.74C1969.18 3356.27 2160.56 3434.71 2386.44 3428.58C2530.71 3424.66 2649.1 3482.14 2735.74 3572.24C2816.57 3656.29 2865.2 3763.2 2896.14 3861.81V3861.81C2899.89 3873.76 2914.14 3878.86 2924.6 3871.96C2984.42 3832.49 3043.35 3800.11 3094.35 3772.62C3117.33 3760.24 3138.93 3748.74 3159.27 3737.92C3245.68 3691.95 3309.19 3658.16 3358.09 3619.67C3407.98 3580.39 3404.02 3566.16 3403.43 3564.01C3403.39 3563.89 3403.37 3563.8 3403.37 3563.76C3400.45 3515.09 3390.43 3497.67 3386.75 3491.94C3381.64 3483.99 3372.08 3473.07 3339.53 3449.9C3331.46 3444.15 3322.06 3437.83 3311.6 3430.79C3240.76 3383.12 3121.07 3302.6 3031.58 3144.46C2940.8 2984.03 2941.29 2833.4 2941.63 2728.89L2941.63 2727.78C2941.98 2619.34 2941.14 2561.66 2909.73 2496.29C2885.9 2446.71 2844.39 2408.48 2771.64 2373.53C2701.49 2339.83 2621.24 2317.44 2522.1 2289.78C2509.93 2286.38 2497.48 2282.91 2484.72 2279.32C2434.21 2265.13 2376.25 2248.54 2317.46 2226.54ZM2764 5193L2639.01 5194.67C2594.83 5195.26 2558.05 5232.9 2575.42 5273.53C2607.1 5347.64 2681.14 5399.12 2766.73 5397.98C2852.33 5396.84 2924.97 5343.4 2954.66 5268.47C2970.94 5227.39 2933.17 5190.74 2888.99 5191.33L2764 5193ZM3617.46 3146.04C3631.58 3157.35 3652.38 3155.7 3663.87 3141.72V3141.72C3789.36 2989.01 3965.69 2792.69 4136.51 2675.47C4225.63 2614.31 4237.96 2569.94 4241 2546.15C4245.73 2509.26 4235.3 2454.2 4194.54 2363.59C4133.55 2227.99 4116.86 2123.3 4105.3 2039.6C4104.88 2036.58 4104.48 2033.63 4104.08 2030.73C4093.75 1955.75 4088.34 1916.48 4065.42 1865.32C4039.29 1807.01 3985.5 1763.79 3875.22 1732.1C3782.44 1705.44 3681.64 1695.2 3569.17 1683.78C3554.8 1682.32 3540.23 1680.84 3525.47 1679.3C3498.5 1676.5 3471.92 1687.5 3458.95 1711.31C3449.76 1728.21 3438.61 1750.84 3424.92 1781.24C3418.81 1794.8 3412.32 1809.78 3405.33 1825.9C3368.68 1910.41 3318.37 2026.44 3237.79 2136.61C3214.81 2168.04 3214.92 2211.07 3236.49 2243.48C3252.01 2266.8 3266.36 2291.83 3279.27 2318.71C3353.08 2472.31 3352.27 2615.43 3351.71 2713.19C3351.68 2718.64 3351.65 2723.94 3351.63 2729.1C3351.3 2830.73 3355.2 2883.84 3388.42 2942.54C3427.93 3012.36 3467.52 3039.71 3534.37 3085.9C3547.55 3095.01 3561.79 3104.85 3577.3 3115.89C3589.78 3124.77 3603.35 3134.74 3617.46 3146.04Z" fill="black" fill-opacity="0.04"/>
<path id="Union_2" fill-rule="evenodd" clip-rule="evenodd" d="M2773.35 -154.691C2858.95 -154.691 2928.35 -85.2955 2928.35 0.308594V1.18606V2.07236V2.96746V3.87132V4.78392V5.70522V6.6352V7.57383V8.52107V9.47689V10.4413V11.4142V12.3956V13.3854V14.3837V15.3904V16.4055V17.4289V18.4606V19.5006V20.5489V21.6053V22.67V23.7428V24.8238V25.9128V27.0099V28.1151V29.2282V30.3494V31.4785V32.6155V33.7604V34.9131V36.0737V37.2421V38.4182V39.6021V40.7936V41.9929V43.1998V44.4143V45.6364V46.866V48.1032V49.3478V50.5999V51.8595V53.1264V54.4007V55.6824V56.9714V58.2676V59.5711V60.8818V62.1997V63.5248V64.8569V66.1962V67.5426V68.896V70.2564V71.6237V72.998V74.3793V75.7674V77.1624V78.5642V79.9727V81.3881V82.8102V84.239V85.6744V87.1165V88.5652V90.0205V91.4824V92.9507V94.4256V95.9069V97.3946V98.8888V100.389V101.896V103.409V104.929V106.454V107.986V109.524V111.069V112.619V114.175V115.738V117.307V118.881V120.462V122.048V123.641V125.239V126.843V128.453V130.069V131.69V133.317V134.95V136.589V138.233V139.883V141.539V143.2V144.866V146.538V148.216V149.898V151.587V153.28V154.979V156.684V158.393V160.108V161.828V163.553V165.284V167.019V168.76V170.505V172.256V174.012V175.772V177.538V179.308V181.084V182.864V184.649V186.439V188.234V190.033V191.837V193.646V195.459V197.277V199.1V200.927V202.758V204.594V206.435V208.28V210.129V211.983V213.841V215.703V217.57V219.441V221.316V223.195V225.079V226.966V228.858V230.754V232.654V234.557V236.465V238.377V240.292V242.212V244.135V246.062V247.993V249.928V251.866V253.808V255.754V257.703V259.656V261.613V263.573V265.537V267.504V269.474V271.448V273.426V275.407V277.391V279.378V281.369V283.363V285.36V287.36V289.364V291.37V293.38V295.393V297.408V299.427V301.449V303.474V305.501V307.532V309.565V311.601V313.64V315.682V317.726V319.773V321.823V323.875V325.93V327.988V330.048V332.11V334.176V336.243V338.313V340.385V342.46V344.537V346.617V348.698V350.782V352.868V354.957V357.047V359.139V361.234V363.331V365.43V367.53V369.633V371.738V373.844V375.952V378.063V380.175V382.289V384.404V386.522V388.641V390.761V392.884V395.008V397.133V399.26V401.389V403.519V405.65V407.783V409.917V412.053V414.19V416.328V418.468V420.609V422.751V424.894V427.038V429.184V431.33V433.478V435.626V437.776V439.927V442.078V444.23V446.384V448.538V450.693V452.849V455.005V457.162V459.32V461.479V463.638V465.798V467.958V470.119V472.28V474.442V476.605V478.768V480.931V483.094V485.258V487.422V489.587V491.751V493.916V496.081V498.246V500.412V502.577V504.742V506.908V509.073V511.239V513.404V515.569V517.735V519.9V522.064V524.229V526.393V528.557V530.721V532.884V535.047V537.21V539.372V541.534V543.695V545.856V548.016V550.176V552.335V554.493V556.651V558.808V560.964V563.119V565.274V567.428V569.581V571.733V573.884V576.034V578.183V580.332V582.479V584.625V586.77V588.914V591.057V593.198V595.339V597.478V599.616V601.752V603.887V606.021V608.153V610.284V612.414V614.542V616.668V618.793V620.917V623.038V625.158V627.277V629.394V631.509V633.622V635.733V637.843V639.95V642.056V644.16V646.262V648.362V650.46V652.556V654.65V656.742V658.831V660.919V663.004V665.087V667.168V669.247V671.323V673.397V675.468V677.537V679.604V681.668V683.73V685.789V687.846V689.9V691.951V694V696.046V698.089V700.13V702.168V704.203V706.235V708.265V710.291V712.315V714.336V716.353V718.368V720.379V722.388V724.393V726.396V728.395V730.391V732.384V734.373V736.359V738.342V740.322V742.298V744.271V746.24V748.206V750.168V752.127V754.082V756.034V757.982V759.926V761.867V763.804V765.738V767.667V769.593V771.515V773.433V775.347V777.257V779.163V781.066V782.964V784.858V786.748V788.634V790.516V792.394V794.268V796.137V798.002V799.863V801.719V803.572V805.419V807.263V809.102V810.936V812.766V814.591V816.412V818.229V820.04V821.847V823.65V825.447V827.24V829.028V830.812V832.59V834.364V836.132V837.896V839.655V841.409V843.158V844.902V846.64V848.374V850.102V851.826V853.544V855.257V856.964V858.667V860.364V862.055V863.742V865.423V867.098V868.768V870.433V872.092V873.745V875.393V877.035V878.672V880.302V881.928V883.547V885.161V886.769V888.371V889.967V891.557V893.141V894.72V896.292V897.858V899.419V900.973V902.521V904.063V905.599V907.128V908.652V910.169V911.68V913.184V914.683V916.174V917.66V919.139V920.611V922.077V923.537V924.99V926.436V927.876V929.309C2928.35 1063.79 2836.47 1159.11 2769.35 1217.12C2716.07 1263.15 2647.81 1310.27 2585.59 1353.23C2565.33 1367.21 2545.71 1380.76 2527.45 1393.68C2445.59 1451.62 2378.19 1505.21 2332.17 1561.77C2288.65 1615.26 2270.95 1663.01 2273.77 1714.3C2277.3 1778.47 2300.89 1811 2342.14 1839.52C2394.69 1875.84 2472.2 1901.88 2583.13 1933.06C2594.92 1936.38 2607.11 1939.75 2619.61 1943.22C2690.71 1962.92 2772.15 1985.48 2851.04 2016.01C2856.36 2018.07 2862.37 2016.86 2866.73 2013.18V2013.18C2966.71 1929.1 3016.85 1815.89 3075.01 1684.59C3082.4 1667.91 3089.92 1650.94 3097.68 1633.7C3128.23 1565.87 3168.6 1481.21 3230.72 1417.83C3302.84 1344.25 3399.5 1303.42 3519.18 1316.76C3541.57 1319.26 3565.79 1321.68 3591.38 1324.23C3706.18 1335.67 3848.46 1349.86 3975.65 1386.41C4136.35 1432.59 4307.51 1523.28 4394.95 1718.43C4439.61 1818.1 4451.24 1904.29 4460.65 1974C4461.42 1979.67 4462.17 1985.23 4462.92 1990.68C4472.62 2060.96 4483.48 2126.46 4523.86 2216.23C4571.56 2322.29 4616.87 2453.34 4599.09 2592.18C4580.04 2740.91 4493.47 2868.13 4341.2 2972.61C4215.72 3058.72 4066.75 3220.01 3943 3370.59C3882.71 3443.96 3831.09 3511.43 3794.56 3560.55C3785.35 3572.94 3777.12 3584.13 3769.97 3593.93C3765.23 3600.43 3762.41 3608.1 3761.39 3616.07C3744.93 3744.83 3664.94 3837.37 3581.76 3902.85C3504.95 3963.32 3405.34 4016.02 3317.66 4062.41C3299.92 4071.8 3282.66 4080.93 3266.18 4089.82C3073.35 4193.77 2950.28 4282.39 2920.85 4422.26C2920.24 4425.16 2919.97 4428.15 2919.98 4431.12C2919.99 4435.23 2920 4439.29 2920 4443.31C2920 4456.48 2918.36 4469.26 2915.27 4481.46C2914.49 4484.52 2914 4487.65 2914 4490.81V4490.81C2914 4616.18 2915.49 4791.11 2916.99 4935.13C2917.74 5007.05 2918.49 5071.1 2919.05 5117.16C2919.33 5140.19 2919.57 5158.72 2919.73 5171.49C2919.81 5177.88 2919.88 5182.82 2919.92 5186.17L2919.97 5189.96L2919.98 5190.92L2919.99 5191.17L2919.99 5191.22L2919.99 5191.24C2919.99 5191.24 2919.99 5191.24 2765 5193.31C2610.01 5195.38 2610.01 5195.37 2610.01 5195.37L2610.01 5195.35L2610.01 5195.29L2610.01 5195.04L2610 5194.06L2609.95 5190.22L2609.87 5184.51L2609.76 5175.47C2609.59 5162.64 2609.36 5144.04 2609.07 5120.94C2608.51 5074.74 2607.76 5010.5 2607.01 4938.36C2605.51 4794.26 2604 4617.93 2604 4490.81C2604 4461.28 2605.82 4432.97 2609.27 4405.81C2609.55 4403.63 2609.68 4401.44 2609.64 4399.24C2607.41 4261.98 2594.08 4098.76 2553.65 3969.88C2531.25 3898.48 2504.29 3850.19 2477.26 3822.08C2454.63 3798.55 2431.58 3787.82 2397.21 3788.75C2082.87 3797.29 1807.77 3688.65 1615.72 3532.04C1431.07 3381.47 1294.81 3159.45 1331.56 2936.14C1361.25 2755.69 1419.54 2629.47 1508.84 2517.92C1571.29 2439.91 1651.31 2367.71 1734.02 2293.1C1758.49 2271.02 1783.19 2248.74 1807.75 2226.02C1880.05 2159.14 1930.95 2020.09 1961.27 1716.89C1961.63 1713.33 1962.1 1709.81 1962.69 1706.34C1963.17 1703.49 1963.47 1700.6 1963.5 1697.71C1965.05 1563.78 2020.47 1453.67 2091.7 1366.12C2166.31 1274.43 2263.87 1200.45 2348.35 1140.65C2374.84 1121.9 2399.58 1104.82 2422.69 1088.85C2479.86 1049.36 2527.14 1016.71 2566.67 982.551C2606.04 948.529 2615.88 930.647 2618.07 926.222C2618.26 925.836 2618.35 925.421 2618.35 924.99V924.99V923.537V922.077V920.611V919.139V917.66V916.174V914.683V913.184V911.68V910.169V908.652V907.128V905.599V904.063V902.521V900.973V899.419V897.858V896.292V894.72V893.141V891.557V889.967V888.371V886.769V885.161V883.547V881.928V880.302V878.672V877.035V875.393V873.745V872.092V870.433V868.768V867.098V865.423V863.742V862.055V860.364V858.667V856.964V855.257V853.544V851.826V850.102V848.374V846.64V844.902V843.158V841.409V839.655V837.896V836.132V834.364V832.59V830.812V829.028V827.24V825.447V823.65V821.847V820.04V818.229V816.412V814.591V812.766V810.936V809.102V807.263V805.419V803.572V801.719V799.863V798.002V796.137V794.268V792.394V790.516V788.634V786.748V784.858V782.964V781.066V779.163V777.257V775.347V773.433V771.515V769.593V767.667V765.738V763.804V761.867V759.926V757.982V756.034V754.082V752.127V750.168V748.206V746.24V744.271V742.298V740.322V738.342V736.359V734.373V732.384V730.391V728.395V726.396V724.393V722.388V720.379V718.368V716.353V714.336V712.315V710.291V708.265V706.235V704.203V702.168V700.13V698.089V696.046V694V691.951V689.9V687.846V685.789V683.73V681.668V679.604V677.537V675.468V673.397V671.323V669.247V667.168V665.087V663.004V660.919V658.831V656.742V654.65V652.556V650.46V648.362V646.262V644.16V642.056V639.95V637.843V635.733V633.622V631.509V629.394V627.277V625.158V623.038V620.917V618.793V616.668V614.542V612.414V610.284V608.153V606.021V603.887V601.752V599.616V597.478V595.339V593.198V591.057V588.914V586.77V584.625V582.479V580.332V578.183V576.034V573.884V571.733V569.581V567.428V565.274V563.119V560.964V558.808V556.651V554.493V552.335V550.176V548.016V545.856V543.695V541.534V539.372V537.21V535.047V532.884V530.721V528.557V526.393V524.229V522.064V519.9V517.735V515.569V513.404V511.239V509.073V506.908V504.742V502.577V500.412V498.246V496.081V493.916V491.751V489.587V487.422V485.258V483.094V480.931V478.768V476.605V474.442V472.28V470.119V467.958V465.798V463.638V461.479V459.32V457.162V455.005V452.849V450.693V448.538V446.384V444.23V442.078V439.927V437.776V435.626V433.478V431.33V429.184V427.038V424.894V422.751V420.609V418.468V416.328V414.19V412.053V409.917V407.783V405.65V403.519V401.389V399.26V397.133V395.008V392.884V390.761V388.641V386.522V384.404V382.289V380.175V378.063V375.952V373.844V371.738V369.633V367.53V365.43V363.331V361.234V359.139V357.047V354.957V352.868V350.782V348.698V346.617V344.537V342.46V340.385V338.313V336.243V334.176V332.11V330.048V327.988V325.93V323.875V321.823V319.773V317.726V315.682V313.64V311.601V309.565V307.532V305.501V303.474V301.449V299.427V297.408V295.393V293.38V291.37V289.364V287.36V285.36V283.363V281.369V279.378V277.391V275.407V273.426V271.448V269.474V267.504V265.537V263.573V261.613V259.656V257.703V255.754V253.808V251.866V249.928V247.993V246.062V244.135V242.212V240.292V238.377V236.465V234.557V232.654V230.754V228.858V226.966V225.079V223.195V221.316V219.441V217.57V215.703V213.841V211.983V210.129V208.28V206.435V204.594V202.758V200.927V199.1V197.277V195.459V193.646V191.837V190.033V188.234V186.439V184.649V182.864V181.084V179.308V177.538V175.772V174.012V172.256V170.505V168.76V167.019V165.284V163.553V161.828V160.108V158.393V156.684V154.979V153.28V151.587V149.898V148.216V146.538V144.866V143.2V141.539V139.883V138.233V136.589V134.95V133.317V131.69V130.069V128.453V126.843V125.239V123.641V122.048V120.462V118.881V117.307V115.738V114.175V112.619V111.069V109.524V107.986V106.454V104.929V103.409V101.896V100.389V98.8888V97.3946V95.9069V94.4256V92.9507V91.4824V90.0205V88.5652V87.1165V85.6744V84.239V82.8102V81.3881V79.9727V78.5642V77.1624V75.7674V74.3793V72.998V71.6237V70.2564V68.896V67.5426V66.1962V64.8569V63.5248V62.1997V60.8818V59.5711V58.2676V56.9714V55.6824V54.4007V53.1264V51.8595V50.5999V49.3478V48.1032V46.866V45.6364V44.4143V43.1998V41.9929V40.7936V39.6021V38.4182V37.2421V36.0737V34.9131V33.7604V32.6155V31.4785V30.3494V29.2282V28.1151V27.0099V25.9128V24.8238V23.7428V22.67V21.6053V20.5489V19.5006V18.4606V17.4289V16.4055V15.3904V14.3837V13.3854V12.3956V11.4142V10.4413V9.47689V8.52107V7.57383V6.6352V5.70522V4.78392V3.87132V2.96746V2.07236V1.18606V0.308594C2618.35 -85.2955 2687.75 -154.691 2773.35 -154.691ZM2257.12 2146.77C2230.65 2134.13 2198.22 2147.31 2188.73 2175.06C2150.84 2285.88 2097.1 2380.66 2018.25 2453.59C1984.63 2484.7 1954.44 2511.98 1927.09 2536.69C1850.58 2605.83 1796.26 2654.92 1750.85 2711.65C1697.58 2778.2 1659.25 2853.93 1637.44 2986.47C1626.48 3053.13 1668.23 3174.86 1811.63 3291.79C1947.63 3402.7 2150.63 3485.33 2388.79 3478.87C2517.8 3475.36 2622.95 3526.35 2700.71 3607.2C2774.06 3683.49 2819.68 3782.25 2849.43 3877.08C2851.98 3885.21 2854.44 3893.4 2856.82 3901.64C2865.96 3933.38 2904.56 3947.17 2931.77 3928.45C2996.03 3884.24 3061.34 3848.07 3119.07 3816.95C3141.04 3805.11 3161.99 3793.97 3181.97 3783.35C3268.85 3737.15 3337.29 3700.77 3390.02 3659.26C3449 3612.83 3455.72 3585.17 3454.28 3561.08C3450.96 3505.74 3439.05 3479.6 3429.82 3465.23C3419.5 3449.17 3403.71 3433.8 3369.53 3409.48C3360.71 3403.19 3350.76 3396.48 3339.91 3389.15C3268.86 3341.18 3159.33 3267.23 3076.1 3120.14C2992.06 2971.62 2992.3 2832.45 2992.63 2728.25C2992.98 2621.11 2992.88 2552.12 2955.79 2474.94C2925.48 2411.85 2873.45 2366.8 2794.29 2328.77C2719.91 2293.04 2635.15 2269.41 2536.82 2242C2524.51 2238.57 2511.99 2235.08 2499.25 2231.5C2424.14 2210.39 2337.51 2185.18 2257.12 2146.77ZM2765 5193.31L2655.01 5194.78C2630.16 5195.11 2609.63 5215.95 2617.05 5239.67C2636.99 5303.38 2696.89 5349.23 2767.07 5348.29C2837.24 5347.36 2895.9 5299.93 2914.13 5235.71C2920.92 5211.8 2899.84 5191.51 2874.99 5191.84L2765 5193.31ZM3610.42 3204.96C3631.2 3223.45 3663.9 3222.46 3681.41 3200.85C3688.64 3191.93 3696 3182.9 3703.5 3173.77C3828.75 3021.36 4001.28 2829.9 4165.8 2717.01C4263.7 2649.83 4286.33 2593.95 4291.6 2552.8C4298.14 2501.76 4282.86 2436.15 4241.14 2343.39C4183.02 2214.16 4167.13 2114.91 4155.83 2033.07C4155.3 2029.24 4154.79 2025.49 4154.28 2021.8C4144.25 1948.81 4137.95 1902.99 4112.05 1845.19C4077.41 1767.87 4007.32 1718.06 3890.03 1684.35C3792.54 1656.34 3686.08 1645.55 3572.94 1634.09C3543.99 1631.15 3514.61 1628.18 3484.82 1624.85C3464.59 1622.6 3460.92 1625.84 3452.11 1634.83C3433.3 1654.02 3412.12 1690.44 3380.33 1761.01C3373.94 1775.21 3367.25 1790.6 3360.14 1806.94C3317.07 1905.95 3258.72 2040.09 3158.74 2157.96C3143.15 2176.34 3143.43 2203.61 3158.9 2222.09C3187.83 2256.64 3213.69 2295.89 3235.21 2340.68C3303.9 2483.62 3303.21 2616.44 3302.7 2714.31C3302.67 2719.38 3302.65 2724.36 3302.63 2729.24C3302.3 2831.23 3305.62 2896.3 3345.9 2967.47C3391.36 3047.81 3440.32 3081.53 3508.46 3128.46C3521.36 3137.34 3534.94 3146.7 3549.31 3156.93C3568.38 3170.51 3589.34 3186.2 3610.42 3204.96Z" fill="#1C506F"/>
<path id="Union_3" fill-rule="evenodd" clip-rule="evenodd" d="M2773.35 -100C2828.58 -100 2873.35 -55.2285 2873.35 0V0.877471V1.76377V2.65886V3.56273V4.47532V5.39663V6.32661V7.26523V8.21247V9.1683V10.1327V11.1056V12.087V13.0768V14.0751V15.0818V16.0969V17.1203V18.152V19.192V20.2403V21.2967V22.3614V23.4342V24.5152V25.6042V26.7013V27.8065V28.9197V30.0408V31.1699V32.3069V33.4518V34.6045V35.7651V36.9335V38.1096V39.2935V40.485V41.6843V42.8912V44.1057V45.3278V46.5574V47.7946V49.0392V50.2913V51.5509V52.8178V54.0921V55.3738V56.6628V57.959V59.2625V60.5732V61.8911V63.2162V64.5484V65.8876V67.234V68.5874V69.9478V71.3151V72.6895V74.0707V75.4588V76.8538V78.2556V79.6641V81.0795V82.5016V83.9304V85.3658V86.8079V88.2566V89.7119V91.1738V92.6421V94.117V95.5983V97.086V98.5802V100.081V101.588V103.101V104.62V106.146V107.678V109.216V110.76V112.31V113.867V115.429V116.998V118.573V120.153V121.74V123.332V124.93V126.534V128.144V129.76V131.382V133.009V134.642V136.28V137.925V139.575V141.23V142.891V144.557V146.229V147.907V149.59V151.278V152.972V154.671V156.375V158.085V159.799V161.519V163.245V164.975V166.711V168.451V170.197V171.947V173.703V175.464V177.229V179V180.775V182.556V184.341V186.13V187.925V189.724V191.528V193.337V195.151V196.969V198.791V200.618V202.45V204.286V206.126V207.971V209.821V211.674V213.533V215.395V217.262V219.132V221.008V222.887V224.77V226.658V228.549V230.445V232.345V234.249V236.156V238.068V239.984V241.903V243.826V245.754V247.684V249.619V251.558V253.5V255.445V257.395V259.348V261.304V263.264V265.228V267.195V269.166V271.14V273.117V275.098V277.082V279.07V281.06V283.054V285.051V287.052V289.055V291.062V293.071V295.084V297.1V299.118V301.14V303.165V305.192V307.223V309.256V311.292V313.331V315.373V317.417V319.464V321.514V323.567V325.622V327.679V329.739V331.802V333.867V335.935V338.004V340.077V342.152V344.229V346.308V348.39V350.474V352.56V354.648V356.738V358.831V360.926V363.022V365.121V367.222V369.324V371.429V373.535V375.644V377.754V379.866V381.98V384.096V386.213V388.332V390.453V392.575V394.699V396.824V398.951V401.08V403.21V405.342V407.474V409.609V411.744V413.881V416.02V418.159V420.3V422.442V424.585V426.73V428.875V431.022V433.169V435.318V437.467V439.618V441.769V443.922V446.075V448.229V450.384V452.54V454.697V456.854V459.012V461.17V463.329V465.489V467.65V469.81V471.972V474.134V476.296V478.459V480.622V482.786V484.949V487.114V489.278V491.443V493.608V495.773V497.938V500.103V502.268V504.434V506.599V508.765V510.93V513.096V515.261V517.426V519.591V521.756V523.92V526.085V528.249V530.412V532.576V534.739V536.901V539.064V541.225V543.387V545.547V547.707V549.867V552.026V554.184V556.342V558.499V560.655V562.811V564.965V567.119V569.272V571.424V573.575V575.726V577.875V580.023V582.17V584.316V586.461V588.605V590.748V592.89V595.03V597.169V599.307V601.443V603.579V605.712V607.845V609.976V612.105V614.233V616.36V618.485V620.608V622.73V624.85V626.968V629.085V631.2V633.313V635.425V637.534V639.642V641.748V643.852V645.954V648.054V650.152V652.247V654.341V656.433V658.523V660.61V662.696V664.779V666.859V668.938V671.014V673.088V675.16V677.229V679.295V681.36V683.421V685.48V687.537V689.591V691.643V693.691V695.737V697.781V699.821V701.859V703.894V705.927V707.956V709.983V712.006V714.027V716.045V718.059V720.071V722.079V724.085V726.087V728.086V730.082V732.075V734.064V736.051V738.034V740.013V741.989V743.962V745.931V747.897V749.86V751.818V753.774V755.725V757.673V759.618V761.559V763.496V765.429V767.358V769.284V771.206V773.124V775.038V776.949V778.855V780.757V782.655V784.55V786.44V788.326V790.208V792.086V793.959V795.828V797.694V799.554V801.411V803.263V805.111V806.954V808.793V810.628V812.457V814.283V816.104V817.92V819.732V821.539V823.341V825.139V826.932V828.72V830.503V832.281V834.055V835.824V837.588V839.346V841.1V842.849V844.593V846.332V848.065V849.794V851.517V853.235V854.948V856.656V858.358V860.055V861.747V863.433V865.114V866.79V868.46V870.124V871.783V873.436V875.084V876.727V878.363V879.994V881.619V883.238V884.852V886.46V888.062V889.658V891.248V892.833V894.411V895.983V897.55V899.11V900.664V902.212V903.754V905.29V906.82V908.343V909.86V911.371V912.876V914.374V915.866V917.351V918.83V920.303V921.769V923.228V924.681V926.127V927.567V929C2873.35 1037.41 2799.07 1118.43 2733.39 1175.19C2682.59 1219.08 2618.19 1263.54 2556.55 1306.11C2535.73 1320.48 2515.23 1334.64 2495.68 1348.48C2413.35 1406.75 2340.59 1463.95 2289.5 1526.75C2240.03 1587.56 2215.07 1648.34 2218.85 1717.01C2223.4 1799.67 2256.94 1847.17 2310.87 1884.45C2372.08 1926.77 2458.41 1954.83 2568.25 1985.7C2580.28 1989.08 2592.59 1992.5 2605.12 1995.97C2679.7 2016.66 2762.09 2039.51 2840.51 2070.63C2861.36 2078.9 2884.96 2069.41 2902.13 2054.97V2054.97C3012.48 1962.17 3067.88 1836.71 3125.35 1706.56C3132.77 1689.76 3140.22 1672.88 3147.83 1655.98C3178.6 1587.67 3215.56 1511.57 3270 1456.02C3330.89 1393.9 3411.05 1359.74 3513.08 1371.12C3536.68 1373.75 3561.78 1376.26 3587.98 1378.88C3702.77 1390.36 3838.61 1403.95 3960.46 1438.96C4113.46 1482.93 4266.68 1566.36 4344.76 1740.61C4386.06 1832.79 4396.76 1911.8 4406.21 1981.59C4406.96 1987.08 4407.69 1992.51 4408.44 1997.89C4418.42 2070.22 4430.18 2141.71 4473.7 2238.48C4520.34 2342.18 4560.32 2461.63 4544.53 2584.89C4527.93 2714.53 4452.7 2829.09 4310.08 2926.95C4177.67 3017.81 4024.53 3184.45 3900.51 3335.37C3839.53 3409.57 3787.35 3477.78 3750.43 3527.42C3739.92 3541.56 3730.66 3554.17 3722.8 3564.97C3713.76 3577.38 3708.86 3592.21 3706.96 3607.44C3693.28 3717.49 3625.16 3798.38 3547.74 3859.32C3475.25 3916.39 3381.25 3966.17 3293.49 4012.65C3275.33 4022.26 3257.45 4031.73 3240.08 4041.1C3047.47 4144.93 2900.02 4244.82 2866.29 4413.95C2865.34 4418.75 2864.94 4423.67 2864.97 4428.57C2864.99 4433.44 2865 4438.25 2865 4443C2865 4450.41 2864.19 4457.62 2862.67 4464.57C2860.89 4472.66 2859.03 4480.79 2859 4489.07C2859 4489.54 2859 4490.02 2859 4490.5C2859 4616.18 2860.5 4791.36 2861.99 4935.4C2862.74 5007.35 2863.49 5071.43 2864.06 5117.52C2864.34 5140.57 2864.57 5159.11 2864.73 5171.89L2864.86 5181.56L2864.92 5186.58L2864.97 5190.38L2864.99 5191.35L2864.99 5191.59L2864.99 5191.65L2864.99 5191.66C2864.99 5191.67 2864.99 5191.67 2765 5193C2665.01 5194.33 2665.01 5194.33 2665.01 5194.33L2665.01 5194.31L2665.01 5194.25L2665 5194L2664.99 5193.02L2664.94 5189.19C2664.9 5185.83 2664.83 5180.86 2664.75 5174.45C2664.59 5161.64 2664.35 5143.05 2664.07 5119.96C2663.51 5073.78 2662.76 5009.58 2662.01 4937.48C2660.51 4793.39 2659 4617.32 2659 4490.5C2659 4463.16 2660.7 4436.96 2663.94 4411.82C2664.46 4407.8 2664.73 4403.77 2664.66 4399.71C2662.48 4260.03 2649.03 4089.86 2606.13 3953.11C2582.42 3877.55 2552.15 3820.3 2516.9 3783.65C2484.5 3749.95 2446.88 3732.07 2395.71 3733.46C2094.89 3741.63 1832.58 3637.61 1650.47 3489.11C1473.14 3344.5 1353.66 3140.28 1385.83 2944.76C1414.12 2772.81 1468.87 2655.55 1551.77 2551.99C1611.16 2477.8 1686.5 2409.8 1768.47 2335.83C1793.49 2313.25 1819.11 2290.12 1845.1 2266.09C1934.32 2183.55 1985.79 2024.11 2016 1722.05C2016.14 1720.59 2016.32 1719.15 2016.52 1717.71C2017.49 1710.99 2018.42 1704.23 2018.51 1697.44C2020.06 1579.31 2068.79 1481.12 2134.37 1400.52C2203.9 1315.06 2296.11 1244.71 2380.13 1185.23C2404.98 1167.64 2428.78 1151.21 2451.44 1135.55C2509.84 1095.22 2560.7 1060.08 2602.62 1023.86C2663.07 971.625 2673.35 942.592 2673.35 929V927.567V926.127V924.681V923.228V921.769V920.303V918.83V917.351V915.866V914.374V912.876V911.371V909.86V908.343V906.82V905.29V903.754V902.212V900.664V899.11V897.55V895.983V894.411V892.833V891.248V889.658V888.062V886.46V884.852V883.238V881.619V879.994V878.363V876.727V875.084V873.436V871.783V870.124V868.46V866.79V865.114V863.433V861.747V860.055V858.358V856.656V854.948V853.235V851.517V849.794V848.065V846.332V844.593V842.849V841.1V839.346V837.588V835.824V834.055V832.281V830.503V828.72V826.932V825.139V823.341V821.539V819.732V817.92V816.104V814.283V812.457V810.628V808.793V806.954V805.111V803.263V801.411V799.554V797.694V795.828V793.959V792.086V790.208V788.326V786.44V784.55V782.655V780.757V778.855V776.949V775.038V773.124V771.206V769.284V767.358V765.429V763.496V761.559V759.618V757.673V755.725V753.774V751.818V749.86V747.897V745.931V743.962V741.989V740.013V738.034V736.051V734.064V732.075V730.082V728.086V726.087V724.085V722.079V720.071V718.059V716.045V714.027V712.006V709.983V707.956V705.927V703.894V701.859V699.821V697.781V695.737V693.691V691.643V689.591V687.537V685.48V683.421V681.36V679.295V677.229V675.16V673.088V671.014V668.938V666.859V664.779V662.696V660.61V658.523V656.433V654.341V652.247V650.152V648.054V645.954V643.852V641.748V639.642V637.534V635.425V633.313V631.2V629.085V626.968V624.85V622.73V620.608V618.485V616.36V614.233V612.105V609.976V607.845V605.712V603.579V601.443V599.307V597.169V595.03V592.89V590.748V588.605V586.461V584.316V582.17V580.023V577.875V575.726V573.575V571.424V569.272V567.119V564.965V562.811V560.655V558.499V556.342V554.184V552.026V549.867V547.707V545.547V543.387V541.225V539.064V536.901V534.739V532.576V530.412V528.249V526.085V523.92V521.756V519.591V517.426V515.261V513.096V510.93V508.765V506.599V504.434V502.268V500.103V497.938V495.773V493.608V491.443V489.278V487.114V484.949V482.786V480.622V478.459V476.296V474.134V471.972V469.81V467.65V465.489V463.329V461.17V459.012V456.854V454.697V452.54V450.384V448.229V446.075V443.922V441.769V439.618V437.467V435.318V433.169V431.022V428.875V426.73V424.585V422.442V420.3V418.159V416.02V413.881V411.744V409.609V407.474V405.342V403.21V401.08V398.951V396.824V394.699V392.575V390.453V388.332V386.213V384.096V381.98V379.866V377.754V375.644V373.535V371.429V369.324V367.222V365.121V363.022V360.926V358.831V356.738V354.648V352.56V350.474V348.39V346.308V344.229V342.152V340.077V338.004V335.935V333.867V331.802V329.739V327.679V325.622V323.567V321.514V319.464V317.417V315.373V313.331V311.292V309.256V307.223V305.192V303.165V301.14V299.118V297.1V295.084V293.071V291.062V289.055V287.052V285.051V283.054V281.06V279.07V277.082V275.098V273.117V271.14V269.166V267.195V265.228V263.264V261.304V259.348V257.395V255.445V253.5V251.558V249.619V247.684V245.754V243.826V241.903V239.984V238.068V236.156V234.249V232.345V230.445V228.549V226.658V224.77V222.887V221.008V219.132V217.262V215.395V213.533V211.674V209.821V207.971V206.126V204.286V202.45V200.618V198.791V196.969V195.151V193.337V191.528V189.724V187.925V186.13V184.341V182.556V180.775V179V177.229V175.464V173.703V171.947V170.197V168.451V166.711V164.975V163.245V161.519V159.799V158.085V156.375V154.671V152.972V151.278V149.59V147.907V146.229V144.557V142.891V141.23V139.575V137.925V136.28V134.642V133.009V131.382V129.76V128.144V126.534V124.93V123.332V121.74V120.153V118.573V116.998V115.429V113.867V112.31V110.76V109.216V107.678V106.146V104.62V103.101V101.588V100.081V98.5802V97.086V95.5983V94.117V92.6421V91.1738V89.7119V88.2566V86.8079V85.3658V83.9304V82.5016V81.0795V79.6641V78.2556V76.8538V75.4588V74.0707V72.6895V71.3151V69.9478V68.5874V67.234V65.8876V64.5484V63.2162V61.8911V60.5732V59.2625V57.959V56.6628V55.3738V54.0921V52.8178V51.5509V50.2913V49.0392V47.7946V46.5574V45.3278V44.1057V42.8912V41.6843V40.485V39.2935V38.1096V36.9335V35.7651V34.6045V33.4518V32.3069V31.1699V30.0408V28.9197V27.8065V26.7013V25.6042V24.5152V23.4342V22.3614V21.2967V20.2403V19.192V18.152V17.1203V16.0969V15.0818V14.0751V13.0768V12.087V11.1056V10.1327V9.1683V8.21247V7.26523V6.32661V5.39663V4.47532V3.56273V2.65886V1.76377V0.877471V0C2673.35 -55.2285 2718.12 -100 2773.35 -100ZM2197.14 2048.97C2185.13 2040.67 2168.06 2046.75 2164.58 2060.93C2128.28 2208.58 2072.56 2328.13 1980.9 2412.91C1949.1 2442.33 1919.94 2468.68 1893.06 2492.96C1815.06 2563.43 1756.3 2616.52 1707.91 2676.97C1648.25 2751.5 1606.38 2836.19 1583.17 2977.24C1567.63 3071.68 1626.15 3211.21 1776.87 3334.11C1922.81 3453.12 2138.61 3540.37 2390.29 3533.54C2502.51 3530.49 2593.09 3574.33 2661.06 3645.02C2726.2 3712.75 2768.51 3802.56 2796.96 3893.24C2800.11 3903.29 2803.12 3913.45 2806 3923.7C2823.52 3986.12 2904.69 4013.99 2957.92 3976.99C3020.37 3933.58 3085.37 3897.29 3145.17 3865.05C3166.07 3853.78 3186.33 3843.02 3205.92 3832.62C3293.19 3786.25 3367.09 3747 3424.04 3702.17C3489.98 3650.26 3512.15 3607.09 3509.18 3557.48C3505.43 3494.81 3491.43 3459.07 3476.09 3435.19C3460.05 3410.22 3437.4 3389.97 3401.43 3364.36C3391.74 3357.47 3381.18 3350.31 3369.92 3342.68C3298.86 3294.52 3200.38 3227.78 3123.97 3092.75C3047.69 2957.95 3047.3 2831.92 3047.63 2728.11L3047.64 2724.86C3047.98 2620.74 3048.24 2540.04 3005.37 2450.81C2967.91 2372.86 2904.3 2320.3 2818.1 2278.88C2739.04 2240.9 2649.3 2215.91 2551.76 2188.75C2539.34 2185.29 2526.8 2181.8 2514.13 2178.24C2408.26 2148.48 2289.89 2113.09 2197.14 2048.97V2048.97ZM2765 5193L2745 5193.27C2700.82 5193.86 2664.19 5235.29 2696.29 5265.66C2714.53 5282.91 2739.25 5293.35 2766.33 5292.99C2793.42 5292.63 2817.85 5281.53 2835.62 5263.8C2866.9 5232.59 2829.18 5192.14 2785 5192.73L2765 5193ZM3644.36 3327.09C3645.91 3329.5 3649.38 3329.68 3651.14 3327.41C3679.25 3291.07 3711.22 3250.69 3745.99 3208.38C3870.97 3056.3 4039.33 2870.19 4196.92 2762.05C4304.46 2688.25 4338.44 2619.72 4346.15 2559.48C4354.68 2492.86 4334.08 2415.64 4291.3 2320.52C4236.32 2198.29 4221.33 2105.03 4210.31 2025.24C4209.7 2020.8 4209.1 2016.44 4208.52 2012.14C4198.7 1940.54 4191.44 1887.55 4162.24 1822.39C4118.23 1724.16 4030.21 1667.1 3905.22 1631.18C3802.52 1601.67 3689.8 1590.28 3576.06 1578.79C3547.7 1575.92 3519.27 1573.05 3490.92 1569.88C3453.04 1565.66 3432.88 1575.57 3412.83 1596.02C3386.33 1623.05 3361.75 1668.03 3330.19 1738.11C3323.49 1752.98 3316.59 1768.79 3309.37 1785.34C3265.42 1886.04 3209.5 2014.18 3114.21 2125.22C3082.65 2161.99 3084.05 2218.39 3115.31 2255.41C3142.11 2287.16 3165.92 2323.15 3185.63 2364.19C3248.71 2495.45 3248.14 2616.98 3247.69 2715.2C3247.66 2719.77 3247.64 2724.29 3247.63 2728.76C3247.3 2831.14 3249.99 2909.35 3298.03 2994.25C3350.08 3086.22 3409.48 3127 3478.73 3174.53C3491.29 3183.16 3504.18 3192.01 3517.41 3201.43C3559.92 3231.68 3607.5 3269.72 3644.36 3327.09V3327.09Z" fill="#1B4A67"/>
</g>
</g>
<defs>
<clipPath id="clip0_2237_3693">
<rect width="5810" height="5925" fill="white"/>
</clipPath>
</defs>
</svg>
