<svg width="6961" height="6632" viewBox="0 0 6961 6632" fill="none" xmlns="http://www.w3.org/2000/svg">
<g id="hitbox" clip-path="url(#clip0_2237_3750)">
<g id="room0Road">
<path id="road" d="M3267.5 979C3267.5 1128 3267.5 1366 3267.5 1610C3267.5 1854 2591.09 2002.45 2613.15 2403.5C2638.74 2868.62 3387.9 2668.64 3589.65 3088.5C3698.98 3316.03 3580.83 3504.8 3705.15 3724.5C3855.15 3989.58 4084.94 3928.47 4103.15 4232.5C4126.15 4616.5 3253.15 4606.36 3253.15 5171.5C3253.15 5424 3259.15 5874 3259.15 5874M3259.15 5124C3259.15 4826 3213.93 4305.63 2887.15 4314.5C2334.65 4329.5 1930.94 3931.96 1978.65 3642C2030.15 3329 2171.9 3238.11 2407.15 3020.5C2527.15 2909.5 2579.65 2713 2609.65 2413M4104.65 4231C4104.65 4231 4457.65 3724.5 4747.65 3525.5C4997.81 3353.84 4966.07 3159.32 4876.65 2960.5C4778.15 2741.5 4838.23 2493.04 4768.65 2336C4726.12 2240 4265.15 2181.5 3996.15 2151.5C3716.34 2120.29 3753.15 2566.5 3460.65 2812.5" stroke="#1C506F" stroke-opacity="0.05" stroke-width="310" stroke-linecap="round"/>
</g>
<g id="tree1" clip-path="url(#clip1_2237_3750)">
<path id="Union" fill-rule="evenodd" clip-rule="evenodd" d="M3262.32 2398.69C3273.89 2398.07 3284.1 2394.12 3291.65 2386.57C3314.49 2363.73 3304.37 2316.59 3269.05 2281.27C3233.73 2245.95 3186.58 2235.83 3163.75 2258.66C3140.91 2281.5 3151.03 2328.64 3186.35 2363.96C3197.22 2374.84 3209.22 2383.32 3221.28 2389.19C3206.11 2389.69 3192.17 2395 3181.76 2405.4C3155.46 2431.7 3161.75 2480.63 3195.8 2514.69C3229.86 2548.74 3278.79 2555.03 3305.09 2528.73C3331.39 2502.43 3325.1 2453.5 3291.05 2419.44C3282.25 2410.65 3272.46 2403.7 3262.32 2398.69ZM3151.35 2487.45C3131.76 2507.04 3094.26 2501.32 3067.6 2474.65C3040.94 2447.99 3035.21 2410.49 3054.8 2390.9C3074.4 2371.3 3111.9 2377.03 3138.56 2403.69C3165.22 2430.36 3170.95 2467.85 3151.35 2487.45Z" fill="black" fill-opacity="0.15"/>
<circle id="Ellipse 1" cx="3202.15" cy="2428.79" r="72.0544" fill="#63A45E"/>
<circle id="Ellipse 1_2" cx="3067.04" cy="2402.04" r="57.0431" fill="#86B557"/>
<circle id="Ellipse 1_3" cx="3184.13" cy="2282.05" r="63.0476" fill="#73AE65"/>
<rect id="Rectangle 2165" x="3010" y="2219" width="5" height="5" fill="#A4C424" fill-opacity="0.01"/>
</g>
<g id="tree1_2" clip-path="url(#clip2_2237_3750)">
<path id="Union_2" fill-rule="evenodd" clip-rule="evenodd" d="M4913.32 4832.69C4924.89 4832.07 4935.1 4828.12 4942.65 4820.57C4965.49 4797.73 4955.37 4750.59 4920.05 4715.27C4884.73 4679.95 4837.58 4669.83 4814.75 4692.66C4791.91 4715.5 4802.03 4762.64 4837.35 4797.96C4848.22 4808.84 4860.22 4817.32 4872.28 4823.19C4857.11 4823.69 4843.17 4829 4832.76 4839.4C4806.46 4865.7 4812.75 4914.63 4846.8 4948.69C4880.86 4982.74 4929.79 4989.03 4956.09 4962.73C4982.39 4936.43 4976.1 4887.5 4942.05 4853.44C4933.25 4844.65 4923.46 4837.7 4913.32 4832.69ZM4802.35 4921.45C4782.76 4941.04 4745.26 4935.32 4718.6 4908.65C4691.94 4881.99 4686.21 4844.49 4705.8 4824.9C4725.4 4805.3 4762.9 4811.03 4789.56 4837.69C4816.22 4864.36 4821.95 4901.85 4802.35 4921.45Z" fill="black" fill-opacity="0.15"/>
<circle id="Ellipse 1_4" cx="4853.15" cy="4862.79" r="72.0544" fill="#63A45E"/>
<circle id="Ellipse 1_5" cx="4718.04" cy="4836.04" r="57.0431" fill="#86B557"/>
<circle id="Ellipse 1_6" cx="4835.13" cy="4716.05" r="63.0476" fill="#73AE65"/>
<rect id="Rectangle 2165_2" x="4661" y="4653" width="5" height="5" fill="#A4C424" fill-opacity="0.01"/>
</g>
<g id="tree1_3" clip-path="url(#clip3_2237_3750)">
<path id="Union_3" fill-rule="evenodd" clip-rule="evenodd" d="M4697.32 4357.69C4708.89 4357.07 4719.1 4353.12 4726.65 4345.57C4749.49 4322.73 4739.37 4275.59 4704.05 4240.27C4668.73 4204.95 4621.58 4194.83 4598.75 4217.66C4575.91 4240.5 4586.03 4287.64 4621.35 4322.96C4632.22 4333.84 4644.22 4342.32 4656.28 4348.19C4641.11 4348.69 4627.17 4354 4616.76 4364.4C4590.46 4390.7 4596.75 4439.63 4630.8 4473.69C4664.86 4507.74 4713.79 4514.03 4740.09 4487.73C4766.39 4461.43 4760.1 4412.5 4726.05 4378.44C4717.25 4369.65 4707.46 4362.7 4697.32 4357.69ZM4586.35 4446.45C4566.76 4466.04 4529.26 4460.32 4502.6 4433.65C4475.94 4406.99 4470.21 4369.49 4489.8 4349.9C4509.4 4330.3 4546.9 4336.03 4573.56 4362.69C4600.22 4389.36 4605.95 4426.85 4586.35 4446.45Z" fill="black" fill-opacity="0.15"/>
<circle id="Ellipse 1_7" cx="4637.15" cy="4387.79" r="72.0544" fill="#63A45E"/>
<circle id="Ellipse 1_8" cx="4502.04" cy="4361.04" r="57.0431" fill="#86B557"/>
<circle id="Ellipse 1_9" cx="4619.13" cy="4241.05" r="63.0476" fill="#73AE65"/>
<rect id="Rectangle 2165_3" x="4445" y="4178" width="5" height="5" fill="#A4C424" fill-opacity="0.01"/>
</g>
<g id="tree1_4" clip-path="url(#clip4_2237_3750)">
<path id="Union_4" fill-rule="evenodd" clip-rule="evenodd" d="M2980.32 4890.69C2991.89 4890.07 3002.1 4886.12 3009.65 4878.57C3032.49 4855.73 3022.37 4808.59 2987.05 4773.27C2951.73 4737.95 2904.58 4727.83 2881.75 4750.66C2858.91 4773.5 2869.03 4820.64 2904.35 4855.96C2915.22 4866.84 2927.22 4875.32 2939.28 4881.19C2924.11 4881.69 2910.17 4887 2899.76 4897.4C2873.46 4923.7 2879.75 4972.63 2913.8 5006.69C2947.86 5040.74 2996.79 5047.03 3023.09 5020.73C3049.39 4994.43 3043.1 4945.5 3009.05 4911.44C3000.25 4902.65 2990.46 4895.7 2980.32 4890.69ZM2869.35 4979.45C2849.76 4999.04 2812.26 4993.32 2785.6 4966.65C2758.94 4939.99 2753.21 4902.49 2772.8 4882.9C2792.4 4863.3 2829.9 4869.03 2856.56 4895.69C2883.22 4922.36 2888.95 4959.85 2869.35 4979.45Z" fill="black" fill-opacity="0.15"/>
<circle id="Ellipse 1_10" cx="2920.15" cy="4920.79" r="72.0544" fill="#63A45E"/>
<circle id="Ellipse 1_11" cx="2785.04" cy="4894.04" r="57.0431" fill="#86B557"/>
<circle id="Ellipse 1_12" cx="2902.13" cy="4774.05" r="63.0476" fill="#73AE65"/>
<rect id="Rectangle 2165_4" x="2728" y="4711" width="5" height="5" fill="#A4C424" fill-opacity="0.01"/>
</g>
<g id="tree2">
<path id="Union_5" fill-rule="evenodd" clip-rule="evenodd" d="M3486.23 4307.36C3499.83 4307.53 3511.7 4303.61 3520.15 4295.15C3523.94 4291.36 3526.82 4286.88 3528.83 4281.87C3531.89 4285.63 3535.2 4289.32 3538.78 4292.9C3572.83 4326.95 3617.27 4337.73 3638.04 4316.97C3658.8 4296.2 3648.03 4251.76 3613.97 4217.71C3579.92 4183.65 3535.48 4172.88 3514.71 4193.64C3512.78 4195.58 3511.11 4197.72 3509.72 4200.04C3504.25 4192.22 3497.84 4184.55 3490.56 4177.26C3449.83 4136.54 3397.05 4123.29 3372.67 4147.67C3348.29 4172.05 3361.54 4224.83 3402.27 4265.56C3405.83 4269.12 3409.48 4272.47 3413.2 4275.61C3405.27 4276.71 3398.34 4279.83 3393.04 4285.13C3373.45 4304.73 3383.6 4346.65 3415.71 4378.76C3447.82 4410.87 3489.74 4421.02 3509.34 4401.43C3528.93 4381.83 3518.78 4339.91 3486.67 4307.8C3486.52 4307.65 3486.38 4307.51 3486.23 4307.36Z" fill="black" fill-opacity="0.15"/>
<circle id="Ellipse 1_13" cx="3537.23" cy="4219.16" r="60.0454" fill="#63A45E"/>
<circle id="Ellipse 1_14" cx="3414.07" cy="4306.16" r="54.0408" fill="#73AE65"/>
<circle id="Ellipse 1_15" cx="3393.05" cy="4171.05" r="72.0544" fill="#86B557"/>
<rect id="Rectangle 2165_5" x="3321" y="4099" width="5" height="5" fill="#A4C424" fill-opacity="0.01"/>
</g>
<g id="tree2_2">
<path id="Union_6" fill-rule="evenodd" clip-rule="evenodd" d="M2158.23 2014.36C2171.83 2014.54 2183.7 2010.61 2192.15 2002.15C2195.94 1998.36 2198.82 1993.88 2200.83 1988.87C2203.89 1992.63 2207.2 1996.32 2210.78 1999.9C2244.83 2033.95 2289.27 2044.73 2310.04 2023.97C2330.8 2003.2 2320.03 1958.76 2285.97 1924.71C2251.92 1890.65 2207.48 1879.88 2186.71 1900.64C2184.78 1902.58 2183.11 1904.72 2181.72 1907.04C2176.25 1899.22 2169.84 1891.55 2162.56 1884.26C2121.83 1843.54 2069.05 1830.29 2044.67 1854.67C2020.29 1879.05 2033.54 1931.83 2074.27 1972.56C2077.83 1976.12 2081.48 1979.47 2085.2 1982.61C2077.27 1983.71 2070.34 1986.83 2065.04 1992.13C2045.45 2011.73 2055.6 2053.65 2087.71 2085.76C2119.82 2117.87 2161.74 2128.02 2181.34 2108.43C2200.93 2088.83 2190.78 2046.91 2158.67 2014.8C2158.52 2014.65 2158.38 2014.51 2158.23 2014.36Z" fill="black" fill-opacity="0.15"/>
<circle id="Ellipse 1_16" cx="2209.23" cy="1926.16" r="60.0454" fill="#63A45E"/>
<circle id="Ellipse 1_17" cx="2086.07" cy="2013.16" r="54.0408" fill="#73AE65"/>
<circle id="Ellipse 1_18" cx="2065.05" cy="1878.05" r="72.0544" fill="#86B557"/>
<rect id="Rectangle 2165_6" x="1993" y="1806" width="5" height="5" fill="#A4C424" fill-opacity="0.01"/>
</g>
<g id="tree6" clip-path="url(#clip5_2237_3750)">
<path id="Union_7" d="M1967.02 4236.31C1948.94 4254.38 1907.2 4241.95 1873.79 4208.54C1840.38 4175.12 1827.94 4133.39 1846.02 4115.31C1864.09 4097.24 1905.83 4109.67 1939.24 4143.08C1972.66 4176.5 1985.09 4218.24 1967.02 4236.31Z" fill="black" fill-opacity="0.15"/>
<circle id="Ellipse 1_19" cx="1867" cy="4136.29" r="53" fill="#86B557"/>
<rect id="Rectangle 2165_7" x="1807" y="4076" width="5" height="5" fill="#A4C424" fill-opacity="0.01"/>
</g>
<g id="tree6_2" clip-path="url(#clip6_2237_3750)">
<path id="Union_8" d="M2369.02 2758.31C2350.94 2776.38 2309.2 2763.95 2275.79 2730.54C2242.38 2697.12 2229.94 2655.39 2248.02 2637.31C2266.09 2619.24 2307.83 2631.67 2341.24 2665.08C2374.66 2698.5 2387.09 2740.24 2369.02 2758.31Z" fill="black" fill-opacity="0.15"/>
<circle id="Ellipse 1_20" cx="2269" cy="2658.29" r="53" fill="#86B557"/>
<rect id="Rectangle 2165_8" x="2209" y="2598" width="5" height="5" fill="#A4C424" fill-opacity="0.01"/>
</g>
<g id="tree6_3" clip-path="url(#clip7_2237_3750)">
<path id="Union_9" d="M3385.02 3271.31C3366.94 3289.38 3325.2 3276.95 3291.79 3243.54C3258.38 3210.12 3245.94 3168.39 3264.02 3150.31C3282.09 3132.24 3323.83 3144.67 3357.24 3178.08C3390.66 3211.5 3403.09 3253.24 3385.02 3271.31Z" fill="black" fill-opacity="0.15"/>
<circle id="Ellipse 1_21" cx="3285" cy="3171.29" r="53" fill="#86B557"/>
<rect id="Rectangle 2165_9" x="3225" y="3111" width="5" height="5" fill="#A4C424" fill-opacity="0.01"/>
</g>
<g id="tree6_4" clip-path="url(#clip8_2237_3750)">
<path id="Union_10" d="M4703.02 2946.31C4684.94 2964.38 4643.2 2951.95 4609.79 2918.54C4576.38 2885.12 4563.94 2843.39 4582.02 2825.31C4600.09 2807.24 4641.83 2819.67 4675.24 2853.08C4708.66 2886.5 4721.09 2928.24 4703.02 2946.31Z" fill="black" fill-opacity="0.15"/>
<circle id="Ellipse 1_22" cx="4603" cy="2846.29" r="53" fill="#86B557"/>
<rect id="Rectangle 2165_10" x="4543" y="2786" width="5" height="5" fill="#A4C424" fill-opacity="0.01"/>
</g>
<g id="tree6_5" clip-path="url(#clip9_2237_3750)">
<path id="Union_11" d="M3809.02 4279.31C3790.94 4297.38 3749.2 4284.95 3715.79 4251.54C3682.38 4218.12 3669.94 4176.39 3688.02 4158.31C3706.09 4140.24 3747.83 4152.67 3781.24 4186.08C3814.66 4219.5 3827.09 4261.24 3809.02 4279.31Z" fill="black" fill-opacity="0.15"/>
<circle id="Ellipse 1_23" cx="3709" cy="4179.29" r="53" fill="#86B557"/>
<rect id="Rectangle 2165_11" x="3649" y="4119" width="5" height="5" fill="#A4C424" fill-opacity="0.01"/>
</g>
<g id="tree6_6" clip-path="url(#clip10_2237_3750)">
<path id="Union_12" d="M5147.02 2529.31C5128.94 2547.38 5087.2 2534.95 5053.79 2501.54C5020.38 2468.12 5007.94 2426.39 5026.02 2408.31C5044.09 2390.24 5085.83 2402.67 5119.24 2436.08C5152.66 2469.5 5165.09 2511.24 5147.02 2529.31Z" fill="black" fill-opacity="0.15"/>
<circle id="Ellipse 1_24" cx="5047" cy="2429.29" r="53" fill="#86B557"/>
<rect id="Rectangle 2165_12" x="4987" y="2369" width="5" height="5" fill="#A4C424" fill-opacity="0.01"/>
</g>
<g id="tree6_7" clip-path="url(#clip11_2237_3750)">
<path id="Union_13" d="M3768.02 5150.31C3749.94 5168.38 3708.2 5155.95 3674.79 5122.54C3641.38 5089.12 3628.94 5047.39 3647.02 5029.31C3665.09 5011.24 3706.83 5023.67 3740.24 5057.08C3773.66 5090.5 3786.09 5132.24 3768.02 5150.31Z" fill="black" fill-opacity="0.15"/>
<circle id="Ellipse 1_25" cx="3668" cy="5050.29" r="53" fill="#86B557"/>
<rect id="Rectangle 2165_13" x="3608" y="4990" width="5" height="5" fill="#A4C424" fill-opacity="0.01"/>
</g>
<g id="tree5" clip-path="url(#clip12_2237_3750)">
<path id="Union_14" d="M2583.55 4684.55C2561.82 4706.28 2517.36 4697.06 2484.26 4663.95C2451.15 4630.85 2441.93 4586.4 2463.67 4564.66C2485.4 4542.93 2529.85 4552.15 2562.96 4585.25C2596.06 4618.36 2605.28 4662.81 2583.55 4684.55Z" fill="black" fill-opacity="0.15"/>
<circle id="Ellipse 1_26" cx="2484.05" cy="4588.05" r="66.0499" fill="#63A45E"/>
<rect id="Rectangle 2165_14" x="2418" y="4522" width="5" height="5" fill="#A4C424" fill-opacity="0.01"/>
</g>
<g id="tree5_2" clip-path="url(#clip13_2237_3750)">
<path id="Union_15" d="M4259.55 3681.55C4237.82 3703.28 4193.36 3694.06 4160.26 3660.95C4127.15 3627.85 4117.93 3583.4 4139.67 3561.66C4161.4 3539.93 4205.85 3549.15 4238.96 3582.25C4272.06 3615.36 4281.28 3659.81 4259.55 3681.55Z" fill="black" fill-opacity="0.15"/>
<circle id="Ellipse 1_27" cx="4160.05" cy="3585.05" r="66.0499" fill="#63A45E"/>
<rect id="Rectangle 2165_15" x="4094" y="3519" width="5" height="5" fill="#A4C424" fill-opacity="0.01"/>
</g>
<g id="tree5_3" clip-path="url(#clip14_2237_3750)">
<path id="Union_16" d="M1759.55 4019.55C1737.82 4041.28 1693.36 4032.06 1660.26 3998.95C1627.15 3965.85 1617.93 3921.4 1639.67 3899.66C1661.4 3877.93 1705.85 3887.15 1738.96 3920.25C1772.06 3953.36 1781.28 3997.81 1759.55 4019.55Z" fill="black" fill-opacity="0.15"/>
<circle id="Ellipse 1_28" cx="1660.05" cy="3923.05" r="66.0499" fill="#63A45E"/>
<rect id="Rectangle 2165_16" x="1594" y="3857" width="5" height="5" fill="#A4C424" fill-opacity="0.01"/>
</g>
<g id="tree5_4" clip-path="url(#clip15_2237_3750)">
<path id="Union_17" d="M1788.55 3524.55C1766.82 3546.28 1722.36 3537.06 1689.26 3503.95C1656.15 3470.85 1646.93 3426.4 1668.67 3404.66C1690.4 3382.93 1734.85 3392.15 1767.96 3425.25C1801.06 3458.36 1810.28 3502.81 1788.55 3524.55Z" fill="black" fill-opacity="0.15"/>
<circle id="Ellipse 1_29" cx="1689.05" cy="3428.05" r="66.0499" fill="#63A45E"/>
<rect id="Rectangle 2165_17" x="1623" y="3362" width="5" height="5" fill="#A4C424" fill-opacity="0.01"/>
</g>
<g id="tree5_5" clip-path="url(#clip16_2237_3750)">
<path id="Union_18" d="M5123.55 4635.55C5101.82 4657.28 5057.36 4648.06 5024.26 4614.95C4991.15 4581.85 4981.93 4537.4 5003.67 4515.66C5025.4 4493.93 5069.85 4503.15 5102.96 4536.25C5136.06 4569.36 5145.28 4613.81 5123.55 4635.55Z" fill="black" fill-opacity="0.15"/>
<circle id="Ellipse 1_30" cx="5024.05" cy="4539.05" r="66.0499" fill="#63A45E"/>
<rect id="Rectangle 2165_18" x="4958" y="4473" width="5" height="5" fill="#A4C424" fill-opacity="0.01"/>
</g>
<g id="tree5_6" clip-path="url(#clip17_2237_3750)">
<path id="Union_19" d="M5166.55 2700.55C5144.82 2722.28 5100.36 2713.06 5067.26 2679.95C5034.15 2646.85 5024.93 2602.4 5046.67 2580.66C5068.4 2558.93 5112.85 2568.15 5145.96 2601.25C5179.06 2634.36 5188.28 2678.81 5166.55 2700.55Z" fill="black" fill-opacity="0.15"/>
<circle id="Ellipse 1_31" cx="5067.05" cy="2604.05" r="66.0499" fill="#63A45E"/>
<rect id="Rectangle 2165_19" x="5001" y="2538" width="5" height="5" fill="#A4C424" fill-opacity="0.01"/>
</g>
<g id="tree5_7" clip-path="url(#clip18_2237_3750)">
<path id="Union_20" d="M3551.55 2382.55C3529.82 2404.28 3485.36 2395.06 3452.26 2361.95C3419.15 2328.85 3409.93 2284.4 3431.67 2262.66C3453.4 2240.93 3497.85 2250.15 3530.96 2283.25C3564.06 2316.36 3573.28 2360.81 3551.55 2382.55Z" fill="black" fill-opacity="0.15"/>
<circle id="Ellipse 1_32" cx="3452.05" cy="2286.05" r="66.0499" fill="#63A45E"/>
<rect id="Rectangle 2165_20" x="3386" y="2220" width="5" height="5" fill="#A4C424" fill-opacity="0.01"/>
</g>
<g id="tree5_8" clip-path="url(#clip19_2237_3750)">
<path id="Union_21" d="M3917.55 1932.55C3895.82 1954.28 3851.36 1945.06 3818.26 1911.95C3785.15 1878.85 3775.93 1834.4 3797.67 1812.66C3819.4 1790.93 3863.85 1800.15 3896.96 1833.25C3930.06 1866.36 3939.28 1910.81 3917.55 1932.55Z" fill="black" fill-opacity="0.15"/>
<circle id="Ellipse 1_33" cx="3818.05" cy="1836.05" r="66.0499" fill="#63A45E"/>
<rect id="Rectangle 2165_21" x="3752" y="1770" width="5" height="5" fill="#A4C424" fill-opacity="0.01"/>
</g>
<g id="tree5_9" clip-path="url(#clip20_2237_3750)">
<path id="Union_22" d="M2486.55 1818.55C2464.82 1840.28 2420.36 1831.06 2387.26 1797.95C2354.15 1764.85 2344.93 1720.4 2366.67 1698.66C2388.4 1676.93 2432.85 1686.15 2465.96 1719.25C2499.06 1752.36 2508.28 1796.81 2486.55 1818.55Z" fill="black" fill-opacity="0.15"/>
<circle id="Ellipse 1_34" cx="2387.05" cy="1722.05" r="66.0499" fill="#63A45E"/>
<rect id="Rectangle 2165_22" x="2321" y="1656" width="5" height="5" fill="#A4C424" fill-opacity="0.01"/>
</g>
<g id="tree4">
<path id="Union_23" fill-rule="evenodd" clip-rule="evenodd" d="M2341.08 2355.36C2361.88 2359.77 2381.49 2355.94 2394.51 2342.92C2419.29 2318.14 2410.79 2269.47 2375.53 2234.2C2340.27 2198.94 2291.59 2190.44 2266.81 2215.22C2242.03 2240 2250.53 2288.68 2285.79 2323.94C2286.76 2324.91 2287.74 2325.86 2288.73 2326.78C2274.11 2324.77 2260.74 2328.03 2251.63 2337.14C2231.96 2356.82 2239.56 2396.32 2268.61 2425.37C2297.67 2454.43 2337.17 2462.03 2356.84 2442.36C2376.24 2422.96 2369.12 2384.29 2341.08 2355.36Z" fill="black" fill-opacity="0.15"/>
<circle id="Ellipse 1_35" cx="2270.05" cy="2355.56" r="54.0408" fill="#86B557"/>
<circle id="Ellipse 1_36" cx="2279.05" cy="2223.46" r="72.0544" fill="#73AE65"/>
<rect id="Rectangle 2165_23" x="2207" y="2151" width="5" height="5" fill="#A4C424" fill-opacity="0.01"/>
</g>
<g id="tree4_2">
<path id="Union_24" fill-rule="evenodd" clip-rule="evenodd" d="M2363.08 3723.36C2383.88 3727.77 2403.49 3723.94 2416.51 3710.92C2441.29 3686.14 2432.79 3637.47 2397.53 3602.2C2362.27 3566.94 2313.59 3558.44 2288.81 3583.22C2264.03 3608 2272.53 3656.68 2307.79 3691.94C2308.76 3692.91 2309.74 3693.86 2310.73 3694.78C2296.11 3692.77 2282.74 3696.03 2273.63 3705.14C2253.96 3724.82 2261.56 3764.32 2290.61 3793.37C2319.67 3822.43 2359.17 3830.03 2378.84 3810.36C2398.24 3790.96 2391.12 3752.29 2363.08 3723.36Z" fill="black" fill-opacity="0.15"/>
<circle id="Ellipse 1_37" cx="2292.05" cy="3723.56" r="54.0408" fill="#86B557"/>
<circle id="Ellipse 1_38" cx="2301.05" cy="3591.46" r="72.0544" fill="#73AE65"/>
<rect id="Rectangle 2165_24" x="2229" y="3519" width="5" height="5" fill="#A4C424" fill-opacity="0.01"/>
</g>
<g id="tree4_3">
<path id="Union_25" fill-rule="evenodd" clip-rule="evenodd" d="M4085.08 4933.36C4105.88 4937.77 4125.49 4933.94 4138.51 4920.92C4163.29 4896.14 4154.79 4847.47 4119.53 4812.2C4084.27 4776.94 4035.59 4768.44 4010.81 4793.22C3986.03 4818 3994.53 4866.68 4029.79 4901.94C4030.76 4902.91 4031.74 4903.86 4032.73 4904.78C4018.11 4902.77 4004.74 4906.03 3995.63 4915.14C3975.96 4934.82 3983.56 4974.32 4012.61 5003.37C4041.67 5032.43 4081.17 5040.03 4100.84 5020.36C4120.24 5000.96 4113.12 4962.29 4085.08 4933.36Z" fill="black" fill-opacity="0.15"/>
<circle id="Ellipse 1_39" cx="4014.05" cy="4933.56" r="54.0408" fill="#86B557"/>
<circle id="Ellipse 1_40" cx="4023.05" cy="4801.46" r="72.0544" fill="#73AE65"/>
<rect id="Rectangle 2165_25" x="3951" y="4729" width="5" height="5" fill="#A4C424" fill-opacity="0.01"/>
</g>
<g id="tree4_4">
<path id="Union_26" fill-rule="evenodd" clip-rule="evenodd" d="M2489.08 5071.36C2509.88 5075.77 2529.49 5071.94 2542.51 5058.92C2567.29 5034.14 2558.79 4985.47 2523.53 4950.2C2488.27 4914.94 2439.59 4906.44 2414.81 4931.22C2390.03 4956 2398.53 5004.68 2433.79 5039.94C2434.76 5040.91 2435.74 5041.86 2436.73 5042.78C2422.11 5040.77 2408.74 5044.03 2399.63 5053.14C2379.96 5072.82 2387.56 5112.32 2416.61 5141.37C2445.67 5170.43 2485.17 5178.03 2504.84 5158.36C2524.24 5138.96 2517.12 5100.29 2489.08 5071.36Z" fill="black" fill-opacity="0.15"/>
<circle id="Ellipse 1_41" cx="2418.05" cy="5071.56" r="54.0408" fill="#86B557"/>
<circle id="Ellipse 1_42" cx="2427.05" cy="4939.46" r="72.0544" fill="#73AE65"/>
<rect id="Rectangle 2165_26" x="2355" y="4867" width="5" height="5" fill="#A4C424" fill-opacity="0.01"/>
</g>
<g id="tree4_5">
<path id="Union_27" fill-rule="evenodd" clip-rule="evenodd" d="M4031.08 3511.36C4051.88 3515.77 4071.49 3511.94 4084.51 3498.92C4109.29 3474.14 4100.79 3425.47 4065.53 3390.2C4030.27 3354.94 3981.59 3346.44 3956.81 3371.22C3932.03 3396 3940.53 3444.68 3975.79 3479.94C3976.76 3480.91 3977.74 3481.86 3978.73 3482.78C3964.11 3480.77 3950.74 3484.03 3941.63 3493.14C3921.96 3512.82 3929.56 3552.32 3958.61 3581.37C3987.67 3610.43 4027.17 3618.03 4046.84 3598.36C4066.24 3578.96 4059.12 3540.29 4031.08 3511.36Z" fill="black" fill-opacity="0.15"/>
<circle id="Ellipse 1_43" cx="3960.05" cy="3511.56" r="54.0408" fill="#86B557"/>
<circle id="Ellipse 1_44" cx="3969.05" cy="3379.46" r="72.0544" fill="#73AE65"/>
<rect id="Rectangle 2165_27" x="3897" y="3307" width="5" height="5" fill="#A4C424" fill-opacity="0.01"/>
</g>
<g id="tree4_6">
<path id="Union_28" fill-rule="evenodd" clip-rule="evenodd" d="M5267.08 3348.36C5287.88 3352.77 5307.49 3348.94 5320.51 3335.92C5345.29 3311.14 5336.79 3262.47 5301.53 3227.2C5266.27 3191.94 5217.59 3183.44 5192.81 3208.22C5168.03 3233 5176.53 3281.68 5211.79 3316.94C5212.76 3317.91 5213.74 3318.86 5214.73 3319.78C5200.11 3317.77 5186.74 3321.03 5177.63 3330.14C5157.96 3349.82 5165.56 3389.32 5194.61 3418.37C5223.67 3447.43 5263.17 3455.03 5282.84 3435.36C5302.24 3415.96 5295.12 3377.29 5267.08 3348.36Z" fill="black" fill-opacity="0.15"/>
<circle id="Ellipse 1_45" cx="5196.05" cy="3348.56" r="54.0408" fill="#86B557"/>
<circle id="Ellipse 1_46" cx="5205.05" cy="3216.46" r="72.0544" fill="#73AE65"/>
<rect id="Rectangle 2165_28" x="5133" y="3144" width="5" height="5" fill="#A4C424" fill-opacity="0.01"/>
</g>
<g id="tree3" clip-path="url(#clip21_2237_3750)">
<path id="Union_29" fill-rule="evenodd" clip-rule="evenodd" d="M2792.28 3059.31C2830.73 3097.76 2881.61 3109.23 2905.92 3084.92C2910.95 3079.88 2914.45 3073.7 2916.5 3066.74C2917.02 3067.28 2917.56 3067.82 2918.1 3068.36C2946.81 3097.08 2984.71 3105.73 3002.75 3087.69C3020.79 3069.65 3012.14 3031.74 2983.43 3003.03C2954.71 2974.32 2916.81 2965.67 2898.77 2983.71C2897.36 2985.12 2896.11 2986.65 2895.03 2988.29C2890.68 2982.44 2885.77 2976.73 2880.31 2971.28C2841.86 2932.82 2790.98 2921.36 2766.67 2945.67C2742.36 2969.98 2753.83 3020.86 2792.28 3059.31Z" fill="black" fill-opacity="0.15"/>
<circle id="Ellipse 1_47" cx="2919.15" cy="3007.46" r="54.0408" fill="#73AE65"/>
<circle id="Ellipse 1_48" cx="2787.05" cy="2969.05" r="72.0544" fill="#63A45E"/>
<rect id="Rectangle 2165_29" x="2715" y="2897" width="5" height="5" fill="#A4C424" fill-opacity="0.01"/>
</g>
<g id="tree3_2" clip-path="url(#clip22_2237_3750)">
<path id="Union_30" fill-rule="evenodd" clip-rule="evenodd" d="M3328.28 2112.31C3366.73 2150.76 3417.61 2162.23 3441.92 2137.92C3446.95 2132.88 3450.45 2126.7 3452.5 2119.74C3453.02 2120.28 3453.56 2120.82 3454.1 2121.36C3482.81 2150.08 3520.71 2158.73 3538.75 2140.69C3556.79 2122.65 3548.14 2084.74 3519.43 2056.03C3490.71 2027.32 3452.81 2018.67 3434.77 2036.71C3433.36 2038.12 3432.11 2039.65 3431.03 2041.29C3426.68 2035.44 3421.77 2029.73 3416.31 2024.28C3377.86 1985.82 3326.98 1974.36 3302.67 1998.67C3278.36 2022.98 3289.83 2073.86 3328.28 2112.31Z" fill="black" fill-opacity="0.15"/>
<circle id="Ellipse 1_49" cx="3455.15" cy="2060.46" r="54.0408" fill="#73AE65"/>
<circle id="Ellipse 1_50" cx="3323.05" cy="2022.05" r="72.0544" fill="#63A45E"/>
<rect id="Rectangle 2165_30" x="3251" y="1950" width="5" height="5" fill="#A4C424" fill-opacity="0.01"/>
</g>
<g id="tree3_3" clip-path="url(#clip23_2237_3750)">
<path id="Union_31" fill-rule="evenodd" clip-rule="evenodd" d="M4405.28 4738.31C4443.73 4776.76 4494.61 4788.23 4518.92 4763.92C4523.95 4758.88 4527.45 4752.7 4529.5 4745.73C4530.02 4746.28 4530.56 4746.82 4531.1 4747.36C4559.81 4776.08 4597.71 4784.73 4615.75 4766.69C4633.79 4748.65 4625.14 4710.74 4596.43 4682.03C4567.71 4653.32 4529.81 4644.67 4511.77 4662.71C4510.36 4664.12 4509.11 4665.65 4508.03 4667.29C4503.68 4661.44 4498.77 4655.73 4493.31 4650.27C4454.86 4611.82 4403.98 4600.36 4379.67 4624.67C4355.36 4648.98 4366.83 4699.86 4405.28 4738.31Z" fill="black" fill-opacity="0.15"/>
<circle id="Ellipse 1_51" cx="4532.15" cy="4686.46" r="54.0408" fill="#73AE65"/>
<circle id="Ellipse 1_52" cx="4400.05" cy="4648.05" r="72.0544" fill="#63A45E"/>
<rect id="Rectangle 2165_31" x="4328" y="4576" width="5" height="5" fill="#A4C424" fill-opacity="0.01"/>
</g>
<g id="tree3_4" clip-path="url(#clip24_2237_3750)">
<path id="Union_32" fill-rule="evenodd" clip-rule="evenodd" d="M3368.28 4015.31C3406.73 4053.76 3457.61 4065.23 3481.92 4040.92C3486.95 4035.88 3490.45 4029.7 3492.5 4022.74C3493.02 4023.28 3493.56 4023.82 3494.1 4024.36C3522.81 4053.08 3560.71 4061.73 3578.75 4043.69C3596.79 4025.65 3588.14 3987.74 3559.43 3959.03C3530.71 3930.32 3492.81 3921.67 3474.77 3939.71C3473.36 3941.12 3472.11 3942.65 3471.03 3944.29C3466.68 3938.44 3461.77 3932.73 3456.31 3927.28C3417.86 3888.82 3366.98 3877.36 3342.67 3901.67C3318.36 3925.98 3329.83 3976.86 3368.28 4015.31Z" fill="black" fill-opacity="0.15"/>
<circle id="Ellipse 1_53" cx="3495.15" cy="3963.46" r="54.0408" fill="#73AE65"/>
<circle id="Ellipse 1_54" cx="3363.05" cy="3925.05" r="72.0544" fill="#63A45E"/>
<rect id="Rectangle 2165_32" x="3291" y="3853" width="5" height="5" fill="#A4C424" fill-opacity="0.01"/>
</g>
<g id="tree3_5" clip-path="url(#clip25_2237_3750)">
<path id="Union_33" fill-rule="evenodd" clip-rule="evenodd" d="M4051.28 1891.31C4089.73 1929.76 4140.61 1941.23 4164.92 1916.92C4169.95 1911.88 4173.45 1905.7 4175.5 1898.74C4176.02 1899.28 4176.56 1899.82 4177.1 1900.36C4205.81 1929.08 4243.71 1937.73 4261.75 1919.69C4279.79 1901.65 4271.14 1863.74 4242.43 1835.03C4213.71 1806.32 4175.81 1797.67 4157.77 1815.71C4156.36 1817.12 4155.11 1818.65 4154.03 1820.29C4149.68 1814.44 4144.77 1808.73 4139.31 1803.28C4100.86 1764.82 4049.98 1753.36 4025.67 1777.67C4001.36 1801.98 4012.83 1852.86 4051.28 1891.31Z" fill="black" fill-opacity="0.15"/>
<circle id="Ellipse 1_55" cx="4178.15" cy="1839.46" r="54.0408" fill="#73AE65"/>
<circle id="Ellipse 1_56" cx="4046.05" cy="1801.05" r="72.0544" fill="#63A45E"/>
<rect id="Rectangle 2165_33" x="3974" y="1729" width="5" height="5" fill="#A4C424" fill-opacity="0.01"/>
</g>
<g id="stone1" clip-path="url(#clip26_2237_3750)">
<path id="Vector 755" d="M2507.17 1998.14C2507.17 1988.65 2502.68 1979.72 2495.06 1974.06L2479.24 1962.31C2467.38 1953.5 2450.87 1954.64 2440.33 1965L2422.99 1982.04C2411.79 1993.05 2410.97 2010.82 2421.1 2022.8L2434.07 2038.15C2439.19 2044.21 2446.49 2047.99 2454.39 2048.68L2462.08 2049.35C2471.24 2050.14 2480.26 2046.7 2486.55 2040L2499.04 2026.7C2504.26 2021.13 2507.17 2013.79 2507.17 2006.16L2507.17 1998.14Z" fill="black" fill-opacity="0.15"/>
<rect id="Rectangle 1712" x="2434.66" y="1908" width="95.6841" height="95.6841" rx="27" transform="rotate(45 2434.66 1908)" fill="#476E86"/>
<rect id="Rectangle 2165_34" x="2377" y="1919" width="5" height="5" fill="#A4C424" fill-opacity="0.01"/>
</g>
<g id="stone1_2" clip-path="url(#clip27_2237_3750)">
<path id="Vector 755_2" d="M3640.17 1880.14C3640.17 1870.65 3635.68 1861.72 3628.06 1856.06L3612.24 1844.31C3600.38 1835.5 3583.87 1836.64 3573.33 1847L3555.99 1864.04C3544.79 1875.05 3543.97 1892.82 3554.1 1904.8L3567.07 1920.15C3572.19 1926.21 3579.49 1929.99 3587.39 1930.68L3595.08 1931.35C3604.24 1932.14 3613.26 1928.7 3619.55 1922L3632.04 1908.7C3637.26 1903.13 3640.17 1895.79 3640.17 1888.16L3640.17 1880.14Z" fill="black" fill-opacity="0.15"/>
<rect id="Rectangle 1712_2" x="3567.66" y="1790" width="95.6841" height="95.6841" rx="27" transform="rotate(45 3567.66 1790)" fill="#476E86"/>
<rect id="Rectangle 2165_35" x="3510" y="1801" width="5" height="5" fill="#A4C424" fill-opacity="0.01"/>
</g>
<g id="stone1_3" clip-path="url(#clip28_2237_3750)">
<path id="Vector 755_3" d="M3863.17 2898.14C3863.17 2888.65 3858.68 2879.72 3851.06 2874.06L3835.24 2862.31C3823.38 2853.5 3806.87 2854.64 3796.33 2865L3778.99 2882.04C3767.79 2893.05 3766.97 2910.82 3777.1 2922.8L3790.07 2938.15C3795.19 2944.21 3802.49 2947.99 3810.39 2948.68L3818.08 2949.35C3827.24 2950.14 3836.26 2946.7 3842.55 2940L3855.04 2926.7C3860.26 2921.13 3863.17 2913.79 3863.17 2906.16L3863.17 2898.14Z" fill="black" fill-opacity="0.15"/>
<rect id="Rectangle 1712_3" x="3790.66" y="2808" width="95.6841" height="95.6841" rx="27" transform="rotate(45 3790.66 2808)" fill="#476E86"/>
<rect id="Rectangle 2165_36" x="3733" y="2819" width="5" height="5" fill="#A4C424" fill-opacity="0.01"/>
</g>
<g id="stone1_4" clip-path="url(#clip29_2237_3750)">
<path id="Vector 755_4" d="M3302.17 4111.14C3302.17 4101.65 3297.68 4092.72 3290.06 4087.06L3274.24 4075.31C3262.38 4066.5 3245.87 4067.64 3235.33 4078L3217.99 4095.04C3206.79 4106.05 3205.97 4123.82 3216.1 4135.8L3229.07 4151.15C3234.19 4157.21 3241.49 4160.99 3249.39 4161.68L3257.08 4162.35C3266.24 4163.14 3275.26 4159.7 3281.55 4153L3294.04 4139.7C3299.26 4134.13 3302.17 4126.79 3302.17 4119.16L3302.17 4111.14Z" fill="black" fill-opacity="0.15"/>
<rect id="Rectangle 1712_4" x="3229.66" y="4021" width="95.6841" height="95.6841" rx="27" transform="rotate(45 3229.66 4021)" fill="#476E86"/>
<rect id="Rectangle 2165_37" x="3172" y="4032" width="5" height="5" fill="#A4C424" fill-opacity="0.01"/>
</g>
<g id="stone1_5" clip-path="url(#clip30_2237_3750)">
<path id="Vector 755_5" d="M2709.17 4795.14C2709.17 4785.65 2704.68 4776.72 2697.06 4771.06L2681.24 4759.31C2669.38 4750.5 2652.87 4751.64 2642.33 4762L2624.99 4779.04C2613.79 4790.05 2612.97 4807.82 2623.1 4819.8L2636.07 4835.15C2641.19 4841.21 2648.49 4844.99 2656.39 4845.68L2664.08 4846.35C2673.24 4847.14 2682.26 4843.7 2688.55 4837L2701.04 4823.7C2706.26 4818.13 2709.17 4810.79 2709.17 4803.16L2709.17 4795.14Z" fill="black" fill-opacity="0.15"/>
<rect id="Rectangle 1712_5" x="2636.66" y="4705" width="95.6841" height="95.6841" rx="27" transform="rotate(45 2636.66 4705)" fill="#476E86"/>
<rect id="Rectangle 2165_38" x="2579" y="4716" width="5" height="5" fill="#A4C424" fill-opacity="0.01"/>
</g>
<g id="stone1_6" clip-path="url(#clip31_2237_3750)">
<path id="Vector 755_6" d="M2956.17 5248.14C2956.17 5238.65 2951.68 5229.72 2944.06 5224.06L2928.24 5212.31C2916.38 5203.5 2899.87 5204.64 2889.33 5215L2871.99 5232.04C2860.79 5243.05 2859.97 5260.82 2870.1 5272.8L2883.07 5288.15C2888.19 5294.21 2895.49 5297.99 2903.39 5298.68L2911.08 5299.35C2920.24 5300.14 2929.26 5296.7 2935.55 5290L2948.04 5276.7C2953.26 5271.13 2956.17 5263.79 2956.17 5256.16L2956.17 5248.14Z" fill="black" fill-opacity="0.15"/>
<rect id="Rectangle 1712_6" x="2883.66" y="5158" width="95.6841" height="95.6841" rx="27" transform="rotate(45 2883.66 5158)" fill="#476E86"/>
<rect id="Rectangle 2165_39" x="2826" y="5169" width="5" height="5" fill="#A4C424" fill-opacity="0.01"/>
</g>
<g id="stone1_7" clip-path="url(#clip32_2237_3750)">
<path id="Vector 755_7" d="M4923.17 4508.14C4923.17 4498.65 4918.68 4489.72 4911.06 4484.06L4895.24 4472.31C4883.38 4463.5 4866.87 4464.64 4856.33 4475L4838.99 4492.04C4827.79 4503.05 4826.97 4520.82 4837.1 4532.8L4850.07 4548.15C4855.19 4554.21 4862.49 4557.99 4870.39 4558.68L4878.08 4559.35C4887.24 4560.14 4896.26 4556.7 4902.55 4550L4915.04 4536.7C4920.26 4531.13 4923.17 4523.79 4923.17 4516.16L4923.17 4508.14Z" fill="black" fill-opacity="0.15"/>
<rect id="Rectangle 1712_7" x="4850.66" y="4418" width="95.6841" height="95.6841" rx="27" transform="rotate(45 4850.66 4418)" fill="#476E86"/>
<rect id="Rectangle 2165_40" x="4793" y="4429" width="5" height="5" fill="#A4C424" fill-opacity="0.01"/>
</g>
<g id="stone1_8" clip-path="url(#clip33_2237_3750)">
<path id="Vector 755_8" d="M5073.17 3684.14C5073.17 3674.65 5068.68 3665.72 5061.06 3660.06L5045.24 3648.31C5033.38 3639.5 5016.87 3640.64 5006.33 3651L4988.99 3668.04C4977.79 3679.05 4976.97 3696.82 4987.1 3708.8L5000.07 3724.15C5005.19 3730.21 5012.49 3733.99 5020.39 3734.68L5028.08 3735.35C5037.24 3736.14 5046.26 3732.7 5052.55 3726L5065.04 3712.7C5070.26 3707.13 5073.17 3699.79 5073.17 3692.16L5073.17 3684.14Z" fill="black" fill-opacity="0.15"/>
<rect id="Rectangle 1712_8" x="5000.66" y="3594" width="95.6841" height="95.6841" rx="27" transform="rotate(45 5000.66 3594)" fill="#476E86"/>
<rect id="Rectangle 2165_41" x="4943" y="3605" width="5" height="5" fill="#A4C424" fill-opacity="0.01"/>
</g>
<g id="stone1_9" clip-path="url(#clip34_2237_3750)">
<path id="Vector 755_9" d="M5162.17 2325.14C5162.17 2315.65 5157.68 2306.72 5150.06 2301.06L5134.24 2289.31C5122.38 2280.5 5105.87 2281.64 5095.33 2292L5077.99 2309.04C5066.79 2320.05 5065.97 2337.82 5076.1 2349.8L5089.07 2365.15C5094.19 2371.21 5101.49 2374.99 5109.39 2375.68L5117.08 2376.35C5126.24 2377.14 5135.26 2373.7 5141.55 2367L5154.04 2353.7C5159.26 2348.13 5162.17 2340.79 5162.17 2333.16L5162.17 2325.14Z" fill="black" fill-opacity="0.15"/>
<rect id="Rectangle 1712_9" x="5089.66" y="2235" width="95.6841" height="95.6841" rx="27" transform="rotate(45 5089.66 2235)" fill="#476E86"/>
<rect id="Rectangle 2165_42" x="5032" y="2246" width="5" height="5" fill="#A4C424" fill-opacity="0.01"/>
</g>
<g id="bush1" clip-path="url(#clip35_2237_3750)">
<path id="Union_34" fill-rule="evenodd" clip-rule="evenodd" d="M3076.1 3107.41C3080.39 3111.71 3086.2 3113.76 3092.3 3113.66C3091.24 3122.97 3095.37 3134.07 3104.08 3142.78C3117.18 3155.88 3135.67 3158.62 3145.39 3148.91C3146.09 3148.2 3146.74 3147.45 3147.31 3146.65C3163.07 3157.36 3181.8 3158.2 3192.44 3147.55C3197.57 3142.42 3200.04 3135.42 3200.01 3127.77C3201.17 3126.95 3202.27 3126.02 3203.3 3124.99C3214.78 3113.5 3213.45 3093.55 3200.31 3080.42C3187.18 3067.28 3167.23 3065.95 3155.74 3077.43C3155.27 3077.9 3154.83 3078.38 3154.4 3078.88C3145.43 3078.01 3137.06 3080.38 3131.16 3086.27C3127.93 3089.51 3125.75 3093.49 3124.59 3097.91C3122.83 3097.24 3121.07 3096.71 3119.32 3096.34C3124.72 3086.17 3123.99 3074.31 3116.59 3066.92C3107.16 3057.48 3090.44 3058.89 3079.26 3070.08C3068.07 3081.26 3066.66 3097.97 3076.1 3107.41Z" fill="black" fill-opacity="0.15"/>
<g id="Group 119">
<circle id="Ellipse 1_57" cx="3092.99" cy="3083.7" r="25.9855" fill="#6FA662"/>
<circle id="Ellipse 2" cx="3115.39" cy="3104.31" r="32.2578" fill="#6FA662"/>
<ellipse id="Ellipse 3" cx="3120.76" cy="3067.57" rx="28.6736" ry="29.5697" fill="#6FA662"/>
<circle id="Ellipse 4" cx="3154.81" cy="3102.52" r="28.6736" fill="#6FA662"/>
<circle id="Ellipse 5" cx="3155.71" cy="3071.15" r="25.9855" fill="#6FA662"/>
<circle id="Ellipse 6" cx="3178.11" cy="3091.76" r="25.0894" fill="#6FA662"/>
</g>
<rect id="Rectangle 2165_43" x="3067" y="3038" width="5" height="5" fill="#A4C424" fill-opacity="0.01"/>
</g>
<g id="bush1_2" clip-path="url(#clip36_2237_3750)">
<path id="Union_35" fill-rule="evenodd" clip-rule="evenodd" d="M2908.1 2279.41C2912.39 2283.71 2918.2 2285.76 2924.3 2285.66C2923.24 2294.97 2927.37 2306.07 2936.08 2314.78C2949.18 2327.88 2967.67 2330.62 2977.39 2320.91C2978.09 2320.2 2978.74 2319.45 2979.31 2318.65C2995.07 2329.36 3013.8 2330.2 3024.44 2319.55C3029.57 2314.42 3032.04 2307.42 3032.01 2299.77C3033.17 2298.95 3034.27 2298.02 3035.3 2296.99C3046.78 2285.5 3045.45 2265.55 3032.31 2252.42C3019.18 2239.28 2999.23 2237.95 2987.74 2249.43C2987.27 2249.9 2986.83 2250.38 2986.4 2250.88C2977.43 2250.01 2969.06 2252.38 2963.16 2258.27C2959.93 2261.51 2957.75 2265.49 2956.59 2269.91C2954.83 2269.24 2953.07 2268.71 2951.32 2268.34C2956.72 2258.17 2955.99 2246.31 2948.59 2238.92C2939.16 2229.48 2922.44 2230.89 2911.26 2242.08C2900.07 2253.26 2898.66 2269.97 2908.1 2279.41Z" fill="black" fill-opacity="0.15"/>
<g id="Group 119_2">
<circle id="Ellipse 1_58" cx="2924.99" cy="2255.7" r="25.9855" fill="#6FA662"/>
<circle id="Ellipse 2_2" cx="2947.39" cy="2276.31" r="32.2578" fill="#6FA662"/>
<ellipse id="Ellipse 3_2" cx="2952.76" cy="2239.57" rx="28.6736" ry="29.5697" fill="#6FA662"/>
<circle id="Ellipse 4_2" cx="2986.81" cy="2274.52" r="28.6736" fill="#6FA662"/>
<circle id="Ellipse 5_2" cx="2987.71" cy="2243.15" r="25.9855" fill="#6FA662"/>
<circle id="Ellipse 6_2" cx="3010.11" cy="2263.76" r="25.0894" fill="#6FA662"/>
</g>
<rect id="Rectangle 2165_44" x="2899" y="2210" width="5" height="5" fill="#A4C424" fill-opacity="0.01"/>
</g>
<g id="bush1_3" clip-path="url(#clip37_2237_3750)">
<path id="Union_36" fill-rule="evenodd" clip-rule="evenodd" d="M3347.1 3720.41C3351.39 3724.71 3357.2 3726.76 3363.3 3726.66C3362.24 3735.97 3366.37 3747.07 3375.08 3755.78C3388.18 3768.88 3406.67 3771.62 3416.39 3761.91C3417.09 3761.2 3417.74 3760.45 3418.31 3759.65C3434.07 3770.36 3452.8 3771.2 3463.44 3760.55C3468.57 3755.42 3471.04 3748.42 3471.01 3740.77C3472.17 3739.95 3473.27 3739.02 3474.3 3737.99C3485.78 3726.5 3484.45 3706.55 3471.31 3693.42C3458.18 3680.28 3438.23 3678.95 3426.74 3690.43C3426.27 3690.9 3425.83 3691.38 3425.4 3691.88C3416.43 3691.01 3408.06 3693.38 3402.16 3699.27C3398.93 3702.51 3396.75 3706.49 3395.59 3710.91C3393.83 3710.24 3392.07 3709.71 3390.32 3709.34C3395.72 3699.17 3394.99 3687.31 3387.59 3679.92C3378.16 3670.48 3361.44 3671.89 3350.26 3683.08C3339.07 3694.26 3337.66 3710.97 3347.1 3720.41Z" fill="black" fill-opacity="0.15"/>
<g id="Group 119_3">
<circle id="Ellipse 1_59" cx="3363.99" cy="3696.7" r="25.9855" fill="#6FA662"/>
<circle id="Ellipse 2_3" cx="3386.39" cy="3717.31" r="32.2578" fill="#6FA662"/>
<ellipse id="Ellipse 3_3" cx="3391.76" cy="3680.57" rx="28.6736" ry="29.5697" fill="#6FA662"/>
<circle id="Ellipse 4_3" cx="3425.81" cy="3715.52" r="28.6736" fill="#6FA662"/>
<circle id="Ellipse 5_3" cx="3426.71" cy="3684.15" r="25.9855" fill="#6FA662"/>
<circle id="Ellipse 6_3" cx="3449.11" cy="3704.76" r="25.0894" fill="#6FA662"/>
</g>
<rect id="Rectangle 2165_45" x="3338" y="3651" width="5" height="5" fill="#A4C424" fill-opacity="0.01"/>
</g>
<g id="bush1_4" clip-path="url(#clip38_2237_3750)">
<path id="Union_37" fill-rule="evenodd" clip-rule="evenodd" d="M5096.1 2855.41C5100.39 2859.71 5106.2 2861.76 5112.3 2861.66C5111.24 2870.97 5115.37 2882.07 5124.08 2890.78C5137.18 2903.88 5155.67 2906.62 5165.39 2896.91C5166.09 2896.2 5166.74 2895.45 5167.31 2894.65C5183.07 2905.36 5201.8 2906.2 5212.44 2895.55C5217.57 2890.42 5220.04 2883.42 5220.01 2875.77C5221.17 2874.95 5222.27 2874.02 5223.3 2872.99C5234.78 2861.5 5233.45 2841.55 5220.31 2828.42C5207.18 2815.28 5187.23 2813.95 5175.74 2825.43C5175.27 2825.9 5174.83 2826.38 5174.4 2826.88C5165.43 2826.01 5157.06 2828.38 5151.16 2834.27C5147.93 2837.51 5145.75 2841.49 5144.59 2845.91C5142.83 2845.24 5141.07 2844.71 5139.32 2844.34C5144.72 2834.17 5143.99 2822.31 5136.59 2814.92C5127.16 2805.48 5110.44 2806.89 5099.26 2818.08C5088.07 2829.26 5086.66 2845.97 5096.1 2855.41Z" fill="black" fill-opacity="0.15"/>
<g id="Group 119_4">
<circle id="Ellipse 1_60" cx="5112.99" cy="2831.7" r="25.9855" fill="#6FA662"/>
<circle id="Ellipse 2_4" cx="5135.39" cy="2852.31" r="32.2578" fill="#6FA662"/>
<ellipse id="Ellipse 3_4" cx="5140.76" cy="2815.57" rx="28.6736" ry="29.5697" fill="#6FA662"/>
<circle id="Ellipse 4_4" cx="5174.81" cy="2850.52" r="28.6736" fill="#6FA662"/>
<circle id="Ellipse 5_4" cx="5175.71" cy="2819.15" r="25.9855" fill="#6FA662"/>
<circle id="Ellipse 6_4" cx="5198.11" cy="2839.76" r="25.0894" fill="#6FA662"/>
</g>
<rect id="Rectangle 2165_46" x="5087" y="2786" width="5" height="5" fill="#A4C424" fill-opacity="0.01"/>
</g>
<g id="bush1_5" clip-path="url(#clip39_2237_3750)">
<path id="Union_38" fill-rule="evenodd" clip-rule="evenodd" d="M4646.1 3932.41C4650.39 3936.71 4656.2 3938.76 4662.3 3938.66C4661.24 3947.97 4665.37 3959.07 4674.08 3967.78C4687.18 3980.88 4705.67 3983.62 4715.39 3973.91C4716.09 3973.2 4716.74 3972.45 4717.31 3971.65C4733.07 3982.36 4751.8 3983.2 4762.44 3972.55C4767.57 3967.42 4770.04 3960.42 4770.01 3952.77C4771.17 3951.95 4772.27 3951.02 4773.3 3949.99C4784.78 3938.5 4783.45 3918.55 4770.31 3905.42C4757.18 3892.28 4737.23 3890.95 4725.74 3902.43C4725.27 3902.9 4724.83 3903.38 4724.4 3903.88C4715.43 3903.01 4707.06 3905.38 4701.16 3911.27C4697.93 3914.51 4695.75 3918.49 4694.59 3922.91C4692.83 3922.24 4691.07 3921.71 4689.32 3921.34C4694.72 3911.17 4693.99 3899.31 4686.59 3891.92C4677.16 3882.48 4660.44 3883.89 4649.26 3895.08C4638.07 3906.26 4636.66 3922.97 4646.1 3932.41Z" fill="black" fill-opacity="0.15"/>
<g id="Group 119_5">
<circle id="Ellipse 1_61" cx="4662.99" cy="3908.7" r="25.9855" fill="#6FA662"/>
<circle id="Ellipse 2_5" cx="4685.39" cy="3929.31" r="32.2578" fill="#6FA662"/>
<ellipse id="Ellipse 3_5" cx="4690.76" cy="3892.57" rx="28.6736" ry="29.5697" fill="#6FA662"/>
<circle id="Ellipse 4_5" cx="4724.81" cy="3927.52" r="28.6736" fill="#6FA662"/>
<circle id="Ellipse 5_5" cx="4725.71" cy="3896.15" r="25.9855" fill="#6FA662"/>
<circle id="Ellipse 6_5" cx="4748.11" cy="3916.76" r="25.0894" fill="#6FA662"/>
</g>
<rect id="Rectangle 2165_47" x="4637" y="3863" width="5" height="5" fill="#A4C424" fill-opacity="0.01"/>
</g>
<g id="bush1_6" clip-path="url(#clip40_2237_3750)">
<path id="Union_39" fill-rule="evenodd" clip-rule="evenodd" d="M3843.1 5123.41C3847.39 5127.71 3853.2 5129.76 3859.3 5129.66C3858.24 5138.97 3862.37 5150.07 3871.08 5158.78C3884.18 5171.88 3902.67 5174.62 3912.39 5164.91C3913.09 5164.2 3913.74 5163.45 3914.31 5162.65C3930.07 5173.36 3948.8 5174.2 3959.44 5163.55C3964.57 5158.42 3967.04 5151.42 3967.01 5143.77C3968.17 5142.95 3969.27 5142.02 3970.3 5140.99C3981.78 5129.5 3980.45 5109.55 3967.31 5096.42C3954.18 5083.28 3934.23 5081.95 3922.74 5093.43C3922.27 5093.9 3921.83 5094.38 3921.4 5094.88C3912.43 5094.01 3904.06 5096.38 3898.16 5102.27C3894.93 5105.51 3892.75 5109.49 3891.59 5113.91C3889.83 5113.24 3888.07 5112.71 3886.32 5112.34C3891.72 5102.17 3890.99 5090.31 3883.59 5082.92C3874.16 5073.48 3857.44 5074.89 3846.26 5086.08C3835.07 5097.26 3833.66 5113.97 3843.1 5123.41Z" fill="black" fill-opacity="0.15"/>
<g id="Group 119_6">
<circle id="Ellipse 1_62" cx="3859.99" cy="5099.7" r="25.9855" fill="#6FA662"/>
<circle id="Ellipse 2_6" cx="3882.39" cy="5120.31" r="32.2578" fill="#6FA662"/>
<ellipse id="Ellipse 3_6" cx="3887.76" cy="5083.57" rx="28.6736" ry="29.5697" fill="#6FA662"/>
<circle id="Ellipse 4_6" cx="3921.81" cy="5118.52" r="28.6736" fill="#6FA662"/>
<circle id="Ellipse 5_6" cx="3922.71" cy="5087.15" r="25.9855" fill="#6FA662"/>
<circle id="Ellipse 6_6" cx="3945.11" cy="5107.76" r="25.0894" fill="#6FA662"/>
</g>
<rect id="Rectangle 2165_48" x="3834" y="5054" width="5" height="5" fill="#A4C424" fill-opacity="0.01"/>
</g>
<g id="bush1_7" clip-path="url(#clip41_2237_3750)">
<path id="Union_40" fill-rule="evenodd" clip-rule="evenodd" d="M2291.1 4749.41C2295.39 4753.71 2301.2 4755.76 2307.3 4755.66C2306.24 4764.97 2310.37 4776.07 2319.08 4784.78C2332.18 4797.88 2350.67 4800.62 2360.39 4790.91C2361.09 4790.2 2361.74 4789.45 2362.31 4788.65C2378.07 4799.36 2396.8 4800.2 2407.44 4789.55C2412.57 4784.42 2415.04 4777.42 2415.01 4769.77C2416.17 4768.95 2417.27 4768.02 2418.3 4766.99C2429.78 4755.5 2428.45 4735.55 2415.31 4722.42C2402.18 4709.28 2382.23 4707.95 2370.74 4719.43C2370.27 4719.9 2369.83 4720.38 2369.4 4720.88C2360.43 4720.01 2352.06 4722.38 2346.16 4728.27C2342.93 4731.51 2340.75 4735.49 2339.59 4739.91C2337.83 4739.24 2336.07 4738.71 2334.32 4738.34C2339.72 4728.17 2338.99 4716.31 2331.59 4708.92C2322.16 4699.48 2305.44 4700.89 2294.26 4712.08C2283.07 4723.26 2281.66 4739.97 2291.1 4749.41Z" fill="black" fill-opacity="0.15"/>
<g id="Group 119_7">
<circle id="Ellipse 1_63" cx="2307.99" cy="4725.7" r="25.9855" fill="#6FA662"/>
<circle id="Ellipse 2_7" cx="2330.39" cy="4746.31" r="32.2578" fill="#6FA662"/>
<ellipse id="Ellipse 3_7" cx="2335.76" cy="4709.57" rx="28.6736" ry="29.5697" fill="#6FA662"/>
<circle id="Ellipse 4_7" cx="2369.81" cy="4744.52" r="28.6736" fill="#6FA662"/>
<circle id="Ellipse 5_7" cx="2370.71" cy="4713.15" r="25.9855" fill="#6FA662"/>
<circle id="Ellipse 6_7" cx="2393.11" cy="4733.76" r="25.0894" fill="#6FA662"/>
</g>
<rect id="Rectangle 2165_49" x="2282" y="4680" width="5" height="5" fill="#A4C424" fill-opacity="0.01"/>
</g>
<g id="bush1_8" clip-path="url(#clip42_2237_3750)">
<path id="Union_41" fill-rule="evenodd" clip-rule="evenodd" d="M1576.1 4145.41C1580.39 4149.71 1586.2 4151.76 1592.3 4151.66C1591.24 4160.97 1595.37 4172.07 1604.08 4180.78C1617.18 4193.88 1635.67 4196.62 1645.39 4186.91C1646.09 4186.2 1646.74 4185.45 1647.31 4184.65C1663.07 4195.36 1681.8 4196.2 1692.44 4185.55C1697.57 4180.42 1700.04 4173.42 1700.01 4165.77C1701.17 4164.95 1702.27 4164.02 1703.3 4162.99C1714.78 4151.5 1713.45 4131.55 1700.31 4118.42C1687.18 4105.28 1667.23 4103.95 1655.74 4115.43C1655.27 4115.9 1654.83 4116.38 1654.4 4116.88C1645.43 4116.01 1637.06 4118.38 1631.16 4124.27C1627.93 4127.51 1625.75 4131.49 1624.59 4135.91C1622.83 4135.24 1621.07 4134.71 1619.32 4134.34C1624.72 4124.17 1623.99 4112.31 1616.59 4104.92C1607.16 4095.48 1590.44 4096.89 1579.26 4108.08C1568.07 4119.26 1566.66 4135.97 1576.1 4145.41Z" fill="black" fill-opacity="0.15"/>
<g id="Group 119_8">
<circle id="Ellipse 1_64" cx="1592.99" cy="4121.7" r="25.9855" fill="#6FA662"/>
<circle id="Ellipse 2_8" cx="1615.39" cy="4142.31" r="32.2578" fill="#6FA662"/>
<ellipse id="Ellipse 3_8" cx="1620.76" cy="4105.57" rx="28.6736" ry="29.5697" fill="#6FA662"/>
<circle id="Ellipse 4_8" cx="1654.81" cy="4140.52" r="28.6736" fill="#6FA662"/>
<circle id="Ellipse 5_8" cx="1655.71" cy="4109.15" r="25.9855" fill="#6FA662"/>
<circle id="Ellipse 6_8" cx="1678.11" cy="4129.76" r="25.0894" fill="#6FA662"/>
</g>
<rect id="Rectangle 2165_50" x="1567" y="4076" width="5" height="5" fill="#A4C424" fill-opacity="0.01"/>
</g>
<g id="barrel">
<g id="Ellipse 9" filter="url(#filter0_d_2237_3750)">
<circle cx="4130" cy="3756" r="35" fill="#A5586E"/>
</g>
<circle id="Ellipse 10" cx="4141.5" cy="3767.5" r="8.5" fill="#803A4E"/>
<rect id="Rectangle 2165_51" x="4095" y="3721" width="5" height="5" fill="#A4C424" fill-opacity="0.01"/>
</g>
<g id="barrel_2">
<g id="Ellipse 9_2" filter="url(#filter1_d_2237_3750)">
<circle cx="2352" cy="2504" r="35" fill="#A5586E"/>
</g>
<circle id="Ellipse 10_2" cx="2363.5" cy="2515.5" r="8.5" fill="#803A4E"/>
<rect id="Rectangle 2165_52" x="2317" y="2469" width="5" height="5" fill="#A4C424" fill-opacity="0.01"/>
</g>
<g id="barrel_3">
<g id="Ellipse 9_3" filter="url(#filter2_d_2237_3750)">
<circle cx="2402" cy="3920" r="35" fill="#A5586E"/>
</g>
<circle id="Ellipse 10_3" cx="2413.5" cy="3931.5" r="8.5" fill="#803A4E"/>
<rect id="Rectangle 2165_53" x="2367" y="3885" width="5" height="5" fill="#A4C424" fill-opacity="0.01"/>
</g>
<g id="barrel_4">
<g id="Ellipse 9_4" filter="url(#filter3_d_2237_3750)">
<circle cx="3342" cy="2561" r="35" fill="#A5586E"/>
</g>
<circle id="Ellipse 10_4" cx="3353.5" cy="2572.5" r="8.5" fill="#803A4E"/>
<rect id="Rectangle 2165_54" x="3307" y="2526" width="5" height="5" fill="#A4C424" fill-opacity="0.01"/>
</g>
<g id="exit blocks">
<g id="stone7:blocksExit=true">
<path id="Rectangle 2189" d="M3027.94 1432.53C3014.61 1419.2 3017.99 1396.78 3034.66 1387.97L3171.49 1315.67C3182.35 1309.93 3195.68 1311.94 3204.37 1320.62L3232.53 1348.79C3236.86 1353.11 3239.65 1358.74 3240.47 1364.8L3248.85 1426.25C3250.18 1436.02 3246.28 1445.77 3238.58 1451.92L3195.62 1486.21C3191.3 1489.66 3186.06 1491.75 3180.56 1492.23L3108.03 1498.5C3099.79 1499.21 3091.66 1496.25 3085.82 1490.4L3027.94 1432.53Z" fill="black" fill-opacity="0.15"/>
<path id="Vector 1152" d="M3007.24 1295.23L3054.39 1265.58C3067.97 1257.05 3084.8 1255.54 3099.68 1261.53L3166.16 1288.29C3184.59 1295.71 3196.88 1313.33 3197.47 1333.19L3198.59 1371.31C3199.38 1398 3179.05 1420.6 3152.43 1422.64L3050.61 1430.43C3027.19 1432.22 3005.68 1417.47 2998.91 1394.98L2985.97 1351.97C2979.49 1330.42 2988.19 1307.21 3007.24 1295.23Z" fill="#BB816E"/>
<path id="Vector 1153" d="M3137.88 1338.08L3123.51 1316.38C3116.1 1305.21 3102.19 1300.3 3089.41 1304.36L3063.74 1312.51C3048.69 1317.29 3039.92 1332.91 3043.68 1348.25L3049.23 1370.87C3053.23 1387.15 3069.79 1397 3086 1392.74L3120.5 1383.66C3140.37 1378.43 3149.22 1355.22 3137.88 1338.08Z" fill="#9A6A5A"/>
<rect id="mapHelper" x="2981" y="1257" width="5" height="5" fill="#A4C424" fill-opacity="0.01"/>
</g>
<g id="stone6:blocksExit=true">
<path id="Rectangle 2189_2" d="M3224.27 1332.85C3211.14 1319.73 3214.19 1297.7 3230.38 1288.62L3350.23 1221.49C3359.05 1216.55 3369.84 1216.75 3378.47 1222L3427.37 1251.76C3434.1 1255.85 3438.79 1262.59 3440.3 1270.31L3450.75 1323.88C3452.75 1334.1 3448.91 1344.58 3440.78 1351.09L3392.71 1389.62C3388.34 1393.13 3383.01 1395.24 3377.43 1395.68L3306.65 1401.32C3298.47 1401.98 3290.42 1399.01 3284.62 1393.21L3224.27 1332.85Z" fill="black" fill-opacity="0.15"/>
<path id="Vector 1152_2" d="M3202.58 1251.59L3247.03 1190.65C3262.5 1169.44 3291.74 1163.81 3313.99 1177.76L3369.04 1212.28C3398.57 1230.79 3400.57 1273.08 3372.92 1294.31L3308.06 1344.09C3291 1357.18 3267.48 1357.9 3249.66 1345.87L3215.01 1322.51C3191.52 1306.66 3185.88 1274.48 3202.58 1251.59Z" fill="#BB816E"/>
<path id="Vector 1153_2" d="M3318.54 1287.3L3326.79 1266.75C3336.64 1242.23 3312.27 1217.88 3287.76 1227.74L3264.52 1237.08C3242.81 1245.82 3239.01 1274.94 3257.76 1288.95L3272.75 1300.15C3288.53 1311.94 3311.2 1305.58 3318.54 1287.3Z" fill="#9A6A5A"/>
<rect id="mapHelper_2" x="3190" y="1167" width="5" height="5" fill="#A4C424" fill-opacity="0.01"/>
</g>
<g id="stone5:blocksExit=true">
<path id="Rectangle 2189_3" d="M3397.98 1404.09C3384.05 1390.16 3388.48 1366.59 3406.51 1358.66L3501.72 1316.81C3512.28 1312.16 3524.62 1314.48 3532.78 1322.64L3561 1350.86C3564.31 1354.17 3566.73 1358.24 3568.05 1362.72L3581.42 1407.91C3584.72 1419.07 3580.78 1431.11 3571.51 1438.15L3542.54 1460.15C3537.46 1464.01 3531.22 1466.02 3524.84 1465.85L3469.06 1464.33C3461.9 1464.13 3455.09 1461.2 3450.02 1456.14L3397.98 1404.09Z" fill="black" fill-opacity="0.15"/>
<path id="Vector 1152_3" d="M3378.79 1329.96L3402.25 1286.89C3417.03 1259.74 3452.67 1252.37 3477 1271.45L3519.72 1304.93C3533.27 1315.55 3540.4 1332.4 3538.6 1349.53L3536.26 1371.67C3533.36 1399.17 3508.68 1419.1 3481.18 1416.13L3439.53 1411.65C3435.53 1411.22 3431.59 1410.3 3427.8 1408.93L3405.62 1400.86C3376.87 1390.41 3364.16 1356.82 3378.79 1329.96Z" fill="#BB816E"/>
<path id="Vector 1153_3" d="M3420.27 1334.91L3424.65 1322.5C3431 1304.49 3452.35 1296.92 3468.63 1306.91L3488.24 1318.95C3500.56 1326.51 3505.73 1341.79 3500.54 1355.29L3499.87 1357.03C3495.18 1369.22 3483.15 1376.98 3470.11 1376.21L3446.8 1374.84C3426.87 1373.67 3413.62 1353.73 3420.27 1334.91Z" fill="#9A6A5A"/>
<rect id="mapHelper_3" x="3371" y="1259" width="5" height="5" fill="#A4C424" fill-opacity="0.01"/>
</g>
<g id="stone3:blocksExit=true">
<path id="Rectangle 2189_4" d="M3223.55 1466.04C3212.62 1455.1 3212.62 1437.37 3223.55 1426.44L3257.09 1392.9C3268.02 1381.97 3285.75 1381.97 3296.68 1392.9L3317.9 1414.12C3325.07 1421.28 3327.8 1431.75 3325.06 1441.5L3317.69 1467.68C3315.05 1477.07 3307.71 1484.4 3298.32 1487.05L3272.15 1494.41C3262.4 1497.15 3251.93 1494.42 3244.77 1487.26L3223.55 1466.04Z" fill="black" fill-opacity="0.15"/>
<path id="Rectangle293" d="M3198.38 1409.23L3203.01 1395.66C3209.56 1376.47 3229.44 1365.21 3249.27 1369.47L3271.27 1374.2C3296.76 1379.68 3310.28 1407.68 3298.72 1431.05L3290.75 1447.16C3281.55 1465.75 3259.68 1474.22 3240.37 1466.69L3221.71 1459.42C3201.74 1451.64 3191.46 1429.51 3198.38 1409.23Z" fill="#BB816E"/>
<rect id="mapHelper_4" x="3195" y="1368" width="5" height="5" fill="#A4C424" fill-opacity="0.01"/>
</g>
<g id="stone4:blocksExit=true">
<path id="Rectangle 2188" d="M3534.25 1486.18C3523.32 1475.24 3523.32 1457.52 3534.25 1446.58L3560.58 1420.25C3571.52 1409.32 3589.24 1409.32 3600.18 1420.25L3601.87 1421.95C3607.91 1427.98 3610.86 1436.44 3609.89 1444.92L3607.19 1468.55C3605.71 1481.5 3595.5 1491.71 3582.55 1493.19L3558.92 1495.89C3550.44 1496.86 3541.98 1493.91 3535.95 1487.87L3534.25 1486.18Z" fill="black" fill-opacity="0.15"/>
<path id="Rectangle293_2" d="M3535.75 1411.67L3567.82 1405.13C3582.34 1402.17 3596.87 1410.17 3602.14 1424.02C3607.06 1436.95 3602.58 1451.57 3591.26 1459.53L3564.48 1478.35C3545.51 1491.69 3519.09 1484.54 3509.43 1463.45C3499.5 1441.75 3512.36 1416.44 3535.75 1411.67Z" fill="#BB816E"/>
<rect id="mapHelper_5" x="3505" y="1404" width="5" height="5" fill="#A4C424" fill-opacity="0.01"/>
</g>
<g id="stone2:blocksExit=true">
<path id="Rectangle 2188_2" d="M2924.34 1485.12C2913.4 1474.19 2913.4 1456.46 2924.34 1445.52L2962.52 1407.34C2973.46 1396.4 2991.19 1396.4 3002.12 1407.34L3019.25 1424.47C3025.83 1431.05 3028.71 1440.48 3026.93 1449.62L3020.7 1481.58C3018.52 1492.77 3009.77 1501.52 2998.58 1503.7L2966.62 1509.93C2957.48 1511.71 2948.05 1508.83 2941.47 1502.25L2924.34 1485.12Z" fill="black" fill-opacity="0.15"/>
<path id="Rectangle293_3" d="M2922.23 1398.83L2954.11 1389.11C2985.53 1379.55 3014.45 1409.81 3003.47 1440.76L2992.93 1470.45C2983.29 1497.61 2948.95 1505.97 2927.9 1486.27L2906.55 1466.3C2884.08 1445.27 2892.78 1407.8 2922.23 1398.83Z" fill="#BB816E"/>
<rect id="mapHelper_6" x="2893" y="1388" width="5" height="5" fill="#A4C424" fill-opacity="0.01"/>
</g>
</g>
<g id="walls" opacity="0.01">
<path id="wall" d="M3827.6 1652.06L4225.04 1736.07C4238.86 1738.99 4251.9 1744.8 4263.3 1753.12L4636.63 2025.52C4646.14 2032.45 4656.79 2037.65 4668.1 2040.89L5236.47 2203.28C5288.54 2218.15 5319.3 2271.77 5305.87 2324.23L5213.77 2683.96C5209.97 2698.79 5209.63 2714.29 5212.77 2729.28L5324.3 3261.31C5328.03 3279.1 5326.84 3297.57 5320.85 3314.74L5217.97 3609.9C5211.47 3628.55 5199.59 3644.85 5183.84 3656.76L4914.45 3860.36C4882.61 3884.42 4868.13 3925.1 4877.6 3963.86L4939.94 4219.15C4944.23 4236.72 4953.21 4252.8 4965.92 4265.67L5229.48 4532.67C5265.12 4568.77 5268.08 4625.85 5236.35 4665.45L4960.55 5009.65C4934.38 5042.31 4890.63 5055.22 4850.92 5041.99L4414.97 4896.81C4380.97 4885.48 4343.51 4893.22 4316.78 4917.08L4063.53 5143.14C4053.28 5152.28 4041.27 5159.22 4028.23 5163.51L3675.12 5279.89C3658.03 5285.52 3642.77 5295.67 3630.95 5309.26L3537 5417.34C3530.04 5425.34 3524.41 5434.39 3520.29 5444.16L3465.92 5573.4C3460.75 5585.68 3458.09 5598.86 3458.09 5612.18V5729.5C3458.09 5784.73 3413.32 5829.5 3358.09 5829.5H3158.5C3103.27 5829.5 3058.5 5784.73 3058.5 5729.5V5595.73C3058.5 5584.98 3056.77 5574.3 3053.37 5564.1L3029.12 5491.35C3026.06 5482.17 3021.68 5473.47 3016.11 5465.55L2972.63 5403.56C2960.52 5386.3 2943.26 5373.3 2923.32 5366.44L2712.82 5293.95C2702.35 5290.34 2691.34 5288.5 2680.26 5288.5H2357.53C2325.2 5288.5 2294.86 5272.87 2276.09 5246.54L2168.95 5096.2C2154.2 5075.51 2147.89 5049.99 2151.27 5024.82L2203.21 4639.02C2206.9 4611.58 2199.05 4583.83 2181.52 4562.39L2057.45 4410.62C2043.84 4393.98 2025.25 4382.17 2004.41 4376.93L1626.34 4281.89C1599.93 4275.25 1577.37 4258.13 1563.87 4234.48L1474.34 4077.65C1458.99 4050.75 1456.97 4018.26 1468.86 3989.66L1577.33 3728.94C1582.39 3716.77 1585 3703.71 1585 3690.53V3425.02C1585 3404.81 1591.12 3385.08 1602.56 3368.43L1778.69 3111.83C1784.53 3103.33 1791.65 3095.78 1799.79 3089.45L2115.02 2844.57C2134.93 2829.1 2148.27 2806.67 2152.35 2781.78L2176.75 2632.99C2185.31 2580.77 2151.7 2530.91 2100.07 2519.26L764.957 2218.06C723.627 2208.73 680.908 2226.47 658.331 2262.32L85.985 3171.18C72.499 3192.59 67.6343 3218.32 72.3717 3243.18L380.089 4857.98C382.669 4871.51 388.017 4884.37 395.799 4895.74L1266.15 6167.38C1281.1 6189.23 1304.11 6204.26 1330.12 6209.17L3017.19 6527.62C3022.06 6528.54 3026.98 6529.1 3031.93 6529.28L4629.57 6590.18C4643.7 6590.72 4657.77 6588.26 4670.88 6582.96L6016.6 6038.65C6043.53 6027.76 6064.39 6005.7 6073.76 5978.22L6529 4643L6791.36 3304.5C6793.44 3293.9 6793.79 3283.04 6792.39 3272.33L6558.91 1482.98C6554.59 1449.87 6534.04 1421.11 6504.12 1406.3L5330 825L4003.85 342.177C3998.96 340.395 3993.93 338.998 3988.82 337.999L2546.98 56.2723C2529.32 52.8215 2511.06 54.2001 2494.11 60.2629L888.687 634.747C850.971 648.243 824.949 682.944 822.557 722.931L744.052 2035.8C740.723 2091.46 783.57 2139.1 839.277 2141.66L1743.47 2183.27C1795.47 2185.66 1840.61 2147.76 1847.25 2096.13L1886.9 1787.89C1890.76 1757.92 1907.96 1731.3 1933.7 1715.47L2140.33 1588.4C2157.69 1577.72 2177.91 1572.61 2198.26 1573.74L2626.73 1597.57C2654.63 1599.12 2681.9 1588.92 2701.95 1569.45L2969 1310.09L3030.79 1242.09C3046.13 1225.21 3055.24 1203.58 3056.61 1180.81L3061.5 1099V973.5C3061.5 918.272 3106.27 873.5 3161.5 873.5H3361.09C3416.32 873.5 3461.09 918.272 3461.09 973.5V1067.71C3461.09 1080.13 3463.4 1092.44 3467.91 1104.01L3539.97 1288.96C3542.98 1296.68 3546.93 1304 3551.74 1310.74L3766.88 1612.29C3781.43 1632.69 3803.1 1646.87 3827.6 1652.06Z" fill="#BB816E"/>
<path id="wall_2" d="M2156.95 2412.99L1884.78 2222.07C1854.46 2200.8 1838.38 2164.52 1842.98 2127.78L1901.18 1662.9C1908.91 1601.15 1858.98 1547.42 1796.84 1550.6L862.685 1598.46C812.095 1601.05 771.434 1641.06 768.027 1691.6L739.71 2111.63C738.588 2128.28 733.318 2144.38 724.381 2158.47L671.25 2242.23C634.853 2299.61 665.053 2375.81 730.877 2392.67L2050.34 2730.69C2106.79 2745.15 2163.59 2708.48 2173.66 2651.09L2198.02 2512.12C2204.72 2473.91 2188.71 2435.27 2156.95 2412.99Z" fill="#BB816E"/>
<path id="wall_3" d="M2718.13 3136.5H2987.4C3016.49 3136.5 3044.14 3149.17 3063.13 3171.2L3320.16 3469.31C3347.18 3500.64 3352.11 3545.37 3332.57 3581.84L3096.46 4022.47C3074.24 4063.93 3026.14 4084.3 2980.9 4071.41L2538.24 3945.21C2510.35 3937.25 2487.28 3917.58 2475.02 3891.3L2374.22 3675.11C2359.76 3644.1 2362.16 3607.84 2380.59 3579.01L2633.86 3182.65C2652.23 3153.9 2684 3136.5 2718.13 3136.5Z" fill="#BB816E"/>
<path id="wall_4" d="M4224.64 3425.12L3925.47 3066.34C3908.22 3045.66 3900.05 3018.9 3902.79 2992.11L3951.8 2513.57C3957.43 2458.59 4006.59 2418.61 4061.56 2424.29L4468.22 2466.31C4526.48 2472.33 4567.12 2526.9 4556.19 2584.44L4512.28 2815.56C4508.52 2835.39 4510.84 2855.89 4518.94 2874.38L4616.18 3096.18C4632.67 3133.79 4624.49 3177.65 4595.56 3206.79L4372.41 3431.54C4330.88 3473.36 4262.38 3470.38 4224.64 3425.12Z" fill="#BB816E"/>
</g>
<g id="spawn" clip-path="url(#clip43_2237_3750)">
<rect id="Rectangle 2166" x="3237" y="5579" width="100" height="60" transform="rotate(-90 3237 5579)" fill="#DC567C"/>
</g>
<g id="exit:to=room1">
<rect id="hitbox_2" x="2848" y="461" width="807" height="632" fill="white" fill-opacity="0.05"/>
</g>
<g id="enemies">
<g id="wave 0">
<g id="PoliceBasic:wave=0">
<path id="Rectangle 1710" d="M2782.87 4486.59C2784.59 4480.19 2791.17 4476.39 2797.57 4478.11L2885.47 4501.66C2893.47 4503.8 2898.22 4512.03 2896.07 4520.03L2889.86 4543.21C2887.72 4551.21 2879.49 4555.96 2871.49 4553.82L2783.59 4530.27C2777.19 4528.55 2773.39 4521.97 2775.11 4515.57L2782.87 4486.59Z" fill="#28363E"/>
<path id="Rectangle 1715" d="M2811.89 4490.33L2856.32 4502.24L2846.54 4538.75L2802.11 4526.84L2811.89 4490.33Z" fill="#8598A2"/>
<path id="Rectangle 1709" d="M2816.03 4497.05C2817.05 4493.23 2814.17 4489.49 2810.22 4489.5L2805.65 4489.5C2803.26 4489.51 2801.09 4490.96 2800.14 4493.16V4493.16C2796.7 4501.21 2794.39 4509.82 2793.35 4518.52V4518.52C2793.06 4520.9 2794.22 4523.23 2796.29 4524.44L2800.25 4526.73C2803.66 4528.71 2808.03 4526.91 2809.05 4523.09L2816.03 4497.05Z" fill="#3B5766"/>
<g id="Group 120">
<path id="Rectangle 1712_10" d="M2826.72 4493.76C2827.4 4491.24 2829.99 4489.74 2832.52 4490.41V4490.41C2835.05 4491.09 2836.55 4493.69 2835.87 4496.22L2825.82 4533.73C2825.14 4536.26 2822.54 4537.76 2820.02 4537.08V4537.08C2817.49 4536.41 2815.99 4533.81 2816.67 4531.28L2826.72 4493.76Z" fill="#BACBD6"/>
<path id="Rectangle 1713" d="M2826.72 4493.76C2827.4 4491.24 2829.99 4489.74 2832.52 4490.41V4490.41C2835.05 4491.09 2836.55 4493.69 2835.87 4496.22L2833.91 4503.54C2833.23 4506.06 2830.63 4507.56 2828.11 4506.89V4506.89C2825.58 4506.21 2824.08 4503.61 2824.76 4501.08L2826.72 4493.76Z" fill="#A5586E"/>
<path id="Rectangle 1714" d="M2818.63 4523.96C2819.3 4521.43 2821.9 4519.93 2824.43 4520.61V4520.61C2826.96 4521.29 2828.46 4523.89 2827.78 4526.41L2825.82 4533.73C2825.14 4536.26 2822.54 4537.76 2820.02 4537.08V4537.08C2817.49 4536.41 2815.99 4533.81 2816.67 4531.28L2818.63 4523.96Z" fill="#216994"/>
</g>
<path id="Rectangle 1708" d="M2843.71 4503.57C2844.66 4500.02 2848.54 4498.15 2851.9 4499.62L2860 4503.14C2861.84 4503.95 2862.97 4505.83 2862.81 4507.84V4507.84C2861.99 4518 2859.33 4527.93 2854.96 4537.14V4537.14C2854.09 4538.96 2852.17 4540.02 2850.18 4539.8L2841.4 4538.8C2837.75 4538.39 2835.33 4534.83 2836.28 4531.29L2843.71 4503.57Z" fill="#3B5766"/>
<rect id="mapHelper_7" x="2785.98" y="4475" width="118" height="54" transform="rotate(15 2785.98 4475)" fill="#A4C424" fill-opacity="0.01"/>
</g>
<g id="PoliceBasic:wave=0_2">
<path id="Rectangle 1710_2" d="M3049.87 2531.59C3051.59 2525.19 3058.17 2521.39 3064.57 2523.11L3152.47 2546.66C3160.47 2548.8 3165.22 2557.03 3163.07 2565.03L3156.86 2588.21C3154.72 2596.21 3146.49 2600.96 3138.49 2598.82L3050.59 2575.27C3044.19 2573.55 3040.39 2566.97 3042.11 2560.57L3049.87 2531.59Z" fill="#28363E"/>
<path id="Rectangle 1715_2" d="M3078.89 2535.33L3123.32 2547.24L3113.54 2583.75L3069.11 2571.84L3078.89 2535.33Z" fill="#8598A2"/>
<path id="Rectangle 1709_2" d="M3083.03 2542.05C3084.05 2538.23 3081.17 2534.49 3077.22 2534.5L3072.65 2534.5C3070.26 2534.51 3068.09 2535.96 3067.14 2538.16V2538.16C3063.7 2546.21 3061.39 2554.82 3060.35 2563.52V2563.52C3060.06 2565.9 3061.22 2568.23 3063.29 2569.44L3067.25 2571.73C3070.66 2573.71 3075.03 2571.91 3076.05 2568.09L3083.03 2542.05Z" fill="#3B5766"/>
<g id="Group 120_2">
<path id="Rectangle 1712_11" d="M3093.72 2538.76C3094.4 2536.24 3096.99 2534.74 3099.52 2535.41V2535.41C3102.05 2536.09 3103.55 2538.69 3102.87 2541.22L3092.82 2578.73C3092.14 2581.26 3089.54 2582.76 3087.02 2582.08V2582.08C3084.49 2581.41 3082.99 2578.81 3083.67 2576.28L3093.72 2538.76Z" fill="#BACBD6"/>
<path id="Rectangle 1713_2" d="M3093.72 2538.76C3094.4 2536.24 3096.99 2534.74 3099.52 2535.41V2535.41C3102.05 2536.09 3103.55 2538.69 3102.87 2541.22L3100.91 2548.54C3100.23 2551.06 3097.63 2552.56 3095.11 2551.89V2551.89C3092.58 2551.21 3091.08 2548.61 3091.76 2546.08L3093.72 2538.76Z" fill="#A5586E"/>
<path id="Rectangle 1714_2" d="M3085.63 2568.96C3086.3 2566.43 3088.9 2564.93 3091.43 2565.61V2565.61C3093.96 2566.29 3095.46 2568.89 3094.78 2571.41L3092.82 2578.73C3092.14 2581.26 3089.54 2582.76 3087.02 2582.08V2582.08C3084.49 2581.41 3082.99 2578.81 3083.67 2576.28L3085.63 2568.96Z" fill="#216994"/>
</g>
<path id="Rectangle 1708_2" d="M3110.71 2548.57C3111.66 2545.02 3115.54 2543.15 3118.9 2544.62L3127 2548.14C3128.84 2548.95 3129.97 2550.83 3129.81 2552.84V2552.84C3128.99 2563 3126.33 2572.93 3121.96 2582.14V2582.14C3121.09 2583.96 3119.17 2585.02 3117.18 2584.8L3108.4 2583.8C3104.75 2583.39 3102.33 2579.83 3103.28 2576.29L3110.71 2548.57Z" fill="#3B5766"/>
<rect id="mapHelper_8" x="3052.98" y="2520" width="118" height="54" transform="rotate(15 3052.98 2520)" fill="#A4C424" fill-opacity="0.01"/>
</g>
<g id="GroundBasic:wave=0">
<rect id="person" x="3482" y="3037" width="60" height="60" rx="30" fill="#E87F7B"/>
</g>
<g id="GroundBasic:wave=0_2">
<rect id="person_2" x="3649" y="3067" width="60" height="60" rx="30" fill="#E87F7B"/>
</g>
<g id="GroundBasic:wave=0_3">
<rect id="person_3" x="3567" y="3224" width="60" height="60" rx="30" fill="#E87F7B"/>
</g>
</g>
<g id="wave 1">
<g id="PoliceBasic:wave=1">
<path id="Rectangle 1710_3" d="M5150.86 2973.1C5157.3 2971.52 5163.8 2975.46 5165.38 2981.9L5187.06 3070.28C5189.03 3078.32 5184.11 3086.45 5176.06 3088.42L5152.75 3094.14C5144.71 3096.11 5136.58 3091.19 5134.61 3083.14L5112.93 2994.76C5111.35 2988.33 5115.29 2981.83 5121.73 2980.25L5150.86 2973.1Z" fill="#28363E"/>
<path id="Rectangle 1715_3" d="M5161.56 3000.34L5172.52 3045.01L5135.81 3054.02L5124.85 3009.34L5161.56 3000.34Z" fill="#8598A2"/>
<path id="Rectangle 1709_3" d="M5157.66 3007.2C5161.5 3006.26 5163.39 3001.93 5161.49 2998.48L5159.28 2994.47C5158.12 2992.38 5155.81 2991.17 5153.42 2991.4C5144.71 2992.26 5136.05 2994.38 5127.93 2997.66C5125.7 2998.55 5124.21 3000.69 5124.15 3003.09L5124.05 3007.66C5123.96 3011.61 5127.64 3014.57 5131.48 3013.63L5157.66 3007.2Z" fill="#3B5766"/>
<g id="Group 120_3">
<path id="Rectangle 1712_12" d="M5165.69 3014.99C5168.23 3014.36 5170.79 3015.92 5171.42 3018.46C5172.04 3021 5170.49 3023.56 5167.95 3024.19L5130.22 3033.44C5127.68 3034.07 5125.12 3032.51 5124.49 3029.97C5123.87 3027.43 5125.42 3024.86 5127.96 3024.24L5165.69 3014.99Z" fill="#BACBD6"/>
<path id="Rectangle 1713_3" d="M5165.69 3014.99C5168.23 3014.36 5170.79 3015.92 5171.42 3018.46C5172.04 3021 5170.49 3023.56 5167.95 3024.19L5160.58 3025.99C5158.04 3026.62 5155.48 3025.06 5154.86 3022.52C5154.23 3019.98 5155.79 3017.42 5158.33 3016.79L5165.69 3014.99Z" fill="#A5586E"/>
<path id="Rectangle 1714_3" d="M5135.33 3022.44C5137.87 3021.81 5140.43 3023.37 5141.05 3025.91C5141.68 3028.45 5140.12 3031.01 5137.58 3031.64L5130.22 3033.44C5127.68 3034.07 5125.12 3032.51 5124.49 3029.97C5123.87 3027.43 5125.42 3024.86 5127.96 3024.24L5135.33 3022.44Z" fill="#216994"/>
</g>
<path id="Rectangle 1708_3" d="M5165.28 3034.6C5168.84 3033.72 5172.34 3036.22 5172.68 3039.88L5173.49 3048.67C5173.67 3050.67 5172.57 3052.57 5170.73 3053.39C5161.43 3057.57 5151.45 3060.02 5141.27 3060.62C5139.26 3060.74 5137.4 3059.57 5136.64 3057.71L5133.28 3049.54C5131.89 3046.15 5133.84 3042.31 5137.41 3041.43L5165.28 3034.6Z" fill="#3B5766"/>
<rect id="mapHelper_9" x="5162.52" y="2970.24" width="118" height="54" transform="rotate(76.217 5162.52 2970.24)" fill="#A4C424" fill-opacity="0.01"/>
</g>
<g id="PoliceBasic:wave=1_2">
<path id="Rectangle 1710_4" d="M3449.79 3227.86C3456.23 3226.28 3462.73 3230.22 3464.3 3236.65L3485.98 3325.03C3487.96 3333.08 3483.04 3341.2 3474.99 3343.18L3451.68 3348.89C3443.64 3350.87 3435.51 3345.95 3433.54 3337.9L3411.86 3249.52C3410.28 3243.08 3414.22 3236.59 3420.65 3235.01L3449.79 3227.86Z" fill="#28363E"/>
<path id="Rectangle 1715_4" d="M3460.49 3255.09L3471.45 3299.77L3434.74 3308.78L3423.78 3264.1L3460.49 3255.09Z" fill="#8598A2"/>
<path id="Rectangle 1709_4" d="M3456.59 3261.96C3460.43 3261.02 3462.32 3256.69 3460.41 3253.23L3458.21 3249.23C3457.05 3247.13 3454.74 3245.93 3452.35 3246.16C3443.63 3247.02 3434.98 3249.14 3426.85 3252.41C3424.63 3253.31 3423.14 3255.45 3423.08 3257.85L3422.98 3262.41C3422.89 3266.36 3426.57 3269.32 3430.41 3268.38L3456.59 3261.96Z" fill="#3B5766"/>
<g id="Group 120_4">
<path id="Rectangle 1712_13" d="M3464.62 3269.74C3467.16 3269.12 3469.72 3270.67 3470.35 3273.21C3470.97 3275.76 3469.42 3278.32 3466.87 3278.94L3429.15 3288.2C3426.61 3288.82 3424.04 3287.27 3423.42 3284.73C3422.8 3282.19 3424.35 3279.62 3426.89 3279L3464.62 3269.74Z" fill="#BACBD6"/>
<path id="Rectangle 1713_4" d="M3464.62 3269.74C3467.16 3269.12 3469.72 3270.67 3470.35 3273.21C3470.97 3275.76 3469.42 3278.32 3466.87 3278.94L3459.51 3280.75C3456.97 3281.37 3454.41 3279.82 3453.78 3277.28C3453.16 3274.74 3454.72 3272.17 3457.26 3271.55L3464.62 3269.74Z" fill="#A5586E"/>
<path id="Rectangle 1714_4" d="M3434.25 3277.19C3436.8 3276.57 3439.36 3278.12 3439.98 3280.66C3440.61 3283.2 3439.05 3285.77 3436.51 3286.39L3429.15 3288.2C3426.61 3288.82 3424.04 3287.27 3423.42 3284.73C3422.8 3282.19 3424.35 3279.62 3426.89 3279L3434.25 3277.19Z" fill="#216994"/>
</g>
<path id="Rectangle 1708_4" d="M3464.21 3289.35C3467.77 3288.48 3471.27 3290.98 3471.61 3294.63L3472.42 3303.43C3472.6 3305.43 3471.49 3307.33 3469.66 3308.15C3460.36 3312.33 3450.38 3314.78 3440.2 3315.38C3438.19 3315.5 3436.33 3314.33 3435.57 3312.47L3432.21 3304.3C3430.82 3300.9 3432.77 3297.06 3436.33 3296.19L3464.21 3289.35Z" fill="#3B5766"/>
<rect id="mapHelper_10" x="3461.45" y="3225" width="118" height="54" transform="rotate(76.217 3461.45 3225)" fill="#A4C424" fill-opacity="0.01"/>
</g>
<g id="GroundBasic:wave=1">
<rect id="person_4" x="2618" y="2245" width="60" height="60" rx="30" fill="#E87F7B"/>
</g>
<g id="GroundBasic:wave=1_2">
<rect id="person_5" x="2736" y="2006" width="60" height="60" rx="30" fill="#E87F7B"/>
</g>
<g id="GroundBasic:wave=1_3">
<rect id="person_6" x="2766" y="2200" width="60" height="60" rx="30" fill="#E87F7B"/>
</g>
<g id="GroundBasic:wave=1_4">
<rect id="person_7" x="2678" y="2501" width="60" height="60" rx="30" fill="#E87F7B"/>
</g>
</g>
</g>
</g>
<defs>
<filter id="filter0_d_2237_3750" x="4095" y="3721" width="82" height="82" filterUnits="userSpaceOnUse" color-interpolation-filters="sRGB">
<feFlood flood-opacity="0" result="BackgroundImageFix"/>
<feColorMatrix in="SourceAlpha" type="matrix" values="0 0 0 0 0 0 0 0 0 0 0 0 0 0 0 0 0 0 127 0" result="hardAlpha"/>
<feOffset dx="12" dy="12"/>
<feComposite in2="hardAlpha" operator="out"/>
<feColorMatrix type="matrix" values="0 0 0 0 0 0 0 0 0 0 0 0 0 0 0 0 0 0 0.15 0"/>
<feBlend mode="normal" in2="BackgroundImageFix" result="effect1_dropShadow_2237_3750"/>
<feBlend mode="normal" in="SourceGraphic" in2="effect1_dropShadow_2237_3750" result="shape"/>
</filter>
<filter id="filter1_d_2237_3750" x="2317" y="2469" width="82" height="82" filterUnits="userSpaceOnUse" color-interpolation-filters="sRGB">
<feFlood flood-opacity="0" result="BackgroundImageFix"/>
<feColorMatrix in="SourceAlpha" type="matrix" values="0 0 0 0 0 0 0 0 0 0 0 0 0 0 0 0 0 0 127 0" result="hardAlpha"/>
<feOffset dx="12" dy="12"/>
<feComposite in2="hardAlpha" operator="out"/>
<feColorMatrix type="matrix" values="0 0 0 0 0 0 0 0 0 0 0 0 0 0 0 0 0 0 0.15 0"/>
<feBlend mode="normal" in2="BackgroundImageFix" result="effect1_dropShadow_2237_3750"/>
<feBlend mode="normal" in="SourceGraphic" in2="effect1_dropShadow_2237_3750" result="shape"/>
</filter>
<filter id="filter2_d_2237_3750" x="2367" y="3885" width="82" height="82" filterUnits="userSpaceOnUse" color-interpolation-filters="sRGB">
<feFlood flood-opacity="0" result="BackgroundImageFix"/>
<feColorMatrix in="SourceAlpha" type="matrix" values="0 0 0 0 0 0 0 0 0 0 0 0 0 0 0 0 0 0 127 0" result="hardAlpha"/>
<feOffset dx="12" dy="12"/>
<feComposite in2="hardAlpha" operator="out"/>
<feColorMatrix type="matrix" values="0 0 0 0 0 0 0 0 0 0 0 0 0 0 0 0 0 0 0.15 0"/>
<feBlend mode="normal" in2="BackgroundImageFix" result="effect1_dropShadow_2237_3750"/>
<feBlend mode="normal" in="SourceGraphic" in2="effect1_dropShadow_2237_3750" result="shape"/>
</filter>
<filter id="filter3_d_2237_3750" x="3307" y="2526" width="82" height="82" filterUnits="userSpaceOnUse" color-interpolation-filters="sRGB">
<feFlood flood-opacity="0" result="BackgroundImageFix"/>
<feColorMatrix in="SourceAlpha" type="matrix" values="0 0 0 0 0 0 0 0 0 0 0 0 0 0 0 0 0 0 127 0" result="hardAlpha"/>
<feOffset dx="12" dy="12"/>
<feComposite in2="hardAlpha" operator="out"/>
<feColorMatrix type="matrix" values="0 0 0 0 0 0 0 0 0 0 0 0 0 0 0 0 0 0 0.15 0"/>
<feBlend mode="normal" in2="BackgroundImageFix" result="effect1_dropShadow_2237_3750"/>
<feBlend mode="normal" in="SourceGraphic" in2="effect1_dropShadow_2237_3750" result="shape"/>
</filter>
<clipPath id="clip0_2237_3750">
<rect width="6961" height="6632" fill="white"/>
</clipPath>
<clipPath id="clip1_2237_3750">
<rect width="311" height="326" fill="white" transform="translate(3010 2219)"/>
</clipPath>
<clipPath id="clip2_2237_3750">
<rect width="311" height="326" fill="white" transform="translate(4661 4653)"/>
</clipPath>
<clipPath id="clip3_2237_3750">
<rect width="311" height="326" fill="white" transform="translate(4445 4178)"/>
</clipPath>
<clipPath id="clip4_2237_3750">
<rect width="311" height="326" fill="white" transform="translate(2728 4711)"/>
</clipPath>
<clipPath id="clip5_2237_3750">
<rect width="168" height="176" fill="white" transform="translate(1807 4076)"/>
</clipPath>
<clipPath id="clip6_2237_3750">
<rect width="168" height="176" fill="white" transform="translate(2209 2598)"/>
</clipPath>
<clipPath id="clip7_2237_3750">
<rect width="168" height="176" fill="white" transform="translate(3225 3111)"/>
</clipPath>
<clipPath id="clip8_2237_3750">
<rect width="168" height="176" fill="white" transform="translate(4543 2786)"/>
</clipPath>
<clipPath id="clip9_2237_3750">
<rect width="168" height="176" fill="white" transform="translate(3649 4119)"/>
</clipPath>
<clipPath id="clip10_2237_3750">
<rect width="168" height="176" fill="white" transform="translate(4987 2369)"/>
</clipPath>
<clipPath id="clip11_2237_3750">
<rect width="168" height="176" fill="white" transform="translate(3608 4990)"/>
</clipPath>
<clipPath id="clip12_2237_3750">
<rect width="177" height="180" fill="white" transform="translate(2418 4522)"/>
</clipPath>
<clipPath id="clip13_2237_3750">
<rect width="177" height="180" fill="white" transform="translate(4094 3519)"/>
</clipPath>
<clipPath id="clip14_2237_3750">
<rect width="177" height="180" fill="white" transform="translate(1594 3857)"/>
</clipPath>
<clipPath id="clip15_2237_3750">
<rect width="177" height="180" fill="white" transform="translate(1623 3362)"/>
</clipPath>
<clipPath id="clip16_2237_3750">
<rect width="177" height="180" fill="white" transform="translate(4958 4473)"/>
</clipPath>
<clipPath id="clip17_2237_3750">
<rect width="177" height="180" fill="white" transform="translate(5001 2538)"/>
</clipPath>
<clipPath id="clip18_2237_3750">
<rect width="177" height="180" fill="white" transform="translate(3386 2220)"/>
</clipPath>
<clipPath id="clip19_2237_3750">
<rect width="177" height="180" fill="white" transform="translate(3752 1770)"/>
</clipPath>
<clipPath id="clip20_2237_3750">
<rect width="177" height="180" fill="white" transform="translate(2321 1656)"/>
</clipPath>
<clipPath id="clip21_2237_3750">
<rect width="297" height="206" fill="white" transform="translate(2715 2897)"/>
</clipPath>
<clipPath id="clip22_2237_3750">
<rect width="297" height="206" fill="white" transform="translate(3251 1950)"/>
</clipPath>
<clipPath id="clip23_2237_3750">
<rect width="297" height="206" fill="white" transform="translate(4328 4576)"/>
</clipPath>
<clipPath id="clip24_2237_3750">
<rect width="297" height="206" fill="white" transform="translate(3291 3853)"/>
</clipPath>
<clipPath id="clip25_2237_3750">
<rect width="297" height="206" fill="white" transform="translate(3974 1729)"/>
</clipPath>
<clipPath id="clip26_2237_3750">
<rect width="149" height="134" fill="white" transform="translate(2377 1919)"/>
</clipPath>
<clipPath id="clip27_2237_3750">
<rect width="149" height="134" fill="white" transform="translate(3510 1801)"/>
</clipPath>
<clipPath id="clip28_2237_3750">
<rect width="149" height="134" fill="white" transform="translate(3733 2819)"/>
</clipPath>
<clipPath id="clip29_2237_3750">
<rect width="149" height="134" fill="white" transform="translate(3172 4032)"/>
</clipPath>
<clipPath id="clip30_2237_3750">
<rect width="149" height="134" fill="white" transform="translate(2579 4716)"/>
</clipPath>
<clipPath id="clip31_2237_3750">
<rect width="149" height="134" fill="white" transform="translate(2826 5169)"/>
</clipPath>
<clipPath id="clip32_2237_3750">
<rect width="149" height="134" fill="white" transform="translate(4793 4429)"/>
</clipPath>
<clipPath id="clip33_2237_3750">
<rect width="149" height="134" fill="white" transform="translate(4943 3605)"/>
</clipPath>
<clipPath id="clip34_2237_3750">
<rect width="149" height="134" fill="white" transform="translate(5032 2246)"/>
</clipPath>
<clipPath id="clip35_2237_3750">
<rect width="144" height="120" fill="white" transform="translate(3067 3038)"/>
</clipPath>
<clipPath id="clip36_2237_3750">
<rect width="144" height="120" fill="white" transform="translate(2899 2210)"/>
</clipPath>
<clipPath id="clip37_2237_3750">
<rect width="144" height="120" fill="white" transform="translate(3338 3651)"/>
</clipPath>
<clipPath id="clip38_2237_3750">
<rect width="144" height="120" fill="white" transform="translate(5087 2786)"/>
</clipPath>
<clipPath id="clip39_2237_3750">
<rect width="144" height="120" fill="white" transform="translate(4637 3863)"/>
</clipPath>
<clipPath id="clip40_2237_3750">
<rect width="144" height="120" fill="white" transform="translate(3834 5054)"/>
</clipPath>
<clipPath id="clip41_2237_3750">
<rect width="144" height="120" fill="white" transform="translate(2282 4680)"/>
</clipPath>
<clipPath id="clip42_2237_3750">
<rect width="144" height="120" fill="white" transform="translate(1567 4076)"/>
</clipPath>
<clipPath id="clip43_2237_3750">
<rect width="100" height="60" fill="white" transform="translate(3237 5579) rotate(-90)"/>
</clipPath>
</defs>
</svg>
