<svg width="5810" height="5925" viewBox="0 0 5810 5925" fill="none" xmlns="http://www.w3.org/2000/svg">
<g id="hitbox" clip-path="url(#clip0_2237_3750)">
<g id="room0Road">
<path id="road" d="M2768.5 5C2768.5 154 2768.5 690 2768.5 934C2768.5 1178 2092.09 1326.45 2114.15 1727.5C2139.74 2192.62 2888.9 1992.64 3090.65 2412.5C3199.98 2640.03 3081.83 2828.8 3206.15 3048.5C3356.15 3313.58 3585.94 3252.47 3604.15 3556.5C3627.15 3940.5 2754.15 3930.36 2754.15 4495.5C2754.15 4748 2760.15 5198 2760.15 5198M2760.15 4448C2760.15 4150 2714.93 3629.63 2388.15 3638.5C1835.65 3653.5 1431.94 3255.96 1479.65 2966C1531.15 2653 1672.9 2562.11 1908.15 2344.5C2028.15 2233.5 2080.65 2037 2110.65 1737M3605.65 3555C3605.65 3555 3958.65 3048.5 4248.65 2849.5C4498.81 2677.84 4467.07 2483.32 4377.65 2284.5C4279.15 2065.5 4324.15 1955 4248.65 1786.5C4126.56 1514.03 3766.15 1505.5 3497.15 1475.5C3217.34 1444.29 3254.15 1890.5 2961.65 2136.5" stroke="#1C506F" stroke-opacity="0.05" stroke-width="310" stroke-linecap="round"/>
</g>
<g id="tree1" clip-path="url(#clip1_2237_3750)">
<path id="Union" fill-rule="evenodd" clip-rule="evenodd" d="M2763.32 1722.69C2774.89 1722.07 2785.1 1718.12 2792.65 1710.57C2815.49 1687.73 2805.37 1640.59 2770.05 1605.27C2734.73 1569.95 2687.58 1559.83 2664.75 1582.66C2641.91 1605.5 2652.03 1652.64 2687.35 1687.96C2698.22 1698.84 2710.22 1707.32 2722.28 1713.19C2707.11 1713.69 2693.17 1719 2682.76 1729.4C2656.46 1755.7 2662.75 1804.63 2696.8 1838.69C2730.86 1872.74 2779.79 1879.03 2806.09 1852.73C2832.39 1826.43 2826.1 1777.5 2792.05 1743.44C2783.25 1734.65 2773.46 1727.7 2763.32 1722.69ZM2652.35 1811.45C2632.76 1831.04 2595.26 1825.32 2568.6 1798.65C2541.94 1771.99 2536.21 1734.49 2555.8 1714.9C2575.4 1695.3 2612.9 1701.03 2639.56 1727.69C2666.22 1754.36 2671.95 1791.85 2652.35 1811.45Z" fill="black" fill-opacity="0.15"/>
<circle id="Ellipse 1" cx="2703.15" cy="1752.79" r="72.0544" fill="#63A45E"/>
<circle id="Ellipse 1_2" cx="2568.04" cy="1726.04" r="57.0431" fill="#86B557"/>
<circle id="Ellipse 1_3" cx="2685.13" cy="1606.05" r="63.0476" fill="#73AE65"/>
<rect id="Rectangle 2165" x="2511" y="1543" width="5" height="5" fill="#A4C424" fill-opacity="0.01"/>
</g>
<g id="tree1_2" clip-path="url(#clip2_2237_3750)">
<path id="Union_2" fill-rule="evenodd" clip-rule="evenodd" d="M4414.32 4156.69C4425.89 4156.07 4436.1 4152.12 4443.65 4144.57C4466.49 4121.73 4456.37 4074.59 4421.05 4039.27C4385.73 4003.95 4338.58 3993.83 4315.75 4016.66C4292.91 4039.5 4303.03 4086.64 4338.35 4121.96C4349.22 4132.84 4361.22 4141.32 4373.28 4147.19C4358.11 4147.69 4344.17 4153 4333.76 4163.4C4307.46 4189.7 4313.75 4238.63 4347.8 4272.69C4381.86 4306.74 4430.79 4313.03 4457.09 4286.73C4483.39 4260.43 4477.1 4211.5 4443.05 4177.44C4434.25 4168.65 4424.46 4161.7 4414.32 4156.69ZM4303.35 4245.45C4283.76 4265.04 4246.26 4259.32 4219.6 4232.65C4192.94 4205.99 4187.21 4168.49 4206.8 4148.9C4226.4 4129.3 4263.9 4135.03 4290.56 4161.69C4317.22 4188.36 4322.95 4225.85 4303.35 4245.45Z" fill="black" fill-opacity="0.15"/>
<circle id="Ellipse 1_4" cx="4354.15" cy="4186.79" r="72.0544" fill="#63A45E"/>
<circle id="Ellipse 1_5" cx="4219.04" cy="4160.04" r="57.0431" fill="#86B557"/>
<circle id="Ellipse 1_6" cx="4336.13" cy="4040.05" r="63.0476" fill="#73AE65"/>
<rect id="Rectangle 2165_2" x="4162" y="3977" width="5" height="5" fill="#A4C424" fill-opacity="0.01"/>
</g>
<g id="tree1_3" clip-path="url(#clip3_2237_3750)">
<path id="Union_3" fill-rule="evenodd" clip-rule="evenodd" d="M4198.32 3681.69C4209.89 3681.07 4220.1 3677.12 4227.65 3669.57C4250.49 3646.73 4240.37 3599.59 4205.05 3564.27C4169.73 3528.95 4122.58 3518.83 4099.75 3541.66C4076.91 3564.5 4087.03 3611.64 4122.35 3646.96C4133.22 3657.84 4145.22 3666.32 4157.28 3672.19C4142.11 3672.69 4128.17 3678 4117.76 3688.4C4091.46 3714.7 4097.75 3763.63 4131.8 3797.69C4165.86 3831.74 4214.79 3838.03 4241.09 3811.73C4267.39 3785.43 4261.1 3736.5 4227.05 3702.44C4218.25 3693.65 4208.46 3686.7 4198.32 3681.69ZM4087.35 3770.45C4067.76 3790.04 4030.26 3784.32 4003.6 3757.65C3976.94 3730.99 3971.21 3693.49 3990.8 3673.9C4010.4 3654.3 4047.9 3660.03 4074.56 3686.69C4101.22 3713.36 4106.95 3750.85 4087.35 3770.45Z" fill="black" fill-opacity="0.15"/>
<circle id="Ellipse 1_7" cx="4138.15" cy="3711.79" r="72.0544" fill="#63A45E"/>
<circle id="Ellipse 1_8" cx="4003.04" cy="3685.04" r="57.0431" fill="#86B557"/>
<circle id="Ellipse 1_9" cx="4120.13" cy="3565.05" r="63.0476" fill="#73AE65"/>
<rect id="Rectangle 2165_3" x="3946" y="3502" width="5" height="5" fill="#A4C424" fill-opacity="0.01"/>
</g>
<g id="tree1_4" clip-path="url(#clip4_2237_3750)">
<path id="Union_4" fill-rule="evenodd" clip-rule="evenodd" d="M2481.32 4214.69C2492.89 4214.07 2503.1 4210.12 2510.65 4202.57C2533.49 4179.73 2523.37 4132.59 2488.05 4097.27C2452.73 4061.95 2405.58 4051.83 2382.75 4074.66C2359.91 4097.5 2370.03 4144.64 2405.35 4179.96C2416.22 4190.84 2428.22 4199.32 2440.28 4205.19C2425.11 4205.69 2411.17 4211 2400.76 4221.4C2374.46 4247.7 2380.75 4296.63 2414.8 4330.69C2448.86 4364.74 2497.79 4371.03 2524.09 4344.73C2550.39 4318.43 2544.1 4269.5 2510.05 4235.44C2501.25 4226.65 2491.46 4219.7 2481.32 4214.69ZM2370.35 4303.45C2350.76 4323.04 2313.26 4317.32 2286.6 4290.65C2259.94 4263.99 2254.21 4226.49 2273.8 4206.9C2293.4 4187.3 2330.9 4193.03 2357.56 4219.69C2384.22 4246.36 2389.95 4283.85 2370.35 4303.45Z" fill="black" fill-opacity="0.15"/>
<circle id="Ellipse 1_10" cx="2421.15" cy="4244.79" r="72.0544" fill="#63A45E"/>
<circle id="Ellipse 1_11" cx="2286.04" cy="4218.04" r="57.0431" fill="#86B557"/>
<circle id="Ellipse 1_12" cx="2403.13" cy="4098.05" r="63.0476" fill="#73AE65"/>
<rect id="Rectangle 2165_4" x="2229" y="4035" width="5" height="5" fill="#A4C424" fill-opacity="0.01"/>
</g>
<g id="tree2">
<path id="Union_5" fill-rule="evenodd" clip-rule="evenodd" d="M2987.23 3631.36C3000.83 3631.53 3012.7 3627.61 3021.15 3619.15C3024.94 3615.36 3027.82 3610.88 3029.83 3605.87C3032.89 3609.63 3036.2 3613.32 3039.78 3616.9C3073.83 3650.95 3118.27 3661.73 3139.04 3640.97C3159.8 3620.2 3149.03 3575.76 3114.97 3541.71C3080.92 3507.65 3036.48 3496.88 3015.71 3517.64C3013.78 3519.58 3012.11 3521.72 3010.72 3524.04C3005.25 3516.22 2998.84 3508.55 2991.56 3501.26C2950.83 3460.54 2898.05 3447.29 2873.67 3471.67C2849.29 3496.05 2862.54 3548.83 2903.27 3589.56C2906.83 3593.12 2910.48 3596.47 2914.2 3599.61C2906.27 3600.71 2899.34 3603.83 2894.04 3609.13C2874.45 3628.73 2884.6 3670.65 2916.71 3702.76C2948.82 3734.87 2990.74 3745.02 3010.34 3725.43C3029.93 3705.83 3019.78 3663.91 2987.67 3631.8C2987.52 3631.65 2987.38 3631.51 2987.23 3631.36Z" fill="black" fill-opacity="0.15"/>
<circle id="Ellipse 1_13" cx="3038.23" cy="3543.16" r="60.0454" fill="#63A45E"/>
<circle id="Ellipse 1_14" cx="2915.07" cy="3630.16" r="54.0408" fill="#73AE65"/>
<circle id="Ellipse 1_15" cx="2894.05" cy="3495.05" r="72.0544" fill="#86B557"/>
<rect id="Rectangle 2165_5" x="2822" y="3423" width="5" height="5" fill="#A4C424" fill-opacity="0.01"/>
</g>
<g id="tree2_2">
<path id="Union_6" fill-rule="evenodd" clip-rule="evenodd" d="M1659.23 1338.36C1672.83 1338.54 1684.7 1334.61 1693.15 1326.15C1696.94 1322.36 1699.82 1317.88 1701.83 1312.87C1704.89 1316.63 1708.2 1320.32 1711.78 1323.9C1745.83 1357.95 1790.27 1368.73 1811.04 1347.97C1831.8 1327.2 1821.03 1282.76 1786.97 1248.71C1752.92 1214.65 1708.48 1203.88 1687.71 1224.64C1685.78 1226.58 1684.11 1228.72 1682.72 1231.04C1677.25 1223.22 1670.84 1215.55 1663.56 1208.26C1622.83 1167.54 1570.05 1154.29 1545.67 1178.67C1521.29 1203.05 1534.54 1255.83 1575.27 1296.56C1578.83 1300.12 1582.48 1303.47 1586.2 1306.61C1578.27 1307.71 1571.34 1310.83 1566.04 1316.13C1546.45 1335.73 1556.6 1377.65 1588.71 1409.76C1620.82 1441.87 1662.74 1452.02 1682.34 1432.43C1701.93 1412.83 1691.78 1370.91 1659.67 1338.8C1659.52 1338.65 1659.38 1338.51 1659.23 1338.36Z" fill="black" fill-opacity="0.15"/>
<circle id="Ellipse 1_16" cx="1710.23" cy="1250.16" r="60.0454" fill="#63A45E"/>
<circle id="Ellipse 1_17" cx="1587.07" cy="1337.16" r="54.0408" fill="#73AE65"/>
<circle id="Ellipse 1_18" cx="1566.05" cy="1202.05" r="72.0544" fill="#86B557"/>
<rect id="Rectangle 2165_6" x="1494" y="1130" width="5" height="5" fill="#A4C424" fill-opacity="0.01"/>
</g>
<g id="tree6" clip-path="url(#clip5_2237_3750)">
<path id="Union_7" d="M1468.02 3560.31C1449.94 3578.38 1408.2 3565.95 1374.79 3532.54C1341.38 3499.12 1328.94 3457.39 1347.02 3439.31C1365.09 3421.24 1406.83 3433.67 1440.24 3467.08C1473.66 3500.5 1486.09 3542.24 1468.02 3560.31Z" fill="black" fill-opacity="0.15"/>
<circle id="Ellipse 1_19" cx="1368" cy="3460.29" r="53" fill="#86B557"/>
<rect id="Rectangle 2165_7" x="1308" y="3400" width="5" height="5" fill="#A4C424" fill-opacity="0.01"/>
</g>
<g id="tree6_2" clip-path="url(#clip6_2237_3750)">
<path id="Union_8" d="M1870.02 2082.31C1851.94 2100.38 1810.2 2087.95 1776.79 2054.54C1743.38 2021.12 1730.94 1979.39 1749.02 1961.31C1767.09 1943.24 1808.83 1955.67 1842.24 1989.08C1875.66 2022.5 1888.09 2064.24 1870.02 2082.31Z" fill="black" fill-opacity="0.15"/>
<circle id="Ellipse 1_20" cx="1770" cy="1982.29" r="53" fill="#86B557"/>
<rect id="Rectangle 2165_8" x="1710" y="1922" width="5" height="5" fill="#A4C424" fill-opacity="0.01"/>
</g>
<g id="tree6_3" clip-path="url(#clip7_2237_3750)">
<path id="Union_9" d="M2886.02 2595.31C2867.94 2613.38 2826.2 2600.95 2792.79 2567.54C2759.38 2534.12 2746.94 2492.39 2765.02 2474.31C2783.09 2456.24 2824.83 2468.67 2858.24 2502.08C2891.66 2535.5 2904.09 2577.24 2886.02 2595.31Z" fill="black" fill-opacity="0.15"/>
<circle id="Ellipse 1_21" cx="2786" cy="2495.29" r="53" fill="#86B557"/>
<rect id="Rectangle 2165_9" x="2726" y="2435" width="5" height="5" fill="#A4C424" fill-opacity="0.01"/>
</g>
<g id="tree6_4" clip-path="url(#clip8_2237_3750)">
<path id="Union_10" d="M4204.02 2270.31C4185.94 2288.38 4144.2 2275.95 4110.79 2242.54C4077.38 2209.12 4064.94 2167.39 4083.02 2149.31C4101.09 2131.24 4142.83 2143.67 4176.24 2177.08C4209.66 2210.5 4222.09 2252.24 4204.02 2270.31Z" fill="black" fill-opacity="0.15"/>
<circle id="Ellipse 1_22" cx="4104" cy="2170.29" r="53" fill="#86B557"/>
<rect id="Rectangle 2165_10" x="4044" y="2110" width="5" height="5" fill="#A4C424" fill-opacity="0.01"/>
</g>
<g id="tree6_5" clip-path="url(#clip9_2237_3750)">
<path id="Union_11" d="M3310.02 3603.31C3291.94 3621.38 3250.2 3608.95 3216.79 3575.54C3183.38 3542.12 3170.94 3500.39 3189.02 3482.31C3207.09 3464.24 3248.83 3476.67 3282.24 3510.08C3315.66 3543.5 3328.09 3585.24 3310.02 3603.31Z" fill="black" fill-opacity="0.15"/>
<circle id="Ellipse 1_23" cx="3210" cy="3503.29" r="53" fill="#86B557"/>
<rect id="Rectangle 2165_11" x="3150" y="3443" width="5" height="5" fill="#A4C424" fill-opacity="0.01"/>
</g>
<g id="tree6_6" clip-path="url(#clip10_2237_3750)">
<path id="Union_12" d="M4648.02 1853.31C4629.94 1871.38 4588.2 1858.95 4554.79 1825.54C4521.38 1792.12 4508.94 1750.39 4527.02 1732.31C4545.09 1714.24 4586.83 1726.67 4620.24 1760.08C4653.66 1793.5 4666.09 1835.24 4648.02 1853.31Z" fill="black" fill-opacity="0.15"/>
<circle id="Ellipse 1_24" cx="4548" cy="1753.29" r="53" fill="#86B557"/>
<rect id="Rectangle 2165_12" x="4488" y="1693" width="5" height="5" fill="#A4C424" fill-opacity="0.01"/>
</g>
<g id="tree6_7" clip-path="url(#clip11_2237_3750)">
<path id="Union_13" d="M3269.02 4474.31C3250.94 4492.38 3209.2 4479.95 3175.79 4446.54C3142.38 4413.12 3129.94 4371.39 3148.02 4353.31C3166.09 4335.24 3207.83 4347.67 3241.24 4381.08C3274.66 4414.5 3287.09 4456.24 3269.02 4474.31Z" fill="black" fill-opacity="0.15"/>
<circle id="Ellipse 1_25" cx="3169" cy="4374.29" r="53" fill="#86B557"/>
<rect id="Rectangle 2165_13" x="3109" y="4314" width="5" height="5" fill="#A4C424" fill-opacity="0.01"/>
</g>
<g id="tree5" clip-path="url(#clip12_2237_3750)">
<path id="Union_14" d="M2084.55 4008.55C2062.82 4030.28 2018.36 4021.06 1985.26 3987.95C1952.15 3954.85 1942.93 3910.4 1964.67 3888.66C1986.4 3866.93 2030.85 3876.15 2063.96 3909.25C2097.06 3942.36 2106.28 3986.81 2084.55 4008.55Z" fill="black" fill-opacity="0.15"/>
<circle id="Ellipse 1_26" cx="1985.05" cy="3912.05" r="66.0499" fill="#63A45E"/>
<rect id="Rectangle 2165_14" x="1919" y="3846" width="5" height="5" fill="#A4C424" fill-opacity="0.01"/>
</g>
<g id="tree5_2" clip-path="url(#clip13_2237_3750)">
<path id="Union_15" d="M3760.55 3005.55C3738.82 3027.28 3694.36 3018.06 3661.26 2984.95C3628.15 2951.85 3618.93 2907.4 3640.67 2885.66C3662.4 2863.93 3706.85 2873.15 3739.96 2906.25C3773.06 2939.36 3782.28 2983.81 3760.55 3005.55Z" fill="black" fill-opacity="0.15"/>
<circle id="Ellipse 1_27" cx="3661.05" cy="2909.05" r="66.0499" fill="#63A45E"/>
<rect id="Rectangle 2165_15" x="3595" y="2843" width="5" height="5" fill="#A4C424" fill-opacity="0.01"/>
</g>
<g id="tree5_3" clip-path="url(#clip14_2237_3750)">
<path id="Union_16" d="M1260.55 3343.55C1238.82 3365.28 1194.36 3356.06 1161.26 3322.95C1128.15 3289.85 1118.93 3245.4 1140.67 3223.66C1162.4 3201.93 1206.85 3211.15 1239.96 3244.25C1273.06 3277.36 1282.28 3321.81 1260.55 3343.55Z" fill="black" fill-opacity="0.15"/>
<circle id="Ellipse 1_28" cx="1161.05" cy="3247.05" r="66.0499" fill="#63A45E"/>
<rect id="Rectangle 2165_16" x="1095" y="3181" width="5" height="5" fill="#A4C424" fill-opacity="0.01"/>
</g>
<g id="tree5_4" clip-path="url(#clip15_2237_3750)">
<path id="Union_17" d="M1289.55 2848.55C1267.82 2870.28 1223.36 2861.06 1190.26 2827.95C1157.15 2794.85 1147.93 2750.4 1169.67 2728.66C1191.4 2706.93 1235.85 2716.15 1268.96 2749.25C1302.06 2782.36 1311.28 2826.81 1289.55 2848.55Z" fill="black" fill-opacity="0.15"/>
<circle id="Ellipse 1_29" cx="1190.05" cy="2752.05" r="66.0499" fill="#63A45E"/>
<rect id="Rectangle 2165_17" x="1124" y="2686" width="5" height="5" fill="#A4C424" fill-opacity="0.01"/>
</g>
<g id="tree5_5" clip-path="url(#clip16_2237_3750)">
<path id="Union_18" d="M4624.55 3959.55C4602.82 3981.28 4558.36 3972.06 4525.26 3938.95C4492.15 3905.85 4482.93 3861.4 4504.67 3839.66C4526.4 3817.93 4570.85 3827.15 4603.96 3860.25C4637.06 3893.36 4646.28 3937.81 4624.55 3959.55Z" fill="black" fill-opacity="0.15"/>
<circle id="Ellipse 1_30" cx="4525.05" cy="3863.05" r="66.0499" fill="#63A45E"/>
<rect id="Rectangle 2165_18" x="4459" y="3797" width="5" height="5" fill="#A4C424" fill-opacity="0.01"/>
</g>
<g id="tree5_6" clip-path="url(#clip17_2237_3750)">
<path id="Union_19" d="M4667.55 2024.55C4645.82 2046.28 4601.36 2037.06 4568.26 2003.95C4535.15 1970.85 4525.93 1926.4 4547.67 1904.66C4569.4 1882.93 4613.85 1892.15 4646.96 1925.25C4680.06 1958.36 4689.28 2002.81 4667.55 2024.55Z" fill="black" fill-opacity="0.15"/>
<circle id="Ellipse 1_31" cx="4568.05" cy="1928.05" r="66.0499" fill="#63A45E"/>
<rect id="Rectangle 2165_19" x="4502" y="1862" width="5" height="5" fill="#A4C424" fill-opacity="0.01"/>
</g>
<g id="tree5_7" clip-path="url(#clip18_2237_3750)">
<path id="Union_20" d="M3052.55 1706.55C3030.82 1728.28 2986.36 1719.06 2953.26 1685.95C2920.15 1652.85 2910.93 1608.4 2932.67 1586.66C2954.4 1564.93 2998.85 1574.15 3031.96 1607.25C3065.06 1640.36 3074.28 1684.81 3052.55 1706.55Z" fill="black" fill-opacity="0.15"/>
<circle id="Ellipse 1_32" cx="2953.05" cy="1610.05" r="66.0499" fill="#63A45E"/>
<rect id="Rectangle 2165_20" x="2887" y="1544" width="5" height="5" fill="#A4C424" fill-opacity="0.01"/>
</g>
<g id="tree5_8" clip-path="url(#clip19_2237_3750)">
<path id="Union_21" d="M3418.55 1256.55C3396.82 1278.28 3352.36 1269.06 3319.26 1235.95C3286.15 1202.85 3276.93 1158.4 3298.67 1136.66C3320.4 1114.93 3364.85 1124.15 3397.96 1157.25C3431.06 1190.36 3440.28 1234.81 3418.55 1256.55Z" fill="black" fill-opacity="0.15"/>
<circle id="Ellipse 1_33" cx="3319.05" cy="1160.05" r="66.0499" fill="#63A45E"/>
<rect id="Rectangle 2165_21" x="3253" y="1094" width="5" height="5" fill="#A4C424" fill-opacity="0.01"/>
</g>
<g id="tree5_9" clip-path="url(#clip20_2237_3750)">
<path id="Union_22" d="M1987.55 1142.55C1965.82 1164.28 1921.36 1155.06 1888.26 1121.95C1855.15 1088.85 1845.93 1044.4 1867.67 1022.66C1889.4 1000.93 1933.85 1010.15 1966.96 1043.25C2000.06 1076.36 2009.28 1120.81 1987.55 1142.55Z" fill="black" fill-opacity="0.15"/>
<circle id="Ellipse 1_34" cx="1888.05" cy="1046.05" r="66.0499" fill="#63A45E"/>
<rect id="Rectangle 2165_22" x="1822" y="980" width="5" height="5" fill="#A4C424" fill-opacity="0.01"/>
</g>
<g id="tree4">
<path id="Union_23" fill-rule="evenodd" clip-rule="evenodd" d="M1842.08 1679.36C1862.88 1683.77 1882.49 1679.94 1895.51 1666.92C1920.29 1642.14 1911.79 1593.47 1876.53 1558.2C1841.27 1522.94 1792.59 1514.44 1767.81 1539.22C1743.03 1564 1751.53 1612.68 1786.79 1647.94C1787.76 1648.91 1788.74 1649.86 1789.73 1650.78C1775.11 1648.77 1761.74 1652.03 1752.63 1661.14C1732.96 1680.82 1740.56 1720.32 1769.61 1749.37C1798.67 1778.43 1838.17 1786.03 1857.84 1766.36C1877.24 1746.96 1870.12 1708.29 1842.08 1679.36Z" fill="black" fill-opacity="0.15"/>
<circle id="Ellipse 1_35" cx="1771.05" cy="1679.56" r="54.0408" fill="#86B557"/>
<circle id="Ellipse 1_36" cx="1780.05" cy="1547.46" r="72.0544" fill="#73AE65"/>
<rect id="Rectangle 2165_23" x="1708" y="1475" width="5" height="5" fill="#A4C424" fill-opacity="0.01"/>
</g>
<g id="tree4_2">
<path id="Union_24" fill-rule="evenodd" clip-rule="evenodd" d="M1864.08 3047.36C1884.88 3051.77 1904.49 3047.94 1917.51 3034.92C1942.29 3010.14 1933.79 2961.47 1898.53 2926.2C1863.27 2890.94 1814.59 2882.44 1789.81 2907.22C1765.03 2932 1773.53 2980.68 1808.79 3015.94C1809.76 3016.91 1810.74 3017.86 1811.73 3018.78C1797.11 3016.77 1783.74 3020.03 1774.63 3029.14C1754.96 3048.82 1762.56 3088.32 1791.61 3117.37C1820.67 3146.43 1860.17 3154.03 1879.84 3134.36C1899.24 3114.96 1892.12 3076.29 1864.08 3047.36Z" fill="black" fill-opacity="0.15"/>
<circle id="Ellipse 1_37" cx="1793.05" cy="3047.56" r="54.0408" fill="#86B557"/>
<circle id="Ellipse 1_38" cx="1802.05" cy="2915.46" r="72.0544" fill="#73AE65"/>
<rect id="Rectangle 2165_24" x="1730" y="2843" width="5" height="5" fill="#A4C424" fill-opacity="0.01"/>
</g>
<g id="tree4_3">
<path id="Union_25" fill-rule="evenodd" clip-rule="evenodd" d="M3586.08 4257.36C3606.88 4261.77 3626.49 4257.94 3639.51 4244.92C3664.29 4220.14 3655.79 4171.47 3620.53 4136.2C3585.27 4100.94 3536.59 4092.44 3511.81 4117.22C3487.03 4142 3495.53 4190.68 3530.79 4225.94C3531.76 4226.91 3532.74 4227.86 3533.73 4228.78C3519.11 4226.77 3505.74 4230.03 3496.63 4239.14C3476.96 4258.82 3484.56 4298.32 3513.61 4327.37C3542.67 4356.43 3582.17 4364.03 3601.84 4344.36C3621.24 4324.96 3614.12 4286.29 3586.08 4257.36Z" fill="black" fill-opacity="0.15"/>
<circle id="Ellipse 1_39" cx="3515.05" cy="4257.56" r="54.0408" fill="#86B557"/>
<circle id="Ellipse 1_40" cx="3524.05" cy="4125.46" r="72.0544" fill="#73AE65"/>
<rect id="Rectangle 2165_25" x="3452" y="4053" width="5" height="5" fill="#A4C424" fill-opacity="0.01"/>
</g>
<g id="tree4_4">
<path id="Union_26" fill-rule="evenodd" clip-rule="evenodd" d="M1990.08 4395.36C2010.88 4399.77 2030.49 4395.94 2043.51 4382.92C2068.29 4358.14 2059.79 4309.47 2024.53 4274.2C1989.27 4238.94 1940.59 4230.44 1915.81 4255.22C1891.03 4280 1899.53 4328.68 1934.79 4363.94C1935.76 4364.91 1936.74 4365.86 1937.73 4366.78C1923.11 4364.77 1909.74 4368.03 1900.63 4377.14C1880.96 4396.82 1888.56 4436.32 1917.61 4465.37C1946.67 4494.43 1986.17 4502.03 2005.84 4482.36C2025.24 4462.96 2018.12 4424.29 1990.08 4395.36Z" fill="black" fill-opacity="0.15"/>
<circle id="Ellipse 1_41" cx="1919.05" cy="4395.56" r="54.0408" fill="#86B557"/>
<circle id="Ellipse 1_42" cx="1928.05" cy="4263.46" r="72.0544" fill="#73AE65"/>
<rect id="Rectangle 2165_26" x="1856" y="4191" width="5" height="5" fill="#A4C424" fill-opacity="0.01"/>
</g>
<g id="tree4_5">
<path id="Union_27" fill-rule="evenodd" clip-rule="evenodd" d="M3532.08 2835.36C3552.88 2839.77 3572.49 2835.94 3585.51 2822.92C3610.29 2798.14 3601.79 2749.47 3566.53 2714.2C3531.27 2678.94 3482.59 2670.44 3457.81 2695.22C3433.03 2720 3441.53 2768.68 3476.79 2803.94C3477.76 2804.91 3478.74 2805.86 3479.73 2806.78C3465.11 2804.77 3451.74 2808.03 3442.63 2817.14C3422.96 2836.82 3430.56 2876.32 3459.61 2905.37C3488.67 2934.43 3528.17 2942.03 3547.84 2922.36C3567.24 2902.96 3560.12 2864.29 3532.08 2835.36Z" fill="black" fill-opacity="0.15"/>
<circle id="Ellipse 1_43" cx="3461.05" cy="2835.56" r="54.0408" fill="#86B557"/>
<circle id="Ellipse 1_44" cx="3470.05" cy="2703.46" r="72.0544" fill="#73AE65"/>
<rect id="Rectangle 2165_27" x="3398" y="2631" width="5" height="5" fill="#A4C424" fill-opacity="0.01"/>
</g>
<g id="tree4_6">
<path id="Union_28" fill-rule="evenodd" clip-rule="evenodd" d="M4768.08 2672.36C4788.88 2676.77 4808.49 2672.94 4821.51 2659.92C4846.29 2635.14 4837.79 2586.47 4802.53 2551.2C4767.27 2515.94 4718.59 2507.44 4693.81 2532.22C4669.03 2557 4677.53 2605.68 4712.79 2640.94C4713.76 2641.91 4714.74 2642.86 4715.73 2643.78C4701.11 2641.77 4687.74 2645.03 4678.63 2654.14C4658.96 2673.82 4666.56 2713.32 4695.61 2742.37C4724.67 2771.43 4764.17 2779.03 4783.84 2759.36C4803.24 2739.96 4796.12 2701.29 4768.08 2672.36Z" fill="black" fill-opacity="0.15"/>
<circle id="Ellipse 1_45" cx="4697.05" cy="2672.56" r="54.0408" fill="#86B557"/>
<circle id="Ellipse 1_46" cx="4706.05" cy="2540.46" r="72.0544" fill="#73AE65"/>
<rect id="Rectangle 2165_28" x="4634" y="2468" width="5" height="5" fill="#A4C424" fill-opacity="0.01"/>
</g>
<g id="tree3" clip-path="url(#clip21_2237_3750)">
<path id="Union_29" fill-rule="evenodd" clip-rule="evenodd" d="M2293.28 2383.31C2331.73 2421.76 2382.61 2433.23 2406.92 2408.92C2411.95 2403.88 2415.45 2397.7 2417.5 2390.74C2418.02 2391.28 2418.56 2391.82 2419.1 2392.36C2447.81 2421.08 2485.71 2429.73 2503.75 2411.69C2521.79 2393.65 2513.14 2355.74 2484.43 2327.03C2455.71 2298.32 2417.81 2289.67 2399.77 2307.71C2398.36 2309.12 2397.11 2310.65 2396.03 2312.29C2391.68 2306.44 2386.77 2300.73 2381.31 2295.28C2342.86 2256.82 2291.98 2245.36 2267.67 2269.67C2243.36 2293.98 2254.83 2344.86 2293.28 2383.31Z" fill="black" fill-opacity="0.15"/>
<circle id="Ellipse 1_47" cx="2420.15" cy="2331.46" r="54.0408" fill="#73AE65"/>
<circle id="Ellipse 1_48" cx="2288.05" cy="2293.05" r="72.0544" fill="#63A45E"/>
<rect id="Rectangle 2165_29" x="2216" y="2221" width="5" height="5" fill="#A4C424" fill-opacity="0.01"/>
</g>
<g id="tree3_2" clip-path="url(#clip22_2237_3750)">
<path id="Union_30" fill-rule="evenodd" clip-rule="evenodd" d="M2829.28 1436.31C2867.73 1474.76 2918.61 1486.23 2942.92 1461.92C2947.95 1456.88 2951.45 1450.7 2953.5 1443.74C2954.02 1444.28 2954.56 1444.82 2955.1 1445.36C2983.81 1474.08 3021.71 1482.73 3039.75 1464.69C3057.79 1446.65 3049.14 1408.74 3020.43 1380.03C2991.71 1351.32 2953.81 1342.67 2935.77 1360.71C2934.36 1362.12 2933.11 1363.65 2932.03 1365.29C2927.68 1359.44 2922.77 1353.73 2917.31 1348.28C2878.86 1309.82 2827.98 1298.36 2803.67 1322.67C2779.36 1346.98 2790.83 1397.86 2829.28 1436.31Z" fill="black" fill-opacity="0.15"/>
<circle id="Ellipse 1_49" cx="2956.15" cy="1384.46" r="54.0408" fill="#73AE65"/>
<circle id="Ellipse 1_50" cx="2824.05" cy="1346.05" r="72.0544" fill="#63A45E"/>
<rect id="Rectangle 2165_30" x="2752" y="1274" width="5" height="5" fill="#A4C424" fill-opacity="0.01"/>
</g>
<g id="tree3_3" clip-path="url(#clip23_2237_3750)">
<path id="Union_31" fill-rule="evenodd" clip-rule="evenodd" d="M3906.28 4062.31C3944.73 4100.76 3995.61 4112.23 4019.92 4087.92C4024.95 4082.88 4028.45 4076.7 4030.5 4069.73C4031.02 4070.28 4031.56 4070.82 4032.1 4071.36C4060.81 4100.08 4098.71 4108.73 4116.75 4090.69C4134.79 4072.65 4126.14 4034.74 4097.43 4006.03C4068.71 3977.32 4030.81 3968.67 4012.77 3986.71C4011.36 3988.12 4010.11 3989.65 4009.03 3991.29C4004.68 3985.44 3999.77 3979.73 3994.31 3974.27C3955.86 3935.82 3904.98 3924.36 3880.67 3948.67C3856.36 3972.98 3867.83 4023.86 3906.28 4062.31Z" fill="black" fill-opacity="0.15"/>
<circle id="Ellipse 1_51" cx="4033.15" cy="4010.46" r="54.0408" fill="#73AE65"/>
<circle id="Ellipse 1_52" cx="3901.05" cy="3972.05" r="72.0544" fill="#63A45E"/>
<rect id="Rectangle 2165_31" x="3829" y="3900" width="5" height="5" fill="#A4C424" fill-opacity="0.01"/>
</g>
<g id="tree3_4" clip-path="url(#clip24_2237_3750)">
<path id="Union_32" fill-rule="evenodd" clip-rule="evenodd" d="M2869.28 3339.31C2907.73 3377.76 2958.61 3389.23 2982.92 3364.92C2987.95 3359.88 2991.45 3353.7 2993.5 3346.74C2994.02 3347.28 2994.56 3347.82 2995.1 3348.36C3023.81 3377.08 3061.71 3385.73 3079.75 3367.69C3097.79 3349.65 3089.14 3311.74 3060.43 3283.03C3031.71 3254.32 2993.81 3245.67 2975.77 3263.71C2974.36 3265.12 2973.11 3266.65 2972.03 3268.29C2967.68 3262.44 2962.77 3256.73 2957.31 3251.28C2918.86 3212.82 2867.98 3201.36 2843.67 3225.67C2819.36 3249.98 2830.83 3300.86 2869.28 3339.31Z" fill="black" fill-opacity="0.15"/>
<circle id="Ellipse 1_53" cx="2996.15" cy="3287.46" r="54.0408" fill="#73AE65"/>
<circle id="Ellipse 1_54" cx="2864.05" cy="3249.05" r="72.0544" fill="#63A45E"/>
<rect id="Rectangle 2165_32" x="2792" y="3177" width="5" height="5" fill="#A4C424" fill-opacity="0.01"/>
</g>
<g id="tree3_5" clip-path="url(#clip25_2237_3750)">
<path id="Union_33" fill-rule="evenodd" clip-rule="evenodd" d="M3552.28 1215.31C3590.73 1253.76 3641.61 1265.23 3665.92 1240.92C3670.95 1235.88 3674.45 1229.7 3676.5 1222.74C3677.02 1223.28 3677.56 1223.82 3678.1 1224.36C3706.81 1253.08 3744.71 1261.73 3762.75 1243.69C3780.79 1225.65 3772.14 1187.74 3743.43 1159.03C3714.71 1130.32 3676.81 1121.67 3658.77 1139.71C3657.36 1141.12 3656.11 1142.65 3655.03 1144.29C3650.68 1138.44 3645.77 1132.73 3640.31 1127.28C3601.86 1088.82 3550.98 1077.36 3526.67 1101.67C3502.36 1125.98 3513.83 1176.86 3552.28 1215.31Z" fill="black" fill-opacity="0.15"/>
<circle id="Ellipse 1_55" cx="3679.15" cy="1163.46" r="54.0408" fill="#73AE65"/>
<circle id="Ellipse 1_56" cx="3547.05" cy="1125.05" r="72.0544" fill="#63A45E"/>
<rect id="Rectangle 2165_33" x="3475" y="1053" width="5" height="5" fill="#A4C424" fill-opacity="0.01"/>
</g>
<g id="stone1" clip-path="url(#clip26_2237_3750)">
<path id="Vector 755" d="M2008.17 1322.14C2008.17 1312.65 2003.68 1303.72 1996.06 1298.06L1980.24 1286.31C1968.38 1277.5 1951.87 1278.64 1941.33 1289L1923.99 1306.04C1912.79 1317.05 1911.97 1334.82 1922.1 1346.8L1935.07 1362.15C1940.19 1368.21 1947.49 1371.99 1955.39 1372.68L1963.08 1373.35C1972.24 1374.14 1981.26 1370.7 1987.55 1364L2000.04 1350.7C2005.26 1345.13 2008.17 1337.79 2008.17 1330.16L2008.17 1322.14Z" fill="black" fill-opacity="0.15"/>
<rect id="Rectangle 1712" x="1935.66" y="1232" width="95.6841" height="95.6841" rx="27" transform="rotate(45 1935.66 1232)" fill="#476E86"/>
<rect id="Rectangle 2165_34" x="1878" y="1243" width="5" height="5" fill="#A4C424" fill-opacity="0.01"/>
</g>
<g id="stone1_2" clip-path="url(#clip27_2237_3750)">
<path id="Vector 755_2" d="M3141.17 1204.14C3141.17 1194.65 3136.68 1185.72 3129.06 1180.06L3113.24 1168.31C3101.38 1159.5 3084.87 1160.64 3074.33 1171L3056.99 1188.04C3045.79 1199.05 3044.97 1216.82 3055.1 1228.8L3068.07 1244.15C3073.19 1250.21 3080.49 1253.99 3088.39 1254.68L3096.08 1255.35C3105.24 1256.14 3114.26 1252.7 3120.55 1246L3133.04 1232.7C3138.26 1227.13 3141.17 1219.79 3141.17 1212.16L3141.17 1204.14Z" fill="black" fill-opacity="0.15"/>
<rect id="Rectangle 1712_2" x="3068.66" y="1114" width="95.6841" height="95.6841" rx="27" transform="rotate(45 3068.66 1114)" fill="#476E86"/>
<rect id="Rectangle 2165_35" x="3011" y="1125" width="5" height="5" fill="#A4C424" fill-opacity="0.01"/>
</g>
<g id="stone1_3" clip-path="url(#clip28_2237_3750)">
<path id="Vector 755_3" d="M3364.17 2222.14C3364.17 2212.65 3359.68 2203.72 3352.06 2198.06L3336.24 2186.31C3324.38 2177.5 3307.87 2178.64 3297.33 2189L3279.99 2206.04C3268.79 2217.05 3267.97 2234.82 3278.1 2246.8L3291.07 2262.15C3296.19 2268.21 3303.49 2271.99 3311.39 2272.68L3319.08 2273.35C3328.24 2274.14 3337.26 2270.7 3343.55 2264L3356.04 2250.7C3361.26 2245.13 3364.17 2237.79 3364.17 2230.16L3364.17 2222.14Z" fill="black" fill-opacity="0.15"/>
<rect id="Rectangle 1712_3" x="3291.66" y="2132" width="95.6841" height="95.6841" rx="27" transform="rotate(45 3291.66 2132)" fill="#476E86"/>
<rect id="Rectangle 2165_36" x="3234" y="2143" width="5" height="5" fill="#A4C424" fill-opacity="0.01"/>
</g>
<g id="stone1_4" clip-path="url(#clip29_2237_3750)">
<path id="Vector 755_4" d="M2803.17 3435.14C2803.17 3425.65 2798.68 3416.72 2791.06 3411.06L2775.24 3399.31C2763.38 3390.5 2746.87 3391.64 2736.33 3402L2718.99 3419.04C2707.79 3430.05 2706.97 3447.82 2717.1 3459.8L2730.07 3475.15C2735.19 3481.21 2742.49 3484.99 2750.39 3485.68L2758.08 3486.35C2767.24 3487.14 2776.26 3483.7 2782.55 3477L2795.04 3463.7C2800.26 3458.13 2803.17 3450.79 2803.17 3443.16L2803.17 3435.14Z" fill="black" fill-opacity="0.15"/>
<rect id="Rectangle 1712_4" x="2730.66" y="3345" width="95.6841" height="95.6841" rx="27" transform="rotate(45 2730.66 3345)" fill="#476E86"/>
<rect id="Rectangle 2165_37" x="2673" y="3356" width="5" height="5" fill="#A4C424" fill-opacity="0.01"/>
</g>
<g id="stone1_5" clip-path="url(#clip30_2237_3750)">
<path id="Vector 755_5" d="M2210.17 4119.14C2210.17 4109.65 2205.68 4100.72 2198.06 4095.06L2182.24 4083.31C2170.38 4074.5 2153.87 4075.64 2143.33 4086L2125.99 4103.04C2114.79 4114.05 2113.97 4131.82 2124.1 4143.8L2137.07 4159.15C2142.19 4165.21 2149.49 4168.99 2157.39 4169.68L2165.08 4170.35C2174.24 4171.14 2183.26 4167.7 2189.55 4161L2202.04 4147.7C2207.26 4142.13 2210.17 4134.79 2210.17 4127.16L2210.17 4119.14Z" fill="black" fill-opacity="0.15"/>
<rect id="Rectangle 1712_5" x="2137.66" y="4029" width="95.6841" height="95.6841" rx="27" transform="rotate(45 2137.66 4029)" fill="#476E86"/>
<rect id="Rectangle 2165_38" x="2080" y="4040" width="5" height="5" fill="#A4C424" fill-opacity="0.01"/>
</g>
<g id="stone1_6" clip-path="url(#clip31_2237_3750)">
<path id="Vector 755_6" d="M2457.17 4572.14C2457.17 4562.65 2452.68 4553.72 2445.06 4548.06L2429.24 4536.31C2417.38 4527.5 2400.87 4528.64 2390.33 4539L2372.99 4556.04C2361.79 4567.05 2360.97 4584.82 2371.1 4596.8L2384.07 4612.15C2389.19 4618.21 2396.49 4621.99 2404.39 4622.68L2412.08 4623.35C2421.24 4624.14 2430.26 4620.7 2436.55 4614L2449.04 4600.7C2454.26 4595.13 2457.17 4587.79 2457.17 4580.16L2457.17 4572.14Z" fill="black" fill-opacity="0.15"/>
<rect id="Rectangle 1712_6" x="2384.66" y="4482" width="95.6841" height="95.6841" rx="27" transform="rotate(45 2384.66 4482)" fill="#476E86"/>
<rect id="Rectangle 2165_39" x="2327" y="4493" width="5" height="5" fill="#A4C424" fill-opacity="0.01"/>
</g>
<g id="stone1_7" clip-path="url(#clip32_2237_3750)">
<path id="Vector 755_7" d="M4424.17 3832.14C4424.17 3822.65 4419.68 3813.72 4412.06 3808.06L4396.24 3796.31C4384.38 3787.5 4367.87 3788.64 4357.33 3799L4339.99 3816.04C4328.79 3827.05 4327.97 3844.82 4338.1 3856.8L4351.07 3872.15C4356.19 3878.21 4363.49 3881.99 4371.39 3882.68L4379.08 3883.35C4388.24 3884.14 4397.26 3880.7 4403.55 3874L4416.04 3860.7C4421.26 3855.13 4424.17 3847.79 4424.17 3840.16L4424.17 3832.14Z" fill="black" fill-opacity="0.15"/>
<rect id="Rectangle 1712_7" x="4351.66" y="3742" width="95.6841" height="95.6841" rx="27" transform="rotate(45 4351.66 3742)" fill="#476E86"/>
<rect id="Rectangle 2165_40" x="4294" y="3753" width="5" height="5" fill="#A4C424" fill-opacity="0.01"/>
</g>
<g id="stone1_8" clip-path="url(#clip33_2237_3750)">
<path id="Vector 755_8" d="M4574.17 3008.14C4574.17 2998.65 4569.68 2989.72 4562.06 2984.06L4546.24 2972.31C4534.38 2963.5 4517.87 2964.64 4507.33 2975L4489.99 2992.04C4478.79 3003.05 4477.97 3020.82 4488.1 3032.8L4501.07 3048.15C4506.19 3054.21 4513.49 3057.99 4521.39 3058.68L4529.08 3059.35C4538.24 3060.14 4547.26 3056.7 4553.55 3050L4566.04 3036.7C4571.26 3031.13 4574.17 3023.79 4574.17 3016.16L4574.17 3008.14Z" fill="black" fill-opacity="0.15"/>
<rect id="Rectangle 1712_8" x="4501.66" y="2918" width="95.6841" height="95.6841" rx="27" transform="rotate(45 4501.66 2918)" fill="#476E86"/>
<rect id="Rectangle 2165_41" x="4444" y="2929" width="5" height="5" fill="#A4C424" fill-opacity="0.01"/>
</g>
<g id="stone1_9" clip-path="url(#clip34_2237_3750)">
<path id="Vector 755_9" d="M4663.17 1649.14C4663.17 1639.65 4658.68 1630.72 4651.06 1625.06L4635.24 1613.31C4623.38 1604.5 4606.87 1605.64 4596.33 1616L4578.99 1633.04C4567.79 1644.05 4566.97 1661.82 4577.1 1673.8L4590.07 1689.15C4595.19 1695.21 4602.49 1698.99 4610.39 1699.68L4618.08 1700.35C4627.24 1701.14 4636.26 1697.7 4642.55 1691L4655.04 1677.7C4660.26 1672.13 4663.17 1664.79 4663.17 1657.16L4663.17 1649.14Z" fill="black" fill-opacity="0.15"/>
<rect id="Rectangle 1712_9" x="4590.66" y="1559" width="95.6841" height="95.6841" rx="27" transform="rotate(45 4590.66 1559)" fill="#476E86"/>
<rect id="Rectangle 2165_42" x="4533" y="1570" width="5" height="5" fill="#A4C424" fill-opacity="0.01"/>
</g>
<g id="bush1" clip-path="url(#clip35_2237_3750)">
<path id="Union_34" fill-rule="evenodd" clip-rule="evenodd" d="M2577.1 2431.41C2581.39 2435.71 2587.2 2437.76 2593.3 2437.66C2592.24 2446.97 2596.37 2458.07 2605.08 2466.78C2618.18 2479.88 2636.67 2482.62 2646.39 2472.91C2647.09 2472.2 2647.74 2471.45 2648.31 2470.65C2664.07 2481.36 2682.8 2482.2 2693.44 2471.55C2698.57 2466.42 2701.04 2459.42 2701.01 2451.77C2702.17 2450.95 2703.27 2450.02 2704.3 2448.99C2715.78 2437.5 2714.45 2417.55 2701.31 2404.42C2688.18 2391.28 2668.23 2389.95 2656.74 2401.43C2656.27 2401.9 2655.83 2402.38 2655.4 2402.88C2646.43 2402.01 2638.06 2404.38 2632.16 2410.27C2628.93 2413.51 2626.75 2417.49 2625.59 2421.91C2623.83 2421.24 2622.07 2420.71 2620.32 2420.34C2625.72 2410.17 2624.99 2398.31 2617.59 2390.92C2608.16 2381.48 2591.44 2382.89 2580.26 2394.08C2569.07 2405.26 2567.66 2421.97 2577.1 2431.41Z" fill="black" fill-opacity="0.15"/>
<g id="Group 119">
<circle id="Ellipse 1_57" cx="2593.99" cy="2407.7" r="25.9855" fill="#6FA662"/>
<circle id="Ellipse 2" cx="2616.39" cy="2428.31" r="32.2578" fill="#6FA662"/>
<ellipse id="Ellipse 3" cx="2621.76" cy="2391.57" rx="28.6736" ry="29.5697" fill="#6FA662"/>
<circle id="Ellipse 4" cx="2655.81" cy="2426.52" r="28.6736" fill="#6FA662"/>
<circle id="Ellipse 5" cx="2656.71" cy="2395.15" r="25.9855" fill="#6FA662"/>
<circle id="Ellipse 6" cx="2679.11" cy="2415.76" r="25.0894" fill="#6FA662"/>
</g>
<rect id="Rectangle 2165_43" x="2568" y="2362" width="5" height="5" fill="#A4C424" fill-opacity="0.01"/>
</g>
<g id="bush1_2" clip-path="url(#clip36_2237_3750)">
<path id="Union_35" fill-rule="evenodd" clip-rule="evenodd" d="M2409.1 1603.41C2413.39 1607.71 2419.2 1609.76 2425.3 1609.66C2424.24 1618.97 2428.37 1630.07 2437.08 1638.78C2450.18 1651.88 2468.67 1654.62 2478.39 1644.91C2479.09 1644.2 2479.74 1643.45 2480.31 1642.65C2496.07 1653.36 2514.8 1654.2 2525.44 1643.55C2530.57 1638.42 2533.04 1631.42 2533.01 1623.77C2534.17 1622.95 2535.27 1622.02 2536.3 1620.99C2547.78 1609.5 2546.45 1589.55 2533.31 1576.42C2520.18 1563.28 2500.23 1561.95 2488.74 1573.43C2488.27 1573.9 2487.83 1574.38 2487.4 1574.88C2478.43 1574.01 2470.06 1576.38 2464.16 1582.27C2460.93 1585.51 2458.75 1589.49 2457.59 1593.91C2455.83 1593.24 2454.07 1592.71 2452.32 1592.34C2457.72 1582.17 2456.99 1570.31 2449.59 1562.92C2440.16 1553.48 2423.44 1554.89 2412.26 1566.08C2401.07 1577.26 2399.66 1593.97 2409.1 1603.41Z" fill="black" fill-opacity="0.15"/>
<g id="Group 119_2">
<circle id="Ellipse 1_58" cx="2425.99" cy="1579.7" r="25.9855" fill="#6FA662"/>
<circle id="Ellipse 2_2" cx="2448.39" cy="1600.31" r="32.2578" fill="#6FA662"/>
<ellipse id="Ellipse 3_2" cx="2453.76" cy="1563.57" rx="28.6736" ry="29.5697" fill="#6FA662"/>
<circle id="Ellipse 4_2" cx="2487.81" cy="1598.52" r="28.6736" fill="#6FA662"/>
<circle id="Ellipse 5_2" cx="2488.71" cy="1567.15" r="25.9855" fill="#6FA662"/>
<circle id="Ellipse 6_2" cx="2511.11" cy="1587.76" r="25.0894" fill="#6FA662"/>
</g>
<rect id="Rectangle 2165_44" x="2400" y="1534" width="5" height="5" fill="#A4C424" fill-opacity="0.01"/>
</g>
<g id="bush1_3" clip-path="url(#clip37_2237_3750)">
<path id="Union_36" fill-rule="evenodd" clip-rule="evenodd" d="M2848.1 3044.41C2852.39 3048.71 2858.2 3050.76 2864.3 3050.66C2863.24 3059.97 2867.37 3071.07 2876.08 3079.78C2889.18 3092.88 2907.67 3095.62 2917.39 3085.91C2918.09 3085.2 2918.74 3084.45 2919.31 3083.65C2935.07 3094.36 2953.8 3095.2 2964.44 3084.55C2969.57 3079.42 2972.04 3072.42 2972.01 3064.77C2973.17 3063.95 2974.27 3063.02 2975.3 3061.99C2986.78 3050.5 2985.45 3030.55 2972.31 3017.42C2959.18 3004.28 2939.23 3002.95 2927.74 3014.43C2927.27 3014.9 2926.83 3015.38 2926.4 3015.88C2917.43 3015.01 2909.06 3017.38 2903.16 3023.27C2899.93 3026.51 2897.75 3030.49 2896.59 3034.91C2894.83 3034.24 2893.07 3033.71 2891.32 3033.34C2896.72 3023.17 2895.99 3011.31 2888.59 3003.92C2879.16 2994.48 2862.44 2995.89 2851.26 3007.08C2840.07 3018.26 2838.66 3034.97 2848.1 3044.41Z" fill="black" fill-opacity="0.15"/>
<g id="Group 119_3">
<circle id="Ellipse 1_59" cx="2864.99" cy="3020.7" r="25.9855" fill="#6FA662"/>
<circle id="Ellipse 2_3" cx="2887.39" cy="3041.31" r="32.2578" fill="#6FA662"/>
<ellipse id="Ellipse 3_3" cx="2892.76" cy="3004.57" rx="28.6736" ry="29.5697" fill="#6FA662"/>
<circle id="Ellipse 4_3" cx="2926.81" cy="3039.52" r="28.6736" fill="#6FA662"/>
<circle id="Ellipse 5_3" cx="2927.71" cy="3008.15" r="25.9855" fill="#6FA662"/>
<circle id="Ellipse 6_3" cx="2950.11" cy="3028.76" r="25.0894" fill="#6FA662"/>
</g>
<rect id="Rectangle 2165_45" x="2839" y="2975" width="5" height="5" fill="#A4C424" fill-opacity="0.01"/>
</g>
<g id="bush1_4" clip-path="url(#clip38_2237_3750)">
<path id="Union_37" fill-rule="evenodd" clip-rule="evenodd" d="M4597.1 2179.41C4601.39 2183.71 4607.2 2185.76 4613.3 2185.66C4612.24 2194.97 4616.37 2206.07 4625.08 2214.78C4638.18 2227.88 4656.67 2230.62 4666.39 2220.91C4667.09 2220.2 4667.74 2219.45 4668.31 2218.65C4684.07 2229.36 4702.8 2230.2 4713.44 2219.55C4718.57 2214.42 4721.04 2207.42 4721.01 2199.77C4722.17 2198.95 4723.27 2198.02 4724.3 2196.99C4735.78 2185.5 4734.45 2165.55 4721.31 2152.42C4708.18 2139.28 4688.23 2137.95 4676.74 2149.43C4676.27 2149.9 4675.83 2150.38 4675.4 2150.88C4666.43 2150.01 4658.06 2152.38 4652.16 2158.27C4648.93 2161.51 4646.75 2165.49 4645.59 2169.91C4643.83 2169.24 4642.07 2168.71 4640.32 2168.34C4645.72 2158.17 4644.99 2146.31 4637.59 2138.92C4628.16 2129.48 4611.44 2130.89 4600.26 2142.08C4589.07 2153.26 4587.66 2169.97 4597.1 2179.41Z" fill="black" fill-opacity="0.15"/>
<g id="Group 119_4">
<circle id="Ellipse 1_60" cx="4613.99" cy="2155.7" r="25.9855" fill="#6FA662"/>
<circle id="Ellipse 2_4" cx="4636.39" cy="2176.31" r="32.2578" fill="#6FA662"/>
<ellipse id="Ellipse 3_4" cx="4641.76" cy="2139.57" rx="28.6736" ry="29.5697" fill="#6FA662"/>
<circle id="Ellipse 4_4" cx="4675.81" cy="2174.52" r="28.6736" fill="#6FA662"/>
<circle id="Ellipse 5_4" cx="4676.71" cy="2143.15" r="25.9855" fill="#6FA662"/>
<circle id="Ellipse 6_4" cx="4699.11" cy="2163.76" r="25.0894" fill="#6FA662"/>
</g>
<rect id="Rectangle 2165_46" x="4588" y="2110" width="5" height="5" fill="#A4C424" fill-opacity="0.01"/>
</g>
<g id="bush1_5" clip-path="url(#clip39_2237_3750)">
<path id="Union_38" fill-rule="evenodd" clip-rule="evenodd" d="M4147.1 3256.41C4151.39 3260.71 4157.2 3262.76 4163.3 3262.66C4162.24 3271.97 4166.37 3283.07 4175.08 3291.78C4188.18 3304.88 4206.67 3307.62 4216.39 3297.91C4217.09 3297.2 4217.74 3296.45 4218.31 3295.65C4234.07 3306.36 4252.8 3307.2 4263.44 3296.55C4268.57 3291.42 4271.04 3284.42 4271.01 3276.77C4272.17 3275.95 4273.27 3275.02 4274.3 3273.99C4285.78 3262.5 4284.45 3242.55 4271.31 3229.42C4258.18 3216.28 4238.23 3214.95 4226.74 3226.43C4226.27 3226.9 4225.83 3227.38 4225.4 3227.88C4216.43 3227.01 4208.06 3229.38 4202.16 3235.27C4198.93 3238.51 4196.75 3242.49 4195.59 3246.91C4193.83 3246.24 4192.07 3245.71 4190.32 3245.34C4195.72 3235.17 4194.99 3223.31 4187.59 3215.92C4178.16 3206.48 4161.44 3207.89 4150.26 3219.08C4139.07 3230.26 4137.66 3246.97 4147.1 3256.41Z" fill="black" fill-opacity="0.15"/>
<g id="Group 119_5">
<circle id="Ellipse 1_61" cx="4163.99" cy="3232.7" r="25.9855" fill="#6FA662"/>
<circle id="Ellipse 2_5" cx="4186.39" cy="3253.31" r="32.2578" fill="#6FA662"/>
<ellipse id="Ellipse 3_5" cx="4191.76" cy="3216.57" rx="28.6736" ry="29.5697" fill="#6FA662"/>
<circle id="Ellipse 4_5" cx="4225.81" cy="3251.52" r="28.6736" fill="#6FA662"/>
<circle id="Ellipse 5_5" cx="4226.71" cy="3220.15" r="25.9855" fill="#6FA662"/>
<circle id="Ellipse 6_5" cx="4249.11" cy="3240.76" r="25.0894" fill="#6FA662"/>
</g>
<rect id="Rectangle 2165_47" x="4138" y="3187" width="5" height="5" fill="#A4C424" fill-opacity="0.01"/>
</g>
<g id="bush1_6" clip-path="url(#clip40_2237_3750)">
<path id="Union_39" fill-rule="evenodd" clip-rule="evenodd" d="M3344.1 4447.41C3348.39 4451.71 3354.2 4453.76 3360.3 4453.66C3359.24 4462.97 3363.37 4474.07 3372.08 4482.78C3385.18 4495.88 3403.67 4498.62 3413.39 4488.91C3414.09 4488.2 3414.74 4487.45 3415.31 4486.65C3431.07 4497.36 3449.8 4498.2 3460.44 4487.55C3465.57 4482.42 3468.04 4475.42 3468.01 4467.77C3469.17 4466.95 3470.27 4466.02 3471.3 4464.99C3482.78 4453.5 3481.45 4433.55 3468.31 4420.42C3455.18 4407.28 3435.23 4405.95 3423.74 4417.43C3423.27 4417.9 3422.83 4418.38 3422.4 4418.88C3413.43 4418.01 3405.06 4420.38 3399.16 4426.27C3395.93 4429.51 3393.75 4433.49 3392.59 4437.91C3390.83 4437.24 3389.07 4436.71 3387.32 4436.34C3392.72 4426.17 3391.99 4414.31 3384.59 4406.92C3375.16 4397.48 3358.44 4398.89 3347.26 4410.08C3336.07 4421.26 3334.66 4437.97 3344.1 4447.41Z" fill="black" fill-opacity="0.15"/>
<g id="Group 119_6">
<circle id="Ellipse 1_62" cx="3360.99" cy="4423.7" r="25.9855" fill="#6FA662"/>
<circle id="Ellipse 2_6" cx="3383.39" cy="4444.31" r="32.2578" fill="#6FA662"/>
<ellipse id="Ellipse 3_6" cx="3388.76" cy="4407.57" rx="28.6736" ry="29.5697" fill="#6FA662"/>
<circle id="Ellipse 4_6" cx="3422.81" cy="4442.52" r="28.6736" fill="#6FA662"/>
<circle id="Ellipse 5_6" cx="3423.71" cy="4411.15" r="25.9855" fill="#6FA662"/>
<circle id="Ellipse 6_6" cx="3446.11" cy="4431.76" r="25.0894" fill="#6FA662"/>
</g>
<rect id="Rectangle 2165_48" x="3335" y="4378" width="5" height="5" fill="#A4C424" fill-opacity="0.01"/>
</g>
<g id="bush1_7" clip-path="url(#clip41_2237_3750)">
<path id="Union_40" fill-rule="evenodd" clip-rule="evenodd" d="M1792.1 4073.41C1796.39 4077.71 1802.2 4079.76 1808.3 4079.66C1807.24 4088.97 1811.37 4100.07 1820.08 4108.78C1833.18 4121.88 1851.67 4124.62 1861.39 4114.91C1862.09 4114.2 1862.74 4113.45 1863.31 4112.65C1879.07 4123.36 1897.8 4124.2 1908.44 4113.55C1913.57 4108.42 1916.04 4101.42 1916.01 4093.77C1917.17 4092.95 1918.27 4092.02 1919.3 4090.99C1930.78 4079.5 1929.45 4059.55 1916.31 4046.42C1903.18 4033.28 1883.23 4031.95 1871.74 4043.43C1871.27 4043.9 1870.83 4044.38 1870.4 4044.88C1861.43 4044.01 1853.06 4046.38 1847.16 4052.27C1843.93 4055.51 1841.75 4059.49 1840.59 4063.91C1838.83 4063.24 1837.07 4062.71 1835.32 4062.34C1840.72 4052.17 1839.99 4040.31 1832.59 4032.92C1823.16 4023.48 1806.44 4024.89 1795.26 4036.08C1784.07 4047.26 1782.66 4063.97 1792.1 4073.41Z" fill="black" fill-opacity="0.15"/>
<g id="Group 119_7">
<circle id="Ellipse 1_63" cx="1808.99" cy="4049.7" r="25.9855" fill="#6FA662"/>
<circle id="Ellipse 2_7" cx="1831.39" cy="4070.31" r="32.2578" fill="#6FA662"/>
<ellipse id="Ellipse 3_7" cx="1836.76" cy="4033.57" rx="28.6736" ry="29.5697" fill="#6FA662"/>
<circle id="Ellipse 4_7" cx="1870.81" cy="4068.52" r="28.6736" fill="#6FA662"/>
<circle id="Ellipse 5_7" cx="1871.71" cy="4037.15" r="25.9855" fill="#6FA662"/>
<circle id="Ellipse 6_7" cx="1894.11" cy="4057.76" r="25.0894" fill="#6FA662"/>
</g>
<rect id="Rectangle 2165_49" x="1783" y="4004" width="5" height="5" fill="#A4C424" fill-opacity="0.01"/>
</g>
<g id="bush1_8" clip-path="url(#clip42_2237_3750)">
<path id="Union_41" fill-rule="evenodd" clip-rule="evenodd" d="M1077.1 3469.41C1081.39 3473.71 1087.2 3475.76 1093.3 3475.66C1092.24 3484.97 1096.37 3496.07 1105.08 3504.78C1118.18 3517.88 1136.67 3520.62 1146.39 3510.91C1147.09 3510.2 1147.74 3509.45 1148.31 3508.65C1164.07 3519.36 1182.8 3520.2 1193.44 3509.55C1198.57 3504.42 1201.04 3497.42 1201.01 3489.77C1202.17 3488.95 1203.27 3488.02 1204.3 3486.99C1215.78 3475.5 1214.45 3455.55 1201.31 3442.42C1188.18 3429.28 1168.23 3427.95 1156.74 3439.43C1156.27 3439.9 1155.83 3440.38 1155.4 3440.88C1146.43 3440.01 1138.06 3442.38 1132.16 3448.27C1128.93 3451.51 1126.75 3455.49 1125.59 3459.91C1123.83 3459.24 1122.07 3458.71 1120.32 3458.34C1125.72 3448.17 1124.99 3436.31 1117.59 3428.92C1108.16 3419.48 1091.44 3420.89 1080.26 3432.08C1069.07 3443.26 1067.66 3459.97 1077.1 3469.41Z" fill="black" fill-opacity="0.15"/>
<g id="Group 119_8">
<circle id="Ellipse 1_64" cx="1093.99" cy="3445.7" r="25.9855" fill="#6FA662"/>
<circle id="Ellipse 2_8" cx="1116.39" cy="3466.31" r="32.2578" fill="#6FA662"/>
<ellipse id="Ellipse 3_8" cx="1121.76" cy="3429.57" rx="28.6736" ry="29.5697" fill="#6FA662"/>
<circle id="Ellipse 4_8" cx="1155.81" cy="3464.52" r="28.6736" fill="#6FA662"/>
<circle id="Ellipse 5_8" cx="1156.71" cy="3433.15" r="25.9855" fill="#6FA662"/>
<circle id="Ellipse 6_8" cx="1179.11" cy="3453.76" r="25.0894" fill="#6FA662"/>
</g>
<rect id="Rectangle 2165_50" x="1068" y="3400" width="5" height="5" fill="#A4C424" fill-opacity="0.01"/>
</g>
<g id="barrel">
<g id="Ellipse 9" filter="url(#filter0_d_2237_3750)">
<circle cx="3631" cy="3080" r="35" fill="#A5586E"/>
</g>
<circle id="Ellipse 10" cx="3642.5" cy="3091.5" r="8.5" fill="#803A4E"/>
<rect id="Rectangle 2165_51" x="3596" y="3045" width="5" height="5" fill="#A4C424" fill-opacity="0.01"/>
</g>
<g id="barrel_2">
<g id="Ellipse 9_2" filter="url(#filter1_d_2237_3750)">
<circle cx="1853" cy="1828" r="35" fill="#A5586E"/>
</g>
<circle id="Ellipse 10_2" cx="1864.5" cy="1839.5" r="8.5" fill="#803A4E"/>
<rect id="Rectangle 2165_52" x="1818" y="1793" width="5" height="5" fill="#A4C424" fill-opacity="0.01"/>
</g>
<g id="barrel_3">
<g id="Ellipse 9_3" filter="url(#filter2_d_2237_3750)">
<circle cx="1903" cy="3244" r="35" fill="#A5586E"/>
</g>
<circle id="Ellipse 10_3" cx="1914.5" cy="3255.5" r="8.5" fill="#803A4E"/>
<rect id="Rectangle 2165_53" x="1868" y="3209" width="5" height="5" fill="#A4C424" fill-opacity="0.01"/>
</g>
<g id="barrel_4">
<g id="Ellipse 9_4" filter="url(#filter3_d_2237_3750)">
<circle cx="2843" cy="1885" r="35" fill="#A5586E"/>
</g>
<circle id="Ellipse 10_4" cx="2854.5" cy="1896.5" r="8.5" fill="#803A4E"/>
<rect id="Rectangle 2165_54" x="2808" y="1850" width="5" height="5" fill="#A4C424" fill-opacity="0.01"/>
</g>
<g id="exit blocks">
<g id="stone7:blocksExit=true">
<path id="Rectangle 2189" d="M2528.94 756.528C2515.61 743.2 2518.99 720.778 2535.66 711.973L2672.49 639.667C2683.35 633.927 2696.68 635.937 2705.37 644.624L2733.53 672.786C2737.86 677.113 2740.65 682.739 2741.47 688.803L2749.85 750.252C2751.18 760.019 2747.28 769.766 2739.58 775.916L2696.62 810.215C2692.3 813.661 2687.06 815.754 2681.56 816.229L2609.03 822.499C2600.79 823.211 2592.66 820.247 2586.82 814.402L2528.94 756.528Z" fill="black" fill-opacity="0.15"/>
<path id="Vector 1152" d="M2508.24 619.232L2555.39 589.584C2568.97 581.052 2585.8 579.544 2600.68 585.529L2667.16 612.287C2685.59 619.706 2697.88 637.334 2698.47 657.195L2699.59 695.31C2700.38 722.002 2680.05 744.603 2653.43 746.64L2551.61 754.431C2528.19 756.223 2506.68 741.473 2499.91 718.981L2486.97 675.965C2480.49 654.423 2489.19 631.205 2508.24 619.232Z" fill="#BB816E"/>
<path id="Vector 1153" d="M2638.88 662.082L2624.51 640.384C2617.1 629.208 2603.19 624.298 2590.41 628.355L2564.74 636.508C2549.69 641.287 2540.92 656.913 2544.68 672.248L2550.23 694.87C2554.23 711.153 2570.79 721.003 2587 716.736L2621.5 707.658C2641.37 702.428 2650.22 679.216 2638.88 662.082Z" fill="#9A6A5A"/>
<rect id="mapHelper" x="2482" y="581" width="5" height="5" fill="#A4C424" fill-opacity="0.01"/>
</g>
<g id="stone6:blocksExit=true">
<path id="Rectangle 2189_2" d="M2725.27 656.852C2712.14 643.727 2715.19 621.696 2731.38 612.624L2851.23 545.492C2860.05 540.554 2870.84 540.749 2879.47 546.002L2928.37 575.761C2935.1 579.853 2939.79 586.588 2941.3 594.314L2951.75 647.878C2953.75 658.097 2949.91 668.58 2941.78 675.092L2893.71 713.62C2889.34 717.126 2884.01 719.238 2878.43 719.683L2807.65 725.324C2799.47 725.975 2791.42 723.01 2785.62 717.211L2725.27 656.852Z" fill="black" fill-opacity="0.15"/>
<path id="Vector 1152_2" d="M2703.58 575.587L2748.03 514.651C2763.5 493.443 2792.74 487.812 2814.99 501.758L2870.04 536.278C2899.57 554.794 2901.57 597.085 2873.92 618.305L2809.06 668.085C2792 681.176 2768.48 681.896 2750.66 669.874L2716.01 646.509C2692.52 630.664 2686.88 598.48 2703.58 575.587Z" fill="#BB816E"/>
<path id="Vector 1153_2" d="M2819.54 611.296L2827.79 590.752C2837.64 566.233 2813.27 541.879 2788.76 551.738L2765.52 561.084C2743.81 569.816 2740.01 598.941 2758.76 612.949L2773.75 624.147C2789.53 635.939 2812.2 629.577 2819.54 611.296Z" fill="#9A6A5A"/>
<rect id="mapHelper_2" x="2691" y="491" width="5" height="5" fill="#A4C424" fill-opacity="0.01"/>
</g>
<g id="stone5:blocksExit=true">
<path id="Rectangle 2189_3" d="M2898.98 728.092C2885.05 714.163 2889.48 690.588 2907.51 682.661L3002.72 640.81C3013.28 636.164 3025.62 638.481 3033.78 646.644L3062 674.864C3065.31 678.166 3067.73 682.242 3069.05 686.721L3082.42 731.909C3085.72 743.069 3081.78 755.107 3072.51 762.147L3043.54 784.153C3038.46 788.012 3032.22 790.021 3025.84 789.847L2970.06 788.326C2962.9 788.131 2956.09 785.199 2951.02 780.135L2898.98 728.092Z" fill="black" fill-opacity="0.15"/>
<path id="Vector 1152_3" d="M2879.79 653.96L2903.25 610.889C2918.03 583.736 2953.67 576.375 2978 595.447L3020.72 628.926C3034.27 639.549 3041.4 656.4 3039.6 673.526L3037.26 695.67C3034.36 723.173 3009.68 743.096 2982.18 740.135L2940.53 735.65C2936.53 735.218 2932.59 734.304 2928.8 732.927L2906.62 724.861C2877.87 714.408 2865.16 680.824 2879.79 653.96Z" fill="#BB816E"/>
<path id="Vector 1153_3" d="M2921.27 658.908L2925.65 646.498C2932 628.486 2953.35 620.923 2969.63 630.915L2989.24 642.949C3001.56 650.513 3006.73 665.791 3001.54 679.286L3000.87 681.033C2996.18 693.223 2984.15 700.979 2971.11 700.212L2947.8 698.841C2927.87 697.669 2914.62 677.729 2921.27 658.908Z" fill="#9A6A5A"/>
<rect id="mapHelper_3" x="2872" y="583" width="5" height="5" fill="#A4C424" fill-opacity="0.01"/>
</g>
<g id="stone3:blocksExit=true">
<path id="Rectangle 2189_4" d="M2724.55 790.037C2713.62 779.102 2713.62 761.373 2724.55 750.439L2758.09 716.902C2769.02 705.968 2786.75 705.968 2797.68 716.902L2818.9 738.122C2826.07 745.284 2828.8 755.755 2826.06 765.505L2818.69 791.677C2816.05 801.067 2808.71 808.405 2799.32 811.047L2773.15 818.411C2763.4 821.154 2752.93 818.418 2745.77 811.256L2724.55 790.037Z" fill="black" fill-opacity="0.15"/>
<path id="Rectangle293" d="M2699.38 733.23L2704.01 719.66C2710.56 700.466 2730.44 689.212 2750.27 693.475L2772.27 698.203C2797.76 703.682 2811.28 731.683 2799.72 755.048L2791.75 771.162C2782.55 789.746 2760.68 798.224 2741.37 790.693L2722.71 783.42C2702.74 775.638 2692.46 753.508 2699.38 733.23Z" fill="#BB816E"/>
<rect id="mapHelper_4" x="2696" y="692" width="5" height="5" fill="#A4C424" fill-opacity="0.01"/>
</g>
<g id="stone4:blocksExit=true">
<path id="Rectangle 2188" d="M3035.25 810.178C3024.32 799.244 3024.32 781.515 3035.25 770.58L3061.58 744.254C3072.52 733.319 3090.24 733.319 3101.18 744.254L3102.87 745.947C3108.91 751.983 3111.86 760.442 3110.89 768.923L3108.19 792.551C3106.71 805.498 3096.5 815.714 3083.55 817.193L3059.92 819.891C3051.44 820.86 3042.98 817.907 3036.95 811.871L3035.25 810.178Z" fill="black" fill-opacity="0.15"/>
<path id="Rectangle293_2" d="M3036.75 735.674L3068.82 729.135C3083.34 726.174 3097.87 734.169 3103.14 748.02C3108.06 760.95 3103.58 775.57 3092.26 783.526L3065.48 802.351C3046.51 815.689 3020.09 808.537 3010.43 787.45C3000.5 765.746 3013.36 740.442 3036.75 735.674Z" fill="#BB816E"/>
<rect id="mapHelper_5" x="3006" y="728" width="5" height="5" fill="#A4C424" fill-opacity="0.01"/>
</g>
<g id="stone2:blocksExit=true">
<path id="Rectangle 2188_2" d="M2425.34 809.121C2414.4 798.186 2414.4 780.458 2425.34 769.523L2463.52 731.339C2474.46 720.405 2492.19 720.405 2503.12 731.339L2520.25 748.466C2526.83 755.052 2529.71 764.48 2527.93 773.622L2521.7 805.577C2519.52 816.771 2510.77 825.523 2499.58 827.704L2467.62 833.932C2458.48 835.714 2449.05 832.834 2442.47 826.248L2425.34 809.121Z" fill="black" fill-opacity="0.15"/>
<path id="Rectangle293_3" d="M2423.23 722.827L2455.11 713.115C2486.53 703.547 2515.45 733.813 2504.47 764.759L2493.93 794.446C2484.29 821.609 2449.95 829.967 2428.9 810.275L2407.55 790.3C2385.08 769.27 2393.78 731.796 2423.23 722.827Z" fill="#BB816E"/>
<rect id="mapHelper_6" x="2394" y="712" width="5" height="5" fill="#A4C424" fill-opacity="0.01"/>
</g>
</g>
<g id="walls" opacity="0.01">
<path id="wall" d="M2219.13 2460.5H2488.4C2517.49 2460.5 2545.14 2473.17 2564.13 2495.2L2821.16 2793.31C2848.18 2824.64 2853.11 2869.37 2833.57 2905.84L2597.46 3346.47C2575.24 3387.93 2527.14 3408.3 2481.9 3395.41L2039.24 3269.21C2011.35 3261.25 1988.28 3241.58 1976.02 3215.3L1875.22 2999.11C1860.76 2968.1 1863.16 2931.84 1881.59 2903.01L2134.86 2506.65C2153.23 2477.9 2185 2460.5 2219.13 2460.5Z" fill="#1C506F"/>
<path id="wall_2" d="M3725.64 2749.12L3426.47 2390.34C3409.22 2369.66 3401.05 2342.9 3403.79 2316.11L3452.8 1837.57C3458.43 1782.59 3507.59 1742.61 3562.56 1748.29L3969.22 1790.31C4027.48 1796.33 4068.12 1850.9 4057.19 1908.44L4013.28 2139.56C4009.52 2159.39 4011.84 2179.89 4019.94 2198.38L4117.18 2420.18C4133.67 2457.79 4125.49 2501.65 4096.56 2530.79L3873.41 2755.54C3831.88 2797.36 3763.38 2794.38 3725.64 2749.12Z" fill="#1C506F"/>
<path id="wall_3" d="M3328.6 976.055L3726.04 1060.07C3739.86 1062.99 3752.9 1068.8 3764.3 1077.12L4137.63 1349.52C4147.14 1356.45 4157.79 1361.65 4169.1 1364.89L4737.47 1527.28C4789.54 1542.15 4820.3 1595.77 4806.87 1648.23L4714.77 2007.96C4710.97 2022.79 4710.63 2038.29 4713.77 2053.28L4825.3 2585.31C4829.03 2603.1 4827.84 2621.57 4821.85 2638.74L4718.97 2933.9C4712.47 2952.55 4700.59 2968.85 4684.84 2980.76L4415.45 3184.36C4383.61 3208.42 4369.13 3249.1 4378.6 3287.86L4440.94 3543.15C4445.23 3560.72 4454.21 3576.8 4466.92 3589.67L4730.48 3856.67C4766.12 3892.77 4769.08 3949.85 4737.35 3989.45L4461.55 4333.65C4435.38 4366.31 4391.63 4379.22 4351.92 4365.99L3915.97 4220.81C3881.97 4209.48 3844.51 4217.22 3817.78 4241.08L3564.53 4467.14C3554.28 4476.28 3542.27 4483.22 3529.23 4487.51L3176.12 4603.89C3159.02 4609.52 3143.77 4619.67 3131.95 4633.26L3038 4741.34C3031.04 4749.34 3025.4 4758.39 3021.29 4768.16L2967.51 4895.98C2961.97 4909.15 2953.51 4920.9 2942.76 4930.33L2917.6 4952.41C2902.83 4965.37 2881.53 4967.69 2864.32 4958.23C2850.96 4950.88 2834.85 4950.52 2821.18 4957.27L2805.13 4965.18C2781.81 4976.69 2754.39 4976.29 2731.41 4964.13L2705.74 4950.54C2691.42 4942.96 2674.37 4942.53 2659.69 4949.39C2641.31 4957.98 2619.6 4955.02 2604.2 4941.81L2580.53 4921.52C2566.77 4909.73 2556.47 4894.42 2550.74 4877.23L2530.12 4815.35C2527.05 4806.17 2522.68 4797.47 2517.11 4789.55L2473.63 4727.56C2461.52 4710.3 2444.26 4697.3 2424.32 4690.44L2213.82 4617.95C2203.35 4614.34 2192.34 4612.5 2181.26 4612.5H1858.53C1826.2 4612.5 1795.86 4596.87 1777.09 4570.54L1669.95 4420.2C1655.2 4399.51 1648.89 4373.99 1652.27 4348.82L1704.21 3963.02C1707.9 3935.58 1700.05 3907.83 1682.52 3886.39L1558.45 3734.62C1544.84 3717.98 1526.25 3706.17 1505.41 3700.93L1127.34 3605.89C1100.93 3599.25 1078.37 3582.13 1064.87 3558.48L975.344 3401.65C959.99 3374.75 957.966 3342.26 969.862 3313.66L1078.33 3052.94C1083.39 3040.77 1086 3027.71 1086 3014.53V2749.02C1086 2728.81 1092.12 2709.08 1103.55 2692.43L1279.69 2435.83C1285.53 2427.33 1292.65 2419.78 1300.79 2413.45L1616.27 2168.37C1636.04 2153.02 1649.32 2130.81 1653.51 2106.14L1699.39 1836C1705.87 1797.85 1689.74 1759.37 1658 1737.24L1384.89 1546.79C1354.24 1525.42 1338.07 1488.74 1342.95 1451.7L1387.78 1111.68C1391.71 1081.83 1408.89 1055.34 1434.54 1039.57L1641.33 912.402C1658.69 901.723 1678.91 896.606 1699.26 897.738L2127.73 921.566C2155.63 923.117 2182.9 912.924 2202.95 893.455L2470 634.085L2533.23 564.511C2547.69 548.596 2556.64 528.442 2558.74 507.04L2567 423V-31.6029C2567 -86.3988 2522.9 -130.989 2468.11 -131.597L8.10896 -158.879C-47.5497 -159.496 -93 -114.547 -93 -58.8849L-93 5998.19C-93 6053.54 -48.0397 6098.36 7.30949 6098.19L5783.94 6080.31C5838.8 6080.14 5883.28 6035.8 5883.63 5980.94L5921.86 -19.3629C5922.21 -74.8392 5877.34 -120 5821.86 -120H3077C3021.77 -120 2977 -75.2285 2977 -20V387.896C2977 397.909 2978.5 407.864 2981.46 417.43L3040.74 609.174C3043.89 619.382 3048.66 629.019 3054.87 637.717L3267.88 936.294C3282.43 956.686 3304.1 970.875 3328.6 976.055Z" fill="#1C506F"/>
</g>
<g id="spawn" clip-path="url(#clip43_2237_3750)">
<rect id="Rectangle 2166" x="2738" y="4903" width="100" height="60" transform="rotate(-90 2738 4903)" fill="#DC567C"/>
</g>
<g id="enemies">
<g id="wave 0">
<g id="PoliceBasic:wave=0">
<path id="Rectangle 1710" d="M2283.87 3810.59C2285.59 3804.19 2292.17 3800.39 2298.57 3802.11L2386.47 3825.66C2394.47 3827.8 2399.22 3836.03 2397.07 3844.03L2390.86 3867.21C2388.72 3875.21 2380.49 3879.96 2372.49 3877.82L2284.59 3854.27C2278.19 3852.55 2274.39 3845.97 2276.11 3839.57L2283.87 3810.59Z" fill="#28363E"/>
<path id="Rectangle 1715" d="M2312.89 3814.33L2357.32 3826.24L2347.54 3862.75L2303.11 3850.84L2312.89 3814.33Z" fill="#8598A2"/>
<path id="Rectangle 1709" d="M2317.03 3821.05C2318.05 3817.23 2315.17 3813.49 2311.22 3813.5L2306.65 3813.5C2304.26 3813.51 2302.09 3814.96 2301.14 3817.16C2297.7 3825.21 2295.39 3833.82 2294.35 3842.52C2294.06 3844.9 2295.22 3847.23 2297.29 3848.44L2301.25 3850.73C2304.66 3852.71 2309.03 3850.91 2310.05 3847.09L2317.03 3821.05Z" fill="#3B5766"/>
<g id="Group 120">
<path id="Rectangle 1712_10" d="M2327.72 3817.76C2328.4 3815.24 2330.99 3813.74 2333.52 3814.41C2336.05 3815.09 2337.55 3817.69 2336.87 3820.22L2326.82 3857.73C2326.14 3860.26 2323.54 3861.76 2321.02 3861.08C2318.49 3860.41 2316.99 3857.81 2317.67 3855.28L2327.72 3817.76Z" fill="#BACBD6"/>
<path id="Rectangle 1713" d="M2327.72 3817.76C2328.4 3815.24 2330.99 3813.74 2333.52 3814.41C2336.05 3815.09 2337.55 3817.69 2336.87 3820.22L2334.91 3827.54C2334.23 3830.06 2331.63 3831.56 2329.11 3830.89C2326.58 3830.21 2325.08 3827.61 2325.76 3825.08L2327.72 3817.76Z" fill="#A5586E"/>
<path id="Rectangle 1714" d="M2319.63 3847.96C2320.3 3845.43 2322.9 3843.93 2325.43 3844.61C2327.96 3845.29 2329.46 3847.89 2328.78 3850.41L2326.82 3857.73C2326.14 3860.26 2323.54 3861.76 2321.02 3861.08C2318.49 3860.41 2316.99 3857.81 2317.67 3855.28L2319.63 3847.96Z" fill="#216994"/>
</g>
<path id="Rectangle 1708" d="M2344.71 3827.57C2345.66 3824.02 2349.54 3822.15 2352.9 3823.62L2361 3827.14C2362.84 3827.95 2363.97 3829.83 2363.81 3831.84C2362.99 3842 2360.33 3851.93 2355.96 3861.14C2355.09 3862.96 2353.17 3864.02 2351.18 3863.8L2342.4 3862.8C2338.75 3862.39 2336.33 3858.83 2337.28 3855.29L2344.71 3827.57Z" fill="#3B5766"/>
<rect id="mapHelper_7" x="2286.98" y="3799" width="118" height="54" transform="rotate(15 2286.98 3799)" fill="#A4C424" fill-opacity="0.01"/>
</g>
<g id="GroundBasic:wave=0">
<rect id="person" x="2983" y="2361" width="60" height="60" rx="30" fill="#E87F7B"/>
</g>
<g id="GroundBasic:wave=0_2">
<rect id="person_2" x="3150" y="2391" width="60" height="60" rx="30" fill="#E87F7B"/>
</g>
<g id="GroundBasic:wave=0_3">
<rect id="person_3" x="3068" y="2548" width="60" height="60" rx="30" fill="#E87F7B"/>
</g>
</g>
<g id="wave 1">
<g id="PoliceBasic:wave=1">
<path id="Rectangle 1710_2" d="M2950.79 2551.86C2957.23 2550.28 2963.73 2554.22 2965.3 2560.65L2986.98 2649.03C2988.96 2657.08 2984.04 2665.2 2975.99 2667.18L2952.68 2672.89C2944.64 2674.87 2936.51 2669.95 2934.54 2661.9L2912.86 2573.52C2911.28 2567.08 2915.22 2560.59 2921.65 2559.01L2950.79 2551.86Z" fill="#28363E"/>
<path id="Rectangle 1715_2" d="M2961.49 2579.09L2972.45 2623.77L2935.74 2632.78L2924.78 2588.1L2961.49 2579.09Z" fill="#8598A2"/>
<path id="Rectangle 1709_2" d="M2957.59 2585.96C2961.43 2585.02 2963.32 2580.69 2961.41 2577.23L2959.21 2573.23C2958.05 2571.13 2955.74 2569.93 2953.35 2570.16C2944.63 2571.02 2935.98 2573.14 2927.85 2576.41C2925.63 2577.31 2924.14 2579.45 2924.08 2581.85L2923.98 2586.41C2923.89 2590.36 2927.57 2593.32 2931.41 2592.38L2957.59 2585.96Z" fill="#3B5766"/>
<g id="Group 120_2">
<path id="Rectangle 1712_11" d="M2965.62 2593.74C2968.16 2593.12 2970.72 2594.67 2971.35 2597.21C2971.97 2599.76 2970.42 2602.32 2967.87 2602.94L2930.15 2612.2C2927.61 2612.82 2925.04 2611.27 2924.42 2608.73C2923.8 2606.19 2925.35 2603.62 2927.89 2603L2965.62 2593.74Z" fill="#BACBD6"/>
<path id="Rectangle 1713_2" d="M2965.62 2593.74C2968.16 2593.12 2970.72 2594.67 2971.35 2597.21C2971.97 2599.76 2970.42 2602.32 2967.87 2602.94L2960.51 2604.75C2957.97 2605.37 2955.41 2603.82 2954.78 2601.28C2954.16 2598.74 2955.72 2596.17 2958.26 2595.55L2965.62 2593.74Z" fill="#A5586E"/>
<path id="Rectangle 1714_2" d="M2935.25 2601.19C2937.8 2600.57 2940.36 2602.12 2940.98 2604.66C2941.61 2607.2 2940.05 2609.77 2937.51 2610.39L2930.15 2612.2C2927.61 2612.82 2925.04 2611.27 2924.42 2608.73C2923.8 2606.19 2925.35 2603.62 2927.89 2603L2935.25 2601.19Z" fill="#216994"/>
</g>
<path id="Rectangle 1708_2" d="M2965.21 2613.35C2968.77 2612.48 2972.27 2614.98 2972.61 2618.63L2973.42 2627.43C2973.6 2629.43 2972.49 2631.33 2970.66 2632.15C2961.36 2636.33 2951.38 2638.78 2941.2 2639.38C2939.19 2639.5 2937.33 2638.33 2936.57 2636.47L2933.21 2628.3C2931.82 2624.9 2933.77 2621.06 2937.33 2620.19L2965.21 2613.35Z" fill="#3B5766"/>
<rect id="mapHelper_8" x="2962.45" y="2549" width="118" height="54" transform="rotate(76.217 2962.45 2549)" fill="#A4C424" fill-opacity="0.01"/>
</g>
<g id="GroundBasic:wave=1">
<rect id="person_4" x="2119" y="1569" width="60" height="60" rx="30" fill="#E87F7B"/>
</g>
<g id="GroundBasic:wave=1_2">
<rect id="person_5" x="2237" y="1330" width="60" height="60" rx="30" fill="#E87F7B"/>
</g>
<g id="GroundBasic:wave=1_3">
<rect id="person_6" x="2267" y="1524" width="60" height="60" rx="30" fill="#E87F7B"/>
</g>
<g id="GroundBasic:wave=1_4">
<rect id="person_7" x="2179" y="1825" width="60" height="60" rx="30" fill="#E87F7B"/>
</g>
</g>
</g>
<g id="exit:side=top">
<rect id="rect" x="2568" y="-5" width="410" height="10" fill="white" fill-opacity="0.2"/>
</g>
</g>
<defs>
<filter id="filter0_d_2237_3750" x="3596" y="3045" width="82" height="82" filterUnits="userSpaceOnUse" color-interpolation-filters="sRGB">
<feFlood flood-opacity="0" result="BackgroundImageFix"/>
<feColorMatrix in="SourceAlpha" type="matrix" values="0 0 0 0 0 0 0 0 0 0 0 0 0 0 0 0 0 0 127 0" result="hardAlpha"/>
<feOffset dx="12" dy="12"/>
<feComposite in2="hardAlpha" operator="out"/>
<feColorMatrix type="matrix" values="0 0 0 0 0 0 0 0 0 0 0 0 0 0 0 0 0 0 0.15 0"/>
<feBlend mode="normal" in2="BackgroundImageFix" result="effect1_dropShadow_2237_3750"/>
<feBlend mode="normal" in="SourceGraphic" in2="effect1_dropShadow_2237_3750" result="shape"/>
</filter>
<filter id="filter1_d_2237_3750" x="1818" y="1793" width="82" height="82" filterUnits="userSpaceOnUse" color-interpolation-filters="sRGB">
<feFlood flood-opacity="0" result="BackgroundImageFix"/>
<feColorMatrix in="SourceAlpha" type="matrix" values="0 0 0 0 0 0 0 0 0 0 0 0 0 0 0 0 0 0 127 0" result="hardAlpha"/>
<feOffset dx="12" dy="12"/>
<feComposite in2="hardAlpha" operator="out"/>
<feColorMatrix type="matrix" values="0 0 0 0 0 0 0 0 0 0 0 0 0 0 0 0 0 0 0.15 0"/>
<feBlend mode="normal" in2="BackgroundImageFix" result="effect1_dropShadow_2237_3750"/>
<feBlend mode="normal" in="SourceGraphic" in2="effect1_dropShadow_2237_3750" result="shape"/>
</filter>
<filter id="filter2_d_2237_3750" x="1868" y="3209" width="82" height="82" filterUnits="userSpaceOnUse" color-interpolation-filters="sRGB">
<feFlood flood-opacity="0" result="BackgroundImageFix"/>
<feColorMatrix in="SourceAlpha" type="matrix" values="0 0 0 0 0 0 0 0 0 0 0 0 0 0 0 0 0 0 127 0" result="hardAlpha"/>
<feOffset dx="12" dy="12"/>
<feComposite in2="hardAlpha" operator="out"/>
<feColorMatrix type="matrix" values="0 0 0 0 0 0 0 0 0 0 0 0 0 0 0 0 0 0 0.15 0"/>
<feBlend mode="normal" in2="BackgroundImageFix" result="effect1_dropShadow_2237_3750"/>
<feBlend mode="normal" in="SourceGraphic" in2="effect1_dropShadow_2237_3750" result="shape"/>
</filter>
<filter id="filter3_d_2237_3750" x="2808" y="1850" width="82" height="82" filterUnits="userSpaceOnUse" color-interpolation-filters="sRGB">
<feFlood flood-opacity="0" result="BackgroundImageFix"/>
<feColorMatrix in="SourceAlpha" type="matrix" values="0 0 0 0 0 0 0 0 0 0 0 0 0 0 0 0 0 0 127 0" result="hardAlpha"/>
<feOffset dx="12" dy="12"/>
<feComposite in2="hardAlpha" operator="out"/>
<feColorMatrix type="matrix" values="0 0 0 0 0 0 0 0 0 0 0 0 0 0 0 0 0 0 0.15 0"/>
<feBlend mode="normal" in2="BackgroundImageFix" result="effect1_dropShadow_2237_3750"/>
<feBlend mode="normal" in="SourceGraphic" in2="effect1_dropShadow_2237_3750" result="shape"/>
</filter>
<clipPath id="clip0_2237_3750">
<rect width="5810" height="5925" fill="white"/>
</clipPath>
<clipPath id="clip1_2237_3750">
<rect width="311" height="326" fill="white" transform="translate(2511 1543)"/>
</clipPath>
<clipPath id="clip2_2237_3750">
<rect width="311" height="326" fill="white" transform="translate(4162 3977)"/>
</clipPath>
<clipPath id="clip3_2237_3750">
<rect width="311" height="326" fill="white" transform="translate(3946 3502)"/>
</clipPath>
<clipPath id="clip4_2237_3750">
<rect width="311" height="326" fill="white" transform="translate(2229 4035)"/>
</clipPath>
<clipPath id="clip5_2237_3750">
<rect width="168" height="176" fill="white" transform="translate(1308 3400)"/>
</clipPath>
<clipPath id="clip6_2237_3750">
<rect width="168" height="176" fill="white" transform="translate(1710 1922)"/>
</clipPath>
<clipPath id="clip7_2237_3750">
<rect width="168" height="176" fill="white" transform="translate(2726 2435)"/>
</clipPath>
<clipPath id="clip8_2237_3750">
<rect width="168" height="176" fill="white" transform="translate(4044 2110)"/>
</clipPath>
<clipPath id="clip9_2237_3750">
<rect width="168" height="176" fill="white" transform="translate(3150 3443)"/>
</clipPath>
<clipPath id="clip10_2237_3750">
<rect width="168" height="176" fill="white" transform="translate(4488 1693)"/>
</clipPath>
<clipPath id="clip11_2237_3750">
<rect width="168" height="176" fill="white" transform="translate(3109 4314)"/>
</clipPath>
<clipPath id="clip12_2237_3750">
<rect width="177" height="180" fill="white" transform="translate(1919 3846)"/>
</clipPath>
<clipPath id="clip13_2237_3750">
<rect width="177" height="180" fill="white" transform="translate(3595 2843)"/>
</clipPath>
<clipPath id="clip14_2237_3750">
<rect width="177" height="180" fill="white" transform="translate(1095 3181)"/>
</clipPath>
<clipPath id="clip15_2237_3750">
<rect width="177" height="180" fill="white" transform="translate(1124 2686)"/>
</clipPath>
<clipPath id="clip16_2237_3750">
<rect width="177" height="180" fill="white" transform="translate(4459 3797)"/>
</clipPath>
<clipPath id="clip17_2237_3750">
<rect width="177" height="180" fill="white" transform="translate(4502 1862)"/>
</clipPath>
<clipPath id="clip18_2237_3750">
<rect width="177" height="180" fill="white" transform="translate(2887 1544)"/>
</clipPath>
<clipPath id="clip19_2237_3750">
<rect width="177" height="180" fill="white" transform="translate(3253 1094)"/>
</clipPath>
<clipPath id="clip20_2237_3750">
<rect width="177" height="180" fill="white" transform="translate(1822 980)"/>
</clipPath>
<clipPath id="clip21_2237_3750">
<rect width="297" height="206" fill="white" transform="translate(2216 2221)"/>
</clipPath>
<clipPath id="clip22_2237_3750">
<rect width="297" height="206" fill="white" transform="translate(2752 1274)"/>
</clipPath>
<clipPath id="clip23_2237_3750">
<rect width="297" height="206" fill="white" transform="translate(3829 3900)"/>
</clipPath>
<clipPath id="clip24_2237_3750">
<rect width="297" height="206" fill="white" transform="translate(2792 3177)"/>
</clipPath>
<clipPath id="clip25_2237_3750">
<rect width="297" height="206" fill="white" transform="translate(3475 1053)"/>
</clipPath>
<clipPath id="clip26_2237_3750">
<rect width="149" height="134" fill="white" transform="translate(1878 1243)"/>
</clipPath>
<clipPath id="clip27_2237_3750">
<rect width="149" height="134" fill="white" transform="translate(3011 1125)"/>
</clipPath>
<clipPath id="clip28_2237_3750">
<rect width="149" height="134" fill="white" transform="translate(3234 2143)"/>
</clipPath>
<clipPath id="clip29_2237_3750">
<rect width="149" height="134" fill="white" transform="translate(2673 3356)"/>
</clipPath>
<clipPath id="clip30_2237_3750">
<rect width="149" height="134" fill="white" transform="translate(2080 4040)"/>
</clipPath>
<clipPath id="clip31_2237_3750">
<rect width="149" height="134" fill="white" transform="translate(2327 4493)"/>
</clipPath>
<clipPath id="clip32_2237_3750">
<rect width="149" height="134" fill="white" transform="translate(4294 3753)"/>
</clipPath>
<clipPath id="clip33_2237_3750">
<rect width="149" height="134" fill="white" transform="translate(4444 2929)"/>
</clipPath>
<clipPath id="clip34_2237_3750">
<rect width="149" height="134" fill="white" transform="translate(4533 1570)"/>
</clipPath>
<clipPath id="clip35_2237_3750">
<rect width="144" height="120" fill="white" transform="translate(2568 2362)"/>
</clipPath>
<clipPath id="clip36_2237_3750">
<rect width="144" height="120" fill="white" transform="translate(2400 1534)"/>
</clipPath>
<clipPath id="clip37_2237_3750">
<rect width="144" height="120" fill="white" transform="translate(2839 2975)"/>
</clipPath>
<clipPath id="clip38_2237_3750">
<rect width="144" height="120" fill="white" transform="translate(4588 2110)"/>
</clipPath>
<clipPath id="clip39_2237_3750">
<rect width="144" height="120" fill="white" transform="translate(4138 3187)"/>
</clipPath>
<clipPath id="clip40_2237_3750">
<rect width="144" height="120" fill="white" transform="translate(3335 4378)"/>
</clipPath>
<clipPath id="clip41_2237_3750">
<rect width="144" height="120" fill="white" transform="translate(1783 4004)"/>
</clipPath>
<clipPath id="clip42_2237_3750">
<rect width="144" height="120" fill="white" transform="translate(1068 3400)"/>
</clipPath>
<clipPath id="clip43_2237_3750">
<rect width="100" height="60" fill="white" transform="translate(2738 4903) rotate(-90)"/>
</clipPath>
</defs>
</svg>
