<svg width="6961" height="6632" viewBox="0 0 6961 6632" fill="none" xmlns="http://www.w3.org/2000/svg">
<g id="walls" clip-path="url(#clip0_2237_3726)">
<rect id="exitDarkness" x="2880" y="942" width="780" height="303" fill="url(#paint0_linear_2237_3726)"/>
<rect id="exitDarkness_2" width="780" height="303" transform="matrix(1 0 0 -1 2880 5722)" fill="url(#paint1_linear_2237_3726)"/>
<g id="Group 127">
<path id="shadow" fill-rule="evenodd" clip-rule="evenodd" d="M2746.98 255.772C2729.32 252.322 2711.06 253.7 2694.11 259.763L1088.69 834.247C1050.97 847.743 1024.95 882.445 1022.56 922.431L939.533 2310.86C938.527 2327.68 933.289 2343.97 924.303 2358.23L286.017 3370.66C272.511 3392.09 267.636 3417.84 272.377 3442.71L580.089 5057.48C582.669 5071.01 588.017 5083.87 595.799 5095.24L1466.15 6366.88C1481.1 6388.73 1504.11 6403.76 1530.12 6408.67L3217.19 6727.12C3222.06 6728.04 3226.98 6728.6 3231.93 6728.78L4829.57 6789.68C4843.7 6790.22 4857.78 6787.76 4870.88 6782.46L6216.6 6238.15C6243.53 6227.26 6264.39 6205.2 6273.76 6177.72L6729 4842.5L6991.36 3504C6993.44 3493.4 6993.79 3482.54 6992.39 3471.83L6758.91 1682.48C6754.59 1649.37 6734.04 1620.61 6704.12 1605.8L5530 1024.5L4203.85 541.677C4198.96 539.895 4193.93 538.498 4188.82 537.499L2746.98 255.772ZM4027.6 1851.56C4003.1 1846.37 3981.43 1832.19 3966.88 1811.79L3963.36 1806.86L3787.5 1631L3822.46 1609.36L3751.74 1510.24C3746.93 1503.5 3742.98 1496.18 3739.97 1488.46L3669.34 1307.16C3663.92 1293.26 3655.24 1280.86 3644.02 1271.02L3619.6 1249.59C3604.83 1236.63 3583.53 1234.31 3566.32 1243.77C3552.96 1251.12 3536.85 1251.48 3523.18 1244.73L3507.13 1236.82C3483.81 1225.32 3456.39 1225.71 3433.41 1237.87L3407.74 1251.46C3393.42 1259.04 3376.37 1259.47 3361.69 1252.61C3343.31 1244.02 3321.6 1246.98 3306.2 1260.19L3289.27 1274.7C3271.52 1289.91 3260.71 1311.68 3259.32 1335.01L3256.61 1380.31C3255.24 1403.08 3246.13 1424.71 3230.79 1441.59L3169 1509.59L2901.95 1768.95C2881.9 1788.42 2854.63 1798.62 2826.73 1797.07L2398.26 1773.24C2377.91 1772.11 2357.69 1777.22 2340.33 1787.9L2133.54 1915.07C2107.89 1930.84 2090.71 1957.33 2086.78 1987.18L2041.95 2327.2C2037.07 2364.24 2053.24 2400.92 2083.89 2422.29L2135.93 2458.58L2171.5 2426L2361.81 2616.31C2390.36 2638.87 2404.53 2675.33 2398.39 2711.5L2352.51 2981.64C2348.32 3006.31 2335.04 3028.52 2315.27 3043.87L1999.79 3288.95C1991.65 3295.28 1984.53 3302.83 1978.69 3311.33L1802.55 3567.93C1791.12 3584.58 1785 3604.31 1785 3624.52V3890.03C1785 3903.21 1782.39 3916.27 1777.33 3928.44L1668.86 4189.16C1656.97 4217.76 1658.99 4250.25 1674.34 4277.15L1763.87 4433.98C1777.37 4457.63 1799.93 4474.75 1826.34 4481.39L2009.85 4527.52L1964.5 4441L2039.5 4393.5L2237.78 4591.78C2245.08 4596.94 2251.71 4603.1 2257.45 4610.12L2381.52 4761.89C2399.05 4783.33 2406.9 4811.08 2403.21 4838.52L2351.27 5224.32C2347.89 5249.49 2354.2 5275.01 2368.95 5295.7L2476.09 5446.04C2494.86 5472.37 2525.2 5488 2557.53 5488H2880.26C2891.34 5488 2902.35 5489.84 2912.82 5493.45L2914.63 5494.07L2957.5 5388.5L3152 5573.5L3154.22 5583.2C3161.19 5588.92 3167.39 5595.59 3172.63 5603.06L3216.11 5665.05C3221.68 5672.97 3226.06 5681.67 3229.12 5690.85L3249.74 5752.73C3255.47 5769.92 3265.77 5785.23 3279.53 5797.02L3303.2 5817.31C3318.6 5830.52 3340.31 5833.48 3358.69 5824.89C3373.37 5818.03 3390.42 5818.46 3404.74 5826.04L3430.41 5839.63C3453.39 5851.79 3480.81 5852.19 3504.13 5840.68L3520.18 5832.77C3533.85 5826.02 3549.96 5826.38 3563.32 5833.73C3580.53 5843.19 3601.83 5840.87 3616.6 5827.91L3641.77 5805.83C3652.51 5796.4 3660.97 5784.65 3666.52 5771.48L3720.29 5643.66C3724.41 5633.89 3730.04 5624.84 3737 5616.84L3830.95 5508.76C3842.77 5495.17 3858.03 5485.03 3875.12 5479.39L4228.23 5363.01C4241.27 5358.72 4253.28 5351.78 4263.53 5342.64L4516.78 5116.58C4543.51 5092.72 4580.97 5084.98 4614.97 5096.31L5050.92 5241.49C5090.63 5254.72 5134.38 5241.81 5160.55 5209.15L5436.35 4864.95C5468.08 4825.35 5465.12 4768.27 5429.48 4732.17L5165.92 4465.17C5153.21 4452.3 5144.23 4436.22 5139.94 4418.65L5077.6 4163.36C5068.13 4124.6 5082.61 4083.92 5114.45 4059.86L5383.84 3856.26C5399.59 3844.35 5411.47 3828.05 5417.97 3809.4L5520.85 3514.24C5526.84 3497.07 5528.03 3478.6 5524.3 3460.81L5412.77 2928.78C5409.63 2913.79 5409.97 2898.29 5413.77 2883.46L5505.87 2523.73C5519.3 2471.27 5488.54 2417.65 5436.47 2402.78L4868.1 2240.39C4856.79 2237.15 4846.14 2231.95 4836.63 2225.02L4463.3 1952.62C4451.9 1944.3 4438.86 1938.49 4425.04 1935.57L4027.6 1851.56ZM3083.9 3189.06L3283.22 3386L3570.16 3718.81C3597.18 3750.14 3602.11 3794.87 3582.57 3831.34L3346.46 4271.97C3324.24 4313.43 3276.14 4333.8 3230.9 4320.91L2770.83 4189.74C2753.48 4184.8 2737.79 4175.25 2725.43 4162.12L2519.01 3942.85C2505.01 3927.98 2495.9 3909.17 2492.9 3888.95L2469.78 3732.81C2466.68 3711.81 2470.33 3690.38 2480.21 3671.6L2723.25 3209.64C2740.87 3176.15 2775.89 3155.47 2813.73 3156.22L3015.59 3160.21C3041.21 3160.72 3065.67 3171.04 3083.9 3189.06ZM4617.1 3686.38L4845.56 3456.29C4874.49 3427.15 4882.67 3383.29 4866.18 3345.68L4768.94 3123.88C4760.84 3105.39 4758.52 3084.89 4762.28 3065.06L4815.1 2786.99C4822.1 2750.16 4807.91 2712.51 4778.34 2689.46L4536.36 2500.82C4521.43 2489.18 4503.5 2482.02 4484.65 2480.17L4210.28 2453.22C4159.7 2448.25 4113.43 2482.02 4102.74 2531.72L3997.38 3021.71C3991.7 3048.11 3996.94 3075.68 4011.91 3098.15L4237.54 3437.05C4240.84 3442.01 4244.58 3446.66 4248.71 3450.95L4474.06 3685.25C4512.97 3725.7 4577.55 3726.22 4617.1 3686.38Z" fill="black" fill-opacity="0.15"/>
<path id="rock" fill-rule="evenodd" clip-rule="evenodd" d="M2494.11 59.7629C2511.06 53.7001 2529.32 52.3215 2546.98 55.7723L3988.82 337.499C3993.93 338.498 3998.96 339.895 4003.85 341.677L5330 824.5L6504.12 1405.8C6534.04 1420.61 6554.59 1449.37 6558.91 1482.48L6792.39 3271.83C6793.79 3282.54 6793.44 3293.4 6791.36 3304L6529 4642.5L6073.76 5977.72C6064.39 6005.2 6043.53 6027.26 6016.6 6038.15L4670.88 6582.46C4657.78 6587.76 4643.7 6590.22 4629.57 6589.68L3031.93 6528.78C3026.98 6528.6 3022.06 6528.04 3017.19 6527.12L1330.12 6208.67C1304.11 6203.76 1281.1 6188.73 1266.15 6166.88L395.799 4895.24C388.017 4883.87 382.669 4871.01 380.089 4857.48L72.3772 3242.71C67.6365 3217.84 72.5113 3192.09 86.0173 3170.66L724.303 2158.23C733.289 2143.97 738.527 2127.68 739.533 2110.86L822.557 722.431C824.949 682.444 850.971 647.743 888.687 634.247L2494.11 59.7629ZM3766.88 1611.79C3781.43 1632.19 3803.1 1646.37 3827.61 1651.56L4225.04 1735.57C4238.86 1738.49 4251.9 1744.3 4263.3 1752.62L4636.63 2025.02C4646.14 2031.95 4656.79 2037.15 4668.1 2040.39L5236.47 2202.78C5288.54 2217.65 5319.3 2271.27 5305.87 2323.73L5213.77 2683.46C5209.97 2698.29 5209.63 2713.79 5212.77 2728.78L5324.3 3260.81C5328.03 3278.6 5326.84 3297.07 5320.85 3314.24L5217.97 3609.4C5211.47 3628.05 5199.59 3644.35 5183.84 3656.26L4914.45 3859.86C4882.61 3883.92 4868.13 3924.6 4877.6 3963.36L4939.94 4218.65C4944.23 4236.22 4953.21 4252.3 4965.92 4265.17L5229.48 4532.17C5265.12 4568.27 5268.08 4625.35 5236.35 4664.95L4960.55 5009.15C4934.38 5041.81 4890.63 5054.72 4850.92 5041.49L4414.97 4896.31C4380.97 4884.98 4343.51 4892.72 4316.78 4916.58L4063.53 5142.64C4053.28 5151.78 4041.27 5158.72 4028.23 5163.01L3675.12 5279.39C3658.03 5285.03 3642.77 5295.17 3630.95 5308.76L3537 5416.84C3530.04 5424.84 3524.41 5433.89 3520.29 5443.66L3466.52 5571.48C3460.97 5584.65 3452.51 5596.4 3441.77 5605.83L3416.6 5627.91C3401.83 5640.87 3380.54 5643.19 3363.32 5633.73V5633.73C3349.96 5626.38 3333.85 5626.02 3320.18 5632.77L3304.13 5640.68C3280.81 5652.19 3253.39 5651.79 3230.41 5639.63L3204.74 5626.04C3190.42 5618.46 3173.37 5618.03 3158.69 5624.89V5624.89C3140.31 5633.48 3118.6 5630.52 3103.2 5617.31L3079.53 5597.02C3065.77 5585.23 3055.47 5569.92 3049.74 5552.72L3029.12 5490.85C3026.06 5481.67 3021.68 5472.97 3016.11 5465.05L2972.63 5403.06C2960.52 5385.8 2943.26 5372.8 2923.32 5365.94L2712.82 5293.45C2702.35 5289.84 2691.34 5288 2680.26 5288H2357.53C2325.2 5288 2294.86 5272.37 2276.09 5246.04L2168.95 5095.7C2154.2 5075.01 2147.89 5049.49 2151.27 5024.32L2203.21 4638.52C2206.9 4611.08 2199.05 4583.33 2181.52 4561.89L2057.45 4410.12C2043.84 4393.48 2025.25 4381.67 2004.41 4376.43L1626.34 4281.39C1599.93 4274.75 1577.37 4257.63 1563.87 4233.98L1474.34 4077.15C1458.99 4050.25 1456.97 4017.76 1468.86 3989.16L1577.33 3728.44C1582.39 3716.27 1585 3703.21 1585 3690.03V3424.52C1585 3404.31 1591.12 3384.58 1602.56 3367.93L1778.69 3111.33C1784.53 3102.83 1791.65 3095.28 1799.79 3088.95L2115.27 2843.87C2135.04 2828.52 2148.32 2806.31 2152.51 2781.64L2198.39 2511.5C2204.87 2473.35 2188.74 2434.87 2157 2412.74L1883.89 2222.29C1853.24 2200.92 1837.07 2164.24 1841.95 2127.2L1886.78 1787.18C1890.72 1757.33 1907.89 1730.84 1933.54 1715.07L2140.33 1587.9C2157.69 1577.22 2177.91 1572.11 2198.26 1573.24L2626.73 1597.07C2654.63 1598.62 2681.9 1588.42 2701.95 1568.95L2969 1309.59L3030.79 1241.59C3046.13 1224.71 3055.24 1203.08 3056.61 1180.31L3059.32 1135.01C3060.71 1111.68 3071.52 1089.91 3089.27 1074.7L3106.2 1060.19C3121.6 1046.98 3143.31 1044.02 3161.69 1052.61V1052.61C3176.37 1059.47 3193.42 1059.04 3207.74 1051.46L3233.41 1037.87C3256.39 1025.71 3283.81 1025.31 3307.13 1036.82L3323.18 1044.73C3336.85 1051.48 3352.96 1051.12 3366.32 1043.77V1043.77C3383.54 1034.31 3404.83 1036.63 3419.6 1049.59L3444.02 1071.02C3455.24 1080.86 3463.92 1093.26 3469.34 1107.16L3539.97 1288.46C3542.98 1296.18 3546.93 1303.5 3551.74 1310.24L3766.88 1611.79Z" fill="#BB816E"/>
<path id="wall" d="M2718.13 3136H2987.4C3016.49 3136 3044.14 3148.67 3063.13 3170.7L3320.16 3468.81C3347.18 3500.14 3352.11 3544.87 3332.57 3581.34L3096.46 4021.97C3074.24 4063.43 3026.14 4083.8 2980.9 4070.91L2538.24 3944.71C2510.35 3936.75 2487.28 3917.08 2475.02 3890.8L2374.22 3674.61C2359.76 3643.6 2362.16 3607.34 2380.59 3578.51L2633.86 3182.15C2652.23 3153.4 2684 3136 2718.13 3136Z" fill="#BB816E"/>
<path id="wall_2" d="M4224.64 3424.62L3925.47 3065.84C3908.22 3045.16 3900.05 3018.4 3902.79 2991.61L3951.8 2513.07C3957.43 2458.09 4006.59 2418.11 4061.56 2423.79L4468.22 2465.81C4526.48 2471.83 4567.12 2526.4 4556.19 2583.94L4512.28 2815.06C4508.52 2834.89 4510.84 2855.39 4518.94 2873.88L4616.18 3095.68C4632.67 3133.29 4624.49 3177.15 4595.56 3206.29L4372.41 3431.04C4330.88 3472.86 4262.38 3469.88 4224.64 3424.62Z" fill="#BB816E"/>
<g id="inside">
<path d="M2247.69 1107.05L1910.44 696.126C1869.27 645.955 1886.05 570.462 1944.61 542.467L2459.92 296.098C2480.37 286.324 2503.52 283.783 2525.6 288.893L2986.44 395.555C3049.91 410.245 3082.61 480.73 3052.84 538.677L2832.21 968.144C2819.63 992.625 2797.52 1010.84 2771.08 1018.5L2352.81 1139.66C2314.4 1150.79 2273.05 1137.96 2247.69 1107.05Z" fill="#9A6A5A"/>
<path d="M4291.01 2632.57L4186.26 2617.21C4138.14 2610.15 4091.92 2638.74 4076.75 2684.95L4058.46 2740.64C4051.67 2761.31 4051.81 2783.64 4058.86 2804.23L4147.91 3064.29C4156.6 3089.69 4175.14 3110.53 4199.36 3122.11L4237.19 3140.21C4297.49 3169.05 4368.57 3131.76 4379.09 3065.75L4395.03 2965.83C4396.34 2957.64 4396.62 2949.32 4395.88 2941.07L4376.1 2722.5C4371.94 2676.46 4336.76 2639.27 4291.01 2632.57Z" fill="#9A6A5A"/>
<path d="M2615.77 3593.6L2714.48 3405.04C2739.36 3357.52 2797.29 3338.09 2845.79 3361L2967.43 3418.46C2990.59 3429.4 3008.67 3448.81 3017.94 3472.69L3052.18 3560.91C3066.38 3597.5 3057.86 3639.01 3030.4 3667.06L2916.11 3783.78C2885.19 3815.36 2837.2 3822.89 2798.09 3802.31L2657.8 3728.47C2609 3702.79 2590.2 3642.45 2615.77 3593.6Z" fill="#9A6A5A"/>
<path d="M1620.27 1464.28L1390.88 1325.84C1332.85 1290.82 1257.52 1322.46 1241.9 1388.41L1113.15 1932.1C1100.98 1983.48 1130.85 2035.46 1181.37 2050.82L1509.6 2150.59C1571.48 2169.41 1634.68 2125.4 1638.5 2060.83L1668.43 1555.81C1670.62 1518.73 1652.08 1483.48 1620.27 1464.28Z" fill="#9A6A5A"/>
<path d="M1784.7 2559.68L1688.2 2451.64C1677.56 2439.72 1664.21 2430.53 1649.27 2424.83L1217.86 2260.2C1177.64 2244.85 1132.1 2256.97 1104.83 2290.29L952.523 2476.35C916.51 2520.34 924.372 2585.47 969.818 2619.63L1356.25 2910.09C1390.72 2936 1437.92 2936.9 1473.35 2912.31L1767.12 2708.45C1816.47 2674.2 1824.71 2604.49 1784.7 2559.68Z" fill="#9A6A5A"/>
<path d="M876.542 2915.16L1216.46 3076.86C1251.3 3093.44 1273.5 3128.58 1273.5 3167.17V3702.84C1273.5 3724.06 1266.75 3744.73 1254.22 3761.86L1095.06 3979.56C1068.69 4015.63 1021.59 4029.82 979.685 4014.35L585.776 3868.86C537.004 3850.85 510.172 3798.47 524.05 3748.36L737.211 2978.77C753.8 2918.88 820.422 2888.46 876.542 2915.16Z" fill="#9A6A5A"/>
<path d="M1842.05 4585.72L1607.87 4523.72C1563.1 4511.87 1516.05 4532.31 1494.16 4573.12L1345.84 4849.64C1311.73 4913.22 1354.13 4990.89 1426.06 4996.6L1768.47 5023.74C1820.23 5027.85 1866.53 4991.65 1875.03 4940.42L1915.11 4698.75C1923.55 4647.87 1891.91 4598.92 1842.05 4585.72Z" fill="#9A6A5A"/>
<path d="M1234.55 4357.54L773.253 4201.07C693.721 4174.1 618.372 4251.24 647.214 4330.12L827.107 4822.08C853.524 4894.32 948.208 4910.93 997.641 4852L1279.05 4516.51C1324.25 4462.62 1301.17 4380.13 1234.55 4357.54Z" fill="#9A6A5A"/>
<path d="M2705.48 5529.5H2404.22C2378.41 5529.5 2353.6 5539.48 2334.98 5557.35L2062.37 5818.97C2005.24 5873.79 2031.46 5970.11 2108.49 5988.41L2597.89 6104.69C2627.93 6111.82 2659.58 6104.69 2683.65 6085.34L2902.7 5909.3C2943.06 5876.86 2951.98 5818.97 2923.26 5775.89L2788.69 5574.03C2770.14 5546.21 2738.92 5529.5 2705.48 5529.5Z" fill="#9A6A5A"/>
<path d="M1921.48 5254H1590H1363.85C1279.09 5254 1232.77 5352.83 1286.99 5417.98L1532.83 5713.31C1565.39 5752.43 1622.14 5760.85 1664.65 5732.87L1994.98 5515.51C2030.11 5492.39 2047.03 5449.76 2037.3 5408.85L2018.77 5330.88C2008.06 5285.81 1967.8 5254 1921.48 5254Z" fill="#9A6A5A"/>
<path d="M3568.09 5782H3356.51C3294.56 5782 3247.51 5837.75 3257.94 5898.82L3304.67 6172.66C3313.36 6223.57 3359.38 6259.49 3410.87 6255.55L3701.07 6233.35C3746.16 6229.9 3783.33 6196.62 3791.71 6152.18L3813.69 6035.65C3820.1 6001.67 3808.5 5966.78 3783.01 5943.41L3635.68 5808.3C3617.23 5791.38 3593.12 5782 3568.09 5782Z" fill="#9A6A5A"/>
<path d="M4000.13 5352.59L3827.02 5432.46C3774.69 5456.61 3753.55 5519.87 3780.84 5570.62L3871.51 5739.25C3886.03 5766.24 3912.12 5785.09 3942.31 5790.39L4176.22 5831.42C4237.42 5842.16 4293.5 5795.07 4293.5 5732.93V5533.78C4293.5 5498.57 4274.98 5465.95 4244.74 5447.91L4093.27 5357.52C4064.94 5340.61 4030.09 5338.76 4000.13 5352.59Z" fill="#9A6A5A"/>
<path d="M4318.6 5167.04L4352.6 5126.05C4379.29 5093.86 4423.19 5081.68 4462.65 5095.5L4839.38 5227.5C4883.57 5242.99 4911.1 5287.07 4905.63 5333.58L4886.72 5494.12C4878.07 5567.51 4795.56 5606.49 4733.38 5566.57L4341.56 5315.03C4291.03 5282.59 4280.28 5213.26 4318.6 5167.04Z" fill="#9A6A5A"/>
<path d="M4506.48 6037.01L4482.03 5907.45C4465.07 5817.6 4567.63 5753.99 4640.58 5809.12L4765.72 5903.69C4829.48 5951.87 4813.75 6051.69 4738.26 6077.93L4637.58 6112.92C4579.86 6132.97 4517.82 6097.04 4506.48 6037.01Z" fill="#9A6A5A"/>
<path d="M5180.18 5002.6L5367.24 4791.64C5400.35 4754.3 5455.93 4747.08 5497.47 4774.74L5817.7 4987.87C5855.81 5013.23 5871.83 5061.23 5856.59 5104.4L5761.38 5374.19C5746.15 5417.31 5703.62 5444.62 5658.07 5440.5L5245.99 5403.23C5194.46 5398.57 5155 5355.37 5155 5303.64V5068.95C5155 5044.5 5163.96 5020.9 5180.18 5002.6Z" fill="#9A6A5A"/>
<path d="M5145.17 4138.52L5121.93 4052.33C5107.79 3999.88 5138.1 3945.74 5190.21 3930.38L5472.79 3847.08C5494.91 3840.56 5518.61 3841.89 5539.87 3850.84L5855.75 3983.86C5916.39 4009.4 5936.27 4085.53 5895.85 4137.45L5681.4 4412.91C5649.3 4454.15 5590.85 4463.71 5547.27 4434.84L5186.5 4195.86C5166.2 4182.42 5151.5 4162.03 5145.17 4138.52Z" fill="#9A6A5A"/>
<path d="M5441.75 3450.96L5488.69 3229.42C5499.15 3180.05 5544.74 3146.22 5595.01 3150.51L5965.51 3182.1C6045.15 3188.89 6085.03 3281.76 6035.11 3344.19L5813.3 3621.59C5784.86 3657.16 5735.97 3669.02 5694.39 3650.43L5498.76 3562.98C5455.73 3543.74 5431.98 3497.07 5441.75 3450.96Z" fill="#9A6A5A"/>
<path d="M5441.63 2721.96L5542.88 2414.24C5556.38 2373.22 5594.68 2345.5 5637.87 2345.5H5940.38C5988.33 2345.5 6029.54 2379.54 6038.58 2426.64L6088.51 2686.64C6097.95 2735.81 6069.58 2784.38 6022.11 2800.31L5632.78 2930.93C5592.49 2944.45 5548.05 2931.01 5521.98 2897.44L5457.63 2814.53C5437.23 2788.25 5431.23 2753.56 5441.63 2721.96Z" fill="#9A6A5A"/>
<path d="M4785.94 1877.94L4570.33 1669.76C4524.42 1625.43 4531.22 1550.02 4584.33 1514.62L5123.97 1154.86C5160.05 1130.8 5207.53 1132.74 5241.53 1159.67L5604.01 1446.79C5640.11 1475.39 5652.01 1524.95 5632.84 1566.82L5504.23 1847.64C5487.94 1883.2 5452.42 1906 5413.31 1906H4855.4C4829.48 1906 4804.58 1895.94 4785.94 1877.94Z" fill="#9A6A5A"/>
<path d="M3993.76 1362.02L3816.83 1137.04C3764.19 1070.11 3813.95 972.215 3899.05 975.291L4422.79 994.221C4522.49 997.825 4556.02 1129.17 4470.26 1180.13L4123.44 1386.18C4080.28 1411.82 4024.79 1401.49 3993.76 1362.02Z" fill="#9A6A5A"/>
<path d="M3927 862H3344.65C3266.81 862 3218.81 776.977 3259.04 710.329L3373.67 520.384C3394.47 485.918 3433.91 467.285 3473.74 473.105L3953.44 543.186C4006.35 550.915 4043.81 598.887 4038.49 652.086L4026.5 771.95C4021.39 823.071 3978.38 862 3927 862Z" fill="#9A6A5A"/>
<path d="M1968.42 1254.77L1776.84 777.261C1753.21 718.351 1681.38 696.082 1628.56 731.292L1295.6 953.268C1231.33 996.113 1237.83 1092.54 1307.27 1126.37L1831.81 1381.9C1914.07 1421.97 2002.49 1339.68 1968.42 1254.77Z" fill="#9A6A5A"/>
</g>
</g>
</g>
<defs>
<linearGradient id="paint0_linear_2237_3726" x1="3270" y1="942" x2="3270" y2="1245" gradientUnits="userSpaceOnUse">
<stop stop-color="#0E2736"/>
<stop offset="0.535416" stop-color="#0E2736" stop-opacity="0.76"/>
<stop offset="1" stop-color="#0E2736" stop-opacity="0"/>
</linearGradient>
<linearGradient id="paint1_linear_2237_3726" x1="390" y1="0" x2="390" y2="303" gradientUnits="userSpaceOnUse">
<stop stop-color="#0E2736"/>
<stop offset="0.535416" stop-color="#0E2736" stop-opacity="0.76"/>
<stop offset="1" stop-color="#0E2736" stop-opacity="0"/>
</linearGradient>
<clipPath id="clip0_2237_3726">
<rect width="6961" height="6632" fill="white"/>
</clipPath>
</defs>
</svg>
