<svg width="5810" height="5925" viewBox="0 0 5810 5925" fill="none" xmlns="http://www.w3.org/2000/svg">
<g id="walls" clip-path="url(#clip0_2237_3726)">
<rect id="exitDarkness" width="780" height="303" transform="matrix(1 0 0 -1 2381 5046)" fill="url(#paint0_linear_2237_3726)"/>
<g id="Group 127">
<g id="shadow">
<path id="shadow_2" fill-rule="evenodd" clip-rule="evenodd" d="M2438.44 -516.715L2221 -425.5L589.687 158.247C551.971 171.743 525.949 206.445 523.557 246.431L440.533 1634.86C439.527 1651.68 434.289 1667.97 425.303 1682.23L-212.983 2694.66C-226.489 2716.09 -231.364 2741.84 -226.623 2766.71L81.0893 4381.48C83.6686 4395.01 89.0171 4407.87 96.7993 4419.24L967.15 5690.88C982.103 5712.73 1005.11 5727.76 1031.12 5732.67L2718.19 6051.12C2723.06 6052.04 2727.98 6052.6 2732.93 6052.78L4330.57 6113.68C4344.7 6114.22 4358.78 6111.76 4371.88 6106.46L5717.6 5562.15C5744.53 5551.26 5765.39 5529.2 5774.76 5501.72L6230 4166.5L6492.36 2828C6494.44 2817.4 6494.79 2806.54 6493.39 2795.83L6259.91 1006.48C6255.59 973.372 6235.04 944.608 6205.12 929.796L5031 348.5L3645.7 -509.514C3629.88 -519.31 3611.64 -524.5 3593.04 -524.5H2477.13C2463.84 -524.5 2450.69 -521.853 2438.44 -516.715ZM3528.6 1175.56C3504.1 1170.37 3482.43 1156.19 3467.88 1135.79L3464.36 1130.86L3288.5 955L3323.46 933.359L3252.74 834.239C3247.93 827.496 3243.98 820.182 3240.97 812.464L3170.96 632.753C3165.13 617.804 3155.8 604.476 3143.74 593.894L3139.82 590.459C3112.74 566.692 3100.54 530.194 3107.88 494.918L3131.64 380.797C3145.33 315.031 3083.47 258.678 3019.26 278.424C3006.26 282.421 2994.36 289.366 2984.49 298.717L2888.65 389.513C2874.21 403.193 2864.18 420.868 2859.84 440.28L2839.76 530.046C2835.05 551.115 2823.64 570.093 2807.25 584.143L2794.71 594.893C2774.12 612.537 2761.59 637.783 2759.97 664.846L2757.61 704.309C2756.24 727.083 2747.13 748.706 2731.79 765.591L2670 833.586L2402.95 1092.95C2382.9 1112.42 2355.63 1122.62 2327.73 1121.07L1899.26 1097.24C1878.91 1096.11 1858.69 1101.22 1841.33 1111.9L1634.54 1239.07C1608.89 1254.84 1591.71 1281.33 1587.78 1311.18L1542.95 1651.2C1538.07 1688.24 1554.24 1724.92 1584.89 1746.29L1636.93 1782.58L1672.5 1750L1862.81 1940.31C1891.36 1962.87 1905.53 1999.33 1899.39 2035.5L1853.51 2305.64C1849.32 2330.31 1836.04 2352.52 1816.27 2367.87L1500.79 2612.95C1492.65 2619.28 1485.53 2626.83 1479.69 2635.33L1303.56 2891.93C1292.12 2908.58 1286 2928.31 1286 2948.52V3214.03C1286 3227.21 1283.39 3240.27 1278.33 3252.44L1169.86 3513.16C1157.97 3541.76 1159.99 3574.25 1175.34 3601.15L1264.87 3757.98C1278.37 3781.63 1300.93 3798.75 1327.34 3805.39L1510.85 3851.52L1465.5 3765L1540.5 3717.5L1738.78 3915.78C1746.08 3920.95 1752.71 3927.1 1758.45 3934.12L1882.52 4085.89C1900.05 4107.33 1907.9 4135.08 1904.21 4162.52L1852.27 4548.32C1848.89 4573.49 1855.2 4599.01 1869.95 4619.7L1977.09 4770.04C1995.86 4796.37 2026.2 4812 2058.53 4812H2381.26C2392.34 4812 2403.35 4813.84 2413.82 4817.45L2415.63 4818.07L2458.5 4712.5L2653 4897.5L2655.22 4907.2C2662.19 4912.92 2668.39 4919.59 2673.63 4927.06L2717.11 4989.05C2722.68 4996.97 2727.06 5005.67 2730.12 5014.85L2750.74 5076.73C2756.47 5093.92 2766.77 5109.23 2780.53 5121.02L2804.2 5141.31C2819.6 5154.52 2841.31 5157.48 2859.69 5148.89C2874.37 5142.03 2891.42 5142.46 2905.74 5150.04L2931.41 5163.63C2954.39 5175.79 2981.81 5176.19 3005.13 5164.68L3021.18 5156.77C3034.85 5150.02 3050.96 5150.38 3064.32 5157.73C3081.53 5167.19 3102.83 5164.87 3117.6 5151.91L3142.77 5129.83C3153.51 5120.4 3161.97 5108.65 3167.52 5095.48L3221.29 4967.66C3225.41 4957.89 3231.04 4948.84 3238 4940.84L3331.95 4832.76C3343.77 4819.17 3359.03 4809.02 3376.12 4803.39L3729.23 4687.01C3742.27 4682.72 3754.28 4675.78 3764.53 4666.64L4017.78 4440.58C4044.51 4416.72 4081.97 4408.98 4115.97 4420.31L4551.92 4565.49C4591.63 4578.72 4635.38 4565.81 4661.55 4533.15L4937.35 4188.95C4969.08 4149.35 4966.12 4092.27 4930.48 4056.17L4666.92 3789.17C4654.21 3776.3 4645.23 3760.22 4640.94 3742.65L4578.6 3487.36C4569.13 3448.6 4583.61 3407.92 4615.45 3383.86L4884.84 3180.26C4900.59 3168.35 4912.47 3152.05 4918.97 3133.4L5021.85 2838.24C5027.84 2821.07 5029.03 2802.6 5025.3 2784.81L4913.77 2252.78C4910.63 2237.79 4910.97 2222.29 4914.77 2207.46L5006.87 1847.73C5020.3 1795.27 4989.54 1741.65 4937.47 1726.78L4369.1 1564.39C4357.79 1561.15 4347.14 1555.95 4337.63 1549.02L3964.3 1276.62C3952.9 1268.3 3939.86 1262.49 3926.04 1259.57L3528.6 1175.56ZM2584.9 2513.06L2784.22 2710L3071.16 3042.81C3098.18 3074.14 3103.11 3118.87 3083.57 3155.34L2847.46 3595.97C2825.24 3637.43 2777.14 3657.8 2731.9 3644.91L2271.83 3513.74C2254.48 3508.8 2238.79 3499.25 2226.43 3486.12L2020.01 3266.85C2006.01 3251.97 1996.9 3233.16 1993.9 3212.95L1970.78 3056.81C1967.68 3035.81 1971.33 3014.38 1981.21 2995.6L2224.25 2533.64C2241.87 2500.15 2276.89 2479.47 2314.73 2480.22L2516.59 2484.21C2542.21 2484.72 2566.67 2495.04 2584.9 2513.06ZM4118.1 3010.38L4346.56 2780.29C4375.49 2751.15 4383.67 2707.29 4367.18 2669.68L4269.94 2447.87C4261.84 2429.39 4259.52 2408.89 4263.28 2389.06L4316.1 2110.99C4323.1 2074.16 4308.91 2036.51 4279.34 2013.46L4037.36 1824.82C4022.43 1813.18 4004.5 1806.02 3985.65 1804.17L3711.28 1777.22C3660.7 1772.25 3614.43 1806.02 3603.74 1855.72L3498.38 2345.71C3492.7 2372.11 3497.94 2399.68 3512.91 2422.15L3738.54 2761.05C3741.84 2766.01 3745.58 2770.66 3749.71 2774.95L3975.06 3009.25C4013.97 3049.7 4078.55 3050.22 4118.1 3010.38Z" fill="black" fill-opacity="0.15"/>
</g>
<path id="rock" d="M3328.6 975.555L3726.04 1059.57C3739.86 1062.49 3752.9 1068.3 3764.3 1076.62L4137.63 1349.02C4147.14 1355.95 4157.79 1361.15 4169.1 1364.39L4737.47 1526.78C4789.54 1541.65 4820.3 1595.27 4806.87 1647.73L4714.77 2007.46C4710.97 2022.29 4710.63 2037.79 4713.77 2052.78L4825.3 2584.81C4829.03 2602.6 4827.84 2621.07 4821.85 2638.24L4718.97 2933.4C4712.47 2952.05 4700.59 2968.35 4684.84 2980.26L4415.45 3183.86C4383.61 3207.92 4369.13 3248.6 4378.6 3287.36L4440.94 3542.65C4445.23 3560.22 4454.21 3576.3 4466.92 3589.17L4730.48 3856.17C4766.12 3892.27 4769.08 3949.35 4737.35 3988.95L4461.55 4333.15C4435.38 4365.81 4391.63 4378.72 4351.92 4365.49L3915.97 4220.31C3881.97 4208.98 3844.51 4216.72 3817.78 4240.58L3564.53 4466.64C3554.28 4475.78 3542.27 4482.72 3529.23 4487.01L3176.12 4603.39C3159.02 4609.02 3143.77 4619.17 3131.95 4632.76L3038 4740.84C3031.04 4748.84 3025.4 4757.89 3021.29 4767.66L2967.51 4895.48C2961.97 4908.65 2953.51 4920.4 2942.76 4929.83L2917.6 4951.91C2902.83 4964.87 2881.53 4967.19 2864.32 4957.73C2850.96 4950.38 2834.85 4950.02 2821.18 4956.77L2805.13 4964.68C2781.81 4976.19 2754.39 4975.79 2731.41 4963.63L2705.74 4950.04C2691.42 4942.46 2674.37 4942.03 2659.69 4948.89C2641.31 4957.48 2619.6 4954.52 2604.2 4941.31L2580.53 4921.02C2566.77 4909.23 2556.47 4893.92 2550.74 4876.73L2530.12 4814.85C2527.05 4805.67 2522.68 4796.97 2517.11 4789.05L2473.63 4727.06C2461.52 4709.8 2444.26 4696.8 2424.32 4689.94L2213.82 4617.45C2203.35 4613.84 2192.34 4612 2181.26 4612H1858.53C1826.2 4612 1795.86 4596.37 1777.09 4570.04L1669.95 4419.7C1655.2 4399.01 1648.89 4373.49 1652.27 4348.32L1704.21 3962.52C1707.9 3935.08 1700.05 3907.33 1682.52 3885.89L1558.45 3734.12C1544.84 3717.48 1526.25 3705.67 1505.41 3700.43L1127.34 3605.39C1100.93 3598.75 1078.37 3581.63 1064.87 3557.98L975.344 3401.15C959.99 3374.25 957.966 3341.76 969.862 3313.16L1078.33 3052.44C1083.39 3040.27 1086 3027.21 1086 3014.03V2748.52C1086 2728.31 1092.12 2708.58 1103.55 2691.93L1279.69 2435.33C1285.53 2426.83 1292.65 2419.28 1300.79 2412.95L1616.27 2167.87C1636.04 2152.52 1649.32 2130.31 1653.51 2105.64L1699.39 1835.5C1705.87 1797.35 1689.74 1758.87 1658 1736.74L1384.89 1546.29C1354.24 1524.92 1338.07 1488.24 1342.95 1451.2L1387.78 1111.18C1391.71 1081.33 1408.89 1054.84 1434.54 1039.07L1641.33 911.902C1658.69 901.223 1678.91 896.106 1699.26 897.238L2127.73 921.066C2155.63 922.617 2182.9 912.424 2202.95 892.955L2470 633.585L2533.23 564.011C2547.69 548.096 2556.64 527.942 2558.74 506.54L2567 422.5V-32.1029C2567 -86.8988 2522.9 -131.489 2468.11 -132.097L8.10896 -159.379C-47.5497 -159.996 -93 -115.047 -93 -59.3849L-93 5997.69C-93 6053.04 -48.0397 6097.86 7.30949 6097.69L5783.94 6079.81C5838.8 6079.64 5883.28 6035.3 5883.63 5980.44L5921.86 -19.8629C5922.21 -75.3392 5877.34 -120.5 5821.86 -120.5H3077C3021.77 -120.5 2977 -75.7285 2977 -20.5V387.396C2977 397.409 2978.5 407.364 2981.46 416.93L3040.74 608.674C3043.89 618.882 3048.66 628.519 3054.87 637.217L3267.88 935.794C3282.43 956.186 3304.1 970.375 3328.6 975.555Z" fill="#BB816E"/>
<path id="wall" d="M2219.13 2460H2488.4C2517.49 2460 2545.14 2472.67 2564.13 2494.7L2821.16 2792.81C2848.18 2824.14 2853.11 2868.87 2833.57 2905.34L2597.46 3345.97C2575.24 3387.43 2527.14 3407.8 2481.9 3394.91L2039.24 3268.71C2011.35 3260.75 1988.28 3241.08 1976.02 3214.8L1875.22 2998.61C1860.76 2967.6 1863.16 2931.34 1881.59 2902.51L2134.86 2506.15C2153.23 2477.4 2185 2460 2219.13 2460Z" fill="#BB816E"/>
<path id="wall_2" d="M3725.64 2748.62L3426.47 2389.84C3409.22 2369.16 3401.05 2342.4 3403.79 2315.61L3452.8 1837.07C3458.43 1782.09 3507.59 1742.11 3562.56 1747.79L3969.22 1789.81C4027.48 1795.83 4068.12 1850.4 4057.19 1907.94L4013.28 2139.06C4009.52 2158.89 4011.84 2179.39 4019.94 2197.88L4117.18 2419.68C4133.67 2457.29 4125.49 2501.15 4096.56 2530.29L3873.41 2755.04C3831.88 2796.86 3763.38 2793.88 3725.64 2748.62Z" fill="#BB816E"/>
<g id="inside">
<path d="M1749.22 673.688L1447.79 258.792C1402.43 196.366 1441.87 108.27 1518.64 100.519L2162.13 35.5542C2217.42 29.9723 2266.66 70.5384 2271.75 125.874L2305.92 496.755C2310.32 544.496 2280.22 588.641 2234.17 601.98L1857.95 710.961C1817.47 722.686 1773.99 707.78 1749.22 673.688Z" fill="#9A6A5A"/>
<path d="M3792.01 1956.57L3687.26 1941.21C3639.14 1934.15 3592.92 1962.74 3577.75 2008.95L3559.46 2064.64C3552.67 2085.31 3552.81 2107.64 3559.86 2128.23L3648.91 2388.29C3657.6 2413.69 3676.14 2434.53 3700.36 2446.11L3738.19 2464.21C3798.49 2493.05 3869.57 2455.76 3880.09 2389.75L3896.03 2289.83C3897.34 2281.64 3897.62 2273.32 3896.88 2265.07L3877.1 2046.5C3872.94 2000.46 3837.76 1963.27 3792.01 1956.57Z" fill="#9A6A5A"/>
<path d="M2116.77 2917.6L2215.48 2729.04C2240.36 2681.52 2298.29 2662.09 2346.79 2685L2468.43 2742.46C2491.59 2753.4 2509.67 2772.81 2518.94 2796.69L2553.18 2884.91C2567.38 2921.5 2558.86 2963.01 2531.4 2991.06L2417.11 3107.78C2386.19 3139.36 2338.2 3146.89 2299.09 3126.31L2158.8 3052.47C2110 3026.79 2091.2 2966.45 2116.77 2917.6Z" fill="#9A6A5A"/>
<path d="M1121.27 788.282L891.883 649.842C833.851 614.819 758.525 646.457 742.904 712.414L614.147 1256.1C601.979 1307.48 631.853 1359.46 682.371 1374.82L1010.6 1474.59C1072.48 1493.41 1135.68 1449.4 1139.5 1384.83L1169.43 879.812C1171.62 842.726 1153.08 807.478 1121.27 788.282Z" fill="#9A6A5A"/>
<path d="M1285.7 1883.68L1189.2 1775.64C1178.56 1763.72 1165.21 1754.53 1150.27 1748.83L718.861 1584.2C678.636 1568.85 633.102 1580.97 605.83 1614.29L453.523 1800.35C417.51 1844.34 425.372 1909.47 470.818 1943.63L857.253 2234.09C891.724 2260 938.922 2260.9 974.35 2236.31L1268.12 2032.45C1317.47 1998.2 1325.71 1928.49 1285.7 1883.68Z" fill="#9A6A5A"/>
<path d="M377.542 2239.16L717.459 2400.86C752.302 2417.44 774.5 2452.58 774.5 2491.17V3026.84C774.5 3048.06 767.749 3068.73 755.225 3085.86L596.055 3303.56C569.687 3339.63 522.595 3353.82 480.685 3338.35L86.7762 3192.86C38.0044 3174.85 11.172 3122.47 25.0501 3072.36L238.211 2302.77C254.8 2242.88 321.422 2212.46 377.542 2239.16Z" fill="#9A6A5A"/>
<path d="M1343.05 3909.72L1108.87 3847.72C1064.1 3835.87 1017.05 3856.31 995.156 3897.12L846.836 4173.64C812.733 4237.22 855.133 4314.89 927.056 4320.6L1269.47 4347.74C1321.23 4351.85 1367.53 4315.65 1376.03 4264.42L1416.11 4022.75C1424.55 3971.87 1392.91 3922.92 1343.05 3909.72Z" fill="#9A6A5A"/>
<path d="M735.554 3681.54L274.253 3525.07C194.721 3498.1 119.372 3575.24 148.214 3654.12L328.107 4146.08C354.524 4218.32 449.208 4234.93 498.641 4176L780.049 3840.51C825.252 3786.62 802.166 3704.13 735.554 3681.54Z" fill="#9A6A5A"/>
<path d="M2206.48 4853.5H1905.22C1879.41 4853.5 1854.6 4863.48 1835.98 4881.35L1563.37 5142.97C1506.24 5197.79 1532.46 5294.11 1609.49 5312.41L2098.89 5428.69C2128.93 5435.82 2160.58 5428.69 2184.65 5409.34L2403.7 5233.3C2444.06 5200.86 2452.98 5142.97 2424.26 5099.89L2289.69 4898.03C2271.14 4870.21 2239.92 4853.5 2206.48 4853.5Z" fill="#9A6A5A"/>
<path d="M1422.48 4578H1091H864.849C780.091 4578 733.767 4676.83 787.991 4741.98L1033.83 5037.31C1066.39 5076.43 1123.14 5084.85 1165.65 5056.87L1495.98 4839.51C1531.11 4816.39 1548.03 4773.76 1538.3 4732.85L1519.77 4654.88C1509.06 4609.81 1468.8 4578 1422.48 4578Z" fill="#9A6A5A"/>
<path d="M3069.09 5106H2857.51C2795.56 5106 2748.51 5161.75 2758.94 5222.82L2805.67 5496.66C2814.36 5547.57 2860.38 5583.49 2911.87 5579.55L3202.07 5557.35C3247.16 5553.9 3284.33 5520.62 3292.71 5476.18L3314.69 5359.65C3321.1 5325.67 3309.5 5290.78 3284.01 5267.41L3136.68 5132.3C3118.23 5115.38 3094.12 5106 3069.09 5106Z" fill="#9A6A5A"/>
<path d="M3501.13 4676.59L3328.02 4756.46C3275.69 4780.61 3254.55 4843.87 3281.84 4894.62L3372.51 5063.25C3387.03 5090.24 3413.12 5109.09 3443.31 5114.39L3677.22 5155.42C3738.42 5166.16 3794.5 5119.07 3794.5 5056.93V4857.78C3794.5 4822.57 3775.98 4789.95 3745.74 4771.91L3594.27 4681.52C3565.94 4664.61 3531.09 4662.76 3501.13 4676.59Z" fill="#9A6A5A"/>
<path d="M3819.6 4491.04L3853.6 4450.05C3880.29 4417.86 3924.19 4405.68 3963.65 4419.5L4340.38 4551.5C4384.57 4566.99 4412.1 4611.07 4406.63 4657.58L4387.72 4818.12C4379.07 4891.51 4296.56 4930.49 4234.38 4890.57L3842.56 4639.03C3792.03 4606.59 3781.28 4537.26 3819.6 4491.04Z" fill="#9A6A5A"/>
<path d="M4007.48 5361.01L3983.03 5231.45C3966.07 5141.6 4068.63 5077.99 4141.58 5133.12L4266.72 5227.69C4330.48 5275.87 4314.75 5375.69 4239.26 5401.93L4138.58 5436.92C4080.86 5456.97 4018.82 5421.04 4007.48 5361.01Z" fill="#9A6A5A"/>
<path d="M4681.18 4326.6L4868.24 4115.64C4901.35 4078.3 4956.93 4071.08 4998.47 4098.74L5318.7 4311.87C5356.81 4337.23 5372.83 4385.23 5357.59 4428.4L5262.38 4698.19C5247.15 4741.31 5204.62 4768.62 5159.07 4764.5L4746.99 4727.23C4695.46 4722.57 4656 4679.37 4656 4627.64V4392.95C4656 4368.5 4664.96 4344.9 4681.18 4326.6Z" fill="#9A6A5A"/>
<path d="M4646.17 3462.52L4622.93 3376.33C4608.79 3323.88 4639.1 3269.74 4691.21 3254.38L4973.79 3171.08C4995.91 3164.56 5019.61 3165.89 5040.87 3174.84L5356.75 3307.86C5417.39 3333.4 5437.27 3409.53 5396.85 3461.45L5182.4 3736.91C5150.3 3778.15 5091.85 3787.71 5048.27 3758.84L4687.5 3519.86C4667.2 3506.42 4652.5 3486.03 4646.17 3462.52Z" fill="#9A6A5A"/>
<path d="M4942.75 2774.96L4989.69 2553.42C5000.15 2504.05 5045.74 2470.22 5096.01 2474.51L5466.51 2506.1C5546.15 2512.89 5586.03 2605.76 5536.11 2668.19L5314.3 2945.59C5285.86 2981.16 5236.97 2993.02 5195.39 2974.43L4999.76 2886.98C4956.73 2867.74 4932.98 2821.07 4942.75 2774.96Z" fill="#9A6A5A"/>
<path d="M4942.63 2045.96L5043.88 1738.24C5057.38 1697.22 5095.68 1669.5 5138.87 1669.5H5441.38C5489.33 1669.5 5530.54 1703.54 5539.58 1750.64L5589.51 2010.64C5598.95 2059.81 5570.58 2108.38 5523.11 2124.31L5133.78 2254.93C5093.49 2268.45 5049.05 2255.01 5022.98 2221.44L4958.63 2138.53C4938.23 2112.25 4932.23 2077.56 4942.63 2045.96Z" fill="#9A6A5A"/>
<path d="M4286.94 1201.94L4071.33 993.759C4025.42 949.428 4032.22 874.017 4085.33 838.616L4624.97 478.855C4661.05 454.798 4708.53 456.744 4742.53 483.672L5105.01 770.793C5141.11 799.39 5153.01 848.947 5133.84 890.82L5005.23 1171.64C4988.94 1207.2 4953.42 1230 4914.31 1230H4356.4C4330.48 1230 4305.58 1219.94 4286.94 1201.94Z" fill="#9A6A5A"/>
<path d="M3494.28 632.746L3302.62 204.593C3272.37 137.006 3323.5 61.1265 3397.5 63.8012L4060.31 87.7581C4151.3 91.0466 4190.91 204.311 4121.81 263.591L3650.66 667.787C3599.92 711.314 3521.59 693.761 3494.28 632.746Z" fill="#9A6A5A"/>
<path d="M1469.42 578.768L1277.84 101.261C1254.21 42.3509 1182.38 20.0821 1129.56 55.2916L796.599 277.268C732.33 320.113 738.834 416.545 808.274 450.372L1332.81 705.903C1415.07 745.973 1503.49 663.684 1469.42 578.768Z" fill="#9A6A5A"/>
<path d="M360.26 1034.4L166.347 904.948C132.821 882.567 116.011 842.246 123.71 802.679L206.673 376.301C223.925 287.638 340.577 265.474 389.146 341.631L569.272 624.078C584.096 647.321 588.666 675.653 581.903 702.378L512.727 975.76C495.786 1042.71 417.696 1072.74 360.26 1034.4Z" fill="#9A6A5A"/>
<path d="M161.269 1546.58L192.661 1376.15C207.325 1296.53 305.574 1266.43 362.322 1324.16L440.063 1403.25C480.984 1444.88 477.696 1512.56 432.933 1550.03L323.8 1641.38C251.965 1701.51 144.299 1638.71 161.269 1546.58Z" fill="#9A6A5A"/>
<path d="M756.904 5179.12L345.468 4954.25C284.941 4921.17 209.887 4957.86 198.807 5025.94L94.1264 5669.19C84.6676 5727.31 127.229 5780.98 185.978 5785.02L463.99 5804.1C502.994 5806.78 539.982 5786.48 558.673 5752.15L796.778 5314.68C823.148 5266.23 805.307 5205.58 756.904 5179.12Z" fill="#9A6A5A"/>
<path d="M988.487 5633.47L1134.73 5404.49C1163.24 5359.86 1221.6 5345.19 1267.82 5371.04L1739.7 5634.94C1832.28 5686.71 1791.15 5828.04 1685.25 5822.05L1067.13 5787.14C990.784 5782.83 947.33 5697.91 988.487 5633.47Z" fill="#9A6A5A"/>
<path d="M4672.42 5581.13L4740.02 5153.31C4744.75 5123.4 4762.78 5097.24 4789.06 5082.17L4997.96 4962.39C5024.79 4947.01 5057.24 4944.91 5085.84 4956.7L5484.67 5121.25C5523.58 5137.31 5548.28 5176.01 5546.44 5218.06L5526.65 5671.12C5524.13 5728.76 5473.49 5772.32 5416.12 5766.19L4760.57 5696.17C4703.69 5690.09 4663.49 5637.63 4672.42 5581.13Z" fill="#9A6A5A"/>
<path d="M5392.76 3929.59L5454.78 3833.99C5500.23 3763.92 5606.48 3777.16 5633.35 3856.24L5680.31 3994.42C5707.68 4074.93 5628.44 4150.69 5549.23 4119.74L5440.26 4077.15C5381.27 4054.1 5358.3 3982.72 5392.76 3929.59Z" fill="#9A6A5A"/>
<path d="M5247.45 492.533L4849.85 193.022C4773.84 135.769 4813.21 14.7444 4908.35 13.1618L5470 3.81922C5546.14 2.5527 5595.7 83.4606 5559.98 150.713L5395.94 459.567C5367.1 513.862 5296.56 529.523 5247.45 492.533Z" fill="#9A6A5A"/>
<path d="M3467.2 5662.41L3509.33 5449.91C3517.03 5411.06 3546.93 5380.42 3585.58 5371.77L3716.21 5342.53C3761.95 5332.29 3808.67 5355.19 3828.58 5397.63L3936.59 5627.8C3966.95 5692.51 3921.59 5767.25 3850.18 5770.2L3569.41 5781.77C3504.74 5784.43 3454.61 5725.9 3467.2 5662.41Z" fill="#9A6A5A"/>
<path d="M2348.5 5678.94V5584.59C2348.5 5554.48 2362.06 5525.98 2385.43 5506.99L2474.99 5434.19C2525.82 5392.88 2601.99 5410.78 2629.1 5470.41L2706.96 5641.7C2737.5 5708.89 2687.23 5784.88 2613.45 5783.05L2446.03 5778.91C2391.78 5777.57 2348.5 5733.21 2348.5 5678.94Z" fill="#9A6A5A"/>
<path d="M5304.95 1257.15L5337.92 923.245C5339.92 902.904 5348.12 883.668 5361.39 868.126L5520.89 681.379C5572.2 621.302 5669.63 641.654 5692.61 717.247L5793.32 1048.63C5799.6 1069.32 5799.01 1091.49 5791.64 1111.81L5690.34 1391.07C5670.29 1446.35 5607.1 1472.47 5553.87 1447.51L5362 1357.52C5323.64 1339.53 5300.78 1299.32 5304.95 1257.15Z" fill="#9A6A5A"/>
</g>
</g>
</g>
<defs>
<linearGradient id="paint0_linear_2237_3726" x1="390" y1="0" x2="390" y2="303" gradientUnits="userSpaceOnUse">
<stop stop-color="#0E2736"/>
<stop offset="0.535416" stop-color="#0E2736" stop-opacity="0.76"/>
<stop offset="1" stop-color="#0E2736" stop-opacity="0"/>
</linearGradient>
<clipPath id="clip0_2237_3726">
<rect width="5810" height="5925" fill="white"/>
</clipPath>
</defs>
</svg>
