<svg width="16000" height="16000" viewBox="0 0 16000 16000" fill="none" xmlns="http://www.w3.org/2000/svg">
<g clip-path="url(#clip0_1347_44941)">
<g opacity="0.5">
<path d="M2736 821C3210.5 821 3128.5 1376.5 3653.5 1342C4178.5 1307.5 4217.5 1655.5 4217.5 1788.5C4217.5 1921.5 4103 2175.53 3841 2248.46C3492.5 2345.46 3451.6 2614.03 3653.5 2872C3707.5 2941 3975.5 3102.29 4519 3164C4884.5 3205.5 5012 3479.5 5517 4013.5C6022 4547.5 6614 4125.5 6663 3766C6712 3406.5 7095 2892.5 7663 2941C8231 2989.5 8541.5 3494.5 8410.5 4052.5C8279.5 4610.5 8699 5006.5 9342.5 5076C9986 5145.5 10154 6216.5 9193.5 6216.5C8425.1 6216.5 8259.5 6779 8231 7004C8202.5 7229 8231 7324.04 8231 7523.5C8231 7722.96 8231 8255.5 8231 8469M2742 821C2267.5 821 1884.6 859.021 1659 1426C1431 1999 2045 2168.5 1725 2722.5C1442.41 3211.74 867.784 2989.48 728.5 3607.5C637 4013.5 916.571 4223.63 1292.5 4263C1684 4304 2108.19 4677.63 1781 5173C1603 5442.5 1781 5925.5 2218 5829C2747.97 5711.97 3098.97 5887.48 3026.5 6641C2992.5 6994.5 3554 7565 4028.5 7179C4477.84 6813.47 4376.5 6474 4232 6216.5C3921.68 5663.52 4856 5096.58 5236 5510.58C5616 5924.58 6104 5399 6350 5891C6596 6383 6101 7063.38 6608 7307C7115 7550.62 6897 7179 8056.5 7179" stroke="#53656A" stroke-width="500"/>
</g>
<rect x="8196" y="7838" width="135" height="70" transform="rotate(-90 8196 7838)" fill="#BF3232"/>
<path d="M7632.66 6047.63L7412.51 6584.39L7820.06 6734.64L8038.99 6194.57L7632.66 6047.63Z" fill="#D1C9C3"/>
<path d="M8591.88 5328.64L8013.31 5693.75L8302.09 6116.81L8881.75 5747.69L8591.88 5328.64Z" fill="#D1C9C3"/>
<rect x="9104" y="6581.49" width="692.693" height="502.745" transform="rotate(-6.83962 9104 6581.49)" fill="#D1C9C3"/>
</g>
<defs>
<clipPath id="clip0_1347_44941">
<rect width="16000" height="16000" fill="white"/>
</clipPath>
</defs>
</svg>
