<svg width="13918" height="15768" viewBox="0 0 13918 15768" fill="none" xmlns="http://www.w3.org/2000/svg">
<g clip-path="url(#clip0_1322_36024)">
<g opacity="0.01">
<path d="M10400.5 15768.5C10400.5 15696.5 10400.5 15736 10400.5 15637C10400.5 15111.5 10103.5 14530.4 9609.5 14431.5C9115.5 14332.6 8978.93 14027.5 9074 13732.5C9169.07 13437.5 9585.5 13550 9827.5 13320C10069.5 13090 9672.5 12594 10507 12272.5C11161.8 12020.2 11061.5 11472.5 10685 11376.5C10457.4 11318.5 10251.8 11432.9 10027 11461.5C9879.87 11480.2 9724.54 11462.2 9549.5 11335C9107 11013.5 8783 11787 8372.5 11547.5C7962 11308 8359 10665 7928 10377.5C7497 10090 7083 10436 7001 9984.5C6919 9533 7147.5 9073 6568 8896.5C5988.5 8720 6023.24 7905.89 6653.5 7773C7298.5 7637 7559 8535 8129 8207.5C8699 7880 8054.5 7294 8225.5 6822.5C8396.5 6351 8937 6439 9087.5 6170C9238 5901 9088.5 5753.5 8835.5 5570.5C8582.5 5387.5 8237 5374.5 7905 5249.96C7573 5125.43 7535.52 4572.7 8191.5 4404.5C8425.5 4344.5 8736.31 4021.5 8542.5 3625.5C8348.69 3229.5 7660 3208.5 7082 3661C6504 4113.5 6067.5 3453.5 6558.5 2952C7049.5 2450.5 6535 2006 6008 2265C5481 2524 5119.5 2512 5011.5 2104.5C4903.5 1697 4562 1368.5 4147 1515.5C3552.53 1726.07 3409.5 1077.27 3810 812.202C4210.5 547.136 4322.5 616.5 4322.5 177.5C4322.5 -261.5 4322.5 48.9999 4322.5 -0.000133514" stroke="#FA5F3D" stroke-width="550"/>
</g>
<g opacity="0.5">
<path d="M10400.5 15767.5C10400.5 15695.5 10400.5 15735 10400.5 15636C10400.5 15110.5 10103.5 14529.4 9609.5 14430.5C9115.5 14331.6 8978.93 14026.5 9074 13731.5C9169.07 13436.5 9585.5 13549 9827.5 13319C10069.5 13089 9672.5 12593 10507 12271.5C11161.8 12019.2 11061.5 11471.5 10685 11375.5C10457.4 11317.5 10251.8 11431.9 10027 11460.5C9879.87 11479.2 9724.54 11461.2 9549.5 11334C9107 11012.5 8783 11786 8372.5 11546.5C7962 11307 8359 10664 7928 10376.5C7497 10089 7083 10435 7001 9983.5C6919 9532 7147.5 9072 6568 8895.5C5988.5 8719 6023.24 7904.89 6653.5 7772C7298.5 7636 7559 8534 8129 8206.5C8699 7879 8054.5 7293 8225.5 6821.5C8396.5 6350 8937 6438 9087.5 6169C9238 5900 9088.5 5752.5 8835.5 5569.5C8582.5 5386.5 8237 5373.5 7905 5248.96C7573 5124.43 7535.52 4571.7 8191.5 4403.5C8425.5 4343.5 8736.31 4020.5 8542.5 3624.5C8348.69 3228.5 7660 3207.5 7082 3660C6504 4112.5 6067.5 3452.5 6558.5 2951C7049.5 2449.5 6535 2005 6008 2264C5481 2523 5119.5 2511 5011.5 2103.5C4903.5 1696 4562 1367.5 4147 1514.5C3552.53 1725.07 3409.5 1076.27 3810 811.202C4210.5 546.136 4322.5 615.5 4322.5 176.5C4322.5 -262.5 4322.5 47.9999 4322.5 -1.00013" stroke="#53656A" stroke-width="500"/>
</g>
<path d="M8346 6606.5C8322.4 6626.5 8255.5 6768.5 8225 6837C8054 7308.5 8698.5 7894.5 8128.5 8222C7558.5 8549.5 7298 7651.5 6653 7787.5C6022.74 7920.39 5988 8734.5 6567.5 8911C6620.5 8929.33 6739.3 8972.4 6790.5 8998" stroke="#8C432B" stroke-width="510"/>
<path opacity="0.3" d="M9850 14500C9804 14483.2 9667.17 14448.7 9604.5 14433.5C9110.5 14334.6 8973.93 14029.5 9069 13734.5C9164.07 13439.5 9580.5 13552 9822.5 13322C10064.5 13092 9667.5 12596 10502 12274.5C11156.8 12022.2 11056.5 11474.5 10680 11378.5C10452.4 11320.5 10246.8 11434.9 10022 11463.5C9948.83 11470.7 9797.8 11485 9779 11485" stroke="#8C432B" stroke-width="510"/>
<path d="M6032.55 14720.4L5943.4 14606L5798.42 14619.5L5748.47 14715.4L5751.52 14846.1L5882.76 14896.9L5971.74 14864.1L6033.31 14772.3L6032.55 14720.4Z" fill="#D1C9C3"/>
<path d="M5123.55 12161.3L5034.4 12047L4889.42 12060.5L4839.47 12156.3L4842.52 12287L4973.76 12337.9L5062.74 12305L5124.31 12213.2L5123.55 12161.3Z" fill="#D1C9C3"/>
<path d="M9796.55 9242.36L9707.4 9127.99L9562.42 9141.49L9512.47 9237.31L9515.52 9368.02L9646.76 9418.86L9735.74 9386L9797.31 9294.2L9796.55 9242.36Z" fill="#D1C9C3"/>
<path d="M6048.55 7479.35L5959.4 7364.99L5814.42 7378.48L5764.47 7474.3L5767.52 7605.02L5898.76 7655.86L5987.74 7622.99L6049.31 7531.19L6048.55 7479.35Z" fill="#D1C9C3"/>
<path d="M7255.55 5627.34L7166.4 5512.98L7021.42 5526.47L6971.47 5622.29L6974.52 5753.01L7105.76 5803.85L7194.74 5770.98L7256.31 5679.18L7255.55 5627.34Z" fill="#D1C9C3"/>
<path d="M10188.5 4849.34L10099.4 4734.97L9954.42 4748.47L9904.47 4844.29L9907.52 4975L10038.8 5025.85L10127.7 4992.98L10189.3 4901.18L10188.5 4849.34Z" fill="#D1C9C3"/>
<path d="M4839.55 2865.34L4750.4 2750.98L4605.42 2764.47L4555.47 2860.29L4558.52 2991.01L4689.76 3041.85L4778.74 3008.98L4840.31 2917.18L4839.55 2865.34Z" fill="#D1C9C3"/>
<path d="M7684.55 2081.35L7595.4 1966.98L7450.42 1980.48L7400.47 2076.3L7403.52 2207.01L7534.76 2257.86L7623.74 2224.99L7685.31 2133.19L7684.55 2081.35Z" fill="#D1C9C3"/>
<path d="M8313.55 398.35L8224.4 283.986L8079.42 297.48L8029.47 393.3L8032.52 524.016L8163.76 574.859L8252.74 541.993L8314.31 450.193L8313.55 398.35Z" fill="#D1C9C3"/>
<path d="M5046.55 614.35L4957.4 499.985L4812.42 513.479L4762.47 609.299L4765.52 740.015L4896.76 790.859L4985.74 757.992L5047.31 666.193L5046.55 614.35Z" fill="#D1C9C3"/>
<path d="M4010.55 266.35L3921.4 151.986L3776.42 165.48L3726.47 261.3L3729.52 392.016L3860.76 442.859L3949.74 409.993L4011.31 318.193L4010.55 266.35Z" fill="#D1C9C3"/>
<path d="M1663.69 1589L1734.53 1462.47L1665.86 1334.08L1558.17 1325.2L1438.87 1378.7L1442.9 1519.39L1507.7 1588.66L1616.2 1609.81L1663.69 1589Z" fill="#D1C9C3"/>
<path d="M3648.64 4596.19L3719.48 4469.66L3650.82 4341.26L3543.13 4332.39L3423.82 4385.89L3427.86 4526.58L3492.66 4595.84L3601.15 4616.99L3648.64 4596.19Z" fill="#D1C9C3"/>
<path d="M5330.64 3990.19L5401.48 3863.66L5332.82 3735.26L5225.13 3726.39L5105.82 3779.89L5109.86 3920.58L5174.66 3989.84L5283.15 4010.99L5330.64 3990.19Z" fill="#D1C9C3"/>
<path d="M7137.64 6123.19L7208.48 5996.66L7139.82 5868.26L7032.13 5859.39L6912.82 5912.89L6916.86 6053.58L6981.66 6122.84L7090.15 6143.99L7137.64 6123.19Z" fill="#D1C9C3"/>
<path d="M7990.15 9817.27L8126.27 9867.25L8242.22 9779.18L8233.99 9671.44L8162.33 9562.08L8024.04 9588.26L7965.87 9663.18L7962.11 9773.66L7990.15 9817.27Z" fill="#D1C9C3"/>
<path d="M7781.15 12663.3L7917.27 12713.2L8033.22 12625.2L8024.99 12517.4L7953.33 12408.1L7815.04 12434.3L7756.87 12509.2L7753.11 12619.7L7781.15 12663.3Z" fill="#D1C9C3"/>
<path d="M5564.15 12649.3L5700.27 12699.3L5816.22 12611.2L5807.99 12503.4L5736.33 12394.1L5598.04 12420.3L5539.87 12495.2L5536.11 12605.7L5564.15 12649.3Z" fill="#D1C9C3"/>
<path d="M10686.1 10690.3L10822.3 10740.3L10938.2 10652.2L10930 10544.4L10858.3 10435.1L10720 10461.3L10661.9 10536.2L10658.1 10646.7L10686.1 10690.3Z" fill="#D1C9C3"/>
<path d="M10664.1 13471.3L10800.3 13521.2L10916.2 13433.2L10908 13325.4L10836.3 13216.1L10698 13242.3L10639.9 13317.2L10636.1 13427.7L10664.1 13471.3Z" fill="#D1C9C3"/>
<path d="M7682.15 14692.3L7818.27 14742.3L7934.22 14654.2L7925.99 14546.4L7854.33 14437.1L7716.04 14463.3L7657.87 14538.2L7654.11 14648.7L7682.15 14692.3Z" fill="#D1C9C3"/>
<path d="M6560.34 13386.1L6650.83 13272.8L6603.98 13134.9L6499.17 13108.7L6372.75 13142L6353.83 13281.5L6406.49 13360.4L6510.09 13398.9L6560.34 13386.1Z" fill="#D1C9C3"/>
<path d="M11239.3 15264.1L11329.8 15150.8L11283 15012.9L11178.2 14986.7L11051.8 15020L11032.8 15159.5L11085.5 15238.4L11189.1 15276.9L11239.3 15264.1Z" fill="#D1C9C3"/>
<path d="M10986.1 15498.9L10892.4 15388.3L10748.1 15407.6L10702 15505.4L10710.3 15635.9L10843.5 15681.4L10931.1 15644.9L10988.9 15550.7L10986.1 15498.9Z" fill="#D1C9C3"/>
<path d="M633.193 13772.6L528.127 13766.9L481.298 13863.8L588.034 13931L688.103 13904.2L688.554 13829.1L633.193 13772.6Z" fill="#D1C9C3"/>
<path d="M9786.19 14859.5L9681.13 14853.8L9634.3 14950.8L9741.03 15018L9841.1 14991.2L9841.55 14916.1L9786.19 14859.5Z" fill="#D1C9C3"/>
<path d="M9086.65 12811.2L9103.91 12707.4L9012.72 12650.2L8934.11 12748.8L8949.7 12851.2L9024.3 12860L9086.65 12811.2Z" fill="#D1C9C3"/>
<path d="M7855.65 12881.2L7872.91 12777.4L7781.72 12720.2L7703.11 12818.8L7718.71 12921.2L7793.31 12930L7855.65 12881.2Z" fill="#D1C9C3"/>
<path d="M7399.28 11534.4L7504.48 11536.7L7548.09 11438.2L7439.19 11374.5L7340.06 11404.6L7342.09 11479.7L7399.28 11534.4Z" fill="#D1C9C3"/>
<path d="M8851.08 6948.58L8956.28 6950.8L8999.89 6852.35L8890.99 6788.68L8791.86 6818.78L8793.89 6893.86L8851.08 6948.58Z" fill="#D1C9C3"/>
<path d="M5014.08 4203.6L5119.28 4205.82L5162.89 4107.37L5053.99 4043.7L4954.86 4073.79L4956.89 4148.88L5014.08 4203.6Z" fill="#D1C9C3"/>
<path d="M7801.08 1933.6L7906.28 1935.82L7949.89 1837.37L7840.99 1773.7L7741.86 1803.79L7743.89 1878.87L7801.08 1933.6Z" fill="#D1C9C3"/>
<path d="M1961.08 1626.6L2066.28 1628.82L2109.89 1530.37L2000.99 1466.7L1901.86 1496.79L1903.89 1571.88L1961.08 1626.6Z" fill="#D1C9C3"/>
<path d="M1836.08 2172.6L1941.28 2174.82L1984.89 2076.37L1875.99 2012.7L1776.86 2042.79L1778.89 2117.88L1836.08 2172.6Z" fill="#D1C9C3"/>
<path d="M2137.53 1782.48L2164.76 1884.11L2271.47 1898.51L2302.22 1776.17L2245.65 1689.38L2174.12 1712.28L2137.53 1782.48Z" fill="#D1C9C3"/>
<path d="M4736.53 3836.48L4763.76 3938.11L4870.47 3952.51L4901.22 3830.17L4844.65 3743.38L4773.12 3766.28L4736.53 3836.48Z" fill="#D1C9C3"/>
<path d="M7278.53 6021.48L7305.76 6123.11L7412.47 6137.51L7443.22 6015.17L7386.65 5928.38L7315.12 5951.28L7278.53 6021.48Z" fill="#D1C9C3"/>
<path d="M6895.02 5354.43L6829.89 5437.08L6882.23 5531.17L6998.64 5482.58L7034.31 5385.32L6973.15 5341.72L6895.02 5354.43Z" fill="#D1C9C3"/>
<path d="M5859.02 7701.43L5793.89 7784.08L5846.23 7878.17L5962.64 7829.58L5998.31 7732.32L5937.15 7688.72L5859.02 7701.43Z" fill="#D1C9C3"/>
<path d="M7817.55 9877.11L7734.99 9811.87L7640.82 9864.07L7689.25 9980.55L7786.46 10016.4L7830.14 9955.26L7817.55 9877.11Z" fill="#D1C9C3"/>
<path d="M8536.2 11853.6L8431.84 11867L8403.35 11970.8L8520.5 12017.6L8614.06 11973.1L8600.9 11899.2L8536.2 11853.6Z" fill="#D1C9C3"/>
<path d="M8111.23 12360.2L8124.05 12464.7L8227.71 12493.8L8275.19 12376.9L8231.25 12283.1L8157.23 12295.8L8111.23 12360.2Z" fill="#D1C9C3"/>
<path d="M7737.97 14889.2L7843.17 14887.3L7882.83 14787.2L7771.48 14727.9L7673.63 14761.9L7678.64 14836.8L7737.97 14889.2Z" fill="#D1C9C3"/>
<path d="M11396.2 15368.8L11501.4 15366.8L11541 15266.7L11429.7 15207.4L11331.8 15241.5L11336.8 15316.4L11396.2 15368.8Z" fill="#D1C9C3"/>
<path d="M10389.2 11926.4L10450.4 11948.1L10521 11900.8L10546.2 11826.8L10469.5 11726.6L10364.4 11734.1L10303 11831.3L10389.2 11926.4Z" fill="#D1C9C3"/>
<path d="M7880.25 12299.4L7890.67 12363.6L7966.08 12402.7L8043.09 12389.2L8094.09 12273.8L8036.96 12185.2L7922.2 12178.2L7880.25 12299.4Z" fill="#D1C9C3"/>
<path d="M9192.25 8575.4L9202.67 8639.57L9278.08 8678.71L9355.09 8665.18L9406.09 8549.8L9348.96 8461.25L9234.2 8454.18L9192.25 8575.4Z" fill="#D1C9C3"/>
<path d="M6099.25 7528.41L6109.67 7592.59L6185.08 7631.73L6262.09 7618.2L6313.09 7502.82L6255.96 7414.27L6141.2 7407.19L6099.25 7528.41Z" fill="#D1C9C3"/>
<path d="M6632.23 6071.5L6610.59 6132.81L6657.98 6203.32L6732.04 6228.39L6832.13 6151.61L6824.49 6046.51L6727.18 5985.26L6632.23 6071.5Z" fill="#D1C9C3"/>
<path d="M5216.28 3540.28L5194.64 3601.59L5242.03 3672.1L5316.09 3697.17L5416.18 3620.4L5408.54 3515.29L5311.23 3454.04L5216.28 3540.28Z" fill="#D1C9C3"/>
<path d="M4970.28 805.277L4948.64 866.588L4996.03 937.102L5070.09 962.171L5170.18 885.396L5162.54 780.294L5065.23 719.039L4970.28 805.277Z" fill="#D1C9C3"/>
<path d="M3066.67 964.995L3088.69 1026.17L3170 1050.82L3243.22 1023.4L3272.19 900.621L3199.79 824.045L3085.68 838.142L3066.67 964.995Z" fill="#D1C9C3"/>
<path d="M3840.59 1905.34L3775.98 1912.59L3733.17 1985.98L3742.89 2063.56L3855.61 2120.18L3946.88 2067.49L3959.59 1953.21L3840.59 1905.34Z" fill="#D1C9C3"/>
<path d="M9170.64 2294.93L9128.11 2245.75L9043.38 2251.97L8984.91 2303.88L9001.99 2428.86L9097.07 2474.3L9198.5 2420.14L9170.64 2294.93Z" fill="#D1C9C3"/>
<path d="M4907.8 4915.56L4865.27 4866.38L4780.54 4872.6L4722.06 4924.51L4739.15 5049.49L4834.23 5094.93L4935.65 5040.77L4907.8 4915.56Z" fill="#D1C9C3"/>
<path d="M5161.5 5032.52L5203.98 4983.3L5185.52 4900.37L5125.68 4850.06L5004.5 4885.11L4973.35 4985.78L5041.67 5078.26L5161.5 5032.52Z" fill="#D1C9C3"/>
<path d="M8169.01 10190.8L8232.91 10178.8L8270.18 10102.5L8254.77 10025.8L8138.17 9977.69L8051.05 10037L8046.8 10151.9L8169.01 10190.8Z" fill="#D1C9C3"/>
<path d="M5396.01 12598.8L5459.91 12586.8L5497.18 12510.5L5481.77 12433.8L5365.17 12385.7L5278.05 12445L5273.8 12559.9L5396.01 12598.8Z" fill="#D1C9C3"/>
<path d="M9962.01 15674.8L10025.9 15662.8L10063.2 15586.5L10047.8 15509.8L9931.17 15461.7L9844.05 15521L9839.8 15635.9L9962.01 15674.8Z" fill="#D1C9C3"/>
<rect x="9270" y="12240" width="269" height="266" fill="#46A325"/>
<rect x="7656" y="12235" width="269" height="266" fill="#46A325"/>
<rect x="8569" y="11970" width="269" height="266" fill="#46A325"/>
<rect x="7522" y="11025" width="269" height="266" fill="#46A325"/>
<rect x="6858" y="11158" width="269" height="266" fill="#46A325"/>
<rect x="6885" y="10383" width="269" height="266" fill="#46A325"/>
<rect x="5516" y="10954" width="269" height="266" fill="#46A325"/>
<rect x="6493" y="12505" width="269" height="266" fill="#46A325"/>
<rect x="7778" y="13004" width="269" height="266" fill="#46A325"/>
<rect x="6784" y="13970" width="269" height="266" fill="#46A325"/>
<rect x="6294" y="13269" width="269" height="266" fill="#46A325"/>
<rect x="7790" y="13766" width="269" height="266" fill="#46A325"/>
<rect x="7380" y="13397" width="269" height="266" fill="#46A325"/>
<rect x="8638" y="14409" width="269" height="266" fill="#46A325"/>
<rect x="9854" y="15163" width="269" height="266" fill="#46A325"/>
<rect x="8946" y="15224" width="269" height="266" fill="#46A325"/>
<rect x="7011" y="14857" width="269" height="266" fill="#46A325"/>
<rect x="8240" y="13525" width="269" height="266" fill="#46A325"/>
<rect x="8626" y="12740" width="269" height="266" fill="#46A325"/>
<rect x="9914" y="13690" width="269" height="266" fill="#46A325"/>
<rect x="9464" y="13685" width="269" height="266" fill="#46A325"/>
<rect x="10182" y="14145" width="269" height="266" fill="#46A325"/>
<rect x="11074" y="15357" width="269" height="266" fill="#46A325"/>
<rect x="10920" y="14098" width="269" height="266" fill="#46A325"/>
<rect x="11268" y="12934" width="269" height="266" fill="#46A325"/>
<rect x="10450" y="12935" width="269" height="266" fill="#46A325"/>
<rect x="10652" y="13486" width="269" height="266" fill="#46A325"/>
<rect x="11738" y="11965" width="269" height="266" fill="#46A325"/>
<rect x="12651" y="13662" width="269" height="266" fill="#46A325"/>
<rect x="12072" y="14822" width="269" height="266" fill="#46A325"/>
<rect x="11860" y="13458" width="269" height="266" fill="#46A325"/>
<rect x="11328" y="12236" width="269" height="266" fill="#46A325"/>
<rect x="12206" y="11535" width="269" height="266" fill="#46A325"/>
<rect x="11536" y="10516" width="269" height="266" fill="#46A325"/>
<rect x="12275" y="10252" width="269" height="266" fill="#46A325"/>
<rect x="11786" y="11026" width="269" height="266" fill="#46A325"/>
<rect x="10572" y="10246" width="269" height="266" fill="#46A325"/>
<rect x="9322" y="10446" width="269" height="266" fill="#46A325"/>
<rect x="9849" y="10953" width="269" height="266" fill="#46A325"/>
<rect x="8798" y="10374" width="269" height="266" fill="#46A325"/>
<rect x="8439" y="11081" width="269" height="266" fill="#46A325"/>
<rect x="7656" y="9531" width="269" height="266" fill="#46A325"/>
<rect x="8427" y="9090" width="269" height="266" fill="#46A325"/>
<rect x="8569" y="9981" width="269" height="266" fill="#46A325"/>
<rect x="7457" y="8886" width="269" height="266" fill="#46A325"/>
<rect x="5928" y="10109" width="269" height="266" fill="#46A325"/>
<rect x="6225" y="10781" width="269" height="266" fill="#46A325"/>
<rect x="5660" y="9151" width="269" height="266" fill="#46A325"/>
<rect x="4774" y="9777" width="269" height="266" fill="#46A325"/>
<rect x="4997" y="8211" width="269" height="266" fill="#46A325"/>
<rect x="8930" y="8339" width="269" height="266" fill="#46A325"/>
<rect x="9837" y="9284" width="269" height="266" fill="#46A325"/>
<rect x="9918" y="8533" width="269" height="266" fill="#46A325"/>
<rect x="9002" y="9417" width="269" height="266" fill="#46A325"/>
<rect x="4709" y="10822" width="269" height="266" fill="#46A325"/>
<rect x="6184" y="11960" width="269" height="266" fill="#46A325"/>
<rect x="3936" y="9212" width="269" height="266" fill="#46A325"/>
<rect x="4644" y="7376" width="269" height="266" fill="#46A325"/>
<rect x="6724" y="6834" width="269" height="266" fill="#46A325"/>
<rect x="7716" y="7676" width="269" height="266" fill="#46A325"/>
<rect x="5928" y="6763" width="269" height="266" fill="#46A325"/>
<rect x="5392" y="6101" width="269" height="266" fill="#46A325"/>
<rect x="3862" y="7028" width="269" height="266" fill="#46A325"/>
<rect x="5244" y="6626" width="269" height="266" fill="#46A325"/>
<rect x="3594" y="8007" width="269" height="266" fill="#46A325"/>
<rect x="5131" y="7539" width="269" height="266" fill="#46A325"/>
<rect x="6877" y="6059" width="269" height="266" fill="#46A325"/>
<rect x="7526" y="6702" width="269" height="266" fill="#46A325"/>
<rect x="8526" y="5794" width="269" height="266" fill="#46A325"/>
<rect x="5957" y="5393" width="269" height="266" fill="#46A325"/>
<rect x="6054" y="6187" width="269" height="266" fill="#46A325"/>
<rect x="7778" y="3728" width="269" height="266" fill="#46A325"/>
<rect x="6440" y="5129" width="269" height="266" fill="#46A325"/>
<rect x="7189" y="5722" width="269" height="266" fill="#46A325"/>
<rect x="8794" y="4518" width="269" height="266" fill="#46A325"/>
<rect x="10706" y="6896" width="269" height="266" fill="#46A325"/>
<rect x="9638" y="7751" width="269" height="266" fill="#46A325"/>
<rect x="11060" y="9008" width="269" height="266" fill="#46A325"/>
<rect x="11872" y="9905" width="269" height="266" fill="#46A325"/>
<rect x="12474" y="8405" width="269" height="266" fill="#46A325"/>
<rect x="11320" y="8068" width="269" height="266" fill="#46A325"/>
<rect x="12076" y="6554" width="269" height="266" fill="#46A325"/>
<rect x="10560" y="5661" width="269" height="266" fill="#46A325"/>
<rect x="11380" y="4166" width="269" height="266" fill="#46A325"/>
<rect x="10093" y="4167" width="269" height="266" fill="#46A325"/>
<rect x="11246" y="5397" width="269" height="266" fill="#46A325"/>
<rect x="10031" y="4997" width="269" height="266" fill="#46A325"/>
<rect x="10162" y="4446" width="269" height="266" fill="#46A325"/>
<rect x="10620" y="3292" width="269" height="266" fill="#46A325"/>
<rect x="9715" y="3221" width="269" height="266" fill="#46A325"/>
<rect x="10052" y="3337" width="269" height="266" fill="#46A325"/>
<rect x="8858" y="1892" width="269" height="266" fill="#46A325"/>
<rect x="8285" y="1887" width="269" height="266" fill="#46A325"/>
<rect x="8763" y="2157" width="269" height="266" fill="#46A325"/>
<rect x="7444" y="1683" width="269" height="266" fill="#46A325"/>
<rect x="10304" y="1551" width="269" height="266" fill="#46A325"/>
<rect x="10418" y="2152" width="269" height="266" fill="#46A325"/>
<rect x="7392" y="2664" width="269" height="266" fill="#46A325"/>
<rect x="5265" y="4733" width="269" height="266" fill="#46A325"/>
<rect x="5576" y="4096" width="269" height="266" fill="#46A325"/>
<rect x="4070" y="5650" width="269" height="266" fill="#46A325"/>
<rect x="4441" y="6115" width="269" height="266" fill="#46A325"/>
<rect x="4579" y="5193" width="269" height="266" fill="#46A325"/>
<rect x="5045" y="5578" width="269" height="266" fill="#46A325"/>
<rect x="3529" y="4712" width="269" height="266" fill="#46A325"/>
<rect x="3464" y="5323" width="269" height="266" fill="#46A325"/>
<rect x="4204" y="4596" width="269" height="266" fill="#46A325"/>
<rect x="3582" y="4034" width="269" height="266" fill="#46A325"/>
<rect x="3737" y="3557" width="269" height="266" fill="#46A325"/>
<rect x="3922" y="3822" width="269" height="266" fill="#46A325"/>
<rect x="4514" y="3222" width="269" height="266" fill="#46A325"/>
<rect x="4846" y="2792" width="269" height="266" fill="#46A325"/>
<rect x="4888" y="3200" width="269" height="266" fill="#46A325"/>
<rect x="3934" y="2351" width="269" height="266" fill="#46A325"/>
<rect x="2810" y="1811" width="269" height="266" fill="#46A325"/>
<rect x="2538" y="1347" width="269" height="266" fill="#46A325"/>
<rect x="1822" y="1622" width="269" height="266" fill="#46A325"/>
<rect x="2016" y="1893" width="269" height="266" fill="#46A325"/>
<rect x="1484" y="846" width="269" height="266" fill="#46A325"/>
<rect x="5758" y="404" width="269" height="266" fill="#46A325"/>
<rect x="5318" y="1040" width="269" height="266" fill="#46A325"/>
<rect x="5980" y="979" width="269" height="266" fill="#46A325"/>
<rect x="6586" y="272" width="269" height="266" fill="#46A325"/>
<rect x="5693" y="1541" width="269" height="266" fill="#46A325"/>
<rect x="7071" y="1101" width="269" height="266" fill="#46A325"/>
<rect x="5293" y="11783" width="356" height="356" fill="#46A325"/>
<rect x="4915" y="13285" width="356" height="356" fill="#46A325"/>
<rect x="5533" y="14049" width="356" height="356" fill="#46A325"/>
<rect x="6151" y="13727" width="356" height="356" fill="#46A325"/>
<rect x="4326" y="12593" width="356" height="356" fill="#46A325"/>
<rect x="5533" y="12699" width="356" height="356" fill="#46A325"/>
<rect x="7071" y="12887" width="356" height="356" fill="#46A325"/>
<rect x="6761" y="13491" width="356" height="356" fill="#46A325"/>
<rect x="7431" y="14273" width="356" height="356" fill="#46A325"/>
<rect x="7725" y="13372" width="356" height="356" fill="#46A325"/>
<rect x="8034" y="14098" width="356" height="356" fill="#46A325"/>
<rect x="7406" y="14696" width="356" height="356" fill="#46A325"/>
<rect x="9498" y="15289" width="356" height="356" fill="#46A325"/>
<rect x="9277" y="14959" width="356" height="356" fill="#46A325"/>
<rect x="7126" y="15174" width="356" height="356" fill="#46A325"/>
<rect x="6708" y="14235" width="356" height="356" fill="#46A325"/>
<rect x="8114" y="12915" width="356" height="356" fill="#46A325"/>
<rect x="8946" y="12794" width="356" height="356" fill="#46A325"/>
<rect x="8703" y="12323" width="356" height="356" fill="#46A325"/>
<rect x="9804" y="11782" width="356" height="356" fill="#46A325"/>
<rect x="9078" y="11663" width="356" height="356" fill="#46A325"/>
<rect x="7972" y="11936" width="356" height="356" fill="#46A325"/>
<rect x="7248" y="11729" width="356" height="356" fill="#46A325"/>
<rect x="7907" y="12506" width="356" height="356" fill="#46A325"/>
<rect x="7021" y="12373" width="356" height="356" fill="#46A325"/>
<rect x="6739" y="11701" width="356" height="356" fill="#46A325"/>
<rect x="10286" y="13231" width="356" height="356" fill="#46A325"/>
<rect x="11011" y="13231" width="356" height="356" fill="#46A325"/>
<rect x="11169" y="12519" width="356" height="356" fill="#46A325"/>
<rect x="12076" y="12828" width="356" height="356" fill="#46A325"/>
<rect x="11577" y="12959" width="356" height="356" fill="#46A325"/>
<rect x="11402" y="13836" width="356" height="356" fill="#46A325"/>
<rect x="12919" y="12966" width="356" height="356" fill="#46A325"/>
<rect x="10913" y="13658" width="356" height="356" fill="#46A325"/>
<rect x="11328" y="14730" width="356" height="356" fill="#46A325"/>
<rect x="11285" y="14294" width="356" height="356" fill="#46A325"/>
<rect x="12499" y="15369" width="356" height="356" fill="#46A325"/>
<rect x="11532" y="15369" width="356" height="356" fill="#46A325"/>
<rect x="12068" y="14363" width="356" height="356" fill="#46A325"/>
<rect x="11973" y="13884" width="356" height="356" fill="#46A325"/>
<rect x="12321" y="13175" width="356" height="356" fill="#46A325"/>
<rect x="12907" y="14838" width="356" height="356" fill="#46A325"/>
<rect x="13203" y="13635" width="356" height="356" fill="#46A325"/>
<rect x="12785" y="12332" width="356" height="356" fill="#46A325"/>
<rect x="11359" y="11147" width="356" height="356" fill="#46A325"/>
<rect x="12188" y="11971" width="356" height="356" fill="#46A325"/>
<rect x="12520" y="11112" width="356" height="356" fill="#46A325"/>
<rect x="12004" y="10307" width="356" height="356" fill="#46A325"/>
<rect x="12795" y="10426" width="356" height="356" fill="#46A325"/>
<rect x="12236" y="9627" width="356" height="356" fill="#46A325"/>
<rect x="11234" y="10114" width="356" height="356" fill="#46A325"/>
<rect x="10788" y="10727" width="356" height="356" fill="#46A325"/>
<rect x="9786" y="10246" width="356" height="356" fill="#46A325"/>
<rect x="10308" y="10699" width="356" height="356" fill="#46A325"/>
<rect x="10308" y="9659" width="356" height="356" fill="#46A325"/>
<rect x="11338" y="9545" width="356" height="356" fill="#46A325"/>
<rect x="9019" y="9982" width="356" height="356" fill="#46A325"/>
<rect x="8895" y="10631" width="356" height="356" fill="#46A325"/>
<rect x="8319" y="10324" width="356" height="356" fill="#46A325"/>
<rect x="7479" y="10494" width="356" height="356" fill="#46A325"/>
<rect x="6964" y="10664" width="356" height="356" fill="#46A325"/>
<rect x="6378" y="10406" width="356" height="356" fill="#46A325"/>
<rect x="6543" y="10868" width="356" height="356" fill="#46A325"/>
<rect x="5711" y="10424" width="356" height="356" fill="#46A325"/>
<rect x="6113" y="11229" width="356" height="356" fill="#46A325"/>
<rect x="6210" y="9803" width="356" height="356" fill="#46A325"/>
<rect x="6225" y="9223" width="356" height="356" fill="#46A325"/>
<rect x="7146" y="8426" width="356" height="356" fill="#46A325"/>
<rect x="7901" y="8950" width="356" height="356" fill="#46A325"/>
<rect x="7408" y="9151" width="356" height="356" fill="#46A325"/>
<rect x="8159" y="9677" width="356" height="356" fill="#46A325"/>
<rect x="8527" y="8521" width="356" height="356" fill="#46A325"/>
<rect x="10342" y="8999" width="356" height="356" fill="#46A325"/>
<rect x="10541" y="9323" width="356" height="356" fill="#46A325"/>
<rect x="9804" y="7149" width="356" height="356" fill="#46A325"/>
<rect x="8959" y="6897" width="356" height="356" fill="#46A325"/>
<rect x="9056" y="7244" width="356" height="356" fill="#46A325"/>
<rect x="9626" y="6570" width="356" height="356" fill="#46A325"/>
<rect x="9872" y="5495" width="356" height="356" fill="#46A325"/>
<rect x="10317" y="5998" width="356" height="356" fill="#46A325"/>
<rect x="10424" y="5125" width="356" height="356" fill="#46A325"/>
<rect x="10960" y="5874" width="356" height="356" fill="#46A325"/>
<rect x="10788" y="4866" width="356" height="356" fill="#46A325"/>
<rect x="7648" y="5855" width="356" height="356" fill="#46A325"/>
<rect x="6903" y="6381" width="356" height="356" fill="#46A325"/>
<rect x="6365" y="6347" width="356" height="356" fill="#46A325"/>
<rect x="7171" y="7270" width="356" height="356" fill="#46A325"/>
<rect x="5477" y="7989" width="356" height="356" fill="#46A325"/>
<rect x="6353" y="7245" width="356" height="356" fill="#46A325"/>
<rect x="4838" y="6007" width="356" height="356" fill="#46A325"/>
<rect x="5792" y="5012" width="356" height="356" fill="#46A325"/>
<rect x="6973" y="5053" width="356" height="356" fill="#46A325"/>
<rect x="7081" y="3962" width="356" height="356" fill="#46A325"/>
<rect x="5729" y="4268" width="356" height="356" fill="#46A325"/>
<rect x="6443" y="4733" width="356" height="356" fill="#46A325"/>
<rect x="4642" y="4506" width="356" height="356" fill="#46A325"/>
<rect x="5320" y="5272" width="356" height="356" fill="#46A325"/>
<rect x="3495" y="5956" width="356" height="356" fill="#46A325"/>
<rect x="3863" y="4927" width="356" height="356" fill="#46A325"/>
<rect x="3931" y="4140" width="356" height="356" fill="#46A325"/>
<rect x="3058" y="3150" width="356" height="356" fill="#46A325"/>
<rect x="3918" y="3000" width="356" height="356" fill="#46A325"/>
<rect x="3170" y="2437" width="356" height="356" fill="#46A325"/>
<rect x="3478" y="2877" width="356" height="356" fill="#46A325"/>
<rect x="4200" y="2645" width="356" height="356" fill="#46A325"/>
<rect x="4153" y="3638" width="356" height="356" fill="#46A325"/>
<rect x="5362" y="3550" width="356" height="356" fill="#46A325"/>
<rect x="5747" y="2751" width="356" height="356" fill="#46A325"/>
<rect x="5159" y="2983" width="356" height="356" fill="#46A325"/>
<rect x="6425" y="4302" width="356" height="356" fill="#46A325"/>
<rect x="3368" y="1944" width="356" height="356" fill="#46A325"/>
<rect x="4050" y="1980" width="356" height="356" fill="#46A325"/>
<rect x="2564" y="2710" width="356" height="356" fill="#46A325"/>
<rect x="1835" y="3261" width="356" height="356" fill="#46A325"/>
<rect x="880" y="1939" width="356" height="356" fill="#46A325"/>
<rect x="1714" y="287" width="356" height="356" fill="#46A325"/>
<rect x="702" y="430" width="356" height="356" fill="#46A325"/>
<rect x="879" y="1244" width="356" height="356" fill="#46A325"/>
<rect x="1787" y="1011" width="356" height="356" fill="#46A325"/>
<rect x="1439" y="1877" width="356" height="356" fill="#46A325"/>
<rect x="2210" y="1076" width="356" height="356" fill="#46A325"/>
<rect x="2901" y="1480" width="356" height="356" fill="#46A325"/>
<rect x="2190" y="439" width="356" height="356" fill="#46A325"/>
<rect x="3310" width="356" height="356" fill="#46A325"/>
<rect x="2693" y="222" width="356" height="356" fill="#46A325"/>
<rect x="4705" y="786" width="356" height="356" fill="#46A325"/>
<rect x="4894" y="191" width="356" height="356" fill="#46A325"/>
<rect x="5619" y="929" width="356" height="356" fill="#46A325"/>
<rect x="5273" y="1395" width="356" height="356" fill="#46A325"/>
<rect x="5983" y="1284" width="356" height="356" fill="#46A325"/>
<rect x="6908" y="1557" width="356" height="356" fill="#46A325"/>
<rect x="6509" y="1189" width="356" height="356" fill="#46A325"/>
<rect x="6821" y="649" width="356" height="356" fill="#46A325"/>
<rect x="7483" y="2116" width="356" height="356" fill="#46A325"/>
<rect x="6936" y="2107" width="356" height="356" fill="#46A325"/>
<rect x="7972" y="2446" width="356" height="356" fill="#46A325"/>
<rect x="8660" y="3176" width="356" height="356" fill="#46A325"/>
<rect x="8449" y="4724" width="356" height="356" fill="#46A325"/>
<rect x="8988" y="3607" width="356" height="356" fill="#46A325"/>
<rect x="9062" y="2784" width="356" height="356" fill="#46A325"/>
<rect x="9491" y="1998" width="356" height="356" fill="#46A325"/>
<rect x="10256" y="2455" width="356" height="356" fill="#46A325"/>
<rect x="8553" y="1227" width="356" height="356" fill="#46A325"/>
<rect x="9434" y="1036" width="356" height="356" fill="#46A325"/>
<rect x="9175" y="1628" width="356" height="356" fill="#46A325"/>
<rect x="9104" y="1145" width="356" height="356" fill="#46A325"/>
<rect x="11380" y="2619" width="356" height="356" fill="#46A325"/>
<rect x="10717" y="3716" width="356" height="356" fill="#46A325"/>
<rect x="11023" y="3374" width="356" height="356" fill="#46A325"/>
<rect x="10904" y="4186" width="356" height="356" fill="#46A325"/>
<rect x="5756" y="11440" width="343" height="350" fill="#46A325"/>
<rect x="6277" y="11587" width="343" height="350" fill="#46A325"/>
<rect x="6555" y="11286" width="343" height="350" fill="#46A325"/>
<rect x="7184" y="11014" width="343" height="350" fill="#46A325"/>
<rect x="6992" y="12036" width="343" height="350" fill="#46A325"/>
<rect x="7695" y="11782" width="343" height="350" fill="#46A325"/>
<rect x="6636" y="12746" width="343" height="350" fill="#46A325"/>
<rect x="6009" y="12202" width="343" height="350" fill="#46A325"/>
<rect x="5772" y="11858" width="343" height="350" fill="#46A325"/>
<rect x="8918" y="14638" width="343" height="350" fill="#46A325"/>
<rect x="8264" y="14560" width="343" height="350" fill="#46A325"/>
<rect x="8599" y="14738" width="343" height="350" fill="#46A325"/>
<rect x="7859" y="14550" width="343" height="350" fill="#46A325"/>
<rect x="7667" y="14006" width="343" height="350" fill="#46A325"/>
<rect x="7700" y="15094" width="343" height="350" fill="#46A325"/>
<rect x="8374" y="14912" width="343" height="350" fill="#46A325"/>
<rect x="7052" y="14427" width="343" height="350" fill="#46A325"/>
<rect x="7408" y="15020" width="343" height="350" fill="#46A325"/>
<rect x="7149" y="13937" width="343" height="350" fill="#46A325"/>
<rect x="8056" y="13797" width="343" height="350" fill="#46A325"/>
<rect x="6013" y="14239" width="343" height="350" fill="#46A325"/>
<rect x="5475" y="15057" width="343" height="350" fill="#46A325"/>
<rect x="9123" y="15393" width="343" height="350" fill="#46A325"/>
<rect x="11754" y="14601" width="343" height="350" fill="#46A325"/>
<rect x="12400" y="14601" width="343" height="350" fill="#46A325"/>
<rect x="12838" y="14436" width="343" height="350" fill="#46A325"/>
<rect x="12542" y="14926" width="343" height="350" fill="#46A325"/>
<rect x="13293" y="14573" width="343" height="350" fill="#46A325"/>
<rect x="12505" y="14252" width="343" height="350" fill="#46A325"/>
<rect x="12210" y="13550" width="343" height="350" fill="#46A325"/>
<rect x="12817" y="13949" width="343" height="350" fill="#46A325"/>
<rect x="13351" y="14192" width="343" height="350" fill="#46A325"/>
<rect x="11362" y="13372" width="343" height="350" fill="#46A325"/>
<rect x="11712" y="13702" width="343" height="350" fill="#46A325"/>
<rect x="11611" y="12391" width="343" height="350" fill="#46A325"/>
<rect x="10450" y="13862" width="343" height="350" fill="#46A325"/>
<rect x="10348" y="14358" width="343" height="350" fill="#46A325"/>
<rect x="10869" y="12259" width="343" height="350" fill="#46A325"/>
<rect x="10199" y="12647" width="343" height="350" fill="#46A325"/>
<rect x="11440" y="11485" width="343" height="350" fill="#46A325"/>
<rect x="12305" y="10662" width="343" height="350" fill="#46A325"/>
<rect x="11195" y="10746" width="343" height="350" fill="#46A325"/>
<rect x="9638" y="10606" width="343" height="350" fill="#46A325"/>
<rect x="9454" y="9825" width="343" height="350" fill="#46A325"/>
<rect x="9799" y="9709" width="343" height="350" fill="#46A325"/>
<rect x="9339" y="9405" width="343" height="350" fill="#46A325"/>
<rect x="10846" y="9775" width="343" height="350" fill="#46A325"/>
<rect x="10856" y="10246" width="343" height="350" fill="#46A325"/>
<rect x="10905" y="9338" width="343" height="350" fill="#46A325"/>
<rect x="10177" y="10057" width="343" height="350" fill="#46A325"/>
<rect x="10258" y="10361" width="343" height="350" fill="#46A325"/>
<rect x="8711" y="9621" width="343" height="350" fill="#46A325"/>
<rect x="8652" y="9101" width="343" height="350" fill="#46A325"/>
<rect x="8970" y="8735" width="343" height="350" fill="#46A325"/>
<rect x="9695" y="8876" width="343" height="350" fill="#46A325"/>
<rect x="9277" y="8775" width="343" height="350" fill="#46A325"/>
<rect x="10124" y="9288" width="343" height="350" fill="#46A325"/>
<rect x="9209" y="8056" width="343" height="350" fill="#46A325"/>
<rect x="9946" y="8123" width="343" height="350" fill="#46A325"/>
<rect x="9148" y="7695" width="343" height="350" fill="#46A325"/>
<rect x="8740" y="7954" width="343" height="350" fill="#46A325"/>
<rect x="10168" y="7437" width="343" height="350" fill="#46A325"/>
<rect x="8457" y="6757" width="343" height="350" fill="#46A325"/>
<rect x="8116" y="8492" width="343" height="350" fill="#46A325"/>
<rect x="6622" y="8152" width="343" height="350" fill="#46A325"/>
<rect x="7730" y="8610" width="343" height="350" fill="#46A325"/>
<rect x="8657" y="7231" width="343" height="350" fill="#46A325"/>
<rect x="9223" y="6525" width="343" height="350" fill="#46A325"/>
<rect x="8083" y="5798" width="343" height="350" fill="#46A325"/>
<rect x="7318" y="6229" width="343" height="350" fill="#46A325"/>
<rect x="7562" y="7113" width="343" height="350" fill="#46A325"/>
<rect x="7023" y="6849" width="343" height="350" fill="#46A325"/>
<rect x="6151" y="5703" width="343" height="350" fill="#46A325"/>
<rect x="5537" y="5645" width="343" height="350" fill="#46A325"/>
<rect x="5735" y="6324" width="343" height="350" fill="#46A325"/>
<rect x="6959" y="4434" width="343" height="350" fill="#46A325"/>
<rect x="5918" y="4651" width="343" height="350" fill="#46A325"/>
<rect x="5546" y="4724" width="343" height="350" fill="#46A325"/>
<rect x="5036" y="5038" width="343" height="350" fill="#46A325"/>
<rect x="9234" y="4977" width="343" height="350" fill="#46A325"/>
<rect x="9483" y="5538" width="343" height="350" fill="#46A325"/>
<rect x="9689" y="5009" width="343" height="350" fill="#46A325"/>
<rect x="9015" y="4131" width="343" height="350" fill="#46A325"/>
<rect x="9568" y="4152" width="343" height="350" fill="#46A325"/>
<rect x="8926" y="4756" width="343" height="350" fill="#46A325"/>
<rect x="10435" y="4407" width="343" height="350" fill="#46A325"/>
<rect x="11299" y="6175" width="343" height="350" fill="#46A325"/>
<rect x="11440" y="4919" width="343" height="350" fill="#46A325"/>
<rect x="9162" y="3208" width="343" height="350" fill="#46A325"/>
<rect x="9917" y="3570" width="343" height="350" fill="#46A325"/>
<rect x="9255" y="3914" width="343" height="350" fill="#46A325"/>
<rect x="9564" y="2754" width="343" height="350" fill="#46A325"/>
<rect x="8567" y="2676" width="343" height="350" fill="#46A325"/>
<rect x="7648" y="2622" width="343" height="350" fill="#46A325"/>
<rect x="7034" y="2659" width="343" height="350" fill="#46A325"/>
<rect x="5790" y="3689" width="343" height="350" fill="#46A325"/>
<rect x="7432" y="3727" width="343" height="350" fill="#46A325"/>
<rect x="4892" y="3521" width="343" height="350" fill="#46A325"/>
<rect x="6094" y="4297" width="343" height="350" fill="#46A325"/>
<rect x="5523" y="3101" width="343" height="350" fill="#46A325"/>
<rect x="5301" y="1744" width="343" height="350" fill="#46A325"/>
<rect x="6428" y="1535" width="343" height="350" fill="#46A325"/>
<rect x="7446" y="1239" width="343" height="350" fill="#46A325"/>
<rect x="7891" y="1901" width="343" height="350" fill="#46A325"/>
<rect x="7801" y="556" width="343" height="350" fill="#46A325"/>
<rect x="8131" y="874" width="343" height="350" fill="#46A325"/>
<rect x="7274" y="556" width="343" height="350" fill="#46A325"/>
<rect x="5313" y="158" width="343" height="350" fill="#46A325"/>
<rect x="5929" y="-7" width="343" height="350" fill="#46A325"/>
<rect x="7156" y="29" width="343" height="350" fill="#46A325"/>
<rect x="2090" y="29" width="343" height="350" fill="#46A325"/>
<rect x="2765" y="1069" width="343" height="350" fill="#46A325"/>
<rect x="2999" y="2031" width="343" height="350" fill="#46A325"/>
<rect x="2730" y="2370" width="343" height="350" fill="#46A325"/>
<rect x="3508" y="2370" width="343" height="350" fill="#46A325"/>
<rect x="2232" y="2417" width="343" height="350" fill="#46A325"/>
<rect x="2119" y="2093" width="343" height="350" fill="#46A325"/>
<rect x="2597" y="3138" width="343" height="350" fill="#46A325"/>
<rect x="3283" y="3549" width="343" height="350" fill="#46A325"/>
<rect x="3478" y="3273" width="343" height="350" fill="#46A325"/>
<rect x="4087" y="3328" width="343" height="350" fill="#46A325"/>
<rect x="3786" y="2589" width="343" height="350" fill="#46A325"/>
<rect x="4384" y="2303" width="343" height="350" fill="#46A325"/>
<rect x="4530" y="2880" width="343" height="350" fill="#46A325"/>
<rect x="4384" y="4238" width="343" height="350" fill="#46A325"/>
<rect x="5149" y="4417" width="343" height="350" fill="#46A325"/>
<rect x="4786" y="4152" width="343" height="350" fill="#46A325"/>
<rect x="9558" y="6926" width="343" height="350" fill="#46A325"/>
<rect x="5720" y="13321" width="318.414" height="309.982" fill="#46A325"/>
<rect x="7420" y="12997" width="318.414" height="309.982" fill="#46A325"/>
<rect x="9137" y="12539" width="318.414" height="309.982" fill="#46A325"/>
<rect x="9431" y="11855" width="318.414" height="309.982" fill="#46A325"/>
<rect x="8913" y="12021" width="318.414" height="309.982" fill="#46A325"/>
<rect x="8240" y="12330" width="318.414" height="309.982" fill="#46A325"/>
<rect x="8441" y="13398" width="318.414" height="309.982" fill="#46A325"/>
<rect x="9876" y="13960" width="318.414" height="309.982" fill="#46A325"/>
<rect x="10209" y="13649" width="318.414" height="309.982" fill="#46A325"/>
<rect x="12042" y="12500" width="318.414" height="309.982" fill="#46A325"/>
<rect x="12506" y="12823" width="318.414" height="309.982" fill="#46A325"/>
<rect x="12500" y="12398" width="318.414" height="309.982" fill="#46A325"/>
<rect x="12586" y="11701" width="318.414" height="309.982" fill="#46A325"/>
<rect x="11883" y="11680" width="318.414" height="309.982" fill="#46A325"/>
<rect x="11267" y="11850" width="318.414" height="309.982" fill="#46A325"/>
<rect x="11933" y="11266" width="318.414" height="309.982" fill="#46A325"/>
<rect x="11766" y="10595" width="318.414" height="309.982" fill="#46A325"/>
<rect x="12200" y="11024" width="318.414" height="309.982" fill="#46A325"/>
<rect x="6235" y="12728" width="318.414" height="309.982" fill="#46A325"/>
<rect x="7319" y="9649" width="318.414" height="309.982" fill="#46A325"/>
<rect x="6806" y="8506" width="318.414" height="309.982" fill="#46A325"/>
<rect x="5552" y="8654" width="318.414" height="309.982" fill="#46A325"/>
<rect x="5459" y="7483" width="318.414" height="309.982" fill="#46A325"/>
<rect x="4719" y="7966" width="318.414" height="309.982" fill="#46A325"/>
<rect x="4676" y="8567" width="318.414" height="309.982" fill="#46A325"/>
<rect x="4186" y="7914" width="318.414" height="309.982" fill="#46A325"/>
<rect x="5341" y="7093" width="318.414" height="309.982" fill="#46A325"/>
<rect x="4583" y="6988" width="318.414" height="309.982" fill="#46A325"/>
<rect x="5567" y="6711" width="318.414" height="309.982" fill="#46A325"/>
<rect x="6310" y="6875" width="318.414" height="309.982" fill="#46A325"/>
<rect x="8779" y="7606" width="318.414" height="309.982" fill="#46A325"/>
<rect x="8889" y="6508" width="318.414" height="309.982" fill="#46A325"/>
<rect x="7751" y="6199" width="318.414" height="309.982" fill="#46A325"/>
<rect x="7372" y="5496" width="318.414" height="309.982" fill="#46A325"/>
<rect x="9346" y="5312" width="318.414" height="309.982" fill="#46A325"/>
<rect x="9946" y="5911" width="318.414" height="309.982" fill="#46A325"/>
<rect x="8135" y="4689" width="318.414" height="309.982" fill="#46A325"/>
<rect x="6711" y="4109" width="318.414" height="309.982" fill="#46A325"/>
<rect x="7450" y="4090" width="318.414" height="309.982" fill="#46A325"/>
<rect x="8403" y="2350" width="318.414" height="309.982" fill="#46A325"/>
<rect x="9300" y="2422" width="318.414" height="309.982" fill="#46A325"/>
<rect x="2536" y="3962" width="318.414" height="309.982" fill="#46A325"/>
<rect x="2818" y="4736" width="318.414" height="309.982" fill="#46A325"/>
<rect x="2287" y="3671" width="318.414" height="309.982" fill="#46A325"/>
<rect x="4200" y="904" width="318.414" height="309.982" fill="#46A325"/>
<rect x="3057" y="482" width="318.414" height="309.982" fill="#46A325"/>
<rect x="5102" y="595" width="318.414" height="309.982" fill="#46A325"/>
<rect x="4964" y="1248" width="318.414" height="309.982" fill="#46A325"/>
<rect x="2141" y="4535" width="318.414" height="309.982" fill="#46A325"/>
<rect x="9825" y="1912" width="318.414" height="309.982" fill="#46A325"/>
<rect x="10225" y="2941" width="318.414" height="309.982" fill="#46A325"/>
<rect x="9948" y="2420" width="318.414" height="309.982" fill="#46A325"/>
<rect x="7593" y="898" width="318.414" height="309.982" fill="#46A325"/>
<rect x="6806" y="91" width="318.414" height="309.982" fill="#46A325"/>
<path d="M7245 9439V9419H7260V9439H7245Z" fill="#D1C9C3"/>
</g>
<defs>
<clipPath id="clip0_1322_36024">
<rect width="13918" height="15768" fill="white"/>
</clipPath>
</defs>
</svg>
