<svg width="2960" height="1000" viewBox="0 0 2960 1000" fill="none" xmlns="http://www.w3.org/2000/svg">
<g clip-path="url(#clip0_2364_3609)">
<path d="M1399.51 249.563C1407.31 226.421 1439.16 224.194 1450.11 246.025V246.025C1458.53 262.815 1480.94 266.399 1494.17 253.073L1496.44 250.789C1513.2 233.912 1541.99 245.897 1541.83 269.684V269.684C1541.7 288.225 1560.13 301.185 1577.53 294.79L1581.6 293.297C1603.59 285.217 1624.05 308.363 1613.32 329.193V329.193C1604.89 345.568 1615.91 365.236 1634.28 366.597L1636.47 366.76C1659.99 368.502 1668.78 398.452 1649.95 412.632V412.632C1635.17 423.757 1636.75 446.417 1652.94 455.378V455.378C1673.56 466.797 1669.02 497.681 1645.98 502.678L1643.83 503.145C1625.83 507.049 1617.65 528.059 1628.28 543.101V543.101C1641.8 562.236 1624.76 588.004 1601.86 583.063L1597.63 582.15C1579.5 578.24 1563.06 593.639 1565.76 611.981V611.981C1569.24 635.513 1542.39 651.389 1523.45 637.009L1520.88 635.063C1505.92 623.709 1484.23 630.376 1478.23 648.175V648.175C1470.43 671.317 1438.57 673.544 1427.63 651.713V651.713C1419.21 634.923 1396.8 631.339 1383.57 644.665L1381.3 646.949C1364.54 663.826 1335.75 651.841 1335.91 628.054V628.054C1336.04 609.513 1317.61 596.553 1300.2 602.948L1296.14 604.441C1274.15 612.521 1253.69 589.375 1264.42 568.545V568.545C1272.85 552.17 1261.83 532.503 1243.46 531.141L1241.26 530.979C1217.75 529.236 1208.96 499.286 1227.79 485.106V485.106C1242.57 473.981 1240.99 451.321 1224.8 442.36V442.36C1204.18 430.941 1208.72 400.058 1231.76 395.06L1233.91 394.593C1251.91 390.689 1260.09 369.679 1249.46 354.637V354.637C1235.94 335.502 1252.98 309.734 1275.88 314.675L1280.11 315.588C1298.23 319.498 1314.68 304.099 1311.98 285.757V285.757C1308.5 262.225 1335.34 246.349 1354.29 260.729L1356.86 262.675C1371.82 274.029 1393.51 267.362 1399.51 249.563V249.563Z" fill="#DD5B80"/>
<rect x="-176.24" y="979.177" width="3307.03" height="602.571" transform="rotate(-10 -176.24 979.177)" fill="#1C516E"/>
<rect x="-227.537" y="-47.3931" width="2966.45" height="481.151" transform="rotate(-10 -227.537 -47.3931)" fill="#1C516E"/>
<path d="M1321.46 815.073C1320.35 815.268 1319.28 815.186 1318.25 814.827C1317.2 814.416 1316.58 813.659 1316.38 812.556L1307.39 761.582C1307.2 760.479 1307.53 759.582 1308.38 758.89C1309.23 758.146 1310.2 757.676 1311.3 757.482L1339.35 752.536C1340.5 752.332 1341.4 752.662 1342.04 753.524C1342.73 754.376 1343.17 755.328 1343.36 756.379C1343.58 757.639 1343.48 758.767 1343.06 759.762C1342.69 760.747 1341.98 761.332 1340.93 761.518L1318.64 765.449L1321.42 781.206L1333.39 779.094C1334.44 778.909 1335.3 779.19 1335.98 779.938C1336.69 780.624 1337.15 781.519 1337.34 782.622C1337.5 783.514 1337.4 784.454 1337.03 785.439C1336.7 786.363 1335.96 786.927 1334.81 787.13L1322.83 789.242L1325.62 805.078L1347.92 801.146C1348.97 800.961 1349.84 801.269 1350.52 802.069C1351.26 802.86 1351.73 803.886 1351.96 805.146C1352.14 806.197 1352.06 807.241 1351.7 808.279C1351.39 809.308 1350.66 809.924 1349.5 810.128L1321.46 815.073ZM1376.71 805.818C1375.24 806.077 1373.8 806.034 1372.38 805.687C1371.02 805.332 1370.08 804.604 1369.56 803.504L1345.54 756.644C1345.37 756.295 1345.27 756.041 1345.24 755.884C1345.09 755.043 1345.31 754.248 1345.88 753.497C1346.45 752.747 1347.2 752.099 1348.13 751.556C1349.12 751.003 1350.09 750.643 1351.03 750.476C1351.87 750.328 1352.63 750.356 1353.32 750.56C1354 750.712 1354.48 751.167 1354.78 751.927L1374.36 792.503L1378.81 747.69C1378.93 746.856 1379.26 746.257 1379.79 745.892C1380.37 745.466 1381.07 745.179 1381.91 745.031C1382.86 744.864 1383.86 744.877 1384.93 745.068C1385.99 745.26 1386.92 745.611 1387.71 746.121C1388.56 746.621 1389.06 747.292 1389.2 748.132C1389.22 748.237 1389.22 748.373 1389.19 748.54C1389.21 748.645 1389.21 748.781 1389.19 748.948L1382.72 801.184C1382.61 802.395 1381.95 803.406 1380.73 804.215C1379.58 805.015 1378.23 805.549 1376.71 805.818ZM1409.1 799.619C1407.84 799.841 1406.62 799.787 1405.42 799.456C1404.27 799.063 1403.59 798.316 1403.4 797.213L1394.4 746.16C1394.19 745.005 1394.58 744.098 1395.54 743.44C1396.55 742.72 1397.69 742.249 1398.95 742.027C1400.26 741.796 1401.49 741.85 1402.63 742.19C1403.77 742.477 1404.44 743.199 1404.64 744.354L1413.64 795.407C1413.84 796.51 1413.46 797.443 1412.51 798.206C1411.55 798.916 1410.42 799.387 1409.1 799.619ZM1428.25 796.243C1427.14 796.438 1426.07 796.356 1425.04 795.997C1423.99 795.586 1423.37 794.829 1423.17 793.726L1414.17 742.674C1413.97 741.518 1414.35 740.611 1415.32 739.954C1416.33 739.234 1417.46 738.763 1418.72 738.541C1420.04 738.309 1421.26 738.363 1422.41 738.703C1423.54 738.991 1424.21 739.712 1424.41 740.868L1432.41 786.248L1451.72 782.844C1452.77 782.659 1453.61 782.997 1454.25 783.859C1454.88 784.669 1455.3 785.652 1455.5 786.807C1455.7 787.91 1455.64 788.976 1455.34 790.005C1455.03 791.033 1454.35 791.64 1453.3 791.826L1428.25 796.243ZM1482.73 786.636C1481.47 786.858 1480.25 786.804 1479.05 786.473C1477.9 786.08 1477.22 785.333 1477.03 784.23L1468.03 733.177C1467.82 732.022 1468.21 731.115 1469.17 730.457C1470.18 729.737 1471.32 729.266 1472.58 729.044C1473.89 728.813 1475.12 728.867 1476.26 729.207C1477.4 729.494 1478.07 730.216 1478.27 731.371L1482.05 752.801L1495.06 726.624C1495.57 725.505 1496.4 724.844 1497.55 724.64C1498.45 724.483 1499.39 724.588 1500.37 724.956C1501.41 725.315 1502.31 725.832 1503.08 726.509C1503.85 727.186 1504.31 727.97 1504.47 728.863C1504.52 729.126 1504.52 729.45 1504.48 729.836C1504.44 730.223 1504.32 730.596 1504.11 730.958L1493.2 751.078L1514.99 774.206C1515.46 774.719 1515.75 775.291 1515.86 775.921C1516 776.762 1515.83 777.631 1515.34 778.53C1514.9 779.42 1514.26 780.211 1513.4 780.903C1512.54 781.542 1511.61 781.95 1510.61 782.126C1509.88 782.255 1509.17 782.218 1508.48 782.014C1507.85 781.801 1507.24 781.395 1506.64 780.795L1487.87 760.953L1484.56 767.061L1487.27 782.424C1487.47 783.527 1487.09 784.46 1486.14 785.223C1485.18 785.933 1484.05 786.404 1482.73 786.636ZM1526.28 778.957C1525.02 779.179 1523.79 779.125 1522.6 778.795C1521.44 778.402 1520.77 777.654 1520.58 776.551L1511.57 725.499C1511.37 724.343 1511.75 723.437 1512.72 722.779C1513.73 722.059 1514.87 721.588 1516.13 721.366C1517.44 721.134 1518.67 721.188 1519.81 721.528C1520.94 721.816 1521.61 722.537 1521.82 723.693L1530.82 774.745C1531.01 775.848 1530.64 776.781 1529.69 777.544C1528.73 778.255 1527.59 778.726 1526.28 778.957ZM1546.05 775.471C1544.79 775.693 1543.57 775.639 1542.37 775.308C1541.22 774.915 1540.54 774.168 1540.35 773.065L1531.35 722.012C1531.15 720.909 1531.53 720.003 1532.49 719.292C1533.5 718.572 1534.64 718.101 1535.9 717.879C1537.16 717.657 1538.21 717.608 1539.04 717.731C1539.93 717.846 1540.78 718.237 1541.6 718.904C1542.47 719.51 1543.43 720.531 1544.5 721.968L1564.89 748.673L1559.32 717.081C1559.11 715.925 1559.49 715.018 1560.46 714.361C1561.47 713.641 1562.61 713.17 1563.87 712.948C1565.18 712.716 1566.41 712.77 1567.55 713.11C1568.69 713.398 1569.35 714.119 1569.56 715.275L1578.56 766.327C1578.75 767.43 1578.38 768.363 1577.43 769.126C1576.47 769.837 1575.34 770.308 1574.02 770.539C1572.81 770.752 1571.64 770.715 1570.51 770.427C1569.43 770.131 1568.47 769.434 1567.62 768.337L1545.02 739.666L1550.59 771.259C1550.79 772.362 1550.41 773.295 1549.46 774.058C1548.5 774.768 1547.37 775.239 1546.05 775.471ZM1606.68 765.268C1603.21 765.88 1599.99 765.853 1597 765.188C1594 764.471 1591.43 762.947 1589.29 760.618C1587.19 758.226 1585.75 754.824 1584.97 750.412L1581.12 728.589C1580.34 724.177 1580.54 720.515 1581.7 717.601C1582.91 714.626 1584.78 712.32 1587.31 710.683C1589.88 708.984 1592.82 707.843 1596.13 707.26C1599.8 706.611 1603.14 706.646 1606.14 707.363C1609.18 708.071 1611.72 709.411 1613.75 711.382C1615.78 713.353 1617.07 715.915 1617.62 719.066C1617.97 721.009 1617.78 722.397 1617.06 723.228C1616.33 724.006 1615.1 724.548 1613.36 724.854C1612 725.094 1610.77 725.066 1609.69 724.77C1608.61 724.473 1607.94 723.725 1607.67 722.526C1607.4 721.275 1606.92 720.113 1606.25 719.041C1605.61 717.907 1604.65 717.048 1603.35 716.464C1602.11 715.871 1600.34 715.778 1598.02 716.185C1595.45 716.639 1593.56 717.757 1592.36 719.54C1591.2 721.261 1590.9 723.67 1591.44 726.769L1595.29 748.593C1595.84 751.691 1596.95 753.877 1598.64 755.151C1600.37 756.362 1602.52 756.741 1605.1 756.287C1607.67 755.833 1609.56 754.741 1610.77 753.011C1611.97 751.229 1612.3 748.788 1611.76 745.689L1610.95 741.12L1604.57 742.245C1603.57 742.421 1602.71 742.14 1601.98 741.401C1601.31 740.653 1600.89 739.78 1600.71 738.783C1600.53 737.785 1600.63 736.819 1601.01 735.886C1601.44 734.944 1602.15 734.385 1603.15 734.209L1616.55 731.847C1617.6 731.662 1618.44 731.865 1619.09 732.455C1619.78 732.983 1620.21 733.72 1620.37 734.665L1622 743.883C1622.78 748.295 1622.59 751.984 1621.43 754.95C1620.27 757.863 1618.37 760.174 1615.75 761.882C1613.17 763.528 1610.15 764.657 1606.68 765.268Z" fill="#EEDAD5"/>
<rect x="1240" y="280.461" width="379.34" height="364.486" rx="97" transform="rotate(-4 1240 280.461)" fill="#1C516E"/>
<path d="M1341.25 916.539C1339.21 916.898 1337.49 916.728 1336.08 916.029C1334.74 915.318 1333.95 914.339 1333.73 913.091L1322.67 850.359C1322.45 849.112 1322.85 847.924 1323.87 846.797C1324.96 845.658 1326.52 844.909 1328.55 844.55L1345.99 841.476C1350.52 840.677 1354.75 840.709 1358.69 841.571C1362.64 842.432 1365.96 844.385 1368.66 847.429C1371.43 850.461 1373.31 854.8 1374.31 860.446L1378.81 885.952C1379.8 891.599 1379.52 896.32 1377.95 900.116C1376.45 903.9 1374 906.872 1370.59 909.03C1367.18 911.188 1363.21 912.667 1358.68 913.466L1341.25 916.539ZM1347.55 901.618L1356.32 900.072C1359.07 899.586 1361.1 898.416 1362.4 896.563C1363.69 894.643 1364.03 892.01 1363.44 888.661L1358.95 863.155C1358.36 859.806 1357.13 857.483 1355.28 856.186C1353.42 854.822 1351.1 854.383 1348.35 854.87L1339.58 856.415L1347.55 901.618ZM1399.34 906.297C1397.69 906.586 1396.08 906.464 1394.5 905.931C1392.98 905.386 1392.08 904.326 1391.81 902.75L1380.78 840.215C1380.5 838.639 1380.98 837.336 1382.22 836.305C1383.53 835.263 1385 834.597 1386.64 834.307L1421.7 828.125C1423.34 827.836 1424.65 828.35 1425.63 829.667C1426.59 830.918 1427.22 832.332 1427.49 833.907C1427.82 835.746 1427.71 837.424 1427.16 838.941C1426.61 840.393 1425.57 841.253 1424.06 841.519L1397.67 846.173L1400.6 862.816L1415.38 860.211C1416.89 859.945 1418.15 860.366 1419.15 861.474C1420.15 862.517 1420.79 863.827 1421.06 865.402C1421.3 866.715 1421.17 868.092 1420.68 869.532C1420.17 870.907 1419.1 871.739 1417.46 872.029L1402.69 874.633L1405.64 891.375L1432.03 886.721C1433.54 886.455 1434.81 886.942 1435.85 888.182C1436.86 889.356 1437.54 890.862 1437.86 892.7C1438.14 894.276 1438.04 895.85 1437.58 897.422C1437.1 898.928 1436.04 899.825 1434.4 900.115L1399.34 906.297ZM1453.41 896.762C1451.5 897.098 1449.66 897.017 1447.88 896.518C1446.17 896.008 1445.17 894.965 1444.89 893.39L1433.87 830.854C1433.59 829.279 1434.07 827.975 1435.31 826.944C1436.61 825.902 1438.09 825.236 1439.73 824.947L1473.9 818.921C1475.54 818.632 1476.85 819.145 1477.83 820.462C1478.8 821.714 1479.42 823.127 1479.69 824.703C1480.02 826.541 1479.91 828.219 1479.36 829.737C1478.81 831.189 1477.77 832.048 1476.26 832.314L1450.76 836.812L1453.69 853.455L1468.56 850.833C1470.07 850.567 1471.33 850.988 1472.34 852.096C1473.34 853.139 1473.97 854.448 1474.25 856.024C1474.48 857.337 1474.35 858.714 1473.86 860.154C1473.36 861.529 1472.29 862.361 1470.65 862.651L1455.78 865.273L1460.26 890.681C1460.53 892.256 1459.92 893.583 1458.42 894.66C1456.98 895.726 1455.31 896.427 1453.41 896.762ZM1503.11 887.999C1501.46 888.289 1499.85 888.167 1498.27 887.634C1496.75 887.089 1495.85 886.029 1495.58 884.453L1484.55 821.918C1484.27 820.342 1484.75 819.039 1485.99 818.008C1487.3 816.965 1488.77 816.299 1490.41 816.01L1525.47 809.828C1527.11 809.538 1528.42 810.052 1529.4 811.369C1530.36 812.621 1530.99 814.034 1531.26 815.61C1531.59 817.448 1531.48 819.126 1530.93 820.644C1530.38 822.096 1529.34 822.955 1527.83 823.221L1501.44 827.875L1504.38 844.518L1519.15 841.914C1520.66 841.647 1521.92 842.068 1522.92 843.177C1523.92 844.22 1524.56 845.529 1524.84 847.105C1525.07 848.418 1524.94 849.795 1524.45 851.235C1523.94 852.61 1522.87 853.442 1521.23 853.731L1506.46 856.336L1509.41 873.078L1535.8 868.424C1537.31 868.158 1538.58 868.644 1539.62 869.884C1540.63 871.058 1541.31 872.565 1541.63 874.403C1541.91 875.979 1541.81 877.552 1541.35 879.124C1540.87 880.63 1539.81 881.528 1538.17 881.817L1503.11 887.999ZM1554.42 878.951C1553.04 879.194 1551.52 879.192 1549.85 878.945C1548.24 878.62 1546.82 878.091 1545.61 877.357C1544.39 876.557 1543.67 875.567 1543.46 874.385C1543.43 874.188 1543.43 873.815 1543.47 873.267L1551.19 809.964C1551.42 808.164 1552.44 806.664 1554.26 805.463C1556.08 804.262 1558.1 803.465 1560.33 803.071C1562.63 802.666 1564.81 802.723 1566.86 803.24C1568.98 803.747 1570.46 804.807 1571.28 806.421L1600.29 863.247C1600.51 863.749 1600.64 864.099 1600.68 864.296C1600.89 865.478 1600.55 866.653 1599.68 867.824C1598.79 868.928 1597.64 869.909 1596.23 870.766C1594.82 871.557 1593.39 872.08 1591.94 872.335C1590.69 872.555 1589.58 872.549 1588.59 872.317C1587.65 872.008 1586.93 871.357 1586.42 870.365L1580.9 858.645L1560.12 862.309L1558.94 875.21C1558.86 876.306 1558.4 877.165 1557.57 877.787C1556.72 878.343 1555.67 878.731 1554.42 878.951ZM1561.19 849.936L1575.56 847.4L1563.72 822.275L1561.19 849.936ZM1622.7 866.911C1620.8 867.247 1618.96 867.165 1617.18 866.667C1615.46 866.157 1614.47 865.114 1614.19 863.538L1604.76 810.063L1591.17 812.46C1589.73 812.714 1588.45 812.227 1587.36 810.999C1586.32 809.694 1585.63 808.122 1585.31 806.284C1585.02 804.642 1585.11 803.036 1585.58 801.464C1586.04 799.892 1587.1 798.962 1588.74 798.672L1631.28 791.171C1632.92 790.881 1634.23 791.395 1635.21 792.712C1636.19 794.029 1636.82 795.508 1637.11 797.15C1637.43 798.988 1637.33 800.699 1636.8 802.282C1636.25 803.8 1635.22 804.692 1633.71 804.958L1620.12 807.354L1629.55 860.829C1629.83 862.405 1629.22 863.731 1627.72 864.809C1626.28 865.874 1624.61 866.575 1622.7 866.911ZM1661.41 860.087C1659.77 860.376 1658.15 860.254 1656.57 859.721C1655.05 859.176 1654.15 858.116 1653.88 856.54L1642.85 794.005C1642.57 792.429 1643.05 791.126 1644.29 790.095C1645.6 789.053 1647.07 788.387 1648.71 788.097L1683.77 781.915C1685.41 781.626 1686.72 782.14 1687.7 783.457C1688.66 784.708 1689.29 786.122 1689.56 787.697C1689.89 789.536 1689.78 791.214 1689.23 792.731C1688.68 794.183 1687.64 795.042 1686.13 795.309L1659.74 799.962L1662.68 816.606L1677.45 814.001C1678.96 813.735 1680.22 814.156 1681.22 815.264C1682.22 816.307 1682.86 817.616 1683.14 819.192C1683.37 820.505 1683.24 821.882 1682.75 823.322C1682.24 824.697 1681.17 825.529 1679.53 825.819L1664.76 828.423L1667.71 845.165L1694.1 840.511C1695.61 840.245 1696.88 840.732 1697.92 841.972C1698.93 843.146 1699.61 844.652 1699.93 846.49C1700.21 848.066 1700.11 849.64 1699.65 851.212C1699.17 852.718 1698.11 853.615 1696.47 853.905L1661.41 860.087ZM1714.49 850.726C1712.46 851.085 1710.74 850.915 1709.33 850.215C1707.98 849.505 1707.2 848.526 1706.98 847.278L1695.92 784.546C1695.7 783.298 1696.1 782.111 1697.12 780.983C1698.2 779.844 1699.76 779.095 1701.8 778.736L1719.23 775.663C1723.76 774.864 1728 774.896 1731.94 775.757C1735.88 776.619 1739.21 778.572 1741.91 781.615C1744.68 784.647 1746.56 788.986 1747.56 794.633L1752.05 820.139C1753.05 825.785 1752.76 830.506 1751.2 834.302C1749.7 838.087 1747.25 841.058 1743.84 843.217C1740.43 845.375 1736.45 846.854 1731.92 847.652L1714.49 850.726ZM1720.8 835.804L1729.56 834.259C1732.32 833.773 1734.35 832.603 1735.65 830.749C1736.93 828.83 1737.28 826.196 1736.69 822.848L1732.19 797.342C1731.6 793.993 1730.38 791.67 1728.53 790.372C1726.66 789.009 1724.35 788.57 1721.59 789.056L1712.83 790.602L1720.8 835.804Z" fill="#EC5E88"/>
<path d="M2792.79 960.983C2792.36 961.059 2791.99 961.021 2791.68 960.87C2791.37 960.719 2791.19 960.521 2791.15 960.275L2789.55 951.219C2789.5 950.942 2789.6 950.695 2789.85 950.477C2790.1 950.259 2790.43 950.113 2790.86 950.037C2791.23 949.972 2791.56 950.002 2791.83 950.128C2792.12 950.251 2792.29 950.45 2792.34 950.727L2792.46 951.418C2792.61 950.932 2792.92 950.466 2793.38 950.021C2793.85 949.557 2794.47 949.258 2795.24 949.122C2795.96 948.995 2796.66 949.094 2797.34 949.418C2798.01 949.727 2798.58 950.204 2799.06 950.849C2799.56 951.49 2799.88 952.241 2800.03 953.102L2800.99 958.54C2801.05 958.863 2800.94 959.136 2800.66 959.359C2800.38 959.567 2800.05 959.704 2799.66 959.772C2799.32 959.832 2798.98 959.813 2798.63 959.716C2798.28 959.604 2798.07 959.387 2798.02 959.064L2797.06 953.626C2797 953.272 2796.84 952.958 2796.61 952.684C2796.38 952.406 2796.1 952.195 2795.76 952.049C2795.41 951.888 2795.06 951.84 2794.69 951.905C2794.38 951.959 2794.09 952.097 2793.83 952.317C2793.57 952.538 2793.37 952.818 2793.24 953.158C2793.11 953.497 2793.09 953.882 2793.16 954.312L2794.12 959.751C2794.17 959.997 2794.06 960.245 2793.8 960.496C2793.55 960.748 2793.21 960.91 2792.79 960.983ZM2802.5 945.467C2802.05 945.546 2801.64 945.468 2801.27 945.233C2800.89 944.982 2800.67 944.673 2800.6 944.304C2800.53 943.904 2800.64 943.538 2800.91 943.205C2801.18 942.856 2801.54 942.642 2801.98 942.564C2802.45 942.482 2802.85 942.561 2803.21 942.798C2803.57 943.021 2803.78 943.331 2803.85 943.731C2803.92 944.1 2803.82 944.465 2803.57 944.826C2803.32 945.172 2802.96 945.386 2802.5 945.467ZM2804.86 958.856C2804.43 958.932 2804.06 958.894 2803.74 958.743C2803.43 958.592 2803.25 958.394 2803.21 958.148L2801.61 949.092C2801.57 948.815 2801.66 948.568 2801.91 948.35C2802.16 948.133 2802.5 947.986 2802.93 947.91C2803.34 947.837 2803.71 947.859 2804.03 947.976C2804.35 948.094 2804.54 948.291 2804.59 948.568L2806.18 957.624C2806.23 957.87 2806.12 958.118 2805.86 958.37C2805.61 958.621 2805.27 958.783 2804.86 958.856ZM2813.29 957.582C2812.13 957.788 2811.14 957.749 2810.33 957.464C2809.52 957.179 2808.87 956.714 2808.39 956.07C2807.91 955.41 2807.59 954.635 2807.44 953.744L2807.11 951.9C2806.96 951.009 2806.98 950.181 2807.2 949.414C2807.42 948.63 2807.87 947.965 2808.53 947.42C2809.21 946.873 2810.12 946.499 2811.26 946.298C2811.98 946.171 2812.63 946.143 2813.21 946.215C2813.8 946.286 2814.27 946.432 2814.65 946.651C2815.02 946.871 2815.23 947.135 2815.28 947.442C2815.32 947.626 2815.3 947.843 2815.23 948.092C2815.18 948.324 2815.07 948.54 2814.92 948.742C2814.78 948.94 2814.6 949.06 2814.36 949.101C2814.2 949.131 2814.01 949.108 2813.81 949.033C2813.62 948.955 2813.38 948.887 2813.08 948.828C2812.79 948.769 2812.41 948.781 2811.95 948.862C2811.16 949 2810.63 949.292 2810.34 949.739C2810.05 950.17 2809.97 950.716 2810.09 951.376L2810.41 953.22C2810.53 953.88 2810.8 954.371 2811.22 954.693C2811.63 955 2812.24 955.082 2813.04 954.942C2813.52 954.858 2813.88 954.731 2814.12 954.562C2814.36 954.393 2814.55 954.24 2814.7 954.103C2814.87 953.963 2815.04 953.876 2815.22 953.844C2815.5 953.795 2815.75 953.831 2815.96 953.952C2816.18 954.071 2816.36 954.237 2816.5 954.451C2816.64 954.647 2816.73 954.838 2816.76 955.022C2816.82 955.329 2816.7 955.659 2816.41 956.01C2816.14 956.359 2815.73 956.677 2815.18 956.964C2814.65 957.249 2814.02 957.455 2813.29 957.582ZM2823.68 955.751C2822.59 955.943 2821.59 955.922 2820.68 955.687C2819.78 955.433 2819.03 954.995 2818.42 954.373C2817.82 953.735 2817.44 952.947 2817.27 952.01L2816.93 950.051C2816.78 949.222 2816.87 948.422 2817.19 947.652C2817.53 946.864 2818.04 946.196 2818.72 945.649C2819.41 945.083 2820.22 944.718 2821.16 944.552C2822.02 944.401 2822.84 944.447 2823.61 944.691C2824.4 944.932 2825.07 945.336 2825.63 945.903C2826.19 946.47 2826.54 947.183 2826.69 948.044C2826.81 948.704 2826.79 949.199 2826.62 949.529C2826.46 949.844 2826.21 950.069 2825.89 950.206C2825.58 950.324 2825.24 950.414 2824.89 950.476L2820.21 951.301L2820.27 951.647C2820.39 952.308 2820.73 952.802 2821.29 953.13C2821.87 953.44 2822.56 953.525 2823.36 953.384C2823.87 953.294 2824.27 953.143 2824.59 952.93C2824.9 952.717 2825.16 952.519 2825.38 952.338C2825.61 952.156 2825.82 952.046 2826.04 952.008C2826.27 951.968 2826.48 952.009 2826.68 952.133C2826.87 952.257 2827.04 952.418 2827.17 952.617C2827.3 952.801 2827.37 952.969 2827.4 953.123C2827.45 953.384 2827.33 953.698 2827.04 954.065C2826.77 954.414 2826.35 954.75 2825.77 955.073C2825.21 955.379 2824.51 955.604 2823.68 955.751ZM2819.9 949.55L2823.27 948.957C2823.53 948.911 2823.7 948.841 2823.78 948.748C2823.87 948.637 2823.89 948.458 2823.85 948.213C2823.79 947.859 2823.63 947.562 2823.38 947.321C2823.15 947.077 2822.87 946.905 2822.53 946.805C2822.21 946.703 2821.87 946.685 2821.5 946.75C2821.15 946.812 2820.83 946.947 2820.55 947.155C2820.27 947.347 2820.05 947.599 2819.9 947.911C2819.76 948.205 2819.72 948.536 2819.79 948.905L2819.9 949.55ZM2834.67 958.85C2834.06 958.958 2833.63 958.9 2833.38 958.674C2833.12 958.466 2832.97 958.208 2832.91 957.901C2832.84 957.502 2832.9 957.166 2833.09 956.895C2833.27 956.627 2833.51 956.466 2833.81 956.411C2834.09 956.363 2834.28 956.243 2834.37 956.052C2834.48 955.874 2834.53 955.644 2834.51 955.362C2834.51 955.078 2834.47 954.759 2834.41 954.405L2832.51 943.643C2832.46 943.367 2832.56 943.12 2832.81 942.902C2833.06 942.684 2833.39 942.539 2833.8 942.466C2834.23 942.39 2834.61 942.411 2834.93 942.528C2835.25 942.646 2835.44 942.843 2835.49 943.119L2837.38 953.881C2837.53 954.726 2837.53 955.502 2837.39 956.209C2837.25 956.915 2836.94 957.499 2836.49 957.96C2836.04 958.418 2835.44 958.715 2834.67 958.85ZM2833.39 940.019C2832.95 940.097 2832.54 940.019 2832.17 939.784C2831.79 939.534 2831.57 939.224 2831.5 938.856C2831.43 938.456 2831.53 938.09 2831.81 937.756C2832.08 937.408 2832.44 937.194 2832.88 937.115C2833.34 937.034 2833.75 937.112 2834.11 937.35C2834.47 937.572 2834.68 937.883 2834.75 938.283C2834.82 938.651 2834.72 939.016 2834.47 939.378C2834.21 939.724 2833.86 939.938 2833.39 940.019ZM2844.15 952.142C2843.26 952.299 2842.4 952.229 2841.57 951.932C2840.74 951.619 2840.03 951.142 2839.44 950.501C2838.85 949.861 2838.48 949.125 2838.34 948.296L2838 946.406C2837.86 945.576 2837.94 944.769 2838.26 943.984C2838.58 943.183 2839.08 942.501 2839.76 941.939C2840.45 941.373 2841.25 941.01 2842.16 940.85C2843.06 940.691 2843.93 940.759 2844.76 941.057C2845.6 941.336 2846.3 941.79 2846.87 942.418C2847.46 943.043 2847.83 943.786 2847.98 944.647L2848.31 946.536C2848.46 947.351 2848.36 948.159 2848.03 948.963C2847.7 949.766 2847.18 950.458 2846.49 951.039C2845.82 951.617 2845.04 951.985 2844.15 952.142ZM2843.69 949.538C2844.06 949.473 2844.38 949.314 2844.65 949.06C2844.92 948.806 2845.12 948.501 2845.25 948.146C2845.37 947.776 2845.4 947.414 2845.34 947.06L2845.01 945.171C2844.95 944.817 2844.8 944.503 2844.56 944.229C2844.32 943.954 2844.03 943.744 2843.69 943.598C2843.36 943.435 2843 943.387 2842.61 943.454C2842.25 943.519 2841.93 943.679 2841.65 943.933C2841.38 944.187 2841.18 944.491 2841.05 944.846C2840.94 945.183 2840.91 945.529 2840.98 945.882L2841.31 947.772C2841.37 948.125 2841.52 948.456 2841.74 948.764C2841.99 949.054 2842.28 949.272 2842.62 949.417C2842.96 949.563 2843.32 949.603 2843.69 949.538ZM2857.05 949.866C2856.33 949.994 2855.65 949.924 2855 949.659C2854.35 949.393 2853.86 949.044 2853.53 948.611L2853.64 949.256C2853.69 949.502 2853.59 949.748 2853.37 949.993C2853.16 950.236 2852.86 950.392 2852.48 950.459C2852.06 950.533 2851.7 950.494 2851.39 950.343C2851.07 950.192 2850.9 949.993 2850.85 949.748L2848.13 934.308C2848.08 934.031 2848.18 933.784 2848.43 933.566C2848.68 933.349 2849.01 933.203 2849.42 933.13C2849.85 933.054 2850.23 933.075 2850.55 933.193C2850.87 933.31 2851.06 933.507 2851.1 933.784L2852.35 940.858C2852.52 940.369 2852.82 939.904 2853.27 939.461C2853.71 939.003 2854.29 938.71 2855.02 938.583C2855.77 938.45 2856.49 938.545 2857.18 938.866C2857.87 939.173 2858.46 939.647 2858.95 940.289C2859.45 940.93 2859.77 941.681 2859.92 942.542L2860.25 944.431C2860.4 945.245 2860.35 946.046 2860.11 946.833C2859.86 947.62 2859.48 948.291 2858.94 948.845C2858.42 949.396 2857.79 949.736 2857.05 949.866ZM2855.65 947.429C2856.02 947.364 2856.34 947.204 2856.61 946.951C2856.88 946.681 2857.07 946.37 2857.18 946.018C2857.31 945.663 2857.34 945.309 2857.28 944.955L2856.95 943.066C2856.88 942.712 2856.73 942.398 2856.5 942.124C2856.27 941.846 2855.99 941.635 2855.65 941.489C2855.3 941.328 2854.94 941.282 2854.55 941.349C2854.23 941.406 2853.92 941.548 2853.63 941.773C2853.35 941.997 2853.13 942.281 2852.97 942.626C2852.83 942.968 2852.79 943.355 2852.87 943.785L2853.27 946.089C2853.3 946.243 2853.43 946.442 2853.66 946.686C2853.89 946.915 2854.18 947.117 2854.53 947.293C2854.89 947.451 2855.26 947.497 2855.65 947.429ZM2869.29 947.494C2868.92 947.559 2868.57 947.543 2868.22 947.447C2867.88 947.332 2867.68 947.113 2867.62 946.79L2864.99 931.858C2864.93 931.52 2865.04 931.254 2865.33 931.062C2865.62 930.851 2865.95 930.714 2866.32 930.649C2866.71 930.581 2867.07 930.597 2867.4 930.696C2867.73 930.78 2867.93 930.991 2867.99 931.329L2870.62 946.262C2870.68 946.585 2870.57 946.858 2870.29 947.081C2870.01 947.289 2869.68 947.427 2869.29 947.494ZM2883.17 950.299C2882.26 950.459 2881.39 950.477 2880.57 950.354C2879.75 950.244 2879.07 949.985 2878.5 949.577C2877.96 949.167 2877.62 948.623 2877.5 947.947C2877.4 947.364 2877.47 946.836 2877.72 946.364C2877.98 945.908 2878.32 945.522 2878.75 945.208C2878.44 945.121 2878.17 944.979 2877.94 944.781C2877.73 944.565 2877.59 944.273 2877.53 943.904C2877.45 943.474 2877.5 943.109 2877.67 942.81C2877.85 942.493 2878.09 942.189 2878.39 941.899C2877.86 941.627 2877.43 941.268 2877.08 940.823C2876.74 940.359 2876.52 939.828 2876.42 939.229L2876.33 938.745C2876.2 937.992 2876.27 937.299 2876.54 936.665C2876.82 936.029 2877.27 935.49 2877.89 935.048C2878.52 934.604 2879.29 934.303 2880.18 934.146C2880.69 934.056 2881.17 934.034 2881.64 934.078C2882.1 934.107 2882.53 934.198 2882.92 934.351C2883.08 933.69 2883.25 933.232 2883.44 932.976C2883.63 932.721 2883.84 932.574 2884.05 932.536C2884.42 932.471 2884.72 932.528 2884.96 932.708C2885.22 932.885 2885.36 933.066 2885.39 933.251C2885.41 933.389 2885.4 933.518 2885.34 933.64C2885.3 933.758 2885.23 933.865 2885.14 933.961C2885 934.08 2884.84 934.226 2884.67 934.4C2884.49 934.558 2884.34 934.767 2884.21 935.027C2884.54 935.286 2884.8 935.596 2884.99 935.959C2885.19 936.303 2885.33 936.698 2885.41 937.144L2885.5 937.628C2885.63 938.365 2885.55 939.059 2885.27 939.711C2884.99 940.347 2884.53 940.895 2883.9 941.355C2883.27 941.815 2882.5 942.123 2881.61 942.281C2881.06 942.378 2880.55 942.397 2880.08 942.337C2880.01 942.412 2879.96 942.494 2879.91 942.581C2879.87 942.666 2879.87 942.755 2879.88 942.847C2879.93 943.108 2880.13 943.263 2880.49 943.311C2880.84 943.359 2881.29 943.367 2881.82 943.337C2882.36 943.306 2882.92 943.293 2883.53 943.297C2884.14 943.284 2884.73 943.339 2885.29 943.462C2885.85 943.585 2886.34 943.831 2886.75 944.202C2887.16 944.557 2887.43 945.088 2887.55 945.795C2887.71 946.655 2887.58 947.39 2887.18 947.999C2886.8 948.621 2886.25 949.122 2885.52 949.503C2884.81 949.882 2884.03 950.147 2883.17 950.299ZM2882.79 948.394C2883.38 948.288 2883.87 948.053 2884.23 947.688C2884.61 947.32 2884.75 946.891 2884.67 946.399C2884.61 946.076 2884.47 945.832 2884.25 945.664C2884.03 945.497 2883.75 945.388 2883.41 945.337C2883.09 945.299 2882.74 945.282 2882.36 945.286C2881.98 945.305 2881.6 945.324 2881.23 945.343C2880.89 945.577 2880.63 945.845 2880.44 946.146C2880.26 946.448 2880.2 946.783 2880.26 947.152C2880.35 947.659 2880.64 948.021 2881.12 948.237C2881.62 948.45 2882.17 948.502 2882.79 948.394ZM2881.34 940.475C2881.85 940.386 2882.21 940.123 2882.44 939.688C2882.66 939.252 2882.72 938.735 2882.62 938.135L2882.53 937.652C2882.43 937.083 2882.2 936.633 2881.84 936.3C2881.5 935.965 2881.06 935.844 2880.52 935.939C2880 936.031 2879.62 936.295 2879.4 936.731C2879.19 937.164 2879.14 937.664 2879.24 938.233L2879.32 938.693C2879.42 939.277 2879.64 939.745 2879.99 940.095C2880.35 940.443 2880.8 940.57 2881.34 940.475ZM2893.75 943.395C2892.83 943.557 2891.95 943.491 2891.11 943.197C2890.27 942.884 2889.57 942.415 2888.98 941.789C2888.41 941.146 2888.05 940.417 2887.91 939.603L2886.93 934.072C2886.89 933.842 2887 933.601 2887.25 933.35C2887.53 933.096 2887.86 932.934 2888.26 932.863C2888.66 932.793 2889.02 932.832 2889.35 932.98C2889.68 933.128 2889.86 933.317 2889.9 933.548L2890.88 939.079C2890.94 939.432 2891.09 939.746 2891.33 940.021C2891.57 940.295 2891.86 940.513 2892.2 940.674C2892.55 940.82 2892.9 940.86 2893.27 940.795C2893.66 940.727 2893.98 940.568 2894.23 940.317C2894.5 940.063 2894.7 939.758 2894.83 939.403C2894.96 939.048 2894.99 938.701 2894.93 938.363L2893.95 932.81C2893.91 932.564 2894.02 932.323 2894.28 932.087C2894.55 931.849 2894.88 931.696 2895.27 931.628C2895.71 931.549 2896.09 931.578 2896.4 931.713C2896.71 931.849 2896.88 932.04 2896.93 932.286L2897.91 937.839C2898.05 938.669 2897.96 939.485 2897.63 940.289C2897.3 941.074 2896.8 941.749 2896.11 942.315C2895.43 942.878 2894.64 943.238 2893.75 943.395ZM2906.09 941.219C2905 941.412 2904 941.39 2903.09 941.155C2902.19 940.902 2901.44 940.464 2900.84 939.841C2900.23 939.203 2899.85 938.416 2899.68 937.479L2899.34 935.52C2899.19 934.69 2899.28 933.89 2899.6 933.121C2899.94 932.333 2900.45 931.665 2901.13 931.117C2901.82 930.552 2902.63 930.186 2903.57 930.021C2904.43 929.869 2905.25 929.916 2906.02 930.16C2906.81 930.401 2907.48 930.805 2908.04 931.372C2908.6 931.938 2908.95 932.652 2909.11 933.512C2909.22 934.173 2909.2 934.668 2909.03 934.998C2908.87 935.312 2908.62 935.538 2908.3 935.674C2907.99 935.793 2907.65 935.883 2907.3 935.945L2902.62 936.77L2902.68 937.116C2902.8 937.776 2903.14 938.271 2903.71 938.599C2904.28 938.909 2904.97 938.993 2905.77 938.853C2906.28 938.763 2906.69 938.612 2907 938.399C2907.31 938.185 2907.57 937.988 2907.8 937.806C2908.02 937.625 2908.23 937.515 2908.45 937.477C2908.68 937.436 2908.89 937.478 2909.09 937.602C2909.29 937.726 2909.45 937.887 2909.58 938.086C2909.71 938.269 2909.78 938.438 2909.81 938.592C2909.86 938.853 2909.74 939.167 2909.45 939.534C2909.18 939.882 2908.76 940.218 2908.18 940.542C2907.62 940.847 2906.92 941.073 2906.09 941.219ZM2902.31 935.019L2905.68 934.425C2905.94 934.379 2906.11 934.31 2906.19 934.217C2906.28 934.106 2906.3 933.927 2906.26 933.681C2906.2 933.328 2906.04 933.031 2905.79 932.789C2905.56 932.545 2905.28 932.374 2904.94 932.274C2904.62 932.172 2904.28 932.153 2903.91 932.218C2903.56 932.281 2903.24 932.416 2902.96 932.624C2902.68 932.816 2902.46 933.068 2902.31 933.38C2902.17 933.674 2902.14 934.005 2902.2 934.373L2902.31 935.019ZM2915.69 939.528C2914.92 939.663 2914.2 939.695 2913.52 939.625C2912.85 939.536 2912.31 939.371 2911.89 939.129C2911.48 938.884 2911.25 938.6 2911.19 938.277C2911.16 938.108 2911.17 937.917 2911.21 937.704C2911.26 937.488 2911.35 937.291 2911.46 937.113C2911.59 936.932 2911.75 936.824 2911.95 936.789C2912.16 936.751 2912.4 936.804 2912.67 936.948C2912.94 937.073 2913.27 937.189 2913.65 937.296C2914.05 937.4 2914.57 937.395 2915.22 937.281C2915.91 937.16 2916.35 936.972 2916.52 936.719C2916.71 936.463 2916.79 936.22 2916.75 935.99C2916.69 935.652 2916.51 935.415 2916.2 935.279C2915.9 935.141 2915.54 935.055 2915.11 935.02C2914.67 934.971 2914.2 934.919 2913.7 934.864C2913.22 934.807 2912.75 934.708 2912.29 934.566C2911.84 934.409 2911.45 934.161 2911.12 933.823C2910.79 933.47 2910.56 932.978 2910.45 932.348C2910.36 931.795 2910.39 931.234 2910.56 930.666C2910.73 930.097 2911.08 929.591 2911.62 929.148C2912.16 928.689 2912.94 928.369 2913.97 928.187C2914.6 928.076 2915.21 928.041 2915.78 928.082C2916.37 928.104 2916.87 928.2 2917.26 928.368C2917.65 928.536 2917.87 928.758 2917.92 929.035C2917.95 929.173 2917.93 929.366 2917.88 929.612C2917.83 929.844 2917.73 930.066 2917.6 930.28C2917.48 930.492 2917.3 930.618 2917.07 930.659C2916.9 930.688 2916.68 930.671 2916.42 930.607C2916.17 930.525 2915.88 930.457 2915.55 930.404C2915.22 930.35 2914.85 930.361 2914.42 930.437C2914.03 930.505 2913.73 930.613 2913.52 930.761C2913.31 930.909 2913.17 931.07 2913.09 931.242C2913 931.415 2912.98 931.586 2913.01 931.755C2913.06 932.031 2913.23 932.223 2913.51 932.331C2913.8 932.438 2914.16 932.509 2914.6 932.544C2915.05 932.575 2915.51 932.62 2916 932.677C2916.5 932.716 2916.98 932.822 2917.43 932.994C2917.91 933.164 2918.31 933.441 2918.65 933.825C2918.98 934.194 2919.21 934.716 2919.33 935.392C2919.51 936.422 2919.29 937.309 2918.66 938.053C2918.04 938.795 2917.05 939.286 2915.69 939.528ZM2925.3 937.833C2924.53 937.969 2923.81 938.001 2923.13 937.93C2922.46 937.842 2921.92 937.676 2921.5 937.434C2921.09 937.189 2920.86 936.905 2920.8 936.583C2920.77 936.414 2920.77 936.223 2920.82 936.009C2920.87 935.793 2920.96 935.596 2921.07 935.418C2921.2 935.238 2921.36 935.13 2921.56 935.095C2921.77 935.057 2922.01 935.109 2922.28 935.253C2922.55 935.379 2922.88 935.495 2923.26 935.602C2923.66 935.706 2924.18 935.701 2924.83 935.587C2925.52 935.465 2925.95 935.278 2926.13 935.025C2926.32 934.769 2926.4 934.526 2926.36 934.295C2926.3 933.957 2926.12 933.721 2925.81 933.585C2925.51 933.447 2925.15 933.36 2924.72 933.326C2924.28 933.276 2923.81 933.224 2923.31 933.17C2922.82 933.113 2922.36 933.013 2921.9 932.871C2921.45 932.714 2921.06 932.467 2920.73 932.129C2920.39 931.775 2920.17 931.283 2920.06 930.654C2919.96 930.101 2920 929.54 2920.17 928.971C2920.34 928.403 2920.69 927.897 2921.23 927.453C2921.77 926.994 2922.55 926.674 2923.58 926.493C2924.21 926.382 2924.82 926.346 2925.39 926.387C2925.98 926.41 2926.47 926.505 2926.87 926.673C2927.26 926.842 2927.48 927.064 2927.53 927.34C2927.56 927.479 2927.54 927.671 2927.49 927.918C2927.44 928.149 2927.34 928.372 2927.21 928.586C2927.08 928.798 2926.91 928.924 2926.68 928.964C2926.51 928.994 2926.29 928.977 2926.03 928.913C2925.78 928.83 2925.49 928.762 2925.16 928.709C2924.83 928.656 2924.46 928.667 2924.03 928.743C2923.64 928.811 2923.34 928.919 2923.13 929.067C2922.92 929.215 2922.78 929.375 2922.69 929.548C2922.61 929.72 2922.59 929.891 2922.62 930.06C2922.67 930.337 2922.84 930.529 2923.12 930.636C2923.41 930.744 2923.77 930.815 2924.21 930.849C2924.66 930.881 2925.12 930.925 2925.61 930.982C2926.11 931.021 2926.58 931.127 2927.04 931.3C2927.52 931.47 2927.92 931.747 2928.26 932.131C2928.59 932.5 2928.82 933.022 2928.94 933.698C2929.12 934.727 2928.9 935.614 2928.27 936.359C2927.65 937.101 2926.66 937.592 2925.3 937.833Z" fill="#EEDAD5"/>
<path fill-rule="evenodd" clip-rule="evenodd" d="M1356.36 334.958C1363.13 330.01 1372.21 330.135 1379.41 334.434V334.434C1391.85 341.854 1408 335.881 1412.76 322.203V322.203C1415.52 314.268 1422.39 308.268 1430.77 307.661C1434.26 307.409 1437.78 307.281 1441.34 307.281C1444.7 307.281 1448.03 307.396 1451.34 307.622C1459.76 308.198 1466.66 314.162 1469.43 322.13V322.13C1474.22 335.901 1490.45 341.803 1502.97 334.333V334.333C1510.21 330.01 1519.33 329.874 1526.15 334.839C1531.71 338.886 1536.97 343.32 1541.89 348.102C1547.91 353.956 1549.32 362.957 1546.33 370.805V370.805C1541.18 384.361 1549.73 399.316 1564.05 401.629V401.629C1572.34 402.968 1579.38 408.702 1581.39 416.853C1583.05 423.581 1584.23 430.495 1584.91 437.557C1585.71 445.822 1581.02 453.54 1573.77 457.587V457.587C1561.24 464.58 1558.16 481.381 1567.54 492.235V492.235C1572.96 498.516 1574.65 507.33 1571 514.788C1567.82 521.307 1564.15 527.551 1560.06 533.474C1555.4 540.212 1546.96 543.063 1538.92 541.524V541.524C1524.97 538.859 1511.96 549.637 1512.17 563.83V563.83C1512.28 572.014 1507.99 579.744 1500.52 583.106C1493.8 586.134 1486.81 588.662 1479.59 590.643C1471.76 592.791 1463.56 589.61 1458.43 583.316V583.316C1449.51 572.366 1432.74 572.318 1423.82 583.268V583.268C1418.69 589.559 1410.51 592.703 1402.69 590.534C1395.4 588.511 1388.34 585.929 1381.56 582.837C1374.17 579.47 1369.93 571.805 1370.05 563.691V563.691C1370.25 549.57 1357.4 538.828 1343.52 541.48V541.48C1335.55 543.004 1327.25 540.168 1322.63 533.495C1318.42 527.406 1314.66 520.977 1311.41 514.258C1307.85 506.888 1309.52 498.2 1314.87 492.005V492.005C1324.14 481.269 1321.12 464.663 1308.73 457.747V457.747C1301.58 453.755 1296.96 446.156 1297.72 438.003C1298.4 430.7 1299.62 423.555 1301.35 416.608C1303.35 408.561 1310.3 402.899 1318.48 401.576V401.576C1332.63 399.29 1341.07 384.451 1335.97 371.055V371.055C1333.02 363.298 1334.39 354.376 1340.31 348.564C1345.32 343.652 1350.68 339.103 1356.36 334.958Z" fill="#EEDAD5"/>
<g clip-path="url(#clip1_2364_3609)">
<rect x="1523.68" y="497.132" width="51.5152" height="51.5152" rx="25.7576" transform="rotate(-18 1523.68 497.132)" fill="#4B516E"/>
<rect x="1510.78" y="482.13" width="66.6707" height="25.9355" rx="12.9677" transform="rotate(-18 1510.78 482.13)" fill="#DD5B80"/>
<rect x="1367.74" y="385.865" width="139.394" height="139.394" rx="69.697" transform="rotate(-3 1367.74 385.865)" fill="#4B516E"/>
<path fill-rule="evenodd" clip-rule="evenodd" d="M1424.87 498.389C1421.95 497.767 1419.23 500.088 1419.39 503.073L1419.53 505.743C1419.66 508.25 1421.8 510.175 1424.31 510.044L1430.36 509.727C1432.86 509.595 1434.79 507.457 1434.66 504.95L1434.6 503.902C1434.5 501.847 1433.02 500.121 1431.01 499.693L1424.87 498.389Z" fill="#EFDAD4"/>
<path fill-rule="evenodd" clip-rule="evenodd" d="M1463.38 496.371C1466.22 495.447 1469.16 497.471 1469.32 500.456L1469.46 503.126C1469.59 505.633 1467.67 507.772 1465.16 507.903L1459.11 508.22C1456.6 508.352 1454.46 506.426 1454.33 503.919L1454.27 502.871C1454.17 500.816 1455.45 498.945 1457.41 498.31L1463.38 496.371Z" fill="#EFDAD4"/>
<path fill-rule="evenodd" clip-rule="evenodd" d="M1503.32 425.367L1503.05 420.203C1501.69 394.298 1479.59 374.398 1453.69 375.756L1420.4 377.5C1394.49 378.858 1374.59 400.959 1375.95 426.864L1376.22 432.044L1377.32 437.446C1378.15 441.506 1381.54 444.544 1385.66 444.925C1387.79 445.121 1389.78 446.035 1391.32 447.516L1399.49 455.397C1407.39 463.01 1419.92 462.924 1427.71 455.204C1434.99 447.981 1446.54 447.376 1454.54 453.797C1463.1 460.661 1475.57 459.437 1482.62 451.04L1489.92 442.348C1491.3 440.715 1493.19 439.597 1495.28 439.18C1499.34 438.37 1502.39 434.994 1502.79 430.871L1503.32 425.367Z" fill="#4B516E"/>
<path fill-rule="evenodd" clip-rule="evenodd" d="M1380.37 380.633L1381.95 366.165C1382.9 357.539 1392.13 352.473 1399.91 356.308C1404.74 358.688 1410.56 357.708 1414.34 353.874L1419.82 348.323C1428.28 339.744 1441.89 339.031 1451.21 346.678L1457.34 351.707C1461.44 355.076 1467.24 355.438 1471.73 352.607C1479.06 347.989 1488.74 352.165 1490.4 360.663L1493.08 374.298C1493.67 377.327 1494.9 380.195 1496.68 382.715L1499.58 386.814C1503.78 392.746 1505.71 399.989 1505.01 407.223L1503.28 425.213L1503.01 420.061C1501.65 394.156 1479.55 374.257 1453.64 375.614L1420.42 377.355C1394.52 378.713 1374.62 400.814 1375.97 426.719L1376.24 431.857L1372.54 413.644C1371.15 406.836 1372.15 399.759 1375.36 393.598L1377.94 388.652C1379.24 386.153 1380.06 383.434 1380.37 380.633ZM1376.24 431.857L1376.88 444.061C1378.24 469.966 1400.34 489.866 1426.25 488.508L1459.47 486.767C1485.37 485.409 1505.27 463.308 1503.91 437.403L1503.28 425.213L1502.75 430.699C1502.35 434.82 1499.3 438.195 1495.24 439.004C1493.15 439.421 1491.26 440.538 1489.89 442.171L1482.59 450.858C1475.54 459.25 1463.07 460.474 1454.52 453.613C1446.52 447.195 1434.98 447.8 1427.7 455.019C1419.92 462.736 1407.39 462.822 1399.5 455.212L1391.33 447.336C1389.8 445.855 1387.8 444.942 1385.68 444.746C1381.56 444.365 1378.17 441.328 1377.35 437.271L1376.24 431.857Z" fill="#DD5B81"/>
<path d="M1381.95 366.165L1375.93 365.505L1375.93 365.505L1381.95 366.165ZM1380.37 380.633L1386.4 381.292L1386.4 381.292L1380.37 380.633ZM1399.91 356.308L1402.59 350.871L1402.59 350.871L1399.91 356.308ZM1414.34 353.874L1410.03 349.617L1410.03 349.617L1414.34 353.874ZM1419.82 348.323L1415.5 344.066L1415.5 344.066L1419.82 348.323ZM1451.21 346.678L1455.05 341.993L1455.05 341.993L1451.21 346.678ZM1457.34 351.707L1461.18 347.023L1461.18 347.023L1457.34 351.707ZM1471.73 352.607L1468.5 347.48L1468.5 347.48L1471.73 352.607ZM1490.4 360.663L1496.35 359.497L1496.35 359.497L1490.4 360.663ZM1493.08 374.298L1499.02 373.132L1499.02 373.132L1493.08 374.298ZM1496.68 382.715L1501.63 379.215L1501.63 379.215L1496.68 382.715ZM1499.58 386.814L1494.64 390.315L1494.64 390.315L1499.58 386.814ZM1505.01 407.223L1511.04 407.804L1511.04 407.804L1505.01 407.223ZM1453.64 375.614L1453.96 381.667L1453.64 375.614ZM1420.42 377.355L1420.1 371.303L1420.42 377.355ZM1372.54 413.644L1366.6 414.853L1366.6 414.853L1372.54 413.644ZM1375.36 393.598L1380.73 396.399L1375.36 393.598ZM1377.94 388.652L1372.56 385.851L1372.56 385.851L1377.94 388.652ZM1426.25 488.508L1425.93 482.456L1426.25 488.508ZM1459.47 486.767L1459.78 492.819L1459.47 486.767ZM1503.91 437.403L1497.86 437.721L1503.91 437.403ZM1502.75 430.699L1508.78 431.28L1508.78 431.28L1502.75 430.699ZM1495.24 439.004L1496.42 444.948L1496.42 444.948L1495.24 439.004ZM1489.89 442.171L1494.53 446.07L1494.53 446.07L1489.89 442.171ZM1482.59 450.858L1487.23 454.757L1487.23 454.757L1482.59 450.858ZM1454.52 453.613L1458.32 448.887L1458.32 448.887L1454.52 453.613ZM1427.7 455.019L1423.43 450.715L1423.43 450.715L1427.7 455.019ZM1399.5 455.212L1395.29 459.575L1395.29 459.575L1399.5 455.212ZM1391.33 447.336L1395.54 442.973L1395.54 442.973L1391.33 447.336ZM1385.68 444.746L1385.12 450.781L1385.12 450.781L1385.68 444.746ZM1377.35 437.271L1371.41 438.48L1371.41 438.48L1377.35 437.271ZM1375.93 365.505L1374.35 379.973L1386.4 381.292L1387.98 366.825L1375.93 365.505ZM1402.59 350.871C1391.03 345.178 1377.33 352.698 1375.93 365.505L1387.98 366.825C1388.47 362.379 1393.22 359.768 1397.23 361.745L1402.59 350.871ZM1410.03 349.617C1408.08 351.593 1405.08 352.098 1402.59 350.871L1397.23 361.745C1404.41 365.279 1413.04 363.823 1418.65 358.131L1410.03 349.617ZM1415.5 344.066L1410.03 349.617L1418.65 358.131L1424.13 352.58L1415.5 344.066ZM1455.05 341.993C1443.32 332.359 1426.17 333.257 1415.5 344.066L1424.13 352.58C1430.4 346.231 1440.47 345.703 1447.36 351.362L1455.05 341.993ZM1461.18 347.023L1455.05 341.993L1447.36 351.362L1453.49 356.392L1461.18 347.023ZM1468.5 347.48C1466.22 348.919 1463.27 348.735 1461.18 347.023L1453.49 356.392C1459.61 361.417 1468.27 361.957 1474.96 357.734L1468.5 347.48ZM1496.35 359.497C1493.87 346.821 1479.43 340.592 1468.5 347.48L1474.96 357.734C1478.69 355.386 1483.61 357.509 1484.46 361.829L1496.35 359.497ZM1499.02 373.132L1496.35 359.497L1484.46 361.829L1487.13 375.464L1499.02 373.132ZM1501.63 379.215C1500.34 377.394 1499.45 375.321 1499.02 373.132L1487.13 375.464C1487.89 379.333 1489.46 382.997 1491.73 386.216L1501.63 379.215ZM1504.53 383.314L1501.63 379.215L1491.73 386.216L1494.64 390.315L1504.53 383.314ZM1511.04 407.804C1511.88 399.124 1509.57 390.432 1504.53 383.314L1494.64 390.315C1497.99 395.06 1499.53 400.855 1498.98 406.641L1511.04 407.804ZM1509.31 425.794L1511.04 407.804L1498.98 406.641L1497.24 424.632L1509.31 425.794ZM1496.95 420.379L1497.22 425.53L1509.33 424.896L1509.06 419.744L1496.95 420.379ZM1453.96 381.667C1476.52 380.484 1495.77 397.816 1496.95 420.379L1509.06 419.744C1507.53 390.497 1482.57 368.029 1453.33 369.562L1453.96 381.667ZM1420.74 383.408L1453.96 381.667L1453.33 369.562L1420.1 371.303L1420.74 383.408ZM1382.03 426.402C1380.84 403.839 1398.18 384.59 1420.74 383.408L1420.1 371.303C1390.86 372.836 1368.39 397.788 1369.92 427.036L1382.03 426.402ZM1382.3 431.54L1382.03 426.402L1369.92 427.036L1370.19 432.174L1382.3 431.54ZM1366.6 414.853L1370.3 433.065L1382.18 430.648L1378.48 412.436L1366.6 414.853ZM1369.98 390.797C1366.13 398.191 1364.94 406.683 1366.6 414.853L1378.48 412.436C1377.37 406.989 1378.16 401.328 1380.73 396.399L1369.98 390.797ZM1372.56 385.851L1369.98 390.797L1380.73 396.399L1383.31 391.453L1372.56 385.851ZM1374.35 379.973C1374.12 382.026 1373.52 384.02 1372.56 385.851L1383.31 391.453C1384.96 388.287 1386.01 384.841 1386.4 381.292L1374.35 379.973ZM1382.94 443.744L1382.3 431.54L1370.19 432.174L1370.83 444.378L1382.94 443.744ZM1425.93 482.456C1403.37 483.638 1384.12 466.306 1382.94 443.744L1370.83 444.378C1372.36 473.626 1397.32 496.093 1426.56 494.56L1425.93 482.456ZM1459.15 480.715L1425.93 482.456L1426.56 494.56L1459.78 492.819L1459.15 480.715ZM1497.86 437.721C1499.04 460.283 1481.71 479.532 1459.15 480.715L1459.78 492.819C1489.03 491.286 1511.5 466.334 1509.97 437.086L1497.86 437.721ZM1497.22 425.53L1497.86 437.721L1509.97 437.086L1509.33 424.896L1497.22 425.53ZM1508.78 431.28L1509.31 425.794L1497.24 424.632L1496.71 430.118L1508.78 431.28ZM1496.42 444.948C1503.11 443.616 1508.13 438.063 1508.78 431.28L1496.71 430.118C1496.57 431.578 1495.49 432.774 1494.05 433.06L1496.42 444.948ZM1494.53 446.07C1495.01 445.491 1495.68 445.095 1496.42 444.948L1494.05 433.06C1490.61 433.746 1487.51 435.585 1485.25 438.272L1494.53 446.07ZM1487.23 454.757L1494.53 446.07L1485.25 438.272L1477.95 446.959L1487.23 454.757ZM1450.73 458.34C1461.85 467.262 1478.06 465.671 1487.23 454.757L1477.95 446.959C1473.02 452.83 1464.3 453.686 1458.32 448.887L1450.73 458.34ZM1431.97 459.324C1437.06 454.274 1445.14 453.851 1450.73 458.34L1458.32 448.887C1447.91 440.54 1432.91 441.326 1423.43 450.715L1431.97 459.324ZM1395.29 459.575C1405.56 469.471 1421.84 469.359 1431.97 459.324L1423.43 450.715C1417.99 456.113 1409.23 456.173 1403.71 450.85L1395.29 459.575ZM1387.13 451.698L1395.29 459.575L1403.71 450.85L1395.54 442.973L1387.13 451.698ZM1385.12 450.781C1385.88 450.85 1386.58 451.174 1387.13 451.698L1395.54 442.973C1393.01 440.537 1389.73 439.033 1386.24 438.711L1385.12 450.781ZM1371.41 438.48C1372.77 445.157 1378.34 450.155 1385.12 450.781L1386.24 438.711C1384.78 438.576 1383.58 437.5 1383.28 436.063L1371.41 438.48ZM1370.3 433.065L1371.41 438.48L1383.28 436.063L1382.18 430.648L1370.3 433.065Z" fill="#DD5B81"/>
<path d="M1434.9 466.521L1432.1 473.299C1429.97 478.444 1433.94 484.05 1439.5 483.759L1445.8 483.429C1451.36 483.137 1454.71 477.148 1452.06 472.253L1448.57 465.805C1445.53 460.198 1437.34 460.627 1434.9 466.521Z" fill="#EFDAD4"/>
<rect x="1323.9" y="533.817" width="22.7273" height="36.3636" rx="9.09091" transform="rotate(-3 1323.9 533.817)" fill="#D2896E"/>
<rect x="1315.24" y="495.125" width="51.5152" height="51.5152" rx="25.7576" transform="rotate(12 1315.24 495.125)" fill="#4B516E"/>
<rect x="1310.09" y="475.369" width="66.6735" height="25.9355" rx="12.9677" transform="rotate(12 1310.09 475.369)" fill="#DD5B80"/>
<rect x="1321.36" y="485.399" width="22.7273" height="36.3636" rx="9.09091" transform="rotate(-3 1321.36 485.399)" fill="#DE8A6A"/>
<path d="M1334.18 499.899C1338.75 499.66 1342.8 496.865 1344.64 492.675L1355.57 467.827C1359.2 459.563 1352.85 450.369 1343.84 450.841L1318.09 452.191C1309.07 452.664 1303.72 462.471 1308.2 470.309L1321.66 493.879C1323.93 497.854 1328.25 500.21 1332.82 499.97L1334.18 499.899Z" fill="#DE8A6A"/>
<path d="M1327.01 473.972C1329.58 477.6 1335.06 477.313 1337.24 473.436L1340.34 467.927C1342.68 463.764 1339.51 458.655 1334.74 458.905L1327.98 459.259C1323.21 459.509 1320.59 464.921 1323.36 468.817L1327.01 473.972Z" fill="#CC5879"/>
<rect opacity="0.01" x="1364.54" y="383.049" width="145.455" height="142.424" transform="rotate(-3 1364.54 383.049)" fill="white" fill-opacity="0.01"/>
</g>
<g filter="url(#filter0_d_2364_3609)">
<rect x="1361.2" y="340.699" width="251.808" height="53" rx="18" transform="rotate(38 1361.2 340.699)" fill="#DD5B81"/>
<rect width="251.808" height="53" rx="18" transform="matrix(-0.615661 0.788011 0.788011 0.615661 1500.73 323.567)" fill="#DD5B81"/>
</g>
</g>
<defs>
<filter id="filter0_d_2364_3609" x="1278.53" y="273.533" width="331.127" height="331.127" filterUnits="userSpaceOnUse" color-interpolation-filters="sRGB">
<feFlood flood-opacity="0" result="BackgroundImageFix"/>
<feColorMatrix in="SourceAlpha" type="matrix" values="0 0 0 0 0 0 0 0 0 0 0 0 0 0 0 0 0 0 127 0" result="hardAlpha"/>
<feOffset/>
<feGaussianBlur stdDeviation="28.65"/>
<feComposite in2="hardAlpha" operator="out"/>
<feColorMatrix type="matrix" values="0 0 0 0 0 0 0 0 0 0 0 0 0 0 0 0 0 0 0.25 0"/>
<feBlend mode="normal" in2="BackgroundImageFix" result="effect1_dropShadow_2364_3609"/>
<feBlend mode="normal" in="SourceGraphic" in2="effect1_dropShadow_2364_3609" result="shape"/>
</filter>
<clipPath id="clip0_2364_3609">
<rect width="2960" height="1000" fill="white"/>
</clipPath>
<clipPath id="clip1_2364_3609">
<rect width="300" height="230.303" fill="white" transform="translate(1285 341.701) rotate(-3)"/>
</clipPath>
</defs>
</svg>
