<svg width="5396" height="4673" viewBox="0 0 5396 4673" fill="none" xmlns="http://www.w3.org/2000/svg">
<g id="floor" clip-path="url(#clip0_2280_874)">
<rect width="5396" height="4673" fill="#EEDAD5"/>
<g id="floorTexture">
<g id="floorTexture_2">
<path id="Vector 753" d="M-1649.42 -1012.13L-1467.12 -1269.38C-1432.49 -1318.25 -1387.33 -1358.72 -1334.97 -1387.8L-1120.86 -1506.71C-1061 -1539.95 -993.615 -1557.28 -925.148 -1557.02L-394.313 -1555.03C-142.01 -1554.08 46.4141 -1322.64 -3.82061 -1075.39L-43.31 -881.026C-67.5312 -761.81 -144.689 -660.095 -252.967 -604.642L-866.705 -290.324C-979.06 -232.783 -1111.98 -231.654 -1225.3 -287.279L-1499.32 -421.788C-1720.48 -530.352 -1791.87 -811.118 -1649.42 -1012.13Z" fill="#E6C5BA"/>
<path id="Vector 761" d="M-933.992 2395.39L-727.108 2522.73C-676.47 2553.9 -633.418 2595.97 -601.086 2645.87L-486.965 2822.01C-449.86 2879.27 -428.022 2945.08 -423.53 3013.17L-395.067 3444.53C-378.378 3697.45 -598.144 3901.92 -849.209 3867.06L-970.968 3850.16C-1090.68 3833.54 -1196.45 3763.68 -1258.74 3660.11L-1569.05 3144.15C-1634.11 3035.97 -1644.29 2903.43 -1596.5 2786.58L-1513.9 2584.62C-1420.44 2356.07 -1144.27 2265.96 -933.992 2395.39Z" fill="#E6C5BA"/>
<path id="Vector 754" d="M-1052.32 649.473L-959.408 481.339C-868.672 317.137 -676.01 238.056 -496.079 291.16L-41.0171 425.464C62.5166 456.021 149.305 527.126 199.63 622.626L361.666 930.114C455.768 1108.69 402.078 1329.39 236.464 1444.78L11.9397 1601.22C-73.6682 1660.87 -179.195 1684.71 -282.13 1667.65L-611.674 1613.04C-747.839 1590.47 -862.75 1499.3 -915.686 1371.83L-1071.62 996.348C-1118.36 883.818 -1111.25 756.122 -1052.32 649.473Z" fill="#E6C5BA"/>
<path id="Vector 762" d="M1897.82 2476.99L1510.24 2631.96C1430.62 2663.8 1342.87 2669.21 1259.94 2647.39L747.886 2512.65C628.765 2481.31 530.729 2396.83 482.127 2283.65L427.483 2156.4C307.456 1876.89 530.982 1571.01 833.744 1600.45L971.914 1613.89C1138.31 1630.07 1296.35 1537.81 1364.09 1384.97C1467.18 1152.31 1762.61 1080.28 1961.22 1239.38L2080.99 1335.33C2195.26 1426.87 2250.39 1573.52 2224.71 1717.67L2143.11 2175.73C2118.87 2311.78 2026.13 2425.68 1897.82 2476.99Z" fill="#E6C5BA"/>
<path id="Vector 774" d="M-491.142 5420.9L-863.448 5469.48C-1027 5490.82 -1186.88 5409.58 -1266.08 5264.9L-1452.35 4924.59C-1511.49 4816.54 -1517.56 4687.27 -1468.79 4574.16L-1351.71 4302.62C-1247.85 4061.73 -944.132 3984.34 -737.661 4146.16L-344.418 4454.35C-301.036 4488.35 -251.094 4513.02 -197.728 4526.8L210.282 4632.21C444.353 4692.68 554.281 4961.4 429.702 5168.58C372.306 5264.04 274.118 5327.71 163.554 5341.17L-491.142 5420.9Z" fill="#E6C5BA"/>
<path id="Vector 773" d="M3484.27 5742.87L3008.32 6189.78C2946.81 6247.54 2868.62 6284.36 2784.92 6295L2262.22 6361.4C2109.08 6380.85 1958.42 6310.45 1875.09 6180.51L1713.93 5929.18C1571.52 5707.1 1679.33 5410.4 1931.08 5331.54L2361.7 5196.66C2500.1 5153.31 2604.2 5038.44 2633.75 4896.46L2690.95 4621.61C2742.03 4376.24 3003.58 4237.74 3235.24 4333.4L3367.44 4388C3517.96 4450.15 3615.77 4597.35 3614.76 4760.2L3610.46 5453.75C3609.78 5563.34 3564.16 5667.85 3484.27 5742.87Z" fill="#E6C5BA"/>
<path id="Vector 758" d="M725.799 -165.439L665.518 -473.946C640.707 -600.928 678.848 -732.07 767.892 -825.939L991.815 -1061.99C1064.21 -1138.31 1163.75 -1183.04 1268.88 -1186.49L1578.92 -1196.68C1830.83 -1204.96 2027.53 -980.998 1986.8 -732.257L1963.71 -591.248C1954.56 -535.376 1933.65 -482.082 1902.37 -434.892L1624.9 -16.2857C1548.6 98.8291 1418.31 166.44 1280.26 162.56L1107.14 157.696C920.091 152.44 761.682 18.2103 725.799 -165.439Z" fill="#E6C5BA"/>
<path id="Vector 759" d="M2286.55 565.95L2359.26 481.996C2515.75 301.303 2794.74 297.297 2956.35 473.423L2968.18 486.309C3160.94 696.38 3078.31 1034.92 2810.44 1132.56L2703.74 1171.45C2568.62 1220.71 2417.26 1189.42 2312.75 1090.62C2164.98 950.935 2153.44 719.657 2286.55 565.95Z" fill="#E6C5BA"/>
<path id="Vector 766" d="M3351.41 -1662.69L3916.27 -1067.03C4062.14 -913.201 4062.67 -672.289 3917.48 -517.826L3418.37 13.1524C3319.51 118.325 3171.65 162.077 3031.48 127.639L2662.16 36.9018C2440.9 -17.4594 2309.66 -245.387 2373.74 -464.034L2677.31 -1499.94C2764.06 -1795.99 3139.13 -1886.55 3351.41 -1662.69Z" fill="#E6C5BA"/>
<path id="Vector 782" d="M4779.53 -163.325L4746.99 -243.888C4675.79 -420.166 4440.09 -452.539 4324 -301.987C4255.29 -212.877 4255.78 -88.507 4325.2 0.0537637L4378.8 68.4353C4479.3 196.637 4676.82 185.327 4762.02 46.4921C4800.8 -16.7103 4807.3 -94.5672 4779.53 -163.325Z" fill="#E6C5BA"/>
<path id="Vector 767" d="M2362.7 4251.22L1838.44 4882.92C1703.06 5046.04 1463.92 5075.22 1293.28 4949.43L706.712 4517.02C590.528 4431.37 529.501 4289.76 547.023 4146.49L593.19 3769C620.849 3542.84 831.55 3385.43 1056.27 3423.05L2120.93 3601.25C2425.2 3652.18 2559.72 4013.82 2362.7 4251.22Z" fill="#E6C5BA"/>
<path id="Vector 768" d="M4257.53 1635.24L3871.25 1597.61C3687.75 1579.74 3540.23 1438.75 3514.08 1256.25L3448.21 796.675C3424.59 631.894 3505.5 469.711 3651.34 389.467L3746.31 337.216C3929.89 236.214 4160.3 293.991 4274.5 469.663L4631.68 1019.12C4814.36 1300.14 4591.13 1667.74 4257.53 1635.24Z" fill="#E6C5BA"/>
<path id="Vector 769" d="M3366.88 4127.18L2930.83 3275.38C2846.81 3111.27 2885.86 2910.99 3025.36 2790.44L3460.46 2414.49C3586.42 2305.66 3766.62 2286.21 3912.9 2365.66L4248.85 2548.13C4348 2601.98 4419.8 2695.21 4446.54 2804.83L4627.86 3548.1C4669.77 3719.92 4593.87 3898.88 4441.21 3988.17L3924.89 4290.18C3726.59 4406.17 3471.56 4331.67 3366.88 4127.18Z" fill="#E6C5BA"/>
<path id="Vector 770" d="M1873.85 2855.81L1935.92 2758.29C2011.12 2640.11 2157.36 2588.64 2290.01 2633.67L2303.22 2638.16C2415.03 2676.12 2491.65 2779.36 2495.59 2897.37C2498.26 2977.36 2467.02 3054.76 2409.57 3110.49L2307.71 3209.3C2218.29 3296.03 2082.53 3313.75 1973.85 3252.87C1832.68 3173.79 1786.98 2992.32 1873.85 2855.81Z" fill="#E6C5BA"/>
<path id="Vector 780" d="M292.681 2464.47L503.358 2594C623.617 2667.93 695.998 2799.79 693.811 2940.94L691.697 3077.38C689.334 3229.88 570.148 3354.94 417.944 3364.63C338.783 3369.67 260.972 3342.33 202.362 3288.88L-112.084 3002.13C-199.451 2922.45 -238.83 2802.92 -215.924 2686.91C-170.277 2455.75 91.9555 2341.06 292.681 2464.47Z" fill="#E6C5BA"/>
<path id="Vector 771" d="M2628.47 1580.23L2754 1454.19C2936.4 1271.04 3242.01 1306.38 3377.79 1526.33L3388.48 1543.64C3447.81 1639.74 3463.74 1756.44 3432.36 1864.93L3362.58 2106.09C3333.11 2207.96 3264.39 2293.96 3171.53 2345.17L3162.46 2350.18C2954 2465.16 2691.86 2373.72 2600.14 2154.02L2542.77 2016.59C2480.4 1867.2 2514.23 1694.94 2628.47 1580.23Z" fill="#E6C5BA"/>
<path id="Vector 764" d="M1515.67 867.375L1389.62 902.111C1216.18 949.906 1043.16 824.545 1034.56 644.844C1030.72 564.711 1061.34 486.763 1118.69 430.669L1144.01 405.909C1246.05 306.119 1400.68 283.247 1527.23 349.227L1568.44 370.711C1674.72 426.121 1731.37 545.293 1707.24 662.697C1686.93 761.505 1612.92 840.576 1515.67 867.375Z" fill="#E6C5BA"/>
</g>
</g>
<g id="road">
<path id="Union" fill-rule="evenodd" clip-rule="evenodd" d="M2697.5 397.5C2810.72 397.5 2902.5 489.282 2902.5 602.5V1269C2902.5 1342.1 2881.25 1424.43 2866.46 1481.77C2863.92 1491.62 2861.57 1500.73 2859.55 1508.93C2842.38 1578.62 2828.5 1647.34 2828.5 1726C2828.5 1839.22 2736.72 1931 2623.5 1931C2510.28 1931 2418.5 1839.22 2418.5 1726C2418.5 1597.86 2441.62 1491.33 2461.45 1410.85C2465.7 1393.62 2469.43 1378.65 2472.69 1365.55C2487.27 1307.02 2492.5 1286.03 2492.5 1269V602.5C2492.5 489.282 2584.28 397.5 2697.5 397.5ZM2771 3331C2884.22 3331 2976 3422.78 2976 3536C2976 3599.79 2996.69 3677.31 3033.59 3763.52C3068.89 3845.97 3112.53 3922.1 3150.89 3989.01L3154.36 3995.06C3255.58 4171.68 3262.97 4318.68 3266.97 4559.6L3267 4561.3V4563V4563.36V4563.72V4564.09V4564.45V4564.82V4565.19V4565.55V4565.92V4566.3V4566.67V4567.04V4567.42V4567.79V4568.17V4568.55V4568.93V4569.31V4569.69V4570.07V4570.46V4570.84V4571.23V4571.62V4572.01V4572.4V4572.79V4573.18V4573.58V4573.97V4574.37V4574.76V4575.16V4575.56V4575.96V4576.36V4576.76V4577.17V4577.57V4577.98V4578.38V4578.79V4579.2V4579.61V4580.02V4580.43V4580.84V4581.26V4581.67V4582.08V4582.5V4582.92V4583.34V4583.76V4584.18V4584.6V4585.02V4585.44V4585.86V4586.29V4586.72V4587.14V4587.57V4588V4588.43V4588.86V4589.29V4589.72V4590.15V4590.58V4591.02V4591.45V4591.89V4592.32V4592.76V4593.2V4593.64V4594.08V4594.52V4594.96V4595.4V4595.84V4596.29V4596.73V4597.17V4597.62V4598.07V4598.51V4598.96V4599.41V4599.86V4600.31V4600.76V4601.21V4601.66V4602.11V4602.56V4603.02V4603.47V4603.93V4604.38V4604.84V4605.29V4605.75V4606.21V4606.67V4607.12V4607.58V4608.04V4608.5V4608.96V4609.43V4609.89V4610.35V4610.81V4611.28V4611.74V4612.21V4612.67V4613.14V4613.6V4614.07V4614.53V4615V4615.47V4615.94V4616.41V4616.87V4617.34V4617.81V4618.28V4618.75V4619.22V4619.7V4620.17V4620.64V4621.11V4621.58V4622.06V4622.53V4623V4623.48V4623.95V4624.43V4624.9V4625.38V4625.85V4626.33V4626.8V4627.28V4627.76V4628.23V4628.71V4629.19V4629.67V4630.14V4630.62V4631.1V4631.58V4632.06V4632.53V4633.01V4633.49V4633.97V4634.45V4634.93V4635.41V4635.89V4636.37V4636.85V4637.33V4637.81V4638.29V4638.77V4639.25V4639.73V4640.21V4640.69V4641.17V4641.65V4642.13V4642.61V4643.09V4643.58V4644.06V4644.54V4645.02V4645.5V4645.98V4646.46V4646.94V4647.42V4647.9V4648.38V4648.86V4649.34V4649.82V4650.3V4650.79V4651.27V4651.75V4652.23V4652.71V4653.18V4653.66V4654.14V4654.62V4655.1V4655.58V4656.06V4656.54V4657.02V4657.5V4657.97V4658.45V4658.93V4659.41V4659.88V4660.36V4660.84V4661.31V4661.79V4662.27V4662.74V4663.22V4663.69V4664.17V4664.64V4665.12V4665.59V4666.07V4666.54V4667.01V4667.48V4667.96V4668.43V4668.9V4669.37V4669.84V4670.31V4670.78V4671.25V4671.72V4672.19V4672.66V4673.13V4673.6V4674.06V4674.53V4675V4675.46V4675.93V4676.39V4676.86V4677.32V4677.79V4678.25V4678.71V4679.17V4679.64V4680.1V4680.56V4681.02V4681.48V4681.94V4682.39V4682.85V4683.31V4683.77V4684.22V4684.68V4685.13V4685.59V4686.04V4686.49V4686.95V4687.4V4687.85V4688.3V4688.75V4689.2V4689.65V4690.09V4690.54V4690.99V4691.43V4691.88V4692.32V4692.77V4693.21V4693.65V4694.09V4694.53V4694.97V4695.41V4695.85V4696.29V4696.72V4697.16V4697.6V4698.03V4698.46V4698.9V4699.33V4699.76V4700.19V4700.62V4701.05V4701.47V4701.9V4702.33V4702.75V4703.18V4703.6V4704.02V4704.44V4704.86V4705.28V4705.7V4706.12V4706.54V4706.95V4707.37V4707.78V4708.19V4708.6V4709.02V4709.42V4709.83V4710.24V4710.65V4711.05V4711.46V4711.86V4712.27V4712.67V4713.07V4713.47V4713.87V4714.26V4714.66V4715.05V4715.45V4715.84V4716.23V4716.62V4717.01V4717.4V4717.79V4718.17V4718.56V4718.94V4719.33V4719.71V4720.09V4720.47V4720.84V4721.22V4721.6V4721.97V4722.34V4722.71V4723.09V4723.45V4723.82V4724.19V4724.55V4724.92V4725.28V4725.64V4726V4726.36V4726.72V4727.08V4727.43V4727.79V4728.14V4728.49V4728.84V4729.19V4729.53V4729.88V4730.22V4730.56V4730.91V4731.25V4731.58V4731.92V4732.26V4732.59V4732.92V4733.26V4733.59V4733.91V4734.24V4734.57V4734.89V4735.21V4735.53V4735.85V4736.17V4736.49V4736.8V4737.12V4737.43V4737.74V4738.05V4738.35V4738.66V4738.96V4739.26V4739.57V4739.86V4740.16V4740.46V4740.75V4741.05V4741.34V4741.63V4741.91V4742.2V4742.48V4742.77V4743.05V4743.33V4743.61V4743.88V4744.16V4744.43V4744.7V4744.97V4745.24V4745.5V4745.77V4746.03V4746.29V4746.55V4746.8V4747.06V4747.31V4747.56V4747.81V4748.06V4748.31V4748.55V4748.8V4749.04V4749.27V4749.51V4749.75V4749.98V4750.21V4750.44V4750.67V4750.89V4751.12V4751.34V4751.56V4751.78V4751.99V4752.21V4752.42V4752.63V4752.84V4753.05V4753.25V4753.45V4753.65V4753.85V4754.05V4754.24V4754.43V4754.62V4754.81V4755V4755.18V4755.37V4755.55V4755.72V4755.9V4756.07V4756.25V4756.42V4756.58V4756.75V4756.91V4757.07V4757.23V4757.39V4757.54V4757.7V4757.85V4758V4758.14V4758.29V4758.43V4758.57V4758.71V4758.84V4758.97V4759.1V4759.23V4759.36V4759.48V4759.61V4759.73V4759.84V4759.96V4760.07V4760.18V4760.29V4760.4V4760.5C3267 4873.72 3175.22 4965.5 3062 4965.5C2948.78 4965.5 2857 4873.72 2857 4760.5V4760.4V4760.29V4760.18V4760.07V4759.96V4759.84V4759.73V4759.61V4759.48V4759.36V4759.23V4759.1V4758.97V4758.84V4758.71V4758.57V4758.43V4758.29V4758.14V4758V4757.85V4757.7V4757.54V4757.39V4757.23V4757.07V4756.91V4756.75V4756.58V4756.42V4756.25V4756.07V4755.9V4755.72V4755.55V4755.37V4755.18V4755V4754.81V4754.62V4754.43V4754.24V4754.05V4753.85V4753.65V4753.45V4753.25V4753.05V4752.84V4752.63V4752.42V4752.21V4751.99V4751.78V4751.56V4751.34V4751.12V4750.89V4750.67V4750.44V4750.21V4749.98V4749.75V4749.51V4749.27V4749.04V4748.8V4748.55V4748.31V4748.06V4747.81V4747.56V4747.31V4747.06V4746.8V4746.55V4746.29V4746.03V4745.77V4745.5V4745.24V4744.97V4744.7V4744.43V4744.16V4743.88V4743.61V4743.33V4743.05V4742.77V4742.48V4742.2V4741.91V4741.63V4741.34V4741.05V4740.75V4740.46V4740.16V4739.86V4739.57V4739.26V4738.96V4738.66V4738.35V4738.05V4737.74V4737.43V4737.12V4736.8V4736.49V4736.17V4735.85V4735.53V4735.21V4734.89V4734.57V4734.24V4733.91V4733.59V4733.26V4732.92V4732.59V4732.26V4731.92V4731.58V4731.25V4730.91V4730.56V4730.22V4729.88V4729.53V4729.19V4728.84V4728.49V4728.14V4727.79V4727.43V4727.08V4726.72V4726.36V4726V4725.64V4725.28V4724.92V4724.55V4724.19V4723.82V4723.45V4723.09V4722.71V4722.34V4721.97V4721.6V4721.22V4720.84V4720.47V4720.09V4719.71V4719.33V4718.94V4718.56V4718.17V4717.79V4717.4V4717.01V4716.62V4716.23V4715.84V4715.45V4715.05V4714.66V4714.26V4713.87V4713.47V4713.07V4712.67V4712.27V4711.86V4711.46V4711.05V4710.65V4710.24V4709.83V4709.42V4709.02V4708.6V4708.19V4707.78V4707.37V4706.95V4706.54V4706.12V4705.7V4705.28V4704.86V4704.44V4704.02V4703.6V4703.18V4702.75V4702.33V4701.9V4701.47V4701.05V4700.62V4700.19V4699.76V4699.33V4698.9V4698.46V4698.03V4697.6V4697.16V4696.72V4696.29V4695.85V4695.41V4694.97V4694.53V4694.09V4693.65V4693.21V4692.77V4692.32V4691.88V4691.43V4690.99V4690.54V4690.09V4689.65V4689.2V4688.75V4688.3V4687.85V4687.4V4686.95V4686.49V4686.04V4685.59V4685.13V4684.68V4684.22V4683.77V4683.31V4682.85V4682.39V4681.94V4681.48V4681.02V4680.56V4680.1V4679.64V4679.17V4678.71V4678.25V4677.79V4677.32V4676.86V4676.39V4675.93V4675.46V4675V4674.53V4674.06V4673.6V4673.13V4672.66V4672.19V4671.72V4671.25V4670.78V4670.31V4669.84V4669.37V4668.9V4668.43V4667.96V4667.48V4667.01V4666.54V4666.07V4665.59V4665.12V4664.64V4664.17V4663.69V4663.22V4662.74V4662.27V4661.79V4661.31V4660.84V4660.36V4659.88V4659.41V4658.93V4658.45V4657.97V4657.5V4657.02V4656.54V4656.06V4655.58V4655.1V4654.62V4654.14V4653.66V4653.18V4652.71V4652.23V4651.75V4651.27V4650.79V4650.3V4649.82V4649.34V4648.86V4648.38V4647.9V4647.42V4646.94V4646.46V4645.98V4645.5V4645.02V4644.54V4644.06V4643.58V4643.09V4642.61V4642.13V4641.65V4641.17V4640.69V4640.21V4639.73V4639.25V4638.77V4638.29V4637.81V4637.33V4636.85V4636.37V4635.89V4635.41V4634.93V4634.45V4633.97V4633.49V4633.01V4632.53V4632.06V4631.58V4631.1V4630.62V4630.14V4629.67V4629.19V4628.71V4628.23V4627.76V4627.28V4626.8V4626.33V4625.85V4625.38V4624.9V4624.43V4623.95V4623.48V4623V4622.53V4622.06V4621.58V4621.11V4620.64V4620.17V4619.7V4619.22V4618.75V4618.28V4617.81V4617.34V4616.87V4616.41V4615.94V4615.47V4615V4614.53V4614.07V4613.6V4613.14V4612.67V4612.21V4611.74V4611.28V4610.81V4610.35V4609.89V4609.43V4608.96V4608.5V4608.04V4607.58V4607.12V4606.67V4606.21V4605.75V4605.29V4604.84V4604.38V4603.93V4603.47V4603.02V4602.56V4602.11V4601.66V4601.21V4600.76V4600.31V4599.86V4599.41V4598.96V4598.51V4598.07V4597.62V4597.17V4596.73V4596.29V4595.84V4595.4V4594.96V4594.52V4594.08V4593.64V4593.2V4592.76V4592.32V4591.89V4591.45V4591.02V4590.58V4590.15V4589.72V4589.29V4588.86V4588.43V4588V4587.57V4587.14V4586.72V4586.29V4585.86V4585.44V4585.02V4584.6V4584.18V4583.76V4583.34V4582.92V4582.5V4582.08V4581.67V4581.26V4580.84V4580.43V4580.02V4579.61V4579.2V4578.79V4578.38V4577.98V4577.57V4577.17V4576.76V4576.36V4575.96V4575.56V4575.16V4574.76V4574.37V4573.97V4573.58V4573.18V4572.79V4572.4V4572.01V4571.62V4571.23V4570.84V4570.46V4570.07V4569.69V4569.31V4568.93V4568.55V4568.17V4567.79V4567.42V4567.04V4566.67V4566.3V4565.92V4565.55V4565.19V4564.82V4564.71C2852.98 4325.09 2842.32 4275.14 2798.64 4198.94C2796.77 4195.68 2794.86 4192.34 2792.89 4188.92C2755.75 4124.19 2701.6 4029.83 2656.67 3924.87C2609.91 3815.62 2566 3679.21 2566 3536C2566 3422.78 2657.78 3331 2771 3331Z" fill="black" fill-opacity="0.04"/>
<path id="Union_2" fill-rule="evenodd" clip-rule="evenodd" d="M2698.49 447.809C2784.1 447.809 2853.49 517.204 2853.49 602.809V1269.31C2853.49 1335.31 2834.35 1409.86 2819.43 1467.95C2816.77 1478.3 2814.25 1488.12 2811.99 1497.28C2794.5 1568.28 2779.49 1641.62 2779.49 1726.31C2779.49 1811.91 2710.1 1881.31 2624.49 1881.31C2538.89 1881.31 2469.49 1811.91 2469.49 1726.31C2469.49 1604.2 2491.49 1502.28 2510.99 1423.12C2514.92 1407.2 2518.47 1392.98 2521.66 1380.22C2536.44 1321.15 2543.49 1292.95 2543.49 1269.31V602.809C2543.49 517.204 2612.89 447.809 2698.49 447.809ZM2771.99 3381.31C2857.6 3381.31 2926.99 3450.7 2926.99 3536.31C2926.99 3609.79 2950.51 3694.48 2988.62 3783.51C3025.08 3868.68 3069.99 3947 3108.11 4013.5L3111.97 4020.24C3206.19 4184.63 3213.97 4319.8 3217.97 4560.74L3217.99 4562.02V4563.31V4563.67V4564.03V4564.4V4564.76V4565.13V4565.49V4565.86V4566.23V4566.6V4566.98V4567.35V4567.72V4568.1V4568.48V4568.86V4569.24V4569.62V4570V4570.38V4570.77V4571.15V4571.54V4571.93V4572.32V4572.71V4573.1V4573.49V4573.88V4574.28V4574.67V4575.07V4575.47V4575.87V4576.27V4576.67V4577.07V4577.48V4577.88V4578.28V4578.69V4579.1V4579.51V4579.92V4580.33V4580.74V4581.15V4581.56V4581.98V4582.39V4582.81V4583.23V4583.65V4584.06V4584.48V4584.91V4585.33V4585.75V4586.17V4586.6V4587.02V4587.45V4587.88V4588.31V4588.73V4589.16V4589.59V4590.03V4590.46V4590.89V4591.33V4591.76V4592.2V4592.63V4593.07V4593.51V4593.95V4594.39V4594.83V4595.27V4595.71V4596.15V4596.59V4597.04V4597.48V4597.93V4598.37V4598.82V4599.27V4599.72V4600.17V4600.62V4601.07V4601.52V4601.97V4602.42V4602.87V4603.33V4603.78V4604.23V4604.69V4605.15V4605.6V4606.06V4606.52V4606.97V4607.43V4607.89V4608.35V4608.81V4609.27V4609.73V4610.2V4610.66V4611.12V4611.59V4612.05V4612.51V4612.98V4613.44V4613.91V4614.38V4614.84V4615.31V4615.78V4616.25V4616.71V4617.18V4617.65V4618.12V4618.59V4619.06V4619.53V4620V4620.48V4620.95V4621.42V4621.89V4622.37V4622.84V4623.31V4623.79V4624.26V4624.74V4625.21V4625.69V4626.16V4626.64V4627.11V4627.59V4628.07V4628.54V4629.02V4629.5V4629.97V4630.45V4630.93V4631.41V4631.89V4632.36V4632.84V4633.32V4633.8V4634.28V4634.76V4635.24V4635.72V4636.2V4636.68V4637.16V4637.64V4638.12V4638.6V4639.08V4639.56V4640.04V4640.52V4641V4641.48V4641.96V4642.44V4642.92V4643.4V4643.88V4644.36V4644.85V4645.33V4645.81V4646.29V4646.77V4647.25V4647.73V4648.21V4648.69V4649.17V4649.65V4650.13V4650.61V4651.09V4651.57V4652.05V4652.53V4653.01V4653.49V4653.97V4654.45V4654.93V4655.41V4655.89V4656.37V4656.85V4657.33V4657.8V4658.28V4658.76V4659.24V4659.72V4660.19V4660.67V4661.15V4661.62V4662.1V4662.58V4663.05V4663.53V4664V4664.48V4664.95V4665.43V4665.9V4666.37V4666.85V4667.32V4667.79V4668.27V4668.74V4669.21V4669.68V4670.15V4670.62V4671.09V4671.56V4672.03V4672.5V4672.97V4673.44V4673.91V4674.37V4674.84V4675.31V4675.77V4676.24V4676.7V4677.17V4677.63V4678.1V4678.56V4679.02V4679.48V4679.95V4680.41V4680.87V4681.33V4681.79V4682.25V4682.7V4683.16V4683.62V4684.07V4684.53V4684.99V4685.44V4685.9V4686.35V4686.8V4687.25V4687.71V4688.16V4688.61V4689.06V4689.51V4689.96V4690.4V4690.85V4691.3V4691.74V4692.19V4692.63V4693.07V4693.52V4693.96V4694.4V4694.84V4695.28V4695.72V4696.16V4696.6V4697.03V4697.47V4697.9V4698.34V4698.77V4699.2V4699.64V4700.07V4700.5V4700.93V4701.35V4701.78V4702.21V4702.64V4703.06V4703.48V4703.91V4704.33V4704.75V4705.17V4705.59V4706.01V4706.43V4706.84V4707.26V4707.67V4708.09V4708.5V4708.91V4709.32V4709.73V4710.14V4710.55V4710.96V4711.36V4711.77V4712.17V4712.57V4712.98V4713.38V4713.78V4714.17V4714.57V4714.97V4715.36V4715.76V4716.15V4716.54V4716.93V4717.32V4717.71V4718.1V4718.48V4718.87V4719.25V4719.63V4720.02V4720.4V4720.77V4721.15V4721.53V4721.9V4722.28V4722.65V4723.02V4723.39V4723.76V4724.13V4724.5V4724.86V4725.23V4725.59V4725.95V4726.31V4726.67V4727.03V4727.38V4727.74V4728.09V4728.45V4728.8V4729.15V4729.49V4729.84V4730.19V4730.53V4730.87V4731.21V4731.55V4731.89V4732.23V4732.57V4732.9V4733.23V4733.56V4733.89V4734.22V4734.55V4734.87V4735.2V4735.52V4735.84V4736.16V4736.48V4736.8V4737.11V4737.42V4737.74V4738.05V4738.35V4738.66V4738.97V4739.27V4739.57V4739.87V4740.17V4740.47V4740.77V4741.06V4741.35V4741.65V4741.93V4742.22V4742.51V4742.79V4743.08V4743.36V4743.64V4743.91V4744.19V4744.46V4744.74V4745.01V4745.28V4745.54V4745.81V4746.07V4746.34V4746.6V4746.86V4747.11V4747.37V4747.62V4747.87V4748.12V4748.37V4748.62V4748.86V4749.1V4749.34V4749.58V4749.82V4750.06V4750.29V4750.52V4750.75V4750.98V4751.2V4751.43V4751.65V4751.87V4752.09V4752.3V4752.52V4752.73V4752.94V4753.15V4753.35V4753.56V4753.76V4753.96V4754.16V4754.36V4754.55V4754.74V4754.93V4755.12V4755.31V4755.49V4755.67V4755.85V4756.03V4756.21V4756.38V4756.55V4756.72V4756.89V4757.06V4757.22V4757.38V4757.54V4757.7V4757.85V4758.01V4758.16V4758.3V4758.45V4758.6V4758.74V4758.88V4759.01V4759.15V4759.28V4759.41V4759.54V4759.67V4759.79V4759.92V4760.03V4760.15V4760.27V4760.38V4760.49V4760.6V4760.71V4760.81C3217.99 4846.41 3148.6 4915.81 3062.99 4915.81C2977.39 4915.81 2907.99 4846.41 2907.99 4760.81V4760.71V4760.6V4760.49V4760.38V4760.27V4760.15V4760.03V4759.92V4759.79V4759.67V4759.54V4759.41V4759.28V4759.15V4759.01V4758.88V4758.74V4758.6V4758.45V4758.3V4758.16V4758.01V4757.85V4757.7V4757.54V4757.38V4757.22V4757.06V4756.89V4756.72V4756.55V4756.38V4756.21V4756.03V4755.85V4755.67V4755.49V4755.31V4755.12V4754.93V4754.74V4754.55V4754.36V4754.16V4753.96V4753.76V4753.56V4753.35V4753.15V4752.94V4752.73V4752.52V4752.3V4752.09V4751.87V4751.65V4751.43V4751.2V4750.98V4750.75V4750.52V4750.29V4750.06V4749.82V4749.58V4749.34V4749.1V4748.86V4748.62V4748.37V4748.12V4747.87V4747.62V4747.37V4747.11V4746.86V4746.6V4746.34V4746.07V4745.81V4745.54V4745.28V4745.01V4744.74V4744.46V4744.19V4743.91V4743.64V4743.36V4743.08V4742.79V4742.51V4742.22V4741.93V4741.65V4741.35V4741.06V4740.77V4740.47V4740.17V4739.87V4739.57V4739.27V4738.97V4738.66V4738.35V4738.05V4737.74V4737.42V4737.11V4736.8V4736.48V4736.16V4735.84V4735.52V4735.2V4734.87V4734.55V4734.22V4733.89V4733.56V4733.23V4732.9V4732.57V4732.23V4731.89V4731.55V4731.21V4730.87V4730.53V4730.19V4729.84V4729.49V4729.15V4728.8V4728.45V4728.09V4727.74V4727.38V4727.03V4726.67V4726.31V4725.95V4725.59V4725.23V4724.86V4724.5V4724.13V4723.76V4723.39V4723.02V4722.65V4722.28V4721.9V4721.53V4721.15V4720.77V4720.4V4720.02V4719.63V4719.25V4718.87V4718.48V4718.1V4717.71V4717.32V4716.93V4716.54V4716.15V4715.76V4715.36V4714.97V4714.57V4714.17V4713.78V4713.38V4712.98V4712.57V4712.17V4711.77V4711.36V4710.96V4710.55V4710.14V4709.73V4709.32V4708.91V4708.5V4708.09V4707.67V4707.26V4706.84V4706.43V4706.01V4705.59V4705.17V4704.75V4704.33V4703.91V4703.48V4703.06V4702.64V4702.21V4701.78V4701.35V4700.93V4700.5V4700.07V4699.64V4699.2V4698.77V4698.34V4697.9V4697.47V4697.03V4696.6V4696.16V4695.72V4695.28V4694.84V4694.4V4693.96V4693.52V4693.07V4692.63V4692.19V4691.74V4691.3V4690.85V4690.4V4689.96V4689.51V4689.06V4688.61V4688.16V4687.71V4687.25V4686.8V4686.35V4685.9V4685.44V4684.99V4684.53V4684.07V4683.62V4683.16V4682.7V4682.25V4681.79V4681.33V4680.87V4680.41V4679.95V4679.48V4679.02V4678.56V4678.1V4677.63V4677.17V4676.7V4676.24V4675.77V4675.31V4674.84V4674.37V4673.91V4673.44V4672.97V4672.5V4672.03V4671.56V4671.09V4670.62V4670.15V4669.68V4669.21V4668.74V4668.27V4667.79V4667.32V4666.85V4666.37V4665.9V4665.43V4664.95V4664.48V4664V4663.53V4663.05V4662.58V4662.1V4661.62V4661.15V4660.67V4660.19V4659.72V4659.24V4658.76V4658.28V4657.8V4657.33V4656.85V4656.37V4655.89V4655.41V4654.93V4654.45V4653.97V4653.49V4653.01V4652.53V4652.05V4651.57V4651.09V4650.61V4650.13V4649.65V4649.17V4648.69V4648.21V4647.73V4647.25V4646.77V4646.29V4645.81V4645.33V4644.85V4644.36V4643.88V4643.4V4642.92V4642.44V4641.96V4641.48V4641V4640.52V4640.04V4639.56V4639.08V4638.6V4638.12V4637.64V4637.16V4636.68V4636.2V4635.72V4635.24V4634.76V4634.28V4633.8V4633.32V4632.84V4632.36V4631.89V4631.41V4630.93V4630.45V4629.97V4629.5V4629.02V4628.54V4628.07V4627.59V4627.11V4626.64V4626.16V4625.69V4625.21V4624.74V4624.26V4623.79V4623.31V4622.84V4622.37V4621.89V4621.42V4620.95V4620.48V4620V4619.53V4619.06V4618.59V4618.12V4617.65V4617.18V4616.71V4616.25V4615.78V4615.31V4614.84V4614.38V4613.91V4613.44V4612.98V4612.51V4612.05V4611.59V4611.12V4610.66V4610.2V4609.73V4609.27V4608.81V4608.35V4607.89V4607.43V4606.97V4606.52V4606.06V4605.6V4605.15V4604.69V4604.23V4603.78V4603.33V4602.87V4602.42V4601.97V4601.52V4601.07V4600.62V4600.17V4599.72V4599.27V4598.82V4598.37V4597.93V4597.48V4597.04V4596.59V4596.15V4595.71V4595.27V4594.83V4594.39V4593.95V4593.51V4593.07V4592.63V4592.2V4591.76V4591.33V4590.89V4590.46V4590.03V4589.59V4589.16V4588.73V4588.31V4587.88V4587.45V4587.02V4586.6V4586.17V4585.75V4585.33V4584.91V4584.48V4584.06V4583.65V4583.23V4582.81V4582.39V4581.98V4581.56V4581.15V4580.74V4580.33V4579.92V4579.51V4579.1V4578.69V4578.28V4577.88V4577.48V4577.07V4576.67V4576.27V4575.87V4575.47V4575.07V4574.67V4574.28V4573.88V4573.49V4573.1V4572.71V4572.32V4571.93V4571.54V4571.15V4570.77V4570.38V4570V4569.62V4569.24V4568.86V4568.48V4568.1V4567.72V4567.35V4566.98V4566.6V4566.23V4565.86V4565.49V4565.13V4564.76V4564.6C2903.98 4324.6 2893.71 4262.83 2843.01 4174.38C2841.2 4171.22 2839.35 4167.99 2837.46 4164.69C2800.23 4099.81 2747.38 4007.69 2703.63 3905.5C2658.07 3799.06 2616.99 3669.83 2616.99 3536.31C2616.99 3450.7 2686.39 3381.31 2771.99 3381.31Z" fill="#1C506F"/>
<path id="Union_3" fill-rule="evenodd" clip-rule="evenodd" d="M2698.49 502.5C2753.72 502.5 2798.49 547.272 2798.49 602.5V1269C2798.49 1327.29 2781.61 1393.38 2766.6 1452.11C2763.82 1462.96 2761.12 1473.56 2758.59 1483.81C2740.74 1556.26 2724.49 1634.67 2724.49 1726C2724.49 1781.23 2679.72 1826 2624.49 1826C2569.27 1826 2524.49 1781.23 2524.49 1726C2524.49 1610.53 2545.25 1513.69 2564.4 1435.96C2567.99 1421.37 2571.36 1407.96 2574.48 1395.55C2589.4 1336.18 2598.49 1299.97 2598.49 1269V602.5C2598.49 547.272 2643.27 502.5 2698.49 502.5ZM2771.99 3436C2827.22 3436 2871.99 3480.77 2871.99 3536C2871.99 3620.13 2898.63 3712.73 2938.06 3804.84C2975.81 3893.02 3022.11 3973.77 3060.01 4039.88C3061.44 4042.36 3062.85 4044.83 3064.26 4047.28C3150.77 4198.22 3158.98 4320.38 3162.98 4561.34L3162.99 4562.17V4563V4563.36V4563.72V4564.09V4564.45V4564.82V4565.19V4565.55V4565.92V4566.3V4566.67V4567.04V4567.42V4567.79V4568.17V4568.55V4568.93V4569.31V4569.69V4570.07V4570.46V4570.84V4571.23V4571.62V4572.01V4572.4V4572.79V4573.18V4573.58V4573.97V4574.37V4574.76V4575.16V4575.56V4575.96V4576.36V4576.76V4577.17V4577.57V4577.98V4578.38V4578.79V4579.2V4579.61V4580.02V4580.43V4580.84V4581.26V4581.67V4582.08V4582.5V4582.92V4583.34V4583.76V4584.18V4584.6V4585.02V4585.44V4585.86V4586.29V4586.72V4587.14V4587.57V4588V4588.43V4588.86V4589.29V4589.72V4590.15V4590.58V4591.02V4591.45V4591.89V4592.32V4592.76V4593.2V4593.64V4594.08V4594.52V4594.96V4595.4V4595.84V4596.29V4596.73V4597.17V4597.62V4598.07V4598.51V4598.96V4599.41V4599.86V4600.31V4600.76V4601.21V4601.66V4602.11V4602.56V4603.02V4603.47V4603.93V4604.38V4604.84V4605.29V4605.75V4606.21V4606.67V4607.12V4607.58V4608.04V4608.5V4608.96V4609.43V4609.89V4610.35V4610.81V4611.28V4611.74V4612.21V4612.67V4613.14V4613.6V4614.07V4614.53V4615V4615.47V4615.94V4616.41V4616.87V4617.34V4617.81V4618.28V4618.75V4619.22V4619.7V4620.17V4620.64V4621.11V4621.58V4622.06V4622.53V4623V4623.48V4623.95V4624.43V4624.9V4625.38V4625.85V4626.33V4626.8V4627.28V4627.76V4628.23V4628.71V4629.19V4629.67V4630.14V4630.62V4631.1V4631.58V4632.06V4632.53V4633.01V4633.49V4633.97V4634.45V4634.93V4635.41V4635.89V4636.37V4636.85V4637.33V4637.81V4638.29V4638.77V4639.25V4639.73V4640.21V4640.69V4641.17V4641.65V4642.13V4642.61V4643.09V4643.58V4644.06V4644.54V4645.02V4645.5V4645.98V4646.46V4646.94V4647.42V4647.9V4648.38V4648.86V4649.34V4649.82V4650.3V4650.79V4651.27V4651.75V4652.23V4652.71V4653.18V4653.66V4654.14V4654.62V4655.1V4655.58V4656.06V4656.54V4657.02V4657.5V4657.97V4658.45V4658.93V4659.41V4659.88V4660.36V4660.84V4661.31V4661.79V4662.27V4662.74V4663.22V4663.69V4664.17V4664.64V4665.12V4665.59V4666.07V4666.54V4667.01V4667.48V4667.96V4668.43V4668.9V4669.37V4669.84V4670.31V4670.78V4671.25V4671.72V4672.19V4672.66V4673.13V4673.6V4674.06V4674.53V4675V4675.46V4675.93V4676.39V4676.86V4677.32V4677.79V4678.25V4678.71V4679.17V4679.64V4680.1V4680.56V4681.02V4681.48V4681.94V4682.39V4682.85V4683.31V4683.77V4684.22V4684.68V4685.13V4685.59V4686.04V4686.49V4686.95V4687.4V4687.85V4688.3V4688.75V4689.2V4689.65V4690.09V4690.54V4690.99V4691.43V4691.88V4692.32V4692.77V4693.21V4693.65V4694.09V4694.53V4694.97V4695.41V4695.85V4696.29V4696.72V4697.16V4697.6V4698.03V4698.46V4698.9V4699.33V4699.76V4700.19V4700.62V4701.05V4701.47V4701.9V4702.33V4702.75V4703.18V4703.6V4704.02V4704.44V4704.86V4705.28V4705.7V4706.12V4706.54V4706.95V4707.37V4707.78V4708.19V4708.6V4709.02V4709.42V4709.83V4710.24V4710.65V4711.05V4711.46V4711.86V4712.27V4712.67V4713.07V4713.47V4713.87V4714.26V4714.66V4715.05V4715.45V4715.84V4716.23V4716.62V4717.01V4717.4V4717.79V4718.17V4718.56V4718.94V4719.33V4719.71V4720.09V4720.47V4720.84V4721.22V4721.6V4721.97V4722.34V4722.71V4723.09V4723.45V4723.82V4724.19V4724.55V4724.92V4725.28V4725.64V4726V4726.36V4726.72V4727.08V4727.43V4727.79V4728.14V4728.49V4728.84V4729.19V4729.53V4729.88V4730.22V4730.56V4730.91V4731.25V4731.58V4731.92V4732.26V4732.59V4732.92V4733.26V4733.59V4733.91V4734.24V4734.57V4734.89V4735.21V4735.53V4735.85V4736.17V4736.49V4736.8V4737.12V4737.43V4737.74V4738.05V4738.35V4738.66V4738.96V4739.26V4739.57V4739.86V4740.16V4740.46V4740.75V4741.05V4741.34V4741.63V4741.91V4742.2V4742.48V4742.77V4743.05V4743.33V4743.61V4743.88V4744.16V4744.43V4744.7V4744.97V4745.24V4745.5V4745.77V4746.03V4746.29V4746.55V4746.8V4747.06V4747.31V4747.56V4747.81V4748.06V4748.31V4748.55V4748.8V4749.04V4749.27V4749.51V4749.75V4749.98V4750.21V4750.44V4750.67V4750.89V4751.12V4751.34V4751.56V4751.78V4751.99V4752.21V4752.42V4752.63V4752.84V4753.05V4753.25V4753.45V4753.65V4753.85V4754.05V4754.24V4754.43V4754.62V4754.81V4755V4755.18V4755.37V4755.55V4755.72V4755.9V4756.07V4756.25V4756.42V4756.58V4756.75V4756.91V4757.07V4757.23V4757.39V4757.54V4757.7V4757.85V4758V4758.14V4758.29V4758.43V4758.57V4758.71V4758.84V4758.97V4759.1V4759.23V4759.36V4759.48V4759.61V4759.73V4759.84V4759.96V4760.07V4760.18V4760.29V4760.4V4760.5C3162.99 4815.73 3118.22 4860.5 3062.99 4860.5C3007.77 4860.5 2962.99 4815.73 2962.99 4760.5V4760.4V4760.29V4760.18V4760.07V4759.96V4759.84V4759.73V4759.61V4759.48V4759.36V4759.23V4759.1V4758.97V4758.84V4758.71V4758.57V4758.43V4758.29V4758.14V4758V4757.85V4757.7V4757.54V4757.39V4757.23V4757.07V4756.91V4756.75V4756.58V4756.42V4756.25V4756.07V4755.9V4755.72V4755.55V4755.37V4755.18V4755V4754.81V4754.62V4754.43V4754.24V4754.05V4753.85V4753.65V4753.45V4753.25V4753.05V4752.84V4752.63V4752.42V4752.21V4751.99V4751.78V4751.56V4751.34V4751.12V4750.89V4750.67V4750.44V4750.21V4749.98V4749.75V4749.51V4749.27V4749.04V4748.8V4748.55V4748.31V4748.06V4747.81V4747.56V4747.31V4747.06V4746.8V4746.55V4746.29V4746.03V4745.77V4745.5V4745.24V4744.97V4744.7V4744.43V4744.16V4743.88V4743.61V4743.33V4743.05V4742.77V4742.48V4742.2V4741.91V4741.63V4741.34V4741.05V4740.75V4740.46V4740.16V4739.86V4739.57V4739.26V4738.96V4738.66V4738.35V4738.05V4737.74V4737.43V4737.12V4736.8V4736.49V4736.17V4735.85V4735.53V4735.21V4734.89V4734.57V4734.24V4733.91V4733.59V4733.26V4732.92V4732.59V4732.26V4731.92V4731.58V4731.25V4730.91V4730.56V4730.22V4729.88V4729.53V4729.19V4728.84V4728.49V4728.14V4727.79V4727.43V4727.08V4726.72V4726.36V4726V4725.64V4725.28V4724.92V4724.55V4724.19V4723.82V4723.45V4723.09V4722.71V4722.34V4721.97V4721.6V4721.22V4720.84V4720.47V4720.09V4719.71V4719.33V4718.94V4718.56V4718.17V4717.79V4717.4V4717.01V4716.62V4716.23V4715.84V4715.45V4715.05V4714.66V4714.26V4713.87V4713.47V4713.07V4712.67V4712.27V4711.86V4711.46V4711.05V4710.65V4710.24V4709.83V4709.42V4709.02V4708.6V4708.19V4707.78V4707.37V4706.95V4706.54V4706.12V4705.7V4705.28V4704.86V4704.44V4704.02V4703.6V4703.18V4702.75V4702.33V4701.9V4701.47V4701.05V4700.62V4700.19V4699.76V4699.33V4698.9V4698.46V4698.03V4697.6V4697.16V4696.72V4696.29V4695.85V4695.41V4694.97V4694.53V4694.09V4693.65V4693.21V4692.77V4692.32V4691.88V4691.43V4690.99V4690.54V4690.09V4689.65V4689.2V4688.75V4688.3V4687.85V4687.4V4686.95V4686.49V4686.04V4685.59V4685.13V4684.68V4684.22V4683.77V4683.31V4682.85V4682.39V4681.94V4681.48V4681.02V4680.56V4680.1V4679.64V4679.17V4678.71V4678.25V4677.79V4677.32V4676.86V4676.39V4675.93V4675.46V4675V4674.53V4674.06V4673.6V4673.13V4672.66V4672.19V4671.72V4671.25V4670.78V4670.31V4669.84V4669.37V4668.9V4668.43V4667.96V4667.48V4667.01V4666.54V4666.07V4665.59V4665.12V4664.64V4664.17V4663.69V4663.22V4662.74V4662.27V4661.79V4661.31V4660.84V4660.36V4659.88V4659.41V4658.93V4658.45V4657.97V4657.5V4657.02V4656.54V4656.06V4655.58V4655.1V4654.62V4654.14V4653.66V4653.18V4652.71V4652.23V4651.75V4651.27V4650.79V4650.3V4649.82V4649.34V4648.86V4648.38V4647.9V4647.42V4646.94V4646.46V4645.98V4645.5V4645.02V4644.54V4644.06V4643.58V4643.09V4642.61V4642.13V4641.65V4641.17V4640.69V4640.21V4639.73V4639.25V4638.77V4638.29V4637.81V4637.33V4636.85V4636.37V4635.89V4635.41V4634.93V4634.45V4633.97V4633.49V4633.01V4632.53V4632.06V4631.58V4631.1V4630.62V4630.14V4629.67V4629.19V4628.71V4628.23V4627.76V4627.28V4626.8V4626.33V4625.85V4625.38V4624.9V4624.43V4623.95V4623.48V4623V4622.53V4622.06V4621.58V4621.11V4620.64V4620.17V4619.7V4619.22V4618.75V4618.28V4617.81V4617.34V4616.87V4616.41V4615.94V4615.47V4615V4614.53V4614.07V4613.6V4613.14V4612.67V4612.21V4611.74V4611.28V4610.81V4610.35V4609.89V4609.43V4608.96V4608.5V4608.04V4607.58V4607.12V4606.67V4606.21V4605.75V4605.29V4604.84V4604.38V4603.93V4603.47V4603.02V4602.56V4602.11V4601.66V4601.21V4600.76V4600.31V4599.86V4599.41V4598.96V4598.51V4598.07V4597.62V4597.17V4596.73V4596.29V4595.84V4595.4V4594.96V4594.52V4594.08V4593.64V4593.2V4592.76V4592.32V4591.89V4591.45V4591.02V4590.58V4590.15V4589.72V4589.29V4588.86V4588.43V4588V4587.57V4587.14V4586.72V4586.29V4585.86V4585.44V4585.02V4584.6V4584.18V4583.76V4583.34V4582.92V4582.5V4582.08V4581.67V4581.26V4580.84V4580.43V4580.02V4579.61V4579.2V4578.79V4578.38V4577.98V4577.57V4577.17V4576.76V4576.36V4575.96V4575.56V4575.16V4574.76V4574.37V4573.97V4573.58V4573.18V4572.79V4572.4V4572.01V4571.62V4571.23V4570.84V4570.46V4570.07V4569.69V4569.31V4568.93V4568.55V4568.17V4567.79V4567.42V4567.04V4566.67V4566.3V4565.92V4565.55V4565.19V4564.82V4564.45V4564.09V4563.83C2958.98 4323.45 2949.16 4248.66 2890.73 4146.72C2888.99 4143.69 2887.22 4140.59 2885.41 4137.44C2848.07 4072.35 2796.64 3982.71 2754.2 3883.55C2709.96 3780.2 2671.99 3658.87 2671.99 3536C2671.99 3480.77 2716.77 3436 2771.99 3436Z" fill="#1B4A67"/>
</g>
</g>
<defs>
<clipPath id="clip0_2280_874">
<rect width="5396" height="4673" fill="white"/>
</clipPath>
</defs>
</svg>
