<svg width="5396" height="4673" viewBox="0 0 5396 4673" fill="none" xmlns="http://www.w3.org/2000/svg">
<g id="hitbox" clip-path="url(#clip0_2280_895)">
<g id="bossRoomRoad">
<path id="road" d="M3064.15 4794.5C3064.15 4777 3064.15 4658.5 3064.15 4597C3059.82 4355.33 3051.15 4257.5 2978.65 4131C2902.34 3997.85 2773.15 3777 2773.15 3570M2699.65 636.5C2699.65 896.784 2699.65 1196.5 2699.65 1303C2699.65 1409.5 2625.65 1553.2 2625.65 1760" stroke="#1C506F" stroke-opacity="0.05" stroke-width="310" stroke-linecap="round"/>
</g>
<g id="exit blocks">
<g id="stone7:blocksExit=true">
<path id="Rectangle 2189" d="M2466.94 1382.53C2453.61 1369.2 2456.99 1346.78 2473.66 1337.97L2610.49 1265.67C2621.35 1259.93 2634.68 1261.94 2643.37 1270.62L2671.53 1298.79C2675.86 1303.11 2678.65 1308.74 2679.48 1314.8L2687.85 1376.25C2689.18 1386.02 2685.28 1395.77 2677.58 1401.92L2634.62 1436.21C2630.3 1439.66 2625.06 1441.75 2619.56 1442.23L2547.03 1448.5C2538.79 1449.21 2530.66 1446.25 2524.82 1440.4L2466.94 1382.53Z" fill="black" fill-opacity="0.15"/>
<path id="Vector 1152" d="M2446.24 1245.23L2493.39 1215.58C2506.97 1207.05 2523.8 1205.54 2538.68 1211.53L2605.16 1238.29C2623.59 1245.71 2635.88 1263.33 2636.47 1283.19L2637.59 1321.31C2638.38 1348 2618.05 1370.6 2591.43 1372.64L2489.61 1380.43C2466.19 1382.22 2444.68 1367.47 2437.91 1344.98L2424.97 1301.97C2418.49 1280.42 2427.19 1257.21 2446.24 1245.23Z" fill="#BB816E"/>
<path id="Vector 1153" d="M2576.88 1288.08L2562.51 1266.38C2555.1 1255.21 2541.19 1250.3 2528.41 1254.36L2502.74 1262.51C2487.69 1267.29 2478.92 1282.91 2482.68 1298.25L2488.23 1320.87C2492.23 1337.15 2508.79 1347 2525 1342.74L2559.5 1333.66C2579.37 1328.43 2588.22 1305.22 2576.88 1288.08Z" fill="#9A6A5A"/>
<rect id="mapHelper" x="2420" y="1207" width="5" height="5" fill="#A4C424" fill-opacity="0.01"/>
</g>
<g id="stone6:blocksExit=true">
<path id="Rectangle 2189_2" d="M2663.27 1282.85C2650.14 1269.73 2653.19 1247.7 2669.38 1238.62L2789.23 1171.49C2798.05 1166.55 2808.84 1166.75 2817.47 1172L2866.37 1201.76C2873.1 1205.85 2877.79 1212.59 2879.3 1220.31L2889.76 1273.88C2891.75 1284.1 2887.91 1294.58 2879.79 1301.09L2831.71 1339.62C2827.34 1343.13 2822.01 1345.24 2816.43 1345.68L2745.65 1351.32C2737.47 1351.98 2729.42 1349.01 2723.63 1343.21L2663.27 1282.85Z" fill="black" fill-opacity="0.15"/>
<path id="Vector 1152_2" d="M2641.58 1201.59L2686.03 1140.65C2701.5 1119.44 2730.74 1113.81 2752.99 1127.76L2808.04 1162.28C2837.57 1180.79 2839.57 1223.08 2811.92 1244.31L2747.06 1294.09C2730 1307.18 2706.48 1307.9 2688.66 1295.87L2654.01 1272.51C2630.52 1256.66 2624.88 1224.48 2641.58 1201.59Z" fill="#BB816E"/>
<path id="Vector 1153_2" d="M2757.54 1237.3L2765.79 1216.75C2775.64 1192.23 2751.27 1167.88 2726.76 1177.74L2703.52 1187.08C2681.81 1195.82 2678.01 1224.94 2696.76 1238.95L2711.75 1250.15C2727.53 1261.94 2750.2 1255.58 2757.54 1237.3Z" fill="#9A6A5A"/>
<rect id="mapHelper_2" x="2629" y="1117" width="5" height="5" fill="#A4C424" fill-opacity="0.01"/>
</g>
<g id="stone5:blocksExit=true">
<path id="Rectangle 2189_3" d="M2836.98 1354.09C2823.05 1340.16 2827.48 1316.59 2845.51 1308.66L2940.72 1266.81C2951.28 1262.16 2963.62 1264.48 2971.78 1272.64L3000 1300.86C3003.31 1304.17 3005.73 1308.24 3007.05 1312.72L3020.42 1357.91C3023.72 1369.07 3019.78 1381.11 3010.51 1388.15L2981.54 1410.15C2976.46 1414.01 2970.22 1416.02 2963.84 1415.85L2908.06 1414.33C2900.9 1414.13 2894.09 1411.2 2889.02 1406.14L2836.98 1354.09Z" fill="black" fill-opacity="0.15"/>
<path id="Vector 1152_3" d="M2817.79 1279.96L2841.25 1236.89C2856.03 1209.74 2891.67 1202.37 2916 1221.45L2958.72 1254.93C2972.27 1265.55 2979.4 1282.4 2977.6 1299.53L2975.26 1321.67C2972.36 1349.17 2947.68 1369.1 2920.18 1366.13L2878.53 1361.65C2874.53 1361.22 2870.59 1360.3 2866.8 1358.93L2844.62 1350.86C2815.87 1340.41 2803.16 1306.82 2817.79 1279.96Z" fill="#BB816E"/>
<path id="Vector 1153_3" d="M2859.27 1284.91L2863.65 1272.5C2870 1254.49 2891.35 1246.92 2907.63 1256.91L2927.24 1268.95C2939.56 1276.51 2944.73 1291.79 2939.54 1305.29L2938.87 1307.03C2934.18 1319.22 2922.15 1326.98 2909.11 1326.21L2885.8 1324.84C2865.87 1323.67 2852.62 1303.73 2859.27 1284.91Z" fill="#9A6A5A"/>
<rect id="mapHelper_3" x="2810" y="1209" width="5" height="5" fill="#A4C424" fill-opacity="0.01"/>
</g>
<g id="stone3:blocksExit=true">
<path id="Rectangle 2189_4" d="M2662.55 1416.04C2651.61 1405.1 2651.61 1387.37 2662.55 1376.44L2696.09 1342.9C2707.02 1331.97 2724.75 1331.97 2735.68 1342.9L2756.9 1364.12C2764.06 1371.28 2766.8 1381.75 2764.06 1391.5L2756.69 1417.68C2754.05 1427.07 2746.71 1434.4 2737.32 1437.05L2711.15 1444.41C2701.4 1447.15 2690.93 1444.42 2683.77 1437.26L2662.55 1416.04Z" fill="black" fill-opacity="0.15"/>
<path id="Rectangle293" d="M2637.38 1359.23L2642.01 1345.66C2648.56 1326.47 2668.44 1315.21 2688.27 1319.47L2710.27 1324.2C2735.76 1329.68 2749.28 1357.68 2737.72 1381.05L2729.75 1397.16C2720.55 1415.75 2698.68 1424.22 2679.37 1416.69L2660.71 1409.42C2640.74 1401.64 2630.46 1379.51 2637.38 1359.23Z" fill="#BB816E"/>
<rect id="mapHelper_4" x="2634" y="1318" width="5" height="5" fill="#A4C424" fill-opacity="0.01"/>
</g>
</g>
<g id="spawn" clip-path="url(#clip1_2280_895)">
<rect id="Rectangle 2166" x="3034" y="4532" width="100" height="60" transform="rotate(-90 3034 4532)" fill="#DC567C"/>
</g>
<g id="exit:to=room0">
<rect id="rect" x="2472" y="818" width="468" height="299" fill="white" fill-opacity="0.2"/>
</g>
<g id="walls" opacity="0.5">
<path id="wall" d="M2959.49 1250.39L3136.5 1522.21C3150.61 1543.89 3172.58 1559.25 3197.79 1565.08L3620.49 1662.72C3659.35 1671.69 3689.16 1702.89 3696.35 1742.11L3730.58 1928.78C3735.63 1956.32 3751.99 1980.49 3775.7 1995.39L4047.33 2166.24C4072.75 2182.22 4089.64 2208.79 4093.33 2238.59L4137.37 2593.96C4141.51 2627.38 4128.55 2660.63 4102.9 2682.44L3853.19 2894.73C3836.22 2909.16 3824.55 2928.85 3820.04 2950.67L3750.24 3288.23C3742.98 3323.34 3717.48 3351.88 3683.41 3363.03L3448.92 3439.75C3443.32 3441.58 3437.89 3443.9 3432.7 3446.69L3202.67 3570.24C3157.86 3594.31 3138.26 3648.19 3157.13 3695.43L3259.87 3952.64C3264.58 3964.44 3267 3977.03 3267 3989.73V4397V4690.56C3267 4745.76 3311.74 4790.53 3366.94 4790.56L5784.09 4791.94C5838.69 4791.98 5883.23 4748.2 5884.13 4693.6L5961.32 32.6558C5962.24 -23.2128 5917.21 -69 5861.33 -69H2968C2912.77 -69 2868 -24.2285 2868 31V1024.05C2868 1037.87 2870.86 1051.53 2876.41 1064.19L2951.7 1235.97C2953.9 1240.98 2956.5 1245.81 2959.49 1250.39Z" fill="#1C506F"/>
<path id="wall_2" d="M2335.3 1427.96L2439.5 1243.5L2505.32 1085.45C2510.39 1073.27 2513 1060.21 2513 1047.01V987.5C2513 932.272 2557.77 887.5 2613 887.5H2788.5C2832.68 887.5 2868.5 923.317 2868.5 967.5C2868.5 1011.68 2904.32 1047.5 2948.5 1047.5H2998.5C3053.73 1047.5 3098.5 1002.73 3098.5 947.5V26C3098.5 -29.2285 3053.73 -74 2998.5 -74H16.8593C-37.7242 -74 -82.2241 -30.2303 -83.127 24.3458L-160.319 4690.41C-161.243 4746.26 -116.249 4792.03 -60.3994 4792.07L2756.93 4793.93C2812.19 4793.97 2857 4749.19 2857 4693.93V4432.94C2857 4416.24 2852.82 4399.82 2844.85 4385.16L2748.89 4208.73C2746.63 4204.58 2744.09 4200.6 2741.27 4196.81L2545.87 3934.22C2542.3 3929.42 2539.16 3924.3 2536.5 3918.93L2330.37 3503.04C2318.9 3479.92 2298.94 3462.12 2274.65 3453.37L1939.36 3332.62C1919.31 3325.39 1902.09 3311.96 1890.22 3294.26L1669.2 2964.97C1649.28 2935.29 1646.71 2897.23 1662.47 2865.15L1782.07 2621.71C1797 2591.33 1795.54 2555.46 1778.21 2526.39L1613.52 2250.24C1600.95 2229.15 1596.57 2204.18 1601.22 2180.07L1680.27 1770.54C1688.22 1729.36 1721.01 1697.52 1762.4 1690.79L1951.68 1659.98C1963.79 1658.01 1975.43 1653.83 1986.03 1647.64L2298.65 1465.13C2313.94 1456.2 2326.59 1443.38 2335.3 1427.96Z" fill="#1C506F"/>
</g>
</g>
<defs>
<clipPath id="clip0_2280_895">
<rect width="5396" height="4673" fill="white"/>
</clipPath>
<clipPath id="clip1_2280_895">
<rect width="100" height="60" fill="white" transform="translate(3034 4532) rotate(-90)"/>
</clipPath>
</defs>
</svg>
