<svg width="5396" height="4673" viewBox="0 0 5396 4673" fill="none" xmlns="http://www.w3.org/2000/svg">
<g id="hitbox" clip-path="url(#clip0_2280_895)">
<g id="bossRoomRoad">
<path id="road" d="M3064.15 4794.5C3064.15 4777 3064.15 4658.5 3064.15 4597C3060.15 4356 3051.15 4257.5 2978.65 4131C2902.34 3997.85 2773.15 3777 2773.15 3570M2699.65 636.5C2699.65 896.784 2699.65 1196.5 2699.65 1303C2699.65 1409.5 2625.65 1553.2 2625.65 1760" stroke="#1C506F" stroke-opacity="0.05" stroke-width="310" stroke-linecap="round"/>
</g>
<g id="exit blocks">
<g id="stone7:blocksExit=true">
<path id="Rectangle 2189" d="M2416.94 1472.53C2403.61 1459.2 2406.99 1436.78 2423.66 1427.97L2560.49 1355.67C2571.35 1349.93 2584.68 1351.94 2593.37 1360.62L2621.53 1388.79C2625.86 1393.11 2628.65 1398.74 2629.48 1404.8L2637.85 1466.25C2639.18 1476.02 2635.28 1485.77 2627.58 1491.92L2584.62 1526.21C2580.3 1529.66 2575.06 1531.75 2569.56 1532.23L2497.03 1538.5C2488.79 1539.21 2480.66 1536.25 2474.82 1530.4L2416.94 1472.53Z" fill="black" fill-opacity="0.15"/>
<path id="Vector 1152" d="M2396.24 1335.23L2443.39 1305.58C2456.97 1297.05 2473.8 1295.54 2488.68 1301.53L2555.16 1328.29C2573.59 1335.71 2585.88 1353.33 2586.47 1373.19L2587.59 1411.31C2588.38 1438 2568.05 1460.6 2541.43 1462.64L2439.61 1470.43C2416.19 1472.22 2394.68 1457.47 2387.91 1434.98L2374.97 1391.97C2368.49 1370.42 2377.19 1347.21 2396.24 1335.23Z" fill="#BB816E"/>
<path id="Vector 1153" d="M2526.88 1378.08L2512.51 1356.38C2505.1 1345.21 2491.19 1340.3 2478.41 1344.36L2452.74 1352.51C2437.69 1357.29 2428.92 1372.91 2432.68 1388.25L2438.23 1410.87C2442.23 1427.15 2458.79 1437 2475 1432.74L2509.5 1423.66C2529.37 1418.43 2538.22 1395.22 2526.88 1378.08Z" fill="#9A6A5A"/>
<rect id="mapHelper" x="2370" y="1297" width="5" height="5" fill="#A4C424" fill-opacity="0.01"/>
</g>
<g id="stone6:blocksExit=true">
<path id="Rectangle 2189_2" d="M2625.27 1388.85C2612.14 1375.73 2615.19 1353.7 2631.38 1344.62L2751.23 1277.49C2760.05 1272.55 2770.84 1272.75 2779.47 1278L2828.37 1307.76C2835.1 1311.85 2839.79 1318.59 2841.3 1326.31L2851.76 1379.88C2853.75 1390.1 2849.91 1400.58 2841.79 1407.09L2793.71 1445.62C2789.34 1449.13 2784.01 1451.24 2778.43 1451.68L2707.65 1457.32C2699.47 1457.98 2691.42 1455.01 2685.63 1449.21L2625.27 1388.85Z" fill="black" fill-opacity="0.15"/>
<path id="Vector 1152_2" d="M2603.58 1307.59L2648.03 1246.65C2663.5 1225.44 2692.74 1219.81 2714.99 1233.76L2770.04 1268.28C2799.57 1286.79 2801.57 1329.08 2773.92 1350.31L2709.06 1400.09C2692 1413.18 2668.48 1413.9 2650.66 1401.87L2616.01 1378.51C2592.52 1362.66 2586.88 1330.48 2603.58 1307.59Z" fill="#BB816E"/>
<path id="Vector 1153_2" d="M2719.54 1343.3L2727.79 1322.75C2737.64 1298.23 2713.27 1273.88 2688.76 1283.74L2665.52 1293.08C2643.81 1301.82 2640.01 1330.94 2658.76 1344.95L2673.75 1356.15C2689.53 1367.94 2712.2 1361.58 2719.54 1343.3Z" fill="#9A6A5A"/>
<rect id="mapHelper_2" x="2591" y="1223" width="5" height="5" fill="#A4C424" fill-opacity="0.01"/>
</g>
<g id="stone5:blocksExit=true">
<path id="Rectangle 2189_3" d="M2793.98 1445.09C2780.05 1431.16 2784.48 1407.59 2802.51 1399.66L2897.72 1357.81C2908.28 1353.16 2920.62 1355.48 2928.78 1363.64L2957 1391.86C2960.31 1395.17 2962.73 1399.24 2964.05 1403.72L2977.42 1448.91C2980.72 1460.07 2976.78 1472.11 2967.51 1479.15L2938.54 1501.15C2933.46 1505.01 2927.22 1507.02 2920.84 1506.85L2865.06 1505.33C2857.9 1505.13 2851.09 1502.2 2846.02 1497.14L2793.98 1445.09Z" fill="black" fill-opacity="0.15"/>
<path id="Vector 1152_3" d="M2774.79 1370.96L2798.25 1327.89C2813.03 1300.74 2848.67 1293.37 2873 1312.45L2915.72 1345.93C2929.27 1356.55 2936.4 1373.4 2934.6 1390.53L2932.26 1412.67C2929.36 1440.17 2904.68 1460.1 2877.18 1457.13L2835.53 1452.65C2831.53 1452.22 2827.59 1451.3 2823.8 1449.93L2801.62 1441.86C2772.87 1431.41 2760.16 1397.82 2774.79 1370.96Z" fill="#BB816E"/>
<path id="Vector 1153_3" d="M2816.27 1375.91L2820.65 1363.5C2827 1345.49 2848.35 1337.92 2864.63 1347.91L2884.24 1359.95C2896.56 1367.51 2901.73 1382.79 2896.54 1396.29L2895.87 1398.03C2891.18 1410.22 2879.15 1417.98 2866.11 1417.21L2842.8 1415.84C2822.87 1414.67 2809.62 1394.73 2816.27 1375.91Z" fill="#9A6A5A"/>
<rect id="mapHelper_3" x="2767" y="1300" width="5" height="5" fill="#A4C424" fill-opacity="0.01"/>
</g>
<g id="stone3:blocksExit=true">
<path id="Rectangle 2189_4" d="M2618.55 1520.04C2607.61 1509.1 2607.61 1491.37 2618.55 1480.44L2652.09 1446.9C2663.02 1435.97 2680.75 1435.97 2691.68 1446.9L2712.9 1468.12C2720.06 1475.28 2722.8 1485.75 2720.06 1495.5L2712.69 1521.68C2710.05 1531.07 2702.71 1538.4 2693.32 1541.05L2667.15 1548.41C2657.4 1551.15 2646.93 1548.42 2639.77 1541.26L2618.55 1520.04Z" fill="black" fill-opacity="0.15"/>
<path id="Rectangle293" d="M2593.38 1463.23L2598.01 1449.66C2604.56 1430.47 2624.44 1419.21 2644.27 1423.47L2666.27 1428.2C2691.76 1433.68 2705.28 1461.68 2693.72 1485.05L2685.75 1501.16C2676.55 1519.75 2654.68 1528.22 2635.37 1520.69L2616.71 1513.42C2596.74 1505.64 2586.46 1483.51 2593.38 1463.23Z" fill="#BB816E"/>
<rect id="mapHelper_4" x="2590" y="1422" width="5" height="5" fill="#A4C424" fill-opacity="0.01"/>
</g>
<g id="stone2:blocksExit=true">
<path id="Rectangle 2188" d="M2966.34 1461.12C2955.41 1450.19 2955.41 1432.46 2966.34 1421.52L3004.52 1383.34C3015.46 1372.4 3033.19 1372.4 3044.12 1383.34L3061.25 1400.47C3067.83 1407.05 3070.71 1416.48 3068.93 1425.62L3062.7 1457.58C3060.52 1468.77 3051.77 1477.52 3040.58 1479.7L3008.62 1485.93C2999.48 1487.71 2990.05 1484.83 2983.47 1478.25L2966.34 1461.12Z" fill="black" fill-opacity="0.15"/>
<path id="Rectangle293_2" d="M2964.23 1374.83L2996.11 1365.11C3027.53 1355.55 3056.45 1385.81 3045.47 1416.76L3034.93 1446.45C3025.29 1473.61 2990.95 1481.97 2969.9 1462.27L2948.55 1442.3C2926.08 1421.27 2934.78 1383.8 2964.23 1374.83Z" fill="#BB816E"/>
<rect id="mapHelper_5" x="2935" y="1364" width="5" height="5" fill="#A4C424" fill-opacity="0.01"/>
</g>
</g>
<g id="enter blocks">
<g id="stone2:blocksEnter=true">
<path id="Rectangle 2188_2" d="M2419.34 3668.12C2408.41 3657.19 2408.41 3639.46 2419.34 3628.52L2457.52 3590.34C2468.46 3579.4 2486.19 3579.4 2497.12 3590.34L2514.25 3607.47C2520.83 3614.05 2523.71 3623.48 2521.93 3632.62L2515.7 3664.58C2513.52 3675.77 2504.77 3684.52 2493.58 3686.7L2461.62 3692.93C2452.48 3694.71 2443.05 3691.83 2436.47 3685.25L2419.34 3668.12Z" fill="black" fill-opacity="0.15"/>
<path id="Rectangle293_3" d="M2417.23 3581.83L2449.11 3572.11C2480.53 3562.55 2509.45 3592.81 2498.47 3623.76L2487.93 3653.45C2478.29 3680.61 2443.95 3688.97 2422.9 3669.27L2401.55 3649.3C2379.08 3628.27 2387.78 3590.8 2417.23 3581.83Z" fill="#BB816E"/>
<rect id="mapHelper_6" x="2388" y="3571" width="5" height="5" fill="#A4C424" fill-opacity="0.01"/>
</g>
<g id="stone4:blocksEnter=true">
<path id="Rectangle 2188_3" d="M2667.25 3590.18C2656.32 3579.24 2656.32 3561.52 2667.25 3550.58L2693.58 3524.25C2704.52 3513.32 2722.24 3513.32 2733.18 3524.25L2734.87 3525.95C2740.91 3531.98 2743.86 3540.44 2742.89 3548.92L2740.19 3572.55C2738.71 3585.5 2728.5 3595.71 2715.55 3597.19L2691.92 3599.89C2683.44 3600.86 2674.98 3597.91 2668.95 3591.87L2667.25 3590.18Z" fill="black" fill-opacity="0.15"/>
<path id="Rectangle293_4" d="M2668.75 3515.67L2700.82 3509.13C2715.34 3506.17 2729.87 3514.17 2735.14 3528.02C2740.06 3540.95 2735.58 3555.57 2724.26 3563.53L2697.48 3582.35C2678.51 3595.69 2652.09 3588.54 2642.43 3567.45C2632.5 3545.75 2645.36 3520.44 2668.75 3515.67Z" fill="#BB816E"/>
<rect id="mapHelper_7" x="2638" y="3508" width="5" height="5" fill="#A4C424" fill-opacity="0.01"/>
</g>
<g id="stone7:blocksEnter=true">
<path id="Rectangle 2189_5" d="M2542.94 3753.53C2529.61 3740.2 2532.99 3717.78 2549.66 3708.97L2686.49 3636.67C2697.35 3630.93 2710.68 3632.94 2719.37 3641.62L2747.53 3669.79C2751.86 3674.11 2754.65 3679.74 2755.48 3685.8L2763.85 3747.25C2765.18 3757.02 2761.28 3766.77 2753.58 3772.92L2710.62 3807.21C2706.3 3810.66 2701.06 3812.75 2695.56 3813.23L2623.03 3819.5C2614.79 3820.21 2606.66 3817.25 2600.82 3811.4L2542.94 3753.53Z" fill="black" fill-opacity="0.15"/>
<path id="Vector 1152_4" d="M2522.24 3616.23L2569.39 3586.58C2582.97 3578.05 2599.8 3576.54 2614.68 3582.53L2681.16 3609.29C2699.59 3616.71 2711.88 3634.33 2712.47 3654.19L2713.59 3692.31C2714.38 3719 2694.05 3741.6 2667.43 3743.64L2565.61 3751.43C2542.19 3753.22 2520.68 3738.47 2513.91 3715.98L2500.97 3672.97C2494.49 3651.42 2503.19 3628.21 2522.24 3616.23Z" fill="#BB816E"/>
<path id="Vector 1153_4" d="M2652.88 3659.08L2638.51 3637.38C2631.1 3626.21 2617.19 3621.3 2604.41 3625.36L2578.74 3633.51C2563.69 3638.29 2554.92 3653.91 2558.68 3669.25L2564.23 3691.87C2568.23 3708.15 2584.79 3718 2601 3713.74L2635.5 3704.66C2655.37 3699.43 2664.22 3676.22 2652.88 3659.08Z" fill="#9A6A5A"/>
<rect id="mapHelper_8" x="2496" y="3578" width="5" height="5" fill="#A4C424" fill-opacity="0.01"/>
</g>
<g id="stone6:blocksEnter=true">
<path id="Rectangle 2189_6" d="M2753.27 3668.85C2740.14 3655.73 2743.19 3633.7 2759.38 3624.62L2879.23 3557.49C2888.05 3552.55 2898.84 3552.75 2907.47 3558L2956.37 3587.76C2963.1 3591.85 2967.79 3598.59 2969.3 3606.31L2979.76 3659.88C2981.75 3670.1 2977.91 3680.58 2969.79 3687.09L2921.71 3725.62C2917.34 3729.13 2912.01 3731.24 2906.43 3731.68L2835.65 3737.32C2827.47 3737.98 2819.42 3735.01 2813.63 3729.21L2753.27 3668.85Z" fill="black" fill-opacity="0.15"/>
<path id="Vector 1152_5" d="M2731.58 3587.59L2776.03 3526.65C2791.5 3505.44 2820.74 3499.81 2842.99 3513.76L2898.04 3548.28C2927.57 3566.79 2929.57 3609.08 2901.92 3630.31L2837.06 3680.09C2820 3693.18 2796.48 3693.9 2778.66 3681.87L2744.01 3658.51C2720.52 3642.66 2714.88 3610.48 2731.58 3587.59Z" fill="#BB816E"/>
<path id="Vector 1153_5" d="M2847.54 3623.3L2855.79 3602.75C2865.64 3578.23 2841.27 3553.88 2816.76 3563.74L2793.52 3573.08C2771.81 3581.82 2768.01 3610.94 2786.76 3624.95L2801.75 3636.15C2817.53 3647.94 2840.2 3641.58 2847.54 3623.3Z" fill="#9A6A5A"/>
<rect id="mapHelper_9" x="2719" y="3503" width="5" height="5" fill="#A4C424" fill-opacity="0.01"/>
</g>
<g id="stone5:blocksEnter=true">
<path id="Rectangle 2189_7" d="M2917.98 3738.09C2904.05 3724.16 2908.48 3700.59 2926.51 3692.66L3021.72 3650.81C3032.28 3646.16 3044.62 3648.48 3052.78 3656.64L3081 3684.86C3084.31 3688.17 3086.73 3692.24 3088.05 3696.72L3101.42 3741.91C3104.72 3753.07 3100.78 3765.11 3091.51 3772.15L3062.54 3794.15C3057.46 3798.01 3051.22 3800.02 3044.84 3799.85L2989.06 3798.33C2981.9 3798.13 2975.09 3795.2 2970.02 3790.14L2917.98 3738.09Z" fill="black" fill-opacity="0.15"/>
<path id="Vector 1152_6" d="M2898.79 3663.96L2922.25 3620.89C2937.03 3593.74 2972.67 3586.37 2997 3605.45L3039.72 3638.93C3053.27 3649.55 3060.4 3666.4 3058.6 3683.53L3056.26 3705.67C3053.36 3733.17 3028.68 3753.1 3001.18 3750.13L2959.53 3745.65C2955.53 3745.22 2951.59 3744.3 2947.8 3742.93L2925.62 3734.86C2896.87 3724.41 2884.16 3690.82 2898.79 3663.96Z" fill="#BB816E"/>
<path id="Vector 1153_6" d="M2940.27 3668.91L2944.65 3656.5C2951 3638.49 2972.35 3630.92 2988.63 3640.91L3008.24 3652.95C3020.56 3660.51 3025.73 3675.79 3020.54 3689.29L3019.87 3691.03C3015.18 3703.22 3003.15 3710.98 2990.11 3710.21L2966.8 3708.84C2946.87 3707.67 2933.62 3687.73 2940.27 3668.91Z" fill="#9A6A5A"/>
<rect id="mapHelper_10" x="2891" y="3593" width="5" height="5" fill="#A4C424" fill-opacity="0.01"/>
</g>
<g id="stone3:blocksEnter=true">
<path id="Rectangle 2189_8" d="M2738.55 3787.04C2727.61 3776.1 2727.61 3758.37 2738.55 3747.44L2772.09 3713.9C2783.02 3702.97 2800.75 3702.97 2811.68 3713.9L2832.9 3735.12C2840.06 3742.28 2842.8 3752.75 2840.06 3762.5L2832.69 3788.68C2830.05 3798.07 2822.71 3805.4 2813.32 3808.05L2787.15 3815.41C2777.4 3818.15 2766.93 3815.42 2759.77 3808.26L2738.55 3787.04Z" fill="black" fill-opacity="0.15"/>
<path id="Rectangle293_5" d="M2713.38 3730.23L2718.01 3716.66C2724.56 3697.47 2744.44 3686.21 2764.27 3690.47L2786.27 3695.2C2811.76 3700.68 2825.28 3728.68 2813.72 3752.05L2805.75 3768.16C2796.55 3786.75 2774.68 3795.22 2755.37 3787.69L2736.71 3780.42C2716.74 3772.64 2706.46 3750.51 2713.38 3730.23Z" fill="#BB816E"/>
<rect id="mapHelper_11" x="2710" y="3689" width="5" height="5" fill="#A4C424" fill-opacity="0.01"/>
</g>
<g id="stone3:blocksEnter=true_2">
<path id="Rectangle 2189_9" d="M3058.55 3655.04C3047.61 3644.1 3047.61 3626.37 3058.55 3615.44L3092.09 3581.9C3103.02 3570.97 3120.75 3570.97 3131.68 3581.9L3152.9 3603.12C3160.06 3610.28 3162.8 3620.75 3160.06 3630.5L3152.69 3656.68C3150.05 3666.07 3142.71 3673.4 3133.32 3676.05L3107.15 3683.41C3097.4 3686.15 3086.93 3683.42 3079.77 3676.26L3058.55 3655.04Z" fill="black" fill-opacity="0.15"/>
<path id="Rectangle293_6" d="M3033.38 3598.23L3038.01 3584.66C3044.56 3565.47 3064.44 3554.21 3084.27 3558.47L3106.27 3563.2C3131.76 3568.68 3145.28 3596.68 3133.72 3620.05L3125.75 3636.16C3116.55 3654.75 3094.68 3663.22 3075.37 3655.69L3056.71 3648.42C3036.74 3640.64 3026.46 3618.51 3033.38 3598.23Z" fill="#BB816E"/>
<rect id="mapHelper_12" x="3030" y="3557" width="5" height="5" fill="#A4C424" fill-opacity="0.01"/>
</g>
</g>
<g id="spawn" clip-path="url(#clip1_2280_895)">
<rect id="Rectangle 2166" x="3034" y="4532" width="100" height="60" transform="rotate(-90 3034 4532)" fill="#DC567C"/>
</g>
<g id="exit:to=room0">
<rect id="rect" x="2472" y="818" width="468" height="299" fill="white" fill-opacity="0.2"/>
</g>
<g id="walls" opacity="0.01">
<path id="wall" d="M2335.3 1427.96L2439.5 1243.5L2505.32 1085.45C2510.39 1073.27 2513 1060.21 2513 1047.01V927.25C2513 878.235 2552.73 838.5 2601.75 838.5C2650.77 838.5 2690.5 798.765 2690.5 749.75V28.4098C2690.5 -26.7834 2645.78 -71.5403 2590.59 -71.5901L16.9481 -73.9112C-37.6706 -73.9605 -82.225 -30.1767 -83.1284 24.4345L-160.319 4690.41C-161.243 4746.26 -116.249 4792.03 -60.3994 4792.07L2756.93 4793.93C2812.19 4793.97 2857 4749.19 2857 4693.93V4432.94C2857 4416.24 2852.82 4399.82 2844.85 4385.16L2748.89 4208.73C2746.63 4204.58 2744.09 4200.6 2741.27 4196.81L2545.87 3934.22C2542.3 3929.42 2539.16 3924.3 2536.5 3918.93L2338.81 3520.07C2322.58 3487.35 2289.81 3466.07 2253.32 3464.57L1731.94 3443.13C1721.71 3442.71 1711.6 3440.72 1701.97 3437.23L1509.33 3367.41C1471.8 3353.81 1445.96 3319.2 1443.58 3279.35L1424.16 2954.13C1423.72 2946.73 1424.1 2939.31 1425.3 2932L1480.4 2595.8C1481.8 2587.3 1482.08 2578.66 1481.26 2570.09L1448.87 2231.84C1447.96 2222.33 1448.42 2212.74 1450.23 2203.36L1532.98 1774.66C1541.31 1731.49 1576.86 1698.82 1620.58 1694.17L1948.68 1659.27C1962.73 1657.77 1976.31 1653.32 1988.52 1646.19L2298.65 1465.13C2313.94 1456.2 2326.59 1443.38 2335.3 1427.96Z" fill="#1B4A67"/>
<path id="wall_2" d="M2959.49 1250.39L3131.04 1513.83C3148.31 1540.36 3177.13 1557.14 3208.73 1559.07L3746.44 1591.98C3767.91 1593.29 3788.38 1601.49 3804.82 1615.36L4025.48 1801.54C4048.01 1820.54 4061 1848.5 4061 1877.97V2111.5L4048.89 2425.91C4048.63 2432.62 4049.05 2439.34 4050.14 2445.97L4092.76 2705.36C4094.25 2714.41 4094.48 2723.62 4093.46 2732.73L4056.5 3062L4059.37 3225.76C4060.29 3278.07 4020.74 3322.24 3968.65 3327.09L3783.66 3344.29C3778.56 3344.76 3773.51 3345.63 3768.54 3346.87L3395.85 3440.53C3390.63 3441.84 3385.3 3442.73 3379.93 3443.18L3225.64 3456.26C3161.12 3461.73 3118.73 3526.14 3139.23 3587.56L3261.86 3955.09C3265.26 3965.3 3267 3975.98 3267 3986.74V4397V4690.56C3267 4745.76 3311.74 4790.53 3366.94 4790.56L5784.09 4791.94C5838.69 4791.98 5883.23 4748.2 5884.13 4693.6L5961.32 32.6558C5962.24 -23.2128 5917.21 -69 5861.33 -69H2589C2533.77 -69 2489 -24.2285 2489 31V738.5C2489 793.728 2533.77 838.5 2589 838.5H2768C2823.23 838.5 2868 883.272 2868 938.5V1024.05C2868 1037.87 2870.86 1051.53 2876.41 1064.19L2951.7 1235.97C2953.9 1240.98 2956.5 1245.81 2959.49 1250.39Z" fill="#1B4A67"/>
</g>
<g id="enemies">
<g id="KingBoss:wave=0" clip-path="url(#clip2_2280_895)">
<g id="off hand">
<rect id="Rectangle 2261" x="2835.8" y="2626.39" width="48.96" height="48.96" rx="24.48" transform="rotate(-15 2835.8 2626.39)" fill="#4B516E"/>
<rect id="Rectangle 2263" x="2824.31" y="2611.51" width="63.3638" height="24.6491" rx="12.3245" transform="rotate(-15 2824.31 2611.51)" fill="#DD5B80"/>
</g>
<g id="head">
<rect id="Rectangle 2260" x="2693.32" y="2513.03" width="132.48" height="132.48" rx="66.24" fill="#4B516E"/>
<g id="eyes">
<path id="Subtract" fill-rule="evenodd" clip-rule="evenodd" d="M2741.96 2622.67C2739.21 2621.93 2736.52 2624 2736.52 2626.84V2629.38C2736.52 2631.77 2738.45 2633.7 2740.84 2633.7H2746.6C2748.99 2633.7 2750.92 2631.77 2750.92 2629.38V2628.39C2750.92 2626.43 2749.61 2624.72 2747.72 2624.21L2741.96 2622.67Z" fill="#EFDAD4"/>
<path id="Subtract_2" fill-rule="evenodd" clip-rule="evenodd" d="M2778.6 2622.67C2781.34 2621.93 2784.04 2624 2784.04 2626.84V2629.38C2784.04 2631.77 2782.1 2633.7 2779.72 2633.7H2773.96C2771.57 2633.7 2769.64 2631.77 2769.64 2629.38V2628.39C2769.64 2626.43 2770.95 2624.72 2772.84 2624.21L2778.6 2622.67Z" fill="#EFDAD4"/>
</g>
<g id="crown">
<path id="Intersect" fill-rule="evenodd" clip-rule="evenodd" d="M2820.04 2557.28V2552.35C2820.04 2527.7 2800.06 2507.71 2775.4 2507.71H2743.72C2719.07 2507.71 2699.08 2527.7 2699.08 2552.35V2557.27L2699.86 2562.46C2700.44 2566.36 2703.51 2569.41 2707.4 2569.98C2709.41 2570.27 2711.26 2571.24 2712.64 2572.72L2720.01 2580.6C2727.12 2588.22 2739.02 2588.76 2746.79 2581.82C2754.07 2575.33 2765.06 2575.33 2772.33 2581.82C2780.11 2588.76 2792.01 2588.22 2799.12 2580.6L2806.49 2572.72C2807.87 2571.24 2809.72 2570.27 2811.73 2569.98C2815.62 2569.41 2818.69 2566.36 2819.27 2562.46L2820.04 2557.28Z" fill="#4B516E"/>
<g id="Exclude">
<path fill-rule="evenodd" clip-rule="evenodd" d="M2705.58 2508.69L2707.8 2495.04C2709.13 2486.9 2718.14 2482.55 2725.34 2486.58C2729.8 2489.08 2735.37 2488.44 2739.15 2484.99L2744.63 2479.99C2753.09 2472.27 2766.04 2472.27 2774.5 2479.99L2780.07 2485.07C2783.79 2488.47 2789.28 2489.1 2793.68 2486.64C2800.87 2482.62 2809.84 2487.07 2811 2495.21L2812.86 2508.29C2813.28 2511.19 2814.3 2513.98 2815.87 2516.46L2818.41 2520.49C2822.1 2526.33 2823.57 2533.3 2822.55 2540.13L2820.01 2557.12V2552.22C2820.01 2527.56 2800.02 2507.58 2775.37 2507.58H2743.75C2719.1 2507.58 2699.11 2527.56 2699.11 2552.22V2557.1L2696.5 2539.64C2695.53 2533.11 2696.82 2526.44 2700.18 2520.75L2702.87 2516.18C2704.23 2513.88 2705.15 2511.34 2705.58 2508.69ZM2699.11 2557.1V2568.72C2699.11 2593.37 2719.1 2613.36 2743.75 2613.36H2775.37C2800.02 2613.36 2820.01 2593.37 2820.01 2568.72V2557.12L2819.24 2562.3C2818.65 2566.19 2815.59 2569.24 2811.7 2569.81C2809.69 2570.1 2807.84 2571.07 2806.46 2572.55L2799.1 2580.43C2791.99 2588.04 2780.1 2588.59 2772.33 2581.65C2765.05 2575.16 2754.07 2575.16 2746.8 2581.65C2739.03 2588.59 2727.14 2588.04 2720.03 2580.43L2712.67 2572.55C2711.28 2571.07 2709.44 2570.1 2707.43 2569.81C2703.54 2569.24 2700.47 2566.19 2699.89 2562.3L2699.11 2557.1Z" fill="#DD5B81"/>
<path d="M2707.8 2495.04L2713.49 2495.97L2707.8 2495.04ZM2705.58 2508.69L2699.89 2507.77H2699.89L2705.58 2508.69ZM2725.34 2486.58L2722.52 2491.61L2722.52 2491.61L2725.34 2486.58ZM2739.15 2484.99L2743.03 2489.24V2489.24L2739.15 2484.99ZM2744.63 2479.99L2740.74 2475.74L2740.74 2475.74L2744.63 2479.99ZM2774.5 2479.99L2778.38 2475.74V2475.74L2774.5 2479.99ZM2780.07 2485.07L2776.18 2489.32V2489.32L2780.07 2485.07ZM2793.68 2486.64L2796.5 2491.67V2491.67L2793.68 2486.64ZM2811 2495.21L2816.71 2494.4L2811 2495.21ZM2812.86 2508.29L2807.16 2509.1V2509.1L2812.86 2508.29ZM2815.87 2516.46L2820.74 2513.38L2820.74 2513.38L2815.87 2516.46ZM2818.41 2520.49L2813.55 2523.57L2813.55 2523.57L2818.41 2520.49ZM2822.55 2540.13L2828.25 2540.98L2822.55 2540.13ZM2696.5 2539.64L2690.81 2540.49H2690.81L2696.5 2539.64ZM2700.18 2520.75L2695.21 2517.82H2695.21L2700.18 2520.75ZM2702.87 2516.18L2697.91 2513.26H2697.91L2702.87 2516.18ZM2819.24 2562.3L2813.54 2561.45L2819.24 2562.3ZM2811.7 2569.81L2810.87 2564.11L2811.7 2569.81ZM2806.46 2572.55L2802.25 2568.62L2806.46 2572.55ZM2799.1 2580.43L2794.89 2576.5L2799.1 2580.43ZM2772.33 2581.65L2776.16 2577.35L2772.33 2581.65ZM2746.8 2581.65L2742.96 2577.35L2746.8 2581.65ZM2720.03 2580.43L2724.24 2576.5H2724.24L2720.03 2580.43ZM2712.67 2572.55L2708.46 2576.48L2708.46 2576.48L2712.67 2572.55ZM2707.43 2569.81L2706.6 2575.51H2706.6L2707.43 2569.81ZM2699.89 2562.3L2694.19 2563.15L2699.89 2562.3ZM2702.12 2494.12L2699.89 2507.77L2711.26 2509.62L2713.49 2495.97L2702.12 2494.12ZM2728.15 2481.55C2717.46 2475.57 2704.08 2482.03 2702.12 2494.12L2713.49 2495.97C2714.17 2491.77 2718.81 2489.53 2722.52 2491.61L2728.15 2481.55ZM2735.27 2480.73C2733.32 2482.51 2730.45 2482.84 2728.15 2481.55L2722.52 2491.61C2729.16 2495.32 2737.42 2494.36 2743.03 2489.24L2735.27 2480.73ZM2740.74 2475.74L2735.27 2480.73L2743.03 2489.24L2748.51 2484.25L2740.74 2475.74ZM2778.38 2475.74C2767.72 2466.01 2751.4 2466.01 2740.74 2475.74L2748.51 2484.25C2754.77 2478.53 2764.36 2478.53 2770.62 2484.25L2778.38 2475.74ZM2783.95 2480.81L2778.38 2475.74L2770.62 2484.25L2776.18 2489.32L2783.95 2480.81ZM2790.87 2481.61C2788.63 2482.87 2785.84 2482.54 2783.95 2480.81L2776.18 2489.32C2781.74 2494.4 2789.93 2495.34 2796.5 2491.67L2790.87 2481.61ZM2816.71 2494.4C2814.98 2482.25 2801.59 2475.62 2790.87 2481.61L2796.5 2491.67C2800.15 2489.62 2804.71 2491.88 2805.3 2496.03L2816.71 2494.4ZM2818.57 2507.48L2816.71 2494.4L2805.3 2496.03L2807.16 2509.1L2818.57 2507.48ZM2820.74 2513.38C2819.6 2511.59 2818.86 2509.58 2818.57 2507.48L2807.16 2509.1C2807.69 2512.81 2809 2516.36 2811 2519.53L2820.74 2513.38ZM2823.28 2517.41L2820.74 2513.38L2811 2519.53L2813.55 2523.57L2823.28 2517.41ZM2828.25 2540.98C2829.47 2532.79 2827.71 2524.42 2823.28 2517.41L2813.55 2523.57C2816.5 2528.24 2817.67 2533.81 2816.85 2539.28L2828.25 2540.98ZM2825.71 2557.97L2828.25 2540.98L2816.85 2539.28L2814.31 2556.27L2825.71 2557.97ZM2814.25 2552.22V2557.12H2825.77V2552.22H2814.25ZM2775.37 2513.34C2796.84 2513.34 2814.25 2530.74 2814.25 2552.22H2825.77C2825.77 2524.38 2803.21 2501.82 2775.37 2501.82V2513.34ZM2743.75 2513.34H2775.37V2501.82H2743.75V2513.34ZM2704.87 2552.22C2704.87 2530.74 2722.28 2513.34 2743.75 2513.34V2501.82C2715.92 2501.82 2693.35 2524.38 2693.35 2552.22H2704.87ZM2704.87 2557.1V2552.22H2693.35V2557.1H2704.87ZM2690.81 2540.49L2693.42 2557.96L2704.81 2556.25L2702.2 2538.78L2690.81 2540.49ZM2695.21 2517.82C2691.19 2524.65 2689.63 2532.65 2690.81 2540.49L2702.2 2538.78C2701.42 2533.56 2702.46 2528.23 2705.14 2523.68L2695.21 2517.82ZM2697.91 2513.26L2695.21 2517.82L2705.14 2523.68L2707.83 2519.11L2697.91 2513.26ZM2699.89 2507.77C2699.58 2509.71 2698.9 2511.57 2697.91 2513.26L2707.83 2519.11C2709.55 2516.19 2710.72 2512.97 2711.26 2509.62L2699.89 2507.77ZM2704.87 2568.72V2557.1H2693.35V2568.72H2704.87ZM2743.75 2607.6C2722.28 2607.6 2704.87 2590.19 2704.87 2568.72H2693.35C2693.35 2596.56 2715.92 2619.12 2743.75 2619.12V2607.6ZM2775.37 2607.6H2743.75V2619.12H2775.37V2607.6ZM2814.25 2568.72C2814.25 2590.19 2796.84 2607.6 2775.37 2607.6V2619.12C2803.21 2619.12 2825.77 2596.56 2825.77 2568.72H2814.25ZM2814.25 2557.12V2568.72H2825.77V2557.12H2814.25ZM2824.93 2563.15L2825.71 2557.97L2814.31 2556.27L2813.54 2561.45L2824.93 2563.15ZM2812.53 2575.51C2818.93 2574.58 2823.97 2569.56 2824.93 2563.15L2813.54 2561.45C2813.33 2562.83 2812.25 2563.91 2810.87 2564.11L2812.53 2575.51ZM2810.67 2576.48C2811.16 2575.95 2811.81 2575.61 2812.53 2575.51L2810.87 2564.11C2807.57 2564.59 2804.53 2566.18 2802.25 2568.62L2810.67 2576.48ZM2803.31 2584.36L2810.67 2576.48L2802.25 2568.62L2794.89 2576.5L2803.31 2584.36ZM2768.49 2585.95C2778.6 2594.97 2794.06 2594.26 2803.31 2584.36L2794.89 2576.5C2789.92 2581.82 2781.6 2582.2 2776.16 2577.35L2768.49 2585.95ZM2750.63 2585.95C2755.72 2581.41 2763.4 2581.41 2768.49 2585.95L2776.16 2577.35C2766.7 2568.91 2752.42 2568.91 2742.96 2577.35L2750.63 2585.95ZM2715.82 2584.36C2725.06 2594.26 2740.53 2594.97 2750.63 2585.95L2742.96 2577.35C2737.53 2582.2 2729.21 2581.82 2724.24 2576.5L2715.82 2584.36ZM2708.46 2576.48L2715.82 2584.36L2724.24 2576.5L2716.88 2568.62L2708.46 2576.48ZM2706.6 2575.51C2707.31 2575.61 2707.97 2575.95 2708.46 2576.48L2716.88 2568.62C2714.6 2566.18 2711.56 2564.59 2708.26 2564.11L2706.6 2575.51ZM2694.19 2563.15C2695.15 2569.56 2700.19 2574.58 2706.6 2575.51L2708.26 2564.11C2706.88 2563.91 2705.79 2562.83 2705.59 2561.45L2694.19 2563.15ZM2693.42 2557.96L2694.19 2563.15L2705.59 2561.45L2704.81 2556.25L2693.42 2557.96Z" fill="#DD5B81"/>
</g>
<path id="Vector 1159" d="M2753.06 2592.92L2750.07 2599.22C2747.79 2603.99 2751.28 2609.51 2756.57 2609.51H2762.56C2767.85 2609.51 2771.34 2603.99 2769.06 2599.22L2766.06 2592.92C2763.46 2587.45 2755.67 2587.45 2753.06 2592.92Z" fill="#EFDAD4"/>
</g>
</g>
<g id="sceptor hand">
<g id="sceptor bottom">
<rect id="Rectangle 2264" x="2644.36" y="2651.27" width="21.6" height="34.56" rx="8.64" fill="#D2896E"/>
</g>
<g id="Group 199">
<rect id="Rectangle 2261_2" x="2638.07" y="2614.12" width="48.96" height="48.96" rx="24.48" transform="rotate(15 2638.07 2614.12)" fill="#4B516E"/>
<rect id="Rectangle 2263_2" x="2634.16" y="2595.11" width="63.3665" height="24.6491" rx="12.3245" transform="rotate(15 2634.16 2595.11)" fill="#DD5B80"/>
</g>
<g id="sceptor top">
<rect id="Rectangle 2265" x="2644.36" y="2605.19" width="21.6" height="34.56" rx="8.64" fill="#DE8A6A"/>
<path id="Rectangle 2266" d="M2655.81 2619.59C2660.16 2619.59 2664.14 2617.14 2666.09 2613.26L2677.7 2590.22C2681.56 2582.55 2676 2573.51 2667.42 2573.51H2642.91C2634.33 2573.51 2628.76 2582.55 2632.62 2590.22L2644.23 2613.26C2646.19 2617.14 2650.17 2619.59 2654.52 2619.59H2655.81Z" fill="#DE8A6A"/>
<path id="Rectangle 2267" d="M2650.29 2594.63C2652.56 2598.2 2657.77 2598.2 2660.03 2594.63L2663.24 2589.55C2665.67 2585.72 2662.91 2580.71 2658.37 2580.71H2651.95C2647.41 2580.71 2644.65 2585.72 2647.08 2589.55L2650.29 2594.63Z" fill="#CC5879"/>
</g>
</g>
<rect id="mapHelper_13" opacity="0.01" x="2690.44" y="2510.2" width="138.24" height="135.36" fill="white" fill-opacity="0.01"/>
</g>
</g>
<g id="exit:side=bottom">
<rect id="rect_2" x="2857" y="4668" width="410" height="10" fill="white" fill-opacity="0.2"/>
</g>
<g id="environment">
<g id="bush1" clip-path="url(#clip3_2280_895)">
<path id="Union" fill-rule="evenodd" clip-rule="evenodd" d="M3895.1 2978.41C3899.39 2982.71 3905.2 2984.76 3911.3 2984.66C3910.24 2993.97 3914.37 3005.07 3923.08 3013.78C3936.18 3026.88 3954.67 3029.62 3964.39 3019.91C3965.09 3019.2 3965.74 3018.45 3966.31 3017.65C3982.07 3028.36 4000.8 3029.2 4011.44 3018.55C4016.57 3013.42 4019.04 3006.42 4019.01 2998.77C4020.17 2997.95 4021.27 2997.02 4022.3 2995.99C4033.78 2984.5 4032.45 2964.55 4019.31 2951.42C4006.18 2938.28 3986.23 2936.95 3974.74 2948.43C3974.27 2948.9 3973.83 2949.38 3973.4 2949.88C3964.43 2949.01 3956.06 2951.38 3950.16 2957.27C3946.93 2960.51 3944.75 2964.49 3943.59 2968.91C3941.83 2968.24 3940.07 2967.71 3938.32 2967.34C3943.72 2957.17 3942.99 2945.31 3935.59 2937.92C3926.15 2928.48 3909.44 2929.89 3898.26 2941.08C3887.07 2952.26 3885.66 2968.97 3895.1 2978.41Z" fill="black" fill-opacity="0.15"/>
<g id="Group 119">
<circle id="Ellipse 1" cx="3911.99" cy="2954.7" r="25.9855" fill="#6FA662"/>
<circle id="Ellipse 2" cx="3934.39" cy="2975.31" r="32.2578" fill="#6FA662"/>
<ellipse id="Ellipse 3" cx="3939.76" cy="2938.57" rx="28.6736" ry="29.5697" fill="#6FA662"/>
<circle id="Ellipse 4" cx="3973.81" cy="2973.52" r="28.6736" fill="#6FA662"/>
<circle id="Ellipse 5" cx="3974.71" cy="2942.15" r="25.9855" fill="#6FA662"/>
<circle id="Ellipse 6" cx="3997.11" cy="2962.76" r="25.0894" fill="#6FA662"/>
</g>
<rect id="Rectangle 2165" x="3886" y="2909" width="5" height="5" fill="#A4C424" fill-opacity="0.01"/>
</g>
<g id="bush1_2" clip-path="url(#clip4_2280_895)">
<path id="Union_2" fill-rule="evenodd" clip-rule="evenodd" d="M3736.1 3085.41C3740.39 3089.71 3746.2 3091.76 3752.3 3091.66C3751.24 3100.97 3755.37 3112.07 3764.08 3120.78C3777.18 3133.88 3795.67 3136.62 3805.39 3126.91C3806.09 3126.2 3806.74 3125.45 3807.31 3124.65C3823.07 3135.36 3841.8 3136.2 3852.44 3125.55C3857.57 3120.42 3860.04 3113.42 3860.01 3105.77C3861.17 3104.95 3862.27 3104.02 3863.3 3102.99C3874.78 3091.5 3873.45 3071.55 3860.31 3058.42C3847.18 3045.28 3827.23 3043.95 3815.74 3055.43C3815.27 3055.9 3814.83 3056.38 3814.4 3056.88C3805.43 3056.01 3797.06 3058.38 3791.16 3064.27C3787.93 3067.51 3785.75 3071.49 3784.59 3075.91C3782.83 3075.24 3781.07 3074.71 3779.32 3074.34C3784.72 3064.17 3783.99 3052.31 3776.59 3044.92C3767.15 3035.48 3750.44 3036.89 3739.26 3048.08C3728.07 3059.26 3726.66 3075.97 3736.1 3085.41Z" fill="black" fill-opacity="0.15"/>
<g id="Group 119_2">
<circle id="Ellipse 1_2" cx="3752.99" cy="3061.7" r="25.9855" fill="#6FA662"/>
<circle id="Ellipse 2_2" cx="3775.39" cy="3082.31" r="32.2578" fill="#6FA662"/>
<ellipse id="Ellipse 3_2" cx="3780.76" cy="3045.57" rx="28.6736" ry="29.5697" fill="#6FA662"/>
<circle id="Ellipse 4_2" cx="3814.81" cy="3080.52" r="28.6736" fill="#6FA662"/>
<circle id="Ellipse 5_2" cx="3815.71" cy="3049.15" r="25.9855" fill="#6FA662"/>
<circle id="Ellipse 6_2" cx="3838.11" cy="3069.76" r="25.0894" fill="#6FA662"/>
</g>
<rect id="Rectangle 2165_2" x="3727" y="3016" width="5" height="5" fill="#A4C424" fill-opacity="0.01"/>
</g>
<g id="bush1_3" clip-path="url(#clip5_2280_895)">
<path id="Union_3" fill-rule="evenodd" clip-rule="evenodd" d="M1859.1 3385.41C1863.39 3389.71 1869.2 3391.76 1875.3 3391.66C1874.24 3400.97 1878.37 3412.07 1887.08 3420.78C1900.18 3433.88 1918.67 3436.62 1928.39 3426.91C1929.09 3426.2 1929.74 3425.45 1930.31 3424.65C1946.07 3435.36 1964.8 3436.2 1975.44 3425.55C1980.57 3420.42 1983.04 3413.42 1983.01 3405.77C1984.17 3404.95 1985.27 3404.02 1986.3 3402.99C1997.78 3391.5 1996.45 3371.55 1983.31 3358.42C1970.18 3345.28 1950.23 3343.95 1938.74 3355.43C1938.27 3355.9 1937.83 3356.38 1937.4 3356.88C1928.43 3356.01 1920.06 3358.38 1914.16 3364.27C1910.93 3367.51 1908.75 3371.49 1907.59 3375.91C1905.83 3375.24 1904.07 3374.71 1902.32 3374.34C1907.72 3364.17 1906.99 3352.31 1899.59 3344.92C1890.15 3335.48 1873.44 3336.89 1862.26 3348.08C1851.07 3359.26 1849.66 3375.97 1859.1 3385.41Z" fill="black" fill-opacity="0.15"/>
<g id="Group 119_3">
<circle id="Ellipse 1_3" cx="1875.99" cy="3361.7" r="25.9855" fill="#6FA662"/>
<circle id="Ellipse 2_3" cx="1898.39" cy="3382.31" r="32.2578" fill="#6FA662"/>
<ellipse id="Ellipse 3_3" cx="1903.76" cy="3345.57" rx="28.6736" ry="29.5697" fill="#6FA662"/>
<circle id="Ellipse 4_3" cx="1937.81" cy="3380.52" r="28.6736" fill="#6FA662"/>
<circle id="Ellipse 5_3" cx="1938.71" cy="3349.15" r="25.9855" fill="#6FA662"/>
<circle id="Ellipse 6_3" cx="1961.11" cy="3369.76" r="25.0894" fill="#6FA662"/>
</g>
<rect id="Rectangle 2165_3" x="1850" y="3316" width="5" height="5" fill="#A4C424" fill-opacity="0.01"/>
</g>
<g id="bush1_4" clip-path="url(#clip6_2280_895)">
<path id="Union_4" fill-rule="evenodd" clip-rule="evenodd" d="M1492.1 2925.41C1496.39 2929.71 1502.2 2931.76 1508.3 2931.66C1507.24 2940.97 1511.37 2952.07 1520.08 2960.78C1533.18 2973.88 1551.67 2976.62 1561.39 2966.91C1562.09 2966.2 1562.74 2965.45 1563.31 2964.65C1579.07 2975.36 1597.8 2976.2 1608.44 2965.55C1613.57 2960.42 1616.04 2953.42 1616.01 2945.77C1617.17 2944.95 1618.27 2944.02 1619.3 2942.99C1630.78 2931.5 1629.45 2911.55 1616.31 2898.42C1603.18 2885.28 1583.23 2883.95 1571.74 2895.43C1571.27 2895.9 1570.83 2896.38 1570.4 2896.88C1561.43 2896.01 1553.06 2898.38 1547.16 2904.27C1543.93 2907.51 1541.75 2911.49 1540.59 2915.91C1538.83 2915.24 1537.07 2914.71 1535.32 2914.34C1540.72 2904.17 1539.99 2892.31 1532.59 2884.92C1523.15 2875.48 1506.44 2876.89 1495.26 2888.08C1484.07 2899.26 1482.66 2915.97 1492.1 2925.41Z" fill="black" fill-opacity="0.15"/>
<g id="Group 119_4">
<circle id="Ellipse 1_4" cx="1508.99" cy="2901.7" r="25.9855" fill="#6FA662"/>
<circle id="Ellipse 2_4" cx="1531.39" cy="2922.31" r="32.2578" fill="#6FA662"/>
<ellipse id="Ellipse 3_4" cx="1536.76" cy="2885.57" rx="28.6736" ry="29.5697" fill="#6FA662"/>
<circle id="Ellipse 4_4" cx="1570.81" cy="2920.52" r="28.6736" fill="#6FA662"/>
<circle id="Ellipse 5_4" cx="1571.71" cy="2889.15" r="25.9855" fill="#6FA662"/>
<circle id="Ellipse 6_4" cx="1594.11" cy="2909.76" r="25.0894" fill="#6FA662"/>
</g>
<rect id="Rectangle 2165_4" x="1483" y="2856" width="5" height="5" fill="#A4C424" fill-opacity="0.01"/>
</g>
<g id="bush1_5" clip-path="url(#clip7_2280_895)">
<path id="Union_5" fill-rule="evenodd" clip-rule="evenodd" d="M3517.1 1893.41C3521.39 1897.71 3527.2 1899.76 3533.3 1899.66C3532.24 1908.97 3536.37 1920.07 3545.08 1928.78C3558.18 1941.88 3576.67 1944.62 3586.39 1934.91C3587.09 1934.2 3587.74 1933.45 3588.31 1932.65C3604.07 1943.36 3622.8 1944.2 3633.44 1933.55C3638.57 1928.42 3641.04 1921.42 3641.01 1913.77C3642.17 1912.95 3643.27 1912.02 3644.3 1910.99C3655.78 1899.5 3654.45 1879.55 3641.31 1866.42C3628.18 1853.28 3608.23 1851.95 3596.74 1863.43C3596.27 1863.9 3595.83 1864.38 3595.4 1864.88C3586.43 1864.01 3578.06 1866.38 3572.16 1872.27C3568.93 1875.51 3566.75 1879.49 3565.59 1883.91C3563.83 1883.24 3562.07 1882.71 3560.32 1882.34C3565.72 1872.17 3564.99 1860.31 3557.59 1852.92C3548.15 1843.48 3531.44 1844.89 3520.26 1856.08C3509.07 1867.26 3507.66 1883.97 3517.1 1893.41Z" fill="black" fill-opacity="0.15"/>
<g id="Group 119_5">
<circle id="Ellipse 1_5" cx="3533.99" cy="1869.7" r="25.9855" fill="#6FA662"/>
<circle id="Ellipse 2_5" cx="3556.39" cy="1890.31" r="32.2578" fill="#6FA662"/>
<ellipse id="Ellipse 3_5" cx="3561.76" cy="1853.57" rx="28.6736" ry="29.5697" fill="#6FA662"/>
<circle id="Ellipse 4_5" cx="3595.81" cy="1888.52" r="28.6736" fill="#6FA662"/>
<circle id="Ellipse 5_5" cx="3596.71" cy="1857.15" r="25.9855" fill="#6FA662"/>
<circle id="Ellipse 6_5" cx="3619.11" cy="1877.76" r="25.0894" fill="#6FA662"/>
</g>
<rect id="Rectangle 2165_5" x="3508" y="1824" width="5" height="5" fill="#A4C424" fill-opacity="0.01"/>
</g>
<g id="bush1_6" clip-path="url(#clip8_2280_895)">
<path id="Union_6" fill-rule="evenodd" clip-rule="evenodd" d="M1557.1 2079.41C1561.39 2083.71 1567.2 2085.76 1573.3 2085.66C1572.24 2094.97 1576.37 2106.07 1585.08 2114.78C1598.18 2127.88 1616.67 2130.62 1626.39 2120.91C1627.09 2120.2 1627.74 2119.45 1628.31 2118.65C1644.07 2129.36 1662.8 2130.2 1673.44 2119.55C1678.57 2114.42 1681.04 2107.42 1681.01 2099.77C1682.17 2098.95 1683.27 2098.02 1684.3 2096.99C1695.78 2085.5 1694.45 2065.55 1681.31 2052.42C1668.18 2039.28 1648.23 2037.95 1636.74 2049.43C1636.27 2049.9 1635.83 2050.38 1635.4 2050.88C1626.43 2050.01 1618.06 2052.38 1612.16 2058.27C1608.93 2061.51 1606.75 2065.49 1605.59 2069.91C1603.83 2069.24 1602.07 2068.71 1600.32 2068.34C1605.72 2058.17 1604.99 2046.31 1597.59 2038.92C1588.15 2029.48 1571.44 2030.89 1560.26 2042.08C1549.07 2053.26 1547.66 2069.97 1557.1 2079.41Z" fill="black" fill-opacity="0.15"/>
<g id="Group 119_6">
<circle id="Ellipse 1_6" cx="1573.99" cy="2055.7" r="25.9855" fill="#6FA662"/>
<circle id="Ellipse 2_6" cx="1596.39" cy="2076.31" r="32.2578" fill="#6FA662"/>
<ellipse id="Ellipse 3_6" cx="1601.76" cy="2039.57" rx="28.6736" ry="29.5697" fill="#6FA662"/>
<circle id="Ellipse 4_6" cx="1635.81" cy="2074.52" r="28.6736" fill="#6FA662"/>
<circle id="Ellipse 5_6" cx="1636.71" cy="2043.15" r="25.9855" fill="#6FA662"/>
<circle id="Ellipse 6_6" cx="1659.11" cy="2063.76" r="25.0894" fill="#6FA662"/>
</g>
<rect id="Rectangle 2165_6" x="1548" y="2010" width="5" height="5" fill="#A4C424" fill-opacity="0.01"/>
</g>
<g id="bush1_7" clip-path="url(#clip9_2280_895)">
<path id="Union_7" fill-rule="evenodd" clip-rule="evenodd" d="M1685.1 1757.41C1689.39 1761.71 1695.2 1763.76 1701.3 1763.66C1700.24 1772.97 1704.37 1784.07 1713.08 1792.78C1726.18 1805.88 1744.67 1808.62 1754.39 1798.91C1755.09 1798.2 1755.74 1797.45 1756.31 1796.65C1772.07 1807.36 1790.8 1808.2 1801.44 1797.55C1806.57 1792.42 1809.04 1785.42 1809.01 1777.77C1810.17 1776.95 1811.27 1776.02 1812.3 1774.99C1823.78 1763.5 1822.45 1743.55 1809.31 1730.42C1796.18 1717.28 1776.23 1715.95 1764.74 1727.43C1764.27 1727.9 1763.83 1728.38 1763.4 1728.88C1754.43 1728.01 1746.06 1730.38 1740.16 1736.27C1736.93 1739.51 1734.75 1743.49 1733.59 1747.91C1731.83 1747.24 1730.07 1746.71 1728.32 1746.34C1733.72 1736.17 1732.99 1724.31 1725.59 1716.92C1716.15 1707.48 1699.44 1708.89 1688.26 1720.08C1677.07 1731.26 1675.66 1747.97 1685.1 1757.41Z" fill="black" fill-opacity="0.15"/>
<g id="Group 119_7">
<circle id="Ellipse 1_7" cx="1701.99" cy="1733.7" r="25.9855" fill="#6FA662"/>
<circle id="Ellipse 2_7" cx="1724.39" cy="1754.31" r="32.2578" fill="#6FA662"/>
<ellipse id="Ellipse 3_7" cx="1729.76" cy="1717.57" rx="28.6736" ry="29.5697" fill="#6FA662"/>
<circle id="Ellipse 4_7" cx="1763.81" cy="1752.52" r="28.6736" fill="#6FA662"/>
<circle id="Ellipse 5_7" cx="1764.71" cy="1721.15" r="25.9855" fill="#6FA662"/>
<circle id="Ellipse 6_7" cx="1787.11" cy="1741.76" r="25.0894" fill="#6FA662"/>
</g>
<rect id="Rectangle 2165_7" x="1676" y="1688" width="5" height="5" fill="#A4C424" fill-opacity="0.01"/>
</g>
<g id="tree3" clip-path="url(#clip10_2280_895)">
<path id="Union_8" fill-rule="evenodd" clip-rule="evenodd" d="M3639.28 1764.31C3677.73 1802.76 3728.61 1814.23 3752.92 1789.92C3757.95 1784.88 3761.45 1778.7 3763.5 1771.74C3764.02 1772.28 3764.55 1772.82 3765.09 1773.36C3793.81 1802.08 3831.71 1810.73 3849.75 1792.69C3867.79 1774.65 3859.14 1736.74 3830.43 1708.03C3801.71 1679.32 3763.81 1670.67 3745.77 1688.71C3744.36 1690.12 3743.11 1691.65 3742.03 1693.29C3737.68 1687.44 3732.77 1681.73 3727.31 1676.28C3688.86 1637.82 3637.98 1626.36 3613.67 1650.67C3589.36 1674.98 3600.82 1725.86 3639.28 1764.31Z" fill="black" fill-opacity="0.15"/>
<circle id="Ellipse 1_8" cx="3766.15" cy="1712.46" r="54.0408" fill="#73AE65"/>
<circle id="Ellipse 1_9" cx="3634.05" cy="1674.05" r="72.0544" fill="#63A45E"/>
<rect id="Rectangle 2165_8" x="3562" y="1602" width="5" height="5" fill="#A4C424" fill-opacity="0.01"/>
</g>
<g id="tree2">
<path id="Union_9" fill-rule="evenodd" clip-rule="evenodd" d="M1720.23 1938.36C1733.83 1938.54 1745.7 1934.61 1754.15 1926.15C1757.94 1922.36 1760.82 1917.88 1762.83 1912.87C1765.89 1916.63 1769.2 1920.32 1772.78 1923.9C1806.83 1957.95 1851.27 1968.73 1872.04 1947.97C1892.8 1927.2 1882.03 1882.76 1847.97 1848.71C1813.92 1814.65 1769.48 1803.88 1748.71 1824.64C1746.78 1826.58 1745.11 1828.72 1743.72 1831.04C1738.25 1823.22 1731.84 1815.55 1724.56 1808.26C1683.83 1767.54 1631.05 1754.29 1606.67 1778.67C1582.29 1803.05 1595.54 1855.83 1636.27 1896.56C1639.83 1900.12 1643.48 1903.47 1647.2 1906.61C1639.27 1907.71 1632.34 1910.83 1627.04 1916.13C1607.45 1935.73 1617.6 1977.65 1649.71 2009.76C1681.82 2041.87 1723.74 2052.02 1743.34 2032.43C1762.93 2012.83 1752.78 1970.91 1720.67 1938.8C1720.52 1938.65 1720.38 1938.51 1720.23 1938.36Z" fill="black" fill-opacity="0.15"/>
<circle id="Ellipse 1_10" cx="1771.23" cy="1850.16" r="60.0454" fill="#63A45E"/>
<circle id="Ellipse 1_11" cx="1648.07" cy="1937.16" r="54.0408" fill="#73AE65"/>
<circle id="Ellipse 1_12" cx="1627.05" cy="1802.05" r="72.0544" fill="#86B557"/>
<rect id="Rectangle 2165_9" x="1555" y="1730" width="5" height="5" fill="#A4C424" fill-opacity="0.01"/>
</g>
<g id="stone1" clip-path="url(#clip11_2280_895)">
<path id="Vector 755" d="M3775.17 3301.14C3775.17 3291.65 3770.68 3282.72 3763.06 3277.06L3747.24 3265.31C3735.38 3256.5 3718.87 3257.64 3708.33 3268L3690.99 3285.04C3679.79 3296.05 3678.97 3313.82 3689.1 3325.8L3702.07 3341.15C3707.19 3347.21 3714.49 3350.99 3722.38 3351.68L3730.08 3352.35C3739.24 3353.14 3748.26 3349.7 3754.55 3343L3767.04 3329.7C3772.26 3324.13 3775.17 3316.79 3775.17 3309.16L3775.17 3301.14Z" fill="black" fill-opacity="0.15"/>
<rect id="Rectangle 1712" x="3702.66" y="3211" width="95.6841" height="95.6841" rx="27" transform="rotate(45 3702.66 3211)" fill="#476E86"/>
<rect id="Rectangle 2165_10" x="3645" y="3222" width="5" height="5" fill="#A4C424" fill-opacity="0.01"/>
</g>
<g id="tree1" clip-path="url(#clip12_2280_895)">
<path id="Union_10" fill-rule="evenodd" clip-rule="evenodd" d="M4018.32 3203.69C4029.89 3203.07 4040.1 3199.12 4047.65 3191.57C4070.49 3168.73 4060.37 3121.59 4025.05 3086.27C3989.73 3050.95 3942.58 3040.83 3919.75 3063.66C3896.91 3086.5 3907.03 3133.64 3942.35 3168.96C3953.22 3179.84 3965.22 3188.32 3977.28 3194.19C3962.11 3194.69 3948.17 3200 3937.76 3210.4C3911.46 3236.7 3917.75 3285.63 3951.8 3319.69C3985.86 3353.74 4034.79 3360.03 4061.09 3333.73C4087.39 3307.43 4081.1 3258.5 4047.05 3224.44C4038.25 3215.65 4028.46 3208.7 4018.32 3203.69ZM3907.35 3292.45C3887.76 3312.04 3850.26 3306.32 3823.6 3279.65C3796.94 3252.99 3791.21 3215.49 3810.8 3195.9C3830.4 3176.3 3867.9 3182.03 3894.56 3208.69C3921.22 3235.36 3926.95 3272.85 3907.35 3292.45Z" fill="black" fill-opacity="0.15"/>
<circle id="Ellipse 1_13" cx="3958.14" cy="3233.79" r="72.0544" fill="#63A45E"/>
<circle id="Ellipse 1_14" cx="3823.04" cy="3207.04" r="57.0431" fill="#86B557"/>
<circle id="Ellipse 1_15" cx="3940.13" cy="3087.05" r="63.0476" fill="#73AE65"/>
<rect id="Rectangle 2165_11" x="3766" y="3024" width="5" height="5" fill="#A4C424" fill-opacity="0.01"/>
</g>
<g id="tree6" clip-path="url(#clip13_2280_895)">
<path id="Union_11" d="M1612.02 3157.31C1593.94 3175.38 1552.2 3162.95 1518.79 3129.54C1485.38 3096.12 1472.94 3054.39 1491.02 3036.31C1509.09 3018.24 1550.83 3030.67 1584.24 3064.08C1617.66 3097.5 1630.09 3139.24 1612.02 3157.31Z" fill="black" fill-opacity="0.15"/>
<circle id="Ellipse 1_16" cx="1512" cy="3057.29" r="53" fill="#86B557"/>
<rect id="Rectangle 2165_12" x="1452" y="2997" width="5" height="5" fill="#A4C424" fill-opacity="0.01"/>
</g>
<g id="tree4">
<path id="Union_12" fill-rule="evenodd" clip-rule="evenodd" d="M4009.08 1994.36C4029.88 1998.77 4049.49 1994.94 4062.51 1981.92C4087.29 1957.14 4078.79 1908.47 4043.53 1873.2C4008.27 1837.94 3959.59 1829.44 3934.81 1854.22C3910.03 1879 3918.53 1927.68 3953.79 1962.94C3954.76 1963.91 3955.74 1964.86 3956.73 1965.78C3942.11 1963.77 3928.74 1967.03 3919.63 1976.14C3899.96 1995.82 3907.56 2035.32 3936.61 2064.37C3965.67 2093.43 4005.17 2101.03 4024.84 2081.36C4044.24 2061.96 4037.12 2023.29 4009.08 1994.36Z" fill="black" fill-opacity="0.15"/>
<circle id="Ellipse 1_17" cx="3938.05" cy="1994.56" r="54.0408" fill="#86B557"/>
<circle id="Ellipse 1_18" cx="3947.05" cy="1862.46" r="72.0544" fill="#73AE65"/>
<rect id="Rectangle 2165_13" x="3875" y="1790" width="5" height="5" fill="#A4C424" fill-opacity="0.01"/>
</g>
<g id="tree5" clip-path="url(#clip14_2280_895)">
<path id="Union_13" d="M3895.55 1939.55C3873.82 1961.28 3829.36 1952.06 3796.26 1918.95C3763.15 1885.85 3753.93 1841.4 3775.67 1819.66C3797.4 1797.93 3841.85 1807.15 3874.96 1840.25C3908.06 1873.36 3917.28 1917.81 3895.55 1939.55Z" fill="black" fill-opacity="0.15"/>
<circle id="Ellipse 1_19" cx="3796.05" cy="1843.05" r="66.0499" fill="#63A45E"/>
<rect id="Rectangle 2165_14" x="3730" y="1777" width="5" height="5" fill="#A4C424" fill-opacity="0.01"/>
</g>
<g id="stone7">
<path id="Rectangle 2189_10" d="M1515.94 3343.53C1502.61 3330.2 1505.99 3307.78 1522.66 3298.97L1659.49 3226.67C1670.35 3220.93 1683.68 3222.94 1692.37 3231.62L1720.53 3259.79C1724.86 3264.11 1727.65 3269.74 1728.48 3275.8L1736.85 3337.25C1738.18 3347.02 1734.28 3356.77 1726.58 3362.92L1683.62 3397.21C1679.3 3400.66 1674.06 3402.75 1668.56 3403.23L1596.03 3409.5C1587.79 3410.21 1579.66 3407.25 1573.82 3401.4L1515.94 3343.53Z" fill="black" fill-opacity="0.15"/>
<path id="Vector 1152_7" d="M1495.24 3206.23L1542.39 3176.58C1555.97 3168.05 1572.8 3166.54 1587.68 3172.53L1654.16 3199.29C1672.59 3206.71 1684.88 3224.33 1685.47 3244.19L1686.59 3282.31C1687.38 3309 1667.05 3331.6 1640.43 3333.64L1538.61 3341.43C1515.19 3343.22 1493.68 3328.47 1486.91 3305.98L1473.97 3262.97C1467.49 3241.42 1476.19 3218.21 1495.24 3206.23Z" fill="#BB816E"/>
<path id="Vector 1153_7" d="M1625.88 3249.08L1611.51 3227.38C1604.1 3216.21 1590.19 3211.3 1577.41 3215.36L1551.74 3223.51C1536.69 3228.29 1527.92 3243.91 1531.68 3259.25L1537.23 3281.87C1541.23 3298.15 1557.79 3308 1574 3303.74L1608.5 3294.66C1628.37 3289.43 1637.22 3266.22 1625.88 3249.08Z" fill="#9A6A5A"/>
<rect id="mapHelper_14" x="1469" y="3168" width="5" height="5" fill="#A4C424" fill-opacity="0.01"/>
</g>
<g id="tree5_2" clip-path="url(#clip15_2280_895)">
<path id="Union_14" d="M1838.55 3442.55C1816.82 3464.28 1772.36 3455.06 1739.26 3421.95C1706.15 3388.85 1696.93 3344.4 1718.67 3322.66C1740.4 3300.93 1784.85 3310.15 1817.96 3343.25C1851.06 3376.36 1860.28 3420.81 1838.55 3442.55Z" fill="black" fill-opacity="0.15"/>
<circle id="Ellipse 1_20" cx="1739.05" cy="3346.05" r="66.0499" fill="#63A45E"/>
<rect id="Rectangle 2165_15" x="1673" y="3280" width="5" height="5" fill="#A4C424" fill-opacity="0.01"/>
</g>
<g id="barrel">
<g id="Ellipse 9" filter="url(#filter0_d_2280_895)">
<circle cx="1875" cy="1765" r="35" fill="#A5586E"/>
</g>
<circle id="Ellipse 10" cx="1886.5" cy="1776.5" r="8.5" fill="#803A4E"/>
<rect id="Rectangle 2165_16" x="1840" y="1730" width="5" height="5" fill="#A4C424" fill-opacity="0.01"/>
</g>
<g id="barrel_2">
<g id="Ellipse 9_2" filter="url(#filter1_d_2280_895)">
<circle cx="3704" cy="3145" r="35" fill="#A5586E"/>
</g>
<circle id="Ellipse 10_2" cx="3715.5" cy="3156.5" r="8.5" fill="#803A4E"/>
<rect id="Rectangle 2165_17" x="3669" y="3110" width="5" height="5" fill="#A4C424" fill-opacity="0.01"/>
</g>
</g>
<rect id="Rectangle 2297" x="1466" y="1589" width="2588" height="1974" fill="#D9D9D9"/>
</g>
<defs>
<filter id="filter0_d_2280_895" x="1840" y="1730" width="82" height="82" filterUnits="userSpaceOnUse" color-interpolation-filters="sRGB">
<feFlood flood-opacity="0" result="BackgroundImageFix"/>
<feColorMatrix in="SourceAlpha" type="matrix" values="0 0 0 0 0 0 0 0 0 0 0 0 0 0 0 0 0 0 127 0" result="hardAlpha"/>
<feOffset dx="12" dy="12"/>
<feComposite in2="hardAlpha" operator="out"/>
<feColorMatrix type="matrix" values="0 0 0 0 0 0 0 0 0 0 0 0 0 0 0 0 0 0 0.15 0"/>
<feBlend mode="normal" in2="BackgroundImageFix" result="effect1_dropShadow_2280_895"/>
<feBlend mode="normal" in="SourceGraphic" in2="effect1_dropShadow_2280_895" result="shape"/>
</filter>
<filter id="filter1_d_2280_895" x="3669" y="3110" width="82" height="82" filterUnits="userSpaceOnUse" color-interpolation-filters="sRGB">
<feFlood flood-opacity="0" result="BackgroundImageFix"/>
<feColorMatrix in="SourceAlpha" type="matrix" values="0 0 0 0 0 0 0 0 0 0 0 0 0 0 0 0 0 0 127 0" result="hardAlpha"/>
<feOffset dx="12" dy="12"/>
<feComposite in2="hardAlpha" operator="out"/>
<feColorMatrix type="matrix" values="0 0 0 0 0 0 0 0 0 0 0 0 0 0 0 0 0 0 0.15 0"/>
<feBlend mode="normal" in2="BackgroundImageFix" result="effect1_dropShadow_2280_895"/>
<feBlend mode="normal" in="SourceGraphic" in2="effect1_dropShadow_2280_895" result="shape"/>
</filter>
<clipPath id="clip0_2280_895">
<rect width="5396" height="4673" fill="white"/>
</clipPath>
<clipPath id="clip1_2280_895">
<rect width="100" height="60" fill="white" transform="translate(3034 4532) rotate(-90)"/>
</clipPath>
<clipPath id="clip2_2280_895">
<rect width="285.12" height="218.88" fill="white" transform="translate(2617 2467)"/>
</clipPath>
<clipPath id="clip3_2280_895">
<rect width="144" height="120" fill="white" transform="translate(3886 2909)"/>
</clipPath>
<clipPath id="clip4_2280_895">
<rect width="144" height="120" fill="white" transform="translate(3727 3016)"/>
</clipPath>
<clipPath id="clip5_2280_895">
<rect width="144" height="120" fill="white" transform="translate(1850 3316)"/>
</clipPath>
<clipPath id="clip6_2280_895">
<rect width="144" height="120" fill="white" transform="translate(1483 2856)"/>
</clipPath>
<clipPath id="clip7_2280_895">
<rect width="144" height="120" fill="white" transform="translate(3508 1824)"/>
</clipPath>
<clipPath id="clip8_2280_895">
<rect width="144" height="120" fill="white" transform="translate(1548 2010)"/>
</clipPath>
<clipPath id="clip9_2280_895">
<rect width="144" height="120" fill="white" transform="translate(1676 1688)"/>
</clipPath>
<clipPath id="clip10_2280_895">
<rect width="297" height="206" fill="white" transform="translate(3562 1602)"/>
</clipPath>
<clipPath id="clip11_2280_895">
<rect width="149" height="134" fill="white" transform="translate(3645 3222)"/>
</clipPath>
<clipPath id="clip12_2280_895">
<rect width="311" height="326" fill="white" transform="translate(3766 3024)"/>
</clipPath>
<clipPath id="clip13_2280_895">
<rect width="168" height="176" fill="white" transform="translate(1452 2997)"/>
</clipPath>
<clipPath id="clip14_2280_895">
<rect width="177" height="180" fill="white" transform="translate(3730 1777)"/>
</clipPath>
<clipPath id="clip15_2280_895">
<rect width="177" height="180" fill="white" transform="translate(1673 3280)"/>
</clipPath>
</defs>
</svg>
