<svg width="5396" height="4673" viewBox="0 0 5396 4673" fill="none" xmlns="http://www.w3.org/2000/svg">
<g id="hitbox" clip-path="url(#clip0_2280_895)">
<g id="bossRoomRoad">
<path id="road" d="M3064.15 4794.5C3064.15 4777 3064.15 4658.5 3064.15 4597C3059.82 4355.33 3051.15 4257.5 2978.65 4131C2902.34 3997.85 2773.15 3777 2773.15 3570M2699.65 636.5C2699.65 896.784 2699.65 1196.5 2699.65 1303C2699.65 1409.5 2625.65 1553.2 2625.65 1760" stroke="#1C506F" stroke-opacity="0.05" stroke-width="310" stroke-linecap="round"/>
</g>
<g id="exit blocks">
<g id="stone7:blocksExit=true">
<path id="Rectangle 2189" d="M2466.94 1382.53C2453.61 1369.2 2456.99 1346.78 2473.66 1337.97L2610.49 1265.67C2621.35 1259.93 2634.68 1261.94 2643.37 1270.62L2671.53 1298.79C2675.86 1303.11 2678.65 1308.74 2679.48 1314.8L2687.85 1376.25C2689.18 1386.02 2685.28 1395.77 2677.58 1401.92L2634.62 1436.21C2630.3 1439.66 2625.06 1441.75 2619.56 1442.23L2547.03 1448.5C2538.79 1449.21 2530.66 1446.25 2524.82 1440.4L2466.94 1382.53Z" fill="black" fill-opacity="0.15"/>
<path id="Vector 1152" d="M2446.24 1245.23L2493.39 1215.58C2506.97 1207.05 2523.8 1205.54 2538.68 1211.53L2605.16 1238.29C2623.59 1245.71 2635.88 1263.33 2636.47 1283.19L2637.59 1321.31C2638.38 1348 2618.05 1370.6 2591.43 1372.64L2489.61 1380.43C2466.19 1382.22 2444.68 1367.47 2437.91 1344.98L2424.97 1301.97C2418.49 1280.42 2427.19 1257.21 2446.24 1245.23Z" fill="#BB816E"/>
<path id="Vector 1153" d="M2576.88 1288.08L2562.51 1266.38C2555.1 1255.21 2541.19 1250.3 2528.41 1254.36L2502.74 1262.51C2487.69 1267.29 2478.92 1282.91 2482.68 1298.25L2488.23 1320.87C2492.23 1337.15 2508.79 1347 2525 1342.74L2559.5 1333.66C2579.37 1328.43 2588.22 1305.22 2576.88 1288.08Z" fill="#9A6A5A"/>
<rect id="mapHelper" x="2420" y="1207" width="5" height="5" fill="#A4C424" fill-opacity="0.01"/>
</g>
<g id="stone6:blocksExit=true">
<path id="Rectangle 2189_2" d="M2663.27 1282.85C2650.14 1269.73 2653.19 1247.7 2669.38 1238.62L2789.23 1171.49C2798.05 1166.55 2808.84 1166.75 2817.47 1172L2866.37 1201.76C2873.1 1205.85 2877.79 1212.59 2879.3 1220.31L2889.76 1273.88C2891.75 1284.1 2887.91 1294.58 2879.79 1301.09L2831.71 1339.62C2827.34 1343.13 2822.01 1345.24 2816.43 1345.68L2745.65 1351.32C2737.47 1351.98 2729.42 1349.01 2723.63 1343.21L2663.27 1282.85Z" fill="black" fill-opacity="0.15"/>
<path id="Vector 1152_2" d="M2641.58 1201.59L2686.03 1140.65C2701.5 1119.44 2730.74 1113.81 2752.99 1127.76L2808.04 1162.28C2837.57 1180.79 2839.57 1223.08 2811.92 1244.31L2747.06 1294.09C2730 1307.18 2706.48 1307.9 2688.66 1295.87L2654.01 1272.51C2630.52 1256.66 2624.88 1224.48 2641.58 1201.59Z" fill="#BB816E"/>
<path id="Vector 1153_2" d="M2757.54 1237.3L2765.79 1216.75C2775.64 1192.23 2751.27 1167.88 2726.76 1177.74L2703.52 1187.08C2681.81 1195.82 2678.01 1224.94 2696.76 1238.95L2711.75 1250.15C2727.53 1261.94 2750.2 1255.58 2757.54 1237.3Z" fill="#9A6A5A"/>
<rect id="mapHelper_2" x="2629" y="1117" width="5" height="5" fill="#A4C424" fill-opacity="0.01"/>
</g>
<g id="stone5:blocksExit=true">
<path id="Rectangle 2189_3" d="M2836.98 1354.09C2823.05 1340.16 2827.48 1316.59 2845.51 1308.66L2940.72 1266.81C2951.28 1262.16 2963.62 1264.48 2971.78 1272.64L3000 1300.86C3003.31 1304.17 3005.73 1308.24 3007.05 1312.72L3020.42 1357.91C3023.72 1369.07 3019.78 1381.11 3010.51 1388.15L2981.54 1410.15C2976.46 1414.01 2970.22 1416.02 2963.84 1415.85L2908.06 1414.33C2900.9 1414.13 2894.09 1411.2 2889.02 1406.14L2836.98 1354.09Z" fill="black" fill-opacity="0.15"/>
<path id="Vector 1152_3" d="M2817.79 1279.96L2841.25 1236.89C2856.03 1209.74 2891.67 1202.37 2916 1221.45L2958.72 1254.93C2972.27 1265.55 2979.4 1282.4 2977.6 1299.53L2975.26 1321.67C2972.36 1349.17 2947.68 1369.1 2920.18 1366.13L2878.53 1361.65C2874.53 1361.22 2870.59 1360.3 2866.8 1358.93L2844.62 1350.86C2815.87 1340.41 2803.16 1306.82 2817.79 1279.96Z" fill="#BB816E"/>
<path id="Vector 1153_3" d="M2859.27 1284.91L2863.65 1272.5C2870 1254.49 2891.35 1246.92 2907.63 1256.91L2927.24 1268.95C2939.56 1276.51 2944.73 1291.79 2939.54 1305.29L2938.87 1307.03C2934.18 1319.22 2922.15 1326.98 2909.11 1326.21L2885.8 1324.84C2865.87 1323.67 2852.62 1303.73 2859.27 1284.91Z" fill="#9A6A5A"/>
<rect id="mapHelper_3" x="2810" y="1209" width="5" height="5" fill="#A4C424" fill-opacity="0.01"/>
</g>
<g id="stone3:blocksExit=true">
<path id="Rectangle 2189_4" d="M2662.55 1416.04C2651.61 1405.1 2651.61 1387.37 2662.55 1376.44L2696.09 1342.9C2707.02 1331.97 2724.75 1331.97 2735.68 1342.9L2756.9 1364.12C2764.06 1371.28 2766.8 1381.75 2764.06 1391.5L2756.69 1417.68C2754.05 1427.07 2746.71 1434.4 2737.32 1437.05L2711.15 1444.41C2701.4 1447.15 2690.93 1444.42 2683.77 1437.26L2662.55 1416.04Z" fill="black" fill-opacity="0.15"/>
<path id="Rectangle293" d="M2637.38 1359.23L2642.01 1345.66C2648.56 1326.47 2668.44 1315.21 2688.27 1319.47L2710.27 1324.2C2735.76 1329.68 2749.28 1357.68 2737.72 1381.05L2729.75 1397.16C2720.55 1415.75 2698.68 1424.22 2679.37 1416.69L2660.71 1409.42C2640.74 1401.64 2630.46 1379.51 2637.38 1359.23Z" fill="#BB816E"/>
<rect id="mapHelper_4" x="2634" y="1318" width="5" height="5" fill="#A4C424" fill-opacity="0.01"/>
</g>
</g>
<g id="spawn" clip-path="url(#clip1_2280_895)">
<rect id="Rectangle 2166" x="3034" y="4532" width="100" height="60" transform="rotate(-90 3034 4532)" fill="#DC567C"/>
</g>
<g id="exit:to=room0">
<rect id="rect" x="2472" y="818" width="468" height="299" fill="white" fill-opacity="0.2"/>
</g>
<g id="walls" opacity="0.01">
<path id="wall" d="M2959.49 1250.39L3136.5 1522.21C3150.61 1543.89 3172.58 1559.25 3197.79 1565.08L3620.49 1662.72C3659.35 1671.69 3689.16 1702.89 3696.35 1742.11L3730.58 1928.78C3735.63 1956.32 3751.99 1980.49 3775.7 1995.39L4047.33 2166.24C4072.75 2182.22 4089.64 2208.79 4093.33 2238.59L4137.37 2593.96C4141.51 2627.38 4128.55 2660.63 4102.9 2682.44L3853.19 2894.73C3836.22 2909.16 3824.55 2928.85 3820.04 2950.67L3750.24 3288.23C3742.98 3323.34 3717.48 3351.88 3683.41 3363.03L3448.92 3439.75C3443.32 3441.58 3437.89 3443.9 3432.7 3446.69L3202.67 3570.24C3157.86 3594.31 3138.26 3648.19 3157.13 3695.43L3259.87 3952.64C3264.58 3964.44 3267 3977.03 3267 3989.73V4397V4690.56C3267 4745.76 3311.74 4790.53 3366.94 4790.56L5784.09 4791.94C5838.69 4791.98 5883.23 4748.2 5884.13 4693.6L5961.32 32.6558C5962.24 -23.2128 5917.21 -69 5861.33 -69H2968C2912.77 -69 2868 -24.2285 2868 31V1024.05C2868 1037.87 2870.86 1051.53 2876.41 1064.19L2951.7 1235.97C2953.9 1240.98 2956.5 1245.81 2959.49 1250.39Z" fill="#1C506F"/>
<path id="wall_2" d="M2335.3 1427.96L2439.5 1243.5L2505.32 1085.45C2510.39 1073.27 2513 1060.21 2513 1047.01V987.5C2513 932.272 2557.77 887.5 2613 887.5H2788.5C2832.68 887.5 2868.5 923.317 2868.5 967.5C2868.5 1011.68 2904.32 1047.5 2948.5 1047.5H2998.5C3053.73 1047.5 3098.5 1002.73 3098.5 947.5V26C3098.5 -29.2285 3053.73 -74 2998.5 -74H16.8593C-37.7242 -74 -82.2241 -30.2303 -83.127 24.3458L-160.319 4690.41C-161.243 4746.26 -116.249 4792.03 -60.3994 4792.07L2756.93 4793.93C2812.19 4793.97 2857 4749.19 2857 4693.93V4432.94C2857 4416.24 2852.82 4399.82 2844.85 4385.16L2748.89 4208.73C2746.63 4204.58 2744.09 4200.6 2741.27 4196.81L2545.87 3934.22C2542.3 3929.42 2539.16 3924.3 2536.5 3918.93L2330.37 3503.04C2318.9 3479.92 2298.94 3462.12 2274.65 3453.37L1939.36 3332.62C1919.31 3325.39 1902.09 3311.96 1890.22 3294.26L1669.2 2964.97C1649.28 2935.29 1646.71 2897.23 1662.47 2865.15L1782.07 2621.71C1797 2591.33 1795.54 2555.46 1778.21 2526.39L1613.52 2250.24C1600.95 2229.15 1596.57 2204.18 1601.22 2180.07L1680.27 1770.54C1688.22 1729.36 1721.01 1697.52 1762.4 1690.79L1951.68 1659.98C1963.79 1658.01 1975.43 1653.83 1986.03 1647.64L2298.65 1465.13C2313.94 1456.2 2326.59 1443.38 2335.3 1427.96Z" fill="#1C506F"/>
</g>
<g id="enemies">
<g id="KingBoss:wave=0" clip-path="url(#clip2_2280_895)">
<g id="off hand">
<rect id="Rectangle 2261" x="2859.8" y="2738.51" width="48.96" height="48.96" rx="24.48" transform="rotate(-15 2859.8 2738.51)" fill="#4B516E"/>
<rect id="Rectangle 2263" x="2846.92" y="2724" width="64.8" height="24.6491" rx="12.3245" transform="rotate(-15 2846.92 2724)" fill="#DD5B80"/>
</g>
<g id="head">
<rect id="Rectangle 2260" x="2717.32" y="2625.15" width="132.48" height="132.48" rx="66.24" fill="#4B516E"/>
<path id="Intersect" fill-rule="evenodd" clip-rule="evenodd" d="M2844.04 2672.28V2667.35C2844.04 2642.7 2824.06 2622.71 2799.4 2622.71H2767.72C2743.07 2622.71 2723.08 2642.7 2723.08 2667.35V2672.27L2723.86 2677.46C2724.44 2681.36 2727.51 2684.41 2731.4 2684.98C2733.41 2685.27 2735.26 2686.24 2736.64 2687.72L2744.01 2695.6C2751.12 2703.22 2763.02 2703.76 2770.79 2696.82C2778.07 2690.33 2789.06 2690.33 2796.33 2696.82C2804.11 2703.76 2816.01 2703.22 2823.12 2695.6L2830.49 2687.72C2831.87 2686.24 2833.72 2685.27 2835.73 2684.98C2839.62 2684.41 2842.69 2681.36 2843.27 2677.46L2844.04 2672.28Z" fill="#4B516E"/>
<g id="Exclude">
<path fill-rule="evenodd" clip-rule="evenodd" d="M2729.58 2623.69L2731.8 2610.04C2733.13 2601.9 2742.14 2597.55 2749.34 2601.58C2753.8 2604.08 2759.37 2603.44 2763.15 2599.99L2768.63 2594.99C2777.09 2587.27 2790.04 2587.27 2798.5 2594.99L2804.07 2600.07C2807.79 2603.47 2813.28 2604.1 2817.68 2601.64C2824.87 2597.62 2833.84 2602.07 2835 2610.21L2836.86 2623.29C2837.28 2626.19 2838.3 2628.98 2839.87 2631.46L2842.41 2635.49C2846.1 2641.33 2847.57 2648.3 2846.55 2655.13L2844.01 2672.12V2667.22C2844.01 2642.56 2824.02 2622.58 2799.37 2622.58H2767.75C2743.1 2622.58 2723.11 2642.56 2723.11 2667.22V2672.1L2720.5 2654.64C2719.53 2648.11 2720.82 2641.44 2724.18 2635.75L2726.87 2631.18C2728.23 2628.88 2729.15 2626.34 2729.58 2623.69ZM2723.11 2672.1V2683.72C2723.11 2708.37 2743.1 2728.36 2767.75 2728.36H2799.37C2824.02 2728.36 2844.01 2708.37 2844.01 2683.72V2672.12L2843.24 2677.3C2842.65 2681.19 2839.59 2684.24 2835.7 2684.81C2833.69 2685.1 2831.84 2686.07 2830.46 2687.55L2823.1 2695.43C2815.99 2703.04 2804.1 2703.59 2796.33 2696.65C2789.05 2690.16 2778.07 2690.16 2770.8 2696.65C2763.03 2703.59 2751.14 2703.04 2744.03 2695.43L2736.67 2687.55C2735.28 2686.07 2733.44 2685.1 2731.43 2684.81C2727.54 2684.24 2724.47 2681.19 2723.89 2677.3L2723.11 2672.1Z" fill="#DD5B81"/>
<path d="M2731.8 2610.04L2737.49 2610.97L2737.49 2610.97L2731.8 2610.04ZM2729.58 2623.69L2723.89 2622.77L2723.89 2622.77L2729.58 2623.69ZM2749.34 2601.58L2746.52 2606.61L2746.52 2606.61L2749.34 2601.58ZM2763.15 2599.99L2767.03 2604.24L2767.03 2604.24L2763.15 2599.99ZM2768.63 2594.99L2764.74 2590.74L2764.74 2590.74L2768.63 2594.99ZM2798.5 2594.99L2802.38 2590.74L2802.38 2590.74L2798.5 2594.99ZM2804.07 2600.07L2800.18 2604.32L2800.18 2604.32L2804.07 2600.07ZM2817.68 2601.64L2820.5 2606.67L2820.5 2606.67L2817.68 2601.64ZM2835 2610.21L2840.71 2609.4L2840.71 2609.4L2835 2610.21ZM2836.86 2623.29L2831.16 2624.1L2831.16 2624.1L2836.86 2623.29ZM2839.87 2631.46L2844.74 2628.38L2844.74 2628.38L2839.87 2631.46ZM2842.41 2635.49L2837.55 2638.57L2837.55 2638.57L2842.41 2635.49ZM2846.55 2655.13L2852.25 2655.98L2852.25 2655.98L2846.55 2655.13ZM2720.5 2654.64L2714.81 2655.49L2714.81 2655.49L2720.5 2654.64ZM2724.18 2635.75L2719.21 2632.82L2719.21 2632.82L2724.18 2635.75ZM2726.87 2631.18L2721.91 2628.26L2721.91 2628.26L2726.87 2631.18ZM2843.24 2677.3L2837.54 2676.45L2837.54 2676.45L2843.24 2677.3ZM2835.7 2684.81L2834.87 2679.11L2834.87 2679.11L2835.7 2684.81ZM2830.46 2687.55L2826.25 2683.62L2826.25 2683.62L2830.46 2687.55ZM2823.1 2695.43L2818.89 2691.5L2818.89 2691.5L2823.1 2695.43ZM2796.33 2696.65L2800.16 2692.35L2800.16 2692.35L2796.33 2696.65ZM2770.8 2696.65L2766.96 2692.35L2766.96 2692.35L2770.8 2696.65ZM2744.03 2695.43L2748.24 2691.5L2748.24 2691.5L2744.03 2695.43ZM2736.67 2687.55L2732.46 2691.48L2732.46 2691.48L2736.67 2687.55ZM2731.43 2684.81L2730.6 2690.51L2730.6 2690.51L2731.43 2684.81ZM2723.89 2677.3L2718.19 2678.15L2718.19 2678.15L2723.89 2677.3ZM2726.12 2609.12L2723.89 2622.77L2735.26 2624.62L2737.49 2610.97L2726.12 2609.12ZM2752.15 2596.55C2741.46 2590.57 2728.08 2597.03 2726.12 2609.12L2737.49 2610.97C2738.17 2606.77 2742.81 2604.53 2746.52 2606.61L2752.15 2596.55ZM2759.27 2595.73C2757.32 2597.51 2754.45 2597.84 2752.15 2596.55L2746.52 2606.61C2753.16 2610.32 2761.42 2609.36 2767.03 2604.24L2759.27 2595.73ZM2764.74 2590.74L2759.27 2595.73L2767.03 2604.24L2772.51 2599.25L2764.74 2590.74ZM2802.38 2590.74C2791.72 2581.01 2775.4 2581.01 2764.74 2590.74L2772.51 2599.25C2778.77 2593.53 2788.36 2593.53 2794.62 2599.25L2802.38 2590.74ZM2807.95 2595.81L2802.38 2590.74L2794.62 2599.25L2800.18 2604.32L2807.95 2595.81ZM2814.87 2596.61C2812.63 2597.87 2809.84 2597.54 2807.95 2595.81L2800.18 2604.32C2805.74 2609.4 2813.93 2610.34 2820.5 2606.67L2814.87 2596.61ZM2840.71 2609.4C2838.98 2597.25 2825.59 2590.62 2814.87 2596.61L2820.5 2606.67C2824.15 2604.62 2828.71 2606.88 2829.3 2611.03L2840.71 2609.4ZM2842.57 2622.48L2840.71 2609.4L2829.3 2611.03L2831.16 2624.1L2842.57 2622.48ZM2844.74 2628.38C2843.6 2626.59 2842.86 2624.58 2842.57 2622.48L2831.16 2624.1C2831.69 2627.81 2833 2631.36 2835 2634.53L2844.74 2628.38ZM2847.28 2632.41L2844.74 2628.38L2835 2634.53L2837.55 2638.57L2847.28 2632.41ZM2852.25 2655.98C2853.47 2647.79 2851.71 2639.42 2847.28 2632.41L2837.55 2638.57C2840.5 2643.24 2841.67 2648.81 2840.85 2654.28L2852.25 2655.98ZM2849.71 2672.97L2852.25 2655.98L2840.85 2654.28L2838.31 2671.27L2849.71 2672.97ZM2838.25 2667.22V2672.12H2849.77V2667.22H2838.25ZM2799.37 2628.34C2820.84 2628.34 2838.25 2645.74 2838.25 2667.22H2849.77C2849.77 2639.38 2827.21 2616.82 2799.37 2616.82V2628.34ZM2767.75 2628.34H2799.37V2616.82H2767.75V2628.34ZM2728.87 2667.22C2728.87 2645.74 2746.28 2628.34 2767.75 2628.34V2616.82C2739.92 2616.82 2717.35 2639.38 2717.35 2667.22H2728.87ZM2728.87 2672.1V2667.22H2717.35V2672.1H2728.87ZM2714.81 2655.49L2717.42 2672.96L2728.81 2671.25L2726.2 2653.78L2714.81 2655.49ZM2719.21 2632.82C2715.19 2639.65 2713.63 2647.65 2714.81 2655.49L2726.2 2653.78C2725.42 2648.56 2726.46 2643.23 2729.14 2638.68L2719.21 2632.82ZM2721.91 2628.26L2719.21 2632.82L2729.14 2638.68L2731.83 2634.11L2721.91 2628.26ZM2723.89 2622.77C2723.58 2624.71 2722.9 2626.57 2721.91 2628.26L2731.83 2634.11C2733.55 2631.19 2734.72 2627.97 2735.26 2624.62L2723.89 2622.77ZM2728.87 2683.72V2672.1H2717.35V2683.72H2728.87ZM2767.75 2722.6C2746.28 2722.6 2728.87 2705.19 2728.87 2683.72H2717.35C2717.35 2711.56 2739.92 2734.12 2767.75 2734.12V2722.6ZM2799.37 2722.6H2767.75V2734.12H2799.37V2722.6ZM2838.25 2683.72C2838.25 2705.19 2820.84 2722.6 2799.37 2722.6V2734.12C2827.21 2734.12 2849.77 2711.56 2849.77 2683.72H2838.25ZM2838.25 2672.12V2683.72H2849.77V2672.12H2838.25ZM2848.93 2678.15L2849.71 2672.97L2838.31 2671.27L2837.54 2676.45L2848.93 2678.15ZM2836.53 2690.51C2842.93 2689.58 2847.97 2684.56 2848.93 2678.15L2837.54 2676.45C2837.33 2677.83 2836.25 2678.91 2834.87 2679.11L2836.53 2690.51ZM2834.67 2691.48C2835.16 2690.95 2835.81 2690.61 2836.53 2690.51L2834.87 2679.11C2831.57 2679.59 2828.53 2681.18 2826.25 2683.62L2834.67 2691.48ZM2827.31 2699.36L2834.67 2691.48L2826.25 2683.62L2818.89 2691.5L2827.31 2699.36ZM2792.49 2700.95C2802.6 2709.97 2818.06 2709.26 2827.31 2699.36L2818.89 2691.5C2813.92 2696.82 2805.6 2697.2 2800.16 2692.35L2792.49 2700.95ZM2774.63 2700.95C2779.72 2696.41 2787.4 2696.41 2792.49 2700.95L2800.16 2692.35C2790.7 2683.91 2776.42 2683.91 2766.96 2692.35L2774.63 2700.95ZM2739.82 2699.36C2749.06 2709.26 2764.53 2709.97 2774.63 2700.95L2766.96 2692.35C2761.53 2697.2 2753.21 2696.82 2748.24 2691.5L2739.82 2699.36ZM2732.46 2691.48L2739.82 2699.36L2748.24 2691.5L2740.88 2683.62L2732.46 2691.48ZM2730.6 2690.51C2731.31 2690.61 2731.97 2690.95 2732.46 2691.48L2740.88 2683.62C2738.6 2681.18 2735.56 2679.59 2732.26 2679.11L2730.6 2690.51ZM2718.19 2678.15C2719.15 2684.56 2724.19 2689.58 2730.6 2690.51L2732.26 2679.11C2730.88 2678.91 2729.79 2677.83 2729.59 2676.45L2718.19 2678.15ZM2717.42 2672.96L2718.19 2678.15L2729.59 2676.45L2728.81 2671.25L2717.42 2672.96Z" fill="#DD5B81"/>
</g>
<path id="Vector 1159" d="M2777.06 2707.92L2774.07 2714.22C2771.79 2718.99 2775.28 2724.51 2780.57 2724.51H2786.56C2791.85 2724.51 2795.34 2718.99 2793.06 2714.22L2790.06 2707.92C2787.46 2702.45 2779.67 2702.45 2777.06 2707.92Z" fill="#EFDAD4"/>
</g>
<g id="sceptor hand">
<g id="sceptor bottom">
<rect id="Rectangle 2264" x="2668.36" y="2763.39" width="21.6" height="34.56" rx="8.64" fill="#D2896E"/>
</g>
<g id="Group 199">
<rect id="Rectangle 2261_2" x="2662.07" y="2726.24" width="48.96" height="48.96" rx="24.48" transform="rotate(15 2662.07 2726.24)" fill="#4B516E"/>
<rect id="Rectangle 2263_2" x="2658.16" y="2707.23" width="64.8" height="24.6491" rx="12.3245" transform="rotate(15 2658.16 2707.23)" fill="#DD5B80"/>
</g>
<g id="sceptor top">
<rect id="Rectangle 2265" x="2668.36" y="2717.31" width="21.6" height="34.56" rx="8.64" fill="#DE8A6A"/>
<path id="Rectangle 2266" d="M2679.81 2731.71C2684.16 2731.71 2688.14 2729.26 2690.09 2725.38L2701.7 2702.34C2705.56 2694.67 2700 2685.63 2691.42 2685.63H2666.91C2658.33 2685.63 2652.76 2694.67 2656.62 2702.34L2668.23 2725.38C2670.19 2729.26 2674.17 2731.71 2678.52 2731.71H2679.81Z" fill="#DE8A6A"/>
<path id="Rectangle 2267" d="M2674.29 2706.75C2676.56 2710.32 2681.77 2710.32 2684.03 2706.75L2687.24 2701.67C2689.67 2697.84 2686.91 2692.83 2682.37 2692.83H2675.95C2671.41 2692.83 2668.65 2697.84 2671.08 2701.67L2674.29 2706.75Z" fill="#CC5879"/>
</g>
</g>
<rect id="mapHelper_5" x="2714.44" y="2622.32" width="138.24" height="135.36" fill="white" fill-opacity="0.01"/>
</g>
</g>
<g id="exit:side=bottom">
<rect id="rect_2" x="2857" y="4668" width="410" height="10" fill="white" fill-opacity="0.2"/>
</g>
</g>
<defs>
<clipPath id="clip0_2280_895">
<rect width="5396" height="4673" fill="white"/>
</clipPath>
<clipPath id="clip1_2280_895">
<rect width="100" height="60" fill="white" transform="translate(3034 4532) rotate(-90)"/>
</clipPath>
<clipPath id="clip2_2280_895">
<rect width="285.12" height="216" fill="white" transform="translate(2641 2582)"/>
</clipPath>
</defs>
</svg>
