<svg width="5396" height="4673" viewBox="0 0 5396 4673" fill="none" xmlns="http://www.w3.org/2000/svg">
<g id="walls" clip-path="url(#clip0_2280_883)">
<rect id="exitDarkness" x="2308" y="969" width="780" height="303" fill="url(#paint0_linear_2280_883)"/>
<g id="Group 127">
<path id="rock" d="M2959.49 1250.39L3136.5 1522.21C3150.61 1543.89 3172.58 1559.25 3197.79 1565.08L3620.49 1662.72C3659.35 1671.69 3689.16 1702.89 3696.35 1742.11L3730.57 1928.78C3735.63 1956.32 3751.99 1980.49 3775.7 1995.39L4047.33 2166.24C4072.75 2182.22 4089.64 2208.79 4093.33 2238.59L4137.37 2593.96C4141.51 2627.38 4128.55 2660.63 4102.9 2682.44L3853.19 2894.73C3836.22 2909.16 3824.55 2928.85 3820.04 2950.67L3750.24 3288.23C3742.98 3323.34 3717.48 3351.88 3683.41 3363.03L3448.92 3439.75C3443.32 3441.58 3437.89 3443.9 3432.7 3446.69L3202.67 3570.24C3157.86 3594.31 3138.26 3648.19 3157.13 3695.43L3259.87 3952.64C3264.58 3964.44 3267 3977.03 3267 3989.73V4397V4690.56C3267 4745.76 3311.74 4790.53 3366.94 4790.56L5784.09 4791.94C5838.69 4791.98 5883.23 4748.2 5884.13 4693.6L5961.32 32.5717C5962.24 -23.2644 5917.26 -69.0378 5861.41 -69.084L16.9407 -73.9186C-37.675 -73.9637 -82.2249 -30.181 -83.1283 24.4273L-160.319 4690.41C-161.243 4746.26 -116.249 4792.03 -60.3994 4792.07L2756.93 4793.93C2812.19 4793.97 2857 4749.19 2857 4693.93V4432.94C2857 4416.24 2852.82 4399.82 2844.85 4385.16L2748.89 4208.73C2746.63 4204.58 2744.09 4200.6 2741.27 4196.81L2545.87 3934.22C2542.3 3929.42 2539.16 3924.3 2536.5 3918.93L2330.37 3503.04C2318.9 3479.92 2298.94 3462.12 2274.65 3453.37L1939.36 3332.62C1919.31 3325.39 1902.09 3311.96 1890.22 3294.26L1669.2 2964.97C1649.28 2935.29 1646.71 2897.23 1662.47 2865.15L1782.07 2621.71C1797 2591.33 1795.54 2555.46 1778.21 2526.39L1613.52 2250.24C1600.95 2229.15 1596.57 2204.18 1601.22 2180.07L1680.27 1770.54C1688.22 1729.36 1721.01 1697.52 1762.4 1690.79L1951.68 1659.98C1963.79 1658.01 1975.43 1653.83 1986.03 1647.64L2298.65 1465.13C2313.94 1456.2 2326.59 1443.38 2335.3 1427.96L2439.5 1243.5L2513 1067L2524.23 1044.53C2537.96 1017.08 2571.92 1006.79 2598.57 1021.99C2614.42 1031.03 2633.77 1031.37 2649.92 1022.9L2674.14 1010.19C2693.1 1000.24 2716.03 1001.68 2733.6 1013.92L2739.79 1018.24C2755.57 1029.24 2776.51 1029.35 2792.42 1018.53C2812.7 1004.75 2840.2 1009.11 2855.22 1028.5L2863.41 1039.07C2866.46 1043.01 2869.01 1047.31 2871.01 1051.87L2951.7 1235.97C2953.9 1240.98 2956.5 1245.81 2959.49 1250.39Z" fill="#BB816E"/>
<g id="inside">
<path d="M1990.61 431.137L2008 293.801C2014.51 242.405 1980.69 194.55 1930.07 183.528L1449.82 78.9606C1412.07 70.7404 1372.96 85.0048 1349.36 115.6L1114.64 419.943C1061.38 489.003 1115.87 588.391 1202.74 580.616L1900.32 518.177C1947.13 513.987 1984.71 477.764 1990.61 431.137Z" fill="#9A6A5A"/>
<path d="M3603.49 605.6L3450.02 342.944C3428.96 306.899 3432.51 261.564 3458.92 229.233L3551.5 115.902C3576.53 85.2596 3617.27 72.2569 3655.43 82.7352L3981.82 172.374C4054.18 192.247 4079.68 281.771 4028.67 336.796L3763.16 623.143C3717.53 672.353 3637.34 663.543 3603.49 605.6Z" fill="#9A6A5A"/>
<path d="M4964.35 4486.57L4881.97 4344.32C4853.01 4294.33 4872.32 4230.27 4924.08 4204.61L5213.93 4060.91C5281.27 4027.52 5360 4077.58 5358.32 4152.73L5351.44 4461.97C5350.13 4520.86 5298.45 4565.87 5239.93 4559.08L5039.35 4535.79C5007.98 4532.15 4980.18 4513.9 4964.35 4486.57Z" fill="#9A6A5A"/>
<path d="M3888.4 4427.39L3861.43 4267.01C3850.74 4203.42 3783.55 4166.42 3724.1 4191.39L3494.04 4288C3442.41 4309.69 3418.65 4369.55 3441.35 4420.74L3469.63 4484.51C3485.66 4520.66 3521.5 4543.97 3561.04 4543.97H3789.78C3851.64 4543.97 3898.65 4488.38 3888.4 4427.39Z" fill="#9A6A5A"/>
<path d="M460.674 604.974L104.513 548.128C54.1412 540.088 17.8939 495.423 20.3951 444.474L35.0413 146.137C37.351 99.0888 72.1817 60.0315 118.66 52.3717L315.768 19.8875C362.955 12.1107 409.044 38.8336 425.738 83.6496L570.145 471.317C596.881 543.091 536.309 617.046 460.674 604.974Z" fill="#9A6A5A"/>
<path d="M2614.1 4457.93L2520.29 4213.58C2501.11 4163.63 2446.01 4137.62 2395.25 4154.58L2026.89 4277.64C1932.61 4309.13 1937.04 4443.98 2033.19 4469.21L2495.36 4590.5C2574.16 4611.18 2643.3 4533.99 2614.1 4457.93Z" fill="#9A6A5A"/>
<path d="M4162.15 3914.37L4234.39 3687.25C4255.79 3619.97 4202.61 3552.3 4132.17 3557.18L3582.24 3595.32C3518.14 3599.76 3474.8 3662.64 3493.47 3724.13L3512.49 3786.77C3522.46 3819.6 3548.55 3845.02 3581.62 3854.13L4040.3 3980.47C4092.07 3994.73 4145.87 3965.55 4162.15 3914.37Z" fill="#9A6A5A"/>
<path d="M1350.19 939.434L805.336 1361.39C777.256 1383.14 739.75 1388.36 706.798 1375.11L308.139 1214.8C236.071 1185.82 223.117 1089.33 284.989 1042.37L604.544 799.821C621.102 787.253 641.165 780.158 661.943 779.522L1285.9 760.418C1382.72 757.454 1426.77 880.12 1350.19 939.434Z" fill="#9A6A5A"/>
<path d="M184.18 1908.88L286.84 1674.44C305.633 1631.53 351.702 1607.41 397.678 1616.42L603.239 1656.72C644.024 1664.71 675.612 1697.1 682.585 1738.07L743.992 2098.87C757.425 2177.8 677.29 2239.72 604.307 2206.81L234.68 2040.16C184.717 2017.63 162.196 1959.09 184.18 1908.88Z" fill="#9A6A5A"/>
<path d="M828.33 2807.43L845.873 2535.01C848.872 2488.44 819.261 2445.99 774.521 2432.72L439.733 2333.4C392.421 2319.36 341.944 2341.94 320.869 2386.56L174.753 2695.94C156.628 2734.32 164.703 2779.96 194.896 2809.79L385.261 2997.86C414.885 3027.12 459.545 3034.97 497.37 3017.55L770.365 2891.83C803.718 2876.47 825.97 2844.07 828.33 2807.43Z" fill="#9A6A5A"/>
<path d="M159.074 3672.8L197.13 3476.43C203.318 3444.5 224.651 3417.57 254.32 3404.24L400.998 3338.34C451.681 3315.56 511.209 3338.48 533.545 3389.35L674.242 3709.83C684.967 3734.26 685.485 3761.96 675.682 3786.77L642.253 3871.38C620.822 3925.63 557.707 3950.09 505.314 3924.47L213.312 3781.66C172.709 3761.8 150.475 3717.17 159.074 3672.8Z" fill="#9A6A5A"/>
<path d="M278.109 4419.06L172.115 4186.55C133.573 4102.01 221.11 4015.19 305.335 4054.43L613.774 4198.12C691.763 4234.45 690.508 4345.77 611.72 4380.34L409.275 4469.16C359.21 4491.12 300.786 4468.81 278.109 4419.06Z" fill="#9A6A5A"/>
<path d="M898.85 4466.44L835.252 4091.5C824.494 4028.08 875.552 3971.14 939.768 3974.95L1368.85 4000.42C1421.68 4003.55 1462.92 4047.31 1462.92 4100.24V4307.29C1462.92 4337.47 1449.29 4366.03 1425.84 4385.02L1234.74 4539.69C1215.07 4555.61 1190.08 4563.48 1164.83 4561.71L990.441 4549.47C944.41 4546.24 906.567 4511.94 898.85 4466.44Z" fill="#9A6A5A"/>
<path d="M1671.82 3973.63L1721.65 3776.48C1733.89 3728.06 1779.97 3696.1 1829.61 3701.59L2026.31 3723.38C2058.15 3726.91 2086.38 3745.48 2102.22 3773.33L2196.96 3939.89C2234.32 4005.57 2188.15 4087.36 2112.62 4089.3L1771.35 4098.1C1705.14 4099.81 1655.59 4037.84 1671.82 3973.63Z" fill="#9A6A5A"/>
<path d="M4039.41 4518.81L3977.13 4277.27C3964.29 4227.47 3991.33 4176.04 4039.64 4158.38L4104.45 4134.69C4123.06 4127.89 4143.28 4126.77 4162.53 4131.48L4611.89 4241.34C4639.63 4248.12 4663.15 4266.44 4676.51 4291.67L4724.11 4381.53C4756.75 4443.15 4717.88 4518.42 4648.74 4527.48L4149.24 4592.99C4099.15 4599.56 4052.02 4567.73 4039.41 4518.81Z" fill="#9A6A5A"/>
<path d="M4486.16 3945.84L4470.81 3781.1C4466.08 3730.37 4500.24 3684.2 4550.13 3673.89L5019.23 3576.92C5088.55 3562.6 5150.4 3622.84 5137.9 3692.51L5098.34 3913.11C5090.45 3957.12 5054.29 3990.55 5009.79 3994.96L4595.61 4036.07C4540.42 4041.54 4491.31 4001.06 4486.16 3945.84Z" fill="#9A6A5A"/>
<path d="M4632.19 3355.23L4709.87 3136.71C4729.18 3082.39 4790.3 3055.61 4843.33 3078.23L5141.71 3205.49C5191.84 3226.87 5215.62 3284.47 5195.17 3334.99L5184.72 3360.81C5171.82 3392.67 5143.47 3415.67 5109.64 3421.73L4744.03 3487.16C4668.47 3500.68 4606.48 3427.55 4632.19 3355.23Z" fill="#9A6A5A"/>
<path d="M4249.98 2664.51L4295.35 2455.27C4307.04 2401.36 4360.17 2367.1 4414.1 2378.7L4561.39 2410.36C4620.32 2423.03 4654.74 2484.57 4634.67 2541.42L4551.3 2777.58C4530.9 2835.38 4463.78 2861.38 4409.76 2832.43L4300.46 2773.84C4261.12 2752.75 4240.52 2708.14 4249.98 2664.51Z" fill="#9A6A5A"/>
<path d="M5157.96 1683.24L5230.34 1723.09C5259.23 1738.99 5278.42 1768.12 5281.64 1800.94L5317.53 2167.26C5321.94 2212.25 5295.62 2254.59 5253.33 2270.56L5106.14 2326.15C5066.01 2341.3 5020.69 2329.17 4993.49 2296L4783.25 2039.63C4748.29 1997 4754.43 1934.12 4796.97 1899.05L5046.12 1693.67C5077.74 1667.61 5122.06 1663.47 5157.96 1683.24Z" fill="#9A6A5A"/>
<path d="M4404.53 1454.36L4303.9 1836.83C4290.06 1889.44 4236.71 1921.34 4183.82 1908.62L4010.47 1866.95C3975.82 1858.63 3948.22 1832.49 3938.03 1798.34L3887.49 1629.15C3873.84 1583.43 3894.38 1534.43 3936.56 1512.13L4261.07 1340.52C4338.06 1299.81 4426.69 1370.14 4404.53 1454.36Z" fill="#9A6A5A"/>
<path d="M4276.11 1003.52L4084.59 831.051C4029.15 781.119 4045.94 690.246 4115.57 663.425L4538.56 500.497C4592.61 479.676 4652.99 508.994 4670.06 564.347L4722.17 733.348C4735.84 777.677 4717.23 825.588 4677.22 849.064L4393.63 1015.46C4356.04 1037.51 4308.49 1032.68 4276.11 1003.52Z" fill="#9A6A5A"/>
<path d="M2391.57 602.01L2288.86 339.426C2263.21 273.845 2311.57 203 2381.99 203H2849.73C2946.85 203 2986.97 327.47 2908.13 384.179L2543.09 646.763C2490.09 684.892 2415.35 662.82 2391.57 602.01Z" fill="#9A6A5A"/>
<path d="M912.862 83.9536L729.088 73.7346C658.287 69.7976 605.995 138.759 628.893 205.872L679.82 355.135C704.048 426.143 794.938 446.172 846.767 391.924L979.613 252.88C1038.58 191.16 998.091 88.6929 912.862 83.9536Z" fill="#9A6A5A"/>
<path d="M1529.89 1183.66L1805.39 917.965C1825.83 898.257 1853.67 888.164 1881.99 890.203L2149.01 909.426C2230.46 915.29 2270.92 1011.02 2218.37 1073.52L1968.49 1370.73C1945.59 1397.98 1909.93 1410.99 1874.86 1404.91L1582.22 1354.17C1501.56 1340.19 1470.96 1240.5 1529.89 1183.66Z" fill="#9A6A5A"/>
<path d="M1531.22 1687.9L1429.47 2024.91C1416.72 2067.12 1377.83 2096 1333.74 2096H1144.29C1094.07 2096 1051.63 2058.75 1045.13 2008.95L992.804 1608.31C984.012 1541 1043.42 1484.67 1110.17 1497.04L1453.7 1560.66C1512.29 1571.51 1548.44 1630.86 1531.22 1687.9Z" fill="#9A6A5A"/>
<path d="M816.648 3276.64L951.984 3053.44C981.071 3005.46 1043.92 2990.8 1091.23 3020.95L1270.24 3135.02C1299.05 3153.38 1316.5 3185.19 1316.5 3219.35V3635.86C1316.5 3724.41 1209.9 3769.26 1146.59 3707.36L832.243 3399.98C799.011 3367.49 792.549 3316.38 816.648 3276.64Z" fill="#9A6A5A"/>
<path d="M3267.58 1223.83L2970.96 874.939C2930.94 827.859 2942.77 756.106 2995.79 724.366L3196.67 604.11C3234.08 581.717 3281.68 586.139 3314.32 615.039L3610.06 876.868C3617.64 883.584 3624.16 891.413 3629.39 900.088L3729.89 1066.69C3767.05 1128.28 3728.97 1207.78 3657.69 1217.44L3357.19 1258.16C3323.42 1262.73 3289.65 1249.8 3267.58 1223.83Z" fill="#9A6A5A"/>
<path d="M5292.63 2985.89L5339.77 2675.05C5350.4 2604.97 5286.75 2546.38 5217.79 2562.77L4922.74 2632.88C4845.97 2651.13 4819.59 2746.94 4876.2 2801.91L5124.1 3042.64C5182.45 3099.3 5280.44 3066.3 5292.63 2985.89Z" fill="#9A6A5A"/>
<path d="M4900.14 617.829L4714.61 323.675C4677.6 265.001 4710.12 187.392 4777.9 172.621L5023.41 119.118C5092.74 104.009 5155.32 163.905 5143.25 233.829L5083.26 581.486C5067.68 671.764 4949.01 695.316 4900.14 617.829Z" fill="#9A6A5A"/>
<path d="M1377.95 2298.11L1130.01 2339.29C1086.39 2346.54 1052.71 2381.56 1047.18 2425.43L1013.4 2693.35C1008.32 2733.66 1028.13 2773.03 1063.53 2792.98L1238.77 2891.7C1283.06 2916.66 1339.02 2904.41 1368.84 2863.24L1533.7 2635.65C1552.43 2609.79 1557.68 2576.54 1547.84 2546.17L1489.47 2365.95C1474.21 2318.85 1426.79 2290 1377.95 2298.11Z" fill="#9A6A5A"/>
<path d="M4269.47 3444.25L4054.32 3341.07C4002.27 3316.11 3982.1 3252.4 4010.31 3202.03L4099.65 3042.54C4119.76 3006.63 4159.83 2986.71 4200.6 2992.35L4449.38 3026.77C4518.45 3036.33 4556.79 3111.86 4523.71 3173.25L4400.75 3401.51C4375.42 3448.52 4317.62 3467.34 4269.47 3444.25Z" fill="#9A6A5A"/>
<path d="M1756.33 3381.94L1667.1 3246.4C1618.27 3172.23 1504.21 3193.74 1485.75 3280.6L1446.39 3465.85C1429.88 3543.55 1506.17 3608.55 1580.26 3579.91L1708.86 3530.2C1768.32 3507.21 1791.38 3435.2 1756.33 3381.94Z" fill="#9A6A5A"/>
<path d="M4720.07 1409.99L4693.26 1230.2C4683.11 1162.13 4743.16 1104.39 4810.78 1117.2L5016.29 1156.13C5100.57 1172.1 5126.95 1279.81 5059.58 1332.92L4880.89 1473.78C4820.57 1521.32 4731.4 1485.95 4720.07 1409.99Z" fill="#9A6A5A"/>
</g>
</g>
</g>
<defs>
<linearGradient id="paint0_linear_2280_883" x1="2698" y1="969" x2="2698" y2="1272" gradientUnits="userSpaceOnUse">
<stop stop-color="#0E2736"/>
<stop offset="0.535416" stop-color="#0E2736" stop-opacity="0.76"/>
<stop offset="1" stop-color="#0E2736" stop-opacity="0"/>
</linearGradient>
<clipPath id="clip0_2280_883">
<rect width="5396" height="4673" fill="white"/>
</clipPath>
</defs>
</svg>
