<svg width="5396" height="4673" viewBox="0 0 5396 4673" fill="none" xmlns="http://www.w3.org/2000/svg">
<g id="walls" clip-path="url(#clip0_2280_883)">
<rect id="exitDarkness" x="2308" y="969" width="780" height="303" fill="url(#paint0_linear_2280_883)"/>
<g id="Group 127">
<path id="shadow" d="M3161.97 1549.01L3381.45 1777.8C3398.84 1795.93 3422.42 1806.85 3447.5 1808.39L3996.44 1841.98C4017.91 1843.29 4038.38 1851.49 4054.82 1865.36L4275.48 2051.54C4298 2070.54 4311 2098.5 4311 2127.97V2361.5L4298.89 2675.91C4298.63 2682.62 4299.05 2689.34 4300.14 2695.97L4342.76 2955.36C4344.25 2964.41 4344.48 2973.62 4343.46 2982.73L4306.5 3312L4309.37 3475.76C4310.29 3528.07 4270.74 3572.24 4218.65 3577.09L4033.66 3594.29C4028.56 3594.76 4023.51 3595.63 4018.54 3596.87L3645.85 3690.53C3640.63 3691.84 3635.3 3692.73 3629.93 3693.18L3475.64 3706.26C3411.12 3711.73 3368.73 3776.14 3389.23 3837.56L3511.86 4205.09C3515.26 4215.3 3517 4225.98 3517 4236.74V4647V4940.56C3517 4995.76 3561.74 5040.53 3616.94 5040.56L6034.09 5041.94C6088.69 5041.97 6133.22 4998.2 6134.13 4943.6L6211.32 282.571C6212.24 226.735 6167.26 180.962 6111.41 180.916L266.94 176.081C212.324 176.036 167.774 219.819 166.871 274.427L89.68 4940.41C88.7562 4996.26 133.75 5042.03 189.6 5042.07L3006.93 5043.93C3062.19 5043.97 3107 4999.19 3107 4943.93V4682.94C3107 4666.24 3102.82 4649.82 3094.85 4635.16L2998.89 4458.73C2996.63 4454.58 2994.09 4450.6 2991.27 4446.81L2795.87 4184.22C2792.3 4179.42 2789.16 4174.3 2786.5 4168.93L2570.99 3734.13C2565.38 3722.81 2557.68 3712.66 2548.29 3704.21L2316.02 3495.17C2297.66 3478.64 2273.83 3469.5 2249.13 3469.5H1967.99C1952.22 3469.5 1936.67 3473.23 1922.62 3480.38L1833.59 3525.71C1769.37 3558.41 1692.69 3514.5 1688.4 3442.56L1674.16 3204.13C1673.72 3196.73 1674.1 3189.31 1675.3 3182L1730.4 2845.8C1731.79 2837.3 1732.08 2828.66 1731.26 2820.09L1698.87 2481.84C1697.96 2472.33 1698.42 2462.74 1700.23 2453.36L1782.97 2024.66C1791.31 1981.49 1826.86 1948.82 1870.58 1944.17L2198.68 1909.27C2212.73 1907.77 2226.31 1903.32 2238.52 1896.19L2548.65 1715.13C2563.94 1706.2 2576.59 1693.38 2585.3 1677.96L2689.5 1493.5L2763 1317L2771.86 1299.28C2788.8 1265.4 2823.43 1244 2861.3 1244H2955H3038.23C3063.63 1244 3087.6 1255.76 3103.16 1275.84C3112.85 1288.35 3118.71 1303.38 3120.06 1319.15L3134.49 1488.28C3136.44 1511.07 3146.14 1532.5 3161.97 1549.01Z" fill="black" fill-opacity="0.15"/>
<path id="rock" d="M2959.49 1250.39L3131.04 1513.83C3148.31 1540.36 3177.13 1557.14 3208.73 1559.07L3746.44 1591.98C3767.91 1593.29 3788.38 1601.49 3804.82 1615.36L4025.48 1801.54C4048.01 1820.54 4061 1848.5 4061 1877.97V2111.5L4048.89 2425.91C4048.63 2432.62 4049.05 2439.34 4050.14 2445.97L4092.76 2705.36C4094.25 2714.41 4094.48 2723.62 4093.46 2732.73L4056.5 3062L4059.37 3225.76C4060.29 3278.07 4020.74 3322.24 3968.65 3327.09L3783.66 3344.29C3778.56 3344.76 3773.51 3345.63 3768.54 3346.87L3395.85 3440.53C3390.63 3441.84 3385.3 3442.73 3379.93 3443.18L3225.64 3456.26C3161.12 3461.73 3118.73 3526.14 3139.23 3587.56L3261.86 3955.09C3265.26 3965.3 3267 3975.98 3267 3986.74V4397V4690.56C3267 4745.76 3311.74 4790.53 3366.94 4790.56L5784.09 4791.94C5838.69 4791.98 5883.23 4748.2 5884.13 4693.6L5961.32 32.5717C5962.24 -23.2644 5917.26 -69.0378 5861.41 -69.084L16.9407 -73.9186C-37.675 -73.9637 -82.2249 -30.181 -83.1283 24.4273L-160.319 4690.41C-161.243 4746.26 -116.249 4792.03 -60.3994 4792.07L2756.93 4793.93C2812.19 4793.97 2857 4749.19 2857 4693.93V4432.94C2857 4416.24 2852.82 4399.82 2844.85 4385.16L2748.89 4208.73C2746.63 4204.58 2744.09 4200.6 2741.27 4196.81L2545.87 3934.22C2542.3 3929.42 2539.16 3924.3 2536.5 3918.93L2338.81 3520.07C2322.58 3487.35 2289.81 3466.07 2253.32 3464.57L1731.94 3443.13C1721.71 3442.71 1711.6 3440.72 1701.97 3437.23L1509.33 3367.41C1471.8 3353.81 1445.96 3319.2 1443.58 3279.35L1424.16 2954.13C1423.72 2946.73 1424.1 2939.31 1425.3 2932L1480.4 2595.8C1481.8 2587.3 1482.08 2578.66 1481.26 2570.09L1448.87 2231.84C1447.96 2222.33 1448.42 2212.74 1450.23 2203.36L1532.98 1774.66C1541.31 1731.49 1576.86 1698.82 1620.58 1694.17L1948.68 1659.27C1962.73 1657.77 1976.31 1653.32 1988.52 1646.19L2298.65 1465.13C2313.94 1456.2 2326.59 1443.38 2335.3 1427.96L2439.5 1243.5L2513 1067L2524.23 1044.53C2537.96 1017.08 2571.92 1006.79 2598.57 1021.99C2614.42 1031.03 2633.77 1031.37 2649.92 1022.9L2674.14 1010.19C2693.1 1000.24 2716.03 1001.68 2733.6 1013.92L2739.79 1018.24C2755.57 1029.24 2776.51 1029.35 2792.42 1018.53C2812.7 1004.75 2840.2 1009.11 2855.22 1028.5L2863.41 1039.07C2866.46 1043.01 2869.01 1047.31 2871.01 1051.87L2951.7 1235.97C2953.9 1240.98 2956.5 1245.81 2959.49 1250.39Z" fill="#BB816E"/>
<g id="inside">
<path d="M1990.61 431.137L2008 293.801C2014.51 242.405 1980.69 194.55 1930.07 183.528L1449.82 78.9606C1412.07 70.7404 1372.96 85.0048 1349.36 115.6L1114.64 419.943C1061.38 489.003 1115.87 588.391 1202.74 580.616L1900.32 518.177C1947.13 513.987 1984.71 477.764 1990.61 431.137Z" fill="#9A6A5A"/>
<path d="M3603.49 605.6L3450.02 342.944C3428.96 306.899 3432.51 261.564 3458.92 229.233L3551.5 115.902C3576.53 85.2596 3617.27 72.2569 3655.43 82.7352L3981.82 172.374C4054.18 192.247 4079.68 281.771 4028.67 336.796L3763.16 623.143C3717.53 672.353 3637.34 663.543 3603.49 605.6Z" fill="#9A6A5A"/>
<path d="M4964.35 4486.57L4881.97 4344.32C4853.01 4294.33 4872.32 4230.27 4924.08 4204.61L5213.93 4060.91C5281.27 4027.52 5360 4077.58 5358.32 4152.73L5351.44 4461.97C5350.13 4520.86 5298.45 4565.87 5239.93 4559.08L5039.35 4535.79C5007.98 4532.15 4980.18 4513.9 4964.35 4486.57Z" fill="#9A6A5A"/>
<path d="M3888.4 4427.39L3861.43 4267.01C3850.74 4203.42 3783.55 4166.42 3724.1 4191.39L3494.04 4288C3442.41 4309.69 3418.65 4369.55 3441.35 4420.74L3469.63 4484.51C3485.66 4520.66 3521.5 4543.97 3561.04 4543.97H3789.78C3851.64 4543.97 3898.65 4488.38 3888.4 4427.39Z" fill="#9A6A5A"/>
<path d="M460.674 604.974L104.513 548.128C54.1412 540.088 17.8939 495.423 20.3951 444.474L35.0413 146.137C37.351 99.0888 72.1817 60.0315 118.66 52.3717L315.768 19.8875C362.955 12.1107 409.044 38.8336 425.738 83.6496L570.145 471.317C596.881 543.091 536.309 617.046 460.674 604.974Z" fill="#9A6A5A"/>
<path d="M2614.1 4457.93L2520.29 4213.58C2501.11 4163.63 2446.01 4137.62 2395.25 4154.58L2026.89 4277.64C1932.61 4309.13 1937.04 4443.98 2033.19 4469.21L2495.36 4590.5C2574.16 4611.18 2643.3 4533.99 2614.1 4457.93Z" fill="#9A6A5A"/>
<path d="M4162.15 3914.37L4234.39 3687.25C4255.79 3619.97 4202.61 3552.3 4132.17 3557.18L3582.24 3595.32C3518.14 3599.76 3474.8 3662.64 3493.47 3724.13L3512.49 3786.77C3522.46 3819.6 3548.55 3845.02 3581.62 3854.13L4040.3 3980.47C4092.07 3994.73 4145.87 3965.55 4162.15 3914.37Z" fill="#9A6A5A"/>
<path d="M1350.19 939.434L805.336 1361.39C777.256 1383.14 739.75 1388.36 706.798 1375.11L308.139 1214.8C236.071 1185.82 223.117 1089.33 284.989 1042.37L604.544 799.821C621.102 787.253 641.165 780.158 661.943 779.522L1285.9 760.418C1382.72 757.454 1426.77 880.12 1350.19 939.434Z" fill="#9A6A5A"/>
<path d="M184.18 1908.88L286.84 1674.44C305.633 1631.53 351.702 1607.41 397.678 1616.42L603.239 1656.72C644.024 1664.71 675.612 1697.1 682.585 1738.07L743.992 2098.87C757.425 2177.8 677.29 2239.72 604.307 2206.81L234.68 2040.16C184.717 2017.63 162.196 1959.09 184.18 1908.88Z" fill="#9A6A5A"/>
<path d="M828.33 2807.43L845.873 2535.01C848.872 2488.44 819.261 2445.99 774.521 2432.72L439.733 2333.4C392.421 2319.36 341.944 2341.94 320.869 2386.56L174.753 2695.94C156.628 2734.32 164.703 2779.96 194.896 2809.79L385.261 2997.86C414.885 3027.12 459.545 3034.97 497.37 3017.55L770.365 2891.83C803.718 2876.47 825.97 2844.07 828.33 2807.43Z" fill="#9A6A5A"/>
<path d="M159.074 3672.8L197.13 3476.43C203.318 3444.5 224.651 3417.57 254.32 3404.24L400.998 3338.34C451.681 3315.56 511.209 3338.48 533.545 3389.35L674.242 3709.83C684.967 3734.26 685.485 3761.96 675.682 3786.77L642.253 3871.38C620.822 3925.63 557.707 3950.09 505.314 3924.47L213.312 3781.66C172.709 3761.8 150.475 3717.17 159.074 3672.8Z" fill="#9A6A5A"/>
<path d="M278.109 4419.06L172.115 4186.55C133.573 4102.01 221.11 4015.19 305.335 4054.43L613.774 4198.12C691.763 4234.45 690.508 4345.77 611.72 4380.34L409.275 4469.16C359.21 4491.12 300.786 4468.81 278.109 4419.06Z" fill="#9A6A5A"/>
<path d="M898.85 4466.44L835.252 4091.5C824.494 4028.08 875.552 3971.14 939.768 3974.95L1368.85 4000.42C1421.68 4003.55 1462.92 4047.31 1462.92 4100.24V4307.29C1462.92 4337.47 1449.29 4366.03 1425.84 4385.02L1234.74 4539.69C1215.07 4555.61 1190.08 4563.48 1164.83 4561.71L990.441 4549.47C944.41 4546.24 906.567 4511.94 898.85 4466.44Z" fill="#9A6A5A"/>
<path d="M1671.82 3973.63L1721.65 3776.48C1733.89 3728.06 1779.97 3696.1 1829.61 3701.59L2026.31 3723.38C2058.15 3726.91 2086.38 3745.48 2102.22 3773.33L2196.96 3939.89C2234.32 4005.57 2188.15 4087.36 2112.62 4089.3L1771.35 4098.1C1705.14 4099.81 1655.59 4037.84 1671.82 3973.63Z" fill="#9A6A5A"/>
<path d="M4039.41 4518.81L3977.13 4277.27C3964.29 4227.47 3991.33 4176.04 4039.64 4158.38L4104.45 4134.69C4123.06 4127.89 4143.28 4126.77 4162.53 4131.48L4611.89 4241.34C4639.63 4248.12 4663.15 4266.44 4676.51 4291.67L4724.11 4381.53C4756.75 4443.15 4717.88 4518.42 4648.74 4527.48L4149.24 4592.99C4099.15 4599.56 4052.02 4567.73 4039.41 4518.81Z" fill="#9A6A5A"/>
<path d="M4486.16 3945.84L4470.81 3781.1C4466.08 3730.37 4500.24 3684.2 4550.13 3673.89L5019.23 3576.92C5088.55 3562.6 5150.4 3622.84 5137.9 3692.51L5098.34 3913.11C5090.45 3957.12 5054.29 3990.55 5009.79 3994.96L4595.61 4036.07C4540.42 4041.54 4491.31 4001.06 4486.16 3945.84Z" fill="#9A6A5A"/>
<path d="M4632.19 3355.23L4709.87 3136.71C4729.18 3082.39 4790.3 3055.61 4843.33 3078.23L5141.71 3205.49C5191.84 3226.87 5215.62 3284.47 5195.17 3334.99L5184.72 3360.81C5171.82 3392.67 5143.47 3415.67 5109.64 3421.73L4744.03 3487.16C4668.47 3500.68 4606.48 3427.55 4632.19 3355.23Z" fill="#9A6A5A"/>
<path d="M4272.48 2756.11L4316 2555.36C4324.74 2515.05 4357.33 2484.24 4398.07 2477.78L4506.63 2460.56C4581.48 2448.69 4641.82 2521.15 4616.6 2592.61L4537.84 2815.72C4522.87 2858.13 4481.43 2885.33 4436.56 2882.19L4363.23 2877.06C4302.45 2872.81 4259.57 2815.66 4272.48 2756.11Z" fill="#9A6A5A"/>
<path d="M5157.96 1683.24L5230.34 1723.09C5259.23 1738.99 5278.42 1768.12 5281.64 1800.94L5317.53 2167.26C5321.94 2212.25 5295.62 2254.59 5253.33 2270.56L5106.14 2326.15C5066.01 2341.3 5020.69 2329.17 4993.49 2296L4783.25 2039.63C4748.29 1997 4754.43 1934.12 4796.97 1899.05L5046.12 1693.67C5077.74 1667.61 5122.06 1663.47 5157.96 1683.24Z" fill="#9A6A5A"/>
<path d="M4471.22 1410.37L4488.49 1759.74C4491.91 1828.82 4425.85 1880.42 4359.65 1860.39L4246.9 1826.27C4221.96 1818.72 4200.95 1801.74 4188.34 1778.92L4086.93 1595.4C4061.8 1549.93 4075.67 1492.81 4118.85 1463.92L4315.73 1332.19C4380.33 1288.97 4467.38 1332.74 4471.22 1410.37Z" fill="#9A6A5A"/>
<path d="M4276.11 1003.52L4084.59 831.051C4029.15 781.119 4045.94 690.246 4115.57 663.425L4538.56 500.497C4592.61 479.676 4652.99 508.994 4670.06 564.347L4722.17 733.348C4735.84 777.677 4717.23 825.588 4677.22 849.064L4393.63 1015.46C4356.04 1037.51 4308.49 1032.68 4276.11 1003.52Z" fill="#9A6A5A"/>
<path d="M2391.57 602.01L2288.86 339.426C2263.21 273.845 2311.57 203 2381.99 203H2849.73C2946.85 203 2986.97 327.47 2908.13 384.179L2543.09 646.763C2490.09 684.892 2415.35 662.82 2391.57 602.01Z" fill="#9A6A5A"/>
<path d="M912.862 83.9536L729.088 73.7346C658.287 69.7976 605.995 138.759 628.893 205.872L679.82 355.135C704.048 426.143 794.938 446.172 846.767 391.924L979.613 252.88C1038.58 191.16 998.091 88.6929 912.862 83.9536Z" fill="#9A6A5A"/>
<path d="M1529.89 1183.66L1805.39 917.965C1825.83 898.257 1853.67 888.164 1881.99 890.203L2149.01 909.426C2230.46 915.29 2270.92 1011.02 2218.37 1073.52L1968.49 1370.73C1945.59 1397.98 1909.93 1410.99 1874.86 1404.91L1582.22 1354.17C1501.56 1340.19 1470.96 1240.5 1529.89 1183.66Z" fill="#9A6A5A"/>
<path d="M1375.25 1662.98L1271.67 2006.04C1260.05 2044.51 1226.53 2072.3 1186.57 2076.57L1102.14 2085.6C1048.13 2091.38 999.382 2052.99 992.347 1999.12L941.036 1606.27C932.322 1539.55 990.655 1483.44 1056.98 1494.73L1296.31 1535.49C1355.61 1545.59 1392.64 1605.39 1375.25 1662.98Z" fill="#9A6A5A"/>
<path d="M816.648 3276.64L951.984 3053.44C981.071 3005.46 1043.92 2990.8 1091.23 3020.95L1270.24 3135.02C1299.05 3153.38 1316.5 3185.19 1316.5 3219.35V3635.86C1316.5 3724.41 1209.9 3769.26 1146.59 3707.36L832.243 3399.98C799.011 3367.49 792.549 3316.38 816.648 3276.64Z" fill="#9A6A5A"/>
<path d="M3156.7 1055.94L2982.17 875.592C2937.37 829.297 2947.39 753.338 3002.67 720.248L3196.67 604.11C3234.08 581.717 3281.68 586.139 3314.32 615.039L3514.57 792.328C3566.54 838.339 3556.98 922.003 3495.96 955.1L3276.24 1074.29C3236.79 1095.7 3187.91 1088.19 3156.7 1055.94Z" fill="#9A6A5A"/>
<path d="M5292.63 2985.89L5339.77 2675.05C5350.4 2604.97 5286.75 2546.38 5217.79 2562.77L4922.74 2632.88C4845.97 2651.13 4819.59 2746.94 4876.2 2801.91L5124.1 3042.64C5182.45 3099.3 5280.44 3066.3 5292.63 2985.89Z" fill="#9A6A5A"/>
<path d="M4900.14 617.829L4714.61 323.675C4677.6 265.001 4710.12 187.392 4777.9 172.621L5023.41 119.118C5092.74 104.009 5155.32 163.905 5143.25 233.829L5083.26 581.486C5067.68 671.764 4949.01 695.316 4900.14 617.829Z" fill="#9A6A5A"/>
<path d="M1206.78 2287.42L1100.05 2332.93C1072.48 2344.68 1051.64 2368.18 1043.26 2396.95L979.68 2615.25C966.689 2659.85 986.128 2707.53 1026.61 2730.34L1173.29 2812.98C1224.63 2841.91 1289.73 2820.39 1313.72 2766.56L1392.39 2590.03C1402.44 2567.48 1403.79 2542 1396.18 2518.51L1341.14 2348.59C1323.03 2292.68 1260.84 2264.36 1206.78 2287.42Z" fill="#9A6A5A"/>
<path d="M4263.56 3421.79L4243.9 3408.16C4208.44 3383.59 4192.74 3339.06 4204.94 3297.69L4257.85 3118.22C4270.39 3075.69 4309.44 3046.5 4353.77 3046.5H4424.54C4500.22 3046.5 4548.47 3127.3 4512.58 3193.93L4408.55 3387.02C4380.26 3439.53 4312.58 3455.76 4263.56 3421.79Z" fill="#9A6A5A"/>
<path d="M4720.07 1409.99L4693.26 1230.2C4683.11 1162.13 4743.16 1104.39 4810.78 1117.2L5016.29 1156.13C5100.57 1172.1 5126.95 1279.81 5059.58 1332.92L4880.89 1473.78C4820.57 1521.32 4731.4 1485.95 4720.07 1409.99Z" fill="#9A6A5A"/>
<path d="M4248 2288.81V2113.29C4248 2034.78 4334.34 1986.89 4400.95 2028.46L4575.15 2137.18C4645.18 2180.89 4635.09 2285.83 4558.01 2315.39L4383.8 2382.18C4318.32 2407.29 4248 2358.94 4248 2288.81Z" fill="#9A6A5A"/>
<path d="M3512.47 1358.23L3479.98 1316.82C3444.64 1271.78 3454.25 1206.33 3501.04 1173.35L3794.45 966.534C3830.66 941.011 3879.34 942.353 3914.09 969.83L4046 1074.14C4095.17 1113.02 4096.86 1187.02 4049.52 1228.1L3883.7 1372.02C3865.51 1387.81 3842.24 1396.5 3818.16 1396.5H3591.15C3560.44 1396.5 3531.43 1382.39 3512.47 1358.23Z" fill="#9A6A5A"/>
</g>
</g>
</g>
<defs>
<linearGradient id="paint0_linear_2280_883" x1="2698" y1="969" x2="2698" y2="1272" gradientUnits="userSpaceOnUse">
<stop stop-color="#0E2736"/>
<stop offset="0.535416" stop-color="#0E2736" stop-opacity="0.76"/>
<stop offset="1" stop-color="#0E2736" stop-opacity="0"/>
</linearGradient>
<clipPath id="clip0_2280_883">
<rect width="5396" height="4673" fill="white"/>
</clipPath>
</defs>
</svg>
