<svg width="12652" height="18794" viewBox="0 0 12652 18794" fill="none" xmlns="http://www.w3.org/2000/svg">
<g clip-path="url(#clip0_830_2305)">
<path d="M5998.45 18792.5C5998.45 18639.5 5998.45 17646.6 5998.45 17491.3C6063.97 17093.2 6295.3 16275.9 6696.5 16191.5C7198 16086 7683 15796.5 8354 15682.5C9025 15568.5 9266 14201 7581.5 14441.5C5897 14682 5770 13871.5 6340 13441C6910 13010.5 6664.91 11716.1 5708 12032C5025 12257.5 4242 11615.5 4592 10765.5C4942 9915.5 3248.67 9649 3800.5 8799.5C4352.33 7950 5277.5 8885.31 5924.5 8625C6571.5 8364.69 6883 7966 6657.5 7558.5C6432 7151 5466.5 7200.5 5008.5 6767C4550.5 6333.5 4626.5 5762.5 4895 5494C5163.5 5225.5 5695.5 5052.5 6386.5 5258.5C7077.5 5464.5 7726.5 4797.5 7317 4032.5C6907.5 3267.5 7468.24 2621.59 8271 2555C9265.5 2472.5 9178.51 1329 8206.5 1329C7339.32 1329 6771 948 6771 -1.5" stroke="#53656A" stroke-width="350"/>
<rect x="5975" y="18238" width="135" height="70" transform="rotate(-90 5975 18238)" fill="#BF3232"/>
</g>
<defs>
<clipPath id="clip0_830_2305">
<rect width="12652" height="18794" fill="white"/>
</clipPath>
</defs>
</svg>
