<svg width="13918" height="15768" viewBox="0 0 13918 15768" fill="none" xmlns="http://www.w3.org/2000/svg">
<g clip-path="url(#clip0_912_2577)">
<path opacity="0.4" d="M4574.45 15768C4574.45 15616.5 4574.45 15704 4574.45 15623C4590.64 15217.5 4558.9 14640.8 5500.5 14554C6677.5 14445.5 6139.45 13656 5723.46 13354.5C5307.46 13053 5516.5 12283.6 6074 12251C6631.5 12218.4 6494 11723 7006.5 11598.5C7519 11474 7468.04 11378 7383 10757C7297.96 10136 7152.5 9939.52 6139.45 10127C5126.41 10314.5 4814.41 9214.5 5723.45 8660C6632.5 8105.5 6281.5 7350.5 5624.5 7350.5C4967.5 7350.5 4498.5 7339.5 4498.5 6655.5C4498.5 5971.5 5463.05 6142 5173.5 5302C4883.95 4462 5647 4314 6070.5 4401C6923.5 4576.23 6592 3678 7131 3377C7670 3076 7426 2309 6828 2380.5C6230 2452 5763 2515.5 5604.5 2098.5C5446 1681.5 5764 1221 6237 1063C6710 905 6786.5 442.5 6786.5 0" stroke="#53656A" stroke-width="500"/>
<rect x="4546" y="15696" width="135" height="70" transform="rotate(-90 4546 15696)" fill="#BF3232"/>
<rect x="5731" y="9558" width="269" height="266" fill="#46A325"/>
<rect x="6691" y="9261" width="269" height="266" fill="#46A325"/>
<rect x="6015" y="4837" width="269" height="266" fill="#46A325"/>
<rect x="5196" y="6489" width="269" height="266" fill="#46A325"/>
<rect x="3907" y="6094" width="269" height="266" fill="#46A325"/>
<rect x="4134" y="7542" width="269" height="266" fill="#46A325"/>
<rect x="7329" y="3593" width="269" height="266" fill="#46A325"/>
<rect x="7023" y="4118" width="269" height="266" fill="#46A325"/>
<rect x="6719" y="1504" width="269" height="266" fill="#46A325"/>
<rect x="6090" y="140" width="269" height="266" fill="#46A325"/>
<rect x="8036" y="987" width="269" height="266" fill="#46A325"/>
<rect x="8000" y="3892" width="269" height="266" fill="#46A325"/>
<rect x="5417" y="3340" width="269" height="266" fill="#46A325"/>
<rect x="7416" y="11899" width="269" height="266" fill="#46A325"/>
<rect x="6077" y="6725" width="269" height="266" fill="#46A325"/>
<rect x="4346" y="2752" width="269" height="266" fill="#46A325"/>
<rect x="5061" y="1010" width="269" height="266" fill="#46A325"/>
<rect x="4310" y="524" width="269" height="266" fill="#46A325"/>
<rect x="10092" y="5058" width="269" height="266" fill="#46A325"/>
<rect x="9884" y="6573" width="269" height="266" fill="#46A325"/>
<rect x="12268" y="3460" width="269" height="266" fill="#46A325"/>
<rect x="8639" y="5871" width="269" height="266" fill="#46A325"/>
<rect x="9910" y="8482" width="269" height="266" fill="#46A325"/>
<rect x="8146" y="10584" width="269" height="266" fill="#46A325"/>
<rect x="8375" y="9001" width="269" height="266" fill="#46A325"/>
<rect x="4545" y="13860" width="269" height="266" fill="#46A325"/>
<rect x="4772" y="13161" width="269" height="266" fill="#46A325"/>
<rect x="6527" y="13471" width="269" height="266" fill="#46A325"/>
<rect x="7342" y="14385" width="269" height="266" fill="#46A325"/>
<rect x="7208" y="15006" width="269" height="266" fill="#46A325"/>
<rect x="6582" y="14518" width="269" height="266" fill="#46A325"/>
<rect x="9463" y="14391" width="269" height="266" fill="#46A325"/>
<rect x="3698" y="15118" width="269" height="266" fill="#46A325"/>
<rect x="909" y="14943" width="269" height="266" fill="#46A325"/>
<rect x="2921" y="14622" width="269" height="266" fill="#46A325"/>
<rect x="4479" y="8820" width="269" height="266" fill="#46A325"/>
<rect x="4843" y="10169" width="269" height="266" fill="#46A325"/>
<rect x="5040" y="12070" width="269" height="266" fill="#46A325"/>
<rect x="5323" y="13828" width="269" height="266" fill="#46A325"/>
<rect x="6576" y="5226" width="269" height="266" fill="#46A325"/>
<rect x="6174" y="10629" width="347" height="327" fill="#46A325"/>
<rect x="5284" y="10792" width="347" height="327" fill="#46A325"/>
<rect x="5828" y="11243" width="347" height="327" fill="#46A325"/>
<rect x="6511" y="12543" width="347" height="327" fill="#46A325"/>
<rect x="5968" y="12678" width="347" height="327" fill="#46A325"/>
<rect x="7861" y="11390" width="347" height="327" fill="#46A325"/>
<rect x="9636" y="9839" width="347" height="327" fill="#46A325"/>
<rect x="9266" y="8923" width="347" height="327" fill="#46A325"/>
<rect x="7601" y="9352" width="347" height="327" fill="#46A325"/>
<rect x="7214" y="8241" width="347" height="327" fill="#46A325"/>
<rect x="6825" y="7237" width="347" height="327" fill="#46A325"/>
<rect x="4938" y="8010" width="347" height="327" fill="#46A325"/>
<rect x="3669" y="8482" width="347" height="327" fill="#46A325"/>
<rect x="8068" y="7644" width="347" height="327" fill="#46A325"/>
<rect x="8639" y="9721" width="347" height="327" fill="#46A325"/>
<rect x="8825" y="6621" width="347" height="327" fill="#46A325"/>
<rect x="6998" y="6295" width="347" height="327" fill="#46A325"/>
<rect x="5918" y="3499" width="347" height="327" fill="#46A325"/>
<rect x="7330" y="5015" width="347" height="327" fill="#46A325"/>
<rect x="7922" y="1927" width="347" height="327" fill="#46A325"/>
<rect x="7157" y="979" width="347" height="327" fill="#46A325"/>
<rect x="7827" y="6163" width="347" height="327" fill="#46A325"/>
<rect x="6149" y="5931" width="347" height="327" fill="#46A325"/>
<rect x="8089" y="40" width="347" height="327" fill="#46A325"/>
<rect x="9571" y="356" width="347" height="327" fill="#46A325"/>
<rect x="2412" y="3430" width="347" height="327" fill="#46A325"/>
<rect x="6012" y="2828" width="347" height="327" fill="#46A325"/>
<rect x="5525" y="5335" width="347" height="327" fill="#46A325"/>
<rect x="9093" y="7563" width="347" height="327" fill="#46A325"/>
<rect x="6387" y="8404" width="347" height="327" fill="#46A325"/>
<rect x="5369" y="15307" width="347" height="327" fill="#46A325"/>
<rect x="5854" y="14783" width="347" height="327" fill="#46A325"/>
<rect x="8660" y="15283" width="347" height="327" fill="#46A325"/>
<rect x="10601" y="13441" width="347" height="327" fill="#46A325"/>
<rect x="3803" y="14296" width="347" height="327" fill="#46A325"/>
<rect x="3924" y="13347" width="347" height="327" fill="#46A325"/>
<rect x="563" y="11271" width="347" height="327" fill="#46A325"/>
<rect x="4095" y="1310" width="347" height="327" fill="#46A325"/>
<rect x="10438" y="9678" width="347" height="327" fill="#46A325"/>
<rect x="1980" y="15070" width="347" height="327" fill="#46A325"/>
<rect x="3016" y="9479" width="347" height="327" fill="#46A325"/>
<rect x="3924" y="9642" width="347" height="327" fill="#46A325"/>
<rect x="443" y="14093" width="347" height="327" fill="#46A325"/>
<rect x="1225" y="8705" width="347" height="327" fill="#46A325"/>
<rect x="4268" y="4250" width="347" height="327" fill="#46A325"/>
<rect x="4310" y="5226" width="347" height="327" fill="#46A325"/>
<rect x="3695" y="3644" width="347" height="327" fill="#46A325"/>
<rect x="10447" y="14814" width="347" height="327" fill="#46A325"/>
<rect x="5291" y="293" width="347" height="327" fill="#46A325"/>
<rect x="4799" y="1656" width="347" height="327" fill="#46A325"/>
<rect x="6077" y="1656" width="347" height="327" fill="#46A325"/>
<rect x="7137" y="242" width="347" height="327" fill="#46A325"/>
<rect x="7910" y="2891" width="347" height="327" fill="#46A325"/>
<rect x="11065" y="5102" width="347" height="327" fill="#46A325"/>
<rect x="10082" y="5792" width="347" height="327" fill="#46A325"/>
<rect x="10941" y="122" width="347" height="327" fill="#46A325"/>
<rect x="11666" y="926" width="347" height="327" fill="#46A325"/>
<rect x="12981" y="6605" width="347" height="327" fill="#46A325"/>
<rect x="11553" y="9589" width="347" height="327" fill="#46A325"/>
<rect x="2234" y="9064" width="347" height="327" fill="#46A325"/>
<rect x="11055" y="5871" width="347" height="327" fill="#46A325"/>
<rect x="11666" y="4689" width="347" height="327" fill="#46A325"/>
<path d="M6365.13 11712.3C6443.13 11625.3 6523.13 11474.3 6666.63 11410.8C6810.13 11347.3 7114.63 11290.8 7123.13 11232.8C7131.63 11174.8 7119.63 10971.3 7085.13 10797.8C7050.63 10624.3 7043.63 10466.8 6927.13 10404.8C6810.63 10342.8 6572.63 10360.3 6394.13 10389.3C6215.63 10418.3 5950.63 10489.3 5778.13 10445.8" stroke="#592B21" stroke-width="35"/>
<path d="M5829.13 9848.84C5986.63 9843.34 6154.13 9796.84 6337.13 9776.34C6520.13 9755.84 6839.13 9752.84 6960.63 9776.34C7082.13 9799.84 7308.63 9862.34 7436.13 10005.3C7563.63 10148.3 7610.13 10352.3 7649.13 10511.3C7688.13 10670.3 7746.13 11077.8 7731.63 11235.8C7717.13 11393.8 7716.63 11549.3 7563.63 11687.8C7410.63 11826.3 7108.63 11875.3 7002.63 11919.8C6896.63 11964.3 6823.13 12092.3 6795.63 12158.8" stroke="#592B21" stroke-width="35"/>
<path d="M5784.62 4678.84C5952.62 4666.84 6144.12 4758.84 6374.62 4711.34C6605.12 4663.84 6759.62 4587.34 6840.62 4486.34C6921.62 4385.34 6976.12 4249.34 7023.62 4115.34C7071.12 3981.34 7131.62 3746.84 7205.62 3689.84C7279.62 3632.84 7620.12 3436.84 7671.62 3228.34C7723.12 3019.84 7776.12 2779.34 7703.62 2609.84C7631.12 2440.34 7555.12 2311.84 7376.12 2213.84C7197.12 2115.84 6963.62 2072.84 6802.62 2076.84C6641.62 2080.84 6323.62 2140.34 6189.62 2127.34C6055.62 2114.34 5877.62 2011.34 5877.62 1876.84C5877.62 1742.34 5985.12 1546.34 6121.12 1477.84" stroke="#592B21" stroke-width="35"/>
<path d="M5242.62 1887.84C5260.62 2096.34 5305.12 2314.34 5411.62 2420.84C5518.12 2527.34 5701.62 2692.34 5928.12 2721.84C6154.62 2751.34 6566.12 2725.84 6683.62 2706.34C6801.12 2686.84 7105.62 2663.34 7118.62 2828.34C7131.62 2993.34 6948.62 3135.84 6847.62 3186.34C6746.62 3236.84 6563.12 3498.84 6531.12 3613.34C6499.12 3727.84 6399.62 4118.34 6289.12 4109.84C6178.62 4101.34 5953.12 4067.84 5774.12 4076.34" stroke="#592B21" stroke-width="35"/>
<path d="M6156.12 12538.8C6045.62 12561.8 5840.12 12629.3 5813.62 12785.3C5787.12 12941.3 5804.13 13047.3 5912.12 13141.3C6036.12 13249.3 6165.12 13327.8 6221.12 13423.8" stroke="#592B21" stroke-width="35"/>
</g>
<defs>
<clipPath id="clip0_912_2577">
<rect width="13918" height="15768" fill="white"/>
</clipPath>
</defs>
</svg>
