<svg width="13918" height="15768" viewBox="0 0 13918 15768" fill="none" xmlns="http://www.w3.org/2000/svg">
<g clip-path="url(#clip0_912_2396)">
<path d="M4306.5 5399C4520.9 4823.8 4367.9 4544.37 3780.5 4390C2393.5 4025.5 2496.5 3337.5 1648.5 3532.5C67.5004 3896.05 149.218 5729.57 271.998 6937.5C571.497 9884 3482 9395 4306.5 8683.5C5131 7972 3946 7906.5 3820 6977.5C3777.15 6661.62 4038.5 6118 4306.5 5399Z" fill="#6CAC2D"/>
<path d="M6666.5 13837C6532.5 13124 6716.72 12345 7490 12189C9339 11816 7425.01 9643 10555 9983.5C13685 10324 12633 12782 11718.5 13922.5C10804 15063 9488 15115 8503 14993C7518 14871 6800.5 14550 6666.5 13837Z" fill="#6CAC2D"/>
<path d="M9743 669C9147.5 780.5 7733.5 613 7845.5 1245.5C7957.5 1878 8775.5 2379 8403.5 3384.5C8031.5 4390 6823 4575 6841.5 5226C6860 5877 9482.5 6930 10803 5399C12123.5 3868 13630 2752 12942 1710.5C12254 669 10319.5 620.23 9743 669Z" fill="#6CAC2D"/>
<path d="M10417 6545C9614.01 6866.5 8514 7199.5 8625.5 7619.5C8737 8039.5 10355 9420.15 11800.5 8904.5C13246 8388.85 13728 7138 12875.5 6347C12023 5556 11220 6223.5 10417 6545Z" fill="#93C93C"/>
<path d="M5285.5 11163.5C5357.04 11764.4 5026 13169 4396.5 13749.5C3081.58 14962.1 4016.5 15348.5 2081.5 15348.5C783.956 15348.5 501 11009.9 2081.5 10244.5C3662 9479.09 5155.33 10070.1 5285.5 11163.5Z" fill="#93C93C"/>
<path d="M4680.5 1416C4378.98 2084.29 5900 2994.5 5125 3724.5C4350 4454.5 2645.5 2630 1354.5 3126C134.628 3594.67 -22.0046 551.999 2406 253C3520.18 115.792 5022.5 657.999 4680.5 1416Z" fill="#93C93C"/>
<path d="M9717.5 14211C8071.5 15305.5 6105.5 13107 7726.5 12567.5C9347.5 12028 8310 10532 10232 10808C12154 11084 11363.5 13116.5 9717.5 14211Z" fill="#629D28"/>
<path d="M3623.5 4909.5C3502.3 4671.9 2586 4610 2015.5 4610C1332.76 4610 1138.98 5256.08 1038 6257.5C777.508 8841 3000.5 9193 3503.5 8388.5C4006.5 7584 2918.5 6932 3363 6257.5C3807.5 5583 3775 5206.5 3623.5 4909.5Z" fill="#629D28"/>
<path d="M8831.5 1450C8738.5 780.499 10821.5 1450 11026.5 1450C11547.5 1562.47 12142.5 1785 11844.5 3124C11546.5 4463 9910.5 4909.5 8831.5 5151.5C7752.5 5393.5 8385 4351.5 8831.5 3700.5C9278 3049.5 8924.5 2119.5 8831.5 1450Z" fill="#629D28"/>
<path d="M11947.5 6966C11168.7 6966 9679.49 7033.5 9765.48 7703C9851.47 8372.5 11363.5 8584 12007 8157.5C12521.8 7816.3 12622 6966 11947.5 6966Z" fill="#9FD843"/>
<path d="M4441 3263C4013.94 3587.04 3329.5 2374.5 2432 2433.5C853.407 2537.28 1234.99 1492.97 1594 1168C3039 -140 5253.5 2646.5 4441 3263Z" fill="#9FD843"/>
<path d="M4202.5 10808C4768 11338.2 4671.5 11842.5 4202.5 12780C3733.5 13717.5 3054 14752 2432 14703.5C1810 14655 1050 12407.5 1907 11438C2764 10468.5 3637 10277.8 4202.5 10808Z" fill="#9FD843"/>
<path d="M4574.45 15768C4574.45 15616.5 4574.45 15704 4574.45 15623C4590.64 15217.5 4558.9 14640.8 5500.5 14554C6677.5 14445.5 6139.45 13656 5723.46 13354.5C5307.46 13053 5516.5 12283.6 6074 12251C6631.5 12218.4 6494 11723 7006.5 11598.5C7519 11474 7468.04 11378 7383 10757C7297.96 10136 7152.5 9939.52 6139.45 10127C5126.41 10314.5 4814.41 9214.5 5723.45 8660C6632.5 8105.5 6281.5 7350.5 5624.5 7350.5C4967.5 7350.5 4498.5 7339.5 4498.5 6655.5C4498.5 5971.5 5463.05 6142 5173.5 5302C4883.95 4462 5647 4314 6070.5 4401C6923.5 4576.23 6592 3678 7131 3377C7670 3076 7426 2309 6828 2380.5C6230 2452 5763 2515.5 5604.5 2098.5C5446 1681.5 5764 1221 6237 1063C6710 905 6786.5 442.5 6786.5 0" stroke="#97592D" stroke-width="650"/>
<path d="M4574.45 15768C4574.45 15616.5 4574.45 15704 4574.45 15623C4590.64 15217.5 4558.9 14640.8 5500.5 14554C6677.5 14445.5 6139.45 13656 5723.46 13354.5C5307.46 13053 5516.5 12283.6 6074 12251C6631.5 12218.4 6494 11723 7006.5 11598.5C7519 11474 7468.04 11378 7383 10757C7297.96 10136 7152.5 9939.52 6139.45 10127C5126.41 10314.5 4814.41 9214.5 5723.45 8660C6632.5 8105.5 6281.5 7350.5 5624.5 7350.5C4967.5 7350.5 4498.5 7339.5 4498.5 6655.5C4498.5 5971.5 5463.05 6142 5173.5 5302C4883.95 4462 5647 4314 6070.5 4401C6923.5 4576.23 6592 3678 7131 3377C7670 3076 7426 2309 6828 2380.5C6230 2452 5763 2515.5 5604.5 2098.5C5446 1681.5 5764 1221 6237 1063C6710 905 6786.5 442.5 6786.5 0" stroke="#425155" stroke-width="500"/>
<path d="M4574.45 15768C4574.45 15616.5 4574.45 15704 4574.45 15623C4590.64 15217.5 4558.9 14640.8 5500.5 14554C6677.5 14445.5 6139.45 13656 5723.46 13354.5C5307.46 13053 5516.5 12283.6 6074 12251C6631.5 12218.4 6494 11723 7006.5 11598.5C7519 11474 7468.04 11378 7383 10757C7297.96 10136 7152.5 9939.52 6139.45 10127C5126.41 10314.5 4814.41 9214.5 5723.45 8660C6632.5 8105.5 6281.5 7350.5 5624.5 7350.5C4967.5 7350.5 4498.5 7339.5 4498.5 6655.5C4498.5 5971.5 5463.05 6142 5173.5 5302C4883.95 4462 5647 4314 6070.5 4401C6923.5 4576.23 6592 3678 7131 3377C7670 3076 7426 2309 6828 2380.5C6230 2452 5763 2515.5 5604.5 2098.5C5446 1681.5 5764 1221 6237 1063C6710 905 6786.5 442.5 6786.5 0" stroke="#53656A" stroke-width="350"/>
</g>
<defs>
<clipPath id="clip0_912_2396">
<rect width="13918" height="15768" fill="white"/>
</clipPath>
</defs>
</svg>
