<svg width="13918" height="15768" viewBox="0 0 13918 15768" fill="none" xmlns="http://www.w3.org/2000/svg">
<g clip-path="url(#clip0_859_2251)">
<path d="M6839.5 6594.5C7053.9 6019.3 6743.4 5670.87 6156 5516.5C4768.99 5152 4872 4464 4024 4659C2443 5022.55 2487 6860.5 2647.5 8064C2808 9267.5 5331.5 10280 6156 9568.5C6980.5 8857 6381.5 8490.5 6353 8173C6324.5 7855.5 6571.5 7313.5 6839.5 6594.5Z" fill="#6CAC2D"/>
<path d="M5496 13884.5C5362 13171.5 5546.21 12392.5 6319.5 12236.5C8168.5 11863.5 6254.5 9690.5 9384.5 10031C12514.5 10371.5 11462.5 12829.5 10548 13970C9633.5 15110.5 8317.5 15162.5 7332.5 15040.5C6347.5 14918.5 5630 14597.5 5496 13884.5Z" fill="#6CAC2D"/>
<path d="M5919.5 1323.5C6065.33 1965.28 5685.8 2606.6 5271 2879C4752.5 3219.5 3213 4046 2565 3300.5C1917 2555 2581.5 416.5 3780.5 384C4739.7 358 5717.33 433.825 5919.5 1323.5Z" fill="#6CAC2D"/>
<path d="M7178 3041C6957.5 4205 7209.5 3631 8625.5 4551.5C10140.1 5536.12 12535.5 4205 12535.5 2466.5C12535.5 1167.03 9711.5 775.501 8901 1766.5C8090.5 2757.5 7398.5 1877 7178 3041Z" fill="#93C93C"/>
<path d="M10417 6545C9614 6866.5 8514 7199.5 8625.5 7619.5C8737 8039.5 10355 9420.15 11800.5 8904.5C13246 8388.85 13728 7138 12875.5 6347C12023 5556 11220 6223.5 10417 6545Z" fill="#93C93C"/>
<path d="M4108.5 10758.5C4180.04 11359.4 4102.55 11779.8 3492.5 12180.5C1997.5 13162.5 3111.5 14071.5 1176.5 14071.5C-121.044 14071.5 472.503 10392 1411 9937.5C2349.5 9483 3978.33 9665.07 4108.5 10758.5Z" fill="#93C93C"/>
<path d="M8910.49 14196C7264.49 15290.5 5298.5 13092 6919.5 12552.5C8540.5 12013 7502.99 10517 9424.99 10793C11347 11069 10556.5 13101.5 8910.49 14196Z" fill="#629D28"/>
<path d="M5847 6413.5C5725.8 6175.9 5002.5 5813.5 4432 5813.5C3749.26 5813.5 3293.5 6287.1 3307.5 7293.5C3325 8551.5 4994.5 9356 5429 8994C5863.5 8632 5291 8350 5735.5 7675.5C6180 7001 5998.5 6710.5 5847 6413.5Z" fill="#629D28"/>
<path d="M3051 2425.5C2905.52 2021.12 3442.04 870.396 4023.5 983.5C4607 1097 5546.49 1069.54 4947 2117.5C4347.5 3165.46 3307.5 3138.5 3051 2425.5Z" fill="#629D28"/>
<path d="M8204.99 3283.5C8134.99 2880.3 8538.48 2790.5 9577.48 2191C10616.5 1591.5 11518.4 2082.84 11763 2468.5C12007.5 2854.16 11755.5 3679 10736.5 4029.5C9678.74 4393.33 8292.49 3787.5 8204.99 3283.5Z" fill="#9FD843"/>
<path d="M11947.5 6966C11168.7 6966 9679.49 7033.5 9765.48 7703C9851.47 8372.5 11363.5 8584 12007 8157.5C12521.8 7816.3 12622 6966 11947.5 6966Z" fill="#9FD843"/>
<path d="M2642.5 10406.5C2071 10509 886.001 11342.2 898.001 12327C913.001 13558 1675.5 13734 2071 13030.5C2466.5 12327 3492.5 11491 3448.5 11095.5C3413.3 10779.1 3214 10304 2642.5 10406.5Z" fill="#9FD843"/>
<path d="M4574.45 15768C4574.45 15616.5 4574.45 15692 4574.45 15488.5C4574.45 15285 4522.5 14698.5 4083 14475.5C3773.57 14318.5 3420.5 14127.5 3466 13653C3511.5 13178.5 3913.58 13147 4223.58 13099C4533.57 13051 4899.57 12909.5 5006.57 12577.5C5113.57 12245.5 5299.5 11499 5905.5 11579C6511.5 11659 6933.5 11065 6796.5 10539.5C6659.5 10014 7049.51 9463 7761 9463C8390.19 9463 8997.61 9414 8838.99 8871.5C8680.37 8329 7455 8660.5 7380 7742C7304.39 6816 8080.48 6445.81 8838.99 6341C9597.5 6236.19 9763.49 5335.5 8887.99 5418C8012.49 5500.5 7584.99 4676.5 6998.99 4676.5C6413 4676.5 5866.54 4620.13 5818 4173C5732.5 3385.5 6634.99 3581.43 6634.99 2992.5C6634.99 1732.5 6676.5 1752.56 7656 1682C8635.5 1611.44 8646.49 795 8646.49 127C8646.49 -69 8646.49 68.5 8646.49 3.5" stroke="#97592D" stroke-width="650"/>
<path d="M4574.45 15768C4574.45 15616.5 4574.45 15692 4574.45 15488.5C4574.45 15285 4522.5 14698.5 4083 14475.5C3773.57 14318.5 3420.5 14127.5 3466 13653C3511.5 13178.5 3913.58 13147 4223.58 13099C4533.57 13051 4899.57 12909.5 5006.57 12577.5C5113.57 12245.5 5299.5 11499 5905.5 11579C6511.5 11659 6933.5 11065 6796.5 10539.5C6659.5 10014 7049.51 9463 7761 9463C8390.19 9463 8997.61 9414 8838.99 8871.5C8680.37 8329 7455 8660.5 7380 7742C7304.39 6816 8080.48 6445.81 8838.99 6341C9597.5 6236.19 9763.49 5335.5 8887.99 5418C8012.49 5500.5 7584.99 4676.5 6998.99 4676.5C6413 4676.5 5866.54 4620.13 5818 4173C5732.5 3385.5 6634.99 3581.43 6634.99 2992.5C6634.99 1732.5 6676.5 1752.56 7656 1682C8635.5 1611.44 8646.49 795 8646.49 127C8646.49 -69 8646.49 68.5 8646.49 3.5" stroke="#425155" stroke-width="500"/>
<path d="M4574.45 15768C4574.45 15616.5 4574.45 15692 4574.45 15488.5C4574.45 15285 4522.5 14698.5 4083 14475.5C3773.57 14318.5 3420.5 14127.5 3466 13653C3511.5 13178.5 3913.58 13147 4223.58 13099C4533.57 13051 4899.57 12909.5 5006.57 12577.5C5113.57 12245.5 5299.5 11499 5905.5 11579C6511.5 11659 6933.5 11065 6796.5 10539.5C6659.5 10014 7049.51 9463 7761 9463C8390.19 9463 8997.61 9414 8838.99 8871.5C8680.37 8329 7455 8660.5 7380 7742C7304.39 6816 8080.48 6445.81 8838.99 6341C9597.5 6236.19 9763.49 5335.5 8887.99 5418C8012.49 5500.5 7584.99 4676.5 6998.99 4676.5C6413 4676.5 5866.54 4620.13 5818 4173C5732.5 3385.5 6634.99 3581.43 6634.99 2992.5C6634.99 1732.5 6676.5 1752.56 7656 1682C8635.5 1611.44 8646.49 795 8646.49 127C8646.49 -69 8646.49 68.5 8646.49 3.5" stroke="#53656A" stroke-width="350"/>
</g>
<defs>
<clipPath id="clip0_859_2251">
<rect width="13918" height="15768" fill="white"/>
</clipPath>
</defs>
</svg>
