<svg width="13918" height="15768" viewBox="0 0 13918 15768" fill="none" xmlns="http://www.w3.org/2000/svg">
<g clip-path="url(#clip0_859_2255)">
<path opacity="0.4" d="M4574.45 15768C4574.45 15616.5 4574.45 15692 4574.45 15488.5C4574.45 15285 4522.5 14698.5 4083 14475.5C3773.57 14318.5 3420.5 14127.5 3466 13653C3511.5 13178.5 3913.58 13147 4223.58 13099C4533.57 13051 4899.57 12909.5 5006.57 12577.5C5113.57 12245.5 5299.5 11499 5905.5 11579C6511.5 11659 6933.5 11065 6796.5 10539.5C6659.5 10014 7049.51 9463 7761 9463C8390.19 9463 8997.61 9414 8838.99 8871.5C8680.37 8329 7455 8660.5 7380 7742C7304.39 6816 8080.48 6445.81 8838.99 6341C9597.5 6236.19 9763.49 5335.5 8887.99 5418C8012.49 5500.5 7584.99 4676.5 6998.99 4676.5C6413 4676.5 5866.54 4620.13 5818 4173C5732.5 3385.5 6634.99 3581.43 6634.99 2992.5C6634.99 1732.5 6676.5 1752.56 7656 1682C8635.5 1611.44 8646.49 795 8646.49 127C8646.49 -69 8646.49 68.5 8646.49 3.5" stroke="#53656A" stroke-width="500"/>
<path opacity="0.01" d="M4574.45 15768C4574.45 15616.5 4574.45 15692 4574.45 15488.5C4574.45 15285 4522.5 14698.5 4083 14475.5C3773.57 14318.5 3420.5 14127.5 3466 13653C3511.5 13178.5 3913.58 13147 4223.58 13099C4533.57 13051 4899.57 12909.5 5006.57 12577.5C5113.57 12245.5 5299.5 11499 5905.5 11579C6511.5 11659 6933.5 11065 6796.5 10539.5C6659.5 10014 7049.51 9463 7761 9463C8390.19 9463 8997.61 9414 8838.99 8871.5C8680.37 8329 7455 8660.5 7380 7742C7304.39 6816 8080.48 6445.81 8838.99 6341C9597.5 6236.19 9763.49 5335.5 8887.99 5418C8012.49 5500.5 7584.99 4676.5 6998.99 4676.5C6413 4676.5 5866.54 4620.13 5818 4173C5732.5 3385.5 6634.99 3581.43 6634.99 2992.5C6634.99 1732.5 6676.5 1752.56 7656 1682C8635.5 1611.44 8646.49 795 8646.49 127C8646.49 -69 8646.49 68.5 8646.49 3.5" stroke="#FA5F3D" stroke-width="550"/>
<rect x="4546" y="15696" width="135" height="70" transform="rotate(-90 4546 15696)" fill="#BF3232"/>
<path d="M7680.5 7760C7653.5 7639.5 7696 7518 7731 7409.5C7766 7301 7849.38 7166.02 7912 7081.5C7973.5 6998.5 8010.5 6947 8193.5 6857.5C8376.5 6768 8348.5 6772.5 8580.5 6724C8812.5 6675.5 8867.46 6702.14 9125 6614.5C9388 6525 9474 6434 9620 6260C9766 6086 9776 5965 9793.5 5788.5C9811 5612 9721 5372.5 9620 5302C9519 5231.5 9352 5105.5 9120.5 5103C8889 5100.5 8792.5 5120.5 8571 5060C8349.5 4999.5 8249 4936 8092.5 4845.5C7936 4755 7721.5 4636.5 7580.5 4530.5" stroke="#592B21" stroke-width="35"/>
<path d="M7254 5088.5C7405.5 5199.5 7454 5235 7649 5353.5C7844 5472 7914.5 5541.5 8078 5594.5C8241.5 5647.5 8345.5 5730 8584 5737C8822.5 5744 9111 5686.5 9147.5 5787.5C9184 5888.5 9029.5 5973 8844 6009C8658.5 6045 8648.5 6036 8403 6096C8157.5 6156 8121 6170.5 7955 6252.5C7789 6334.5 7698 6372.16 7584 6460.5C7437.7 6573.87 7357 6670 7274 6806C7171.32 6974.24 7092.55 7158.07 7063.5 7360.5C7032.5 7576.5 7026.18 7644.5 7063.5 7843.5C7102.89 8053.57 7206.5 8252 7274.5 8348.5C7342.5 8445 7427 8506 7629.5 8614C7832 8722 7876 8727 8087.5 8778.5C8299 8830 8534 8905.5 8552.5 8983C8571 9060.5 8449 9081.5 8308 9126C8167 9170.5 8019.5 9152 7798.5 9164C7577.5 9176 7508.5 9164 7335.5 9204" stroke="#592B21" stroke-width="35"/>
<path d="M7678 7759C7720 7889 7794 8046.5 8041.5 8115.5C8289 8184.5 8440 8202.5 8595.5 8264.5C8751 8326.5 8904.07 8390.6 9050.5 8605C9134.5 8727.99 9182 8850.5 9185.5 8951C9189 9051.5 9166.5 9224.5 9107 9325.5C9047.5 9426.5 8974.5 9564 8803 9633C8631.5 9702 8588.5 9726 8341 9754C8093.5 9782 7987.5 9783 7858 9788.5C7728.5 9794 7548.5 9792.5 7384 9868.5" stroke="#592B21" stroke-width="35"/>
<path d="M4834.49 14873.5C4789.66 14771.3 4681.29 14547.9 4606.49 14471.5C4512.99 14376 4379.49 14244 4285.49 14198C4191.49 14152 3944.99 14026 3898.99 13968.5C3852.99 13911 3750.99 13847.5 3781.99 13647C3813 13446.5 4067.5 13448 4176.49 13429C4285.49 13410 4518.49 13366.5 4619.99 13328C4721.49 13289.5 5044.99 13103.5 5071.49 13077" stroke="#592B21" stroke-width="35"/>
<path d="M4698 12481.5C4627.5 12670 4268 12753 4087 12774.5C3906 12796 3559 12905 3443.5 12999C3328 13093 3249 13200.5 3187.5 13356.5C3126 13512.5 3118.5 13713 3126 13796.5C3133.5 13880 3182.99 14155 3285.5 14284.5C3388 14414 3642.5 14596.5 3709.5 14631C3776.5 14665.5 4124 14860 4162.5 15040.5" stroke="#592B21" stroke-width="35"/>
<path d="M7502.36 5566.27L7437.4 5568.96L7389.55 5639.16L7393.79 5717.23L7502.26 5781.63L7597 5735.48L7617.71 5622.37L7502.36 5566.27Z" fill="#D1C9C3"/>
<path d="M5969.33 11838.2L5938.59 11781L5854.55 11768.5L5786.14 11806.3L5775.45 11932L5858.28 11997.2L5969.1 11966.5L5969.33 11838.2Z" fill="#D1C9C3"/>
<path d="M4408.66 12405.8L4418.54 12301.1L4323.53 12250.4L4252.1 12354.4L4274.89 12455.4L4349.92 12458.9L4408.66 12405.8Z" fill="#D1C9C3"/>
<path d="M8074.59 7141.69L8132.47 7229.56L8238.27 7209.59L8228.89 7083.79L8147.85 7019.26L8087.18 7063.54L8074.59 7141.69Z" fill="#D1C9C3"/>
<path d="M7803.59 8969.69L7861.47 9057.56L7967.27 9037.59L7957.89 8911.79L7876.85 8847.26L7816.18 8891.54L7803.59 8969.69Z" fill="#D1C9C3"/>
<path d="M7301.35 10792.1L7289.37 10896.6L7383.34 10949.2L7456.86 10846.7L7436.09 10745.2L7361.15 10740.2L7301.35 10792.1Z" fill="#D1C9C3"/>
<path d="M6320.47 9580.34L6392.23 9657.28L6493.2 9619.89L6462.9 9497.43L6372.2 9447.37L6319.8 9501.18L6320.47 9580.34Z" fill="#D1C9C3"/>
<path d="M6586.68 5189.75L6681.5 5235.36L6761.98 5163.82L6689.25 5060.75L6586.56 5047.08L6557.3 5116.25L6586.68 5189.75Z" fill="#D1C9C3"/>
<path d="M6826.17 3833.68L6879.6 3924.32L6986.26 3909.64L6983.15 3783.53L6905.43 3715.04L6842.63 3756.25L6826.17 3833.68Z" fill="#D1C9C3"/>
<path d="M7216.94 2641.05L7322.16 2640.35L7363.01 2540.73L7252.39 2480.1L7154.13 2512.94L7158.25 2587.93L7216.94 2641.05Z" fill="#D1C9C3"/>
<path d="M8091.03 779.565L8153.7 695.05L8098.64 602.525L7983.7 654.503L7950.89 752.768L8013.3 794.556L8091.03 779.565Z" fill="#D1C9C3"/>
<path d="M6132.28 1375.83L6130.61 1270.62L6030.62 1230.68L5971.01 1341.86L6004.75 1439.81L6079.71 1435.01L6132.28 1375.83Z" fill="#D1C9C3"/>
<path d="M6224.26 1715.72L6216.95 1570.9L6090.51 1498.69L5994.6 1548.45L5922.03 1657.22L6000.27 1774.21L6091.99 1798.4L6195.11 1758.6L6224.26 1715.72Z" fill="#D1C9C3"/>
<path d="M6750.97 3853.32L6743.66 3708.5L6617.22 3636.29L6521.3 3686.05L6448.73 3794.82L6526.98 3911.8L6618.69 3935.99L6721.82 3896.2L6750.97 3853.32Z" fill="#D1C9C3"/>
<path d="M6896.82 3931.1L6752.83 3948.26L6689.41 4079.33L6745.6 4171.63L6859.06 4236.62L6970.44 4150.58L6988.32 4057.42L6941.58 3957.26L6896.82 3931.1Z" fill="#D1C9C3"/>
<path d="M7193.78 5052.4L7094.91 4946.32L6951.69 4972.52L6910.36 5072.37L6924.9 5202.31L7060.11 5241.4L7145.85 5200.83L7199.1 5103.97L7193.78 5052.4Z" fill="#D1C9C3"/>
<path d="M6346.95 11855.3L6215.73 11793.5L6092.51 11871.1L6091.27 11979.2L6153.08 12094.4L6293.12 12080.4L6357.63 12010.9L6371.06 11901.2L6346.95 11855.3Z" fill="#D1C9C3"/>
<path d="M4064.93 15036.9L3920.98 15019.4L3828.27 15131.7L3860.94 15234.7L3955.73 15324.8L4084.35 15267.6L4123.83 15181.4L4102.21 15073L4064.93 15036.9Z" fill="#D1C9C3"/>
<path d="M9358.22 462.9L9377.41 319.167L9266.24 225.137L9162.87 256.597L9071.7 350.323L9127.33 479.606L9213.1 520.097L9321.75 499.75L9358.22 462.9Z" fill="#D1C9C3"/>
<path d="M8060.26 1252.33L7984.72 1128.55L7839.15 1125.43L7778.61 1214.93L7766.74 1345.15L7891.32 1410.62L7983.47 1388.11L8055.1 1303.92L8060.26 1252.33Z" fill="#D1C9C3"/>
<rect x="5737" y="9561" width="269" height="266" fill="#46A325"/>
<rect x="6697" y="9264" width="269" height="266" fill="#46A325"/>
<rect x="6021" y="4840" width="269" height="266" fill="#46A325"/>
<rect x="6897" y="4148" width="269" height="266" fill="#46A325"/>
<rect x="6384" y="1264" width="269" height="266" fill="#46A325"/>
<rect x="8042" y="990" width="269" height="266" fill="#46A325"/>
<rect x="8746" y="1822" width="269" height="266" fill="#46A325"/>
<rect x="5423" y="3343" width="269" height="266" fill="#46A325"/>
<rect x="6596" y="11560" width="269" height="266" fill="#46A325"/>
<rect x="5138" y="12622" width="269" height="266" fill="#46A325"/>
<rect x="6083" y="6728" width="269" height="266" fill="#46A325"/>
<rect x="7393" y="2535" width="269" height="266" fill="#46A325"/>
<rect x="7339" y="10328" width="269" height="266" fill="#46A325"/>
<rect x="3920" y="13537" width="269" height="266" fill="#46A325"/>
<rect x="5365" y="13180" width="269" height="266" fill="#46A325"/>
<rect x="5199" y="14598" width="269" height="266" fill="#46A325"/>
<rect x="3604" y="14885" width="269" height="266" fill="#46A325"/>
<rect x="4021" y="11902" width="269" height="266" fill="#46A325"/>
<rect x="7286" y="8739" width="269" height="266" fill="#46A325"/>
<rect x="6121" y="5617" width="269" height="266" fill="#46A325"/>
<rect x="6180" y="10632" width="356" height="356" fill="#46A325"/>
<rect x="5288" y="11092" width="356" height="356" fill="#46A325"/>
<rect x="4387" y="11680" width="356" height="356" fill="#46A325"/>
<rect x="5704" y="11911" width="356" height="356" fill="#46A325"/>
<rect x="7047" y="11287" width="356" height="356" fill="#46A325"/>
<rect x="9272" y="8926" width="356" height="356" fill="#46A325"/>
<rect x="8286" y="7687" width="356" height="356" fill="#46A325"/>
<rect x="8340" y="6979" width="356" height="356" fill="#46A325"/>
<rect x="8831" y="6624" width="356" height="356" fill="#46A325"/>
<rect x="6955" y="3144" width="356" height="356" fill="#46A325"/>
<rect x="6159" y="3861" width="356" height="356" fill="#46A325"/>
<rect x="6962" y="1979" width="356" height="356" fill="#46A325"/>
<rect x="8339" y="4669" width="356" height="356" fill="#46A325"/>
<rect x="7928" y="1930" width="356" height="356" fill="#46A325"/>
<rect x="7029" y="1056" width="356" height="356" fill="#46A325"/>
<rect x="8913" y="1013" width="356" height="356" fill="#46A325"/>
<rect x="8095" y="43" width="356" height="356" fill="#46A325"/>
<rect x="6133" y="1926" width="356" height="356" fill="#46A325"/>
<rect x="5924" y="2732" width="356" height="356" fill="#46A325"/>
<rect x="5157" y="4363" width="356" height="356" fill="#46A325"/>
<rect x="5531" y="5338" width="356" height="356" fill="#46A325"/>
<rect x="6393" y="8407" width="356" height="356" fill="#46A325"/>
<rect x="5375" y="15310" width="356" height="356" fill="#46A325"/>
<rect x="2508" y="13371" width="356" height="356" fill="#46A325"/>
<rect x="3195" y="12606" width="356" height="356" fill="#46A325"/>
<rect x="4385" y="4039" width="356" height="356" fill="#46A325"/>
<rect x="6009" y="11004" width="343" height="350" fill="#46A325"/>
<rect x="5467" y="10638" width="343" height="350" fill="#46A325"/>
<rect x="6448" y="11997" width="343" height="350" fill="#46A325"/>
<rect x="6168" y="12563" width="343" height="350" fill="#46A325"/>
<rect x="7138" y="9821" width="343" height="350" fill="#46A325"/>
<rect x="7827" y="7364" width="343" height="350" fill="#46A325"/>
<rect x="7706" y="5787" width="343" height="350" fill="#46A325"/>
<rect x="5534" y="2454" width="343" height="350" fill="#46A325"/>
<rect x="5152" y="4942" width="343" height="350" fill="#46A325"/>
<rect x="5145" y="3777" width="343" height="350" fill="#46A325"/>
<rect x="7544" y="2078" width="343" height="350" fill="#46A325"/>
<rect x="7326" y="488" width="343" height="350" fill="#46A325"/>
<rect x="2765" y="14342" width="343" height="350" fill="#46A325"/>
<rect x="3881" y="15328" width="343" height="350" fill="#46A325"/>
<rect x="4793" y="13437" width="318.414" height="309.982" fill="#46A325"/>
<rect x="2777" y="12987" width="318.414" height="309.982" fill="#46A325"/>
<rect x="4031" y="11445" width="318.414" height="309.982" fill="#46A325"/>
<rect x="4780" y="10781" width="318.414" height="309.982" fill="#46A325"/>
<rect x="6126" y="8951" width="318.414" height="309.982" fill="#46A325"/>
<rect x="6800" y="8796" width="318.414" height="309.982" fill="#46A325"/>
<rect x="6698" y="7883" width="318.414" height="309.982" fill="#46A325"/>
<rect x="9132" y="8072" width="318.414" height="309.982" fill="#46A325"/>
<rect x="7583" y="904" width="318.414" height="309.982" fill="#46A325"/>
<path d="M4896.06 12357.3L5068.16 11874.4L4874.55 11805.4L4703.75 12284.6L4702.45 12288.2L4896.06 12357.3Z" fill="#D1C9C3"/>
<path d="M4805.46 15196.7L4828.67 15708.8L5034 15699.5L5010.97 15191.3L5010.79 15187.4L4805.46 15196.7Z" fill="#D1C9C3"/>
<path d="M5559.32 11816.8L5341.27 12280.8L5527.29 12368.2L5743.69 11907.8L5745.34 11904.2L5559.32 11816.8Z" fill="#D1C9C3"/>
</g>
<defs>
<clipPath id="clip0_859_2255">
<rect width="13918" height="15768" fill="white"/>
</clipPath>
</defs>
</svg>
