<svg width="12652" height="15768" viewBox="0 0 12652 15768" fill="none" xmlns="http://www.w3.org/2000/svg">
<g clip-path="url(#clip0_859_2251)">
<path d="M5998.45 15768C5998.45 15616.5 5998.45 15692 5998.45 15488.5C5998.45 15285 5946.5 14698.5 5507 14475.5C5197.57 14318.5 4844.5 14127.5 4890 13653C4935.5 13178.5 5337.58 13147 5647.58 13099C5957.57 13051 6323.57 12909.5 6430.57 12577.5C6537.57 12245.5 6723.5 11499 7329.5 11579C7935.5 11659 8357.5 11065 8220.5 10539.5C8083.5 10014 8473.51 9463 9185 9463C9814.19 9463 10421.6 9414 10263 8871.5C10104.4 8329 8879 8660.5 8804 7742C8728.39 6816 9504.48 6445.81 10263 6341C11021.5 6236.19 11187.5 5335.5 10312 5418C9436.49 5500.5 9008.99 4676.5 8422.99 4676.5C7837 4676.5 7290.54 4620.13 7242 4173C7156.5 3385.5 8058.99 3581.43 8058.99 2992.5C8058.99 1732.5 8100.5 1752.56 9080 1682C10059.5 1611.44 10070.5 795 10070.5 127C10070.5 -69 10070.5 68.5 10070.5 3.5" stroke="#97592D" stroke-width="650"/>
<path d="M5998.45 15768C5998.45 15616.5 5998.45 15692 5998.45 15488.5C5998.45 15285 5946.5 14698.5 5507 14475.5C5197.57 14318.5 4844.5 14127.5 4890 13653C4935.5 13178.5 5337.58 13147 5647.58 13099C5957.57 13051 6323.57 12909.5 6430.57 12577.5C6537.57 12245.5 6723.5 11499 7329.5 11579C7935.5 11659 8357.5 11065 8220.5 10539.5C8083.5 10014 8473.51 9463 9185 9463C9814.19 9463 10421.6 9414 10263 8871.5C10104.4 8329 8879 8660.5 8804 7742C8728.39 6816 9504.48 6445.81 10263 6341C11021.5 6236.19 11187.5 5335.5 10312 5418C9436.49 5500.5 9008.99 4676.5 8422.99 4676.5C7837 4676.5 7290.54 4620.13 7242 4173C7156.5 3385.5 8058.99 3581.43 8058.99 2992.5C8058.99 1732.5 8100.5 1752.56 9080 1682C10059.5 1611.44 10070.5 795 10070.5 127C10070.5 -69 10070.5 68.5 10070.5 3.5" stroke="#425155" stroke-width="500"/>
<path d="M5998.45 15768C5998.45 15616.5 5998.45 15692 5998.45 15488.5C5998.45 15285 5946.5 14698.5 5507 14475.5C5197.57 14318.5 4844.5 14127.5 4890 13653C4935.5 13178.5 5337.58 13147 5647.58 13099C5957.57 13051 6323.57 12909.5 6430.57 12577.5C6537.57 12245.5 6723.5 11499 7329.5 11579C7935.5 11659 8357.5 11065 8220.5 10539.5C8083.5 10014 8473.51 9463 9185 9463C9814.19 9463 10421.6 9414 10263 8871.5C10104.4 8329 8879 8660.5 8804 7742C8728.39 6816 9504.48 6445.81 10263 6341C11021.5 6236.19 11187.5 5335.5 10312 5418C9436.49 5500.5 9008.99 4676.5 8422.99 4676.5C7837 4676.5 7290.54 4620.13 7242 4173C7156.5 3385.5 8058.99 3581.43 8058.99 2992.5C8058.99 1732.5 8100.5 1752.56 9080 1682C10059.5 1611.44 10070.5 795 10070.5 127C10070.5 -69 10070.5 68.5 10070.5 3.5" stroke="#53656A" stroke-width="350"/>
</g>
<defs>
<clipPath id="clip0_859_2251">
<rect width="12652" height="15768" fill="white"/>
</clipPath>
</defs>
</svg>
