<svg width="7285" height="5593" viewBox="0 0 7285 5593" fill="none" xmlns="http://www.w3.org/2000/svg">
<rect x="3381" y="4505.96" width="700.964" height="98" transform="rotate(-34.3941 3381 4505.96)" fill="#D58850"/>
<rect x="6648.03" y="1738.3" width="247.535" height="102.458" transform="rotate(16.5118 6648.03 1738.3)" fill="#D9D9D9"/>
<rect x="6477.31" y="1731.41" width="399.452" height="102.458" transform="rotate(8.40449 6477.31 1731.41)" fill="#D9D9D9"/>
<rect x="6209.07" y="1721" width="532.211" height="102.458" transform="rotate(3.95433 6209.07 1721)" fill="#D9D9D9"/>
<rect x="159.751" y="2537.64" width="376.653" height="127.827" transform="rotate(91.3633 159.751 2537.64)" fill="#D9D9D9"/>
<rect x="6816.32" y="1785.88" width="247.663" height="102.458" transform="rotate(28.1748 6816.32 1785.88)" fill="#D9D9D9"/>
<rect x="6964.15" y="1859.99" width="257.258" height="102.458" transform="rotate(43.9831 6964.15 1859.99)" fill="#D9D9D9"/>
<rect x="7095.31" y="1968.99" width="257.258" height="102.458" transform="rotate(60.6547 7095.31 1968.99)" fill="#D9D9D9"/>
<rect x="7194" y="2111.99" width="296.231" height="102.458" transform="rotate(75.0652 7194 2111.99)" fill="#D9D9D9"/>
<rect x="7249.99" y="2286.99" width="296.231" height="102.458" transform="rotate(84.5213 7249.99 2286.99)" fill="#D9D9D9"/>
<rect x="7284.54" y="2486.02" width="296.231" height="102.458" transform="rotate(99.0004 7284.54 2486.02)" fill="#D9D9D9"/>
<rect x="7284" y="2592.4" width="296.231" height="102.458" transform="rotate(112.008 7284 2592.4)" fill="#D9D9D9"/>
<rect x="7235.04" y="2772.88" width="431.191" height="102.458" transform="rotate(133.004 7235.04 2772.88)" fill="#D9D9D9"/>
<rect x="7009.08" y="3033.02" width="352.047" height="102.458" transform="rotate(148.133 7009.08 3033.02)" fill="#D9D9D9"/>
<rect x="6027.51" y="502.199" width="276.722" height="127.827" transform="rotate(-121.553 6027.51 502.199)" fill="#D9D9D9"/>
<rect x="5939.06" y="329.166" width="276.723" height="127.827" transform="rotate(-146.794 5939.06 329.166)" fill="#D9D9D9"/>
<rect x="5810.69" y="231.329" width="276.723" height="127.827" transform="rotate(-161.678 5810.69 231.329)" fill="#D9D9D9"/>
<rect x="5656.9" y="165.927" width="276.723" height="127.827" transform="rotate(-171.814 5656.9 165.927)" fill="#D9D9D9"/>
<rect x="5446.79" y="129.334" width="301.328" height="127.827" transform="rotate(173.549 5446.79 129.334)" fill="#D9D9D9"/>
<rect x="5238.41" y="147.525" width="301.328" height="127.827" transform="rotate(166.949 5238.41 147.525)" fill="#D9D9D9"/>
<rect x="5107.77" y="152.94" width="301.328" height="127.827" transform="rotate(158.993 5107.77 152.94)" fill="#D9D9D9"/>
<rect x="4858.79" y="245.106" width="301.328" height="127.827" transform="rotate(149.439 4858.79 245.106)" fill="#D9D9D9"/>
<rect x="4652.14" y="366.796" width="301.328" height="127.827" transform="rotate(145.859 4652.14 366.796)" fill="#D9D9D9"/>
<rect x="4504.46" y="457.461" width="762.524" height="127.827" transform="rotate(139.68 4504.46 457.461)" fill="#D9D9D9"/>
<rect x="4462.43" y="2095.94" width="416.59" height="212.856" transform="rotate(19.6324 4462.43 2095.94)" fill="#D9D9D9"/>
<rect x="4719.67" y="2214" width="634.054" height="102.458" transform="rotate(9.36434 4719.67 2214)" fill="#D9D9D9"/>
<rect x="5048.27" y="2277" width="763.128" height="102.458" transform="rotate(0.712694 5048.27 2277)" fill="#D9D9D9"/>
<rect x="5474.99" y="2746.14" width="452.677" height="102.458" transform="rotate(-34.7676 5474.99 2746.14)" fill="#D9D9D9"/>
<rect x="5282.6" y="2933.81" width="452.677" height="198.182" transform="rotate(-58.0832 5282.6 2933.81)" fill="#D9D9D9"/>
<rect x="5316.62" y="3232.64" width="452.677" height="102.458" transform="rotate(-72.2074 5316.62 3232.64)" fill="#D9D9D9"/>
<rect x="5307.8" y="3413.44" width="226.74" height="102.458" transform="rotate(-83.8583 5307.8 3413.44)" fill="#D9D9D9"/>
<rect x="5370.39" y="3605.03" width="274.137" height="102.458" transform="rotate(-104.447 5370.39 3605.03)" fill="#D9D9D9"/>
<rect x="5487.72" y="3916.74" width="421.424" height="190.729" transform="rotate(-123.461 5487.72 3916.74)" fill="#D9D9D9"/>
<rect x="5719.48" y="3999.98" width="421.424" height="102.458" transform="rotate(-135.869 5719.48 3999.98)" fill="#D9D9D9"/>
<rect x="5572.28" y="2295.24" width="424.237" height="102.458" transform="rotate(-3.77018 5572.28 2295.24)" fill="#D9D9D9"/>
<rect x="6809.81" y="3166.1" width="642.202" height="102.458" transform="rotate(162.034 6809.81 3166.1)" fill="#D9D9D9"/>
<rect x="4270.87" y="1932.88" width="320.34" height="181.305" transform="rotate(38.8813 4270.87 1932.88)" fill="#D9D9D9"/>
<rect x="4277.27" y="1853.87" width="206.427" height="178.329" transform="rotate(58.4125 4277.27 1853.87)" fill="#D9D9D9"/>
<rect x="4255.96" y="1706.85" width="196.005" height="102.458" transform="rotate(80.532 4255.96 1706.85)" fill="#D9D9D9"/>
<rect x="4270.29" y="1534.78" width="196.005" height="182.195" transform="rotate(93.8521 4270.29 1534.78)" fill="#D9D9D9"/>
<rect x="4337.74" y="1408.56" width="188.084" height="102.458" transform="rotate(112.5 4337.74 1408.56)" fill="#D9D9D9"/>
<rect x="3909.94" y="1673.56" width="332.831" height="102.458" transform="rotate(178.076 3909.94 1673.56)" fill="#D9D9D9"/>
<rect x="3792.56" y="1688.37" width="390.464" height="102.458" transform="rotate(-170.418 3792.56 1688.37)" fill="#D9D9D9"/>
<rect x="2312.57" y="1441.33" width="300.607" height="226.201" transform="rotate(57.4007 2312.57 1441.33)" fill="#D9D9D9"/>
<rect x="2417.54" y="1560.45" width="229.664" height="243.955" transform="rotate(73.6716 2417.54 1560.45)" fill="#D9D9D9"/>
<rect x="2437.37" y="1707" width="229.664" height="216.099" transform="rotate(80.8864 2437.37 1707)" fill="#D9D9D9"/>
<rect x="2353.2" y="1858" width="229.664" height="102.458" transform="rotate(85.93 2353.2 1858)" fill="#D9D9D9"/>
<rect x="2370.47" y="2006.98" width="378.54" height="102.458" transform="rotate(96.149 2370.47 2006.98)" fill="#D9D9D9"/>
<rect x="4151.69" y="1671.39" width="411.713" height="162.335" transform="rotate(166.715 4151.69 1671.39)" fill="#D9D9D9"/>
<rect x="4259.98" y="1479.06" width="270.948" height="102.458" transform="rotate(142.261 4259.98 1479.06)" fill="#D9D9D9"/>
<rect x="4439.21" y="1270.28" width="364.925" height="102.458" transform="rotate(131.406 4439.21 1270.28)" fill="#D9D9D9"/>
<rect x="4449.19" y="1302.26" width="188.084" height="102.458" transform="rotate(133.041 4449.19 1302.26)" fill="#D9D9D9"/>
<path d="M1061 2619.5L1264.09 2836.23L1123.23 2960.49L880.503 2723.5L821.003 2637.5L880.503 2566.5L976.503 2566.5L1061 2619.5Z" fill="#D9D9D9"/>
<rect x="4580.41" y="1215.99" width="188.084" height="102.458" transform="rotate(145.113 4580.41 1215.99)" fill="#D9D9D9"/>
<rect x="4715.88" y="1154.9" width="188.084" height="103.464" transform="rotate(154.542 4715.88 1154.9)" fill="#D9D9D9"/>
<path d="M5382.88 899.969L4423.24 1273.66L4545.5 1135.99L4806.5 974.994L5341.5 793.994L5390.89 793.994L5420.82 821.741L5422.37 862.895L5382.88 899.969Z" fill="#D9D9D9"/>
<path d="M2270.01 2259L2399 2087.21H2605.5L2872 2194L3017 2388.5L2872 2553.5L2686.5 2768L2498 2866.5L2250.29 2899.69L1973 2866.5L2044.01 2700L2140.51 2507L2270.01 2259Z" fill="#D9D9D9"/>
<rect x="1159.97" y="2731.96" width="318.299" height="159.951" transform="rotate(34.5648 1159.97 2731.96)" fill="#D9D9D9"/>
<path d="M1162.51 3014.42L1041.55 2847L1130.09 2816.14L1455.58 3107.33L1333.99 3184.34L1162.51 3014.42Z" fill="#D9D9D9"/>
<rect x="1340.47" y="2871.63" width="318.299" height="224.699" transform="rotate(19.596 1340.47 2871.63)" fill="#D9D9D9"/>
<rect x="1513.87" y="3012.24" width="464.208" height="249.198" transform="rotate(56.8416 1513.87 3012.24)" fill="#D9D9D9"/>
<rect x="1763.75" y="3193.47" width="265.218" height="363.763" transform="rotate(74.8974 1763.75 3193.47)" fill="#D9D9D9"/>
<rect x="1802.88" y="3396.44" width="306.204" height="339.392" transform="rotate(86.8435 1802.88 3396.44)" fill="#D9D9D9"/>
<rect x="1820.66" y="3699.68" width="306.204" height="342.953" transform="rotate(99.0048 1820.66 3699.68)" fill="#D9D9D9"/>
<rect x="1704.76" y="3949.96" width="493.024" height="263.659" transform="rotate(117.309 1704.76 3949.96)" fill="#D9D9D9"/>
<rect x="2782.42" y="3710.8" width="469.058" height="149.665" transform="rotate(135.513 2782.42 3710.8)" fill="#D9D9D9"/>
<rect x="2579.72" y="3885.94" width="539.235" height="129.56" transform="rotate(120.675 2579.72 3885.94)" fill="#D9D9D9"/>
<rect x="2756.87" y="5105.6" width="487.597" height="129.56" transform="rotate(153.929 2756.87 5105.6)" fill="#D9D9D9"/>
<rect x="2877.29" y="4935.18" width="539.721" height="148.305" transform="rotate(133.821 2877.29 4935.18)" fill="#D9D9D9"/>
<rect x="2998.22" y="4657.29" width="539.721" height="139.439" transform="rotate(119.799 2998.22 4657.29)" fill="#D9D9D9"/>
<rect x="3057.49" y="4490.97" width="539.721" height="139.439" transform="rotate(112.773 3057.49 4490.97)" fill="#D9D9D9"/>
<rect x="4072.08" y="5362.4" width="539.721" height="129.56" transform="rotate(-139.611 4072.08 5362.4)" fill="#D9D9D9"/>
<rect x="4350.4" y="5460.5" width="539.721" height="129.56" transform="rotate(-154.073 4350.4 5460.5)" fill="#D9D9D9"/>
<rect x="4757.06" y="5542.61" width="539.721" height="129.56" transform="rotate(-165.728 4757.06 5542.61)" fill="#D9D9D9"/>
<rect x="5336.49" y="5583.01" width="664.736" height="129.56" transform="rotate(-176.49 5336.49 5583.01)" fill="#D9D9D9"/>
<rect x="5929.91" y="5485.88" width="664.736" height="129.56" transform="rotate(170.775 5929.91 5485.88)" fill="#D9D9D9"/>
<rect x="6220.14" y="5345.34" width="526.937" height="129.56" transform="rotate(159.688 6220.14 5345.34)" fill="#D9D9D9"/>
<rect x="6575.27" y="5060.55" width="562.646" height="129.56" transform="rotate(142.33 6575.27 5060.55)" fill="#D9D9D9"/>
<rect x="6792.02" y="4691.51" width="518.955" height="129.56" transform="rotate(121.867 6792.02 4691.51)" fill="#D9D9D9"/>
<rect x="6879.56" y="4261" width="552.162" height="129.56" transform="rotate(104.03 6879.56 4261)" fill="#D9D9D9"/>
<rect x="6835.91" y="4001.34" width="348.874" height="129.56" transform="rotate(82.5641 6835.91 4001.34)" fill="#D9D9D9"/>
<rect x="6739.67" y="3791" width="348.874" height="129.56" transform="rotate(69.9027 6739.67 3791)" fill="#D9D9D9"/>
<rect x="6571.42" y="3648" width="348.874" height="129.56" transform="rotate(50.8109 6571.42 3648)" fill="#D9D9D9"/>
<rect x="6366.51" y="3553" width="348.874" height="129.56" transform="rotate(34.0343 6366.51 3553)" fill="#D9D9D9"/>
<rect x="2982.42" y="3607.42" width="383.563" height="129.56" transform="rotate(147.101 2982.42 3607.42)" fill="#D9D9D9"/>
<rect x="3248.74" y="3550.48" width="383.563" height="129.56" transform="rotate(165.591 3248.74 3550.48)" fill="#D9D9D9"/>
<rect x="3454.62" y="3603.99" width="383.563" height="129.56" transform="rotate(-172.897 3454.62 3603.99)" fill="#D9D9D9"/>
<rect x="3662.9" y="3710.46" width="383.563" height="129.56" transform="rotate(-156.557 3662.9 3710.46)" fill="#D9D9D9"/>
<rect x="3802.43" y="3879.92" width="383.563" height="129.56" transform="rotate(-133.997 3802.43 3879.92)" fill="#D9D9D9"/>
<rect x="3951.61" y="4143.02" width="427.775" height="129.56" transform="rotate(-121.201 3951.61 4143.02)" fill="#D9D9D9"/>
<rect x="4051" y="4337.69" width="396.239" height="129.56" transform="rotate(-117.997 4051 4337.69)" fill="#D9D9D9"/>
<rect x="1797.28" y="2970.88" width="409.769" height="161.213" transform="rotate(-43.8703 1797.28 2970.88)" fill="#D9D9D9"/>
<rect x="1486" y="2961.65" width="409.769" height="161.213" transform="rotate(-3.16879 1486 2961.65)" fill="#D9D9D9"/>
<rect x="1530.95" y="3055.56" width="526.365" height="264.607" transform="rotate(-26.8285 1530.95 3055.56)" fill="#D9D9D9"/>
<rect x="2175.79" y="2473.31" width="450.07" height="119.721" transform="rotate(-73.8523 2175.79 2473.31)" fill="#D9D9D9"/>
<path d="M5005 1554.5L4905.5 1560L4859.5 1593.5L4834 1653.5L4840 1696L4876.17 1758L4924.49 1796.63H4993L5059.5 1765.5L5095 1711.5V1653.5L5072.5 1593.5L5005 1554.5Z" fill="#D9D9D9"/>
<rect x="1576.14" y="5354.75" width="1048.06" height="172" transform="rotate(-13.5609 1576.14 5354.75)" fill="#D9D9D9"/>
<path d="M5487.72 1791.34L5644 1827.5L5922.5 1839L6512 1827.5H6627L6719.5 1770.5L6733 1717L6719.5 1664.76L6713 1599L6690.5 1545.5L6645 1485.5L6563.5 1446.21L6458.5 1411.5L5635.5 1427.81L5492.71 1446.21L5381.72 1468.34L5347.5 1485.5L5319.99 1511.68L5302.84 1543L5295.36 1576.53L5302.84 1664.76L5327.5 1705.5L5363.01 1728.99L5487.72 1791.34Z" fill="#D9D9D9"/>
<rect x="5577.49" y="1453.39" width="243.439" height="127.827" transform="rotate(-25.2475 5577.49 1453.39)" fill="#D9D9D9"/>
<rect x="5748.68" y="1382.41" width="285.002" height="127.827" transform="rotate(-43.5523 5748.68 1382.41)" fill="#D9D9D9"/>
<rect x="5921.4" y="1226.08" width="358.822" height="127.827" transform="rotate(-64.6247 5921.4 1226.08)" fill="#D9D9D9"/>
<rect x="6056.08" y="977.023" width="358.822" height="127.827" transform="rotate(-85.3472 6056.08 977.023)" fill="#D9D9D9"/>
<rect x="6080.92" y="708.438" width="264.733" height="127.827" transform="rotate(-105.058 6080.92 708.438)" fill="#D9D9D9"/>
<rect x="1661.64" y="1448.74" width="344.389" height="127.827" transform="rotate(91.2292 1661.64 1448.74)" fill="#D9D9D9"/>
<rect x="1769.47" y="1245.65" width="319.134" height="127.827" transform="rotate(111.403 1769.47 1245.65)" fill="#D9D9D9"/>
<rect x="1943.72" y="1084.59" width="354.886" height="127.827" transform="rotate(131.432 1943.72 1084.59)" fill="#D9D9D9"/>
<rect x="2330.69" y="959.806" width="537.435" height="127.827" transform="rotate(158.355 2330.69 959.806)" fill="#D9D9D9"/>
<rect x="2749.72" y="947.429" width="562.448" height="127.827" transform="rotate(175.518 2749.72 947.429)" fill="#D9D9D9"/>
<rect x="3455.63" y="1116.59" width="900.514" height="127.827" transform="rotate(-168.246 3455.63 1116.59)" fill="#D9D9D9"/>
<rect x="3249.57" y="1582.91" width="701.493" height="127.827" transform="rotate(-171.703 3249.57 1582.91)" fill="#D9D9D9"/>
<rect x="1189.07" y="2262.73" width="397.104" height="127.827" transform="rotate(-156.103 1189.07 2262.73)" fill="#D9D9D9"/>
<rect x="1018.84" y="2167.19" width="344.504" height="127.827" transform="rotate(-175.256 1018.84 2167.19)" fill="#D9D9D9"/>
<rect x="851.8" y="2132.65" width="361.827" height="127.827" transform="rotate(172.22 851.8 2132.65)" fill="#D9D9D9"/>
<rect x="609.835" y="2145.07" width="307.896" height="127.827" transform="rotate(154.188 609.835 2145.07)" fill="#D9D9D9"/>
<rect x="483.895" y="2180.28" width="352.501" height="127.827" transform="rotate(138.717 483.895 2180.28)" fill="#D9D9D9"/>
<rect x="270.241" y="2312.18" width="376.653" height="127.827" transform="rotate(109.744 270.241 2312.18)" fill="#D9D9D9"/>
<rect x="122.327" y="2787.6" width="376.653" height="127.827" transform="rotate(73.1313 122.327 2787.6)" fill="#D9D9D9"/>
<rect x="166.899" y="2994.6" width="224.516" height="127.827" transform="rotate(55.1483 166.899 2994.6)" fill="#D9D9D9"/>
<rect x="234.223" y="3100.78" width="308.151" height="127.827" transform="rotate(34.8696 234.223 3100.78)" fill="#D9D9D9"/>
<rect x="2057.17" y="5452.69" width="842.531" height="174.592" transform="rotate(172.825 2057.17 5452.69)" fill="#D9D9D9"/>
<rect x="1495.54" y="5534.38" width="668.735" height="174.592" transform="rotate(-177.211 1495.54 5534.38)" fill="#D9D9D9"/>
<rect x="1035.26" y="5557.93" width="482.287" height="174.592" transform="rotate(-160.987 1035.26 5557.93)" fill="#D9D9D9"/>
<rect x="681.104" y="5469.53" width="542.952" height="174.592" transform="rotate(-140.492 681.104 5469.53)" fill="#D9D9D9"/>
<rect x="339.338" y="5236.08" width="542.952" height="174.592" transform="rotate(-109.51 339.338 5236.08)" fill="#D9D9D9"/>
<rect x="187.003" y="4846.68" width="542.952" height="174.592" transform="rotate(-82.011 187.003 4846.68)" fill="#D9D9D9"/>
<rect x="211.003" y="4561.07" width="595.233" height="174.592" transform="rotate(-67.6246 211.003 4561.07)" fill="#D9D9D9"/>
<path d="M1749.5 2172L1735.5 2016L1711 1918.5L1662 1780.5L1611.5 1646L1463 1586L1315.5 1595.5L1156 1629.53L1060 1683.5L1017.22 1796.95L1009.43 1953.15L1017.22 2097L1060 2191L1174.5 2251L1331.5 2284L1533.09 2303L1688.09 2251L1749.5 2172Z" fill="#D9D9D9"/>
<path d="M2119.79 1574.5L2156 1644L2240.5 1734L2701.5 1656L2881 1612.5L2920 1518L2887.5 1453L2781.5 1419.5L2652 1360.5L2565.57 1344L2418.07 1353.5L2258.57 1387.53L2162.57 1441.5L2132.5 1497.5L2119.79 1574.5Z" fill="#D9D9D9"/>
<path d="M3524 4607L3444 4504L3331 4390.5L3280.5 4363.5L3222 4343L3153.5 4332H3083.5L3018.5 4343L2965 4374L2919.5 4432.5L2894 4516L2863 4656L2835 4814.5V5031.5L2878.5 5319.5L3001 5457.5L3072 5492.5L3172.5 5504.5L3306.5 5516L3430 5504.5L3553.5 5482.5L3677.5 5457.5L3741.5 5376L3814 5292L3895.5 5101L3788 4938L3698.5 4835.5L3604 4712.5L3524 4607Z" fill="#D9D9D9"/>
<path d="M4155.5 4484L4044.5 4337.5L3956 4043.5L3924 3835L4044.5 3712L4155.5 3649.5L4304.5 3573L4515 3529L4698 3485.5L4963.5 3507.5L5209.5 3595L5444.5 3712L5638.5 3835L5811 3912L5911.5 3991L6010.5 4129.5L6042.5 4228.5L6053.5 4340V4526.5L6031 4599L5983.5 4656.5L5918.5 4702.5L5851 4739L5746.5 4791.5L5585 4835L5465.5 4850.5L5311.5 4862L5044.5 4817L4779.5 4767L4637.5 4748L4478.5 4709.5L4326 4627.5L4155.5 4484Z" fill="#D9D9D9"/>
<path d="M4151 713.994L4005 898.494L3917 990.5L3795.5 1082.49L3669 1132.5L3540 1155.49L3440 1145L3357.5 1111.49L3265.31 1020.99L3192 713.994L3335.77 618.494L3569 548.994L3808 522.494H4070.5L4248.5 548.994L4151 713.994Z" fill="#D9D9D9"/>
<path d="M1354 4099L1492 4006.5L1592.5 3972L1698 3915.5L1890 3876L2076 3863L2205 3876L2385 3929L2444 4057.5L2400 4191.5L2354 4291.5L2297.5 4375L2205 4477.5L2053.5 4589L1905.5 4664.5L1698 4738.5L1519 4792L1324 4820L1123 4833L1021.5 4820L973.503 4768L963.503 4708.5L973.503 4642.5L1002.5 4556L1065 4449.5L1123 4366L1238.5 4218.5L1354 4099Z" fill="#D9D9D9"/>
<path d="M564.003 3310L301.5 3169.5L71.5034 3143.5L1.50342 3271V3524.5V3654.5L25 3794L47 3925.5L71.5034 4065L140.003 4273L294.503 4343H467.003L566.503 4190L648.503 4028L728.503 3845L757.003 3686.5L740.503 3536L672.003 3399L564.003 3310Z" fill="#D9D9D9"/>
<path d="M2365.5 1776L2317.5 1967.5L2260 2267.5L2293.5 2494L2473 2530H2652.5L2878 2476L3119.5 2386.5L3296 2311.5L3480 2204L3628 2039L3717 1834.5L3750.5 1674.5L3677 1621L3480 1514.5L3269.5 1455L3097 1421.5H2878L2632.5 1455L2540.5 1514.5L2452 1601L2398 1687L2365.5 1776Z" fill="#D9D9D9"/>
<path d="M4299.5 1231.99L4247 1365.99L4480 1243.49L4628.5 1160.49L4870.5 1064.49L5115 983.494L5210 859.494L4740 974.494L4593 1011.5L4455 1074.49L4366.5 1146.5L4299.5 1231.99Z" fill="#D9D9D9"/>
<path d="M6303.5 3687L6512 3722L6693.5 3748L6793.5 3698L6882.5 3586.5V3450L6805 3342.5L6613.5 3249.5L6449.5 3206.5L6283.5 3216L6198 3236L6111 3268.5L6033 3330.5L5993 3415.5L5980 3486L6008.5 3555.5L6052.5 3595.5L6111 3629L6195.5 3659.5L6303.5 3687Z" fill="#D9D9D9"/>
<path d="M6035.5 2561.5L5792.5 2621.5L5481 2673L5262 2663.5L5173.5 2636L5126.5 2571L5112 2522.5L5126.5 2479L5165.5 2431L5211.5 2392.5L5323.5 2335L5436.5 2297.5L5714 2282.5L5999 2258.5L6228 2267L6287 2284.5L6331 2328.5L6351 2380.5L6345 2436L6315 2478.5L6270 2503L6035.5 2561.5Z" fill="#D9D9D9"/>
<rect x="3057" y="4097" width="135" height="70" fill="#BF3232"/>
<path d="M3628 4233.5L4258.5 4924L5233 5120L6278 4809.5V4151L5630 3405.5L6152.5 2845L6860 2551L6359.5 2039.5H4906.5V1457L5679 1076L5418 477.5L4422 880.5L3774.5 1294L2261.5 1207L1853 1707.5L1891 2360.5L1260 2545.5L503.5 2420.5L813.5 3199L966 4151L666.5 4924L1374 5049L2348.5 4875L3034 3928L3530 4153.5" stroke="#82E1BF" stroke-width="5" stroke-linecap="round"/>
</svg>
