<svg width="5689" height="4723" viewBox="0 0 5689 4723" fill="none" xmlns="http://www.w3.org/2000/svg">
<path d="M2219.59 3991.02C2219.59 3846.21 2090.53 3641.39 1854.37 3654.88C1725.42 3662.25 1570.12 3666.68 1438.22 3669.17C1439.29 3773.83 1440.03 3868.85 1440.03 3930.8C1440.03 4206.72 1649.02 4311.85 1882.76 4309.23C2116.51 4306.61 2219.59 4135.83 2219.59 3991.02Z" stroke="white" stroke-width="20"/>
<path d="M2170.21 3537L1839 3550.9V3803.74L1848.12 3879.63L1863.22 3947.26L1900.96 4019.77L1939.34 4066.35L2000.04 4107.68L2070.81 4133.6L2145.99 4146H2235.95L2302.31 4122.33L2351.7 4090.4L2395.73 4038.55L2428.13 3975.43L2447 3897.67V3815.76L2428.13 3738.75L2402.34 3675.63L2351.7 3609.13L2302.31 3571.19L2241.61 3542.64L2170.21 3537Z" fill="#D9D9D9"/>
<path d="M1129.36 3017.84H1291.91V2936.76V2855.69V2751.48V2672.01V2592.55L1287.68 2553.64L1201.64 2540.4H1106.44L1027.98 2552.31L920.554 2596.15L832.989 2657.75L784.115 2708.15L758.219 2751.48L750.073 2817.64L766.874 2875.68L798.438 2929.64L848.329 2970.37L965.931 3006L1129.36 3017.84Z" fill="#D9D9D9"/>
<rect x="1128.15" y="1857.27" width="163.356" height="758.036" fill="#D9D9D9"/>
<rect x="1145.04" y="2208.98" width="131.203" height="371.297" transform="rotate(15 1145.04 2208.98)" fill="#D9D9D9"/>
<rect x="1128.29" y="2312.33" width="131.203" height="371.297" transform="rotate(25.8434 1128.29 2312.33)" fill="#D9D9D9"/>
<rect x="1105.49" y="2404.98" width="131.203" height="371.297" transform="rotate(42.1186 1105.49 2404.98)" fill="#D9D9D9"/>
<rect x="1028.91" y="1757.14" width="131.203" height="363.348" transform="rotate(-17.728 1028.91 1757.14)" fill="#D9D9D9"/>
<rect x="900.257" y="1539.35" width="223.945" height="419.001" transform="rotate(-26.1733 900.257 1539.35)" fill="#D9D9D9"/>
<path d="M965.201 1637.18L1029.98 1707.19L1141.83 1678.02L1253.69 1648.85L1338.59 1608.81L1423.48 1568.78L1573.56 1479.46L1743.35 1373.24L1871.5 1302.62L1999.65 1232.01L2121.57 1165.62L2175.89 1084.35V945.533L2121.57 821.205L2063.23 758.036L1930.05 677.565L1740.94 636.122L1565.92 645.376L1383.25 699.694L1223.92 774.935L1089.53 859.027L953.303 970.579L840.184 1148.02L804.038 1323.66L858.511 1479.46L910.439 1579.73L965.201 1637.18Z" fill="#D9D9D9"/>
<rect x="1253.29" y="1647.24" width="131.203" height="363.348" transform="rotate(16.5349 1253.29 1647.24)" fill="#D9D9D9"/>
<rect x="1255.36" y="1409.5" width="287.805" height="363.348" transform="rotate(32.4534 1255.36 1409.5)" fill="#D9D9D9"/>
<rect x="1581.43" y="1318.92" width="131.203" height="363.348" transform="rotate(45.36 1581.43 1318.92)" fill="#D9D9D9"/>
<rect x="1879.09" y="1173.21" width="131.203" height="397.471" transform="rotate(63.278 1879.09 1173.21)" fill="#D9D9D9"/>
<rect x="2148.2" y="1137.05" width="131.203" height="397.471" transform="rotate(80.1124 2148.2 1137.05)" fill="#D9D9D9"/>
<rect x="2392.52" y="1142.41" width="147.5" height="397.471" transform="rotate(91.3812 2392.52 1142.41)" fill="#D9D9D9"/>
<rect x="2338.17" y="1123.76" width="194.53" height="439.845" transform="rotate(140.429 2338.17 1123.76)" fill="#D9D9D9"/>
<rect x="2529.5" y="1253.24" width="108.217" height="551.677" transform="rotate(131.737 2529.5 1253.24)" fill="#D9D9D9"/>
<rect x="2922.04" y="1538.64" width="108.217" height="594.78" transform="rotate(126.828 2922.04 1538.64)" fill="#D9D9D9"/>
<rect x="3059.45" y="1569.53" width="159.54" height="280.015" transform="rotate(112.193 3059.45 1569.53)" fill="#D9D9D9"/>
<rect x="3272.8" y="1594.05" width="218.961" height="286.019" transform="rotate(98.7536 3272.8 1594.05)" fill="#D9D9D9"/>
<rect x="3449.87" y="1573.21" width="206.308" height="286.019" transform="rotate(87.7695 3449.87 1573.21)" fill="#D9D9D9"/>
<rect x="3615.34" y="1533.77" width="239.234" height="286.019" transform="rotate(79.7727 3615.34 1533.77)" fill="#D9D9D9"/>
<rect x="3760.27" y="1480.66" width="232.52" height="286.019" transform="rotate(73.5521 3760.27 1480.66)" fill="#D9D9D9"/>
<rect x="4014.71" y="1374.33" width="236.923" height="410.042" transform="rotate(69.4349 4014.71 1374.33)" fill="#D9D9D9"/>
<rect x="2580.57" y="1289.75" width="105.144" height="397.471" transform="rotate(109.922 2580.57 1289.75)" fill="#D9D9D9"/>
<rect x="2759.35" y="1481.65" width="101.742" height="413.345" transform="rotate(129.427 2759.35 1481.65)" fill="#D9D9D9"/>
<rect x="2912.93" y="1717.73" width="101.742" height="413.345" transform="rotate(142.516 2912.93 1717.73)" fill="#D9D9D9"/>
<rect x="3074.32" y="1826.94" width="191.607" height="358.426" transform="rotate(147.476 3074.32 1826.94)" fill="#D9D9D9"/>
<rect x="2998.96" y="1935.32" width="101.742" height="279.531" transform="rotate(157.55 2998.96 1935.32)" fill="#D9D9D9"/>
<rect x="2719.91" y="2516.99" width="101.742" height="358.426" transform="rotate(139.132 2719.91 2516.99)" fill="#D9D9D9"/>
<rect x="2554.8" y="2339.4" width="101.742" height="358.426" transform="rotate(143.944 2554.8 2339.4)" fill="#D9D9D9"/>
<rect x="2890.37" y="2634.53" width="101.742" height="358.426" transform="rotate(127.736 2890.37 2634.53)" fill="#D9D9D9"/>
<rect x="3052.25" y="2674.19" width="101.742" height="289.675" transform="rotate(109.379 3052.25 2674.19)" fill="#D9D9D9"/>
<rect x="3258.45" y="2650.37" width="101.742" height="329.971" transform="rotate(89.2274 3258.45 2650.37)" fill="#D9D9D9"/>
<rect x="3430.07" y="2578.08" width="101.742" height="329.971" transform="rotate(72.8124 3430.07 2578.08)" fill="#D9D9D9"/>
<rect x="3528.75" y="2509.86" width="101.742" height="329.971" transform="rotate(63.3004 3528.75 2509.86)" fill="#D9D9D9"/>
<rect x="3628.59" y="2425.35" width="101.742" height="329.971" transform="rotate(56.2852 3628.59 2425.35)" fill="#D9D9D9"/>
<path d="M2309.13 1983.58L2414.88 2143.71L2468.28 2263.45V2467.09L2478.97 2648.86L2457.59 2840.77L2445.37 2944.12L2414.88 3043.41H2184.08H1980.22H1801.7V2908.04V2766.48V2648.86V2518.86V2400V2270V2143.71L1835.07 2019.48L1870.05 1949.32L1923.13 1884.94L2005.15 1849.04L2088.79 1840.37L2211.43 1884.94L2309.13 1983.58Z" fill="#D9D9D9"/>
<rect x="1263.75" y="2186.07" width="585.464" height="99.7834" fill="#D58850"/>
<rect x="3304.38" y="1056.83" width="552.548" height="99.7834" rx="0.01" transform="rotate(94.0954 3304.38 1056.83)" fill="#D58850"/>
<rect x="1149.77" y="1943.65" width="593.641" height="99.7834" rx="0.02" transform="rotate(166.878 1149.77 1943.65)" fill="#D58850"/>
<rect x="2237.93" y="3015.23" width="538.765" height="99.7834" rx="0.03" transform="rotate(93.2555 2237.93 3015.23)" fill="#D58850"/>
<rect x="2961.47" y="4063.02" width="547.43" height="99.7834" rx="0.04" transform="rotate(-167.825 2961.47 4063.02)" fill="#D58850"/>
<rect x="2120.06" y="4653.82" width="547.43" height="99.7834" rx="0.05" transform="rotate(-90 2120.06 4653.82)" fill="#D58850"/>
<rect x="1291.25" y="3596.27" width="547.43" height="99.7834" rx="0.06" fill="#D58850"/>
<path d="M2987.84 2144.83L2918.63 2029.86L2880.01 1923.66V1827.66L2928.51 1793.05L3045.78 1762.31L3150.79 1744.21L3271.09 1724.89L3362.77 1711.08L3462.04 1724.89L3521.1 1806.57L3478.84 1923.66L3340.37 2058.8L3246.18 2144.83L3180.51 2190.65L3130.62 2210.51L3045.78 2202.36L2987.84 2144.83Z" fill="#D9D9D9"/>
<rect x="3453" y="1778.83" width="337.978" height="146.819" transform="rotate(-19.3325 3453 1778.83)" fill="#D9D9D9"/>
<rect x="3318.48" y="1892.91" width="337.978" height="146.819" transform="rotate(-29.8236 3318.48 1892.91)" fill="#D9D9D9"/>
<rect x="3129.67" y="2023.47" width="390.283" height="146.819" transform="rotate(-33.5212 3129.67 2023.47)" fill="#D9D9D9"/>
<rect x="3626.73" y="1635.63" width="337.978" height="217.815" transform="rotate(-8.53106 3626.73 1635.63)" fill="#D9D9D9"/>
<rect x="3857.39" y="1636.46" width="337.978" height="173.552" transform="rotate(3.87691 3857.39 1636.46)" fill="#D9D9D9"/>
<rect x="4032.91" y="1733.34" width="337.978" height="76.4473" transform="rotate(13.8263 4032.91 1733.34)" fill="#D9D9D9"/>
<rect x="4173.05" y="1763.12" width="337.978" height="76.4473" transform="rotate(25.4706 4173.05 1763.12)" fill="#D9D9D9"/>
<rect x="4404.98" y="1870.14" width="176.783" height="76.4473" transform="rotate(30.3947 4404.98 1870.14)" fill="#D9D9D9"/>
<path d="M4502.64 2053.2L4341.76 1940.18L4213.81 1819.04L4050.05 1729.72L3902.39 1629.94L3790.53 1542.22V1493.94L3851.69 1434.8L3950.27 1389.73L4050.05 1338.63L4130.52 1300.81L4239.96 1245.29L4355.04 1208.67L4439.13 1215.51L4524.83 1231.2L4617.77 1267.82L4704.28 1321.33L4777.91 1377.66L4840.28 1438.42L4909.59 1510.5L4972.1 1588.9L5022.43 1688.68L5070.29 1792.09L5078.94 1896.39L5061.63 1998.21L5022.43 2099.01L4913.91 2169.27L4777.91 2184.03L4608.53 2121.41L4502.64 2053.2Z" fill="#D9D9D9"/>
<path d="M3550.73 2477.78L3489.53 2550.53L3470.19 2624.91L3489.53 2690.95L3508.37 2746.59L3550.73 2769.81L3652.12 2797.97L3742.65 2816.48L3860.95 2826.14H3989.3H4134.55H4348.2L4497.07 2816.48L4642.32 2761.36L4624.21 2613.29L4497.07 2541.67L4348.2 2433.49L4207.09 2350.8L4067.88 2298.89L3946.77 2275.96L3835.72 2267.02L3742.65 2317.42L3652.12 2384.62L3550.73 2477.78Z" fill="#D9D9D9"/>
<rect x="4431.38" y="2530" width="357.384" height="185.93" transform="rotate(12.4526 4431.38 2530)" fill="#D9D9D9"/>
<rect x="4657.84" y="2598.4" width="383.041" height="96.5651" transform="rotate(1.09239 4657.84 2598.4)" fill="#D9D9D9"/>
<rect x="4960.83" y="2605.26" width="227.083" height="96.5651" transform="rotate(-5.5821 4960.83 2605.26)" fill="#D9D9D9"/>
<rect x="5150.21" y="2598.65" width="227.083" height="96.565" transform="rotate(-23.4512 5150.21 2598.65)" fill="#D9D9D9"/>
<rect x="5053.48" y="2598.07" width="227.083" height="96.5651" transform="rotate(-10.7598 5053.48 2598.07)" fill="#D9D9D9"/>
<rect x="5251.01" y="2571.33" width="227.083" height="96.5651" transform="rotate(-35.6205 5251.01 2571.33)" fill="#D9D9D9"/>
<rect x="5364.04" y="2500.55" width="227.083" height="96.5651" transform="rotate(-48.821 5364.04 2500.55)" fill="#D9D9D9"/>
<rect x="5428.18" y="2446.56" width="227.083" height="94.5437" transform="rotate(-60.358 5428.18 2446.56)" fill="#D9D9D9"/>
<rect x="5489.35" y="2359.86" width="227.083" height="96.5651" transform="rotate(-69.3929 5489.35 2359.86)" fill="#D9D9D9"/>
<rect x="5540.59" y="2253.83" width="306.695" height="96.5651" transform="rotate(-80.1413 5540.59 2253.83)" fill="#D9D9D9"/>
<rect x="5567.48" y="2132.89" width="260.395" height="96.5651" transform="rotate(-90.6297 5567.48 2132.89)" fill="#D9D9D9"/>
<rect x="5573.5" y="1989.69" width="288.259" height="96.5651" transform="rotate(-95.7587 5573.5 1989.69)" fill="#D9D9D9"/>
<rect x="5558.9" y="1820.78" width="260.395" height="96.5651" transform="rotate(-101.134 5558.9 1820.78)" fill="#D9D9D9"/>
<rect x="5535.31" y="1658.91" width="260.395" height="96.5651" transform="rotate(-113.803 5535.31 1658.91)" fill="#D9D9D9"/>
<rect x="5456.73" y="1480.61" width="293.542" height="96.5651" transform="rotate(-125.897 5456.73 1480.61)" fill="#D9D9D9"/>
<rect x="5227.34" y="1166.38" width="260.395" height="96.5651" transform="rotate(-133.101 5227.34 1166.38)" fill="#D9D9D9"/>
<rect x="5330.85" y="1300.09" width="260.395" height="96.5651" transform="rotate(-130.007 5330.85 1300.09)" fill="#D9D9D9"/>
<rect x="5124.57" y="1049.87" width="260.395" height="96.5651" transform="rotate(-143.211 5124.57 1049.87)" fill="#D9D9D9"/>
<rect x="4983.12" y="943.645" width="282.731" height="96.5651" transform="rotate(-153.22 4983.12 943.645)" fill="#D9D9D9"/>
<rect x="4806.99" y="846.841" width="282.731" height="96.5651" transform="rotate(-162.559 4806.99 846.841)" fill="#D9D9D9"/>
<rect x="4680.57" y="786.078" width="282.731" height="96.5651" transform="rotate(-170.353 4680.57 786.078)" fill="#D9D9D9"/>
<rect x="4520.4" y="751.65" width="282.731" height="96.5651" transform="rotate(-177.635 4520.4 751.65)" fill="#D9D9D9"/>
<rect x="4428.34" y="739.948" width="282.731" height="96.5651" transform="rotate(177.166 4428.34 739.948)" fill="#D9D9D9"/>
<rect x="4294.37" y="732.593" width="282.731" height="96.5651" transform="rotate(168.01 4294.37 732.593)" fill="#D9D9D9"/>
<rect x="4105.59" y="767.729" width="293.204" height="96.5651" transform="rotate(159.021 4105.59 767.729)" fill="#D9D9D9"/>
<rect x="3887.29" y="850.224" width="309.942" height="96.5651" transform="rotate(155.924 3887.29 850.224)" fill="#D9D9D9"/>
<path d="M3683.01 946.886L3775.15 896.592L3866.89 810.488L3883.39 649.144V507.515L3866.89 361.46H3648.41H3433.15H3093.97H2959.18H2782.54H2546.76L2520.21 518.378L2574.53 612.932L2645.34 703.461L2709.72 769.85L2782.54 847.504L2900.03 940.448L3015.91 1008.04L3128.17 1047.07L3265.37 1061.56L3433.15 1041.84L3565.12 998.79L3683.01 946.886Z" fill="#D9D9D9"/>
<rect x="2410.23" y="261.677" width="387.167" height="96.5651" transform="rotate(46.6651 2410.23 261.677)" fill="#D9D9D9"/>
<rect x="2213.23" y="131.972" width="333.939" height="96.565" transform="rotate(37.1134 2213.23 131.972)" fill="#D9D9D9"/>
<rect x="2006.03" y="48.0056" width="333.939" height="96.565" transform="rotate(25.3968 2006.03 48.0056)" fill="#D9D9D9"/>
<rect x="1132.18" y="126.43" width="333.939" height="96.565" transform="rotate(-17.692 1132.18 126.43)" fill="#D9D9D9"/>
<rect x="899.617" y="232.045" width="333.939" height="96.5651" transform="rotate(-22.882 899.617 232.045)" fill="#D9D9D9"/>
<rect x="688.783" y="362.966" width="333.939" height="96.5651" transform="rotate(-30.0897 688.783 362.966)" fill="#D9D9D9"/>
<rect x="527.037" y="504.854" width="333.939" height="96.5651" transform="rotate(-37.6305 527.037 504.854)" fill="#D9D9D9"/>
<rect x="391.041" y="676.601" width="333.939" height="96.5651" transform="rotate(-47.2646 391.041 676.601)" fill="#D9D9D9"/>
<rect x="280.796" y="896.33" width="333.939" height="96.5651" transform="rotate(-60.9731 280.796 896.33)" fill="#D9D9D9"/>
<rect x="218.029" y="1103.8" width="333.939" height="96.565" transform="rotate(-71.5617 218.029 1103.8)" fill="#D9D9D9"/>
<rect x="187.45" y="1312.64" width="333.939" height="96.5651" transform="rotate(-81.2905 187.45 1312.64)" fill="#D9D9D9"/>
<rect x="202.739" y="1488.7" width="333.939" height="96.565" transform="rotate(-90 202.739 1488.7)" fill="#D9D9D9"/>
<rect x="179.497" y="1733.83" width="333.939" height="188.049" transform="rotate(-103.738 179.497 1733.83)" fill="#D9D9D9"/>
<rect x="66.3313" y="2594.37" width="284.728" height="272.57" transform="rotate(-62.9327 66.3313 2594.37)" fill="#D9D9D9"/>
<rect x="139.664" y="2426.89" width="284.728" height="272.57" transform="rotate(-54.0986 139.664 2426.89)" fill="#D9D9D9"/>
<rect x="189.555" y="2987.88" width="303.621" height="96.565" transform="rotate(-86.0345 189.555 2987.88)" fill="#D9D9D9"/>
<rect x="188.537" y="2824.16" width="303.621" height="96.5651" transform="rotate(-73.3443 188.537 2824.16)" fill="#D9D9D9"/>
<rect x="215.322" y="3137.08" width="303.621" height="96.5651" transform="rotate(-96.285 215.322 3137.08)" fill="#D9D9D9"/>
<rect x="310.996" y="3331.18" width="303.621" height="96.5651" transform="rotate(-113.845 310.996 3331.18)" fill="#D9D9D9"/>
<rect x="460.796" y="3504.57" width="303.621" height="96.5651" transform="rotate(-128.462 460.796 3504.57)" fill="#D9D9D9"/>
<rect x="652.392" y="3581.49" width="303.621" height="96.5651" transform="rotate(-148.231 652.392 3581.49)" fill="#D9D9D9"/>
<rect x="890.053" y="3638.65" width="303.621" height="96.5651" transform="rotate(-164.805 890.053 3638.65)" fill="#D9D9D9"/>
<rect x="1158.06" y="3656.54" width="303.621" height="96.5651" transform="rotate(-175.548 1158.06 3656.54)" fill="#D9D9D9"/>
<rect x="1314.29" y="3648.55" width="303.621" height="96.5651" transform="rotate(180 1314.29 3648.55)" fill="#D9D9D9"/>
<rect x="2579.11" y="3148.26" width="406.782" height="96.5651" transform="rotate(-159.796 2579.11 3148.26)" fill="#D9D9D9"/>
<rect x="2514.45" y="3108.3" width="406.782" height="96.5651" transform="rotate(-167.703 2514.45 3108.3)" fill="#D9D9D9"/>
<rect x="2736.76" y="3278.59" width="354.936" height="96.5651" transform="rotate(-145.816 2736.76 3278.59)" fill="#D9D9D9"/>
<rect x="2869.24" y="3440.72" width="346.98" height="96.5651" transform="rotate(-131.273 2869.24 3440.72)" fill="#D9D9D9"/>
<rect x="2956.06" y="3635.43" width="395.729" height="96.5651" transform="rotate(-116.936 2956.06 3635.43)" fill="#D9D9D9"/>
<rect x="2967.89" y="3821.4" width="303.621" height="96.5651" transform="rotate(-100.472 2967.89 3821.4)" fill="#D9D9D9"/>
<rect x="2957.77" y="4002.84" width="303.621" height="96.5651" transform="rotate(-90 2957.77 4002.84)" fill="#D9D9D9"/>
<rect x="2885.83" y="4283.89" width="382.967" height="96.5651" transform="rotate(-77.4668 2885.83 4283.89)" fill="#D9D9D9"/>
<rect x="2779.85" y="4464.51" width="421.355" height="96.5651" transform="rotate(-65.5509 2779.85 4464.51)" fill="#D9D9D9"/>
<rect x="2699.41" y="4504.99" width="303.621" height="96.5651" transform="rotate(-51.5335 2699.41 4504.99)" fill="#D9D9D9"/>
<rect x="2504.94" y="4615.58" width="438.878" height="96.5651" transform="rotate(-35.7915 2504.94 4615.58)" fill="#D9D9D9"/>
<rect x="2434.68" y="4604.6" width="303.621" height="96.5651" transform="rotate(-22.9566 2434.68 4604.6)" fill="#D9D9D9"/>
<rect x="2289.08" y="4628.84" width="303.621" height="96.5651" transform="rotate(-12.8089 2289.08 4628.84)" fill="#D9D9D9"/>
<rect x="1874.75" y="4584.88" width="303.621" height="96.5651" transform="rotate(8.04176 1874.75 4584.88)" fill="#D9D9D9"/>
<rect x="1709.6" y="4526.94" width="303.621" height="96.5651" transform="rotate(16.2419 1709.6 4526.94)" fill="#D9D9D9"/>
<rect x="1587.46" y="4446.47" width="303.621" height="96.5651" transform="rotate(25.5591 1587.46 4446.47)" fill="#D9D9D9"/>
<rect x="1478.93" y="4330.94" width="303.621" height="96.5651" transform="rotate(39.2391 1478.93 4330.94)" fill="#D9D9D9"/>
<rect x="1381.69" y="4161.15" width="303.621" height="96.5651" transform="rotate(54.8062 1381.69 4161.15)" fill="#D9D9D9"/>
<rect x="1311.08" y="3954.34" width="303.621" height="96.5651" transform="rotate(69.3956 1311.08 3954.34)" fill="#D9D9D9"/>
<rect x="1302.55" y="3782.94" width="303.621" height="96.5651" transform="rotate(81.6283 1302.55 3782.94)" fill="#D9D9D9"/>
<rect x="1314.04" y="3596.24" width="303.621" height="96.5651" transform="rotate(90 1314.04 3596.24)" fill="#D9D9D9"/>
<rect x="2011.11" y="4613.45" width="403.964" height="96.5651" fill="#D9D9D9"/>
<rect x="362.356" y="1927.79" width="333.939" height="96.565" transform="rotate(-110.651 362.356 1927.79)" fill="#D9D9D9"/>
<rect x="426.713" y="1951.56" width="333.939" height="96.5651" transform="rotate(-121.819 426.713 1951.56)" fill="#D9D9D9"/>
<path d="M374.36 1710.43L273.772 1615.88H0.170654V1865.34V1990.07V2114.8V2239.53V2346.16V2512.64L102.5 2549.06L236.922 2526.87L347.413 2487.18L435.996 2447.48L499.125 2401.89L567.344 2312.56L585.852 2203.93V2097.71L554.871 1956.88L476.156 1822.81L374.36 1710.43Z" fill="#D9D9D9"/>
<rect x="1520.34" y="2735.9" width="137.457" height="71.2738" transform="rotate(-90 1520.34 2735.9)" fill="#BF3232"/>
<rect x="1778.81" width="333.939" height="96.5651" transform="rotate(13.2778 1778.81 0)" fill="#D9D9D9"/>
<rect x="1580.4" width="333.939" height="96.5651" transform="rotate(4.30122 1580.4 0)" fill="#D9D9D9"/>
<rect x="1361.52" y="48.3403" width="333.939" height="96.5651" transform="rotate(-7.20848 1361.52 48.3403)" fill="#D9D9D9"/>
</svg>
