<svg width="13918" height="15768" viewBox="0 0 13918 15768" fill="none" xmlns="http://www.w3.org/2000/svg">
<g clip-path="url(#clip0_935_3477)">
<path opacity="0.4" d="M8740.99 15768C8740.99 15696 8740.99 15736 8740.99 15637C8743.99 15452.2 8592.79 15070.4 7963.99 15022C7177.99 14961.5 6833.99 14767.5 6861.99 14263.5C6889.99 13759.5 7421.99 13516 7892.49 13671C8362.99 13826 8689.99 13776 8722.99 13266.5C8755.99 12757 7947.99 12436 8263.49 12004C8578.99 11572 8913.99 11559 9587.49 11781.5C10261 12004 10738.5 11576.5 10730 11261.5C10721.5 10946.5 10825.3 9943.68 8982.49 10273C8361.49 10384 8086.49 9383 8982.49 9351.52C9285.66 9282.68 9816.97 8972.48 9368.99 8390.5C8819 7676 8066 8888.5 7329 8888.5C6592 8888.5 6216.12 7902.92 6827.5 7643C7806 7227 7320.57 5731.2 6054 6258.5C5697 6407.13 4914.5 6258.5 4158 6258.5C3650.58 6258.5 3476 5438 4200 5335.5C4924 5233 4795.88 4206.18 4158 4183.5C2822 4136 2644.15 3297.65 3457 2709.5C3849.5 2425.5 3457 1898 3068 2086.5C2352.28 2433.32 1766.79 1637.98 2348.5 1099C2736.5 739.5 2920 1291 3393.5 922C3767.83 630.28 3364.5 378 3364.5 -0.5" stroke="#53656A" stroke-width="500"/>
<path opacity="0.01" d="M8740.99 15768C8740.99 15696 8740.99 15736 8740.99 15637C8743.99 15452.2 8592.79 15070.4 7963.99 15022C7177.99 14961.5 6833.99 14767.5 6861.99 14263.5C6889.99 13759.5 7421.99 13516 7892.49 13671C8362.99 13826 8689.99 13776 8722.99 13266.5C8755.99 12757 7947.99 12436 8263.49 12004C8578.99 11572 8913.99 11559 9587.49 11781.5C10261 12004 10738.5 11576.5 10730 11261.5C10721.5 10946.5 10825.3 9943.68 8982.49 10273C8361.49 10384 8086.49 9383 8982.49 9351.52C9285.66 9282.68 9816.97 8972.48 9368.99 8390.5C8819 7676 8066 8888.5 7329 8888.5C6592 8888.5 6216.12 7902.92 6827.5 7643C7806 7227 7320.57 5731.2 6054 6258.5C5697 6407.13 4914.5 6258.5 4158 6258.5C3650.58 6258.5 3476 5438 4200 5335.5C4924 5233 4795.88 4206.18 4158 4183.5C2822 4136 2644.15 3297.65 3457 2709.5C3849.5 2425.5 3457 1898 3068 2086.5C2352.28 2433.32 1766.79 1637.98 2348.5 1099C2736.5 739.5 2920 1291 3393.5 922C3767.83 630.28 3364.5 378 3364.5 -0.5" stroke="#FA5F3D" stroke-width="550"/>
<rect x="8712" y="15715" width="135" height="70" transform="rotate(-90 8712 15715)" fill="#BF3232"/>
<path d="M7779.08 14707C7685.41 14696.5 7470.38 14660.5 7359.58 14600.5C7221.08 14525.5 7110.08 14425 7157.58 14254.5C7205.08 14084 7305.58 13943.5 7469.08 13938C7632.58 13932.5 7908.58 13954 8054.58 14019" stroke="#592B21" stroke-width="35"/>
<path d="M7544.08 13318.5C7622.08 13323.3 7806.28 13339.9 7919.08 13367.5C8060.08 13402 8330.08 13516 8374.58 13429C8419.08 13342 8493.08 13223.5 8313.58 12999.5C8134.08 12775.5 8097.58 12749 7998.58 12582.5" stroke="#592B21" stroke-width="35"/>
<path d="M8913.58 12847C8849.58 12755.8 8708.78 12554.2 8657.58 12477C8593.58 12380.5 8414.58 12197.5 8615.58 12068.5C8816.58 11939.5 8946.58 11905.5 9171.58 11968.5C9396.58 12031.5 9574.58 12105.5 9709.58 12118.5" stroke="#592B21" stroke-width="35"/>
<path d="M9838.58 9905.47C9698.58 9912.8 9383.38 9932.27 9242.58 9951.47C9066.58 9975.47 8753.08 10046.5 8707.58 9873.97C8662.08 9701.47 8780.58 9682.97 8942.58 9669.47C9104.58 9655.97 9485.08 9486.97 9530.08 9423.97" stroke="#592B21" stroke-width="35"/>
<path d="M8619.08 9114.47C8772.58 9098.8 9098.88 9037.47 9176.08 8917.47C9272.58 8767.47 9227.08 8659.47 9091.58 8534.47C8956.08 8409.47 8736.08 8514.97 8619.08 8592.97C8502.08 8670.97 8116.08 8948.47 8018.58 8991.97" stroke="#592B21" stroke-width="35"/>
<path d="M4720.58 5976.97C4551.25 5982.3 4190.58 5982.57 4102.58 5940.97C3992.58 5888.97 3933.08 5709.47 4112.58 5665.47C4292.08 5621.47 4525.08 5602.97 4663.08 5469.47C4801.08 5335.97 4977.08 5058.97 4965.08 4984.47" stroke="#592B21" stroke-width="35"/>
<path d="M3501.08 5441.97C3553.25 5369.3 3688.38 5209.47 3811.58 5151.47C3965.58 5078.97 4221.58 5096.47 4309.58 4963.97C4397.58 4831.47 4458.58 4703.97 4345.08 4591.47C4231.58 4478.97 4026.08 4454.97 3852.08 4444.47" stroke="#592B21" stroke-width="35"/>
<path d="M2677 3156.5C2702.5 3084.33 2794.8 2905.5 2900 2805.5C3031.5 2680.5 3111.25 2581.37 3258.08 2494.97C3326 2455 3327.63 2409.5 3317 2381.5C3306.37 2353.5 3251.08 2334.5 3205.5 2352C3094.13 2394.76 2918 2456.5 2781.5 2466.5" stroke="#592B21" stroke-width="35"/>
<path d="M3844.08 1999.47C3773.92 1936.13 3607.88 1804.07 3505.08 1782.47C3376.58 1755.47 3131.58 1720.47 2961.58 1796.97C2791.58 1873.47 2733.08 1888.47 2577.08 1826.97C2421.08 1765.47 2392.58 1674.97 2405.58 1551.47C2418.58 1427.97 2492.58 1311.47 2607.08 1275.47C2721.58 1239.47 2881.08 1346.97 3034.58 1341.97C3188.08 1336.97 3403.58 1315.97 3485.58 1241.97" stroke="#592B21" stroke-width="35"/>
<path d="M3103.67 4213.77L2966.71 4166.14L2852.29 4256.2L2862.38 4363.78L2935.92 4471.89L3073.74 4443.32L3130.61 4367.41L3132.46 4256.89L3103.67 4213.77Z" fill="#D1C9C3"/>
<path d="M1455.56 1153.79L1352.92 1256.22L1383.99 1398.47L1485.18 1436.36L1614.55 1417.4L1649.02 1280.94L1605.55 1196.64L1506.93 1146.72L1455.56 1153.79Z" fill="#D1C9C3"/>
<path d="M4872.56 3185.79L4769.92 3288.22L4800.99 3430.47L4902.18 3468.36L5031.55 3449.4L5066.02 3312.94L5022.55 3228.64L4923.93 3178.72L4872.56 3185.79Z" fill="#D1C9C3"/>
<path d="M4060.56 1190.79L3957.92 1293.22L3988.99 1435.47L4090.18 1473.36L4219.55 1454.4L4254.02 1317.94L4210.55 1233.64L4111.93 1183.72L4060.56 1190.79Z" fill="#D1C9C3"/>
<path d="M5114.66 7111.26L5084.15 6969.5L4947.75 6918.56L4861.08 6983.1L4806.95 7102.12L4902.99 7205.01L4997.41 7214.13L5092.79 7158.27L5114.66 7111.26Z" fill="#D1C9C3"/>
<path d="M8671.75 8994.21L8641.24 8852.45L8504.83 8801.52L8418.17 8866.06L8364.04 8985.08L8460.08 9087.96L8554.49 9097.08L8649.87 9041.22L8671.75 8994.21Z" fill="#D1C9C3"/>
<path d="M11757.2 11004.5L11614.8 10976.9L11514.4 11082.3L11539.8 11187.4L11628 11283.9L11760.3 11235.9L11805.7 11152.7L11791.8 11043L11757.2 11004.5Z" fill="#D1C9C3"/>
<path d="M7898.87 12973.6L7836.47 12842.7L7691.99 12824.7L7622.56 12907.5L7597.36 13035.8L7714.55 13113.7L7808.52 13100.8L7888.43 13024.4L7898.87 12973.6Z" fill="#D1C9C3"/>
<path d="M9285.09 15514.6L9159.79 15441.6L9030.24 15508.1L9019.53 15615.6L9070.99 15735.8L9211.72 15734.2L9282.09 15670.6L9305.08 15562.5L9285.09 15514.6Z" fill="#D1C9C3"/>
<path d="M8473.83 15573.7L8420.93 15482.7L8314.18 15496.8L8316.55 15622.9L8393.88 15691.9L8456.92 15651L8473.83 15573.7Z" fill="#D1C9C3"/>
<path d="M9529.29 15590.9L9491.24 15538.2L9406.29 15536.9L9343.49 15583.5L9349.55 15709.5L9440.27 15763.1L9546.06 15718L9529.29 15590.9Z" fill="#D1C9C3"/>
<path d="M8238.29 9070.88L8200.24 9018.16L8115.29 9016.93L8052.49 9063.5L8058.55 9189.5L8149.27 9243.11L8255.06 9198.05L8238.29 9070.88Z" fill="#D1C9C3"/>
<path d="M5778.29 7380.88L5740.24 7328.16L5655.29 7326.93L5592.49 7373.5L5598.55 7499.5L5689.27 7553.11L5795.06 7508.05L5778.29 7380.88Z" fill="#D1C9C3"/>
<path d="M5462.77 3773.45L5404.87 3803.02L5390.69 3886.79L5427.14 3955.96L5552.59 3969.19L5619.41 3887.7L5591.01 3776.28L5462.77 3773.45Z" fill="#D1C9C3"/>
<path d="M2968.7 4883.55L2986.67 4821.06L2935.18 4753.48L2859.77 4732.84L2764.4 4815.41L2778.26 4919.88L2879.02 4975.26L2968.7 4883.55Z" fill="#D1C9C3"/>
<path d="M4148.13 2888.45L4211.24 2872.84L4244.11 2794.5L4224.36 2718.85L4105.22 2677.41L4021.61 2741.55L4023.9 2856.51L4148.13 2888.45Z" fill="#D1C9C3"/>
<path d="M1725.72 2104.44L1745.15 2042.39L1695.26 1973.63L1620.35 1951.23L1523.07 2031.55L1534.48 2136.31L1633.93 2194.03L1725.72 2104.44Z" fill="#D1C9C3"/>
<path d="M1693.55 1587.8L1727.16 1488.1L1646.28 1417.02L1552.93 1501.87L1551.97 1605.46L1624.22 1626L1693.55 1587.8Z" fill="#D1C9C3"/>
<path d="M3281.55 678.805L3315.16 579.096L3234.28 508.023L3140.93 592.869L3139.97 696.462L3212.22 717.001L3281.55 678.805Z" fill="#D1C9C3"/>
<path d="M5818.32 7675.45L5922.69 7662.17L5951.34 7558.38L5834.26 7511.42L5740.64 7555.78L5753.69 7629.74L5818.32 7675.45Z" fill="#D1C9C3"/>
<path d="M7872.16 12737.4L7940.98 12657.8L7892.97 12561.4L7774.47 12604.7L7734.42 12700.2L7793.54 12746.6L7872.16 12737.4Z" fill="#D1C9C3"/>
<path d="M9359.89 15493.6L9454.77 15448.2L9449.28 15340.6L9323.37 15332.9L9248.48 15404.5L9284.16 15470.6L9359.89 15493.6Z" fill="#D1C9C3"/>
<path d="M8952 9724L8851 9753.5L8839 9860.5L8962 9888.5L9047.5 9830L9023 9759L8952 9724Z" fill="#D1C9C3"/>
<path d="M10195.5 10979.4L10130.8 10973.6L10074.2 11037L10068.3 11115L10167.5 11192.9L10267.4 11159.4L10302.6 11049.9L10195.5 10979.4Z" fill="#D1C9C3"/>
<path d="M11144 11020L11043 11049.5L11031 11156.5L11154 11184.5L11239.5 11126L11215 11055L11144 11020Z" fill="#D1C9C3"/>
<path d="M10351.5 11409.1L10319.8 11267.6L10182.9 11217.8L10096.8 11283.1L10043.7 11402.6L10140.6 11504.7L10235.1 11513L10330 11456.3L10351.5 11409.1Z" fill="#D1C9C3"/>
<path d="M10183.2 10971.2L10319 11022.2L10435.6 10934.9L10428.1 10827.1L10357.2 10717.3L10218.8 10742.5L10160.1 10817L10155.5 10927.4L10183.2 10971.2Z" fill="#D1C9C3"/>
<path d="M11024.3 10878.9L11088.1 10891.5L11151 10834.4L11165 10757.5L11074.6 10669.5L10971.7 10692.3L10925.2 10797.5L11024.3 10878.9Z" fill="#D1C9C3"/>
<rect x="6760" y="9358" width="269" height="266" fill="#46A325"/>
<rect x="8606" y="10834" width="269" height="266" fill="#46A325"/>
<rect x="7501" y="12352" width="269" height="266" fill="#46A325"/>
<rect x="7168" y="12920" width="269" height="266" fill="#46A325"/>
<rect x="6345" y="13180" width="269" height="266" fill="#46A325"/>
<rect x="6120" y="14282" width="269" height="266" fill="#46A325"/>
<rect x="6849" y="15488" width="269" height="266" fill="#46A325"/>
<rect x="8639" y="14514" width="269" height="266" fill="#46A325"/>
<rect x="8874" y="12041" width="269" height="266" fill="#46A325"/>
<rect x="10797" y="11804" width="269" height="266" fill="#46A325"/>
<rect x="10529" y="9561" width="269" height="266" fill="#46A325"/>
<rect x="8835" y="7365" width="269" height="266" fill="#46A325"/>
<rect x="8038" y="7801" width="269" height="266" fill="#46A325"/>
<rect x="7710" y="7141" width="269" height="266" fill="#46A325"/>
<rect x="4694" y="5526" width="269" height="266" fill="#46A325"/>
<rect x="5247" y="4212" width="269" height="266" fill="#46A325"/>
<rect x="3571" y="4671" width="269" height="266" fill="#46A325"/>
<rect x="2555" y="4152" width="269" height="266" fill="#46A325"/>
<rect x="2287" y="2604" width="269" height="266" fill="#46A325"/>
<rect x="3571" y="1356" width="269" height="266" fill="#46A325"/>
<rect x="2511" y="179" width="269" height="266" fill="#46A325"/>
<rect x="9407" y="10773" width="356" height="356" fill="#46A325"/>
<rect x="7252" y="11878" width="356" height="356" fill="#46A325"/>
<rect x="6613" y="12646" width="356" height="356" fill="#46A325"/>
<rect x="5871" y="13617" width="356" height="356" fill="#46A325"/>
<rect x="7404" y="15351" width="356" height="356" fill="#46A325"/>
<rect x="7677" y="14160" width="356" height="356" fill="#46A325"/>
<rect x="9644" y="12321" width="356" height="356" fill="#46A325"/>
<rect x="10136" y="8917" width="356" height="356" fill="#46A325"/>
<rect x="7385" y="7843" width="356" height="356" fill="#46A325"/>
<rect x="5208" y="5342" width="356" height="356" fill="#46A325"/>
<rect x="3666" y="3299" width="356" height="356" fill="#46A325"/>
<rect x="4012" y="342" width="356" height="356" fill="#46A325"/>
<rect x="5149" y="6757" width="356" height="356" fill="#46A325"/>
<rect x="5698" y="8307" width="356" height="356" fill="#46A325"/>
<rect x="6120" y="8802" width="356" height="356" fill="#46A325"/>
<rect x="6479" y="6531" width="356" height="356" fill="#46A325"/>
<rect x="4106" y="1763" width="356" height="356" fill="#46A325"/>
<rect x="7413" y="5764" width="356" height="356" fill="#46A325"/>
<rect x="10356" y="12143" width="356" height="356" fill="#46A325"/>
<rect x="5832" y="7089" width="356" height="356" fill="#46A325"/>
<rect x="9069" y="12452" width="343" height="350" fill="#46A325"/>
<rect x="8141" y="14293" width="343" height="350" fill="#46A325"/>
<rect x="9170" y="15080" width="343" height="350" fill="#46A325"/>
<rect x="11109" y="11243" width="343" height="350" fill="#46A325"/>
<rect x="9831" y="10901" width="343" height="350" fill="#46A325"/>
<rect x="7867" y="10245" width="343" height="350" fill="#46A325"/>
<rect x="9884" y="9395" width="343" height="350" fill="#46A325"/>
<rect x="7526" y="9190" width="343" height="350" fill="#46A325"/>
<rect x="7964" y="9245" width="343" height="350" fill="#46A325"/>
<rect x="6845" y="7923" width="343" height="350" fill="#46A325"/>
<rect x="7616" y="7475" width="343" height="350" fill="#46A325"/>
<rect x="7663" y="6264" width="343" height="350" fill="#46A325"/>
<rect x="6453" y="6944" width="343" height="350" fill="#46A325"/>
<rect x="5778" y="6555" width="343" height="350" fill="#46A325"/>
<rect x="5504" y="5638" width="343" height="350" fill="#46A325"/>
<rect x="5043" y="4621" width="343" height="350" fill="#46A325"/>
<rect x="3144" y="4340" width="343" height="350" fill="#46A325"/>
<rect x="2303" y="3804" width="343" height="350" fill="#46A325"/>
<rect x="3185" y="3233" width="343" height="350" fill="#46A325"/>
<rect x="3890" y="2271" width="343" height="350" fill="#46A325"/>
<rect x="1785" y="2143" width="343" height="350" fill="#46A325"/>
<rect x="1695" y="750" width="343" height="350" fill="#46A325"/>
<rect x="3869" y="715" width="343" height="350" fill="#46A325"/>
<rect x="4767" y="3661" width="343" height="350" fill="#46A325"/>
<rect x="4295" y="3407" width="318.414" height="309.982" fill="#46A325"/>
<rect x="3809" y="2946" width="318.414" height="309.982" fill="#46A325"/>
<rect x="3242" y="4842" width="318.414" height="309.982" fill="#46A325"/>
<rect x="3862" y="4474" width="318.414" height="309.982" fill="#46A325"/>
<rect x="5619" y="7807" width="318.414" height="309.982" fill="#46A325"/>
<rect x="7179" y="8315" width="318.414" height="309.982" fill="#46A325"/>
<rect x="8289" y="7463" width="318.414" height="309.982" fill="#46A325"/>
<rect x="9691" y="8073" width="318.414" height="309.982" fill="#46A325"/>
<rect x="9122" y="7528" width="318.414" height="309.982" fill="#46A325"/>
<rect x="8135" y="10579" width="318.414" height="309.982" fill="#46A325"/>
<rect x="7658" y="11586" width="318.414" height="309.982" fill="#46A325"/>
<rect x="6222" y="14737" width="318.414" height="309.982" fill="#46A325"/>
<rect x="9189" y="14708" width="318.414" height="309.982" fill="#46A325"/>
<rect x="9567" y="15442" width="318.414" height="309.982" fill="#46A325"/>
<rect x="8122" y="15288" width="318.414" height="309.982" fill="#46A325"/>
<rect x="2908" y="6098" width="356" height="356" fill="#46A325"/>
<rect x="4389" y="6570" width="343" height="350" fill="#46A325"/>
<rect x="3315" y="6507" width="343" height="350" fill="#46A325"/>
<rect x="2924" y="5527" width="343" height="350" fill="#46A325"/>
<rect x="3786" y="6687" width="318.414" height="309.982" fill="#46A325"/>
<rect x="10454.7" y="10916.1" width="60" height="293" transform="rotate(-4.0801 10454.7 10916.1)" fill="#D9D9D9"/>
<rect x="10901.6" y="10884.2" width="60" height="293" transform="rotate(-4.0801 10901.6 10884.2)" fill="#D9D9D9"/>
<path d="M3851.66 3731.44L3373.61 3546.31L3299.38 3737.98L3773.82 3921.71L3777.43 3923.11L3851.66 3731.44Z" fill="#D1C9C3"/>
</g>
<defs>
<clipPath id="clip0_935_3477">
<rect width="13918" height="15768" fill="white"/>
</clipPath>
</defs>
</svg>
