<svg width="13918" height="15768" viewBox="0 0 13918 15768" fill="none" xmlns="http://www.w3.org/2000/svg">
<g clip-path="url(#clip0_935_3477)">
<path opacity="0.4" d="M8740.99 15768C8740.99 15696 8740.99 15736 8740.99 15637C8743.99 15452.2 8592.79 15070.4 7963.99 15022C7177.99 14961.5 6833.99 14767.5 6861.99 14263.5C6889.99 13759.5 7421.99 13516 7892.49 13671C8362.99 13826 8689.99 13776 8722.99 13266.5C8755.99 12757 7947.99 12436 8263.49 12004C8578.99 11572 8913.99 11559 9587.49 11781.5C10261 12004 10738.5 11576.5 10730 11261.5C10721.5 10946.5 10825.3 9943.68 8982.49 10273C8361.49 10384 8086.49 9383 8982.49 9351.52C9285.66 9282.68 9816.97 8972.48 9368.99 8390.5C8819 7676 8066 8888.5 7329 8888.5C6592 8888.5 6216.12 7902.92 6827.5 7643C7806 7227 7320.57 5731.2 6054 6258.5C5697 6407.13 4914.5 6258.5 4158 6258.5C3650.58 6258.5 3476 5438 4200 5335.5C4924 5233 4795.88 4206.18 4158 4183.5C2822 4136 2613 3252 3457 2709.5C4018.5 2348.58 3457 1898 3068 2086.5C2352.28 2433.32 1766.79 1637.98 2348.5 1099C2736.5 739.5 2920 1291 3393.5 922C3767.83 630.28 3364.5 378 3364.5 -0.5" stroke="#53656A" stroke-width="500"/>
<path opacity="0.01" d="M8740.99 15768C8740.99 15696 8740.99 15736 8740.99 15637C8743.99 15452.2 8592.79 15070.4 7963.99 15022C7177.99 14961.5 6833.99 14767.5 6861.99 14263.5C6889.99 13759.5 7421.99 13516 7892.49 13671C8362.99 13826 8689.99 13776 8722.99 13266.5C8755.99 12757 7947.99 12436 8263.49 12004C8578.99 11572 8913.99 11559 9587.49 11781.5C10261 12004 10738.5 11576.5 10730 11261.5C10721.5 10946.5 10825.3 9943.68 8982.49 10273C8361.49 10384 8086.49 9383 8982.49 9351.52C9285.66 9282.68 9816.97 8972.48 9368.99 8390.5C8819 7676 8066 8888.5 7329 8888.5C6592 8888.5 6216.12 7902.92 6827.5 7643C7806 7227 7320.57 5731.2 6054 6258.5C5697 6407.13 4914.5 6258.5 4158 6258.5C3650.58 6258.5 3476 5438 4200 5335.5C4924 5233 4795.88 4206.18 4158 4183.5C2822 4136 2613 3252 3457 2709.5C4018.5 2348.58 3457 1898 3068 2086.5C2352.28 2433.32 1766.79 1637.98 2348.5 1099C2736.5 739.5 2920 1291 3393.5 922C3767.83 630.28 3364.5 378 3364.5 -0.5" stroke="#FA5F3D" stroke-width="550"/>
<rect x="8712" y="15715" width="135" height="70" transform="rotate(-90 8712 15715)" fill="#BF3232"/>
<path d="M7779.08 14707C7685.41 14696.5 7470.38 14660.5 7359.58 14600.5C7221.08 14525.5 7110.08 14425 7157.58 14254.5C7205.08 14084 7305.58 13943.5 7469.08 13938C7632.58 13932.5 7908.58 13954 8054.58 14019" stroke="#592B21" stroke-width="35"/>
<path d="M7544.08 13318.5C7622.08 13323.3 7806.28 13339.9 7919.08 13367.5C8060.08 13402 8330.08 13516 8374.58 13429C8419.08 13342 8493.08 13223.5 8313.58 12999.5C8134.08 12775.5 8097.58 12749 7998.58 12582.5" stroke="#592B21" stroke-width="35"/>
<path d="M8913.58 12847C8849.58 12755.8 8708.78 12554.2 8657.58 12477C8593.58 12380.5 8414.58 12197.5 8615.58 12068.5C8816.58 11939.5 8946.58 11905.5 9171.58 11968.5C9396.58 12031.5 9574.58 12105.5 9709.58 12118.5" stroke="#592B21" stroke-width="35"/>
<path d="M9838.58 9905.47C9698.58 9912.8 9383.38 9932.27 9242.58 9951.47C9066.58 9975.47 8753.08 10046.5 8707.58 9873.97C8662.08 9701.47 8780.58 9682.97 8942.58 9669.47C9104.58 9655.97 9485.08 9486.97 9530.08 9423.97" stroke="#592B21" stroke-width="35"/>
<path d="M8619.08 9114.47C8772.58 9098.8 9098.88 9037.47 9176.08 8917.47C9272.58 8767.47 9227.08 8659.47 9091.58 8534.47C8956.08 8409.47 8736.08 8514.97 8619.08 8592.97C8502.08 8670.97 8116.08 8948.47 8018.58 8991.97" stroke="#592B21" stroke-width="35"/>
<path d="M4720.58 5976.97C4551.25 5982.3 4190.58 5982.57 4102.58 5940.97C3992.58 5888.97 3933.08 5709.47 4112.58 5665.47C4292.08 5621.47 4525.08 5602.97 4663.08 5469.47C4801.08 5335.97 4977.08 5058.97 4965.08 4984.47" stroke="#592B21" stroke-width="35"/>
<path d="M3501.08 5441.97C3553.25 5369.3 3688.38 5209.47 3811.58 5151.47C3965.58 5078.97 4221.58 5096.47 4309.58 4963.97C4397.58 4831.47 4458.58 4703.97 4345.08 4591.47C4231.58 4478.97 4026.08 4454.97 3852.08 4444.47" stroke="#592B21" stroke-width="35"/>
<path d="M2677 3156.5C2702.5 3084.33 2794.8 2905.5 2900 2805.5C3031.5 2680.5 3111.25 2581.37 3258.08 2494.97C3326 2455 3327.63 2409.5 3317 2381.5C3306.37 2353.5 3251.08 2334.5 3205.5 2352C3094.13 2394.76 2918 2456.5 2781.5 2466.5" stroke="#592B21" stroke-width="35"/>
<path d="M3844.08 1999.47C3773.92 1936.13 3607.88 1804.07 3505.08 1782.47C3376.58 1755.47 3131.58 1720.47 2961.58 1796.97C2791.58 1873.47 2733.08 1888.47 2577.08 1826.97C2421.08 1765.47 2392.58 1674.97 2405.58 1551.47C2418.58 1427.97 2492.58 1311.47 2607.08 1275.47C2721.58 1239.47 2881.08 1346.97 3034.58 1341.97C3188.08 1336.97 3403.58 1315.97 3485.58 1241.97" stroke="#592B21" stroke-width="35"/>
<rect x="5737" y="9561" width="269" height="266" fill="#46A325"/>
<rect x="6760" y="9358" width="269" height="266" fill="#46A325"/>
<rect x="6613" y="10091" width="269" height="266" fill="#46A325"/>
<rect x="8714" y="8686" width="269" height="266" fill="#46A325"/>
<rect x="7342" y="9826" width="269" height="266" fill="#46A325"/>
<rect x="8606" y="10834" width="269" height="266" fill="#46A325"/>
<rect x="7947" y="13025" width="269" height="266" fill="#46A325"/>
<rect x="7501" y="12352" width="269" height="266" fill="#46A325"/>
<rect x="7168" y="12920" width="269" height="266" fill="#46A325"/>
<rect x="6345" y="13180" width="269" height="266" fill="#46A325"/>
<rect x="6479" y="11508" width="269" height="266" fill="#46A325"/>
<rect x="6120" y="14282" width="269" height="266" fill="#46A325"/>
<rect x="6849" y="15488" width="269" height="266" fill="#46A325"/>
<rect x="8639" y="14514" width="269" height="266" fill="#46A325"/>
<rect x="9281" y="13000" width="269" height="266" fill="#46A325"/>
<rect x="9990" y="12724" width="269" height="266" fill="#46A325"/>
<rect x="8874" y="12041" width="269" height="266" fill="#46A325"/>
<rect x="9147" y="14282" width="269" height="266" fill="#46A325"/>
<rect x="9103" y="13575" width="269" height="266" fill="#46A325"/>
<rect x="10797" y="11804" width="269" height="266" fill="#46A325"/>
<rect x="11748" y="10569" width="269" height="266" fill="#46A325"/>
<rect x="10529" y="9561" width="269" height="266" fill="#46A325"/>
<rect x="10931" y="8469" width="269" height="266" fill="#46A325"/>
<rect x="9485" y="9508" width="269" height="266" fill="#46A325"/>
<rect x="9926" y="7578" width="269" height="266" fill="#46A325"/>
<rect x="10336" y="8300" width="269" height="266" fill="#46A325"/>
<rect x="8835" y="7365" width="269" height="266" fill="#46A325"/>
<rect x="8038" y="7801" width="269" height="266" fill="#46A325"/>
<rect x="7710" y="7141" width="269" height="266" fill="#46A325"/>
<rect x="8117" y="5741" width="269" height="266" fill="#46A325"/>
<rect x="6799" y="5127" width="269" height="266" fill="#46A325"/>
<rect x="5832" y="5309" width="269" height="266" fill="#46A325"/>
<rect x="4694" y="5526" width="269" height="266" fill="#46A325"/>
<rect x="5247" y="4212" width="269" height="266" fill="#46A325"/>
<rect x="3571" y="4671" width="269" height="266" fill="#46A325"/>
<rect x="2823" y="5013" width="269" height="266" fill="#46A325"/>
<rect x="4185" y="6987" width="269" height="266" fill="#46A325"/>
<rect x="2109" y="4621" width="269" height="266" fill="#46A325"/>
<rect x="2555" y="4152" width="269" height="266" fill="#46A325"/>
<rect x="2243" y="5970" width="269" height="266" fill="#46A325"/>
<rect x="2287" y="2604" width="269" height="266" fill="#46A325"/>
<rect x="1507" y="2604" width="269" height="266" fill="#46A325"/>
<rect x="3571" y="1356" width="269" height="266" fill="#46A325"/>
<rect x="2633" y="1387" width="269" height="266" fill="#46A325"/>
<rect x="2511" y="179" width="269" height="266" fill="#46A325"/>
<rect x="1200" y="1621" width="269" height="266" fill="#46A325"/>
<rect x="5113" y="1926" width="269" height="266" fill="#46A325"/>
<rect x="4828" y="281" width="269" height="266" fill="#46A325"/>
<rect x="9407" y="10773" width="347" height="327" fill="#46A325"/>
<rect x="7558" y="10936" width="347" height="327" fill="#46A325"/>
<rect x="7252" y="11878" width="347" height="327" fill="#46A325"/>
<rect x="5737" y="11552" width="347" height="327" fill="#46A325"/>
<rect x="6613" y="12646" width="347" height="327" fill="#46A325"/>
<rect x="5163" y="13374" width="347" height="327" fill="#46A325"/>
<rect x="5659" y="12644" width="347" height="327" fill="#46A325"/>
<rect x="5871" y="13617" width="347" height="327" fill="#46A325"/>
<rect x="5698" y="14929" width="347" height="327" fill="#46A325"/>
<rect x="7404" y="15351" width="347" height="327" fill="#46A325"/>
<rect x="6217" y="15255" width="347" height="327" fill="#46A325"/>
<rect x="7677" y="14160" width="347" height="327" fill="#46A325"/>
<rect x="9728" y="14265" width="347" height="327" fill="#46A325"/>
<rect x="9580" y="14999" width="347" height="327" fill="#46A325"/>
<rect x="9644" y="12321" width="347" height="327" fill="#46A325"/>
<rect x="9644" y="13396" width="347" height="327" fill="#46A325"/>
<rect x="11363" y="14351" width="347" height="327" fill="#46A325"/>
<rect x="11190" y="12920" width="347" height="327" fill="#46A325"/>
<rect x="10663" y="14846" width="347" height="327" fill="#46A325"/>
<rect x="5659" y="10701" width="347" height="327" fill="#46A325"/>
<rect x="13026" y="10936" width="347" height="327" fill="#46A325"/>
<rect x="11709" y="11389" width="347" height="327" fill="#46A325"/>
<rect x="11239" y="9928" width="347" height="327" fill="#46A325"/>
<rect x="11709" y="8779" width="347" height="327" fill="#46A325"/>
<rect x="10136" y="8917" width="347" height="327" fill="#46A325"/>
<rect x="11709" y="6848" width="347" height="327" fill="#46A325"/>
<rect x="9686" y="6898" width="347" height="327" fill="#46A325"/>
<rect x="10758" y="7680" width="347" height="327" fill="#46A325"/>
<rect x="7385" y="7843" width="347" height="327" fill="#46A325"/>
<rect x="8392" y="6961" width="347" height="327" fill="#46A325"/>
<rect x="7302" y="4477" width="347" height="327" fill="#46A325"/>
<rect x="8368" y="5503" width="347" height="327" fill="#46A325"/>
<rect x="10758" y="4560" width="347" height="327" fill="#46A325"/>
<rect x="9293" y="2736" width="347" height="327" fill="#46A325"/>
<rect x="12337" y="4047" width="347" height="327" fill="#46A325"/>
<rect x="9278" y="3625" width="347" height="327" fill="#46A325"/>
<rect x="12055" y="1926" width="347" height="327" fill="#46A325"/>
<rect x="9407" y="1356" width="347" height="327" fill="#46A325"/>
<rect x="6894" y="3462" width="347" height="327" fill="#46A325"/>
<rect x="6120" y="2410" width="347" height="327" fill="#46A325"/>
<rect x="6120" y="4417" width="347" height="327" fill="#46A325"/>
<rect x="5322" y="3220" width="347" height="327" fill="#46A325"/>
<rect x="5208" y="5342" width="347" height="327" fill="#46A325"/>
<rect x="4364" y="2834" width="347" height="327" fill="#46A325"/>
<rect x="5871" y="668" width="347" height="327" fill="#46A325"/>
<rect x="3666" y="3299" width="347" height="327" fill="#46A325"/>
<rect x="4012" y="342" width="347" height="327" fill="#46A325"/>
<rect x="8019" y="1356" width="347" height="327" fill="#46A325"/>
<rect x="4279" y="1128" width="347" height="327" fill="#46A325"/>
<rect x="10931" y="444" width="347" height="327" fill="#46A325"/>
<rect x="1228" y="281" width="347" height="327" fill="#46A325"/>
<rect x="532" y="2247" width="347" height="327" fill="#46A325"/>
<rect x="1763" y="3462" width="347" height="327" fill="#46A325"/>
<rect x="1055" y="5309" width="347" height="327" fill="#46A325"/>
<rect x="451" y="4047" width="347" height="327" fill="#46A325"/>
<rect x="2823" y="7415" width="347" height="327" fill="#46A325"/>
<rect x="2901" y="6090" width="347" height="327" fill="#46A325"/>
<rect x="5149" y="6757" width="347" height="327" fill="#46A325"/>
<rect x="5698" y="8307" width="347" height="327" fill="#46A325"/>
<rect x="1295" y="7718" width="347" height="327" fill="#46A325"/>
<rect x="5035" y="8984" width="347" height="327" fill="#46A325"/>
<rect x="6120" y="8802" width="347" height="327" fill="#46A325"/>
<rect x="6479" y="6531" width="347" height="327" fill="#46A325"/>
<rect x="4106" y="1763" width="347" height="327" fill="#46A325"/>
<rect x="7413" y="5764" width="347" height="327" fill="#46A325"/>
<rect x="10356" y="12143" width="347" height="327" fill="#46A325"/>
<rect x="5832" y="7089" width="347" height="327" fill="#46A325"/>
<rect x="4223" y="7824" width="347" height="327" fill="#46A325"/>
<rect x="2650" y="9623" width="347" height="327" fill="#46A325"/>
<rect x="4579" y="10610" width="347" height="327" fill="#46A325"/>
<rect x="3227" y="11773" width="347" height="327" fill="#46A325"/>
<rect x="2064" y="11226" width="347" height="327" fill="#46A325"/>
<rect x="1961" y="13659" width="347" height="327" fill="#46A325"/>
<rect x="3169" y="15162" width="347" height="327" fill="#46A325"/>
<rect x="1961" y="15092" width="347" height="327" fill="#46A325"/>
<rect x="882" y="14351" width="347" height="327" fill="#46A325"/>
<rect x="791" y="9508" width="347" height="327" fill="#46A325"/>
</g>
<defs>
<clipPath id="clip0_935_3477">
<rect width="13918" height="15768" fill="white"/>
</clipPath>
</defs>
</svg>
