<svg width="20000" height="20000" viewBox="0 0 20000 20000" fill="none" xmlns="http://www.w3.org/2000/svg">
<g clip-path="url(#clip0_1798_2213)">
<path opacity="0.4" d="M1858.45 442.553L2009.45 444.987C2290.46 449.518 2479.3 734.801 2373.69 995.246L2264.67 1264.11C2239.94 1325.09 2200.54 1379.03 2149.98 1421.15L2108 1456.12C1847.45 1673.13 1452 1487.85 1452 1148.77L1452 842.501C1452 619.064 1635.04 438.951 1858.45 442.553Z" fill="#D9A692"/>
<path opacity="0.4" d="M1778.75 3608.49L2091.46 3263.58C2235.89 3104.28 2480.42 3087.66 2645.07 3225.96L2665.71 3243.3C2690.15 3263.83 2712.04 3287.2 2730.92 3312.93L3052.32 3750.88C3189.55 3937.87 3139.47 4202.01 2943.32 4325.8L2701.85 4478.2C2571.02 4560.77 2404.3 4560.49 2273.75 4477.48L1860.47 4214.7C1651.2 4081.65 1612.18 3792.2 1778.75 3608.49Z" fill="#D9A692"/>
<path opacity="0.4" d="M3520.58 2542.87L3702.88 2285.62C3737.51 2236.75 3782.67 2196.28 3835.03 2167.2L4049.14 2048.29C4109 2015.05 4176.38 1997.72 4244.85 1997.98L4775.69 1999.97C5027.99 2000.92 5216.41 2232.36 5166.18 2479.61L5126.69 2673.97C5102.47 2793.19 5025.31 2894.91 4917.03 2950.36L4303.29 3264.68C4190.94 3322.22 4058.02 3323.35 3944.7 3267.72L3670.68 3133.21C3449.52 3024.65 3378.13 2743.88 3520.58 2542.87Z" fill="#D9A692"/>
<path opacity="0.4" d="M6461.95 105.436L6750.61 232.263C6805.45 256.355 6854.17 292.454 6893.19 337.895L7052.74 523.71C7097.34 575.656 7127.86 638.181 7141.38 705.299L7246.21 1225.69C7296.04 1473.02 7107.23 1704.15 6854.93 1704.68L6656.59 1705.09C6534.94 1705.34 6419.78 1650.22 6343.68 1555.31L5912.34 1017.34C5833.37 918.86 5805.53 788.88 5837.22 666.692L5913.86 371.218C5975.72 132.738 6236.39 6.33343 6461.95 105.436Z" fill="#D9A692"/>
<path opacity="0.4" d="M4236.01 5950.39L4442.89 6077.73C4493.53 6108.9 4536.58 6150.97 4568.91 6200.87L4683.04 6377.01C4720.14 6434.27 4741.98 6500.08 4746.47 6568.17L4774.93 6999.53C4791.62 7252.45 4571.86 7456.92 4320.79 7422.06L4199.03 7405.16C4079.32 7388.54 3973.55 7318.68 3911.26 7215.11L3600.95 6699.15C3535.89 6590.97 3525.71 6458.43 3573.5 6341.58L3656.1 6139.62C3749.56 5911.07 4025.73 5820.96 4236.01 5950.39Z" fill="#D9A692"/>
<path opacity="0.4" d="M4117.68 4204.47L4210.59 4036.34C4301.33 3872.14 4493.99 3793.06 4673.92 3846.16L5128.98 3980.46C5232.52 4011.02 5319.3 4082.13 5369.63 4177.63L5531.67 4485.11C5625.77 4663.69 5572.08 4884.39 5406.46 4999.78L5181.94 5156.22C5096.33 5215.87 4990.81 5239.71 4887.87 5222.65L4558.33 5168.04C4422.16 5145.47 4307.25 5054.3 4254.31 4926.83L4098.38 4551.35C4051.64 4438.82 4058.75 4311.12 4117.68 4204.47Z" fill="#D9A692"/>
<path opacity="0.4" d="M2671.75 6060.9L2863.24 6076.2C3050.24 6091.14 3201.74 6234.04 3227.57 6419.86L3292.89 6889.81C3307.75 6996.73 3278.77 7105.12 3212.52 7190.35L2999.23 7464.78C2875.36 7624.15 2652.15 7666.26 2478.73 7562.97L2243.62 7422.95C2153.97 7369.56 2088.74 7283.26 2061.83 7182.45L1975.67 6859.71C1940.07 6726.36 1975.74 6584.07 2070.03 6483.28L2347.79 6186.37C2431.03 6097.39 2550.29 6051.2 2671.75 6060.9Z" fill="#D9A692"/>
<path opacity="0.4" d="M818.398 4336.86L1363.95 4303.25C1610.75 4288.04 1800.91 4517.48 1740.17 4757.17C1702.78 4904.72 1760.89 5059.98 1885.96 5146.72L2158.2 5335.52C2408.67 5509.23 2374.06 5889.71 2096.37 6015.38C2007.34 6055.67 1906.48 6061.28 1813.53 6031.13L719.564 5676.22C554.668 5622.72 443 5469.1 443 5295.74L443 4736.1C443 4524.74 607.438 4349.86 818.398 4336.86Z" fill="#D9A692"/>
<path opacity="0.4" d="M7067.82 6031.99L6680.24 6186.96C6600.62 6218.8 6512.87 6224.21 6429.94 6202.39L5917.89 6067.65C5798.77 6036.31 5700.73 5951.83 5652.13 5838.65L5597.48 5711.4C5477.46 5431.89 5700.98 5126.01 6003.74 5155.45L6141.91 5168.89C6308.31 5185.07 6466.35 5092.81 6534.09 4939.97C6637.18 4707.31 6932.61 4635.28 7131.22 4794.38L7250.99 4890.33C7365.26 4981.87 7420.39 5128.52 7394.71 5272.67L7313.11 5730.73C7288.87 5866.78 7196.13 5980.68 7067.82 6031.99Z" fill="#D9A692"/>
<path opacity="0.4" d="M4678.86 8975.9L4306.55 9024.48C4143 9045.82 3983.12 8964.58 3903.92 8819.9L3717.65 8479.59C3658.51 8371.54 3652.44 8242.27 3701.21 8129.16L3818.29 7857.62C3922.15 7616.73 4225.87 7539.34 4432.34 7701.16L4825.58 8009.35C4868.96 8043.35 4918.91 8068.02 4972.27 8081.8L5380.28 8187.21C5614.35 8247.68 5724.28 8516.4 5599.7 8723.58C5542.31 8819.04 5444.12 8882.71 5333.55 8896.17L4678.86 8975.9Z" fill="#D9A692"/>
<path opacity="0.4" d="M481.902 9306.03L405.844 9196.62C298.494 9042.19 313.225 8833.84 441.234 8696.05L683.505 8435.27C743.753 8370.42 823.81 8327.39 911.135 8312.91L1006.8 8297.05C1317.27 8245.58 1562.83 8556.24 1441.06 8846.44L1399.03 8946.61C1374.6 9004.83 1364.3 9068.01 1368.97 9130.97L1386.65 9369.42C1402.46 9582.55 1240.42 9767.23 1027.04 9779.25C892.819 9786.82 764.494 9723.3 689.11 9611.99L481.902 9306.03Z" fill="#D9A692"/>
<path opacity="0.4" d="M8654.27 9297.87L8178.32 9744.78C8116.81 9802.54 8038.62 9839.36 7954.92 9850L7432.22 9916.4C7279.08 9935.85 7128.42 9865.45 7045.09 9735.51L6883.93 9484.18C6741.52 9262.1 6849.33 8965.4 7101.08 8886.54L7531.7 8751.66C7670.1 8708.31 7774.2 8593.44 7803.75 8451.46L7860.95 8176.61C7912.03 7931.24 8173.58 7792.74 8405.24 7888.4L8537.44 7943C8687.96 8005.15 8785.77 8152.35 8784.76 8315.2L8780.46 9008.75C8779.78 9118.34 8734.16 9222.85 8654.27 9297.87Z" fill="#D9A692"/>
<path opacity="0.4" d="M2934.43 4989.61L3165.12 4627.21C3220.38 4540.4 3313.73 4485.14 3416.42 4478.45C3605.06 4466.15 3763.84 4617.89 3760.12 4806.89L3750.74 5283.01C3747.1 5467.6 3617.6 5625.72 3437.35 5665.66L3391.62 5675.79C3201.71 5717.87 3009.05 5617.23 2935.12 5437.31L2901.89 5356.45C2852.45 5236.15 2864.59 5099.33 2934.43 4989.61Z" fill="#D9A692"/>
<path opacity="0.4" d="M2460.97 1654.75L2799.45 1016.52C2863.76 895.255 2985.75 815.435 3122.62 805.069L3222.82 797.479C3367.54 786.517 3506.84 854.801 3586.82 975.904L3718.42 1175.19C3814.25 1320.29 3805.36 1510.67 3696.42 1646.2L3479.14 1916.56C3430.28 1977.34 3364.73 2022.52 3290.54 2046.53L2896.68 2174.02C2694.48 2239.47 2479.27 2119.38 2428.81 1912.93C2407.52 1825.84 2418.96 1733.96 2460.97 1654.75Z" fill="#D9A692"/>
<path opacity="0.4" d="M584.666 2897.8L310.103 2422.29C241.836 2304.06 238.957 2159.08 302.476 2038.24C369.638 1910.46 500.741 1829.08 645.052 1825.6L743.357 1823.23C917.19 1819.04 1073.82 1927.63 1130.87 2091.89L1198.61 2286.96C1224.2 2360.63 1227.69 2440.16 1208.66 2515.78L1131.75 2821.49C1089.49 2989.44 913.466 3086.12 749.061 3031.68C679.703 3008.71 621.2 2961.07 584.666 2897.8Z" fill="#D9A692"/>
<path opacity="0.4" d="M5895.8 3389.56L5835.52 3081.05C5810.71 2954.07 5848.85 2822.93 5937.89 2729.06L6161.81 2493.01C6234.21 2416.69 6333.75 2371.96 6438.88 2368.51L6748.92 2358.32C7000.83 2350.04 7197.53 2574 7156.8 2822.74L7133.71 2963.75C7124.56 3019.62 7103.65 3072.92 7072.37 3120.11L6794.9 3538.71C6718.6 3653.83 6588.31 3721.44 6450.26 3717.56L6277.14 3712.7C6090.09 3707.44 5931.68 3573.21 5895.8 3389.56Z" fill="#D9A692"/>
<path opacity="0.4" d="M7456.55 4120.95L7529.26 4037C7685.75 3856.3 7964.74 3852.3 8126.35 4028.42L8138.18 4041.31C8330.94 4251.38 8248.31 4589.92 7980.44 4687.56L7873.74 4726.45C7738.62 4775.71 7587.26 4744.42 7482.75 4645.62C7334.98 4505.93 7323.44 4274.66 7456.55 4120.95Z" fill="#D9A692"/>
<path opacity="0.4" d="M5735.81 2109.48L5682.39 2084.84C5529.75 2014.44 5487.24 1817.33 5597.28 1690.27C5703.19 1567.98 5895.17 1575.44 5991.27 1705.59L6026.21 1752.91C6066.5 1807.47 6081.53 1876.67 6067.5 1943.02C6035.98 2092.1 5874.17 2173.31 5735.81 2109.48Z" fill="#D9A692"/>
<path opacity="0.4" d="M2555.55 2616.68L2579 2559.55C2645.98 2396.31 2850.78 2342.87 2988.99 2452.57C3122 2558.15 3122.8 2759.83 2990.62 2866.46L2942.56 2905.23C2887.14 2949.94 2815.25 2968.8 2745.03 2957.07C2587.26 2930.71 2494.83 2764.66 2555.55 2616.68Z" fill="#D9A692"/>
<path opacity="0.4" d="M8521.41 1892.31L9086.27 2487.97C9232.14 2641.8 9232.67 2882.71 9087.48 3037.17L8588.37 3568.15C8489.51 3673.32 8341.65 3717.08 8201.48 3682.64L7832.16 3591.9C7610.9 3537.54 7479.66 3309.61 7543.74 3090.97L7847.31 2055.06C7934.06 1759.01 8309.13 1668.45 8521.41 1892.31Z" fill="#D9A692"/>
<path opacity="0.4" d="M9403.62 2203.01L9282.03 2050.94C9122.19 1851.03 9243.97 1553.29 9498.1 1522.71C9646.63 1504.83 9788.32 1590.16 9841.99 1729.8L9911.84 1911.54C9944.86 1997.45 9936.1 2093.83 9888.13 2172.39C9780.96 2347.87 9532.03 2363.61 9403.62 2203.01Z" fill="#D9A692"/>
<path opacity="0.4" d="M9949.53 3391.67L9916.99 3311.11C9845.79 3134.83 9610.09 3102.46 9494 3253.01C9425.29 3342.12 9425.78 3466.49 9495.2 3555.05L9548.8 3623.44C9649.3 3751.64 9846.82 3740.33 9932.02 3601.49C9970.8 3538.29 9977.3 3460.43 9949.53 3391.67Z" fill="#D9A692"/>
<path opacity="0.4" d="M7778.28 1060.65L8301.91 397.537C8408.67 262.333 8590.01 210.673 8751.99 269.314L9459.74 525.527C9643.75 592.14 9752.54 782.107 9716.89 974.526L9712.65 997.399C9667.18 1242.77 9410.6 1387.06 9177.31 1298.45L8916.38 1199.34C8782.14 1148.35 8630.87 1173.23 8520.03 1264.53L8230.17 1503.3C8108.09 1603.86 7930.67 1599.45 7813.74 1492.95C7690.27 1380.5 7674.79 1191.71 7778.28 1060.65Z" fill="#D9A692"/>
<path opacity="0.4" d="M7532.7 7806.22L7008.44 8437.92C6873.06 8601.04 6633.92 8630.22 6463.28 8504.43L5876.71 8072.02C5760.53 7986.37 5699.5 7844.76 5717.02 7701.49L5763.19 7324C5790.85 7097.84 6001.55 6940.43 6226.27 6978.05L7290.93 7156.25C7595.2 7207.18 7729.72 7568.82 7532.7 7806.22Z" fill="#D9A692"/>
<path opacity="0.4" d="M9427.53 5190.24L9041.25 5152.61C8857.75 5134.74 8710.23 4993.75 8684.08 4811.25L8618.21 4351.68C8594.59 4186.89 8675.5 4024.71 8821.34 3944.47L8916.31 3892.22C9099.89 3791.21 9330.3 3848.99 9444.5 4024.66L9801.68 4574.12C9984.36 4855.14 9761.13 5222.74 9427.53 5190.24Z" fill="#D9A692"/>
<path opacity="0.4" d="M8536.88 7682.18L8100.83 6830.38C8016.81 6666.27 8055.86 6465.99 8195.36 6345.44L8630.46 5969.49C8756.42 5860.66 8936.62 5841.21 9082.9 5920.66L9418.85 6103.13C9518 6156.98 9589.8 6250.21 9616.54 6359.83L9797.86 7103.1C9839.77 7274.92 9763.87 7453.88 9611.21 7543.17L9094.89 7845.18C8896.59 7961.17 8641.56 7886.67 8536.88 7682.18Z" fill="#D9A692"/>
<path opacity="0.4" d="M7043.85 6410.81L7105.92 6313.29C7181.12 6195.11 7327.36 6143.64 7460.01 6188.67L7473.22 6193.16C7585.03 6231.12 7661.65 6334.36 7665.59 6452.37C7668.26 6532.36 7637.02 6609.76 7579.57 6665.49L7477.71 6764.3C7388.29 6851.03 7252.53 6868.75 7143.85 6807.87C7002.68 6728.79 6956.98 6547.32 7043.85 6410.81Z" fill="#D9A692"/>
<path opacity="0.4" d="M5462.68 6019.47L5673.36 6149C5793.62 6222.93 5866 6354.79 5863.81 6495.94L5861.7 6632.38C5859.33 6784.88 5740.15 6909.94 5587.94 6919.63C5508.78 6924.67 5430.97 6897.33 5372.36 6843.88L5057.92 6557.13C4970.55 6477.45 4931.17 6357.92 4954.08 6241.91C4999.72 6010.75 5261.96 5896.06 5462.68 6019.47Z" fill="#D9A692"/>
<path opacity="0.4" d="M7798.47 5135.23L7924 5009.19C8106.4 4826.04 8412.01 4861.38 8547.79 5081.33L8558.48 5098.64C8617.81 5194.74 8633.74 5311.44 8602.36 5419.93L8532.58 5661.09C8503.11 5762.96 8434.39 5848.96 8341.53 5900.17L8332.46 5905.18C8124 6020.16 7861.86 5928.72 7770.14 5709.02L7712.77 5571.59C7650.4 5422.2 7684.23 5249.94 7798.47 5135.23Z" fill="#D9A692"/>
<path opacity="0.4" d="M4539.55 1204.67L4563 1147.54C4629.98 984.299 4834.78 930.859 4972.99 1040.56C5106 1146.14 5106.8 1347.82 4974.62 1454.45L4926.56 1493.22C4871.14 1537.93 4799.25 1556.79 4729.03 1545.06C4571.26 1518.7 4478.83 1352.65 4539.55 1204.67Z" fill="#D9A692"/>
<path opacity="0.4" d="M6685.67 4422.37L6559.62 4457.11C6386.18 4504.91 6213.16 4379.54 6204.56 4199.84C6200.72 4119.71 6231.34 4041.76 6288.69 3985.67L6314.01 3960.91C6416.05 3861.12 6570.68 3838.25 6697.23 3904.23L6738.44 3925.71C6844.72 3981.12 6901.37 4100.29 6877.24 4217.7C6856.93 4316.5 6782.92 4395.58 6685.67 4422.37Z" fill="#D9A692"/>
<path opacity="0.4" d="M3000.19 9773.07L2826.75 9737.23C2588.11 9687.92 2456.76 9430.06 2557.19 9208.04C2601.97 9109.03 2686.96 9033.91 2790.72 9001.63L2868.99 8977.27C3034.2 8925.87 3213.74 8986.52 3313.94 9127.59L3370.08 9206.63C3464.08 9338.99 3458.92 9517.64 3357.42 9644.35C3272 9750.99 3134 9800.71 3000.19 9773.07Z" fill="#D9A692"/>
<path opacity="0.4" d="M2425.78 8772.93L2199.43 8796.41C1969.5 8820.27 1773.26 8631.8 1787.8 8401.09C1806.94 8097.72 2160.92 7942.83 2396.73 8134.65L2573.26 8278.25C2633.08 8326.9 2670.13 8398.12 2675.64 8475.02C2686.43 8625.49 2575.83 8757.36 2425.78 8772.93Z" fill="#D9A692"/>
<path opacity="0.4" d="M4464.69 79.0854L4593.33 138.172C4897.65 277.954 4905.74 707.471 4606.89 858.609L4533.13 895.912C4468.74 928.477 4396.74 943.017 4324.76 937.993L4206.73 929.754C3894.51 907.96 3727.15 552.219 3909.41 297.788L3972.55 209.638C4084.15 53.8534 4290.55 -0.90027 4464.69 79.0854Z" fill="#D9A692"/>
<path opacity="0.4" d="M652.318 1082.18L576.597 1047.25C360.23 947.445 299.967 668.046 455.958 487.928C606.088 314.576 878.229 325.156 1014.45 509.64L1063.98 576.724C1121.09 654.07 1142.39 752.151 1122.5 846.217C1077.82 1057.54 848.453 1172.65 652.318 1082.18Z" fill="#D9A692"/>
<path opacity="0.4" d="M722.315 7034.77L548.877 6998.93C310.238 6949.62 178.884 6691.76 279.311 6469.74C324.094 6370.73 409.087 6295.61 512.844 6263.33L591.112 6238.97C756.329 6187.57 935.867 6248.22 1036.06 6389.29L1092.2 6468.33C1186.21 6600.69 1181.04 6779.34 1079.55 6906.05C994.126 7012.69 856.12 7062.41 722.315 7034.77Z" fill="#D9A692"/>
<path opacity="0.4" d="M5973.32 9773.77L5799.88 9737.93C5561.24 9688.62 5429.88 9430.76 5530.31 9208.74C5575.09 9109.73 5660.09 9034.61 5763.84 9002.33L5842.11 8977.97C6007.33 8926.57 6186.87 8987.22 6287.06 9128.29L6343.2 9207.33C6437.21 9339.69 6432.04 9518.34 6330.55 9645.05C6245.13 9751.69 6107.12 9801.41 5973.32 9773.77Z" fill="#D9A692"/>
<path opacity="0.4" d="M9261.21 9135.71L9258.3 9022.82C9254.31 8867.49 9395.37 8748.52 9547.8 8778.67C9615.77 8792.12 9674.74 8834 9709.84 8893.74L9725.33 8920.12C9787.76 9026.4 9774.78 9160.78 9693.16 9253.15L9666.58 9283.22C9598.03 9360.79 9486.35 9383.5 9392.95 9338.86C9314.35 9301.28 9263.45 9222.8 9261.21 9135.71Z" fill="#D9A692"/>
<path opacity="0.4" d="M11858.4 442.553L12009.5 444.987C12290.5 449.518 12479.3 734.801 12373.7 995.246L12264.7 1264.11C12239.9 1325.09 12200.5 1379.03 12150 1421.15L12108 1456.12C11847.4 1673.13 11452 1487.85 11452 1148.77L11452 842.501C11452 619.064 11635 438.951 11858.4 442.553Z" fill="#D9A692"/>
<path opacity="0.4" d="M11778.7 3608.49L12091.5 3263.58C12235.9 3104.28 12480.4 3087.66 12645.1 3225.96L12665.7 3243.3C12690.1 3263.83 12712 3287.2 12730.9 3312.93L13052.3 3750.88C13189.5 3937.87 13139.5 4202.01 12943.3 4325.8L12701.9 4478.2C12571 4560.77 12404.3 4560.49 12273.7 4477.48L11860.5 4214.7C11651.2 4081.65 11612.2 3792.2 11778.7 3608.49Z" fill="#D9A692"/>
<path opacity="0.4" d="M13520.6 2542.87L13702.9 2285.62C13737.5 2236.75 13782.7 2196.28 13835 2167.2L14049.1 2048.29C14109 2015.05 14176.4 1997.72 14244.9 1997.98L14775.7 1999.97C15028 2000.92 15216.4 2232.36 15166.2 2479.61L15126.7 2673.97C15102.5 2793.19 15025.3 2894.91 14917 2950.36L14303.3 3264.68C14190.9 3322.22 14058 3323.35 13944.7 3267.72L13670.7 3133.21C13449.5 3024.65 13378.1 2743.88 13520.6 2542.87Z" fill="#D9A692"/>
<path opacity="0.4" d="M16461.9 105.436L16750.6 232.263C16805.4 256.355 16854.2 292.454 16893.2 337.895L17052.7 523.71C17097.3 575.656 17127.9 638.181 17141.4 705.299L17246.2 1225.69C17296 1473.02 17107.2 1704.15 16854.9 1704.68L16656.6 1705.09C16534.9 1705.34 16419.8 1650.22 16343.7 1555.31L15912.3 1017.34C15833.4 918.86 15805.5 788.88 15837.2 666.692L15913.9 371.218C15975.7 132.738 16236.4 6.33343 16461.9 105.436Z" fill="#D9A692"/>
<path opacity="0.4" d="M14236 5950.39L14442.9 6077.73C14493.5 6108.9 14536.6 6150.97 14568.9 6200.87L14683 6377.01C14720.1 6434.27 14742 6500.08 14746.5 6568.17L14774.9 6999.53C14791.6 7252.45 14571.9 7456.92 14320.8 7422.06L14199 7405.16C14079.3 7388.54 13973.5 7318.68 13911.3 7215.11L13601 6699.15C13535.9 6590.97 13525.7 6458.43 13573.5 6341.58L13656.1 6139.62C13749.6 5911.07 14025.7 5820.96 14236 5950.39Z" fill="#D9A692"/>
<path opacity="0.4" d="M14117.7 4204.47L14210.6 4036.34C14301.3 3872.14 14494 3793.06 14673.9 3846.16L15129 3980.46C15232.5 4011.02 15319.3 4082.13 15369.6 4177.63L15531.7 4485.11C15625.8 4663.69 15572.1 4884.39 15406.5 4999.78L15181.9 5156.22C15096.3 5215.87 14990.8 5239.71 14887.9 5222.65L14558.3 5168.04C14422.2 5145.47 14307.3 5054.3 14254.3 4926.83L14098.4 4551.35C14051.6 4438.82 14058.8 4311.12 14117.7 4204.47Z" fill="#D9A692"/>
<path opacity="0.4" d="M12671.7 6060.9L12863.2 6076.2C13050.2 6091.14 13201.7 6234.04 13227.6 6419.86L13292.9 6889.81C13307.8 6996.73 13278.8 7105.12 13212.5 7190.35L12999.2 7464.78C12875.4 7624.15 12652.2 7666.26 12478.7 7562.97L12243.6 7422.95C12154 7369.56 12088.7 7283.26 12061.8 7182.45L11975.7 6859.71C11940.1 6726.36 11975.7 6584.07 12070 6483.28L12347.8 6186.37C12431 6097.39 12550.3 6051.2 12671.7 6060.9Z" fill="#D9A692"/>
<path opacity="0.4" d="M10818.4 4336.86L11364 4303.25C11610.7 4288.04 11800.9 4517.48 11740.2 4757.17C11702.8 4904.72 11760.9 5059.98 11886 5146.72L12158.2 5335.52C12408.7 5509.23 12374.1 5889.71 12096.4 6015.38C12007.3 6055.67 11906.5 6061.28 11813.5 6031.13L10719.6 5676.22C10554.7 5622.72 10443 5469.1 10443 5295.74L10443 4736.1C10443 4524.74 10607.4 4349.86 10818.4 4336.86Z" fill="#D9A692"/>
<path opacity="0.4" d="M17067.8 6031.99L16680.2 6186.96C16600.6 6218.8 16512.9 6224.21 16429.9 6202.39L15917.9 6067.65C15798.8 6036.31 15700.7 5951.83 15652.1 5838.65L15597.5 5711.4C15477.5 5431.89 15701 5126.01 16003.7 5155.45L16141.9 5168.89C16308.3 5185.07 16466.4 5092.81 16534.1 4939.97C16637.2 4707.31 16932.6 4635.28 17131.2 4794.38L17251 4890.33C17365.3 4981.87 17420.4 5128.52 17394.7 5272.67L17313.1 5730.73C17288.9 5866.78 17196.1 5980.68 17067.8 6031.99Z" fill="#D9A692"/>
<path opacity="0.4" d="M14678.9 8975.9L14306.6 9024.48C14143 9045.82 13983.1 8964.58 13903.9 8819.9L13717.6 8479.59C13658.5 8371.54 13652.4 8242.27 13701.2 8129.16L13818.3 7857.62C13922.1 7616.73 14225.9 7539.34 14432.3 7701.16L14825.6 8009.35C14869 8043.35 14918.9 8068.02 14972.3 8081.8L15380.3 8187.21C15614.4 8247.68 15724.3 8516.4 15599.7 8723.58C15542.3 8819.04 15444.1 8882.71 15333.6 8896.17L14678.9 8975.9Z" fill="#D9A692"/>
<path opacity="0.4" d="M10481.9 9306.03L10405.8 9196.62C10298.5 9042.19 10313.2 8833.84 10441.2 8696.05L10683.5 8435.27C10743.8 8370.42 10823.8 8327.39 10911.1 8312.91L11006.8 8297.05C11317.3 8245.58 11562.8 8556.24 11441.1 8846.44L11399 8946.61C11374.6 9004.83 11364.3 9068.01 11369 9130.97L11386.7 9369.42C11402.5 9582.55 11240.4 9767.23 11027 9779.25C10892.8 9786.82 10764.5 9723.3 10689.1 9611.99L10481.9 9306.03Z" fill="#D9A692"/>
<path opacity="0.4" d="M18654.3 9297.87L18178.3 9744.78C18116.8 9802.54 18038.6 9839.36 17954.9 9850L17432.2 9916.4C17279.1 9935.85 17128.4 9865.45 17045.1 9735.51L16883.9 9484.18C16741.5 9262.1 16849.3 8965.4 17101.1 8886.54L17531.7 8751.66C17670.1 8708.31 17774.2 8593.44 17803.7 8451.46L17861 8176.61C17912 7931.24 18173.6 7792.74 18405.2 7888.4L18537.4 7943C18688 8005.15 18785.8 8152.35 18784.8 8315.2L18780.5 9008.75C18779.8 9118.34 18734.2 9222.85 18654.3 9297.87Z" fill="#D9A692"/>
<path opacity="0.4" d="M12934.4 4989.61L13165.1 4627.21C13220.4 4540.4 13313.7 4485.14 13416.4 4478.45C13605.1 4466.15 13763.8 4617.89 13760.1 4806.89L13750.7 5283.01C13747.1 5467.6 13617.6 5625.72 13437.3 5665.66L13391.6 5675.79C13201.7 5717.87 13009.1 5617.23 12935.1 5437.31L12901.9 5356.45C12852.5 5236.15 12864.6 5099.33 12934.4 4989.61Z" fill="#D9A692"/>
<path opacity="0.4" d="M12461 1654.75L12799.5 1016.52C12863.8 895.255 12985.8 815.435 13122.6 805.069L13222.8 797.479C13367.5 786.517 13506.8 854.801 13586.8 975.904L13718.4 1175.19C13814.2 1320.29 13805.4 1510.67 13696.4 1646.2L13479.1 1916.56C13430.3 1977.34 13364.7 2022.52 13290.5 2046.53L12896.7 2174.02C12694.5 2239.47 12479.3 2119.38 12428.8 1912.93C12407.5 1825.84 12419 1733.96 12461 1654.75Z" fill="#D9A692"/>
<path opacity="0.4" d="M10584.7 2897.8L10310.1 2422.29C10241.8 2304.06 10239 2159.08 10302.5 2038.24C10369.6 1910.46 10500.7 1829.08 10645.1 1825.6L10743.4 1823.23C10917.2 1819.04 11073.8 1927.63 11130.9 2091.89L11198.6 2286.96C11224.2 2360.63 11227.7 2440.16 11208.7 2515.78L11131.8 2821.49C11089.5 2989.44 10913.5 3086.12 10749.1 3031.68C10679.7 3008.71 10621.2 2961.07 10584.7 2897.8Z" fill="#D9A692"/>
<path opacity="0.4" d="M15895.8 3389.56L15835.5 3081.05C15810.7 2954.07 15848.8 2822.93 15937.9 2729.06L16161.8 2493.01C16234.2 2416.69 16333.7 2371.96 16438.9 2368.51L16748.9 2358.32C17000.8 2350.04 17197.5 2574 17156.8 2822.74L17133.7 2963.75C17124.6 3019.62 17103.7 3072.92 17072.4 3120.11L16794.9 3538.71C16718.6 3653.83 16588.3 3721.44 16450.3 3717.56L16277.1 3712.7C16090.1 3707.44 15931.7 3573.21 15895.8 3389.56Z" fill="#D9A692"/>
<path opacity="0.4" d="M17456.6 4120.95L17529.3 4037C17685.7 3856.3 17964.7 3852.3 18126.4 4028.42L18138.2 4041.31C18330.9 4251.38 18248.3 4589.92 17980.4 4687.56L17873.7 4726.45C17738.6 4775.71 17587.3 4744.42 17482.7 4645.62C17335 4505.93 17323.4 4274.66 17456.6 4120.95Z" fill="#D9A692"/>
<path opacity="0.4" d="M15735.8 2109.48L15682.4 2084.84C15529.8 2014.44 15487.2 1817.33 15597.3 1690.27C15703.2 1567.98 15895.2 1575.44 15991.3 1705.59L16026.2 1752.91C16066.5 1807.47 16081.5 1876.67 16067.5 1943.02C16036 2092.1 15874.2 2173.31 15735.8 2109.48Z" fill="#D9A692"/>
<path opacity="0.4" d="M12555.6 2616.68L12579 2559.55C12646 2396.31 12850.8 2342.87 12989 2452.57C13122 2558.15 13122.8 2759.83 12990.6 2866.46L12942.6 2905.23C12887.1 2949.94 12815.3 2968.8 12745 2957.07C12587.3 2930.71 12494.8 2764.66 12555.6 2616.68Z" fill="#D9A692"/>
<path opacity="0.4" d="M18521.4 1892.31L19086.3 2487.97C19232.1 2641.8 19232.7 2882.71 19087.5 3037.17L18588.4 3568.15C18489.5 3673.32 18341.7 3717.08 18201.5 3682.64L17832.2 3591.9C17610.9 3537.54 17479.7 3309.61 17543.7 3090.97L17847.3 2055.06C17934.1 1759.01 18309.1 1668.45 18521.4 1892.31Z" fill="#D9A692"/>
<path opacity="0.4" d="M19403.6 2203.01L19282 2050.94C19122.2 1851.03 19244 1553.29 19498.1 1522.71C19646.6 1504.83 19788.3 1590.16 19842 1729.8L19911.8 1911.54C19944.9 1997.45 19936.1 2093.83 19888.1 2172.39C19781 2347.87 19532 2363.61 19403.6 2203.01Z" fill="#D9A692"/>
<path opacity="0.4" d="M19949.5 3391.67L19917 3311.11C19845.8 3134.83 19610.1 3102.46 19494 3253.01C19425.3 3342.12 19425.8 3466.49 19495.2 3555.05L19548.8 3623.44C19649.3 3751.64 19846.8 3740.33 19932 3601.49C19970.8 3538.29 19977.3 3460.43 19949.5 3391.67Z" fill="#D9A692"/>
<path opacity="0.4" d="M17778.3 1060.65L18301.9 397.537C18408.7 262.333 18590 210.673 18752 269.314L19459.7 525.527C19643.7 592.14 19752.5 782.107 19716.9 974.526L19712.6 997.399C19667.2 1242.77 19410.6 1387.06 19177.3 1298.45L18916.4 1199.34C18782.1 1148.35 18630.9 1173.23 18520 1264.53L18230.2 1503.3C18108.1 1603.86 17930.7 1599.45 17813.7 1492.95C17690.3 1380.5 17674.8 1191.71 17778.3 1060.65Z" fill="#D9A692"/>
<path opacity="0.4" d="M17532.7 7806.22L17008.4 8437.92C16873.1 8601.04 16633.9 8630.22 16463.3 8504.43L15876.7 8072.02C15760.5 7986.37 15699.5 7844.76 15717 7701.49L15763.2 7324C15790.8 7097.84 16001.5 6940.43 16226.3 6978.05L17290.9 7156.25C17595.2 7207.18 17729.7 7568.82 17532.7 7806.22Z" fill="#D9A692"/>
<path opacity="0.4" d="M19427.5 5190.24L19041.2 5152.61C18857.7 5134.74 18710.2 4993.75 18684.1 4811.25L18618.2 4351.68C18594.6 4186.89 18675.5 4024.71 18821.3 3944.47L18916.3 3892.22C19099.9 3791.21 19330.3 3848.99 19444.5 4024.66L19801.7 4574.12C19984.4 4855.14 19761.1 5222.74 19427.5 5190.24Z" fill="#D9A692"/>
<path opacity="0.4" d="M18536.9 7682.18L18100.8 6830.38C18016.8 6666.27 18055.9 6465.99 18195.4 6345.44L18630.5 5969.49C18756.4 5860.66 18936.6 5841.21 19082.9 5920.66L19418.8 6103.13C19518 6156.98 19589.8 6250.21 19616.5 6359.83L19797.9 7103.1C19839.8 7274.92 19763.9 7453.88 19611.2 7543.17L19094.9 7845.18C18896.6 7961.17 18641.6 7886.67 18536.9 7682.18Z" fill="#D9A692"/>
<path opacity="0.4" d="M17043.9 6410.81L17105.9 6313.29C17181.1 6195.11 17327.4 6143.64 17460 6188.67L17473.2 6193.16C17585 6231.12 17661.6 6334.36 17665.6 6452.37C17668.3 6532.36 17637 6609.76 17579.6 6665.49L17477.7 6764.3C17388.3 6851.03 17252.5 6868.75 17143.9 6807.87C17002.7 6728.79 16957 6547.32 17043.9 6410.81Z" fill="#D9A692"/>
<path opacity="0.4" d="M15462.7 6019.47L15673.4 6149C15793.6 6222.93 15866 6354.79 15863.8 6495.94L15861.7 6632.38C15859.3 6784.88 15740.1 6909.94 15587.9 6919.63C15508.8 6924.67 15431 6897.33 15372.4 6843.88L15057.9 6557.13C14970.6 6477.45 14931.2 6357.92 14954.1 6241.91C14999.7 6010.75 15262 5896.06 15462.7 6019.47Z" fill="#D9A692"/>
<path opacity="0.4" d="M17798.5 5135.23L17924 5009.19C18106.4 4826.04 18412 4861.38 18547.8 5081.33L18558.5 5098.64C18617.8 5194.74 18633.7 5311.44 18602.4 5419.93L18532.6 5661.09C18503.1 5762.96 18434.4 5848.96 18341.5 5900.17L18332.5 5905.18C18124 6020.16 17861.9 5928.72 17770.1 5709.02L17712.8 5571.59C17650.4 5422.2 17684.2 5249.94 17798.5 5135.23Z" fill="#D9A692"/>
<path opacity="0.4" d="M14539.6 1204.67L14563 1147.54C14630 984.299 14834.8 930.859 14973 1040.56C15106 1146.14 15106.8 1347.82 14974.6 1454.45L14926.6 1493.22C14871.1 1537.93 14799.3 1556.79 14729 1545.06C14571.3 1518.7 14478.8 1352.65 14539.6 1204.67Z" fill="#D9A692"/>
<path opacity="0.4" d="M16685.7 4422.37L16559.6 4457.11C16386.2 4504.91 16213.2 4379.54 16204.6 4199.84C16200.7 4119.71 16231.3 4041.76 16288.7 3985.67L16314 3960.91C16416 3861.12 16570.7 3838.25 16697.2 3904.23L16738.4 3925.71C16844.7 3981.12 16901.4 4100.29 16877.2 4217.7C16856.9 4316.5 16782.9 4395.58 16685.7 4422.37Z" fill="#D9A692"/>
<path opacity="0.4" d="M13000.2 9773.07L12826.8 9737.23C12588.1 9687.92 12456.8 9430.06 12557.2 9208.04C12602 9109.03 12687 9033.91 12790.7 9001.63L12869 8977.27C13034.2 8925.87 13213.7 8986.52 13313.9 9127.59L13370.1 9206.63C13464.1 9338.99 13458.9 9517.64 13357.4 9644.35C13272 9750.99 13134 9800.71 13000.2 9773.07Z" fill="#D9A692"/>
<path opacity="0.4" d="M12425.8 8772.93L12199.4 8796.41C11969.5 8820.27 11773.3 8631.8 11787.8 8401.09C11806.9 8097.72 12160.9 7942.83 12396.7 8134.65L12573.3 8278.25C12633.1 8326.9 12670.1 8398.12 12675.6 8475.02C12686.4 8625.49 12575.8 8757.36 12425.8 8772.93Z" fill="#D9A692"/>
<path opacity="0.4" d="M14464.7 79.0854L14593.3 138.172C14897.6 277.954 14905.7 707.471 14606.9 858.609L14533.1 895.912C14468.7 928.477 14396.7 943.017 14324.8 937.993L14206.7 929.754C13894.5 907.96 13727.1 552.219 13909.4 297.788L13972.6 209.638C14084.1 53.8534 14290.5 -0.90027 14464.7 79.0854Z" fill="#D9A692"/>
<path opacity="0.4" d="M10652.3 1082.18L10576.6 1047.25C10360.2 947.445 10300 668.046 10456 487.928C10606.1 314.576 10878.2 325.156 11014.4 509.64L11064 576.724C11121.1 654.07 11142.4 752.151 11122.5 846.217C11077.8 1057.54 10848.5 1172.65 10652.3 1082.18Z" fill="#D9A692"/>
<path opacity="0.4" d="M10722.3 7034.77L10548.9 6998.93C10310.2 6949.62 10178.9 6691.76 10279.3 6469.74C10324.1 6370.73 10409.1 6295.61 10512.8 6263.33L10591.1 6238.97C10756.3 6187.57 10935.9 6248.22 11036.1 6389.29L11092.2 6468.33C11186.2 6600.69 11181 6779.34 11079.5 6906.05C10994.1 7012.69 10856.1 7062.41 10722.3 7034.77Z" fill="#D9A692"/>
<path opacity="0.4" d="M15973.3 9773.77L15799.9 9737.93C15561.2 9688.62 15429.9 9430.76 15530.3 9208.74C15575.1 9109.73 15660.1 9034.61 15763.8 9002.33L15842.1 8977.97C16007.3 8926.57 16186.9 8987.22 16287.1 9128.29L16343.2 9207.33C16437.2 9339.69 16432 9518.34 16330.5 9645.05C16245.1 9751.69 16107.1 9801.41 15973.3 9773.77Z" fill="#D9A692"/>
<path opacity="0.4" d="M19261.2 9135.71L19258.3 9022.82C19254.3 8867.49 19395.4 8748.52 19547.8 8778.67C19615.8 8792.12 19674.7 8834 19709.8 8893.74L19725.3 8920.12C19787.8 9026.4 19774.8 9160.78 19693.2 9253.15L19666.6 9283.22C19598 9360.79 19486.3 9383.5 19392.9 9338.86C19314.3 9301.28 19263.5 9222.8 19261.2 9135.71Z" fill="#D9A692"/>
<path opacity="0.4" d="M11858.4 10442.6L12009.5 10445C12290.5 10449.5 12479.3 10734.8 12373.7 10995.2L12264.7 11264.1C12239.9 11325.1 12200.5 11379 12150 11421.2L12108 11456.1C11847.4 11673.1 11452 11487.9 11452 11148.8L11452 10842.5C11452 10619.1 11635 10439 11858.4 10442.6Z" fill="#D9A692"/>
<path opacity="0.4" d="M11778.7 13608.5L12091.5 13263.6C12235.9 13104.3 12480.4 13087.7 12645.1 13226L12665.7 13243.3C12690.1 13263.8 12712 13287.2 12730.9 13312.9L13052.3 13750.9C13189.5 13937.9 13139.5 14202 12943.3 14325.8L12701.9 14478.2C12571 14560.8 12404.3 14560.5 12273.7 14477.5L11860.5 14214.7C11651.2 14081.6 11612.2 13792.2 11778.7 13608.5Z" fill="#D9A692"/>
<path opacity="0.4" d="M13520.6 12542.9L13702.9 12285.6C13737.5 12236.7 13782.7 12196.3 13835 12167.2L14049.1 12048.3C14109 12015 14176.4 11997.7 14244.9 11998L14775.7 12000C15028 12000.9 15216.4 12232.4 15166.2 12479.6L15126.7 12674C15102.5 12793.2 15025.3 12894.9 14917 12950.4L14303.3 13264.7C14190.9 13322.2 14058 13323.3 13944.7 13267.7L13670.7 13133.2C13449.5 13024.6 13378.1 12743.9 13520.6 12542.9Z" fill="#D9A692"/>
<path opacity="0.4" d="M16461.9 10105.4L16750.6 10232.3C16805.4 10256.4 16854.2 10292.5 16893.2 10337.9L17052.7 10523.7C17097.3 10575.7 17127.9 10638.2 17141.4 10705.3L17246.2 11225.7C17296 11473 17107.2 11704.1 16854.9 11704.7L16656.6 11705.1C16534.9 11705.3 16419.8 11650.2 16343.7 11555.3L15912.3 11017.3C15833.4 10918.9 15805.5 10788.9 15837.2 10666.7L15913.9 10371.2C15975.7 10132.7 16236.4 10006.3 16461.9 10105.4Z" fill="#D9A692"/>
<path opacity="0.4" d="M14236 15950.4L14442.9 16077.7C14493.5 16108.9 14536.6 16151 14568.9 16200.9L14683 16377C14720.1 16434.3 14742 16500.1 14746.5 16568.2L14774.9 16999.5C14791.6 17252.5 14571.9 17456.9 14320.8 17422.1L14199 17405.2C14079.3 17388.5 13973.5 17318.7 13911.3 17215.1L13601 16699.2C13535.9 16591 13525.7 16458.4 13573.5 16341.6L13656.1 16139.6C13749.6 15911.1 14025.7 15821 14236 15950.4Z" fill="#D9A692"/>
<path opacity="0.4" d="M14117.7 14204.5L14210.6 14036.3C14301.3 13872.1 14494 13793.1 14673.9 13846.2L15129 13980.5C15232.5 14011 15319.3 14082.1 15369.6 14177.6L15531.7 14485.1C15625.8 14663.7 15572.1 14884.4 15406.5 14999.8L15181.9 15156.2C15096.3 15215.9 14990.8 15239.7 14887.9 15222.6L14558.3 15168C14422.2 15145.5 14307.3 15054.3 14254.3 14926.8L14098.4 14551.3C14051.6 14438.8 14058.8 14311.1 14117.7 14204.5Z" fill="#D9A692"/>
<path opacity="0.4" d="M12671.7 16060.9L12863.2 16076.2C13050.2 16091.1 13201.7 16234 13227.6 16419.9L13292.9 16889.8C13307.8 16996.7 13278.8 17105.1 13212.5 17190.3L12999.2 17464.8C12875.4 17624.1 12652.2 17666.3 12478.7 17563L12243.6 17422.9C12154 17369.6 12088.7 17283.3 12061.8 17182.4L11975.7 16859.7C11940.1 16726.4 11975.7 16584.1 12070 16483.3L12347.8 16186.4C12431 16097.4 12550.3 16051.2 12671.7 16060.9Z" fill="#D9A692"/>
<path opacity="0.4" d="M10818.4 14336.9L11364 14303.2C11610.7 14288 11800.9 14517.5 11740.2 14757.2C11702.8 14904.7 11760.9 15060 11886 15146.7L12158.2 15335.5C12408.7 15509.2 12374.1 15889.7 12096.4 16015.4C12007.3 16055.7 11906.5 16061.3 11813.5 16031.1L10719.6 15676.2C10554.7 15622.7 10443 15469.1 10443 15295.7L10443 14736.1C10443 14524.7 10607.4 14349.9 10818.4 14336.9Z" fill="#D9A692"/>
<path opacity="0.4" d="M17067.8 16032L16680.2 16187C16600.6 16218.8 16512.9 16224.2 16429.9 16202.4L15917.9 16067.7C15798.8 16036.3 15700.7 15951.8 15652.1 15838.7L15597.5 15711.4C15477.5 15431.9 15701 15126 16003.7 15155.4L16141.9 15168.9C16308.3 15185.1 16466.4 15092.8 16534.1 14940C16637.2 14707.3 16932.6 14635.3 17131.2 14794.4L17251 14890.3C17365.3 14981.9 17420.4 15128.5 17394.7 15272.7L17313.1 15730.7C17288.9 15866.8 17196.1 15980.7 17067.8 16032Z" fill="#D9A692"/>
<path opacity="0.4" d="M14678.9 18975.9L14306.6 19024.5C14143 19045.8 13983.1 18964.6 13903.9 18819.9L13717.6 18479.6C13658.5 18371.5 13652.4 18242.3 13701.2 18129.2L13818.3 17857.6C13922.1 17616.7 14225.9 17539.3 14432.3 17701.2L14825.6 18009.3C14869 18043.3 14918.9 18068 14972.3 18081.8L15380.3 18187.2C15614.4 18247.7 15724.3 18516.4 15599.7 18723.6C15542.3 18819 15444.1 18882.7 15333.6 18896.2L14678.9 18975.9Z" fill="#D9A692"/>
<path opacity="0.4" d="M10481.9 19306L10405.8 19196.6C10298.5 19042.2 10313.2 18833.8 10441.2 18696.1L10683.5 18435.3C10743.8 18370.4 10823.8 18327.4 10911.1 18312.9L11006.8 18297.1C11317.3 18245.6 11562.8 18556.2 11441.1 18846.4L11399 18946.6C11374.6 19004.8 11364.3 19068 11369 19131L11386.7 19369.4C11402.5 19582.6 11240.4 19767.2 11027 19779.3C10892.8 19786.8 10764.5 19723.3 10689.1 19612L10481.9 19306Z" fill="#D9A692"/>
<path opacity="0.4" d="M18654.3 19297.9L18178.3 19744.8C18116.8 19802.5 18038.6 19839.4 17954.9 19850L17432.2 19916.4C17279.1 19935.9 17128.4 19865.5 17045.1 19735.5L16883.9 19484.2C16741.5 19262.1 16849.3 18965.4 17101.1 18886.5L17531.7 18751.7C17670.1 18708.3 17774.2 18593.4 17803.7 18451.5L17861 18176.6C17912 17931.2 18173.6 17792.7 18405.2 17888.4L18537.4 17943C18688 18005.2 18785.8 18152.4 18784.8 18315.2L18780.5 19008.8C18779.8 19118.3 18734.2 19222.9 18654.3 19297.9Z" fill="#D9A692"/>
<path opacity="0.4" d="M12934.4 14989.6L13165.1 14627.2C13220.4 14540.4 13313.7 14485.1 13416.4 14478.4C13605.1 14466.2 13763.8 14617.9 13760.1 14806.9L13750.7 15283C13747.1 15467.6 13617.6 15625.7 13437.3 15665.7L13391.6 15675.8C13201.7 15717.9 13009.1 15617.2 12935.1 15437.3L12901.9 15356.5C12852.5 15236.2 12864.6 15099.3 12934.4 14989.6Z" fill="#D9A692"/>
<path opacity="0.4" d="M12461 11654.8L12799.5 11016.5C12863.8 10895.3 12985.8 10815.4 13122.6 10805.1L13222.8 10797.5C13367.5 10786.5 13506.8 10854.8 13586.8 10975.9L13718.4 11175.2C13814.2 11320.3 13805.4 11510.7 13696.4 11646.2L13479.1 11916.6C13430.3 11977.3 13364.7 12022.5 13290.5 12046.5L12896.7 12174C12694.5 12239.5 12479.3 12119.4 12428.8 11912.9C12407.5 11825.8 12419 11734 12461 11654.8Z" fill="#D9A692"/>
<path opacity="0.4" d="M10584.7 12897.8L10310.1 12422.3C10241.8 12304.1 10239 12159.1 10302.5 12038.2C10369.6 11910.5 10500.7 11829.1 10645.1 11825.6L10743.4 11823.2C10917.2 11819 11073.8 11927.6 11130.9 12091.9L11198.6 12287C11224.2 12360.6 11227.7 12440.2 11208.7 12515.8L11131.8 12821.5C11089.5 12989.4 10913.5 13086.1 10749.1 13031.7C10679.7 13008.7 10621.2 12961.1 10584.7 12897.8Z" fill="#D9A692"/>
<path opacity="0.4" d="M15895.8 13389.6L15835.5 13081.1C15810.7 12954.1 15848.8 12822.9 15937.9 12729.1L16161.8 12493C16234.2 12416.7 16333.7 12372 16438.9 12368.5L16748.9 12358.3C17000.8 12350 17197.5 12574 17156.8 12822.7L17133.7 12963.8C17124.6 13019.6 17103.7 13072.9 17072.4 13120.1L16794.9 13538.7C16718.6 13653.8 16588.3 13721.4 16450.3 13717.6L16277.1 13712.7C16090.1 13707.4 15931.7 13573.2 15895.8 13389.6Z" fill="#D9A692"/>
<path opacity="0.4" d="M17456.6 14121L17529.3 14037C17685.7 13856.3 17964.7 13852.3 18126.4 14028.4L18138.2 14041.3C18330.9 14251.4 18248.3 14589.9 17980.4 14687.6L17873.7 14726.5C17738.6 14775.7 17587.3 14744.4 17482.7 14645.6C17335 14505.9 17323.4 14274.7 17456.6 14121Z" fill="#D9A692"/>
<path opacity="0.4" d="M15735.8 12109.5L15682.4 12084.8C15529.8 12014.4 15487.2 11817.3 15597.3 11690.3C15703.2 11568 15895.2 11575.4 15991.3 11705.6L16026.2 11752.9C16066.5 11807.5 16081.5 11876.7 16067.5 11943C16036 12092.1 15874.2 12173.3 15735.8 12109.5Z" fill="#D9A692"/>
<path opacity="0.4" d="M12555.6 12616.7L12579 12559.6C12646 12396.3 12850.8 12342.9 12989 12452.6C13122 12558.2 13122.8 12759.8 12990.6 12866.5L12942.6 12905.2C12887.1 12949.9 12815.3 12968.8 12745 12957.1C12587.3 12930.7 12494.8 12764.7 12555.6 12616.7Z" fill="#D9A692"/>
<path opacity="0.4" d="M18521.4 11892.3L19086.3 12488C19232.1 12641.8 19232.7 12882.7 19087.5 13037.2L18588.4 13568.2C18489.5 13673.3 18341.7 13717.1 18201.5 13682.6L17832.2 13591.9C17610.9 13537.5 17479.7 13309.6 17543.7 13091L17847.3 12055.1C17934.1 11759 18309.1 11668.5 18521.4 11892.3Z" fill="#D9A692"/>
<path opacity="0.4" d="M19403.6 12203L19282 12050.9C19122.2 11851 19244 11553.3 19498.1 11522.7C19646.6 11504.8 19788.3 11590.2 19842 11729.8L19911.8 11911.5C19944.9 11997.5 19936.1 12093.8 19888.1 12172.4C19781 12347.9 19532 12363.6 19403.6 12203Z" fill="#D9A692"/>
<path opacity="0.4" d="M19949.5 13391.7L19917 13311.1C19845.8 13134.8 19610.1 13102.5 19494 13253C19425.3 13342.1 19425.8 13466.5 19495.2 13555.1L19548.8 13623.4C19649.3 13751.6 19846.8 13740.3 19932 13601.5C19970.8 13538.3 19977.3 13460.4 19949.5 13391.7Z" fill="#D9A692"/>
<path opacity="0.4" d="M17778.3 11060.7L18301.9 10397.5C18408.7 10262.3 18590 10210.7 18752 10269.3L19459.7 10525.5C19643.7 10592.1 19752.5 10782.1 19716.9 10974.5L19712.6 10997.4C19667.2 11242.8 19410.6 11387.1 19177.3 11298.4L18916.4 11199.3C18782.1 11148.4 18630.9 11173.2 18520 11264.5L18230.2 11503.3C18108.1 11603.9 17930.7 11599.4 17813.7 11492.9C17690.3 11380.5 17674.8 11191.7 17778.3 11060.7Z" fill="#D9A692"/>
<path opacity="0.4" d="M17532.7 17806.2L17008.4 18437.9C16873.1 18601 16633.9 18630.2 16463.3 18504.4L15876.7 18072C15760.5 17986.4 15699.5 17844.8 15717 17701.5L15763.2 17324C15790.8 17097.8 16001.5 16940.4 16226.3 16978L17290.9 17156.3C17595.2 17207.2 17729.7 17568.8 17532.7 17806.2Z" fill="#D9A692"/>
<path opacity="0.4" d="M19427.5 15190.2L19041.2 15152.6C18857.7 15134.7 18710.2 14993.8 18684.1 14811.2L18618.2 14351.7C18594.6 14186.9 18675.5 14024.7 18821.3 13944.5L18916.3 13892.2C19099.9 13791.2 19330.3 13849 19444.5 14024.7L19801.7 14574.1C19984.4 14855.1 19761.1 15222.7 19427.5 15190.2Z" fill="#D9A692"/>
<path opacity="0.4" d="M18536.9 17682.2L18100.8 16830.4C18016.8 16666.3 18055.9 16466 18195.4 16345.4L18630.5 15969.5C18756.4 15860.7 18936.6 15841.2 19082.9 15920.7L19418.8 16103.1C19518 16157 19589.8 16250.2 19616.5 16359.8L19797.9 17103.1C19839.8 17274.9 19763.9 17453.9 19611.2 17543.2L19094.9 17845.2C18896.6 17961.2 18641.6 17886.7 18536.9 17682.2Z" fill="#D9A692"/>
<path opacity="0.4" d="M17043.9 16410.8L17105.9 16313.3C17181.1 16195.1 17327.4 16143.6 17460 16188.7L17473.2 16193.2C17585 16231.1 17661.6 16334.4 17665.6 16452.4C17668.3 16532.4 17637 16609.8 17579.6 16665.5L17477.7 16764.3C17388.3 16851 17252.5 16868.8 17143.9 16807.9C17002.7 16728.8 16957 16547.3 17043.9 16410.8Z" fill="#D9A692"/>
<path opacity="0.4" d="M15462.7 16019.5L15673.4 16149C15793.6 16222.9 15866 16354.8 15863.8 16495.9L15861.7 16632.4C15859.3 16784.9 15740.1 16909.9 15587.9 16919.6C15508.8 16924.7 15431 16897.3 15372.4 16843.9L15057.9 16557.1C14970.6 16477.5 14931.2 16357.9 14954.1 16241.9C14999.7 16010.7 15262 15896.1 15462.7 16019.5Z" fill="#D9A692"/>
<path opacity="0.4" d="M17798.5 15135.2L17924 15009.2C18106.4 14826 18412 14861.4 18547.8 15081.3L18558.5 15098.6C18617.8 15194.7 18633.7 15311.4 18602.4 15419.9L18532.6 15661.1C18503.1 15763 18434.4 15849 18341.5 15900.2L18332.5 15905.2C18124 16020.2 17861.9 15928.7 17770.1 15709L17712.8 15571.6C17650.4 15422.2 17684.2 15249.9 17798.5 15135.2Z" fill="#D9A692"/>
<path opacity="0.4" d="M14539.6 11204.7L14563 11147.5C14630 10984.3 14834.8 10930.9 14973 11040.6C15106 11146.1 15106.8 11347.8 14974.6 11454.5L14926.6 11493.2C14871.1 11537.9 14799.3 11556.8 14729 11545.1C14571.3 11518.7 14478.8 11352.6 14539.6 11204.7Z" fill="#D9A692"/>
<path opacity="0.4" d="M16685.7 14422.4L16559.6 14457.1C16386.2 14504.9 16213.2 14379.5 16204.6 14199.8C16200.7 14119.7 16231.3 14041.8 16288.7 13985.7L16314 13960.9C16416 13861.1 16570.7 13838.2 16697.2 13904.2L16738.4 13925.7C16844.7 13981.1 16901.4 14100.3 16877.2 14217.7C16856.9 14316.5 16782.9 14395.6 16685.7 14422.4Z" fill="#D9A692"/>
<path opacity="0.4" d="M13000.2 19773.1L12826.8 19737.2C12588.1 19687.9 12456.8 19430.1 12557.2 19208C12602 19109 12687 19033.9 12790.7 19001.6L12869 18977.3C13034.2 18925.9 13213.7 18986.5 13313.9 19127.6L13370.1 19206.6C13464.1 19339 13458.9 19517.6 13357.4 19644.3C13272 19751 13134 19800.7 13000.2 19773.1Z" fill="#D9A692"/>
<path opacity="0.4" d="M12425.8 18772.9L12199.4 18796.4C11969.5 18820.3 11773.3 18631.8 11787.8 18401.1C11806.9 18097.7 12160.9 17942.8 12396.7 18134.6L12573.3 18278.2C12633.1 18326.9 12670.1 18398.1 12675.6 18475C12686.4 18625.5 12575.8 18757.4 12425.8 18772.9Z" fill="#D9A692"/>
<path opacity="0.4" d="M14464.7 10079.1L14593.3 10138.2C14897.6 10278 14905.7 10707.5 14606.9 10858.6L14533.1 10895.9C14468.7 10928.5 14396.7 10943 14324.8 10938L14206.7 10929.8C13894.5 10908 13727.1 10552.2 13909.4 10297.8L13972.6 10209.6C14084.1 10053.9 14290.5 9999.1 14464.7 10079.1Z" fill="#D9A692"/>
<path opacity="0.4" d="M10652.3 11082.2L10576.6 11047.3C10360.2 10947.4 10300 10668 10456 10487.9C10606.1 10314.6 10878.2 10325.2 11014.4 10509.6L11064 10576.7C11121.1 10654.1 11142.4 10752.2 11122.5 10846.2C11077.8 11057.5 10848.5 11172.7 10652.3 11082.2Z" fill="#D9A692"/>
<path opacity="0.4" d="M10722.3 17034.8L10548.9 16998.9C10310.2 16949.6 10178.9 16691.8 10279.3 16469.7C10324.1 16370.7 10409.1 16295.6 10512.8 16263.3L10591.1 16239C10756.3 16187.6 10935.9 16248.2 11036.1 16389.3L11092.2 16468.3C11186.2 16600.7 11181 16779.3 11079.5 16906C10994.1 17012.7 10856.1 17062.4 10722.3 17034.8Z" fill="#D9A692"/>
<path opacity="0.4" d="M15973.3 19773.8L15799.9 19737.9C15561.2 19688.6 15429.9 19430.8 15530.3 19208.7C15575.1 19109.7 15660.1 19034.6 15763.8 19002.3L15842.1 18978C16007.3 18926.6 16186.9 18987.2 16287.1 19128.3L16343.2 19207.3C16437.2 19339.7 16432 19518.3 16330.5 19645C16245.1 19751.7 16107.1 19801.4 15973.3 19773.8Z" fill="#D9A692"/>
<path opacity="0.4" d="M19261.2 19135.7L19258.3 19022.8C19254.3 18867.5 19395.4 18748.5 19547.8 18778.7C19615.8 18792.1 19674.7 18834 19709.8 18893.7L19725.3 18920.1C19787.8 19026.4 19774.8 19160.8 19693.2 19253.1L19666.6 19283.2C19598 19360.8 19486.3 19383.5 19392.9 19338.9C19314.3 19301.3 19263.5 19222.8 19261.2 19135.7Z" fill="#D9A692"/>
<path opacity="0.4" d="M1858.45 10442.6L2009.45 10445C2290.46 10449.5 2479.3 10734.8 2373.69 10995.2L2264.67 11264.1C2239.94 11325.1 2200.54 11379 2149.98 11421.2L2108 11456.1C1847.45 11673.1 1452 11487.9 1452 11148.8L1452 10842.5C1452 10619.1 1635.04 10439 1858.45 10442.6Z" fill="#D9A692"/>
<path opacity="0.4" d="M1778.75 13608.5L2091.46 13263.6C2235.89 13104.3 2480.42 13087.7 2645.07 13226L2665.71 13243.3C2690.15 13263.8 2712.04 13287.2 2730.92 13312.9L3052.32 13750.9C3189.55 13937.9 3139.47 14202 2943.32 14325.8L2701.85 14478.2C2571.02 14560.8 2404.3 14560.5 2273.75 14477.5L1860.47 14214.7C1651.2 14081.6 1612.18 13792.2 1778.75 13608.5Z" fill="#D9A692"/>
<path opacity="0.4" d="M3520.58 12542.9L3702.88 12285.6C3737.51 12236.7 3782.67 12196.3 3835.03 12167.2L4049.14 12048.3C4109 12015 4176.38 11997.7 4244.85 11998L4775.69 12000C5027.99 12000.9 5216.41 12232.4 5166.18 12479.6L5126.69 12674C5102.47 12793.2 5025.31 12894.9 4917.03 12950.4L4303.29 13264.7C4190.94 13322.2 4058.02 13323.3 3944.7 13267.7L3670.68 13133.2C3449.52 13024.6 3378.13 12743.9 3520.58 12542.9Z" fill="#D9A692"/>
<path opacity="0.4" d="M6461.95 10105.4L6750.61 10232.3C6805.45 10256.4 6854.17 10292.5 6893.19 10337.9L7052.74 10523.7C7097.34 10575.7 7127.86 10638.2 7141.38 10705.3L7246.21 11225.7C7296.04 11473 7107.23 11704.1 6854.93 11704.7L6656.59 11705.1C6534.94 11705.3 6419.78 11650.2 6343.68 11555.3L5912.34 11017.3C5833.37 10918.9 5805.53 10788.9 5837.22 10666.7L5913.86 10371.2C5975.72 10132.7 6236.39 10006.3 6461.95 10105.4Z" fill="#D9A692"/>
<path opacity="0.4" d="M4236.01 15950.4L4442.89 16077.7C4493.53 16108.9 4536.58 16151 4568.91 16200.9L4683.04 16377C4720.14 16434.3 4741.98 16500.1 4746.47 16568.2L4774.93 16999.5C4791.62 17252.5 4571.86 17456.9 4320.79 17422.1L4199.03 17405.2C4079.32 17388.5 3973.55 17318.7 3911.26 17215.1L3600.95 16699.2C3535.89 16591 3525.71 16458.4 3573.5 16341.6L3656.1 16139.6C3749.56 15911.1 4025.73 15821 4236.01 15950.4Z" fill="#D9A692"/>
<path opacity="0.4" d="M4117.68 14204.5L4210.59 14036.3C4301.33 13872.1 4493.99 13793.1 4673.92 13846.2L5128.98 13980.5C5232.52 14011 5319.3 14082.1 5369.63 14177.6L5531.67 14485.1C5625.77 14663.7 5572.08 14884.4 5406.46 14999.8L5181.94 15156.2C5096.33 15215.9 4990.81 15239.7 4887.87 15222.6L4558.33 15168C4422.16 15145.5 4307.25 15054.3 4254.31 14926.8L4098.38 14551.3C4051.64 14438.8 4058.75 14311.1 4117.68 14204.5Z" fill="#D9A692"/>
<path opacity="0.4" d="M2671.75 16060.9L2863.24 16076.2C3050.24 16091.1 3201.74 16234 3227.57 16419.9L3292.89 16889.8C3307.75 16996.7 3278.77 17105.1 3212.52 17190.3L2999.23 17464.8C2875.36 17624.1 2652.15 17666.3 2478.73 17563L2243.62 17422.9C2153.97 17369.6 2088.74 17283.3 2061.83 17182.4L1975.67 16859.7C1940.07 16726.4 1975.74 16584.1 2070.03 16483.3L2347.79 16186.4C2431.03 16097.4 2550.29 16051.2 2671.75 16060.9Z" fill="#D9A692"/>
<path opacity="0.4" d="M818.398 14336.9L1363.95 14303.2C1610.75 14288 1800.91 14517.5 1740.17 14757.2C1702.78 14904.7 1760.89 15060 1885.96 15146.7L2158.2 15335.5C2408.67 15509.2 2374.06 15889.7 2096.37 16015.4C2007.34 16055.7 1906.48 16061.3 1813.53 16031.1L719.564 15676.2C554.668 15622.7 443 15469.1 443 15295.7L443 14736.1C443 14524.7 607.438 14349.9 818.398 14336.9Z" fill="#D9A692"/>
<path opacity="0.4" d="M7067.82 16032L6680.24 16187C6600.62 16218.8 6512.87 16224.2 6429.94 16202.4L5917.89 16067.7C5798.77 16036.3 5700.73 15951.8 5652.13 15838.7L5597.48 15711.4C5477.46 15431.9 5700.98 15126 6003.74 15155.4L6141.91 15168.9C6308.31 15185.1 6466.35 15092.8 6534.09 14940C6637.18 14707.3 6932.61 14635.3 7131.22 14794.4L7250.99 14890.3C7365.26 14981.9 7420.39 15128.5 7394.71 15272.7L7313.11 15730.7C7288.87 15866.8 7196.13 15980.7 7067.82 16032Z" fill="#D9A692"/>
<path opacity="0.4" d="M4678.86 18975.9L4306.55 19024.5C4143 19045.8 3983.12 18964.6 3903.92 18819.9L3717.65 18479.6C3658.51 18371.5 3652.44 18242.3 3701.21 18129.2L3818.29 17857.6C3922.15 17616.7 4225.87 17539.3 4432.34 17701.2L4825.58 18009.3C4868.96 18043.3 4918.91 18068 4972.27 18081.8L5380.28 18187.2C5614.35 18247.7 5724.28 18516.4 5599.7 18723.6C5542.31 18819 5444.12 18882.7 5333.55 18896.2L4678.86 18975.9Z" fill="#D9A692"/>
<path opacity="0.4" d="M481.902 19306L405.844 19196.6C298.494 19042.2 313.225 18833.8 441.234 18696.1L683.505 18435.3C743.753 18370.4 823.81 18327.4 911.135 18312.9L1006.8 18297.1C1317.27 18245.6 1562.83 18556.2 1441.06 18846.4L1399.03 18946.6C1374.6 19004.8 1364.3 19068 1368.97 19131L1386.65 19369.4C1402.46 19582.6 1240.42 19767.2 1027.04 19779.3C892.819 19786.8 764.494 19723.3 689.11 19612L481.902 19306Z" fill="#D9A692"/>
<path opacity="0.4" d="M8654.27 19297.9L8178.32 19744.8C8116.81 19802.5 8038.62 19839.4 7954.92 19850L7432.22 19916.4C7279.08 19935.9 7128.42 19865.5 7045.09 19735.5L6883.93 19484.2C6741.52 19262.1 6849.33 18965.4 7101.08 18886.5L7531.7 18751.7C7670.1 18708.3 7774.2 18593.4 7803.75 18451.5L7860.95 18176.6C7912.03 17931.2 8173.58 17792.7 8405.24 17888.4L8537.44 17943C8687.96 18005.2 8785.77 18152.4 8784.76 18315.2L8780.46 19008.8C8779.78 19118.3 8734.16 19222.9 8654.27 19297.9Z" fill="#D9A692"/>
<path opacity="0.4" d="M2934.43 14989.6L3165.12 14627.2C3220.38 14540.4 3313.73 14485.1 3416.42 14478.4C3605.06 14466.2 3763.84 14617.9 3760.12 14806.9L3750.74 15283C3747.1 15467.6 3617.6 15625.7 3437.35 15665.7L3391.62 15675.8C3201.71 15717.9 3009.05 15617.2 2935.12 15437.3L2901.89 15356.5C2852.45 15236.2 2864.59 15099.3 2934.43 14989.6Z" fill="#D9A692"/>
<path opacity="0.4" d="M2460.97 11654.8L2799.45 11016.5C2863.76 10895.3 2985.75 10815.4 3122.62 10805.1L3222.82 10797.5C3367.54 10786.5 3506.84 10854.8 3586.82 10975.9L3718.42 11175.2C3814.25 11320.3 3805.36 11510.7 3696.42 11646.2L3479.14 11916.6C3430.28 11977.3 3364.73 12022.5 3290.54 12046.5L2896.68 12174C2694.48 12239.5 2479.27 12119.4 2428.81 11912.9C2407.52 11825.8 2418.96 11734 2460.97 11654.8Z" fill="#D9A692"/>
<path opacity="0.4" d="M584.666 12897.8L310.103 12422.3C241.836 12304.1 238.957 12159.1 302.476 12038.2C369.638 11910.5 500.741 11829.1 645.052 11825.6L743.357 11823.2C917.19 11819 1073.82 11927.6 1130.87 12091.9L1198.61 12287C1224.2 12360.6 1227.69 12440.2 1208.66 12515.8L1131.75 12821.5C1089.49 12989.4 913.466 13086.1 749.061 13031.7C679.703 13008.7 621.2 12961.1 584.666 12897.8Z" fill="#D9A692"/>
<path opacity="0.4" d="M5895.8 13389.6L5835.52 13081.1C5810.71 12954.1 5848.85 12822.9 5937.89 12729.1L6161.81 12493C6234.21 12416.7 6333.75 12372 6438.88 12368.5L6748.92 12358.3C7000.83 12350 7197.53 12574 7156.8 12822.7L7133.71 12963.8C7124.56 13019.6 7103.65 13072.9 7072.37 13120.1L6794.9 13538.7C6718.6 13653.8 6588.31 13721.4 6450.26 13717.6L6277.14 13712.7C6090.09 13707.4 5931.68 13573.2 5895.8 13389.6Z" fill="#D9A692"/>
<path opacity="0.4" d="M7456.55 14121L7529.26 14037C7685.75 13856.3 7964.74 13852.3 8126.35 14028.4L8138.18 14041.3C8330.94 14251.4 8248.31 14589.9 7980.44 14687.6L7873.74 14726.5C7738.62 14775.7 7587.26 14744.4 7482.75 14645.6C7334.98 14505.9 7323.44 14274.7 7456.55 14121Z" fill="#D9A692"/>
<path opacity="0.4" d="M5735.8 12109.5L5682.39 12084.8C5529.75 12014.4 5487.24 11817.3 5597.28 11690.3C5703.19 11568 5895.17 11575.4 5991.27 11705.6L6026.21 11752.9C6066.5 11807.5 6081.52 11876.7 6067.5 11943C6035.98 12092.1 5874.17 12173.3 5735.8 12109.5Z" fill="#D9A692"/>
<path opacity="0.4" d="M2555.55 12616.7L2579 12559.6C2645.98 12396.3 2850.78 12342.9 2988.99 12452.6C3122 12558.2 3122.8 12759.8 2990.62 12866.5L2942.56 12905.2C2887.14 12949.9 2815.25 12968.8 2745.03 12957.1C2587.26 12930.7 2494.83 12764.7 2555.55 12616.7Z" fill="#D9A692"/>
<path opacity="0.4" d="M8521.41 11892.3L9086.27 12488C9232.14 12641.8 9232.67 12882.7 9087.48 13037.2L8588.37 13568.2C8489.51 13673.3 8341.65 13717.1 8201.48 13682.6L7832.16 13591.9C7610.9 13537.5 7479.66 13309.6 7543.74 13091L7847.31 12055.1C7934.06 11759 8309.13 11668.5 8521.41 11892.3Z" fill="#D9A692"/>
<path opacity="0.4" d="M9403.62 12203L9282.03 12050.9C9122.19 11851 9243.97 11553.3 9498.1 11522.7C9646.63 11504.8 9788.32 11590.2 9841.99 11729.8L9911.84 11911.5C9944.86 11997.5 9936.1 12093.8 9888.13 12172.4C9780.96 12347.9 9532.03 12363.6 9403.62 12203Z" fill="#D9A692"/>
<path opacity="0.4" d="M9949.53 13391.7L9916.99 13311.1C9845.79 13134.8 9610.09 13102.5 9494 13253C9425.29 13342.1 9425.78 13466.5 9495.2 13555.1L9548.8 13623.4C9649.3 13751.6 9846.82 13740.3 9932.02 13601.5C9970.8 13538.3 9977.3 13460.4 9949.53 13391.7Z" fill="#D9A692"/>
<path opacity="0.4" d="M7778.28 11060.7L8301.91 10397.5C8408.67 10262.3 8590.01 10210.7 8751.99 10269.3L9459.74 10525.5C9643.75 10592.1 9752.54 10782.1 9716.89 10974.5L9712.65 10997.4C9667.18 11242.8 9410.6 11387.1 9177.31 11298.4L8916.38 11199.3C8782.14 11148.4 8630.87 11173.2 8520.03 11264.5L8230.17 11503.3C8108.09 11603.9 7930.67 11599.4 7813.74 11492.9C7690.27 11380.5 7674.79 11191.7 7778.28 11060.7Z" fill="#D9A692"/>
<path opacity="0.4" d="M7532.7 17806.2L7008.44 18437.9C6873.06 18601 6633.92 18630.2 6463.28 18504.4L5876.71 18072C5760.53 17986.4 5699.5 17844.8 5717.02 17701.5L5763.19 17324C5790.85 17097.8 6001.55 16940.4 6226.27 16978L7290.93 17156.3C7595.2 17207.2 7729.72 17568.8 7532.7 17806.2Z" fill="#D9A692"/>
<path opacity="0.4" d="M9427.53 15190.2L9041.25 15152.6C8857.75 15134.7 8710.23 14993.8 8684.08 14811.2L8618.21 14351.7C8594.59 14186.9 8675.5 14024.7 8821.34 13944.5L8916.31 13892.2C9099.89 13791.2 9330.3 13849 9444.5 14024.7L9801.68 14574.1C9984.36 14855.1 9761.13 15222.7 9427.53 15190.2Z" fill="#D9A692"/>
<path opacity="0.4" d="M8536.88 17682.2L8100.83 16830.4C8016.81 16666.3 8055.86 16466 8195.36 16345.4L8630.46 15969.5C8756.42 15860.7 8936.62 15841.2 9082.9 15920.7L9418.85 16103.1C9518 16157 9589.8 16250.2 9616.54 16359.8L9797.86 17103.1C9839.77 17274.9 9763.87 17453.9 9611.21 17543.2L9094.89 17845.2C8896.59 17961.2 8641.56 17886.7 8536.88 17682.2Z" fill="#D9A692"/>
<path opacity="0.4" d="M7043.85 16410.8L7105.92 16313.3C7181.12 16195.1 7327.36 16143.6 7460.01 16188.7L7473.22 16193.2C7585.03 16231.1 7661.65 16334.4 7665.59 16452.4C7668.26 16532.4 7637.02 16609.8 7579.57 16665.5L7477.71 16764.3C7388.29 16851 7252.53 16868.8 7143.85 16807.9C7002.68 16728.8 6956.98 16547.3 7043.85 16410.8Z" fill="#D9A692"/>
<path opacity="0.4" d="M5462.68 16019.5L5673.36 16149C5793.62 16222.9 5866 16354.8 5863.81 16495.9L5861.7 16632.4C5859.33 16784.9 5740.15 16909.9 5587.94 16919.6C5508.78 16924.7 5430.97 16897.3 5372.36 16843.9L5057.92 16557.1C4970.55 16477.5 4931.17 16357.9 4954.08 16241.9C4999.72 16010.7 5261.96 15896.1 5462.68 16019.5Z" fill="#D9A692"/>
<path opacity="0.4" d="M7798.47 15135.2L7924 15009.2C8106.4 14826 8412.01 14861.4 8547.79 15081.3L8558.48 15098.6C8617.81 15194.7 8633.74 15311.4 8602.36 15419.9L8532.58 15661.1C8503.11 15763 8434.39 15849 8341.53 15900.2L8332.46 15905.2C8124 16020.2 7861.86 15928.7 7770.14 15709L7712.77 15571.6C7650.4 15422.2 7684.23 15249.9 7798.47 15135.2Z" fill="#D9A692"/>
<path opacity="0.4" d="M4539.55 11204.7L4563 11147.5C4629.98 10984.3 4834.78 10930.9 4972.99 11040.6C5106 11146.1 5106.8 11347.8 4974.62 11454.5L4926.56 11493.2C4871.14 11537.9 4799.25 11556.8 4729.03 11545.1C4571.26 11518.7 4478.83 11352.6 4539.55 11204.7Z" fill="#D9A692"/>
<path opacity="0.4" d="M6685.67 14422.4L6559.62 14457.1C6386.18 14504.9 6213.16 14379.5 6204.56 14199.8C6200.72 14119.7 6231.34 14041.8 6288.69 13985.7L6314.01 13960.9C6416.05 13861.1 6570.68 13838.2 6697.23 13904.2L6738.44 13925.7C6844.72 13981.1 6901.37 14100.3 6877.24 14217.7C6856.93 14316.5 6782.92 14395.6 6685.67 14422.4Z" fill="#D9A692"/>
<path opacity="0.4" d="M3000.19 19773.1L2826.75 19737.2C2588.11 19687.9 2456.76 19430.1 2557.19 19208C2601.97 19109 2686.96 19033.9 2790.72 19001.6L2868.99 18977.3C3034.2 18925.9 3213.74 18986.5 3313.94 19127.6L3370.08 19206.6C3464.08 19339 3458.92 19517.6 3357.42 19644.3C3272 19751 3134 19800.7 3000.19 19773.1Z" fill="#D9A692"/>
<path opacity="0.4" d="M2425.78 18772.9L2199.43 18796.4C1969.5 18820.3 1773.26 18631.8 1787.8 18401.1C1806.94 18097.7 2160.92 17942.8 2396.73 18134.6L2573.26 18278.2C2633.08 18326.9 2670.13 18398.1 2675.64 18475C2686.43 18625.5 2575.83 18757.4 2425.78 18772.9Z" fill="#D9A692"/>
<path opacity="0.4" d="M4464.69 10079.1L4593.33 10138.2C4897.65 10278 4905.74 10707.5 4606.89 10858.6L4533.13 10895.9C4468.74 10928.5 4396.74 10943 4324.76 10938L4206.73 10929.8C3894.51 10908 3727.15 10552.2 3909.41 10297.8L3972.55 10209.6C4084.15 10053.9 4290.55 9999.1 4464.69 10079.1Z" fill="#D9A692"/>
<path opacity="0.4" d="M652.318 11082.2L576.597 11047.3C360.23 10947.4 299.967 10668 455.958 10487.9C606.088 10314.6 878.229 10325.2 1014.45 10509.6L1063.98 10576.7C1121.09 10654.1 1142.39 10752.2 1122.5 10846.2C1077.82 11057.5 848.453 11172.7 652.318 11082.2Z" fill="#D9A692"/>
<path opacity="0.4" d="M722.315 17034.8L548.877 16998.9C310.238 16949.6 178.884 16691.8 279.311 16469.7C324.094 16370.7 409.087 16295.6 512.844 16263.3L591.112 16239C756.329 16187.6 935.867 16248.2 1036.06 16389.3L1092.2 16468.3C1186.21 16600.7 1181.04 16779.3 1079.55 16906C994.126 17012.7 856.12 17062.4 722.315 17034.8Z" fill="#D9A692"/>
<path opacity="0.4" d="M5973.32 19773.8L5799.88 19737.9C5561.24 19688.6 5429.88 19430.8 5530.31 19208.7C5575.09 19109.7 5660.09 19034.6 5763.84 19002.3L5842.11 18978C6007.33 18926.6 6186.87 18987.2 6287.06 19128.3L6343.2 19207.3C6437.21 19339.7 6432.04 19518.3 6330.55 19645C6245.13 19751.7 6107.12 19801.4 5973.32 19773.8Z" fill="#D9A692"/>
<path opacity="0.4" d="M9261.21 19135.7L9258.3 19022.8C9254.31 18867.5 9395.37 18748.5 9547.8 18778.7C9615.77 18792.1 9674.74 18834 9709.84 18893.7L9725.33 18920.1C9787.76 19026.4 9774.78 19160.8 9693.16 19253.1L9666.58 19283.2C9598.03 19360.8 9486.35 19383.5 9392.95 19338.9C9314.35 19301.3 9263.45 19222.8 9261.21 19135.7Z" fill="#D9A692"/>
<rect x="-0.5" y="0.5" width="7897" height="99" rx="39.5" transform="matrix(-1 0 0 1 11526 13981)" fill="#82A6B1" stroke="#82A6B1"/>
<rect x="-0.5" y="0.5" width="8189" height="134" rx="39.5" transform="matrix(-1 0 0 1 11818 14391)" fill="#82A6B1" stroke="#82A6B1"/>
<rect x="-0.5" y="0.5" width="11992" height="143" rx="39.5" transform="matrix(-1 0 0 1 15794 15687)" fill="#82A6B1" stroke="#82A6B1"/>
<rect x="-0.5" y="0.5" width="4353" height="99" rx="39.5" transform="matrix(-1 0 0 1 8291 16135)" fill="#82A6B1" stroke="#82A6B1"/>
<rect x="-0.5" y="0.5" width="7266" height="136" rx="39.5" transform="matrix(-1 0 0 1 15794 16135)" fill="#82A6B1" stroke="#82A6B1"/>
<rect x="-0.5" y="0.5" width="4533" height="530" rx="39.5" transform="matrix(-1 0 0 1 12985 725)" fill="#82A6B1" stroke="#82A6B1"/>
<rect x="-0.5" y="0.5" width="527" height="1415" rx="39.5" transform="matrix(-1 0 0 1 10652 1091)" fill="#82A6B1" stroke="#82A6B1"/>
<rect x="-0.5" y="0.5" width="9118" height="545" rx="39.5" transform="matrix(-1 0 0 1 15794 17395)" fill="#82A6B1" stroke="#82A6B1"/>
<rect x="-0.5" y="0.5" width="99" height="2878" rx="39.5" transform="matrix(-1 0 0 1 12193 14645)" fill="#82A6B1" stroke="#82A6B1"/>
<rect x="-0.5" y="0.5" width="146" height="1827" rx="39.5" transform="matrix(-1 0 0 1 15768 15696)" fill="#82A6B1" stroke="#82A6B1"/>
<rect x="-0.5" y="0.5" width="168" height="3048" rx="39.5" transform="matrix(-1 0 0 1 11793 14475)" fill="#82A6B1" stroke="#82A6B1"/>
<rect x="-0.5" y="0.5" width="150" height="3100" rx="39.5" transform="matrix(-1 0 0 1 8678 14449)" fill="#82A6B1" stroke="#82A6B1"/>
<rect x="-0.5" y="0.5" width="99" height="3126" rx="39.5" transform="matrix(-1 0 0 1 8627 14397)" fill="#82A6B1" stroke="#82A6B1"/>
<rect x="-0.5" y="0.5" width="126" height="3126" rx="39.5" transform="matrix(-1 0 0 1 8226 14397)" fill="#82A6B1" stroke="#82A6B1"/>
<rect x="-0.5" y="0.5" width="136" height="1427" rx="39.5" transform="matrix(-1 0 0 1 5727 14397)" fill="#82A6B1" stroke="#82A6B1"/>
<rect x="-0.5" y="0.5" width="510" height="1876" rx="39.5" transform="matrix(-1 0 0 1 3962 12194)" fill="#82A6B1" stroke="#82A6B1"/>
<rect x="-0.5" y="0.5" width="130" height="1427" rx="39.5" transform="matrix(-1 0 0 1 5279 14397)" fill="#82A6B1" stroke="#82A6B1"/>
<rect x="-0.5" y="0.5" width="177" height="1427" rx="39.5" transform="matrix(-1 0 0 1 4031 14397)" fill="#82A6B1" stroke="#82A6B1"/>
<path d="M15924.5 15980.5V15141.5C15924.5 14702.5 16005 14083 16154 13188.5C16255 12605.7 16452.5 11691.5 16452.5 11244C16452.5 11108.5 16452.5 10998 16452.5 10736M15925 16017.5V17430C15925 17568.1 15813.1 17680 15675 17680L6734.5 17680.5M16452.5 10708H18608.5" stroke="#82A6B1" stroke-width="530" stroke-linecap="round"/>
<path d="M5394 14236H3706.5V15730.5C3706.5 15868.6 3818.43 15980.5 3956.5 15980.5H5374.5M3661 14236H2092.5M3706.5 14189.5V12461.5" stroke="#82A6B1" stroke-width="510" stroke-linecap="round"/>
<path d="M11710 13981.5H11155C11133.2 13981.5 11115.5 13999.2 11115.5 14021V14909C11115.5 14930.8 11133.2 14948.5 11155 14948.5H12154C12175.8 14948.5 12193.5 14930.8 12193.5 14909V14465C12193.5 14198 11977 13981.5 11710 13981.5Z" fill="#82A6B1" stroke="#82A6B1"/>
<path d="M8451 15980.5H11939V14486C11939 14347.9 11827.1 14236 11689 14236H8372.5L8384 17680.5M8384 17680.5L15675 17680C15813.1 17680 15925 17568.1 15925 17430V16017.5M8384 17680.5H6734.5M11939 16037V17633.5M12029.5 15980.5H15924.5V15141.5C15924.5 14702.5 16005 14083 16154 13188.5C16255 12605.7 16452.5 11691.5 16452.5 11244C16452.5 11108.5 16452.5 11023 16452.5 10761M8296.5 14236H5436V15980.5H8296.5M5394 14236H3706.5V15730.5C3706.5 15868.6 3818.43 15980.5 3956.5 15980.5H5374.5M3661 14236H2092.5M3706.5 14189.5V11947.5C3706.5 11055 4526.5 11344 4885 10938C5243.5 10532 4635 10043 5232 9498.5C5829 8954 6520.28 9855.5 7232 9071.5C7596.17 8670.34 7002.5 8234 7011 7890C7019.5 7546 7408 7204 7924 7204C8336.8 7204 8983.5 7204 9258 7204M18604.5 10706.5H16452.5C15663.5 10706.5 15655.4 10102.3 15224.5 9845.5C14771.5 9575.5 14244.7 9982.93 13862 9845.5C13358 9664.5 13514.5 8588.5 12883 8588.5C12251.5 8588.5 12014.5 9161 11398 9199.5C10781.5 9238 11226 8020 10017.5 8332.5C9329.37 8510.44 9263.5 7796 9263.5 7280.5C9263.5 7246.67 9263.5 7119.8 9263.5 6883C9263.5 6587 9354.5 6237 9546.5 6001.5C9738.5 5766 9969.5 5613.5 10481 5450C10992.5 5286.5 10852.5 4395.5 10023 4597C9654.33 4686.56 9290.5 4528 9219 4198C9147.5 3868 9408 3544 9859 3421C10310 3298 10390 3017 10390 2605.5C10390 2189.5 10390 1301.8 10390 1079M3706.5 11461.5C3155 11133.5 2608 11120.3 2608 10612.5C2608 10121.5 3249.5 9949.5 3249.5 9160.5C3249.5 8359.75 2434.5 8634.5 2434.5 7530C2434.5 6927.38 3250.85 6502.58 3612.5 5847C3981 5179 4183.5 5027.5 4081 4106C3978.5 3184.5 2185 3007 2179 1941C2173 875.001 3509.5 267.001 4280.5 827.001C5051.5 1387 4678.5 1742.5 5443 1778.5C6207.5 1814.5 6322.5 2441 7081 2176C7839.5 1911 7430.5 989.5 8201 989.5C8971.5 989.5 12091.5 989.5 13031 989.5C14152 989.5 14406 1204.5 14280 1913.5C14183.8 2454.63 14187.5 2907.67 14745.5 3220C15635.5 3718.16 14977 4304.2 15329 4922.2C15681 5540.2 15525 5799.5 15085.5 6554C14826.4 6998.72 15583 7921.5 16505 7343C17427 6764.5 18654.7 7150.76 18435.5 8051.5C18209.5 8980 17368 8388.2 16897 8749.5C16414 9120 16452.5 9050 16452.5 9667.5C16452.5 10285 16452.5 10554.5 16452.5 10621" stroke="black" stroke-opacity="0.04" stroke-width="410" stroke-linecap="round"/>
<path d="M8451 15980.8H11939V14486.3C11939 14348.2 11827.1 14236.3 11689 14236.3H8372.5L8384 17680.8M8384 17680.8L15675 17680.3C15813.1 17680.3 15925 17568.4 15925 17430.3V16017.8M8384 17680.8H6734.5M11939 16037.3V17633.8M12029.5 15980.8H15924.5V15141.8C15924.5 14702.8 16005 14083.3 16154 13188.8C16255 12606 16452.5 11691.8 16452.5 11244.3C16452.5 11108.8 16452.5 11023.3 16452.5 10761.3M8296.5 14236.3H5436V15980.8H8296.5M5394 14236.3H3706.5V15730.8C3706.5 15868.9 3818.43 15980.8 3956.5 15980.8H5374.5M3661 14236.3H2092.5M3706.5 14189.8V11947.8C3706.5 11055.3 4526.5 11344.3 4885 10938.3C5243.5 10532.3 4635 10043.3 5232 9498.81C5829 8954.31 6520.28 9855.81 7232 9071.81C7596.17 8670.65 7002.5 8234.31 7011 7890.31C7019.5 7546.31 7408 7204.31 7924 7204.31C8336.8 7204.31 8983.5 7204.31 9258 7204.31M18604.5 10706.8H16452.5C15663.5 10706.8 15655.4 10102.6 15224.5 9845.81C14771.5 9575.81 14244.7 9983.24 13862 9845.81C13358 9664.81 13514.5 8588.81 12883 8588.81C12251.5 8588.81 12014.5 9161.31 11398 9199.81C10781.5 9238.31 11226 8020.31 10017.5 8332.81C9329.37 8510.75 9263.5 7796.31 9263.5 7280.81C9263.5 7246.98 9263.5 7120.11 9263.5 6883.31C9263.5 6587.31 9354.5 6237.31 9546.5 6001.81C9738.5 5766.31 9969.5 5613.81 10481 5450.31C10992.5 5286.81 10852.5 4395.81 10023 4597.31C9654.33 4686.87 9290.5 4528.31 9219 4198.31C9147.5 3868.31 9408 3544.31 9859 3421.31C10310 3298.31 10390 3017.31 10390 2605.81C10390 2189.81 10390 1302.11 10390 1079.31M3706.5 11461.8C3155 11133.8 2608 11120.6 2608 10612.8C2608 10121.8 3249.5 9949.81 3249.5 9160.81C3249.5 8360.06 2434.5 8634.81 2434.5 7530.31C2434.5 6927.69 3250.85 6502.89 3612.5 5847.31C3981 5179.31 4183.5 5027.81 4081 4106.31C3978.5 3184.81 2185 3007.31 2179 1941.31C2173 875.309 3509.5 267.309 4280.5 827.309C5051.5 1387.31 4678.5 1742.81 5443 1778.81C6207.5 1814.81 6322.5 2441.31 7081 2176.31C7839.5 1911.31 7430.5 989.809 8201 989.809C8971.5 989.809 12091.5 989.809 13031 989.809C14152 989.809 14406 1204.81 14280 1913.81C14183.8 2454.94 14187.5 2907.98 14745.5 3220.31C15635.5 3718.46 14977 4304.51 15329 4922.51C15681 5540.51 15525 5799.81 15085.5 6554.31C14826.4 6999.03 15583 7921.81 16505 7343.31C17427 6764.81 18654.7 7151.07 18435.5 8051.81C18209.5 8980.31 17368 8388.51 16897 8749.81C16414 9120.31 16452.5 9050.31 16452.5 9667.81C16452.5 10285.3 16452.5 10554.8 16452.5 10621.3" stroke="#1B4A67" stroke-width="310" stroke-linecap="round"/>
<path d="M8451 15980.5H11939V14486C11939 14347.9 11827.1 14236 11689 14236H8372.5L8384 17680.5M8384 17680.5L15675 17680C15813.1 17680 15925 17568.1 15925 17430V16017.5M8384 17680.5H6734.5M11939 16037V17633.5M12029.5 15980.5H15924.5V15141.5C15924.5 14702.5 16005 14083 16154 13188.5C16255 12605.7 16452.5 11691.5 16452.5 11244C16452.5 11108.5 16452.5 11023 16452.5 10761M8296.5 14236H5436V15980.5H8296.5M5394 14236H3706.5V15730.5C3706.5 15868.6 3818.43 15980.5 3956.5 15980.5H5374.5M3661 14236H2092.5M3706.5 14189.5V11947.5C3706.5 11055 4526.5 11344 4885 10938C5243.5 10532 4635 10043 5232 9498.5C5829 8954 6520.28 9855.5 7232 9071.5C7596.17 8670.34 7002.5 8234 7011 7890C7019.5 7546 7408 7204 7924 7204C8336.8 7204 8983.5 7204 9258 7204M18604.5 10706.5H16452.5C15663.5 10706.5 15655.4 10102.3 15224.5 9845.5C14771.5 9575.5 14244.7 9982.93 13862 9845.5C13358 9664.5 13514.5 8588.5 12883 8588.5C12251.5 8588.5 12014.5 9161 11398 9199.5C10781.5 9238 11226 8020 10017.5 8332.5C9329.37 8510.44 9263.5 7796 9263.5 7280.5C9263.5 7246.67 9263.5 7119.8 9263.5 6883C9263.5 6587 9354.5 6237 9546.5 6001.5C9738.5 5766 9969.5 5613.5 10481 5450C10992.5 5286.5 10852.5 4395.5 10023 4597C9654.33 4686.56 9290.5 4528 9219 4198C9147.5 3868 9408 3544 9859 3421C10310 3298 10390 3017 10390 2605.5C10390 2189.5 10390 1301.8 10390 1079M3706.5 11461.5C3155 11133.5 2608 11120.3 2608 10612.5C2608 10121.5 3249.5 9949.5 3249.5 9160.5C3249.5 8359.75 2434.5 8634.5 2434.5 7530C2434.5 6927.38 3250.85 6502.58 3612.5 5847C3981 5179 4183.5 5027.5 4081 4106C3978.5 3184.5 2185 3007 2179 1941C2173 875.001 3509.5 267.001 4280.5 827.001C5051.5 1387 4678.5 1742.5 5443 1778.5C6207.5 1814.5 6322.5 2441 7081 2176C7839.5 1911 7430.5 989.5 8201 989.5C8971.5 989.5 12091.5 989.5 13031 989.5C14152 989.5 14406 1204.5 14280 1913.5C14183.8 2454.63 14187.5 2907.67 14745.5 3220C15635.5 3718.16 14977 4304.2 15329 4922.2C15681 5540.2 15525 5799.5 15085.5 6554C14826.4 6998.72 15583 7921.5 16505 7343C17427 6764.5 18654.7 7150.76 18435.5 8051.5C18209.5 8980 17368 8388.2 16897 8749.5C16414 9120 16452.5 9050 16452.5 9667.5C16452.5 10285 16452.5 10554.5 16452.5 10621" stroke="#1C506F" stroke-width="200" stroke-linecap="round"/>
<path d="M10223.8 15121L9520.06 15098.1C9354.37 15092.7 9220.53 15232.1 9232.62 15397.4C9242.85 15537.3 9355.32 15647.9 9495.37 15655.7L9786 15672L10188.3 15652.8C10319.7 15646.6 10427.8 15546.9 10444.7 15416.4L10448.7 15385.4C10463.3 15272.5 10394.6 15165.3 10285.8 15131.4C10265.7 15125.2 10244.8 15121.7 10223.8 15121Z" fill="#BED3A0"/>
<path d="M4361.95 14765.4L4336.24 14773.7C4224.16 14809.8 4135.2 14895.9 4095.42 15006.8C4055.45 15118.2 4069.69 15241.8 4133.94 15341.2L4143.85 15356.5C4211.96 15461.8 4323.9 15530.9 4448.6 15544.5L4541.2 15554.6C4699.79 15571.8 4851.54 15485.3 4917.43 15340C4971.39 15221 4958.45 15082.4 4883.41 14975.4L4851.1 14929.4C4741.64 14773.4 4543.32 14706.9 4361.95 14765.4Z" fill="#BED3A0"/>
<path d="M14345.5 16510.7L14306.3 16546.3C14273.4 16576.2 14246.1 16611.7 14225.7 16651.2L14208.3 16684.9C14154.2 16789.7 14164 16916.2 14233.7 17011.4C14248.8 17032 14266.5 17050.8 14286.2 17067.1L14370.6 17137.1C14538.8 17276.7 14751.8 17350.8 14970.4 17345.9L15160.1 17341.6C15263.6 17339.3 15362.6 17298.5 15437.7 17227.1C15556 17114.7 15597.8 16943.5 15544.6 16789.1L15516.2 16707C15465.5 16559.9 15354.9 16441.1 15211.9 16379.8L15181.6 16366.9C15075 16321.2 14957.7 16306.1 14843 16323.2L14694.7 16345.2C14564.5 16364.6 14443 16422.2 14345.5 16510.7Z" fill="#BED3A0"/>
</g>
<defs>
<clipPath id="clip0_1798_2213">
<rect width="20000" height="20000" fill="white"/>
</clipPath>
</defs>
</svg>
