<svg width="20000" height="20000" viewBox="0 0 20000 20000" fill="none" xmlns="http://www.w3.org/2000/svg">
<g clip-path="url(#clip0_1800_3920)">
<path fill-rule="evenodd" clip-rule="evenodd" d="M8864.87 11127.8C8852.73 11125.6 8841.09 11121.2 8830.55 11114.8L7993.38 10608C7977.76 10598.5 7959.85 10593.5 7941.59 10593.5H6764.8C6735.43 10593.5 6707.55 10606.4 6688.55 10628.8L5851.5 11615.4C5817.86 11655 5820.21 11713.8 5856.91 11750.6L6565.5 12461.9C6581.37 12477.8 6591.41 12498.6 6593.99 12521L6666.82 13150.3C6668.58 13165.6 6673.83 13180.2 6682.15 13193.1L6691.54 13207.6L6689.53 13398.5L7060.71 13778.4C7078.68 13801.3 7105.89 13815.4 7135.3 13816.6L8517.33 13873C8540.4 13874 8563.08 13866.9 8581.53 13853L9283.79 13324.7C9297.06 13314.7 9312.59 13308.2 9329.01 13305.7L10162.7 13180.1C10190.6 13175.9 10219 13183.7 10240.8 13201.5L10863.2 13709C10890.9 13731.6 10928.6 13737.7 10962 13724.9L11895.4 13369.3C11914.7 13361.9 11935.7 13360.7 11955.7 13365.8L12528 13511.1L12452.1 14665.6L12850.7 15064.2C12864.1 15079.2 12881.8 15090.1 12902.1 15094.9L14083 15377.8C14112.7 15384.9 14144 15378 14168 15359.2L14723.9 14923.7C14741.5 14910 14753.9 14890.8 14759.3 14869.1L14911.9 14255.6C14920.1 14222.8 14944.3 14196.3 14976.3 14185.3L15542.1 13989.5C15574.4 13978.3 15598.8 13951.3 15606.7 13918L15935.8 12529.4C15944.7 12491.6 15931 12453.3 15902.6 12429.6L15512.5 12039.5L15066.8 11956.4L15093.3 11041.3C15094.2 11010.5 15081 10982.5 15059.5 10963.4L14664 10568L13851.8 10755.1L13236 10169.5C13217.4 10151.9 13192.7 10142 13167 10142H11269.5C11236.6 10142 11205.9 10158.2 11187.2 10185.2L10744.4 10827.5C10735.6 10840.3 10723.9 10850.9 10710.2 10858.4L9919.9 11292.5C9899.9 11303.5 9876.75 11307.3 9854.29 11303.3L8864.87 11127.8Z" fill="black" fill-opacity="0.15"/>
<path d="M8464.87 10727.8L9454.29 10903.3C9476.75 10907.3 9499.9 10903.5 9519.9 10892.5L10310.2 10458.4C10323.9 10450.9 10335.6 10440.3 10344.4 10427.5L10787.2 9785.24C10805.9 9758.17 10836.6 9742 10869.5 9742H12767C12792.7 9742 12817.4 9751.86 12836 9769.53L13523.1 10422.9C13539.6 10438.5 13560.8 10448.1 13583.4 10450L14602 10538.8C14654.8 10543.4 14694.8 10588.4 14693.3 10641.3L14664.6 11633.4C14663.3 11676 14689.2 11714.6 14729 11729.8L15474 12012.8C15520.9 12030.7 15547.3 12080.5 15535.8 12129.4L15206.7 13518C15198.8 13551.3 15174.4 13578.3 15142.1 13589.5L14576.2 13785.3C14544.3 13796.3 14520.1 13822.8 14511.9 13855.6L14359.3 14469.1C14353.9 14490.8 14341.5 14510 14323.9 14523.7L13768 14959.2C13744 14978 13712.7 14984.9 13683 14977.8L12502.1 14694.9C12466.3 14686.3 12438.1 14658.8 12428.7 14623.3L12243.7 13926.3C12240.3 13913.2 12239.5 13899.6 12241.4 13886.3L12333.1 13255.6C12340.4 13205 12308.3 13156.9 12258.7 13144.3L11555.7 12965.8C11535.7 12960.7 11514.7 12961.9 11495.4 12969.3L10562 13324.9C10528.6 13337.7 10490.9 13331.6 10463.2 13309L9840.81 12801.5C9818.96 12783.7 9790.6 12775.9 9762.72 12780.1L8929.01 12905.7C8912.59 12908.2 8897.05 12914.7 8883.79 12924.7L8181.53 13453C8163.08 13466.9 8140.4 13474 8117.33 13473L6735.3 13416.6C6702.82 13415.3 6673.01 13398.3 6655.37 13371L6282.15 12793.1C6273.83 12780.2 6268.58 12765.6 6266.82 12750.3L6193.99 12121C6191.41 12098.6 6181.37 12077.8 6165.5 12061.9L5456.91 11350.6C5420.21 11313.8 5417.86 11255 5451.5 11215.4L6288.55 10228.8C6307.55 10206.4 6335.43 10193.5 6364.8 10193.5H7541.59C7559.85 10193.5 7577.76 10198.5 7593.38 10208L8430.54 10714.8C8441.09 10721.2 8452.73 10725.6 8464.87 10727.8Z" fill="#BB816E"/>
<path d="M7930.95 12953.6L7060.54 12978.3C7022.82 12979.3 6987.71 12959.1 6969.76 12925.9L6701.96 12430.7C6664.99 12362.4 6716.69 12279.8 6794.31 12283.3L7502.49 12314.4C7518.93 12315.1 7534.94 12319.9 7549.09 12328.3L8095.33 12652.1C8151.59 12685.5 8161.21 12763 8114.83 12809.1L7998.62 12924.6C7980.57 12942.5 7956.38 12952.9 7930.95 12953.6Z" fill="#9A6A5A"/>
<path d="M11421.8 12476.4L10687.9 12744.2C10655.9 12755.9 10620.1 12750.5 10593 12729.8L10364.2 12555.3C10335.1 12533.1 10320.5 12496.7 10326 12460.6L10412.2 11900.4C10420.8 11845 10473.1 11807.4 10528.3 11817.1L11599.4 12004C11671.4 12016.6 11706 12099.7 11664.3 12159.7L11469.6 12439.5C11457.8 12456.4 11441.1 12469.3 11421.8 12476.4Z" fill="#9A6A5A"/>
<path d="M12855.7 14339.5L12667.4 14032.6C12655.5 14013.1 12650.6 13990.2 12653.5 13967.5L12736.6 13321.4C12746.5 13244.4 12836.4 13207.6 12897.4 13255.4L13530 13750.6C13567.8 13780.3 13579.2 13832.7 13557.1 13875.4L13278 14413.8C13255.5 14457.2 13204.9 14477.9 13158.4 14462.9L12910.1 14382.4C12887.5 14375 12868.2 14359.8 12855.7 14339.5Z" fill="#9A6A5A"/>
<path d="M14212.4 11048.8L13980.4 11867.4C13969 11907.5 13934 11936.3 13892.5 11939.8L13608.8 11963.5C13582.1 11965.7 13555.5 11957.1 13535.2 11939.6L13095.8 11560.8C13058.3 11528.4 13050.1 11473.5 13076.5 11431.6L13369.1 10968.1C13387.4 10939.1 13419.3 10921.5 13453.6 10921.5H14116.2C14182.6 10921.5 14230.5 10984.9 14212.4 11048.8Z" fill="#9A6A5A"/>
<path d="M11354.2 10197.6L12122.4 10208.8C12184 10209.7 12230.2 10265.6 12219.4 10326.3L12096.1 11018.8C12085.6 11077.4 12026.7 11113.9 11969.6 11097.3L11426.5 10938.7C11390.3 10928.2 11363.2 10898.1 11356.2 10861.1L11254.4 10315.9C11242.8 10253.8 11291 10196.7 11354.2 10197.6Z" fill="#9A6A5A"/>
<path d="M15129.6 12403L15071.8 12863.4C15067 12901.4 15041 12933.3 15004.8 12945.6L14440.2 13137.8C14422.4 13143.8 14403.3 13144.7 14385.1 13140.4L13563 12947C13511.6 12934.9 13478.4 12884.9 13487.3 12832.9L13557.4 12421.5C13563.3 12386.5 13587.4 12357.3 13620.6 12344.7L14411.6 12045.3C14435.9 12036.1 14462.8 12036.7 14486.7 12047L15070 12298.7C15110.9 12316.4 15135.2 12358.9 15129.6 12403Z" fill="#9A6A5A"/>
<path d="M9306.86 12036.5L9722.36 11332.5C9733.48 11313.7 9750.47 11299 9770.72 11290.8L10106.9 11153.7C10182.4 11122.8 10261.1 11190.6 10241.8 11269.9L10019 12187.2C10006.8 12237.3 9958.54 12269.9 9907.52 12262.5L9378.71 12186.3C9308.28 12176.1 9270.69 12097.8 9306.86 12036.5Z" fill="#9A6A5A"/>
<path d="M6573.32 11758.5L5986.22 11298.8C5936.49 11259.9 5934.87 11185.1 5982.87 11144.1L6257.03 10909.6C6299.98 10872.9 6364.81 10879 6400.12 10923.1L6898.29 11545.9C6940.53 11598.7 6919.28 11677.3 6856.19 11701.6L6670.95 11773.1C6638.11 11785.7 6601.03 11780.2 6573.32 11758.5Z" fill="#9A6A5A"/>
<path d="M7783.79 10635.3L8001.05 11130.2C8023.56 11181.4 7999.61 11241.2 7947.93 11262.7L7411.56 11486C7382.3 11498.2 7348.98 11495.8 7321.78 11479.5L6966.34 11266.8C6942.54 11252.6 6925.73 11229.1 6919.91 11202L6811.48 10696.5C6798.13 10634.2 6845.58 10575.5 6909.26 10575.5H7692.22C7731.9 10575.5 7767.83 10599 7783.79 10635.3Z" fill="#9A6A5A"/>
<path d="M12590.4 11714.8L11888 12478.8C11835.9 12535.4 11864.6 12627.1 11939.6 12644L12571 12786.4C12616.6 12796.7 12663.3 12774 12683.3 12731.8L13025.8 12011.2C13046.9 11966.7 13032.6 11913.5 12992 11885.7L12720.5 11699.9C12679.5 11671.8 12624 11678.2 12590.4 11714.8Z" fill="#9A6A5A"/>
<path d="M13165.7 10492.3L12877.2 10147.7C12828.4 10089.5 12735.2 10104.7 12707.4 10175.4L12580.2 10499.3C12571.7 10521.1 12571 10545.2 12578.4 10567.4L12669.7 10842.6C12691.5 10908.3 12771.9 10932.5 12826.4 10889.7L13150.8 10635.2C13195.2 10600.4 13202 10535.6 13165.7 10492.3Z" fill="#9A6A5A"/>
<path d="M9185.29 11135.8L8672.74 11020.7C8579.03 10999.6 8512.41 11109.9 8574.68 11183.1L8917.19 11585.3C8961.69 11637.6 9044.4 11630.5 9079.38 11571.5L9249.41 11284.4C9284.01 11225.9 9251.55 11150.7 9185.29 11135.8Z" fill="#9A6A5A"/>
<path d="M8727.31 11876.2L8990.67 12285C9016.23 12324.6 9010.58 12376.8 8977.11 12410.1L8700.91 12684.6C8669.54 12715.8 8621.41 12722.6 8582.56 12701.5L8098.16 12437.5C8073.54 12424.1 8055.69 12401 8048.94 12373.8L7937.43 11924.1C7921.29 11859.1 7972.49 11796.9 8039.45 11800.2L8648.21 11830.4C8680.41 11832.1 8709.85 11849.1 8727.31 11876.2Z" fill="#9A6A5A"/>
<path d="M10599.2 10530L10368.7 10768.1C10338 10799.8 10331.8 10847.9 10353.3 10886.4L10696.3 11499.9C10714.6 11532.5 10749.5 11552.2 10786.8 11551L11283.2 11535C11351.3 11532.8 11397.3 11464.6 11373.8 11400.6L11089.2 10625C11077 10591.8 11048.2 10567.6 11013.5 10561.1L10689.2 10501.2C10656.3 10495.2 10622.5 10506 10599.2 10530Z" fill="#9A6A5A"/>
<path d="M13938.6 13895.3L13639.8 13492.1C13589.9 13424.7 13640.1 13329.5 13723.9 13332.6L14363.6 13356.1C14458 13359.5 14495.4 13479.8 14419.7 13536.2L14319.9 13610.5C14312.4 13616.1 14305.6 13622.8 14300 13630.3L14098.6 13896.1C14058.3 13949.3 13978.3 13948.9 13938.6 13895.3Z" fill="#9A6A5A"/>
<path d="M13509.8 14451.5L13653.6 14131.6C13677.9 14077.5 13743.6 14056.3 13794.9 14086L14010.9 14211.1C14071.1 14246 14078.2 14330.2 14024.6 14374.6L13789.8 14569.5C13771.8 14584.3 13749.2 14592.5 13725.9 14592.5H13601.1C13528.5 14592.5 13480.1 14517.7 13509.8 14451.5Z" fill="#9A6A5A"/>
<path fill-rule="evenodd" clip-rule="evenodd" d="M18703.7 2171.06C18715.1 2175.98 18725.5 2182.99 18734.4 2191.73L19153.6 2605.24L19365.5 2460L19850.3 2944.85C19869.6 2957.31 19884.1 2976.11 19891.2 2998.27L20077.5 3580.83C20083.7 3600.15 20083.8 3620.9 20078 3640.31L19834.8 4442.13C19830.7 4455.88 19823.6 4468.57 19814.1 4479.34L19193.4 5181.4C19175.3 5201.9 19166.3 5228.93 19168.7 5256.19L19245.5 6150.86C19249.3 6195.58 19222.9 6237.37 19180.9 6253.09L18114.9 6651.67C18077.1 6665.8 18034.5 6655.84 18006.9 6626.41L17962 6578.51L17526.5 6143L17540.6 6129.21L17315.6 5889.23C17309.2 5882.44 17301.9 5876.58 17294 5871.8L16298.9 5277.05C16289.5 5271.41 16281.1 5264.32 16274.1 5256.12L15778.5 4760.5L16119.5 4756.5L16167.8 4834.43L15944.4 3836.64C15938.7 3811.22 15943.1 3784.59 15956.8 3762.4L16278.3 3239.46C16288.6 3222.85 16293.7 3203.62 16293.1 3184.13L16269.5 2384.93C16268.1 2335.74 16302.6 2292.8 16351 2283.71L17080.4 2146.56C17089.4 2144.86 17098.2 2141.93 17106.4 2137.85L17770.5 1808.09C17796.8 1795.03 17827.5 1794.19 17854.5 1805.79L18703.7 2171.06Z" fill="black" fill-opacity="0.15"/>
<path d="M18203.7 1671.06L17354.5 1305.79C17327.5 1294.19 17296.8 1295.03 17270.5 1308.09L16606.4 1637.85C16598.2 1641.93 16589.4 1644.86 16580.4 1646.56L15851 1783.71C15802.6 1792.8 15768.1 1835.74 15769.5 1884.93L15793.1 2684.13C15793.7 2703.62 15788.6 2722.85 15778.3 2739.46L15456.8 3262.4C15443.1 3284.59 15438.7 3311.22 15444.4 3336.64L15752.6 4713.06C15758.6 4739.84 15775.3 4762.97 15798.9 4777.05L16794 5371.8C16801.9 5376.58 16809.2 5382.44 16815.6 5389.23L17506.9 6126.41C17534.5 6155.84 17577.1 6165.8 17614.9 6151.67L18680.9 5753.09C18722.9 5737.37 18749.3 5695.58 18745.5 5650.86L18668.7 4756.19C18666.3 4728.93 18675.3 4701.9 18693.4 4681.4L19314.1 3979.34C19323.6 3968.57 19330.7 3955.88 19334.8 3942.13L19578 3140.31C19583.8 3120.9 19583.7 3100.15 19577.5 3080.83L19391.2 2498.27C19382.2 2470.2 19361.3 2447.52 19334 2436.28L18759.6 2199.48C18747.7 2194.54 18736.8 2187.32 18727.5 2178.22L18234.4 1691.73C18225.5 1682.99 18215.1 1675.98 18203.7 1671.06Z" fill="#BB816E"/>
<path d="M17252.9 1789.42L16365.2 2055.08C16329.4 2065.78 16302.6 2095.52 16295.6 2132.19L16236.8 2441.63C16229.8 2478.14 16243.7 2515.48 16272.8 2538.6L16878 3019.63C16905.6 3041.56 16942.7 3047.35 16975.7 3034.86L17766.7 2735.12C17796.7 2723.74 17819.4 2698.63 17827.8 2667.61L17984.4 2085.89C17998.6 2033.22 17968 1978.9 17915.6 1963.8L17309.2 1789.13C17290.8 1783.82 17271.2 1783.92 17252.9 1789.42Z" fill="#9A6A5A"/>
<path d="M19065.9 2761.14L18658.9 2569.95C18619.6 2551.5 18572.9 2560.49 18543.3 2592.2L17983.3 3191.66C17949.9 3227.36 17947.2 3281.91 17976.9 3320.7L18420.3 3900.02C18452 3941.49 18510.3 3951.56 18554.1 3923.14L19102.3 3567.45C19131.9 3548.26 19149.2 3514.92 19147.8 3479.69L19123.4 2847.79C19121.9 2810.44 19099.8 2777.03 19065.9 2761.14Z" fill="#9A6A5A"/>
<path d="M17461.2 5565.84L18192.6 5614.02C18247.1 5617.61 18294.5 5576.69 18298.8 5522.17L18393.3 4335.56C18397.6 4281.74 18358.4 4234.24 18304.7 4228.25L17616 4151.3C17583.4 4147.67 17551.1 4160.2 17529.6 4184.86L17003.7 4786.27C16974.5 4819.62 16970.8 4868.18 16994.5 4905.6L17383.3 5519.56C17400.4 5546.54 17429.3 5563.74 17461.2 5565.84Z" fill="#9A6A5A"/>
<path d="M15926.3 3636.34L16062.5 3265.82C16077.9 3223.91 16119.2 3197.28 16163.7 3200.59L16756.5 3244.62C16818.7 3249.25 16861.6 3309.08 16845.9 3369.47L16756.1 3715.7C16744.3 3760.91 16702.9 3791.98 16656.2 3790.53L16017.1 3770.78C15948.9 3768.68 15902.8 3700.39 15926.3 3636.34Z" fill="#9A6A5A"/>
<path d="M16399.4 4779.05L16037.6 4234.58C15995.8 4171.76 16036 4087.09 16111.1 4079.71L16959.5 3996.23C17046.8 3987.64 17102.1 4087.64 17048.3 4157L16561.8 4784.95C16519.9 4839.01 16437.3 4836.01 16399.4 4779.05Z" fill="#9A6A5A"/>
<path d="M17051.6 3371.57L17221.5 3159.49C17240.5 3135.79 17269.2 3122 17299.5 3122H17618.9C17655.1 3122 17688.5 3141.53 17706.2 3173.08L18045.8 3778.51C18081.9 3842.95 18038.1 3922.99 17964.3 3927.27L17605.1 3948.12C17578.8 3949.64 17552.9 3940.72 17533.1 3923.28L17063.5 3509.08C17023.5 3473.77 17018.2 3413.24 17051.6 3371.57Z" fill="#9A6A5A"/>
<path fill-rule="evenodd" clip-rule="evenodd" d="M14537.9 5851.44L14144.5 5458L13865.5 5666.5L14017.2 5818.15L13782.7 5811.12C13758.7 5810.4 13735.2 5818.35 13716.6 5833.52L12826.4 6558.2C12812.1 6569.84 12794.8 6577.3 12776.6 6579.75L11495.7 6751.85C11446 6758.52 11409 6800.88 11409 6850.96V7728L11297.5 7616.5L11037.5 7853L11434.1 8249.62C11446.5 8263.62 11462.9 8274.22 11481.8 8279.57L12617.6 8600.47C12636.1 8605.71 12655.8 8605.47 12674.2 8599.79L13314.5 8402.25C13341.9 8393.82 13364.3 8374.1 13376.1 8348.07L13651.1 7742.97C13661 7721.06 13678.5 7703.48 13700.4 7693.45L14746.8 7213.64C14788.6 7194.47 14812 7149.25 14803.4 7104.06L14577 5913.37C14572.1 5887.8 14557.8 5866.01 14537.9 5851.44Z" fill="black" fill-opacity="0.15"/>
<path d="M14403.4 6704.06L14177 5513.37C14168.2 5467.3 14128.6 5433.5 14081.8 5432.09L13382.7 5411.12C13358.7 5410.4 13335.2 5418.35 13316.6 5433.52L12426.4 6158.2C12412.1 6169.84 12394.8 6177.3 12376.6 6179.75L11095.7 6351.85C11046 6358.52 11009 6400.88 11009 6450.96V7783.34C11009 7828.1 11038.7 7867.4 11081.8 7879.57L12217.6 8200.47C12236.1 8205.71 12255.8 8205.48 12274.2 8199.79L12914.5 8002.25C12941.9 7993.82 12964.3 7974.1 12976.1 7948.07L13251.1 7342.97C13261 7321.06 13278.5 7303.48 13300.4 7293.45L14346.8 6813.64C14388.6 6794.47 14412 6749.25 14403.4 6704.06Z" fill="#BB816E"/>
<path d="M11865.6 7749.84L11381 7299.26C11348.9 7269.38 11340 7222.05 11359.1 7182.54L11580.5 6724.1C11598.7 6686.46 11638.4 6664.1 11680 6668.03L12259.6 6722.73C12292.8 6725.86 12322.3 6745.36 12338.2 6774.72L12658.2 7366.56C12686.4 7418.78 12663.2 7483.95 12608.3 7506.57L11971.8 7769.06C11935.7 7783.95 11894.2 7776.45 11865.6 7749.84Z" fill="#9A6A5A"/>
<path d="M12927.9 6349.84L13212.6 5994.22C13222.7 5981.6 13235.7 5971.61 13250.6 5965.12L13748 5747.24C13804.9 5722.32 13870.5 5754.76 13885.3 5815.1L14043.4 6462.12C14055.2 6510.47 14029.7 6560.14 13983.5 6578.67L13509.1 6768.97C13480.9 6780.29 13449.1 6778.16 13422.6 6763.18L12956.7 6499.36C12903.1 6469.01 12889.4 6397.91 12927.9 6349.84Z" fill="#9A6A5A"/>
<path fill-rule="evenodd" clip-rule="evenodd" d="M4006.62 4539.12C4031.87 4560.43 4044.97 4592.84 4041.6 4625.73L3990.28 5126.79C3987.25 5156.38 3971.21 5183.09 3946.51 5199.65L3296.75 5635.46C3252.97 5664.83 3195 5654.83 3163.16 5615.15L2873 5325L2951.44 5237.54L2777.73 4925.32C2756.71 4887.54 2762.35 4840.54 2791.7 4808.8L3398.3 4152.95C3434.53 4113.78 3495.12 4109.95 3535.99 4144.24L3682.72 4267.35L3714 4246.5L4006.62 4539.12Z" fill="black" fill-opacity="0.15"/>
<path d="M3706.4 4238.93L3235.99 3844.24C3195.12 3809.95 3134.53 3813.78 3098.3 3852.95L2491.7 4508.8C2462.35 4540.54 2456.71 4587.54 2477.73 4625.32L2853.66 5301.03C2882.11 5352.16 2948.17 5368.05 2996.75 5335.46L3646.51 4899.65C3671.21 4883.09 3687.25 4856.38 3690.28 4826.79L3741.6 4325.73C3744.98 4292.75 3731.79 4260.24 3706.4 4238.93Z" fill="#BB816E"/>
<path d="M2835.55 4586.49L3013.75 4309.06C3044.45 4261.28 3108.73 4248.62 3155.25 4281.19L3451.91 4488.92C3503.66 4525.15 3509.26 4599.69 3463.51 4643.25L3160.97 4931.33C3118.33 4971.93 3050 4967.08 3013.52 4920.86L2841.18 4702.49C2814.75 4668.99 2812.48 4622.4 2835.55 4586.49Z" fill="#9A6A5A"/>
<path fill-rule="evenodd" clip-rule="evenodd" d="M16943.1 6479.12C16968.4 6500.43 16981.5 6532.84 16978.1 6565.73L16926.8 7066.79C16923.8 7096.38 16907.7 7123.09 16883 7139.65L16233.3 7575.46C16189.5 7604.83 16131.5 7594.83 16099.7 7555.15L15809.5 7265L15887.9 7177.54L15714.2 6865.32C15693.2 6827.54 15698.8 6780.54 15728.2 6748.8L16334.8 6092.95C16371 6053.78 16431.6 6049.95 16472.5 6084.24L16619.2 6207.35L16650.5 6186.5L16943.1 6479.12Z" fill="black" fill-opacity="0.15"/>
<path d="M16642.9 6178.93L16172.5 5784.24C16131.6 5749.95 16071 5753.78 16034.8 5792.95L15428.2 6448.8C15398.8 6480.54 15393.2 6527.54 15414.2 6565.32L15790.2 7241.03C15818.6 7292.16 15884.7 7308.05 15933.3 7275.46L16583 6839.65C16607.7 6823.09 16623.8 6796.38 16626.8 6766.79L16678.1 6265.73C16681.5 6232.75 16668.3 6200.24 16642.9 6178.93Z" fill="#BB816E"/>
<path d="M15772 6526.49L15950.3 6249.06C15980.9 6201.28 16045.2 6188.62 16091.7 6221.19L16388.4 6428.92C16440.2 6465.15 16445.8 6539.69 16400 6583.25L16097.5 6871.33C16054.8 6911.93 15986.5 6907.08 15950 6860.86L15777.7 6642.49C15751.2 6608.99 15749 6562.4 15772 6526.49Z" fill="#9A6A5A"/>
<path fill-rule="evenodd" clip-rule="evenodd" d="M14169.8 2703.37C14190.1 2720.42 14202.8 2744.85 14205.1 2771.27L14250.9 3294.76C14252.9 3317.86 14246.8 3340.96 14233.7 3360.08L14003 3695.99C13988.3 3717.48 13965.7 3732.35 13940.1 3737.45L13432.5 3838.73C13392.1 3846.8 13351.1 3829.22 13329 3794.96L13038 3504L13111.7 3404.85L12932.2 3082.32C12911.2 3044.54 12916.9 2997.54 12946.2 2965.8L13552.8 2309.95C13589 2270.78 13649.6 2266.95 13690.5 2301.24L13837.2 2424.35L13868.5 2403.5L14161.1 2696.11L14169.8 2703.37Z" fill="black" fill-opacity="0.15"/>
<path d="M13869.8 2403.37L13390.5 2001.24C13349.6 1966.95 13289 1970.78 13252.8 2009.95L12646.2 2665.8C12616.8 2697.54 12611.2 2744.54 12632.2 2782.32L13025.6 3489.28C13046.7 3527.25 13089.9 3547.23 13132.5 3538.73L13640.1 3437.45C13665.7 3432.35 13688.3 3417.48 13703 3395.99L13933.7 3060.08C13946.8 3040.96 13952.9 3017.86 13950.9 2994.76L13905.1 2471.27C13902.8 2444.85 13890.1 2420.42 13869.8 2403.37Z" fill="#BB816E"/>
<path d="M13193.8 3176.12L13008.5 2808.59C12990.4 2772.51 12995.7 2729.03 13022 2698.39L13229.2 2457.31C13262.4 2418.7 13319.3 2411.19 13361.4 2439.87L13575.3 2585.72C13608.5 2608.32 13624.9 2648.55 13617.1 2687.91L13557.8 2985.06C13553.7 3005.51 13543.3 3024.17 13528.1 3038.43L13351.5 3204.05C13302.8 3249.72 13223.9 3235.74 13193.8 3176.12Z" fill="#9A6A5A"/>
<path fill-rule="evenodd" clip-rule="evenodd" d="M3698.11 6850.02C3675.78 6858.72 3657.32 6875.14 3646.08 6896.3L3182.49 7769.49L2978.5 7565.5L2855 7669L3150.05 7964.05C3155.44 7970.46 3161.72 7976.28 3168.85 7981.31L4194.39 8706.65C4226.17 8729.12 4268.1 8731.12 4301.87 8711.76L5416.63 8072.69C5453.41 8051.6 5472.89 8009.61 5465.25 7967.91L5288.16 7001.09C5283.56 6975.98 5269.54 6953.59 5248.97 6938.49L5245.28 6935.78L4965.5 6656L4913.25 6692.07L4676.78 6518.51C4649.21 6498.26 4613.19 6493.52 4581.31 6505.94L3698.11 6850.02Z" fill="black" fill-opacity="0.15"/>
<path d="M3398.11 6550.02L4281.31 6205.94C4313.19 6193.52 4349.21 6198.26 4376.78 6218.51L4948.97 6638.49C4969.54 6653.59 4983.56 6675.98 4988.16 6701.09L5165.25 7667.91C5172.89 7709.61 5153.41 7751.6 5116.63 7772.69L4001.87 8411.76C3968.1 8431.12 3926.17 8429.12 3894.39 8406.65L2868.85 7681.31C2827.77 7652.26 2814.67 7597.21 2838.27 7552.78L3346.08 6596.3C3357.32 6575.14 3375.78 6558.72 3398.11 6550.02Z" fill="#BB816E"/>
<path d="M4691.48 7251.71L4270.41 6811.53C4247.9 6788 4215.34 6776.91 4183.15 6781.79L3849.18 6832.45C3821.65 6836.63 3797.11 6852.09 3781.46 6875.13L3423.71 7401.77C3389.2 7452.57 3408.21 7522.19 3463.76 7548.4L3989.8 7796.58C4021.29 7811.44 4058.25 7808.84 4087.36 7789.73L4674.11 7404.43C4726.34 7370.13 4734.67 7296.86 4691.48 7251.71Z" fill="#9A6A5A"/>
<path fill-rule="evenodd" clip-rule="evenodd" d="M8438.24 7829.22C8388.35 7796.11 8320.74 7813.96 8293.71 7867.39L7922.67 8600.75C7906.76 8632.22 7908.58 8669.74 7927.49 8699.51L8476.58 9564.13L8418 9631L8694.89 9907.89C8709.7 9930.7 8733.18 9946.51 8759.91 9951.64L9190.88 10034.4C9214.8 10039 9239.58 10034.7 9260.56 10022.3L9548.16 9852.54C9587.96 9829.05 9606.48 9781.36 9592.97 9737.17L9165.48 8339.26C9161.13 8325.03 9153.69 8312.05 9143.81 8301.19L9144 8301L8844 8001L8785.36 8059.64L8438.24 7829.22Z" fill="black" fill-opacity="0.15"/>
<path d="M8194.15 7736.22L8810.95 7987.08C8838.82 7998.42 8860.11 8021.7 8868.91 8050.47L9292.96 9437.17C9306.48 9481.36 9287.96 9529.05 9248.16 9552.54L8960.56 9722.29C8939.58 9734.67 8914.8 9738.97 8890.87 9734.37L8459.91 9651.64C8432.85 9646.45 8409.12 9630.31 8394.35 9607.04L7635.85 8412.68C7612.67 8376.18 7615.57 8328.92 7643.04 8295.53L8079.26 7765.32C8107.06 7731.52 8153.61 7719.73 8194.15 7736.22Z" fill="#BB816E"/>
<path d="M8038.03 8325.98L8397.06 8102.85C8450.11 8069.89 8520.06 8093.07 8542.91 8151.2L8967.91 9232.34C8988.88 9285.69 8960.81 9345.71 8906.43 9363.81L8743.23 9418.13C8700.79 9432.25 8654.13 9416.48 8628.97 9379.5L8008.14 8467.17C7976.15 8420.17 7989.74 8355.99 8038.03 8325.98Z" fill="#9A6A5A"/>
<g filter="url(#filter0_d_1800_3920)">
<path fill-rule="evenodd" clip-rule="evenodd" d="M17598.8 8527.3L17352 8280.5L17382.4 8228.53L17324.1 8147.97C17302.5 8118.12 17299 8078.81 17315.1 8045.66L17430 7808.95C17445.3 7777.38 17476 7756.14 17511 7753L17669.3 7738.77L17833.5 7458.5L18098.3 7724.82C18107.7 7731.6 18116 7740.06 18122.7 7749.96L18381.7 8133.88C18416.2 8185.03 18396.6 8254.91 18340.5 8280.67L17724.6 8563.72C17694.1 8577.74 17659.6 8575.22 17632.1 8559.01L17631.5 8560L17628 8556.47C17618 8549.96 17609.1 8541.59 17601.8 8531.51L17598.8 8527.3Z" fill="black" fill-opacity="0.15"/>
<path d="M17241 7483L17760.8 7436.29C17797.1 7433.03 17832.3 7449.76 17852.7 7479.96L18111.7 7863.88C18146.2 7915.03 18126.6 7984.91 18070.5 8010.67L17454.6 8293.72C17411.2 8313.64 17359.8 8300.16 17331.8 8261.51L17054.1 7877.97C17032.5 7848.12 17029 7808.81 17045.1 7775.66L17160 7538.95C17175.3 7507.38 17206 7486.14 17241 7483Z" fill="#BB816E"/>
<path d="M17384.3 7651.54L17643.2 7633.62C17676 7631.35 17707.7 7645.3 17728.2 7670.94L17818.9 7784.42C17861.7 7837.9 17839.3 7917.55 17774.9 7940.87L17560.1 8018.72C17519.3 8033.49 17473.7 8020.32 17447.1 7986.09L17312.2 7812.69C17263.1 7749.5 17304.4 7657.07 17384.3 7651.54Z" fill="#9A6A5A"/>
</g>
<g filter="url(#filter1_d_1800_3920)">
<path fill-rule="evenodd" clip-rule="evenodd" d="M2332.8 6964.3L2086 6717.5L2116.44 6665.53L2058.1 6584.97C2036.49 6555.12 2033.04 6515.81 2049.12 6482.66L2163.96 6245.95C2179.28 6214.38 2210.03 6193.14 2244.98 6190L2403.33 6175.77L2567.5 5895.5L2832.34 6161.82C2841.72 6168.6 2850 6177.06 2856.68 6186.96L3115.65 6570.88C3150.15 6622.03 3130.57 6691.91 3074.51 6717.67L2458.6 7000.72C2428.08 7014.74 2393.58 7012.22 2366.06 6996.01L2365.5 6997L2361.97 6993.47C2352.04 6986.96 2343.15 6978.59 2335.85 6968.51L2332.8 6964.3Z" fill="black" fill-opacity="0.15"/>
<path d="M1974.98 5920L2494.83 5873.29C2531.12 5870.03 2566.31 5886.76 2586.68 5916.96L2845.65 6300.88C2880.15 6352.03 2860.57 6421.91 2804.51 6447.67L2188.6 6730.72C2145.24 6750.64 2093.84 6737.16 2065.85 6698.51L1788.1 6314.97C1766.49 6285.12 1763.04 6245.81 1779.12 6212.66L1893.96 5975.95C1909.28 5944.38 1940.03 5923.14 1974.98 5920Z" fill="#BB816E"/>
<path d="M2118.28 6088.54L2377.21 6070.62C2409.96 6068.35 2441.73 6082.3 2462.23 6107.94L2552.93 6221.42C2595.67 6274.9 2573.25 6354.55 2508.89 6377.87L2294.11 6455.72C2253.35 6470.49 2207.71 6457.32 2181.09 6423.09L2046.24 6249.69C1997.1 6186.5 2038.42 6094.07 2118.28 6088.54Z" fill="#9A6A5A"/>
</g>
<path fill-rule="evenodd" clip-rule="evenodd" d="M8954.56 4999.87C8958.12 5016.99 8957.14 5034.75 8951.7 5051.37L8718.5 5764L8650.41 6031.73C8638.57 6078.3 8595.29 6109.86 8547.33 6106.9L7610.1 6049.02C7599.11 6048.35 7588.08 6049.49 7577.47 6052.4L5953.79 6498.03C5917 6508.13 5878.03 6496.37 5852.96 6468.46L5355.5 5971L5438.51 5895.11C5427.54 5886.09 5414.71 5879.45 5400.8 5875.73L4896.16 5740.98C4876.1 5735.62 4859.13 5724.55 4846.49 5709.99L4341 5204.5H4947.5L5011.2 4988.64C5015.03 4975.68 5016.19 4962.08 5014.61 4948.66L4893.27 3917.06C4888.56 3877.04 4908.33 3838.11 4943.42 3818.3L5676.92 3404.16C5693.31 3394.91 5711.97 3390.47 5730.77 3391.35L6646.93 3434.38C6669.32 3435.43 6690.72 3443.98 6707.67 3458.65L7207.77 3891.44C7225.37 3906.67 7247.73 3915.28 7271 3915.8L8161.64 3935.49L8296 3831.5L8793.36 4328.86C8797.38 4332.29 8801.1 4336.02 8804.5 4340.01L8807 4342.5L8806.76 4342.74C8816.37 4354.84 8823.13 4369.12 8826.34 4384.53L8954.56 4999.87Z" fill="black" fill-opacity="0.15"/>
<path d="M8454.56 4499.87L8326.34 3884.53C8320.99 3858.87 8305.79 3836.34 8284.01 3821.78L7731.72 3452.69C7715.9 3442.12 7697.39 3436.28 7678.37 3435.86L6771 3415.8C6747.73 3415.28 6725.37 3406.67 6707.77 3391.44L6207.67 2958.65C6190.72 2943.98 6169.32 2935.43 6146.93 2934.38L5230.77 2891.35C5211.97 2890.47 5193.31 2894.91 5176.92 2904.16L4443.42 3318.3C4408.33 3338.11 4388.56 3377.04 4393.27 3417.06L4514.61 4448.66C4516.19 4462.08 4515.03 4475.68 4511.2 4488.64L4326.05 5116.06C4310.13 5170.01 4341.82 5226.47 4396.16 5240.98L4900.8 5375.73C4923.23 5381.72 4942.88 5395.33 4956.38 5414.23L5345.95 5959.72C5370.31 5993.83 5413.36 6009.13 5453.79 5998.03L7077.47 5552.4C7088.08 5549.49 7099.11 5548.35 7110.1 5549.02L8047.33 5606.9C8095.29 5609.86 8138.57 5578.3 8150.41 5531.73L8218.5 5264L8451.7 4551.37C8457.14 4534.75 8458.12 4516.99 8454.56 4499.87Z" fill="#BB816E"/>
<path d="M5901.53 3345.69L5447.49 3293.38C5364.84 3283.86 5307.39 3373.54 5350.58 3444.64L5588.17 3835.8C5626.6 3899.07 5718.06 3900.11 5757.91 3837.72L5974.36 3498.86C6014.14 3436.58 5974.95 3354.14 5901.53 3345.69Z" fill="#9A6A5A"/>
<path d="M4864.32 4363.6L4822.73 3751.47C4817.51 3674.71 4897.32 3621.06 4966.44 3654.86L5283.4 3809.9C5322 3828.78 5344.22 3870.2 5338.61 3912.8L5263.7 4481.26C5254.49 4551.21 5177.67 4589.88 5116 4555.61L4915.52 4444.23C4885.89 4427.77 4866.61 4397.42 4864.32 4363.6Z" fill="#9A6A5A"/>
<path d="M4779.29 4830.5L4807.45 4783.01C4825.46 4752.63 4858.15 4734 4893.47 4734H5563.43C5612.69 4734 5654.61 4769.88 5662.22 4818.55L5746.16 5355.14C5759.4 5439.81 5666.99 5500.82 5594.33 5455.38L4812.29 4966.28C4766.25 4937.48 4751.6 4877.21 4779.29 4830.5Z" fill="#9A6A5A"/>
<path d="M5806.1 4527.24L5821.3 4105.51C5822.38 4075.73 5836.67 4047.99 5860.29 4029.83L6178.62 3785.13C6190.71 3775.83 6204.77 3769.43 6219.72 3766.4L6696.68 3669.84C6715.49 3666.03 6735.01 3667.71 6752.9 3674.7L7179.23 3841.18C7231.11 3861.45 7256.44 3920.19 7235.56 3971.83L6979.32 4605.41C6963.53 4644.47 6924.94 4669.44 6882.84 4667.85L5902.25 4630.77C5847.13 4628.69 5804.11 4582.36 5806.1 4527.24Z" fill="#9A6A5A"/>
<path d="M8104.12 4396.9L8011.49 4092.93C8004.71 4070.68 7990.38 4051.48 7970.97 4038.65L7698.29 3858.44C7636.94 3817.88 7554.26 3855.21 7544.11 3928.06L7463.63 4505.66C7454.07 4574.24 7515.41 4631.54 7583.18 4617.34L8028.98 4523.93C8086.47 4511.88 8121.25 4453.1 8104.12 4396.9Z" fill="#9A6A5A"/>
<path d="M7382.08 5058.06L7619.16 5230.33C7672.01 5268.73 7746.9 5246.96 7770.93 5186.2L7853.29 4977.93C7881.03 4907.78 7824.07 4833.34 7749.1 4841.79L7429.66 4877.79C7338.97 4888.01 7308.24 5004.41 7382.08 5058.06Z" fill="#9A6A5A"/>
<path d="M6199.85 5336.78L6205.43 5078.91C6206.37 5035.71 6234.95 4997.99 6276.29 4985.41L6676.17 4863.71C6706.56 4854.46 6739.54 4860.2 6765.02 4879.18L7040.52 5084.38C7107.96 5134.62 7087.06 5240.6 7005.59 5261.46L6324.63 5435.82C6260.51 5452.24 6198.42 5402.95 6199.85 5336.78Z" fill="#9A6A5A"/>
<path fill-rule="evenodd" clip-rule="evenodd" d="M18542 11711.2C18530.8 11714.4 18520.1 11719.5 18510.6 11726.4L17945 12134.5C17904.8 12163.5 17891.9 12217.6 17914.8 12261.6L18022.2 12468.7C18044.8 12512.3 18032.3 12566 17992.7 12595.2L17616.9 12872.3C17586.1 12895.1 17571 12933.4 17578 12971.1L17677.6 13505.9C17682.9 13534.5 17675.5 13564.1 17657.3 13586.8L17298 14035.1C17283.8 14052.8 17276 14074.9 17276 14097.6V14422.2C17276 14431 17274.8 14439.8 17272.5 14448.3L17102 15079.9L16853 15172L17331.9 15650.9C17345.7 15674.3 17368.6 15691.2 17395.2 15697.5L17673.7 15762.6L17480 15948.5L17968.2 16436.7C17979 16450.3 17993.3 16460.9 18009.8 16467.4L18597 16698.8C18602.3 16700.9 18607.8 16702.6 18613.4 16703.7L19391 16864.3C19399.6 16866.1 19408.4 16866.7 19417.2 16866.2L19856 16840C19866.9 16839.3 19877.7 16836.9 19887.8 16832.8L20424.7 16613.7C20457.7 16600.3 20481 16570.3 20486 16535L20687.7 15096.6C20690.5 15076.7 20687.2 15056.4 20678.3 15038.3L20208.5 14089.7C20199.7 14072 20196.4 14052 20198.9 14032.4L20397.8 12500.9C20400.5 12479.8 20396.5 12458.5 20386.3 12439.9L19901 11555.9C19883.4 11523.9 19849.8 11504 19813.3 11504H19291.8C19282.6 11504 19273.5 11505.3 19264.7 11507.7L18542 11711.2Z" fill="black" fill-opacity="0.15"/>
<path d="M18042 11211.2L18764.7 11007.7C18773.5 11005.3 18782.6 11004 18791.8 11004H19313.3C19349.8 11004 19383.4 11023.9 19401 11055.9L19886.3 11939.9C19896.5 11958.5 19900.5 11979.8 19897.8 12000.9L19698.9 13532.4C19696.4 13552 19699.7 13572 19708.5 13589.7L20178.3 14538.3C20187.2 14556.4 20190.5 14576.7 20187.7 14596.6L19986 16035C19981 16070.3 19957.7 16100.3 19924.7 16113.7L19387.8 16332.8C19377.7 16336.9 19366.9 16339.3 19356 16340L18917.2 16366.2C18908.4 16366.7 18899.6 16366.1 18891 16364.3L18113.4 16203.7C18107.8 16202.6 18102.3 16200.9 18097 16198.8L17509.8 15967.4C17480.3 15955.8 17458.1 15931 17449.9 15900.5L17300.1 15346.2C17290.5 15310.7 17262.2 15283.3 17226.3 15274.9L16895.2 15197.5C16866.8 15190.8 16842.8 15172.1 16829.3 15146.2L16597 14699.6C16585.4 14677.3 16582.6 14651.6 16589.2 14627.4L16772.5 13948.3C16774.8 13939.8 16776 13931 16776 13922.2V13597.6C16776 13574.9 16783.8 13552.8 16798 13535.1L17157.3 13086.8C17175.5 13064.1 17182.9 13034.5 17177.6 13005.9L17078 12471.1C17071 12433.4 17086.1 12395.1 17116.9 12372.3L17492.7 12095.2C17532.3 12066 17544.8 12012.3 17522.2 11968.7L17414.8 11761.6C17391.9 11717.6 17404.8 11663.5 17445 11634.5L18010.6 11226.4C18020.1 11219.5 18030.8 11214.4 18042 11211.2Z" fill="#BB816E"/>
<path d="M18231.4 11498L18831.2 11405.9C18866.9 11400.4 18902.8 11414.6 18925.1 11443L19080.2 11640.7C19103.7 11670.6 19108.2 11711.2 19091.9 11745.5L18818.1 12320.5C18801.6 12355.3 18766.4 12377.5 18727.9 12377.5H18071.2C18030.5 12377.5 17994 12352.9 17978.6 12315.3L17844.4 11986.8C17830.1 11951.7 17836.8 11911.5 17861.9 11883L18171.5 11530.8C18187 11513.2 18208.2 11501.5 18231.4 11498Z" fill="#9A6A5A"/>
<path d="M17492.8 12993.4L17539.6 12571.2C17548.5 12490.3 17645.3 12453.4 17705.9 12507.9L18150.5 12908.2C18217 12968 18177.5 13078.4 18088.1 13082.4L17596.7 13104.3C17535.4 13107 17486.1 13054.4 17492.8 12993.4Z" fill="#9A6A5A"/>
<path d="M19194.7 13407.9L18666 12936.6C18611.1 12887.7 18626.1 12798.1 18694 12769.7L19357.1 12492.4C19414.8 12468.2 19480.2 12502.4 19493.5 12563.4L19584.4 12982.9C19590.2 13009.8 19584.7 13037.9 19569.1 13060.6L19343.7 13389.7C19309.7 13439.5 19239.7 13448 19194.7 13407.9Z" fill="#9A6A5A"/>
<path d="M17093.2 13856.8L17206.6 13591.4C17221.8 13555.7 17256.2 13532.1 17294.9 13530.7L17931.8 13507.4C17965.1 13506.2 17996.7 13521.6 18016.3 13548.5L18231.7 13844.5C18267.3 13893.5 18251.6 13962.6 18198.4 13991.4L17696.6 14262.4C17665.6 14279.2 17627.9 14278.4 17597.6 14260.2L17133.7 13981.8C17090.9 13956.1 17073.6 13902.8 17093.2 13856.8Z" fill="#9A6A5A"/>
<path d="M16868.4 14615.8L17014.1 14366.4C17039.7 14322.6 17094.1 14304.9 17140.6 14325.3L17695.7 14569C17743.3 14589.9 17767 14643.9 17750 14693.1L17667.7 14932.5C17654.8 14969.9 17621.1 14996.2 17581.7 14999.6L17106.4 15040.3C17066.2 15043.8 17027.8 15022.7 17009.2 14986.9L16866 14712.5C16850.1 14682 16851 14645.5 16868.4 14615.8Z" fill="#9A6A5A"/>
<path d="M17798.5 15786L17558.1 15313.9C17524.2 15247.4 17572.5 15168.5 17647.2 15168.5H18569.1C18667.1 15168.5 18706.6 15294.9 18626 15350.7L17944.6 15822.8C17894.8 15857.3 17826 15840 17798.5 15786Z" fill="#9A6A5A"/>
<path d="M19304.5 16078.7L18469 16045.6C18379.8 16042.1 18339.6 15932.3 18405.3 15872L18967.2 15356.7C18975.7 15349 18985.4 15342.7 18995.9 15338.3L19297.3 15211.1C19314.4 15203.8 19333.2 15201.5 19351.6 15204.4L19727.2 15263.2C19771.7 15270.2 19806 15306 19811.1 15350.7L19863 15808.6C19868.3 15855.1 19840.7 15898.9 19796.6 15914.3L19341.4 16073.2C19329.6 16077.4 19317.1 16079.2 19304.5 16078.7Z" fill="#9A6A5A"/>
<path d="M17915.5 14785.5L17988.9 14441.2C17995 14412.5 18013.3 14388 18039.1 14374L18196.3 14289.1C18267.9 14250.4 18353.3 14308.8 18343.1 14389.6L18286.6 14835.1C18279.9 14888.6 18231.9 14927 18178.2 14922.1L18004 14905.9C17944.4 14900.4 17903 14844 17915.5 14785.5Z" fill="#9A6A5A"/>
<path d="M18409.1 13584.6L18579.6 13394.1C18610.6 13359.5 18661.3 13350.8 18702.1 13373.1L19404.8 13757.9C19442.6 13778.6 19462.8 13821.1 19455.2 13863.4L19406.2 14134.7C19399.3 14172.5 19371.5 14203 19334.5 14213.3L18763 14372.1C18714 14385.7 18662.6 14360.4 18643.5 14313.3L18390.9 13688.8C18376.6 13653.4 18383.6 13613 18409.1 13584.6Z" fill="#9A6A5A"/>
<path d="M19264.7 15027.8L18999.1 14792.2C18946.3 14745.3 18957.4 14660 19020.4 14628.1L19369.9 14451.7C19386.3 14443.4 19404.7 14439.8 19423.1 14441.3L19788.2 14471C19845.2 14475.6 19886.7 14527 19879.2 14583.7L19855.1 14766.3C19850.7 14800.1 19829.4 14829.3 19798.5 14843.7L19373.6 15043.5C19337.4 15060.5 19294.6 15054.3 19264.7 15027.8Z" fill="#9A6A5A"/>
<path d="M19605.9 12036.5L19519.5 11854.6C19485.5 11783.2 19386.1 11777.5 19344.3 11844.6L19168.9 12125.9C19118.2 12207.2 19199.7 12306.3 19289.2 12272.3L19551.1 12173C19605.7 12152.2 19631 12089.3 19605.9 12036.5Z" fill="#9A6A5A"/>
<g filter="url(#filter2_d_1800_3920)">
<path fill-rule="evenodd" clip-rule="evenodd" d="M772.066 5981.57C794.528 6008.01 830.167 6022.05 866.804 6015.18L1636.68 5870.72C1664.57 5865.49 1688.92 5848.65 1703.67 5824.41L2148.63 5092.98C2165.76 5064.83 2167.92 5030.04 2154.4 4999.98L1978.5 4609.01C1967.03 4583.51 1966.75 4554.37 1977.75 4528.66L2171.76 4074.92C2174.58 4068.33 2178.1 4062.05 2182.26 4056.21L2571.83 3509.47C2598.55 3471.96 2596.2 3421.04 2566.13 3386.15L2195.65 2956.3C2182.83 2941.43 2174.68 2923.12 2172.2 2903.64L2090 2258L2057.04 1512.51C2055.62 1480.43 2039.58 1453.39 2016.34 1436.34L1695 1115L1577.18 1549.74L1150.09 1706.35C1116.88 1718.53 1092.57 1747.35 1086.17 1782.14L934.061 2608.86C932.035 2619.88 928.174 2630.47 922.639 2640.2L597.24 3212.41C584.269 3235.22 580.783 3262.21 587.533 3287.57L789.255 4045.3C792.716 4058.3 793.518 4071.86 791.613 4085.18L681.623 4854.11L460.5 5670L772.066 5981.57Z" fill="black" fill-opacity="0.15"/>
<path d="M277.24 2892.41L602.639 2320.2C608.174 2310.47 612.035 2299.88 614.061 2288.86L766.171 1462.14C772.572 1427.35 796.88 1398.53 830.093 1386.35L1602.71 1103.04C1666.22 1079.75 1734.05 1124.93 1737.04 1192.51L1770 1938L1852.2 2583.64C1854.68 2603.12 1862.83 2621.43 1875.65 2636.3L2246.13 3066.15C2276.2 3101.04 2278.55 3151.96 2251.83 3189.47L1862.26 3736.21C1858.1 3742.05 1854.58 3748.33 1851.76 3754.92L1657.75 4208.66C1646.75 4234.37 1647.03 4263.51 1658.5 4289.01L1834.4 4679.98C1847.92 4710.04 1845.76 4744.83 1828.63 4772.98L1383.67 5504.41C1368.92 5528.65 1344.57 5545.49 1316.68 5550.72L546.804 5695.18C491.74 5705.51 438.933 5668.6 429.722 5613.33L312.545 4910.27C310.859 4900.15 310.739 4889.83 312.192 4879.67L471.613 3765.18C473.518 3751.86 472.716 3738.3 469.255 3725.3L267.533 2967.57C260.783 2942.21 264.269 2915.22 277.24 2892.41Z" fill="#BB816E"/>
<path d="M1620.6 3155.09L1369.66 3556.82C1358.82 3574.19 1342.9 3587.81 1324.07 3595.84L1037.65 3717.94C984.32 3740.68 922.891 3713.44 903.933 3658.65L769.993 3271.55C764.423 3255.45 763.058 3238.2 766.025 3221.42L820.094 2915.83C825.687 2884.22 846.115 2857.22 875.012 2843.24L1154.93 2707.81C1191.55 2690.09 1235.26 2696.32 1265.46 2723.57L1602.77 3027.86C1638.77 3060.34 1646.28 3113.96 1620.6 3155.09Z" fill="#9A6A5A"/>
<path d="M1377.7 1565.55L1481.48 1782.51C1491.82 1804.12 1494.05 1828.71 1487.78 1851.83L1394.03 2197.58C1384.72 2231.9 1357.89 2258.69 1323.56 2267.96L1132.68 2319.45C1075.2 2334.96 1016.99 2297.12 1007.83 2238.3L939.134 1797.46C933.241 1759.64 949.452 1721.78 980.886 1699.94L1230.43 1526.57C1281.05 1491.41 1351.11 1509.95 1377.7 1565.55Z" fill="#9A6A5A"/>
<path d="M1385.2 4778.4L1120.35 5202.42C1104.32 5228.08 1077.53 5245.1 1047.49 5248.72L783.456 5280.52C723.917 5287.69 671.5 5241.2 671.5 5181.23V4754.84C671.5 4747.3 672.352 4739.79 674.04 4732.45L780.167 4270.6C790.604 4225.19 831.027 4193 877.627 4193H1202.59C1249.32 4193 1289.82 4225.36 1300.13 4270.94L1397.92 4703.36C1403.74 4729.08 1399.17 4756.04 1385.2 4778.4Z" fill="#9A6A5A"/>
</g>
<g filter="url(#filter3_d_1800_3920)">
<path fill-rule="evenodd" clip-rule="evenodd" d="M1611.09 12118.6L1213 11720.5L1100 11828.5L1394.72 12123.2L537.004 12258.1C520.594 12260.6 505.084 12267.3 491.877 12277.4L-113.158 12739C-137.951 12757.9 -152.5 12787.3 -152.5 12818.5V20264C-152.5 20319.2 -107.728 20364 -52.5 20364H4814.5H20279C20334.2 20364 20379 20319.2 20379 20264V18035.6C20379 17962.1 20302.3 17913.7 20235.9 17945.4L19845.3 18132C19839.8 18134.7 19834 18136.8 19828.1 18138.4L18901.2 18386.9C18881.5 18392.2 18864 18403.3 18850.8 18418.8L18124.2 19275.4C18108.6 19293.9 18086.9 19306 18063 19309.6L16658.1 19523.2C16612.5 19530.1 16568.2 19505.1 16550.6 19462.5L16400.1 19097.5L16438.5 19090L16364.5 19016C16357.1 19004.7 16347.3 18994.9 16335.9 18987.4L15953.5 18605L15755 18736.5L15763.3 18765.8L15285.8 18583.1C15270.2 18577.1 15253.3 18575.2 15236.7 18577.4L13623.9 18795.4C13613.7 18796.8 13603.3 18796.6 13593.2 18794.8L11928.2 18500.7C11912.6 18497.9 11896.6 18498.9 11881.5 18503.5L10772.5 18843L9462.75 19100C9436.66 19105.1 9409.61 19099.6 9387.57 19084.8L8708.05 18626.4C8693.6 18616.6 8676.86 18610.8 8659.47 18609.5L7122.24 18496.3C7093.78 18494.2 7067.57 18480 7050.21 18457.4L6686.92 17983.3L6698.5 17979L6634.97 17915.5L6624.02 17901.2C6616.06 17890.8 6606.26 17882.2 6595.25 17875.8L6209.5 17490L5866 17786L5910.56 17862H5563.14C5540.4 17862 5518.33 17869.8 5500.58 17884L5138.92 18174C5121.17 18188.2 5099.1 18196 5076.36 18196H3950.37C3905.52 18196 3866.15 18166.1 3854.07 18122.9L3618.49 17280.5C3612.88 17260.4 3601.21 17242.8 3585.42 17229.9L3198.5 16843L3044.25 16997.3L2548.23 16788C2521.13 16776.6 2500.44 16753.8 2491.65 16725.7L2168.92 15694.2C2164.05 15678.6 2155.44 15664.5 2143.84 15653L1641.64 15155.8C1619.21 15133.6 1608.58 15102.1 1612.96 15070.8L1722.77 14287.6C1725.21 14270.2 1732.22 14253.7 1743.07 14239.8L2138.21 13735.2C2153.22 13716.1 2160.72 13692.1 2159.31 13667.8L2122.83 13040.8C2121.95 13025.8 2117.71 13011.2 2110.41 12998L1639.93 12151.1C1632.65 12138 1622.73 12127 1611.09 12118.6Z" fill="black" fill-opacity="0.15"/>
<path d="M6144.64 17463H5163.14C5140.4 17463 5118.33 17470.8 5100.58 17485L4738.92 17775C4721.17 17789.2 4699.1 17797 4676.36 17797H3550.37C3505.52 17797 3466.15 17767.1 3454.07 17723.9L3218.49 16881.5C3210.28 16852.1 3189.14 16828.1 3161.05 16816.3L2148.23 16389C2121.13 16377.6 2100.44 16354.8 2091.65 16326.7L1768.92 15295.2C1764.05 15279.6 1755.44 15265.5 1743.84 15254L1241.64 14756.8C1219.21 14734.6 1208.58 14703.1 1212.96 14671.8L1322.77 13888.6C1325.21 13871.2 1332.22 13854.7 1343.07 13840.8L1738.21 13336.2C1753.22 13317.1 1760.72 13293.1 1759.31 13268.8L1722.83 12641.8C1721.95 12626.8 1717.71 12612.2 1710.41 12599L1239.93 11752.1C1219.55 11715.4 1178.43 11695.3 1136.98 11701.9L137.004 11859.1C120.594 11861.6 105.084 11868.3 91.8771 11878.4L-513.158 12340C-537.951 12358.9 -552.5 12388.3 -552.5 12419.5V18545.5C-552.5 18564.4 -547.105 18583 -536.945 18599L300.045 19918.6C318.387 19947.5 350.248 19965 384.49 19965H19879C19934.2 19965 19979 19920.2 19979 19865V17636.6C19979 17563.1 19902.3 17514.7 19835.9 17546.4L19445.3 17733C19439.8 17735.7 19434 17737.8 19428.1 17739.4L18501.2 17987.9C18481.5 17993.2 18464 18004.3 18450.8 18019.8L17724.2 18876.4C17708.6 18894.9 17686.9 18907 17663 18910.6L16258.1 19124.2C16212.5 19131.1 16168.2 19106.1 16150.6 19063.5L15973.4 18633.9C15962.9 18608.4 15942.4 18588.4 15916.7 18578.6L14885.8 18184.1C14870.2 18178.1 14853.3 18176.2 14836.7 18178.4L13223.9 18396.4C13213.7 18397.8 13203.3 18397.6 13193.2 18395.8L11528.2 18101.7C11512.6 18098.9 11496.6 18099.9 11481.5 18104.5L10372.5 18444L9062.75 18701C9036.66 18706.1 9009.61 18700.6 8987.57 18685.8L8308.05 18227.4C8293.6 18217.6 8276.86 18211.8 8259.47 18210.5L6722.24 18097.3C6693.78 18095.2 6667.57 18081 6650.21 18058.4L6224.02 17502.2C6205.1 17477.5 6175.76 17463 6144.64 17463Z" fill="#BB816E"/>
<path d="M5866.5 17768.5H5307.67C5277.52 17768.5 5248.97 17782.1 5229.98 17805.5L4833.01 18295.3C4786.91 18352.2 4815.56 18437.7 4886.62 18455.4L5502.59 18608.2C5547.18 18619.2 5593.58 18598.5 5615.06 18557.9L5954.9 17915.2C5990.11 17848.7 5941.83 17768.5 5866.5 17768.5Z" fill="#9A6A5A"/>
<path d="M9680.01 18897.2L8838.55 18898.5C8763.32 18898.6 8715.16 18978.7 8750.27 19045.2L9047.92 19609.1C9079.73 19669.4 9161.18 19680.9 9208.42 19631.8L9752.24 19066.5C9813.41 19002.9 9768.25 18897 9680.01 18897.2Z" fill="#9A6A5A"/>
<path d="M19698.1 18210.6L19552.4 18106.8C19507.8 18075 19446 18085 19413.7 18129.2L18538.3 19325.7C18496.1 19383.4 18526.2 19465.4 18595.7 19482L19494.4 19697.2C19553.6 19711.3 19611.6 19669.8 19617.2 19609.2L19739.6 18301.3C19743 18265.8 19727.1 18231.3 19698.1 18210.6Z" fill="#9A6A5A"/>
<path d="M7475.51 18676.3L6992.12 18636.4C6931.74 18631.4 6880.84 18680.9 6884.04 18741.3L6925.04 19518.3C6927.83 19571 6971.19 19612.5 7024.02 19613L8152.2 19622.9C8239.66 19623.7 8285.9 19519.8 8226.75 19455.3L7540.96 18708.3C7523.95 18689.8 7500.58 18678.4 7475.51 18676.3Z" fill="#9A6A5A"/>
<path d="M11490.3 18455.4L10819.8 18593.8C10746.4 18609 10715.1 18696.4 10762.2 18754.6L11099.4 19171.4C11110.3 19184.9 11124.5 19195.3 11140.6 19201.7L12006.4 19540.8C12095.1 19575.6 12177.5 19478.4 12128.8 19396.6L11596.4 18502.2C11574.6 18465.6 11532 18446.8 11490.3 18455.4Z" fill="#9A6A5A"/>
<path d="M12624.1 18598.2L12204 18464C12111.9 18434.7 12035.8 18540 12092.7 18618.1L12438.7 19093.7C12468.9 19135.3 12525.8 19147.1 12570.2 19121.1L12784.7 18995C12833.9 18966.1 12849 18902 12817.8 18854.2L12677.4 18638.8C12664.9 18619.5 12646 18605.2 12624.1 18598.2Z" fill="#9A6A5A"/>
<path d="M13865.6 18565.3L13758.9 18678.5C13732.2 18706.9 13724.4 18748.3 13739 18784.5L14030 19504.9C14057.1 19572 14144.1 19589 14194.5 19537.2L14568 19152.7C14609 19110.5 14604.9 19042.1 14559 19005.2L14001.1 18556C13960.4 18523.3 13901.4 18527.3 13865.6 18565.3Z" fill="#9A6A5A"/>
<path d="M15938.1 19342.4L15013.7 19125.6C14971.5 19115.7 14927.8 19134.1 14905.3 19171.1L14708.6 19495.4C14668.2 19562 14716.2 19647.3 14794.1 19647.3H15816.2C15844.1 19647.3 15870.8 19635.6 15889.7 19615L15988.8 19507.5C16040.7 19451.2 16012.7 19359.9 15938.1 19342.4Z" fill="#9A6A5A"/>
<path d="M17058 19222.7L16640.2 19331.1C16570.6 19349.2 16542.2 19432.6 16586.4 19489.3L16741.6 19688.8C16759.1 19711.2 16785.2 19725.1 16813.5 19727.2L17415 19770C17506.5 19776.5 17557.8 19666.7 17494 19600.7L17155.1 19250C17130 19224 17092.9 19213.6 17058 19222.7Z" fill="#9A6A5A"/>
<path d="M8271.9 18610.4L8034.43 18556.3C7940.89 18535 7873.93 18644.8 7935.74 18718.2L8188.02 19017.7C8250.06 19091.3 8370.12 19043.3 8364.32 18947.2L8349.52 18701.8C8346.84 18657.5 8315.22 18620.2 8271.9 18610.4Z" fill="#9A6A5A"/>
<path d="M15746.6 18848L15391.9 18663.5C15353.5 18643.5 15306.6 18650.5 15275.7 18680.8L15154.2 18799.9C15102.7 18850.4 15120 18937.2 15186.9 18964.1L15580.9 19122.6C15620.2 19138.4 15665.2 19127.8 15693.3 19096L15775.4 19002.9C15818.4 18954.1 15804.2 18878 15746.6 18848Z" fill="#9A6A5A"/>
<path d="M18471.8 18668.1L18412 18444.9C18398.3 18393.6 18427 18340.6 18477.5 18324L18812 18214.4C18907.2 18183.3 18984 18295.9 18920.3 18373.1L18645.5 18705.9C18593.8 18768.6 18492.8 18746.6 18471.8 18668.1Z" fill="#9A6A5A"/>
<path d="M14748.4 18367.3C14645.4 18402.8 14475 18468.5 14384.6 18502.7C14347.7 18516.7 14346.2 18536.8 14380.6 18555.8L14801.6 18788.8C14839.9 18810 14887.5 18803.9 14919.2 18773.6L15013 18683.7C15055.1 18643.4 15053.9 18575.8 15010.5 18537L14843.1 18387.2C14817.2 18364.1 14781.3 18356 14748.4 18367.3Z" fill="#9A6A5A"/>
<path d="M13078.5 19271.3V18769.6C13078.5 18719.9 13115 18677.7 13164.2 18670.6L13253.1 18657.8C13300.4 18650.9 13345.9 18678.5 13361.8 18723.6L13579.9 19344.2C13607.6 19423.1 13531.9 19499.2 13452.9 19471.9L13145.8 19365.8C13105.5 19351.8 13078.5 19313.9 13078.5 19271.3Z" fill="#9A6A5A"/>
<path d="M12533.8 19486.7L12745.4 19256.8C12797.5 19200.2 12891.3 19221.2 12914.4 19294.6L13010.9 19601.8C13023.6 19642.1 13009.5 19686 12975.9 19711.5L12818.3 19830.9C12774.5 19864.1 12712 19855.7 12678.5 19811.9L12528 19615.2C12498.5 19576.6 12501 19522.4 12533.8 19486.7Z" fill="#9A6A5A"/>
<path d="M18079.2 18911.1L17701.4 19123.8C17670 19141.5 17650.5 19174.8 17650.5 19211V19440.5C17650.5 19478.2 17671.7 19512.7 17705.4 19529.7L17957.2 19656.9C18000.2 19678.7 18052.7 19666.6 18081.9 19628.2L18315 19321.4C18336.4 19293.3 18341.3 19255.9 18328 19223.2L18220.8 18960.5C18198.1 18904.8 18131.6 18881.6 18079.2 18911.1Z" fill="#9A6A5A"/>
<path d="M4989.65 19535.1L4784.52 19068.4C4758.66 19009.6 4794.21 18942 4857.33 18930L5125.07 18878.9C5145.2 18875.1 5166.03 18877.5 5184.73 18885.9L5906.8 19209.8C5993.55 19248.7 5982.16 19375.3 5889.86 19398.1L5105.18 19592C5057.97 19603.6 5009.21 19579.7 4989.65 19535.1Z" fill="#9A6A5A"/>
<path d="M6517.25 18261.4L6236.3 18102.1C6187.75 18074.5 6126.06 18092.1 6099.26 18141L5789.03 18707.8C5760.28 18760.3 5783.82 18826.2 5839.37 18848.6L6232.01 19006.8C6272.24 19023 6318.34 19011.4 6346.14 18978.2L6661.25 18600.9C6688.87 18567.8 6692.2 18520.8 6669.54 18484.1L6552.96 18295.8C6544.13 18281.5 6531.85 18269.7 6517.25 18261.4Z" fill="#9A6A5A"/>
<path d="M6151.76 19587.6L6455.71 19236C6506.6 19177.1 6602.29 19196.4 6626.43 19270.3L6726.8 19577.9C6746.49 19638.3 6705.68 19701.5 6642.57 19708.4L6238.26 19752.4C6147.96 19762.3 6092.36 19656.4 6151.76 19587.6Z" fill="#9A6A5A"/>
<path d="M9843.07 19356.2L10220.9 18795.4C10257.9 18740.5 10337 18736 10379.9 18786.4L10823.8 19307.4C10859 19348.6 10854.9 19410.4 10814.5 19446.6L10417 19803.7C10396.9 19821.8 10370.2 19830.9 10343.2 19829.1L9919.05 19799.5C9866.64 19795.8 9826 19752.3 9826 19699.7V19412C9826 19392.1 9831.94 19372.7 9843.07 19356.2Z" fill="#9A6A5A"/>
<path d="M10991 19670.4L11107.7 19488.9C11135.9 19445.1 11192.8 19430.3 11238.7 19454.7L11548.7 19619.4C11638.8 19667.3 11607.7 19803.6 11505.7 19807.6L11079 19824.4C10998.1 19827.6 10947.2 19738.5 10991 19670.4Z" fill="#9A6A5A"/>
<path d="M4479.07 17964.5H3647.54C3607.99 17964.5 3572.16 17987.8 3556.13 18024L3275.57 18656.4C3245.19 18724.9 3298.11 18801.2 3372.88 18796.8L4121.17 18752.6C4153.66 18750.6 4183.19 18733 4200.31 18705.3L4564.12 18117.1C4605.32 18050.5 4557.41 17964.5 4479.07 17964.5Z" fill="#9A6A5A"/>
<path d="M4158.45 19779L3624.28 19506.9C3568.02 19478.3 3552.07 19405.3 3591.24 19355.8L3765.44 19135.6C3782.4 19114.1 3807.4 19100.6 3834.62 19098L4372.27 19048.1C4443.94 19041.4 4498.96 19110.4 4476.55 19178.8L4298.86 19721C4279.76 19779.3 4213.12 19806.8 4158.45 19779Z" fill="#9A6A5A"/>
<path d="M2988.67 18168.4L3031.85 17662C3037.3 17598 2981.9 17545.5 2918.31 17554.4L1582.92 17741.8C1502.86 17753.1 1468.54 17849.8 1523.58 17909L2242.13 18681.9C2277.63 18720.1 2336.52 18724.6 2377.41 18692.2L2951.08 18238.3C2972.73 18221.2 2986.33 18195.9 2988.67 18168.4Z" fill="#9A6A5A"/>
<path d="M1815.03 16465.9L1635.18 15696.3C1621.71 15638.6 1561.35 15605.2 1505.33 15624.4L468.793 15980.3C400.91 16003.6 378.953 16088.7 427.09 16141.9L1235.42 17035.9C1275.95 17080.7 1346.66 17079.6 1385.8 17033.6L1793.85 16553.4C1814.39 16529.3 1822.24 16496.8 1815.03 16465.9Z" fill="#9A6A5A"/>
<path d="M-365.559 15778.5L-230.465 14913.6C-215.24 14816.1 -83.0239 14797.2 -41.1278 14886.6L280.191 15571.6C304.699 15623.8 280.018 15685.9 226.329 15707.1L-230.084 15887C-301.983 15915.3 -377.485 15854.9 -365.559 15778.5Z" fill="#9A6A5A"/>
<path d="M-74.5084 14338.6L1117.55 13542.5C1133.2 13532 1145.58 13517.4 1153.27 13500.2L1209.28 13375.2C1234.7 13318.5 1202.75 13252.6 1142.48 13237.4L334.181 13033.6C296.545 13024.1 256.817 13037.2 232.27 13067.3L-356.38 13788.3C-378.763 13815.7 -384.988 13852.9 -372.747 13886.1L-223.872 14290C-201.505 14350.7 -128.291 14374.5 -74.5084 14338.6Z" fill="#9A6A5A"/>
<path d="M1233.27 12958.8L1328.2 12714.4C1336.48 12693.1 1337.21 12669.6 1330.26 12647.8L1241.15 12368.6C1233.35 12344.1 1216.45 12323.6 1193.95 12311.3L727.727 12055.7C699.911 12040.5 666.511 12039.3 637.717 12052.7L-4.20203 12349.3C-82.474 12385.4 -81.3455 12497.1 -2.35834 12531.6L1099.96 13014.2C1152.06 13037 1212.67 13011.8 1233.27 12958.8Z" fill="#9A6A5A"/>
<path d="M889.795 17395.7L237.606 16667C202.409 16627.6 142.706 16622.4 101.235 16655.1L-434.585 17076.9C-467.812 17103 -480.994 17147.3 -467.508 17187.3L-219.844 17923.4C-211.013 17949.6 -191.694 17971 -166.491 17982.5L390.388 18235.9C437.668 18257.5 493.552 18239.2 518.997 18193.9L902.462 17511.4C923.416 17474.1 918.324 17427.6 889.795 17395.7Z" fill="#9A6A5A"/>
<path d="M220.037 18875.9L1272.2 18597.3C1301.48 18589.5 1332.68 18595.4 1357.07 18613.4L1919.11 19027C1971.11 19065.3 1973.76 19142.1 1924.52 19183.8L1501.29 19542.8C1480.06 19560.8 1452.3 19569.1 1424.67 19565.8L516.954 19456.7C489.545 19453.4 464.719 19438.9 448.354 19416.7L165.101 19031.8C123.286 18975 151.849 18893.9 220.037 18875.9Z" fill="#9A6A5A"/>
<path d="M2272.25 19540.8L2621.91 19079C2643.07 19051.1 2677.31 19036.3 2712.16 19039.9L3226.29 19094.4C3269.35 19098.9 3304.59 19130.7 3313.58 19173L3406.51 19610.7C3419.99 19674.2 3370.38 19733.5 3305.52 19731.5L2348.8 19701.1C2267.68 19698.6 2223.25 19605.5 2272.25 19540.8Z" fill="#9A6A5A"/>
<path d="M2037.72 17310L2076.96 16983.7C2085.24 16914.8 2159.46 16875.1 2221.37 16906.4L2662.9 17129.7C2747.05 17172.3 2730.92 17297 2638.7 17316.8L2157.94 17419.7C2090.83 17434 2029.53 17378.1 2037.72 17310Z" fill="#9A6A5A"/>
<path d="M516.755 15571.3L276.579 14930.3C256.255 14876 286.122 14815.9 341.629 14799.4L664.449 14703.1C701.691 14691.9 741.999 14703.4 767.809 14732.5L1225.04 15247.3C1270.74 15298.7 1252.01 15379.9 1188.38 15406.1L648.504 15628.6C596.267 15650.2 536.58 15624.2 516.755 15571.3Z" fill="#9A6A5A"/>
<path d="M952.901 14441L1041.23 14027.9C1061.07 13935.1 952.645 13869.4 879.613 13930L331.054 14384.8C255.438 14447.5 306.089 14570.3 403.916 14561.4L864.144 14519.7C907.77 14515.7 943.742 14483.8 952.901 14441Z" fill="#9A6A5A"/>
<path d="M-348 13054.8V12857.4C-348 12794.7 -290.862 12747.4 -229.22 12759.2L-34.4364 12796.5C48.7935 12812.4 75.7469 12918.1 10.292 12971.9L-184.491 13132.1C-249.743 13185.7 -348 13139.3 -348 13054.8Z" fill="#9A6A5A"/>
</g>
<g filter="url(#filter4_d_1800_3920)">
<path fill-rule="evenodd" clip-rule="evenodd" d="M14821.9 9497.92L14514 9190L15249 8168L15558 8477L15558 8477.01C15563.2 8481.05 15568 8485.63 15572.4 8490.71L15939 8916.08C15966 8947.41 15971 8992.13 15951.4 9028.59L15614.1 9658.44C15591.8 9699.92 15543.7 9720.3 15498.5 9707.39L14869.6 9528.03C14850.9 9522.71 14834.5 9512.17 14821.9 9497.92Z" fill="black" fill-opacity="0.15"/>
<path d="M14785.3 8136H15176.7C15205.8 8136 15233.4 8148.67 15252.4 8170.71L15619 8596.08C15646 8627.41 15651 8672.13 15631.4 8708.59L15294.1 9338.44C15271.8 9379.92 15223.7 9400.3 15178.5 9387.39L14549.6 9208.03C14521.7 9200.07 14498.6 9180.4 14486.4 9154.11L14338.2 8836.26C14323.8 8805.25 14326.2 8769.01 14344.6 8740.18L14701 8182.17C14719.4 8153.41 14751.2 8136 14785.3 8136Z" fill="#BB816E"/>
<path d="M14624.5 8669.04L14867.3 8376.34C14902.7 8333.69 14966 8327.95 15008.5 8363.55L15202.2 8525.85C15229.6 8548.83 15242.6 8584.72 15236.4 8619.95L15175 8966.28C15164.4 9025.92 15103.7 9062.54 15046 9044.04L14832.7 8975.65C14819.1 8971.27 14806.5 8964 14795.9 8954.33L14634 8806.8C14594.6 8770.82 14590.3 8710.15 14624.5 8669.04Z" fill="#9A6A5A"/>
</g>
<g filter="url(#filter5_d_1800_3920)">
<path fill-rule="evenodd" clip-rule="evenodd" d="M3429.92 2676.92L3122 2369L3857 1347L4166 1656L4165.99 1656.01C4171.2 1660.05 4176.04 1664.63 4180.42 1669.71L4547.04 2095.08C4574.04 2126.41 4578.97 2171.13 4559.44 2207.59L4222.06 2837.44C4199.85 2878.92 4151.73 2899.3 4106.48 2886.39L3477.57 2707.03C3458.94 2701.71 3442.46 2691.17 3429.92 2676.92Z" fill="black" fill-opacity="0.15"/>
<path d="M3393.28 1315H3784.67C3813.77 1315 3841.42 1327.67 3860.42 1349.71L4227.04 1775.08C4254.04 1806.41 4258.97 1851.13 4239.44 1887.59L3902.06 2517.44C3879.85 2558.92 3831.73 2579.3 3786.48 2566.39L3157.57 2387.03C3129.68 2379.07 3106.61 2359.4 3094.36 2333.11L2946.21 2015.26C2931.75 1984.25 2934.15 1948.01 2952.57 1919.18L3309.01 1361.17C3327.38 1332.41 3359.15 1315 3393.28 1315Z" fill="#BB816E"/>
<path d="M3232.45 1848.04L3475.33 1555.34C3510.72 1512.69 3574.04 1506.95 3616.52 1542.55L3810.17 1704.85C3837.6 1727.83 3850.65 1763.72 3844.4 1798.95L3782.99 2145.28C3772.41 2204.92 3711.66 2241.54 3653.99 2223.04L3440.73 2154.65C3427.07 2150.27 3414.51 2143 3403.91 2133.33L3242.05 1985.8C3202.57 1949.82 3198.34 1889.15 3232.45 1848.04Z" fill="#9A6A5A"/>
</g>
</g>
<defs>
<filter id="filter0_d_1800_3920" x="17031.1" y="7435.88" width="1371.69" height="1144.98" filterUnits="userSpaceOnUse" color-interpolation-filters="sRGB">
<feFlood flood-opacity="0" result="BackgroundImageFix"/>
<feColorMatrix in="SourceAlpha" type="matrix" values="0 0 0 0 0 0 0 0 0 0 0 0 0 0 0 0 0 0 127 0" result="hardAlpha"/>
<feOffset dy="4"/>
<feGaussianBlur stdDeviation="2"/>
<feComposite in2="hardAlpha" operator="out"/>
<feColorMatrix type="matrix" values="0 0 0 0 0 0 0 0 0 0 0 0 0 0 0 0 0 0 0.25 0"/>
<feBlend mode="normal" in2="BackgroundImageFix" result="effect1_dropShadow_1800_3920"/>
<feBlend mode="normal" in="SourceGraphic" in2="effect1_dropShadow_1800_3920" result="shape"/>
</filter>
<filter id="filter1_d_1800_3920" x="1765.09" y="5872.88" width="1371.69" height="1144.98" filterUnits="userSpaceOnUse" color-interpolation-filters="sRGB">
<feFlood flood-opacity="0" result="BackgroundImageFix"/>
<feColorMatrix in="SourceAlpha" type="matrix" values="0 0 0 0 0 0 0 0 0 0 0 0 0 0 0 0 0 0 127 0" result="hardAlpha"/>
<feOffset dy="4"/>
<feGaussianBlur stdDeviation="2"/>
<feComposite in2="hardAlpha" operator="out"/>
<feColorMatrix type="matrix" values="0 0 0 0 0 0 0 0 0 0 0 0 0 0 0 0 0 0 0.25 0"/>
<feBlend mode="normal" in2="BackgroundImageFix" result="effect1_dropShadow_1800_3920"/>
<feBlend mode="normal" in="SourceGraphic" in2="effect1_dropShadow_1800_3920" result="shape"/>
</filter>
<filter id="filter2_d_1800_3920" x="260.167" y="1096.85" width="2334.22" height="4928.06" filterUnits="userSpaceOnUse" color-interpolation-filters="sRGB">
<feFlood flood-opacity="0" result="BackgroundImageFix"/>
<feColorMatrix in="SourceAlpha" type="matrix" values="0 0 0 0 0 0 0 0 0 0 0 0 0 0 0 0 0 0 127 0" result="hardAlpha"/>
<feOffset dy="4"/>
<feGaussianBlur stdDeviation="2"/>
<feComposite in2="hardAlpha" operator="out"/>
<feColorMatrix type="matrix" values="0 0 0 0 0 0 0 0 0 0 0 0 0 0 0 0 0 0 0.25 0"/>
<feBlend mode="normal" in2="BackgroundImageFix" result="effect1_dropShadow_1800_3920"/>
<feBlend mode="normal" in="SourceGraphic" in2="effect1_dropShadow_1800_3920" result="shape"/>
</filter>
<filter id="filter3_d_1800_3920" x="-556.5" y="11700.6" width="20939.5" height="8671.37" filterUnits="userSpaceOnUse" color-interpolation-filters="sRGB">
<feFlood flood-opacity="0" result="BackgroundImageFix"/>
<feColorMatrix in="SourceAlpha" type="matrix" values="0 0 0 0 0 0 0 0 0 0 0 0 0 0 0 0 0 0 127 0" result="hardAlpha"/>
<feOffset dy="4"/>
<feGaussianBlur stdDeviation="2"/>
<feComposite in2="hardAlpha" operator="out"/>
<feColorMatrix type="matrix" values="0 0 0 0 0 0 0 0 0 0 0 0 0 0 0 0 0 0 0.25 0"/>
<feBlend mode="normal" in2="BackgroundImageFix" result="effect1_dropShadow_1800_3920"/>
<feBlend mode="normal" in="SourceGraphic" in2="effect1_dropShadow_1800_3920" result="shape"/>
</filter>
<filter id="filter4_d_1800_3920" x="14324.8" y="8136" width="1642.45" height="1583.24" filterUnits="userSpaceOnUse" color-interpolation-filters="sRGB">
<feFlood flood-opacity="0" result="BackgroundImageFix"/>
<feColorMatrix in="SourceAlpha" type="matrix" values="0 0 0 0 0 0 0 0 0 0 0 0 0 0 0 0 0 0 127 0" result="hardAlpha"/>
<feOffset dy="4"/>
<feGaussianBlur stdDeviation="2"/>
<feComposite in2="hardAlpha" operator="out"/>
<feColorMatrix type="matrix" values="0 0 0 0 0 0 0 0 0 0 0 0 0 0 0 0 0 0 0.25 0"/>
<feBlend mode="normal" in2="BackgroundImageFix" result="effect1_dropShadow_1800_3920"/>
<feBlend mode="normal" in="SourceGraphic" in2="effect1_dropShadow_1800_3920" result="shape"/>
</filter>
<filter id="filter5_d_1800_3920" x="2932.84" y="1315" width="1642.44" height="1583.24" filterUnits="userSpaceOnUse" color-interpolation-filters="sRGB">
<feFlood flood-opacity="0" result="BackgroundImageFix"/>
<feColorMatrix in="SourceAlpha" type="matrix" values="0 0 0 0 0 0 0 0 0 0 0 0 0 0 0 0 0 0 127 0" result="hardAlpha"/>
<feOffset dy="4"/>
<feGaussianBlur stdDeviation="2"/>
<feComposite in2="hardAlpha" operator="out"/>
<feColorMatrix type="matrix" values="0 0 0 0 0 0 0 0 0 0 0 0 0 0 0 0 0 0 0.25 0"/>
<feBlend mode="normal" in2="BackgroundImageFix" result="effect1_dropShadow_1800_3920"/>
<feBlend mode="normal" in="SourceGraphic" in2="effect1_dropShadow_1800_3920" result="shape"/>
</filter>
<clipPath id="clip0_1800_3920">
<rect width="20000" height="20000" fill="white"/>
</clipPath>
</defs>
</svg>
