<svg width="13918" height="15768" viewBox="0 0 13918 15768" fill="none" xmlns="http://www.w3.org/2000/svg">
<g clip-path="url(#clip0_1308_31681)">
<rect x="3265" y="14810" width="269" height="266" fill="#46A325"/>
<rect x="3817" y="14275" width="269" height="266" fill="#46A325"/>
<rect x="4036" y="15137" width="269" height="266" fill="#46A325"/>
<rect x="4237" y="14879" width="269" height="266" fill="#46A325"/>
<rect x="5462" y="15379" width="269" height="266" fill="#46A325"/>
<rect x="5340" y="14403" width="269" height="266" fill="#46A325"/>
<rect x="4487" y="14072" width="269" height="266" fill="#46A325"/>
<rect x="4264" y="13555" width="269" height="266" fill="#46A325"/>
<rect x="5256" y="12035" width="269" height="266" fill="#46A325"/>
<rect x="6164" y="12511" width="269" height="266" fill="#46A325"/>
<rect x="6067" y="12045" width="269" height="266" fill="#46A325"/>
<rect x="6793" y="11949" width="269" height="266" fill="#46A325"/>
<rect x="8254" y="11488" width="269" height="266" fill="#46A325"/>
<rect x="8598" y="12149" width="269" height="266" fill="#46A325"/>
<rect x="8147" y="12816" width="269" height="266" fill="#46A325"/>
<rect x="8388" y="13291" width="269" height="266" fill="#46A325"/>
<rect x="9178" y="13864" width="269" height="266" fill="#46A325"/>
<rect x="8365" y="14906" width="269" height="266" fill="#46A325"/>
<rect x="8977" y="14494" width="269" height="266" fill="#46A325"/>
<rect x="9801" y="12605" width="269" height="266" fill="#46A325"/>
<rect x="10180" y="11385" width="269" height="266" fill="#46A325"/>
<rect x="10987" y="10924" width="269" height="266" fill="#46A325"/>
<rect x="10785" y="10335" width="269" height="266" fill="#46A325"/>
<rect x="10115" y="9899" width="269" height="266" fill="#46A325"/>
<rect x="10598" y="9537" width="269" height="266" fill="#46A325"/>
<rect x="10666" y="9219" width="269" height="266" fill="#46A325"/>
<rect x="8729" y="9045" width="269" height="266" fill="#46A325"/>
<rect x="9137" y="8389" width="269" height="266" fill="#46A325"/>
<rect x="9344" y="7286" width="269" height="266" fill="#46A325"/>
<rect x="7083" y="8211" width="269" height="266" fill="#46A325"/>
<rect x="6326" y="7949" width="269" height="266" fill="#46A325"/>
<rect x="6606" y="7552" width="269" height="266" fill="#46A325"/>
<rect x="5940" y="7604" width="269" height="266" fill="#46A325"/>
<rect x="6606" y="7016" width="269" height="266" fill="#46A325"/>
<rect x="6337" y="6513" width="269" height="266" fill="#46A325"/>
<rect x="6402" y="5190" width="269" height="266" fill="#46A325"/>
<rect x="6700" y="5077" width="269" height="266" fill="#46A325"/>
<rect x="6141" y="4898" width="269" height="266" fill="#46A325"/>
<rect x="6832" y="3829" width="269" height="266" fill="#46A325"/>
<rect x="5539" y="4324" width="269" height="266" fill="#46A325"/>
<rect x="6061" y="4305" width="269" height="266" fill="#46A325"/>
<rect x="6424" y="2890" width="269" height="266" fill="#46A325"/>
<rect x="6607" y="2207" width="269" height="266" fill="#46A325"/>
<rect x="6686" y="1088" width="269" height="266" fill="#46A325"/>
<rect x="7280" y="1133" width="269" height="266" fill="#46A325"/>
<rect x="7167" y="486" width="269" height="266" fill="#46A325"/>
<rect x="7918" y="1670" width="269" height="266" fill="#46A325"/>
<rect x="8377" y="849" width="269" height="266" fill="#46A325"/>
<rect x="10307" y="685" width="269" height="266" fill="#46A325"/>
<rect x="11443" y="2142" width="269" height="266" fill="#46A325"/>
<rect x="11540" y="1422" width="269" height="266" fill="#46A325"/>
<rect x="11061" y="505" width="269" height="266" fill="#46A325"/>
<rect x="12225" y="638" width="269" height="266" fill="#46A325"/>
<rect x="11990" y="1016" width="269" height="266" fill="#46A325"/>
<rect x="12253" y="1807" width="269" height="266" fill="#46A325"/>
<rect x="12129" y="2178" width="269" height="266" fill="#46A325"/>
<rect x="12424" y="2316" width="269" height="266" fill="#46A325"/>
<rect x="11771" y="2545" width="269" height="266" fill="#46A325"/>
<rect x="12119" y="2859" width="269" height="266" fill="#46A325"/>
<rect x="11475" y="3386" width="269" height="266" fill="#46A325"/>
<rect x="11558" y="3002" width="269" height="266" fill="#46A325"/>
<rect x="10789" y="3214" width="269" height="266" fill="#46A325"/>
<rect x="10514" y="3444" width="269" height="266" fill="#46A325"/>
<rect x="10870" y="3657" width="269" height="266" fill="#46A325"/>
<rect x="10149" y="3421" width="269" height="266" fill="#46A325"/>
<rect x="10885" y="4088" width="269" height="266" fill="#46A325"/>
<rect x="10620" y="4431" width="269" height="266" fill="#46A325"/>
<rect x="11325" y="4633" width="269" height="266" fill="#46A325"/>
<rect x="10501" y="5014" width="269" height="266" fill="#46A325"/>
<rect x="11052" y="4952" width="269" height="266" fill="#46A325"/>
<rect x="11627" y="5729" width="269" height="266" fill="#46A325"/>
<rect x="10388" y="5748" width="269" height="266" fill="#46A325"/>
<rect x="10363" y="6082" width="269" height="266" fill="#46A325"/>
<rect x="9122" y="6051" width="269" height="266" fill="#46A325"/>
<rect x="8822" y="5660" width="269" height="266" fill="#46A325"/>
<rect x="9034" y="5110" width="269" height="266" fill="#46A325"/>
<rect x="9540" y="6391" width="269" height="266" fill="#46A325"/>
<rect x="10050" y="6808" width="269" height="266" fill="#46A325"/>
<rect x="10487" y="7134" width="269" height="266" fill="#46A325"/>
<rect x="10306" y="7434" width="269" height="266" fill="#46A325"/>
<rect x="10635" y="7929" width="269" height="266" fill="#46A325"/>
<rect x="11083" y="7644" width="269" height="266" fill="#46A325"/>
<rect x="10828" y="8436" width="269" height="266" fill="#46A325"/>
<rect x="10094" y="8252" width="269" height="266" fill="#46A325"/>
<rect x="9854" y="8919" width="269" height="266" fill="#46A325"/>
<rect x="11126" y="8963" width="269" height="266" fill="#46A325"/>
<rect x="11158" y="8531" width="269" height="266" fill="#46A325"/>
<rect x="11276" y="9918" width="269" height="266" fill="#46A325"/>
<rect x="11209" y="10256" width="269" height="266" fill="#46A325"/>
<rect x="11790" y="9802" width="269" height="266" fill="#46A325"/>
<rect x="10016" y="10712" width="269" height="266" fill="#46A325"/>
<rect x="10962" y="11167" width="269" height="266" fill="#46A325"/>
<rect x="8874" y="12810" width="269" height="266" fill="#46A325"/>
<rect x="11516" y="9604" width="269" height="266" fill="#46A325"/>
<rect x="5055" y="4460" width="269" height="266" fill="#46A325"/>
<rect x="4825" y="5191" width="269" height="266" fill="#46A325"/>
<rect x="4392" y="4327" width="269" height="266" fill="#46A325"/>
<rect x="4543" y="4850" width="269" height="266" fill="#46A325"/>
<rect x="3542" y="4519" width="269" height="266" fill="#46A325"/>
<rect x="4193" y="3880" width="269" height="266" fill="#46A325"/>
<rect x="3234" y="5084" width="269" height="266" fill="#46A325"/>
<rect x="3803" y="6273" width="269" height="266" fill="#46A325"/>
<rect x="4626" y="6553" width="269" height="266" fill="#46A325"/>
<rect x="5500" y="3148" width="269" height="266" fill="#46A325"/>
<rect x="9916" y="7439" width="269" height="266" fill="#46A325"/>
<rect x="3090" y="13372" width="356" height="356" fill="#46A325"/>
<rect x="3552" y="13790" width="356" height="356" fill="#46A325"/>
<rect x="4717" y="12507" width="356" height="356" fill="#46A325"/>
<rect x="3659" y="12635" width="356" height="356" fill="#46A325"/>
<rect x="5585" y="12015" width="356" height="356" fill="#46A325"/>
<rect x="6419" y="11747" width="356" height="356" fill="#46A325"/>
<rect x="5446" y="12718" width="356" height="356" fill="#46A325"/>
<rect x="4901" y="14204" width="356" height="356" fill="#46A325"/>
<rect x="5799" y="14810" width="356" height="356" fill="#46A325"/>
<rect x="4967" y="13815" width="356" height="356" fill="#46A325"/>
<rect x="4685" y="12983" width="356" height="356" fill="#46A325"/>
<rect x="4872" y="14677" width="356" height="356" fill="#46A325"/>
<rect x="6615" y="15230" width="356" height="356" fill="#46A325"/>
<rect x="7835" y="14676" width="356" height="356" fill="#46A325"/>
<rect x="8296" y="13920" width="356" height="356" fill="#46A325"/>
<rect x="7480" y="13785" width="356" height="356" fill="#46A325"/>
<rect x="8144" y="13498" width="356" height="356" fill="#46A325"/>
<rect x="8428" y="12500" width="356" height="356" fill="#46A325"/>
<rect x="8031" y="11785" width="356" height="356" fill="#46A325"/>
<rect x="9331" y="12425" width="356" height="356" fill="#46A325"/>
<rect x="8817" y="13145" width="356" height="356" fill="#46A325"/>
<rect x="9727" y="11790" width="356" height="356" fill="#46A325"/>
<rect x="9789" y="11067" width="356" height="356" fill="#46A325"/>
<rect x="10623" y="11277" width="356" height="356" fill="#46A325"/>
<rect x="10292" y="10551" width="356" height="356" fill="#46A325"/>
<rect x="11126" y="10588" width="356" height="356" fill="#46A325"/>
<rect x="11039" y="12174" width="356" height="356" fill="#46A325"/>
<rect x="10224" y="13167" width="356" height="356" fill="#46A325"/>
<rect x="10179" y="13880" width="356" height="356" fill="#46A325"/>
<rect x="9554" y="13139" width="356" height="356" fill="#46A325"/>
<rect x="9370" y="14633" width="356" height="356" fill="#46A325"/>
<rect x="10257" y="14300" width="356" height="356" fill="#46A325"/>
<rect x="9299" y="15267" width="356" height="356" fill="#46A325"/>
<rect x="10319" y="15298" width="356" height="356" fill="#46A325"/>
<rect x="11161" y="14684" width="356" height="356" fill="#46A325"/>
<rect x="10988" y="15183" width="356" height="356" fill="#46A325"/>
<rect x="10688" y="14178" width="356" height="356" fill="#46A325"/>
<rect x="10968" y="12913" width="356" height="356" fill="#46A325"/>
<rect x="10759" y="11813" width="356" height="356" fill="#46A325"/>
<rect x="6879" y="10712" width="356" height="356" fill="#46A325"/>
<rect x="8499" y="10334" width="356" height="356" fill="#46A325"/>
<rect x="7215" y="10460" width="356" height="356" fill="#46A325"/>
<rect x="7657" y="9910" width="356" height="356" fill="#46A325"/>
<rect x="6547" y="9654" width="356" height="356" fill="#46A325"/>
<rect x="6933" y="9506" width="356" height="356" fill="#46A325"/>
<rect x="6242" y="8615" width="356" height="356" fill="#46A325"/>
<rect x="5518" y="9237" width="356" height="356" fill="#46A325"/>
<rect x="5866" y="8739" width="356" height="356" fill="#46A325"/>
<rect x="5937" y="7919" width="356" height="356" fill="#46A325"/>
<rect x="7858" y="8096" width="356" height="356" fill="#46A325"/>
<rect x="6706" y="7258" width="356" height="356" fill="#46A325"/>
<rect x="9469" y="7531" width="356" height="356" fill="#46A325"/>
<rect x="8596" y="6469" width="356" height="356" fill="#46A325"/>
<rect x="6939" y="6074" width="356" height="356" fill="#46A325"/>
<rect x="6939" y="5448" width="356" height="356" fill="#46A325"/>
<rect x="8670" y="5217" width="356" height="356" fill="#46A325"/>
<rect x="9390" y="5866" width="356" height="356" fill="#46A325"/>
<rect x="9647" y="5040" width="356" height="356" fill="#46A325"/>
<rect x="10086" y="5473" width="356" height="356" fill="#46A325"/>
<rect x="9677" y="6656" width="356" height="356" fill="#46A325"/>
<rect x="10592" y="6273" width="356" height="356" fill="#46A325"/>
<rect x="10631" y="7439" width="356" height="356" fill="#46A325"/>
<rect x="10976" y="5679" width="356" height="356" fill="#46A325"/>
<rect x="10697" y="5197" width="356" height="356" fill="#46A325"/>
<rect x="6252" y="5643" width="356" height="356" fill="#46A325"/>
<rect x="6464" y="4775" width="356" height="356" fill="#46A325"/>
<rect x="6377" y="3907" width="356" height="356" fill="#46A325"/>
<rect x="6497" y="4332" width="356" height="356" fill="#46A325"/>
<rect x="7433" y="3517" width="356" height="356" fill="#46A325"/>
<rect x="9097" y="3951" width="356" height="356" fill="#46A325"/>
<rect x="7893" y="2803" width="356" height="356" fill="#46A325"/>
<rect x="9461" y="3020" width="356" height="356" fill="#46A325"/>
<rect x="10401" y="2472" width="356" height="356" fill="#46A325"/>
<rect x="7953" y="2088" width="356" height="356" fill="#46A325"/>
<rect x="9913" y="1663" width="356" height="356" fill="#46A325"/>
<rect x="10991" y="1867" width="356" height="356" fill="#46A325"/>
<rect x="10937" y="980" width="356" height="356" fill="#46A325"/>
<rect x="11577" y="901" width="356" height="356" fill="#46A325"/>
<rect x="8533" y="1144" width="356" height="356" fill="#46A325"/>
<rect x="8052" y="1025" width="356" height="356" fill="#46A325"/>
<rect x="8360" y="299" width="356" height="356" fill="#46A325"/>
<rect x="9415" y="419" width="356" height="356" fill="#46A325"/>
<rect x="6866" y="786" width="356" height="356" fill="#46A325"/>
<rect x="7260" y="2391" width="356" height="356" fill="#46A325"/>
<rect x="6061" y="2554" width="356" height="356" fill="#46A325"/>
<rect x="6045" y="1483" width="356" height="356" fill="#46A325"/>
<rect x="6643" y="1733" width="356" height="356" fill="#46A325"/>
<rect x="7301" y="1623" width="356" height="356" fill="#46A325"/>
<rect x="5955" y="3095" width="356" height="356" fill="#46A325"/>
<rect x="5654" y="3535" width="356" height="356" fill="#46A325"/>
<rect x="5620" y="4995" width="356" height="356" fill="#46A325"/>
<rect x="5664" y="5643" width="356" height="356" fill="#46A325"/>
<rect x="5504" y="6615" width="356" height="356" fill="#46A325"/>
<rect x="9399" y="8476" width="356" height="356" fill="#46A325"/>
<rect x="9789" y="7948" width="356" height="356" fill="#46A325"/>
<rect x="9801" y="9310" width="356" height="356" fill="#46A325"/>
<rect x="10230" y="8858" width="356" height="356" fill="#46A325"/>
<rect x="8773" y="11425" width="356" height="356" fill="#46A325"/>
<rect x="8640" y="14485" width="356" height="356" fill="#46A325"/>
<rect x="5948" y="6471" width="356" height="356" fill="#46A325"/>
<rect x="6209" y="7258" width="356" height="356" fill="#46A325"/>
<rect x="5333" y="14775" width="343" height="350" fill="#46A325"/>
<rect x="4056" y="13849" width="343" height="350" fill="#46A325"/>
<rect x="4241" y="12868" width="343" height="350" fill="#46A325"/>
<rect x="2928" y="13735" width="343" height="350" fill="#46A325"/>
<rect x="2667" y="14855" width="343" height="350" fill="#46A325"/>
<rect x="3715" y="14697" width="343" height="350" fill="#46A325"/>
<rect x="3454" y="12098" width="343" height="350" fill="#46A325"/>
<rect x="4939" y="13338" width="343" height="350" fill="#46A325"/>
<rect x="6381" y="14760" width="343" height="350" fill="#46A325"/>
<rect x="6120" y="13475" width="343" height="350" fill="#46A325"/>
<rect x="7016" y="12289" width="343" height="350" fill="#46A325"/>
<rect x="5778" y="12460" width="343" height="350" fill="#46A325"/>
<rect x="7888" y="11395" width="343" height="350" fill="#46A325"/>
<rect x="8993" y="10064" width="343" height="350" fill="#46A325"/>
<rect x="6211" y="9267" width="343" height="350" fill="#46A325"/>
<rect x="5785" y="10612" width="343" height="350" fill="#46A325"/>
<rect x="6852" y="10144" width="343" height="350" fill="#46A325"/>
<rect x="4851" y="11126" width="343" height="350" fill="#46A325"/>
<rect x="5695" y="11569" width="343" height="350" fill="#46A325"/>
<rect x="4029" y="9347" width="343" height="350" fill="#46A325"/>
<rect x="10703" y="8758" width="343" height="350" fill="#46A325"/>
<rect x="12107" y="10064" width="343" height="350" fill="#46A325"/>
<rect x="11174" y="11300" width="343" height="350" fill="#46A325"/>
<rect x="10784" y="9899" width="343" height="350" fill="#46A325"/>
<rect x="12767" y="11484" width="343" height="350" fill="#46A325"/>
<rect x="9007" y="11829" width="343" height="350" fill="#46A325"/>
<rect x="10539" y="12272" width="343" height="350" fill="#46A325"/>
<rect x="8651" y="13507" width="343" height="350" fill="#46A325"/>
<rect x="9192" y="12868" width="343" height="350" fill="#46A325"/>
<rect x="7187" y="13500" width="343" height="350" fill="#46A325"/>
<rect x="7462" y="14433" width="343" height="350" fill="#46A325"/>
<rect x="8903" y="14840" width="343" height="350" fill="#46A325"/>
<rect x="8230" y="14513" width="343" height="350" fill="#46A325"/>
<rect x="10620" y="13587" width="343" height="350" fill="#46A325"/>
<rect x="10456" y="14762" width="343" height="350" fill="#46A325"/>
<rect x="9548" y="13869" width="343" height="350" fill="#46A325"/>
<rect x="12449" y="13069" width="343" height="350" fill="#46A325"/>
<rect x="12553" y="14620" width="343" height="350" fill="#46A325"/>
<rect x="11449" y="12731" width="343" height="350" fill="#46A325"/>
<rect x="5072" y="9454" width="343" height="350" fill="#46A325"/>
<rect x="9823" y="8489" width="343" height="350" fill="#46A325"/>
<rect x="8229" y="9029" width="343" height="350" fill="#46A325"/>
<rect x="6486" y="8140" width="343" height="350" fill="#46A325"/>
<rect x="4811" y="8236" width="343" height="350" fill="#46A325"/>
<rect x="5707" y="7004" width="343" height="350" fill="#46A325"/>
<rect x="7127" y="7656" width="343" height="350" fill="#46A325"/>
<rect x="6486" y="6089" width="343" height="350" fill="#46A325"/>
<rect x="4550" y="6926" width="343" height="350" fill="#46A325"/>
<rect x="7483" y="5740" width="343" height="350" fill="#46A325"/>
<rect x="5243" y="4753" width="343" height="350" fill="#46A325"/>
<rect x="4140" y="5550" width="343" height="350" fill="#46A325"/>
<rect x="3632" y="4033" width="343" height="350" fill="#46A325"/>
<rect x="4073" y="3386" width="343" height="350" fill="#46A325"/>
<rect x="3909" y="4799" width="343" height="350" fill="#46A325"/>
<rect x="4304" y="5921" width="343" height="350" fill="#46A325"/>
<rect x="6141" y="3621" width="343" height="350" fill="#46A325"/>
<rect x="6040" y="5260" width="343" height="350" fill="#46A325"/>
<rect x="4550" y="3150" width="343" height="350" fill="#46A325"/>
<rect x="7393" y="2881" width="343" height="350" fill="#46A325"/>
<rect x="3454" y="5391" width="343" height="350" fill="#46A325"/>
<rect x="2983" y="7491" width="343" height="350" fill="#46A325"/>
<rect x="9097" y="6848" width="343" height="350" fill="#46A325"/>
<rect x="8058" y="6829" width="343" height="350" fill="#46A325"/>
<rect x="9178" y="5356" width="343" height="350" fill="#46A325"/>
<rect x="10620" y="5914" width="343" height="350" fill="#46A325"/>
<rect x="10165" y="7711" width="343" height="350" fill="#46A325"/>
<rect x="9823" y="6270" width="343" height="350" fill="#46A325"/>
<rect x="11716" y="7678" width="343" height="350" fill="#46A325"/>
<rect x="12292" y="9029" width="343" height="350" fill="#46A325"/>
<rect x="12808" y="6366" width="343" height="350" fill="#46A325"/>
<rect x="10784" y="6861" width="343" height="350" fill="#46A325"/>
<rect x="12188" y="4627" width="343" height="350" fill="#46A325"/>
<rect x="10336" y="4627" width="343" height="350" fill="#46A325"/>
<rect x="11951" y="3324" width="343" height="350" fill="#46A325"/>
<rect x="11140" y="4176" width="343" height="350" fill="#46A325"/>
<rect x="9927" y="2985" width="343" height="350" fill="#46A325"/>
<rect x="11221" y="2803" width="343" height="350" fill="#46A325"/>
<rect x="9178" y="2706" width="343" height="350" fill="#46A325"/>
<rect x="8734" y="3970" width="343" height="350" fill="#46A325"/>
<rect x="8644" y="1625" width="343" height="350" fill="#46A325"/>
<rect x="10031" y="321" width="343" height="350" fill="#46A325"/>
<rect x="12373" y="973" width="343" height="350" fill="#46A325"/>
<rect x="11690" y="1896" width="343" height="350" fill="#46A325"/>
<rect x="12994" y="2531" width="343" height="350" fill="#46A325"/>
<rect x="12558" y="1625" width="343" height="350" fill="#46A325"/>
<rect x="7393" y="798" width="343" height="350" fill="#46A325"/>
<rect x="6959" y="1992" width="343" height="350" fill="#46A325"/>
<rect x="5599" y="1460" width="343" height="350" fill="#46A325"/>
<rect x="5620" y="2786" width="343" height="350" fill="#46A325"/>
<rect x="6500" y="456" width="343" height="350" fill="#46A325"/>
<rect x="6245" y="2038" width="343" height="350" fill="#46A325"/>
<rect x="6698" y="2517" width="343" height="350" fill="#46A325"/>
<rect x="4579" y="1863" width="343" height="350" fill="#46A325"/>
<rect x="5620" y="321" width="343" height="350" fill="#46A325"/>
<rect x="11496" y="449" width="343" height="350" fill="#46A325"/>
<rect x="12662" y="146" width="343" height="350" fill="#46A325"/>
<rect x="5982" y="11090" width="343" height="350" fill="#46A325"/>
<rect x="5029" y="15337" width="343" height="350" fill="#46A325"/>
<rect x="8334" y="15337" width="343" height="350" fill="#46A325"/>
<rect x="9733" y="15137" width="343" height="350" fill="#46A325"/>
<rect x="11530" y="15311" width="343" height="350" fill="#46A325"/>
<rect x="3473" y="13002" width="318.414" height="309.982" fill="#46A325"/>
<rect x="3270" y="14308" width="318.414" height="309.982" fill="#46A325"/>
<rect x="4494" y="14473" width="318.414" height="309.982" fill="#46A325"/>
<rect x="4672" y="13659" width="318.414" height="309.982" fill="#46A325"/>
<rect x="4005" y="13198" width="318.414" height="309.982" fill="#46A325"/>
<rect x="5117" y="12493" width="318.414" height="309.982" fill="#46A325"/>
<rect x="5097" y="12985" width="318.414" height="309.982" fill="#46A325"/>
<rect x="6476" y="12242" width="318.414" height="309.982" fill="#46A325"/>
<rect x="6616" y="11200" width="318.414" height="309.982" fill="#46A325"/>
<rect x="4809" y="11970" width="318.414" height="309.982" fill="#46A325"/>
<rect x="5333" y="11146" width="318.414" height="309.982" fill="#46A325"/>
<rect x="4280" y="11851" width="318.414" height="309.982" fill="#46A325"/>
<rect x="4897" y="10440" width="318.414" height="309.982" fill="#46A325"/>
<rect x="3951" y="11294" width="318.414" height="309.982" fill="#46A325"/>
<rect x="4492" y="15189" width="318.414" height="309.982" fill="#46A325"/>
<rect x="6098" y="15344" width="318.414" height="309.982" fill="#46A325"/>
<rect x="3203" y="15389" width="318.414" height="309.982" fill="#46A325"/>
<rect x="6063" y="10117" width="318.414" height="309.982" fill="#46A325"/>
<rect x="6475" y="10506" width="318.414" height="309.982" fill="#46A325"/>
<rect x="6201" y="11451" width="318.414" height="309.982" fill="#46A325"/>
<rect x="6338" y="10882" width="318.414" height="309.982" fill="#46A325"/>
<rect x="5227" y="9861" width="318.414" height="309.982" fill="#46A325"/>
<rect x="5360" y="10493" width="318.414" height="309.982" fill="#46A325"/>
<rect x="5677" y="9696" width="318.414" height="309.982" fill="#46A325"/>
<rect x="5561" y="8507" width="318.414" height="309.982" fill="#46A325"/>
<rect x="5596" y="7640" width="318.414" height="309.982" fill="#46A325"/>
<rect x="6042" y="8364" width="318.414" height="309.982" fill="#46A325"/>
<rect x="5347" y="8007" width="318.414" height="309.982" fill="#46A325"/>
<rect x="6683" y="7864" width="318.414" height="309.982" fill="#46A325"/>
<rect x="6324" y="6868" width="318.414" height="309.982" fill="#46A325"/>
<rect x="4950" y="7229" width="318.414" height="309.982" fill="#46A325"/>
<rect x="8310" y="7898" width="318.414" height="309.982" fill="#46A325"/>
<rect x="7358" y="8019" width="318.414" height="309.982" fill="#46A325"/>
<rect x="8512" y="6878" width="318.414" height="309.982" fill="#46A325"/>
<rect x="9389" y="8052" width="318.414" height="309.982" fill="#46A325"/>
<rect x="8951" y="8765" width="318.414" height="309.982" fill="#46A325"/>
<rect x="9453" y="8942" width="318.414" height="309.982" fill="#46A325"/>
<rect x="9587" y="7134" width="318.414" height="309.982" fill="#46A325"/>
<rect x="10384" y="8328" width="318.414" height="309.982" fill="#46A325"/>
<rect x="10204" y="9522" width="318.414" height="309.982" fill="#46A325"/>
<rect x="10955" y="9484" width="318.414" height="309.982" fill="#46A325"/>
<rect x="10578" y="10781" width="318.414" height="309.982" fill="#46A325"/>
<rect x="10281" y="10214" width="318.414" height="309.982" fill="#46A325"/>
<rect x="9862" y="11496" width="318.414" height="309.982" fill="#46A325"/>
<rect x="10150" y="11045" width="318.414" height="309.982" fill="#46A325"/>
<rect x="10348" y="11682" width="318.414" height="309.982" fill="#46A325"/>
<rect x="9376" y="11484" width="318.414" height="309.982" fill="#46A325"/>
<rect x="8512" y="11753" width="318.414" height="309.982" fill="#46A325"/>
<rect x="8187" y="12251" width="318.414" height="309.982" fill="#46A325"/>
<rect x="9808" y="12251" width="318.414" height="309.982" fill="#46A325"/>
<rect x="8822" y="12429" width="318.414" height="309.982" fill="#46A325"/>
<rect x="9399" y="11963" width="318.414" height="309.982" fill="#46A325"/>
<rect x="8469" y="12927" width="318.414" height="309.982" fill="#46A325"/>
<rect x="7993" y="13204" width="318.414" height="309.982" fill="#46A325"/>
<rect x="7835" y="14024" width="318.414" height="309.982" fill="#46A325"/>
<rect x="6464" y="13391" width="318.414" height="309.982" fill="#46A325"/>
<rect x="6933" y="13858" width="318.414" height="309.982" fill="#46A325"/>
<rect x="7804" y="13627" width="318.414" height="309.982" fill="#46A325"/>
<rect x="8732" y="14084" width="318.414" height="309.982" fill="#46A325"/>
<rect x="7870" y="15137" width="318.414" height="309.982" fill="#46A325"/>
<rect x="8854" y="15313" width="318.414" height="309.982" fill="#46A325"/>
<rect x="9176" y="14250" width="318.414" height="309.982" fill="#46A325"/>
<rect x="9842" y="14501" width="318.414" height="309.982" fill="#46A325"/>
<rect x="9650" y="12840" width="318.414" height="309.982" fill="#46A325"/>
<rect x="9245" y="13488" width="318.414" height="309.982" fill="#46A325"/>
<rect x="10105" y="12668" width="318.414" height="309.982" fill="#46A325"/>
<rect x="9890" y="13567" width="318.414" height="309.982" fill="#46A325"/>
<rect x="10665" y="12922" width="318.414" height="309.982" fill="#46A325"/>
<rect x="11272" y="14286" width="318.414" height="309.982" fill="#46A325"/>
<rect x="4516" y="13243" width="318.414" height="309.982" fill="#46A325"/>
<rect x="10179" y="12191" width="318.414" height="309.982" fill="#46A325"/>
<rect x="8004" y="10165" width="318.414" height="309.982" fill="#46A325"/>
<rect x="6853" y="9016" width="318.414" height="309.982" fill="#46A325"/>
<rect x="7291" y="10083" width="318.414" height="309.982" fill="#46A325"/>
<rect x="6858" y="8585" width="318.414" height="309.982" fill="#46A325"/>
<rect x="6700" y="6542" width="318.414" height="309.982" fill="#46A325"/>
<rect x="5746" y="6136" width="318.414" height="309.982" fill="#46A325"/>
<rect x="5030" y="6098" width="318.414" height="309.982" fill="#46A325"/>
<rect x="5213" y="5455" width="318.414" height="309.982" fill="#46A325"/>
<rect x="5850" y="3977" width="318.414" height="309.982" fill="#46A325"/>
<rect x="6641" y="5363" width="318.414" height="309.982" fill="#46A325"/>
<rect x="5881" y="4599" width="318.414" height="309.982" fill="#46A325"/>
<rect x="6998" y="3135" width="318.414" height="309.982" fill="#46A325"/>
<rect x="6505" y="3180" width="318.414" height="309.982" fill="#46A325"/>
<rect x="6904" y="3547" width="318.414" height="309.982" fill="#46A325"/>
<rect x="7899" y="3393" width="318.414" height="309.982" fill="#46A325"/>
<rect x="7735" y="2443" width="318.414" height="309.982" fill="#46A325"/>
<rect x="5317" y="3548" width="318.414" height="309.982" fill="#46A325"/>
<rect x="4811" y="3673" width="318.414" height="309.982" fill="#46A325"/>
<rect x="5053" y="2736" width="318.414" height="309.982" fill="#46A325"/>
<rect x="5128" y="4010" width="318.414" height="309.982" fill="#46A325"/>
<rect x="5620" y="2118" width="318.414" height="309.982" fill="#46A325"/>
<rect x="5074" y="1885" width="318.414" height="309.982" fill="#46A325"/>
<rect x="7635" y="1885" width="318.414" height="309.982" fill="#46A325"/>
<rect x="6354" y="1422" width="318.414" height="309.982" fill="#46A325"/>
<rect x="7654" y="1335" width="318.414" height="309.982" fill="#46A325"/>
<rect x="8216" y="1709" width="318.414" height="309.982" fill="#46A325"/>
<rect x="9375" y="1555" width="318.414" height="309.982" fill="#46A325"/>
<rect x="7900" y="592" width="318.414" height="309.982" fill="#46A325"/>
<rect x="6963" y="1364" width="318.414" height="309.982" fill="#46A325"/>
<rect x="6142" y="993" width="318.414" height="309.982" fill="#46A325"/>
<rect x="7418" y="295" width="318.414" height="309.982" fill="#46A325"/>
<rect x="7998" y="19" width="318.414" height="309.982" fill="#46A325"/>
<rect x="5995" y="64" width="318.414" height="309.982" fill="#46A325"/>
<rect x="10817" y="72" width="318.414" height="309.982" fill="#46A325"/>
<rect x="9611" y="31" width="318.414" height="309.982" fill="#46A325"/>
<rect x="10639" y="529" width="318.414" height="309.982" fill="#46A325"/>
<rect x="11990" y="168" width="318.414" height="309.982" fill="#46A325"/>
<rect x="11221" y="1500" width="318.414" height="309.982" fill="#46A325"/>
<rect x="11990" y="1339" width="318.414" height="309.982" fill="#46A325"/>
<rect x="12916" y="826" width="318.414" height="309.982" fill="#46A325"/>
<rect x="12110" y="2524" width="318.414" height="309.982" fill="#46A325"/>
<rect x="11325" y="2524" width="318.414" height="309.982" fill="#46A325"/>
<rect x="11008" y="2427" width="318.414" height="309.982" fill="#46A325"/>
<rect x="11061" y="3394" width="318.414" height="309.982" fill="#46A325"/>
<rect x="10387" y="2947" width="318.414" height="309.982" fill="#46A325"/>
<rect x="11812" y="2921" width="318.414" height="309.982" fill="#46A325"/>
<rect x="10355" y="3718" width="318.414" height="309.982" fill="#46A325"/>
<rect x="11508" y="3901" width="318.414" height="309.982" fill="#46A325"/>
<rect x="12620" y="3135" width="318.414" height="309.982" fill="#46A325"/>
<rect x="11793" y="4606" width="318.414" height="309.982" fill="#46A325"/>
<rect x="12544" y="3837" width="318.414" height="309.982" fill="#46A325"/>
<rect x="10578" y="4152" width="318.414" height="309.982" fill="#46A325"/>
<rect x="10124" y="4261" width="318.414" height="309.982" fill="#46A325"/>
<rect x="7813" y="4445" width="318.414" height="309.982" fill="#46A325"/>
<rect x="8059" y="4908" width="318.414" height="309.982" fill="#46A325"/>
<rect x="8725" y="6051" width="318.414" height="309.982" fill="#46A325"/>
<rect x="9715" y="5606" width="318.414" height="309.982" fill="#46A325"/>
<rect x="10177" y="5005" width="318.414" height="309.982" fill="#46A325"/>
<rect x="11399" y="5099" width="318.414" height="309.982" fill="#46A325"/>
<rect x="10798" y="4696" width="318.414" height="309.982" fill="#46A325"/>
<rect x="10071" y="5924" width="318.414" height="309.982" fill="#46A325"/>
<rect x="11219" y="5375" width="318.414" height="309.982" fill="#46A325"/>
<rect x="11115" y="6484" width="318.414" height="309.982" fill="#46A325"/>
<rect x="10488" y="5455" width="318.414" height="309.982" fill="#46A325"/>
<rect x="10329" y="6604" width="318.414" height="309.982" fill="#46A325"/>
<rect x="9136" y="6419" width="318.414" height="309.982" fill="#46A325"/>
<rect x="10110" y="7110" width="318.414" height="309.982" fill="#46A325"/>
<rect x="11418" y="6038" width="318.414" height="309.982" fill="#46A325"/>
<rect x="11909" y="5497" width="318.414" height="309.982" fill="#46A325"/>
<rect x="11272" y="7331" width="318.414" height="309.982" fill="#46A325"/>
<rect x="10954" y="8149" width="318.414" height="309.982" fill="#46A325"/>
<rect x="11990" y="6670" width="318.414" height="309.982" fill="#46A325"/>
<rect x="11544" y="8398" width="318.414" height="309.982" fill="#46A325"/>
<rect x="11430" y="9237" width="318.414" height="309.982" fill="#46A325"/>
<rect x="11561" y="10159" width="318.414" height="309.982" fill="#46A325"/>
<rect x="12172" y="9597" width="318.414" height="309.982" fill="#46A325"/>
<rect x="11597" y="10781" width="318.414" height="309.982" fill="#46A325"/>
<rect x="11450" y="12100" width="318.414" height="309.982" fill="#46A325"/>
<rect x="12043" y="11255" width="318.414" height="309.982" fill="#46A325"/>
<rect x="11271" y="13763" width="318.414" height="309.982" fill="#46A325"/>
<rect x="3951" y="12352" width="318.414" height="309.982" fill="#46A325"/>
<g opacity="0.01">
<path d="M7368.49 15768.5C7368.49 15696.5 7368.49 15736 7368.49 15637C7368.49 14658.5 6776.51 14271 6364 14385C5951.49 14499 5692 14157 5692 13769C5692 13381 6357 12961.5 6828 13127.5C7299 13293.5 7866.22 13256.5 7674.5 12401C7578.47 11972.5 7200.35 11697.9 7529.5 11249C7955.5 10668 8454.5 11193.5 8962 11113.5C9469.5 11033.5 9856.5 10594.5 9696.5 10110.5C9536.5 9626.5 8698.2 9667.65 8425.5 9720C7480.64 9901.37 7421.04 8790.51 8150.5 8706.5C8998.03 8608.89 9100 8130.5 9016.5 7879.5C8916.2 7578 8670.26 7541.61 8072 7631.5C7468.31 7722.21 7161.89 6747.33 7925 6487.5C8674.38 6232.35 8575.01 5522.5 7777.5 5394C7308.51 5318.43 7074 4879.5 7310 4484.5C7546 4089.5 8209.61 4002.48 8522 4442C8758.55 4774.81 9434.5 4973.5 9730.5 4484.5C10026.5 3995.5 9587.5 3706.5 9065 3541C8542.5 3375.5 8540.37 2926.5 8627.5 2690.5C8714.63 2454.5 9007.5 2328.5 9476.5 2367.5C9973.1 2408.8 10224 2477 10528 2105C10832 1733 10298 1082.5 9803 1157.5C8904 1293.71 9008.5 560.5 9008.5 170.5C9008.5 48 9008.5 32.5 9008.5 0" stroke="#FA5F3D" stroke-width="550"/>
</g>
<g opacity="0.5">
<path d="M7368.49 15767.5C7368.49 15695.5 7368.49 15735 7368.49 15636C7368.49 14657.5 6776.51 14270 6364 14384C5951.49 14498 5692 14156 5692 13768C5692 13380 6357 12960.5 6828 13126.5C7299 13292.5 7866.22 13255.5 7674.5 12400C7578.47 11971.5 7200.35 11696.9 7529.5 11248C7955.5 10667 8454.5 11192.5 8962 11112.5C9469.5 11032.5 9856.5 10593.5 9696.5 10109.5C9536.5 9625.5 8698.2 9666.65 8425.5 9719C7480.64 9900.37 7421.04 8789.51 8150.5 8705.5C8998.03 8607.89 9100 8129.5 9016.5 7878.5C8916.2 7577 8670.26 7540.61 8072 7630.5C7468.31 7721.21 7161.89 6746.33 7925 6486.5C8674.38 6231.35 8575.01 5521.5 7777.5 5393C7308.51 5317.43 7074 4878.5 7310 4483.5C7546 4088.5 8209.61 4001.48 8522 4441C8758.55 4773.81 9434.5 4972.5 9730.5 4483.5C10026.5 3994.5 9587.5 3705.5 9065 3540C8542.5 3374.5 8540.37 2925.5 8627.5 2689.5C8714.63 2453.5 9007.5 2327.5 9476.5 2366.5C9973.1 2407.8 10224 2476 10528 2104C10832 1732 10298 1081.5 9803 1156.5C8904 1292.71 9008.5 559.5 9008.5 169.5C9008.5 47 9008.5 31.5 9008.5 -1" stroke="#53656A" stroke-width="500"/>
</g>
<rect x="7333" y="15692" width="135" height="70" transform="rotate(-90 7333 15692)" fill="#BF3232"/>
<path d="M8015.41 5447.46C7963.41 5428.26 7835.07 5401.46 7777.41 5390.46C7308.42 5314.89 7073.91 4875.96 7309.91 4480.96C7545.91 4085.96 8209.52 3998.94 8521.91 4438.46C8758.45 4771.27 9434.41 4969.96 9730.41 4480.96C10026.4 3991.96 9587.41 3702.96 9064.91 3537.46C8542.41 3371.96 8540.27 2922.96 8627.41 2686.96C8714.54 2450.96 9007.41 2324.96 9476.41 2363.96C9973.01 2405.26 10223.9 2473.46 10527.9 2101.46C10831.9 1729.46 10297.9 1078.96 9802.91 1153.96C9728.41 1162.46 9574.11 1179.96 9552.91 1181.96" stroke="#8C432B" stroke-width="500"/>
<path d="M8395 8679C8368.2 8684.2 8222.83 8699.17 8153.5 8706C7424.04 8790.01 7483.64 9900.87 8428.5 9719.5C8701.2 9667.15 9539.5 9626 9699.5 10110C9859.5 10594 9468.5 11032.5 8961 11112.5C8453.5 11192.5 7793.9 10686 7495 11268.5C7240.87 11763.8 7591.47 12002.5 7687.5 12431C7879.22 13286.5 7230 13282 6759 13116C6719.83 13105.5 6628.3 13103.2 6539.5 13076" stroke="#8C432B" stroke-width="505"/>
<path d="M7139.59 15729.6L7139.59 15217L6934.05 15217L6934.05 15725.8L6934.05 15729.6L7139.59 15729.6Z" fill="#D1C9C3"/>
</g>
<defs>
<clipPath id="clip0_1308_31681">
<rect width="13918" height="15768" fill="white"/>
</clipPath>
</defs>
</svg>
