<svg width="11781" height="2232" viewBox="0 0 11781 2232" fill="none" xmlns="http://www.w3.org/2000/svg">
<g clip-path="url(#clip0_947_4834)">
<rect x="5897" y="964" width="135" height="70" transform="rotate(-90 5897 964)" fill="#BF3232"/>
<g opacity="0.1">
<path d="M5932 2042C5932 1509.12 5932 628.792 5932 -1" stroke="#53656A" stroke-width="350"/>
</g>
<g opacity="0.01">
<path d="M5932 2042C5932 1509.12 5932 628.792 5932 -1" stroke="#FA5F3D" stroke-width="650"/>
</g>
<g opacity="0.05">
<rect opacity="0.5" x="5643" y="135" width="561" height="43" fill="#14FF00"/>
<rect x="5593" y="116" width="115" height="80" fill="#D1C9C3"/>
<rect x="6160" y="116" width="115" height="80" fill="#D1C9C3"/>
</g>
<rect x="6136.73" y="1861.82" width="44.6445" height="44.6445" rx="9" transform="rotate(40.3603 6136.73 1861.82)" fill="#E35F26" stroke="#B14314" stroke-width="4"/>
<rect x="6106.69" y="1707.01" width="44.6445" height="44.6445" rx="9" transform="rotate(-27.0738 6106.69 1707.01)" fill="#E35F26" stroke="#B14314" stroke-width="4"/>
<rect x="5976.98" y="1713.2" width="44.6445" height="44.6445" rx="9" transform="rotate(6.13785 5976.98 1713.2)" fill="#E35F26" stroke="#B14314" stroke-width="4"/>
<rect x="5714.98" y="227.202" width="44.6445" height="44.6445" rx="9" transform="rotate(6.13785 5714.98 227.202)" fill="#E35F26" stroke="#B14314" stroke-width="4"/>
<rect x="5673.97" y="1860.28" width="44.6445" height="44.6445" rx="9" transform="rotate(8.62133 5673.97 1860.28)" fill="#E35F26" stroke="#B14314" stroke-width="4"/>
<rect x="5741.8" y="1785.2" width="44.6445" height="44.6445" rx="9" transform="rotate(-143.746 5741.8 1785.2)" fill="#E35F26" stroke="#B14314" stroke-width="4"/>
<rect x="5589.07" y="1785.58" width="240" height="24.2308" transform="rotate(14.6309 5589.07 1785.58)" fill="#D1C9C3"/>
<rect x="6025.29" y="1845.07" width="240" height="24.2308" transform="rotate(-14.6494 6025.29 1845.07)" fill="#D1C9C3"/>
<rect x="5803.99" y="1867.6" width="240" height="24.2308" transform="rotate(-0.271456 5803.99 1867.6)" fill="#D1C9C3"/>
<path d="M6195 1784.5C6195 1771 6195 221.5 6195 207.5" stroke="#9A9A9A" stroke-width="13" stroke-linecap="round"/>
<path d="M5668 1784C5668 1770.5 5668 221 5668 207" stroke="#9A9A9A" stroke-width="13" stroke-linecap="round"/>
</g>
<defs>
<clipPath id="clip0_947_4834">
<rect width="11781" height="2232" fill="white"/>
</clipPath>
</defs>
</svg>
