<svg width="11781" height="2232" viewBox="0 0 11781 2232" fill="none" xmlns="http://www.w3.org/2000/svg">
<g opacity="0.1">
<path d="M5932 2232C5932 1699.12 5932 818.792 5932 189" stroke="#53656A" stroke-width="350"/>
</g>
<g opacity="0.01">
<path d="M5932 2232C5932 1699.12 5932 818.792 5932 189" stroke="#FA5F3D" stroke-width="650"/>
</g>
<g opacity="0.05">
<rect opacity="0.5" x="5643" y="1872" width="561" height="43" fill="#FF1F00"/>
<rect x="5593" y="1853" width="115" height="80" fill="#D1C9C3"/>
<rect x="6160" y="1853" width="115" height="80" fill="#D1C9C3"/>
</g>
<rect x="5933.73" y="141.819" width="44.6445" height="44.6445" rx="9" transform="rotate(40.3603 5933.73 141.819)" fill="#E35F26" stroke="#B14314" stroke-width="4"/>
<rect x="6154.69" y="80.0102" width="44.6445" height="44.6445" rx="9" transform="rotate(-27.0738 6154.69 80.0102)" fill="#E35F26" stroke="#B14314" stroke-width="4"/>
<rect x="5717.98" y="205.202" width="44.6445" height="44.6445" rx="9" transform="rotate(6.13785 5717.98 205.202)" fill="#E35F26" stroke="#B14314" stroke-width="4"/>
<rect x="5871.97" y="227.277" width="44.6445" height="44.6445" rx="9" transform="rotate(8.62133 5871.97 227.277)" fill="#E35F26" stroke="#B14314" stroke-width="4"/>
<rect x="6122.8" y="238.199" width="44.6445" height="44.6445" rx="9" transform="rotate(-143.746 6122.8 238.199)" fill="#E35F26" stroke="#B14314" stroke-width="4"/>
<rect x="6257.51" y="186.565" width="240" height="24.2308" transform="rotate(-165.369 6257.51 186.565)" fill="#D1C9C3"/>
<rect x="5821.29" y="127.071" width="240" height="24.2308" transform="rotate(165.351 5821.29 127.071)" fill="#D1C9C3"/>
<rect x="6042.59" y="104.545" width="240" height="24.2308" transform="rotate(179.729 6042.59 104.545)" fill="#D1C9C3"/>
<path d="M6195 1784.5C6195 1771 6195 221.5 6195 207.5" stroke="#9A9A9A" stroke-width="13" stroke-linecap="round"/>
<path d="M5668 1784C5668 1770.5 5668 221 5668 207" stroke="#9A9A9A" stroke-width="13" stroke-linecap="round"/>
</svg>
