<svg width="6174" height="6179" viewBox="0 0 6174 6179" fill="none" xmlns="http://www.w3.org/2000/svg">
<rect x="1131.35" y="3604.17" width="562.353" height="101.554" transform="rotate(-180 1131.35 3604.17)" fill="#D58850"/>
<rect x="1112" y="3465" width="150" height="1325" fill="#D9D9D9"/>
<path d="M1146 3326.5L1112 3420.5V3466.5L1126.68 3555.43L1591 3307.5L1515.5 3238.5L1429 3202L1332 3196.5L1254.5 3218.5L1188.5 3263.5L1146 3326.5Z" fill="#D9D9D9"/>
<path d="M785.157 5002.86L905.5 4917.5L1056 4838L1331 5062.5V5219L1317.6 5327.82L1258.55 5453.93L1171.81 5524.46L1053.95 5552.62L922.863 5537.93L819.951 5488.46L743.502 5412.06L703.562 5335.9L682 5243.58L690.086 5158.12L726.105 5080.49L785.157 5002.86Z" fill="#D9D9D9"/>
<rect x="916" y="4932.34" width="251.429" height="138.28" transform="rotate(-35.8732 916 4932.34)" fill="#D9D9D9"/>
<rect x="1013.46" y="4878.61" width="187.725" height="106.155" transform="rotate(-51.9236 1013.46 4878.61)" fill="#D9D9D9"/>
<rect x="1069.56" y="4861.51" width="231.198" height="138.28" transform="rotate(-75.2052 1069.56 4861.51)" fill="#D9D9D9"/>
<rect x="1189.49" y="5164.81" width="403.535" height="135.441" transform="rotate(-80.5341 1189.49 5164.81)" fill="#D9D9D9"/>
<rect x="1250.7" y="4906.16" width="354.971" height="107.829" transform="rotate(-68.195 1250.7 4906.16)" fill="#D9D9D9"/>
<rect x="1317.88" y="4625.86" width="313.185" height="141.133" transform="rotate(-55.191 1317.88 4625.86)" fill="#D9D9D9"/>
<rect x="1402.08" y="4469.93" width="324.344" height="138.28" transform="rotate(-38.0859 1402.08 4469.93)" fill="#D9D9D9"/>
<rect x="1541" y="4339.01" width="324.344" height="138.28" transform="rotate(-27.1517 1541 4339.01)" fill="#D9D9D9"/>
<rect x="1486.98" y="3232" width="334.491" height="120.61" transform="rotate(34.305 1486.98 3232)" fill="#D9D9D9"/>
<rect x="1669.24" y="3361" width="354.751" height="120.61" transform="rotate(19.4909 1669.24 3361)" fill="#D9D9D9"/>
<rect x="1891.72" y="3453" width="282.621" height="120.61" transform="rotate(7.48861 1891.72 3453)" fill="#D9D9D9"/>
<rect x="2079.04" y="3483" width="282.621" height="120.61" transform="rotate(3.34378 2079.04 3483)" fill="#D9D9D9"/>
<rect x="2227.96" y="3495.64" width="296.13" height="120.61" transform="rotate(-5.13562 2227.96 3495.64)" fill="#D9D9D9"/>
<rect x="2438.96" y="3480.61" width="296.13" height="120.61" transform="rotate(-14.3266 2438.96 3480.61)" fill="#D9D9D9"/>
<rect x="2670.21" y="3427.02" width="296.13" height="120.61" transform="rotate(-29.4141 2670.21 3427.02)" fill="#D9D9D9"/>
<rect x="2788" y="3388" width="296.13" height="120.61" transform="rotate(-47.6921 2788 3388)" fill="#D9D9D9"/>
<rect x="2867.36" y="3336.91" width="296.13" height="120.61" transform="rotate(-58.4941 2867.36 3336.91)" fill="#D9D9D9"/>
<rect x="2976.69" y="3174.53" width="310.033" height="120.61" transform="rotate(-75.2261 2976.69 3174.53)" fill="#D9D9D9"/>
<rect x="3029.34" y="3010.74" width="310.033" height="120.61" transform="rotate(-88.5984 3029.34 3010.74)" fill="#D9D9D9"/>
<rect x="3038.93" y="2776.97" width="310.033" height="120.61" transform="rotate(-100.296 3038.93 2776.97)" fill="#D9D9D9"/>
<rect x="3013.58" y="2652.92" width="310.033" height="120.61" transform="rotate(-112.687 3013.58 2652.92)" fill="#D9D9D9"/>
<rect x="2977.32" y="2545.27" width="327.043" height="120.61" transform="rotate(-127.272 2977.32 2545.27)" fill="#D9D9D9"/>
<rect x="2934.67" y="2416.02" width="352.869" height="120.61" transform="rotate(-146.328 2934.67 2416.02)" fill="#D9D9D9"/>
<rect x="2750.56" y="2277.42" width="446.382" height="120.61" transform="rotate(-160.92 2750.56 2277.42)" fill="#D9D9D9"/>
<rect x="2440.25" y="2159.3" width="518.132" height="120.61" transform="rotate(-166.91 2440.25 2159.3)" fill="#D9D9D9"/>
<rect x="2084.63" y="2063.66" width="528.564" height="120.61" transform="rotate(-173.132 2084.63 2063.66)" fill="#D9D9D9"/>
<rect x="2346.84" y="1651.59" width="200.378" height="120.61" transform="rotate(180 2346.84 1651.59)" fill="#D9D9D9"/>
<rect x="2213.87" y="1651.5" width="325.537" height="120.61" transform="rotate(-177.246 2213.87 1651.5)" fill="#D9D9D9"/>
<rect x="2550.55" y="1577.22" width="282.054" height="120.61" transform="rotate(164.677 2550.55 1577.22)" fill="#D9D9D9"/>
<rect x="2749.48" y="1454.9" width="264.919" height="120.61" transform="rotate(149.02 2749.48 1454.9)" fill="#D9D9D9"/>
<rect x="2854.76" y="1322.27" width="221.626" height="120.61" transform="rotate(130.535 2854.76 1322.27)" fill="#D9D9D9"/>
<rect x="2903.21" y="1161.62" width="200.378" height="120.61" transform="rotate(108.359 2903.21 1161.62)" fill="#D9D9D9"/>
<rect x="2917.96" y="937.232" width="247.154" height="120.61" transform="rotate(93.5908 2917.96 937.232)" fill="#D9D9D9"/>
<path d="M2790.63 924.322V1065.35L3129 1341.5L3147 1224L3155.97 1107.79V1038.23L3143.52 951.124L3115.5 851.5L3064 764.5L2997 712L2926.55 692.037L2875 702L2833.5 748.5L2810.41 822.537L2790.63 924.322Z" fill="#D9D9D9"/>
<rect x="3134.54" y="1098.63" width="513.129" height="120.61" transform="rotate(90.78 3134.54 1098.63)" fill="#D9D9D9"/>
<rect x="3113.28" y="1512" width="400.29" height="120.61" transform="rotate(81.4783 3113.28 1512)" fill="#D9D9D9"/>
<rect x="3147.71" y="1791" width="306.01" height="120.61" transform="rotate(69.1445 3147.71 1791)" fill="#D9D9D9"/>
<rect x="5537.88" y="4209" width="432.356" height="160.297" transform="rotate(36.7368 5537.88 4209)" fill="#D9D9D9"/>
<rect x="5498.9" y="4213" width="250.558" height="160.297" transform="rotate(30.3107 5498.9 4213)" fill="#D9D9D9"/>
<rect x="5160.08" y="4080.69" width="481.733" height="168.744" transform="rotate(21.1393 5160.08 4080.69)" fill="#D9D9D9"/>
<rect x="4877.77" y="4038.34" width="471.838" height="168.744" transform="rotate(10.8833 4877.77 4038.34)" fill="#D9D9D9"/>
<rect x="4601.83" y="4038.62" width="510.77" height="168.744" transform="rotate(0.961893 4601.83 4038.62)" fill="#D9D9D9"/>
<rect x="5795.57" y="4344.62" width="420.628" height="175.715" transform="rotate(51.0061 5795.57 4344.62)" fill="#D9D9D9"/>
<rect x="6168.07" y="5220.31" width="278.508" height="159.251" transform="rotate(103.549 6168.07 5220.31)" fill="#D9D9D9"/>
<rect x="6167.73" y="5044.38" width="252.117" height="162.957" transform="rotate(91.3226 6167.73 5044.38)" fill="#D9D9D9"/>
<rect x="6131.11" y="4843" width="295.349" height="166.864" transform="rotate(81.6755 6131.11 4843)" fill="#D9D9D9"/>
<rect x="6031.04" y="4638" width="356.895" height="165.197" transform="rotate(69.7993 6031.04 4638)" fill="#D9D9D9"/>
<rect x="5931.18" y="4509" width="356.895" height="165.197" transform="rotate(60.0821 5931.18 4509)" fill="#D9D9D9"/>
<rect x="6138.3" y="5401.88" width="282.836" height="165.047" transform="rotate(122.169 6138.3 5401.88)" fill="#D9D9D9"/>
<rect x="6063.78" y="5547.92" width="343.948" height="170.41" transform="rotate(138.649 6063.78 5547.92)" fill="#D9D9D9"/>
<rect x="5976.02" y="5679.84" width="430.064" height="182.658" transform="rotate(155.218 5976.02 5679.84)" fill="#D9D9D9"/>
<rect x="5692.26" y="5806.47" width="443.172" height="158.108" transform="rotate(171.758 5692.26 5806.47)" fill="#D9D9D9"/>
<rect x="5280.25" y="5870.01" width="402.962" height="161.398" transform="rotate(-173.346 5280.25 5870.01)" fill="#D9D9D9"/>
<rect x="5477.96" y="5859.98" width="402.962" height="161.398" transform="rotate(-179.775 5477.96 5859.98)" fill="#D9D9D9"/>
<rect x="5802.48" y="5752.43" width="402.962" height="161.398" transform="rotate(163.101 5802.48 5752.43)" fill="#D9D9D9"/>
<rect x="4866.72" y="5805.22" width="528.591" height="120.61" transform="rotate(-155.278 4866.72 5805.22)" fill="#D9D9D9"/>
<rect x="5117.79" y="5882.01" width="533.109" height="163.3" transform="rotate(-163.743 5117.79 5882.01)" fill="#D9D9D9"/>
<rect x="3976.64" y="5582.83" width="371.696" height="120.61" transform="rotate(135.316 3976.64 5582.83)" fill="#D9D9D9"/>
<rect x="3819.19" y="5762.73" width="391.369" height="120.61" transform="rotate(146.633 3819.19 5762.73)" fill="#D9D9D9"/>
<rect x="3657.5" y="5890.84" width="391.369" height="120.61" transform="rotate(162.201 3657.5 5890.84)" fill="#D9D9D9"/>
<rect x="3388.06" y="6000.12" width="391.369" height="120.61" transform="rotate(-177.715 3388.06 6000.12)" fill="#D9D9D9"/>
<rect x="3096.12" y="5993.69" width="284.576" height="120.61" transform="rotate(-163.687 3096.12 5993.69)" fill="#D9D9D9"/>
<rect x="2734.44" y="5863.78" width="301.916" height="120.61" transform="rotate(-143.418 2734.44 5863.78)" fill="#D9D9D9"/>
<rect x="2611.39" y="5786.17" width="257.788" height="120.61" transform="rotate(-131.373 2611.39 5786.17)" fill="#D9D9D9"/>
<rect x="2910.44" y="5944.88" width="257.788" height="120.61" transform="rotate(-152.875 2910.44 5944.88)" fill="#D9D9D9"/>
<rect x="3453.27" y="5966.59" width="257.788" height="120.61" transform="rotate(172.536 3453.27 5966.59)" fill="#D9D9D9"/>
<rect x="2568.56" y="5791.69" width="391.369" height="120.61" transform="rotate(-121.512 2568.56 5791.69)" fill="#D9D9D9"/>
<rect x="2440.7" y="5661.34" width="410.336" height="120.61" transform="rotate(-108.72 2440.7 5661.34)" fill="#D9D9D9"/>
<path d="M4432.48 3545.79L4595 3493.5L4926.5 4214L4606.5 4233L4497 4214L4397.64 4179.93L4297 4110.12L4231.5 4014.18L4200 3902.62L4210.5 3803.62L4250.17 3725.34L4303 3649.5L4432.48 3545.79Z" fill="#D9D9D9"/>
<rect x="3191" y="1963.37" width="332.471" height="120.61" transform="rotate(56.801 3191 1963.37)" fill="#D9D9D9"/>
<rect x="3266.42" y="2105.1" width="332.471" height="120.61" transform="rotate(46.0488 3266.42 2105.1)" fill="#D9D9D9"/>
<rect x="3424.77" y="2277.42" width="332.471" height="120.61" transform="rotate(36.4042 3424.77 2277.42)" fill="#D9D9D9"/>
<rect x="3615.88" y="2438.65" width="446.962" height="120.61" transform="rotate(23.653 3615.88 2438.65)" fill="#D9D9D9"/>
<rect x="4705.74" y="2039.94" width="521.542" height="152.911" transform="rotate(-178.039 4705.74 2039.94)" fill="#D9D9D9"/>
<rect x="5042.88" y="2126.4" width="399.348" height="174.94" transform="rotate(-166.077 5042.88 2126.4)" fill="#D9D9D9"/>
<rect x="5238.77" y="2251.65" width="385.909" height="186.303" transform="rotate(-149.902 5238.77 2251.65)" fill="#D9D9D9"/>
<rect x="5373.4" y="2471.82" width="346.564" height="176.626" transform="rotate(-126.348 5373.4 2471.82)" fill="#D9D9D9"/>
<rect x="5397.24" y="2695.49" width="346.564" height="169.173" transform="rotate(-102.201 5397.24 2695.49)" fill="#D9D9D9"/>
<rect x="5384.96" y="2952.39" width="423.423" height="148.261" transform="rotate(-88.0043 5384.96 2952.39)" fill="#D9D9D9"/>
<rect x="5278.85" y="3176.02" width="333.232" height="161.613" transform="rotate(-67.0447 5278.85 3176.02)" fill="#D9D9D9"/>
<rect x="5121.54" y="3326.28" width="296.263" height="184.16" transform="rotate(-47.7967 5121.54 3326.28)" fill="#D9D9D9"/>
<rect x="4930.47" y="3406.85" width="296.263" height="184.16" transform="rotate(-28.2416 4930.47 3406.85)" fill="#D9D9D9"/>
<rect x="4579.97" y="3496.91" width="477.02" height="184.16" transform="rotate(-16.5671 4579.97 3496.91)" fill="#D9D9D9"/>
<rect x="3894" y="2589" width="386.619" height="120.61" transform="rotate(6.66575 3894 2589)" fill="#D9D9D9"/>
<rect x="3850.44" y="2550" width="252.584" height="120.61" transform="rotate(16.5925 3850.44 2550)" fill="#D9D9D9"/>
<rect x="4348.54" y="1998.77" width="386.619" height="120.61" transform="rotate(-173.334 4348.54 1998.77)" fill="#D9D9D9"/>
<rect x="3886.12" y="2976.55" width="597.24" height="170.505" transform="rotate(-21.2974 3886.12 2976.55)" fill="#D9D9D9"/>
<rect x="3696.44" y="3217.79" width="419.48" height="170.505" transform="rotate(-43.3346 3696.44 3217.79)" fill="#D9D9D9"/>
<rect x="3556.83" y="3552.29" width="419.48" height="170.505" transform="rotate(-65.4414 3556.83 3552.29)" fill="#D9D9D9"/>
<rect x="3528.06" y="3832.39" width="419.48" height="170.505" transform="rotate(-81.0774 3528.06 3832.39)" fill="#D9D9D9"/>
<rect x="3572.76" y="4120.94" width="419.48" height="170.505" transform="rotate(-98.318 3572.76 4120.94)" fill="#D9D9D9"/>
<rect x="3722.26" y="4444.93" width="419.48" height="170.505" transform="rotate(-114.019 3722.26 4444.93)" fill="#D9D9D9"/>
<rect x="4001.05" y="4684.81" width="419.48" height="170.505" transform="rotate(-134.898 4001.05 4684.81)" fill="#D9D9D9"/>
<rect x="4330.48" y="4837.31" width="419.48" height="170.505" transform="rotate(-153.079 4330.48 4837.31)" fill="#D9D9D9"/>
<rect x="4700.55" y="4870.75" width="419.48" height="110.079" transform="rotate(-164.252 4700.55 4870.75)" fill="#D9D9D9"/>
<rect x="5059.1" y="4878.55" width="474.312" height="104.808" transform="rotate(-174.824 5059.1 4878.55)" fill="#D9D9D9"/>
<rect x="4420.14" y="5002.59" width="409.363" height="120.61" transform="rotate(-175.805 4420.14 5002.59)" fill="#D9D9D9"/>
<rect x="4584.33" y="5031.45" width="302.994" height="120.61" transform="rotate(-171.478 4584.33 5031.45)" fill="#D9D9D9"/>
<rect x="4755.64" y="5116.79" width="333.093" height="120.61" transform="rotate(-159.864 4755.64 5116.79)" fill="#D9D9D9"/>
<rect x="4826.87" y="5186.3" width="258.835" height="120.61" transform="rotate(-150.179 4826.87 5186.3)" fill="#D9D9D9"/>
<rect x="4138.4" y="4970.7" width="348.513" height="120.61" transform="rotate(171.89 4138.4 4970.7)" fill="#D9D9D9"/>
<rect x="3924" y="4983.47" width="348.513" height="113.924" transform="rotate(156.499 3924 4983.47)" fill="#D9D9D9"/>
<rect x="3727.85" y="5060.77" width="390.465" height="120.61" transform="rotate(148.235 3727.85 5060.77)" fill="#D9D9D9"/>
<rect x="3101.96" y="5306.85" width="507.971" height="120.61" transform="rotate(-111.308 3101.96 5306.85)" fill="#D9D9D9"/>
<rect x="2985.38" y="4939.93" width="376.062" height="120.61" transform="rotate(-122.733 2985.38 4939.93)" fill="#D9D9D9"/>
<rect x="2866.26" y="4720.8" width="395.843" height="120.61" transform="rotate(-138.451 2866.26 4720.8)" fill="#D9D9D9"/>
<rect x="2694.38" y="4565.19" width="395.843" height="120.61" transform="rotate(-147.616 2694.38 4565.19)" fill="#D9D9D9"/>
<rect x="2488.39" y="4416.9" width="395.843" height="120.61" transform="rotate(-163.083 2488.39 4416.9)" fill="#D9D9D9"/>
<rect x="2282.06" y="4335.11" width="395.843" height="120.61" transform="rotate(-176.504 2282.06 4335.11)" fill="#D9D9D9"/>
<rect x="2044.6" y="4301.72" width="395.843" height="120.61" transform="rotate(167.44 2044.6 4301.72)" fill="#D9D9D9"/>
<rect x="1386.17" y="2560" width="404.131" height="118.695" transform="rotate(5.4013 1386.17 2560)" fill="#D9D9D9"/>
<rect x="1689.1" y="2585" width="204.526" height="118.695" transform="rotate(16.1945 1689.1 2585)" fill="#D9D9D9"/>
<rect x="1359.03" y="2507.38" width="649.981" height="118.695" transform="rotate(7.13565 1359.03 2507.38)" fill="#D9D9D9"/>
<rect x="1207.21" y="2437.78" width="309.702" height="118.695" transform="rotate(17.2503 1207.21 2437.78)" fill="#D9D9D9"/>
<rect x="1018.54" y="2306.51" width="358.24" height="118.695" transform="rotate(30.2399 1018.54 2306.51)" fill="#D9D9D9"/>
<rect x="911.145" y="2160.51" width="309.702" height="118.695" transform="rotate(48.4177 911.145 2160.51)" fill="#D9D9D9"/>
<rect x="846.54" y="1977.22" width="309.702" height="118.695" transform="rotate(62.3802 846.54 1977.22)" fill="#D9D9D9"/>
<rect x="838.482" y="1785.4" width="309.702" height="118.695" transform="rotate(81.4 838.482 1785.4)" fill="#D9D9D9"/>
<rect x="839.819" y="1414.55" width="440.959" height="118.695" transform="rotate(90 839.819 1414.55)" fill="#D9D9D9"/>
<rect x="943.774" y="1247.94" width="367.135" height="118.695" transform="rotate(110.694 943.774 1247.94)" fill="#D9D9D9"/>
<rect x="1065.93" y="1129.23" width="367.135" height="118.695" transform="rotate(126.279 1065.93 1129.23)" fill="#D9D9D9"/>
<rect x="1195.81" y="1058.31" width="380.41" height="118.695" transform="rotate(141.815 1195.81 1058.31)" fill="#D9D9D9"/>
<rect x="1377.6" y="980.181" width="305.427" height="118.695" transform="rotate(153.169 1377.6 980.181)" fill="#D9D9D9"/>
<rect x="1517.97" y="970.65" width="282.894" height="118.695" transform="rotate(165 1517.97 970.65)" fill="#D9D9D9"/>
<rect x="1634.23" y="972.603" width="282.894" height="118.695" transform="rotate(-180 1634.23 972.603)" fill="#D9D9D9"/>
<rect x="1796.48" y="1012.3" width="282.894" height="118.695" transform="rotate(-169.992 1796.48 1012.3)" fill="#D9D9D9"/>
<rect x="2000.47" y="1082.05" width="356.774" height="118.695" transform="rotate(-163.927 2000.47 1082.05)" fill="#D9D9D9"/>
<path d="M2025.53 2587.11L1761.76 2571.38L1704 2576.62L1677.5 2587.11L1655.5 2616.12V2652.2L1687.14 2688.01L1799.03 2747.92L1968.5 2830L2151.77 2900.76L2244 2914.62L2338.26 2911.8L2397.5 2903.62L2447 2870.12L2468.8 2822.82V2766.12L2427.24 2718.91L2253 2646.5L2025.53 2587.11Z" fill="#D9D9D9"/>
<path d="M5066.87 5237.59L5182 5215.5L5270.5 5151L5316 5062L5318 4982.5L5289.5 4874L5259 4829L5220 4801L5161 4779.5L5099.37 4772.43L4940.06 4764.44L4853.21 4797.48L4763.16 4896.05L4745.58 5009.01V5119.31L4799.39 5185.38L4889.97 5231.2L5066.87 5237.59Z" fill="#D9D9D9"/>
<path d="M4550 2933L4371.5 2969.5L4134 2641.5L4216.5 2623L4303 2609L4376 2595L4494 2590.5L4644.5 2606.5L4757.5 2635.5L4826 2671L4866 2713L4875.5 2753L4862 2792.5L4826 2830L4713 2889.5L4550 2933Z" fill="#D9D9D9"/>
<rect x="1056" y="2612.41" width="389.199" height="126.353" transform="rotate(-7.73936 1056 2612.41)" fill="#D9D9D9"/>
<rect x="811" y="2722.36" width="389.199" height="126.353" transform="rotate(-20.0387 811 2722.36)" fill="#D9D9D9"/>
<rect x="664" y="2843.01" width="328.909" height="126.353" transform="rotate(-32.5602 664 2843.01)" fill="#D9D9D9"/>
<rect x="558" y="2973.48" width="328.909" height="126.353" transform="rotate(-45.7211 558 2973.48)" fill="#D9D9D9"/>
<rect x="495" y="3110.44" width="248.311" height="126.353" transform="rotate(-60.6531 495 3110.44)" fill="#D9D9D9"/>
<rect x="479" y="3267.19" width="236.121" height="126.353" transform="rotate(-82.1485 479 3267.19)" fill="#D9D9D9"/>
<rect x="479" y="4335.63" width="1186.31" height="126.353" transform="rotate(-90 479 4335.63)" fill="#D9D9D9"/>
<rect x="244.432" y="4618.03" width="293.797" height="95.637" transform="rotate(-31.433 244.432 4618.03)" fill="#D9D9D9"/>
<path d="M565.5 4542L502.5 4572L479 4542L519.5 4331L600 4308L605.5 4331L606.5 4397L603 4463L593.5 4505.5L565.5 4542Z" fill="#D9D9D9"/>
<rect x="154" y="4745.14" width="256.883" height="95.637" transform="rotate(-45.6311 154 4745.14)" fill="#D9D9D9"/>
<rect x="78" y="4880.56" width="250.592" height="95.637" transform="rotate(-58.022 78 4880.56)" fill="#D9D9D9"/>
<rect x="27" y="5033" width="250.592" height="95.637" transform="rotate(-69.0337 27 5033)" fill="#D9D9D9"/>
<rect y="5224.44" width="250.592" height="95.637" transform="rotate(-79.5573 0 5224.44)" fill="#D9D9D9"/>
<rect x="11.1934" y="5393.51" width="250.592" height="95.637" transform="rotate(-91.416 11.1934 5393.51)" fill="#D9D9D9"/>
<rect x="40.3242" y="5582.46" width="250.592" height="95.637" transform="rotate(-97.9707 40.3242 5582.46)" fill="#D9D9D9"/>
<rect x="102.001" y="5755.69" width="250.592" height="95.637" transform="rotate(-106.513 102.001 5755.69)" fill="#D9D9D9"/>
<rect x="215.438" y="5921.27" width="250.592" height="95.637" transform="rotate(-120.252 215.438 5921.27)" fill="#D9D9D9"/>
<rect x="401.672" y="6090.51" width="318.537" height="106.57" transform="rotate(-138.895 401.672 6090.51)" fill="#D9D9D9"/>
<rect x="714.76" y="6178.82" width="418.57" height="106.57" transform="rotate(-158.853 714.76 6178.82)" fill="#D9D9D9"/>
<rect x="909.716" y="6164.54" width="318.055" height="95.637" transform="rotate(-173.486 909.716 6164.54)" fill="#D9D9D9"/>
<rect x="1135.66" y="6161.51" width="317.566" height="95.9091" transform="rotate(180 1135.66 6161.51)" fill="#D9D9D9"/>
<rect x="1391.83" y="6090.8" width="353.332" height="95.637" transform="rotate(167.177 1391.83 6090.8)" fill="#D9D9D9"/>
<rect x="1636.56" y="5932.48" width="353.332" height="95.637" transform="rotate(150.06 1636.56 5932.48)" fill="#D9D9D9"/>
<rect x="1785.23" y="5752.91" width="293.253" height="95.637" transform="rotate(133.275 1785.23 5752.91)" fill="#D9D9D9"/>
<rect x="1878.87" y="5552.43" width="299.268" height="95.637" transform="rotate(119.109 1878.87 5552.43)" fill="#D9D9D9"/>
<rect x="1984.08" y="5319.25" width="369.662" height="106.57" transform="rotate(113.653 1984.08 5319.25)" fill="#D9D9D9"/>
<path d="M1927 1074L1833.67 1035.5L2401.13 778.887L2375.98 909.027L2331 995L2278.46 1060.45L2199.5 1108L2122 1122L2033.5 1111L1927 1074Z" fill="#D9D9D9"/>
<rect x="2193.11" y="855.495" width="368.982" height="183.657" transform="rotate(-72.9747 2193.11 855.495)" fill="#D9D9D9"/>
<rect x="2306.81" y="551.109" width="295.721" height="157.073" transform="rotate(-58.2403 2306.81 551.109)" fill="#D9D9D9"/>
<rect x="2432" y="346.273" width="311.581" height="151.434" transform="rotate(-44.2126 2432 346.273)" fill="#D9D9D9"/>
<rect x="2598" y="181.222" width="311.581" height="148.488" transform="rotate(-28.4054 2598 181.222)" fill="#D9D9D9"/>
<rect x="2751" y="78.219" width="260.647" height="152.764" transform="rotate(-15.6287 2751 78.219)" fill="#D9D9D9"/>
<rect x="2933" y="21.1956" width="322.496" height="150.728" transform="rotate(-3.7684 2933 21.1956)" fill="#D9D9D9"/>
<rect x="3185.75" y="8" width="286.824" height="149.089" transform="rotate(11.511 3185.75 8)" fill="#D9D9D9"/>
<rect x="3426.7" y="51" width="260.647" height="149.089" transform="rotate(26.1477 3426.7 51)" fill="#D9D9D9"/>
<rect x="3590.83" y="128" width="260.647" height="149.089" transform="rotate(44.6819 3590.83 128)" fill="#D9D9D9"/>
<rect x="3759.66" y="282" width="260.647" height="149.089" transform="rotate(65.4916 3759.66 282)" fill="#D9D9D9"/>
<rect x="3854.37" y="462" width="260.647" height="149.089" transform="rotate(79.0458 3854.37 462)" fill="#D9D9D9"/>
<rect x="3908.68" y="604.022" width="639.604" height="162.749" transform="rotate(87.2586 3908.68 604.022)" fill="#D9D9D9"/>
<path d="M3758.25 1361.23L3772.5 1062.5L3870.57 986.002L4612.73 1975.13L4399 2029L4078.9 2037.64L3963.74 2015.8L3875.24 1984.8L3800.5 1936.5L3757 1867L3739.5 1757.5V1569.5L3758.25 1361.23Z" fill="#D9D9D9"/>
<path d="M4507.93 5498.15L4605.5 5553.5L3810 5579.5L3857 5498.15L3906 5417.12L3965 5364L4043.5 5329H4141L4256.5 5355.5L4382 5417.12L4507.93 5498.15Z" fill="#D9D9D9"/>
<path d="M1876.5 5267L1850 5375L2451 5357L2427.5 5164.5L2388 5099L2325.5 5037.5L2225 4977L2143.5 4959L2072 4972.5L2000 5018.66L1937 5112L1876.5 5267Z" fill="#D9D9D9"/>
<path d="M5576.85 5109.46L5559.87 5092.73L5533.04 5081.8L5514.57 5088.9L5488.8 5118.74L5474.13 5157.31L5462.79 5195.84L5465.33 5221.68L5476.34 5242.31L5506.39 5253.58L5536.18 5242.53L5559.12 5217.52L5575.49 5174.2L5580.59 5137.06L5576.85 5109.46Z" fill="#D9D9D9"/>
<path d="M1601 2016.5H1716.5L2228 1535L2084.5 1522.5L1909.5 1503L1790 1491H1650.5L1571.5 1498L1506 1516.5L1447.5 1545L1386.5 1597.5L1353 1657L1340 1714L1347.5 1760.5L1378 1852L1420 1938L1465 1987.5L1508 2005.5L1601 2016.5Z" fill="#D9D9D9"/>
<path d="M3076 5261L3063 5200L3558.5 5156.5L3355 5309.5L3303 5344.5L3255 5367.5L3206 5376L3160 5364L3120.5 5339.5L3087.5 5299.5L3076 5261Z" fill="#D9D9D9"/>
<rect x="821" y="4195.62" width="135" height="70" transform="rotate(-90 821 4195.62)" fill="#BF3232"/>
<path d="M608 3550.5V4531.5L310 5213.5L697.5 5792L1456 5710L2094.5 4613L2738.5 5159L3208 5617.5L4010 5159L4697.5 5393.5H5527V4798.5L4867 4564L4135.5 4209.5V3500L5069 3063.5L4899.5 2397.5L3846.5 2321L3497 1633.5L3311.5 504H2782L2427.5 1224L1669 1175L1036 1579L1270.5 2135.5L2716.5 2583L2820.5 2937.5L2542 3172.5L1925.5 3112.5L1048 2937.5L608 3550.5Z" stroke="#82E1BF" stroke-width="6"/>
</svg>
