<svg width="9808" height="8964" viewBox="0 0 9808 8964" fill="none" xmlns="http://www.w3.org/2000/svg">
<path d="M6656.5 1457.5L2884.5 2550.5L1177.5 3686L1341.5 7143.5L7856.5 7208L8585 4229L7670.5 2264.5L6656.5 1457.5Z" fill="#425155"/>
<rect x="6268" y="6272" width="100" height="728" fill="#D58850"/>
<rect x="5728" y="6653" width="135" height="70" fill="#BF3232"/>
<path d="M7122.99 6331L6940.99 6368L6665.99 6383L6651.49 6378L6661.49 5195.5L7051.49 5512L7201.99 5689L7249.99 5810.5L7271.99 6032L7258.49 6172L7208.49 6276.5L7122.99 6331Z" fill="#D9D9D9"/>
<rect x="5698.99" y="6115" width="967" height="268" fill="#D9D9D9"/>
<path d="M5698.99 6383L5709.49 6377V6154L4654.99 5481.5L4700.49 5610.5L4983.99 6058L5071.49 6180L5157.49 6279.5L5226.49 6323.5L5327.99 6355L5496.99 6377L5698.99 6383Z" fill="#D9D9D9"/>
<rect x="6639.88" y="5149.39" width="229.32" height="115" transform="rotate(47.4977 6639.88 5149.39)" fill="#D9D9D9"/>
<rect x="6591.98" y="5038" width="229.32" height="115" transform="rotate(60.3937 6591.98 5038)" fill="#D9D9D9"/>
<rect x="6552.19" y="4854.99" width="274.587" height="115" transform="rotate(76.4548 6552.19 4854.99)" fill="#D9D9D9"/>
<rect x="6564.99" y="4602" width="355" height="115" transform="rotate(90 6564.99 4602)" fill="#D9D9D9"/>
<rect x="6626.75" y="4451.88" width="236.426" height="115" transform="rotate(109.325 6626.75 4451.88)" fill="#D9D9D9"/>
<rect x="6738.44" y="4329.8" width="236.426" height="115" transform="rotate(128.636 6738.44 4329.8)" fill="#D9D9D9"/>
<rect x="6867.89" y="4251.08" width="236.426" height="115" transform="rotate(144.043 6867.89 4251.08)" fill="#D9D9D9"/>
<rect x="7092.98" y="4166.86" width="298.769" height="115" transform="rotate(157.204 7092.98 4166.86)" fill="#D9D9D9"/>
<rect x="7253.59" y="4127.26" width="242.083" height="115" transform="rotate(163.747 7253.59 4127.26)" fill="#D9D9D9"/>
<path d="M7253.99 4127.49L7230.49 4128.99L6351.49 3833.99H7159.99L7320.49 3840.49L7430.99 3852.99L7516.99 3881.99L7548.49 3916.49L7546.49 3961.99L7516.99 4011.49L7471.99 4046.99L7383.99 4087.99L7253.99 4127.49Z" fill="#D9D9D9"/>
<rect x="6151.21" y="3813.43" width="462.793" height="100" transform="rotate(2.91921 6151.21 3813.43)" fill="#D9D9D9"/>
<rect x="5850.56" y="3756.35" width="462.793" height="100" transform="rotate(9.50058 5850.56 3756.35)" fill="#D9D9D9"/>
<rect x="5639.81" y="3665" width="332.542" height="100" transform="rotate(20.3758 5639.81 3665)" fill="#D9D9D9"/>
<rect x="5525.77" y="3570.36" width="266.677" height="100" transform="rotate(35.6267 5525.77 3570.36)" fill="#D9D9D9"/>
<rect x="5470.97" y="3457.62" width="241.907" height="100" transform="rotate(56.3799 5470.97 3457.62)" fill="#D9D9D9"/>
<rect x="5454.23" y="3313.99" width="241.907" height="100" transform="rotate(79.2502 5454.23 3313.99)" fill="#D9D9D9"/>
<rect x="5470.42" y="3152.67" width="241.907" height="100" transform="rotate(91.5312 5470.42 3152.67)" fill="#D9D9D9"/>
<rect x="5524.54" y="2982.18" width="241.907" height="100" transform="rotate(103.999 5524.54 2982.18)" fill="#D9D9D9"/>
<rect x="5640.97" y="2856.3" width="241.907" height="100" transform="rotate(126.375 5640.97 2856.3)" fill="#D9D9D9"/>
<rect x="5462.97" y="2939.3" width="241.907" height="100" transform="rotate(126.375 5462.97 2939.3)" fill="#D9D9D9"/>
<rect x="5180.84" y="2171.22" width="214.694" height="100" transform="rotate(126.375 5180.84 2171.22)" fill="#D9D9D9"/>
<rect x="5286.11" y="2116.44" width="214.694" height="100" transform="rotate(143.558 5286.11 2116.44)" fill="#D9D9D9"/>
<rect x="5460.01" y="2070.29" width="272.221" height="100" transform="rotate(159.998 5460.01 2070.29)" fill="#D9D9D9"/>
<rect x="6044.27" y="1804.9" width="301.988" height="100" transform="rotate(151.668 6044.27 1804.9)" fill="#D9D9D9"/>
<rect x="6349.19" y="1716.11" width="399.408" height="100" transform="rotate(162.984 6349.19 1716.11)" fill="#D9D9D9"/>
<rect x="6618.26" y="1682.54" width="356.599" height="100" transform="rotate(172.861 6618.26 1682.54)" fill="#D9D9D9"/>
<rect x="6924.2" y="1729.71" width="399.408" height="100" transform="rotate(-172.734 6924.2 1729.71)" fill="#D9D9D9"/>
<rect x="7123.46" y="1859.47" width="383.538" height="100" transform="rotate(-153.912 7123.46 1859.47)" fill="#D9D9D9"/>
<rect x="7256.45" y="2084.18" width="383.538" height="100" transform="rotate(-127.117 7256.45 2084.18)" fill="#D9D9D9"/>
<rect x="7276.32" y="2404.31" width="383.539" height="100" transform="rotate(-93.6529 7276.32 2404.31)" fill="#D9D9D9"/>
<rect x="7127.57" y="2756.1" width="452.48" height="100" transform="rotate(-66.8338 7127.57 2756.1)" fill="#D9D9D9"/>
<rect x="6930" y="2961.26" width="383.539" height="100" transform="rotate(-49.8718 6930 2961.26)" fill="#D9D9D9"/>
<rect x="7207.57" y="3300" width="526.497" height="100" transform="rotate(2.04554 7207.57 3300)" fill="#D9D9D9"/>
<rect x="7677.33" y="3303" width="482.742" height="100" transform="rotate(14.0845 7677.33 3303)" fill="#D9D9D9"/>
<rect x="8044.22" y="3369" width="385.953" height="100" transform="rotate(37.027 8044.22 3369)" fill="#D9D9D9"/>
<rect x="8351.82" y="3580" width="385.953" height="100" transform="rotate(69.7558 8351.82 3580)" fill="#D9D9D9"/>
<rect x="8471.31" y="3913.73" width="385.953" height="100" transform="rotate(95.0084 8471.31 3913.73)" fill="#D9D9D9"/>
<rect x="8440.6" y="4285.41" width="385.953" height="100" transform="rotate(125.738 8440.6 4285.41)" fill="#D9D9D9"/>
<rect x="8195.16" y="4629.04" width="385.953" height="100" transform="rotate(150.502 8195.16 4629.04)" fill="#D9D9D9"/>
<rect x="7976.66" y="4769.45" width="385.953" height="100" transform="rotate(164.685 7976.66 4769.45)" fill="#D9D9D9"/>
<rect x="7737.37" y="5443.2" width="385.953" height="100" transform="rotate(-141.339 7737.37 5443.2)" fill="#D9D9D9"/>
<rect x="7886.74" y="5728.86" width="385.953" height="100" transform="rotate(-119.106 7886.74 5728.86)" fill="#D9D9D9"/>
<rect x="7925.46" y="6106.84" width="385.953" height="100" transform="rotate(-95.5693 7925.46 6106.84)" fill="#D9D9D9"/>
<rect x="7845" y="6473.08" width="385.953" height="100" transform="rotate(-77.6925 7845 6473.08)" fill="#D9D9D9"/>
<rect x="7668" y="6775.18" width="385.953" height="100" transform="rotate(-59.3923 7668 6775.18)" fill="#D9D9D9"/>
<rect x="7372" y="6977.91" width="385.953" height="100" transform="rotate(-33.1242 7372 6977.91)" fill="#D9D9D9"/>
<rect x="7121.58" y="7032.02" width="385.953" height="100" transform="rotate(-15.0488 7121.58 7032.02)" fill="#D9D9D9"/>
<rect x="7520" y="6902.19" width="385.953" height="100" transform="rotate(-46.9822 7520 6902.19)" fill="#D9D9D9"/>
<rect x="7776" y="6635.18" width="385.953" height="100" transform="rotate(-70.2178 7776 6635.18)" fill="#D9D9D9"/>
<rect x="7911" y="6310.94" width="385.953" height="100" transform="rotate(-89.4504 7911 6310.94)" fill="#D9D9D9"/>
<rect x="7921.46" y="5910.15" width="385.953" height="100" transform="rotate(-105.879 7921.46 5910.15)" fill="#D9D9D9"/>
<rect x="7768.11" y="5511.59" width="149.355" height="100" transform="rotate(-126.154 7768.11 5511.59)" fill="#D9D9D9"/>
<rect x="8306.14" y="4486.24" width="385.953" height="100" transform="rotate(135.433 8306.14 4486.24)" fill="#D9D9D9"/>
<rect x="8450.58" y="4159.73" width="263.281" height="100" transform="rotate(109.912 8450.58 4159.73)" fill="#D9D9D9"/>
<rect x="8451.93" y="3785" width="263.281" height="100" transform="rotate(87.789 8451.93 3785)" fill="#D9D9D9"/>
<rect x="8242.67" y="3513" width="263.281" height="100" transform="rotate(48.3085 8242.67 3513)" fill="#D9D9D9"/>
<rect x="7963.34" y="3371.06" width="263.281" height="100" transform="rotate(24.6176 7963.34 3371.06)" fill="#D9D9D9"/>
<rect x="6751.83" y="3035.24" width="317.176" height="100" transform="rotate(-25.6396 6751.83 3035.24)" fill="#D9D9D9"/>
<rect x="6835" y="3005.8" width="247.41" height="100" transform="rotate(-37.2619 6835 3005.8)" fill="#D9D9D9"/>
<rect x="7062" y="2817.71" width="247.41" height="100" transform="rotate(-56.2496 7062 2817.71)" fill="#D9D9D9"/>
<rect x="7241.03" y="2518.54" width="247.41" height="100" transform="rotate(-81.3821 7241.03 2518.54)" fill="#D9D9D9"/>
<rect x="7275.66" y="2201.57" width="247.41" height="100" transform="rotate(-111.257 7275.66 2201.57)" fill="#D9D9D9"/>
<rect x="7129.82" y="1901.19" width="215.923" height="100" transform="rotate(-142.289 7129.82 1901.19)" fill="#D9D9D9"/>
<rect x="6934.51" y="1755.64" width="215.923" height="100" transform="rotate(-165.661 6934.51 1755.64)" fill="#D9D9D9"/>
<rect x="6695.45" y="1695.96" width="215.923" height="100" transform="rotate(179.37 6695.45 1695.96)" fill="#D9D9D9"/>
<path d="M5550.5 2053L5391 2094L5369.5 2039.5L5894.5 1796.5L5781.5 1962.5L5695 2007.5L5550.5 2053Z" fill="#D9D9D9"/>
<rect x="5369.45" y="3071.16" width="200.302" height="100" transform="rotate(141.412 5369.45 3071.16)" fill="#D9D9D9"/>
<rect x="5261.82" y="3174.67" width="200.302" height="100" transform="rotate(161.222 5261.82 3174.67)" fill="#D9D9D9"/>
<rect x="5121.99" y="3233.99" width="318" height="100" transform="rotate(180 5121.99 3233.99)" fill="#D9D9D9"/>
<rect x="4946.75" y="3239.42" width="450.511" height="100" transform="rotate(-170.632 4946.75 3239.42)" fill="#D9D9D9"/>
<rect x="4696.67" y="3201.67" width="438.538" height="100" transform="rotate(-165.769 4696.67 3201.67)" fill="#D9D9D9"/>
<rect x="3546.44" y="3583.96" width="296.992" height="100" transform="rotate(-112.975 3546.44 3583.96)" fill="#D9D9D9"/>
<rect x="3544.72" y="3729.89" width="253.643" height="100" transform="rotate(-96.9603 3544.72 3729.89)" fill="#D9D9D9"/>
<rect x="3519.99" y="3937.47" width="253.643" height="100" transform="rotate(-84.5059 3519.99 3937.47)" fill="#D9D9D9"/>
<rect x="3422.28" y="4137.93" width="281.493" height="100" transform="rotate(-67.431 3422.28 4137.93)" fill="#D9D9D9"/>
<rect x="3250.21" y="4368.34" width="344.67" height="100" transform="rotate(-54.4259 3250.21 4368.34)" fill="#D9D9D9"/>
<rect x="3064.99" y="4504.87" width="281.493" height="100" transform="rotate(-37.6325 3064.99 4504.87)" fill="#D9D9D9"/>
<rect x="2933.23" y="4542.75" width="248.962" height="100" transform="rotate(-21.6265 2933.23 4542.75)" fill="#D9D9D9"/>
<rect x="2799.99" y="4542.99" width="248.962" height="100" transform="rotate(-5.29857 2799.99 4542.99)" fill="#D9D9D9"/>
<rect x="2667.15" y="4508" width="248.962" height="100" transform="rotate(8.14151 2667.15 4508)" fill="#D9D9D9"/>
<rect x="2527.1" y="4439" width="248.962" height="100" transform="rotate(22.4064 2527.1 4439)" fill="#D9D9D9"/>
<rect x="2501.18" y="4636" width="248.962" height="100" transform="rotate(47.0503 2501.18 4636)" fill="#D9D9D9"/>
<rect x="1460.16" y="4704" width="248.962" height="100" transform="rotate(34.8519 1460.16 4704)" fill="#D9D9D9"/>
<rect x="1353" y="4569" width="248.962" height="100" transform="rotate(49.4363 1353 4569)" fill="#D9D9D9"/>
<rect x="1297.6" y="4367.87" width="313.537" height="100" transform="rotate(68.6119 1297.6 4367.87)" fill="#D9D9D9"/>
<rect x="1303.94" y="4173" width="313.537" height="100" transform="rotate(87.5217 1303.94 4173)" fill="#D9D9D9"/>
<rect x="1374.36" y="4015.35" width="313.537" height="100" transform="rotate(104.098 1374.36 4015.35)" fill="#D9D9D9"/>
<rect x="1486.81" y="3886.13" width="313.537" height="100" transform="rotate(122.774 1486.81 3886.13)" fill="#D9D9D9"/>
<rect x="1628.02" y="3768.52" width="313.537" height="100" transform="rotate(134.851 1628.02 3768.52)" fill="#D9D9D9"/>
<rect x="1800.25" y="3704.6" width="262.664" height="100" transform="rotate(154.796 1800.25 3704.6)" fill="#D9D9D9"/>
<rect x="1700.17" y="3734.03" width="262.664" height="100" transform="rotate(143.162 1700.17 3734.03)" fill="#D9D9D9"/>
<rect x="1935.4" y="3684.75" width="262.664" height="100" transform="rotate(165.377 1935.4 3684.75)" fill="#D9D9D9"/>
<rect x="2121.43" y="3732.37" width="262.664" height="100" transform="rotate(-169.695 2121.43 3732.37)" fill="#D9D9D9"/>
<rect x="2160.99" y="3702.78" width="431.46" height="100" transform="rotate(179.741 2160.99 3702.78)" fill="#D9D9D9"/>
<rect x="2219.22" y="3776.53" width="309.651" height="100" transform="rotate(-161.839 2219.22 3776.53)" fill="#D9D9D9"/>
<rect x="2736" y="3367.44" width="309.651" height="100" transform="rotate(-87.894 2736 3367.44)" fill="#D9D9D9"/>
<rect x="2743" y="3104.5" width="309.651" height="100" transform="rotate(-70.2877 2743 3104.5)" fill="#D9D9D9"/>
<rect x="2807" y="2913.75" width="309.651" height="100" transform="rotate(-56.0144 2807 2913.75)" fill="#D9D9D9"/>
<rect x="2915" y="2739.61" width="309.651" height="100" transform="rotate(-42.6052 2915 2739.61)" fill="#D9D9D9"/>
<rect x="3087" y="2574.49" width="309.651" height="100" transform="rotate(-25.743 3087 2574.49)" fill="#D9D9D9"/>
<rect x="3276" y="2477.89" width="309.651" height="100" transform="rotate(-9.83547 3276 2477.89)" fill="#D9D9D9"/>
<rect x="3493" y="2434.74" width="309.651" height="100" transform="rotate(-0.877043 3493 2434.74)" fill="#D9D9D9"/>
<rect x="3641.76" y="2429.84" width="300.955" height="100" transform="rotate(2.85961 3641.76 2429.84)" fill="#D9D9D9"/>
<rect x="3823.95" y="2437" width="413.751" height="100" transform="rotate(6.28663 3823.95 2437)" fill="#D9D9D9"/>
<path d="M2233 3790.99L2145 3751.99L2822.5 3226.99L2852.5 3355.49L2890.5 3502.49L2935.5 3681.99L2930 3731.49L2910 3769.49L2883 3790.99L2830.5 3818.49L2777.5 3838.49L2685 3856.49L2600 3861.99L2417 3845.99L2233 3790.99Z" fill="#D9D9D9"/>
<rect x="2651.1" y="4781" width="176.018" height="100" transform="rotate(59.4438 2651.1 4781)" fill="#D9D9D9"/>
<rect x="2733.95" y="4908" width="176.018" height="100" transform="rotate(78.413 2733.95 4908)" fill="#D9D9D9"/>
<rect x="2769.31" y="5062.21" width="272.472" height="100" transform="rotate(92.4139 2769.31 5062.21)" fill="#D9D9D9"/>
<rect x="2766.74" y="5250.3" width="322.81" height="100" transform="rotate(103.478 2766.74 5250.3)" fill="#D9D9D9"/>
<rect x="2700.95" y="5522.04" width="322.81" height="100" transform="rotate(116.134 2700.95 5522.04)" fill="#D9D9D9"/>
<rect x="3317.71" y="5521.52" width="499.39" height="100" transform="rotate(116.134 3317.71 5521.52)" fill="#D9D9D9"/>
<rect x="3443.44" y="5342.28" width="339.434" height="100" transform="rotate(122.195 3443.44 5342.28)" fill="#D9D9D9"/>
<rect x="3616.89" y="5208.9" width="339.434" height="100" transform="rotate(136.805 3616.89 5208.9)" fill="#D9D9D9"/>
<rect x="3807.24" y="5120.39" width="339.434" height="100" transform="rotate(153.373 3807.24 5120.39)" fill="#D9D9D9"/>
<rect x="4030.74" y="5097.43" width="339.434" height="100" transform="rotate(169.838 4030.74 5097.43)" fill="#D9D9D9"/>
<rect x="4274.94" y="5146.47" width="339.434" height="100" transform="rotate(-171.785 4274.94 5146.47)" fill="#D9D9D9"/>
<rect x="4391.06" y="5232.39" width="263.894" height="100" transform="rotate(-153.454 4391.06 5232.39)" fill="#D9D9D9"/>
<rect x="4509.67" y="5356.73" width="263.894" height="100" transform="rotate(-138.512 4509.67 5356.73)" fill="#D9D9D9"/>
<rect x="4638.74" y="5516.1" width="262.358" height="100" transform="rotate(-129.464 4638.74 5516.1)" fill="#D9D9D9"/>
<rect x="5280.38" y="7107.22" width="312.137" height="100" transform="rotate(-171.372 5280.38 7107.22)" fill="#D9D9D9"/>
<rect x="5057.45" y="7076.34" width="312.137" height="100" transform="rotate(-158.524 5057.45 7076.34)" fill="#D9D9D9"/>
<rect x="4827.51" y="7000.39" width="312.137" height="100" transform="rotate(-146.578 4827.51 7000.39)" fill="#D9D9D9"/>
<rect x="4646.11" y="6892.45" width="312.137" height="100" transform="rotate(-133.82 4646.11 6892.45)" fill="#D9D9D9"/>
<rect x="4459.92" y="6710.11" width="312.137" height="100" transform="rotate(-126.106 4459.92 6710.11)" fill="#D9D9D9"/>
<rect x="4330.44" y="6543.47" width="267.286" height="100" transform="rotate(-119.067 4330.44 6543.47)" fill="#D9D9D9"/>
<rect x="3472.97" y="6627.25" width="267.286" height="100" transform="rotate(-61.2119 3472.97 6627.25)" fill="#D9D9D9"/>
<rect x="3376.05" y="6727.02" width="214.598" height="100" transform="rotate(-50.4491 3376.05 6727.02)" fill="#D9D9D9"/>
<rect x="3228.97" y="6822.96" width="214.598" height="100" transform="rotate(-35.1104 3228.97 6822.96)" fill="#D9D9D9"/>
<rect x="3084.99" y="6860.7" width="214.598" height="100" transform="rotate(-17.5472 3084.99 6860.7)" fill="#D9D9D9"/>
<rect x="2841.59" y="6901.37" width="301.978" height="100" transform="rotate(-10.6965 2841.59 6901.37)" fill="#D9D9D9"/>
<rect x="2250.4" y="6902.64" width="401.941" height="100" transform="rotate(1.35054 2250.4 6902.64)" fill="#D9D9D9"/>
<rect x="1930.09" y="6840" width="401.941" height="100" transform="rotate(9.26663 1930.09 6840)" fill="#D9D9D9"/>
<rect x="1784.39" y="6762.34" width="282.559" height="100" transform="rotate(22.3219 1784.39 6762.34)" fill="#D9D9D9"/>
<rect x="1630.32" y="6637" width="282.559" height="100" transform="rotate(37.1033 1630.32 6637)" fill="#D9D9D9"/>
<rect x="1570.08" y="6505" width="282.559" height="100" transform="rotate(53.2101 1570.08 6505)" fill="#D9D9D9"/>
<rect x="1539.36" y="6315" width="282.559" height="100" transform="rotate(74.4652 1539.36 6315)" fill="#D9D9D9"/>
<rect x="1563.14" y="6139.25" width="282.559" height="100" transform="rotate(91.8619 1563.14 6139.25)" fill="#D9D9D9"/>
<rect x="1626.37" y="5967.56" width="282.559" height="100" transform="rotate(104.223 1626.37 5967.56)" fill="#D9D9D9"/>
<rect x="1715.31" y="5822.36" width="282.559" height="100" transform="rotate(116.977 1715.31 5822.36)" fill="#D9D9D9"/>
<rect x="2517.28" y="6920.29" width="430.062" height="100" transform="rotate(-4.43889 2517.28 6920.29)" fill="#D9D9D9"/>
<path d="M4287.98 6261V6315L3583.98 6460.5V6427.5L3659.98 6255.5L3690.98 6183.5L3725.48 6104.5L3763.98 6026L3803.48 5968L3872.48 5907.5L3943.48 5880.5L4012.98 5890.5L4078.48 5934.5L4154.98 6026L4287.98 6261Z" fill="#D9D9D9"/>
<rect x="4725.26" y="5644.89" width="262.358" height="100" transform="rotate(-125.11 4725.26 5644.89)" fill="#D9D9D9"/>
<rect x="2593.83" y="5747.45" width="322.81" height="100" transform="rotate(125.773 2593.83 5747.45)" fill="#D9D9D9"/>
<rect x="2372.14" y="4336.94" width="262.908" height="100" transform="rotate(30.6659 2372.14 4336.94)" fill="#D9D9D9"/>
<rect x="5788.97" y="2776.39" width="241.907" height="100" transform="rotate(145.481 5788.97 2776.39)" fill="#D9D9D9"/>
<rect x="5943.3" y="2705.73" width="266.55" height="100" transform="rotate(152.025 5943.3 2705.73)" fill="#D9D9D9"/>
<rect x="6348.47" y="2561.84" width="474.88" height="100" transform="rotate(160.032 6348.47 2561.84)" fill="#D9D9D9"/>
<rect x="6374.99" y="2530.86" width="219.79" height="100" transform="rotate(159.211 6374.99 2530.86)" fill="#D9D9D9"/>
<rect x="6228.19" y="2587.79" width="332.812" height="100" transform="rotate(161.427 6228.19 2587.79)" fill="#D9D9D9"/>
<rect x="6012.71" y="2663.1" width="340.618" height="100" transform="rotate(168.282 6012.71 2663.1)" fill="#D9D9D9"/>
<path d="M5568.99 2615.49L5780.99 2611.49V2654.99L5419.49 2943.99L5347.49 2933.49L5483.49 2690.49L5505.99 2654.99L5536.49 2624.49L5568.99 2615.49Z" fill="#D9D9D9"/>
<path d="M6396.99 2549.5L6162.49 2629.5L6111.99 2523.5L6401.99 2412L6525.49 2370.5L6580.49 2365.5L6613.49 2374.5L6627.49 2394V2419L6617.49 2439.5L6599.99 2454L6562.99 2480.5L6515.99 2502.5L6396.99 2549.5Z" fill="#D9D9D9"/>
<path d="M4194.96 2967.99L4505.96 3050.99L4481.46 3131.49L3561.46 3529.99L3325.46 3173.99L3309.96 3131.49L3315.96 3060.99L3345.46 3016.99L3422.46 2972.49L3588.96 2931.99L3757.96 2914.49L3934.96 2918.99L4194.96 2967.99Z" fill="#D9D9D9"/>
<path d="M2332.98 4303.5L2418.98 4366L2573.98 4827L2338.48 4629.5L2142.48 4466L2028.98 4352L1999.48 4293V4258L2022.48 4226L2081.98 4192H2145.98L2237.98 4237L2332.98 4303.5Z" fill="#D9D9D9"/>
<path d="M2333.98 5922L2405.98 5839L3191.48 5661.5L3101.98 5963.5L3039.98 6087L2959.98 6180.5L2851.48 6260.5L2643.48 6351.5L2452.48 6389.5L2265.98 6397L2182.48 6369L2164.98 6330L2157.48 6260.5L2182.48 6164L2252.98 6034L2333.98 5922Z" fill="#D9D9D9"/>
<rect x="5122" y="7000" width="2204" height="175" fill="#D9D9D9"/>
<path d="M1715 5856L1648 5950.5H1595.5L1468 4757.5L1631.5 4827L1741 4876.5L1838 4943L1899.5 5045L1922 5111L1934.5 5183.5L1928 5358.5L1890 5509L1848 5624L1797.5 5735.5L1715 5856Z" fill="#D9D9D9"/>
<path d="M4381.5 2614L3987 2555.5L4073 2487L5027.5 2205.5H5135L5068.5 2328L4955.5 2504L4878.5 2573.5L4790 2613.5L4703 2633L4605.5 2638.5L4381.5 2614Z" fill="#D9D9D9"/>
<path d="M6710 3011.5L6857 2990.5L7415.5 3368.5L7231.5 3399.5L7007.5 3391L6804 3377.5L6625.5 3339L6529.5 3290.5L6488.5 3232L6481.5 3166.5L6496.5 3114.5L6538 3071L6610.5 3035L6710 3011.5Z" fill="#D9D9D9"/>
<path d="M7577 4763.5L7742 4735.5L7657.5 5246L7431.5 5230.5L7279.5 5181.5L7201 5126.5L7172.5 5057L7179.5 4980.5L7214.5 4918L7298 4853.5L7431.5 4801L7577 4763.5Z" fill="#D9D9D9"/>
<path d="M6211 3133.5L6145 3125.5L6076 3147L6029.5 3201L6025.5 3273L6060.5 3339.5L6125.5 3371L6197.5 3366L6249 3339.5L6272.5 3300.5L6284.5 3250.5L6279 3204L6255.5 3159.5L6211 3133.5Z" fill="#D9D9D9"/>
<path d="M6309.5 6698.5L5334.5 6687.5L4816.5 6377.5L4329 5682L3554.5 5742.5L3174.5 6465L2798 6718L1992 6536L1850.5 6293L2276.5 5156L2199 4959.5L1771 4527.5L1707.5 4180.5L2035.5 3989.5L3013 4115L3151 3175.5L3249.5 2838L3547 2707L4968 2873.5L5228 2426L5711.5 2162L6797.5 2045L6999.5 2370L6457.5 2829L6145.5 2918.5L5894.5 3061L5777.5 3257.5L5861.5 3429L6061.5 3510.5L6715 3591.5L7589 3684.5L7725 3791L7805 4186L7736.5 4341L6998.5 4610.5L6921 4791.5L7059 5267L7764 6189L7166.5 6599L6309.5 6698.5Z" stroke="#82E1BF" stroke-width="6"/>
</svg>
