<svg width="7285" height="5595" viewBox="0 0 7285 5595" fill="none" xmlns="http://www.w3.org/2000/svg">
<rect x="5067" y="4783" width="100" height="679" fill="#D58850"/>
<rect x="4527" y="5073" width="135" height="70" fill="#BF3232"/>
<path d="M5921.99 4751L5739.99 4788L5464.99 4803L5450.49 4798L5460.49 3615.5L5850.49 3932L6000.99 4109L6048.99 4230.5L6070.99 4452L6057.49 4592L6007.49 4696.5L5921.99 4751Z" fill="#D9D9D9"/>
<rect x="4497.99" y="4535" width="967" height="268" fill="#D9D9D9"/>
<path d="M4497.99 4803L4508.49 4797V4574L3453.99 3901.5L3499.49 4030.5L3782.99 4478L3870.49 4600L3956.49 4699.5L4025.49 4743.5L4126.99 4775L4295.99 4797L4497.99 4803Z" fill="#D9D9D9"/>
<rect x="5438.88" y="3569.39" width="229.32" height="115" transform="rotate(47.4977 5438.88 3569.39)" fill="#D9D9D9"/>
<rect x="5390.98" y="3458" width="229.32" height="115" transform="rotate(60.3937 5390.98 3458)" fill="#D9D9D9"/>
<rect x="5351.19" y="3274.99" width="274.587" height="115" transform="rotate(76.4548 5351.19 3274.99)" fill="#D9D9D9"/>
<rect x="5363.99" y="3022" width="355" height="115" transform="rotate(90 5363.99 3022)" fill="#D9D9D9"/>
<rect x="5425.75" y="2871.88" width="236.426" height="115" transform="rotate(109.325 5425.75 2871.88)" fill="#D9D9D9"/>
<rect x="5537.44" y="2749.8" width="236.426" height="115" transform="rotate(128.636 5537.44 2749.8)" fill="#D9D9D9"/>
<rect x="5666.89" y="2671.08" width="236.426" height="115" transform="rotate(144.043 5666.89 2671.08)" fill="#D9D9D9"/>
<rect x="5891.98" y="2586.86" width="298.769" height="115" transform="rotate(157.204 5891.98 2586.86)" fill="#D9D9D9"/>
<rect x="6052.59" y="2547.26" width="242.083" height="115" transform="rotate(163.747 6052.59 2547.26)" fill="#D9D9D9"/>
<path d="M6052.99 2547.49L6029.49 2548.99L5150.49 2253.99H5958.99L6119.49 2260.49L6229.99 2272.99L6315.99 2301.99L6347.49 2336.49L6345.49 2381.99L6315.99 2431.49L6270.99 2466.99L6182.99 2507.99L6052.99 2547.49Z" fill="#D9D9D9"/>
<rect x="4950.21" y="2233.43" width="462.793" height="100" transform="rotate(2.91921 4950.21 2233.43)" fill="#D9D9D9"/>
<rect x="4649.56" y="2176.35" width="462.793" height="100" transform="rotate(9.50058 4649.56 2176.35)" fill="#D9D9D9"/>
<rect x="4438.81" y="2085" width="332.542" height="100" transform="rotate(20.3758 4438.81 2085)" fill="#D9D9D9"/>
<rect x="4324.77" y="1990.36" width="266.677" height="100" transform="rotate(35.6267 4324.77 1990.36)" fill="#D9D9D9"/>
<rect x="4269.97" y="1877.62" width="241.907" height="100" transform="rotate(56.3799 4269.97 1877.62)" fill="#D9D9D9"/>
<rect x="4253.23" y="1733.99" width="241.907" height="100" transform="rotate(79.2502 4253.23 1733.99)" fill="#D9D9D9"/>
<rect x="4269.42" y="1572.67" width="241.907" height="100" transform="rotate(91.5312 4269.42 1572.67)" fill="#D9D9D9"/>
<rect x="4323.54" y="1402.18" width="241.907" height="100" transform="rotate(103.999 4323.54 1402.18)" fill="#D9D9D9"/>
<rect x="4439.97" y="1276.3" width="241.907" height="100" transform="rotate(126.375 4439.97 1276.3)" fill="#D9D9D9"/>
<rect x="4261.97" y="1359.3" width="241.907" height="100" transform="rotate(126.375 4261.97 1359.3)" fill="#D9D9D9"/>
<rect x="3979.84" y="591.216" width="214.694" height="100" transform="rotate(126.375 3979.84 591.216)" fill="#D9D9D9"/>
<rect x="4085.11" y="536.445" width="214.694" height="100" transform="rotate(143.558 4085.11 536.445)" fill="#D9D9D9"/>
<rect x="4259.01" y="490.293" width="272.221" height="100" transform="rotate(159.998 4259.01 490.293)" fill="#D9D9D9"/>
<rect x="4843.27" y="224.896" width="301.988" height="100" transform="rotate(151.668 4843.27 224.896)" fill="#D9D9D9"/>
<rect x="5148.19" y="136.115" width="399.408" height="100" transform="rotate(162.984 5148.19 136.115)" fill="#D9D9D9"/>
<rect x="5417.26" y="102.544" width="356.599" height="100" transform="rotate(172.861 5417.26 102.544)" fill="#D9D9D9"/>
<rect x="5723.2" y="149.714" width="399.408" height="100" transform="rotate(-172.734 5723.2 149.714)" fill="#D9D9D9"/>
<rect x="5922.46" y="279.475" width="383.538" height="100" transform="rotate(-153.912 5922.46 279.475)" fill="#D9D9D9"/>
<rect x="6055.45" y="504.179" width="383.538" height="100" transform="rotate(-127.117 6055.45 504.179)" fill="#D9D9D9"/>
<rect x="6075.32" y="824.305" width="383.539" height="100" transform="rotate(-93.6529 6075.32 824.305)" fill="#D9D9D9"/>
<rect x="5926.57" y="1176.1" width="452.48" height="100" transform="rotate(-66.8338 5926.57 1176.1)" fill="#D9D9D9"/>
<rect x="5729" y="1381.26" width="383.539" height="100" transform="rotate(-49.8718 5729 1381.26)" fill="#D9D9D9"/>
<rect x="6006.57" y="1720" width="526.497" height="100" transform="rotate(2.04554 6006.57 1720)" fill="#D9D9D9"/>
<rect x="6476.33" y="1723" width="482.742" height="100" transform="rotate(14.0845 6476.33 1723)" fill="#D9D9D9"/>
<rect x="6843.22" y="1789" width="385.953" height="100" transform="rotate(37.027 6843.22 1789)" fill="#D9D9D9"/>
<rect x="7150.82" y="2000" width="385.953" height="100" transform="rotate(69.7558 7150.82 2000)" fill="#D9D9D9"/>
<rect x="7270.31" y="2333.73" width="385.953" height="100" transform="rotate(95.0084 7270.31 2333.73)" fill="#D9D9D9"/>
<rect x="7239.6" y="2705.41" width="385.953" height="100" transform="rotate(125.738 7239.6 2705.41)" fill="#D9D9D9"/>
<rect x="6994.16" y="3049.04" width="385.953" height="100" transform="rotate(150.502 6994.16 3049.04)" fill="#D9D9D9"/>
<rect x="6775.66" y="3189.45" width="385.953" height="100" transform="rotate(164.685 6775.66 3189.45)" fill="#D9D9D9"/>
<rect x="6536.37" y="3863.2" width="385.953" height="100" transform="rotate(-141.339 6536.37 3863.2)" fill="#D9D9D9"/>
<rect x="6685.74" y="4148.86" width="385.953" height="100" transform="rotate(-119.106 6685.74 4148.86)" fill="#D9D9D9"/>
<rect x="6724.46" y="4526.84" width="385.953" height="100" transform="rotate(-95.5693 6724.46 4526.84)" fill="#D9D9D9"/>
<rect x="6644" y="4893.08" width="385.953" height="100" transform="rotate(-77.6925 6644 4893.08)" fill="#D9D9D9"/>
<rect x="6467" y="5195.18" width="385.953" height="100" transform="rotate(-59.3923 6467 5195.18)" fill="#D9D9D9"/>
<rect x="6171" y="5397.91" width="385.953" height="100" transform="rotate(-33.1242 6171 5397.91)" fill="#D9D9D9"/>
<rect x="5920.58" y="5452.02" width="385.953" height="100" transform="rotate(-15.0488 5920.58 5452.02)" fill="#D9D9D9"/>
<rect x="6319" y="5322.19" width="385.953" height="100" transform="rotate(-46.9822 6319 5322.19)" fill="#D9D9D9"/>
<rect x="6575" y="5055.18" width="385.953" height="100" transform="rotate(-70.2178 6575 5055.18)" fill="#D9D9D9"/>
<rect x="6710" y="4730.94" width="385.953" height="100" transform="rotate(-89.4504 6710 4730.94)" fill="#D9D9D9"/>
<rect x="6720.46" y="4330.15" width="385.953" height="100" transform="rotate(-105.879 6720.46 4330.15)" fill="#D9D9D9"/>
<rect x="6567.11" y="3931.59" width="149.355" height="100" transform="rotate(-126.154 6567.11 3931.59)" fill="#D9D9D9"/>
<rect x="7105.14" y="2906.24" width="385.953" height="100" transform="rotate(135.433 7105.14 2906.24)" fill="#D9D9D9"/>
<rect x="7249.58" y="2579.73" width="263.281" height="100" transform="rotate(109.912 7249.58 2579.73)" fill="#D9D9D9"/>
<rect x="7250.93" y="2205" width="263.281" height="100" transform="rotate(87.789 7250.93 2205)" fill="#D9D9D9"/>
<rect x="7041.67" y="1933" width="263.281" height="100" transform="rotate(48.3085 7041.67 1933)" fill="#D9D9D9"/>
<rect x="6762.34" y="1791.06" width="263.281" height="100" transform="rotate(24.6176 6762.34 1791.06)" fill="#D9D9D9"/>
<rect x="5550.83" y="1455.24" width="317.176" height="100" transform="rotate(-25.6396 5550.83 1455.24)" fill="#D9D9D9"/>
<rect x="5634" y="1425.8" width="247.41" height="100" transform="rotate(-37.2619 5634 1425.8)" fill="#D9D9D9"/>
<rect x="5861" y="1237.71" width="247.41" height="100" transform="rotate(-56.2496 5861 1237.71)" fill="#D9D9D9"/>
<rect x="6040.03" y="938.543" width="247.41" height="100" transform="rotate(-81.3821 6040.03 938.543)" fill="#D9D9D9"/>
<rect x="6074.66" y="621.572" width="247.41" height="100" transform="rotate(-111.257 6074.66 621.572)" fill="#D9D9D9"/>
<rect x="5928.82" y="321.186" width="215.923" height="100" transform="rotate(-142.289 5928.82 321.186)" fill="#D9D9D9"/>
<rect x="5733.51" y="175.639" width="215.923" height="100" transform="rotate(-165.661 5733.51 175.639)" fill="#D9D9D9"/>
<rect x="5494.45" y="115.965" width="215.923" height="100" transform="rotate(179.37 5494.45 115.965)" fill="#D9D9D9"/>
<path d="M4349.5 473.002L4190 514.002L4168.5 459.5L4693.5 216.5L4580.5 382.502L4494 427.502L4349.5 473.002Z" fill="#D9D9D9"/>
<rect x="4168.45" y="1491.16" width="200.302" height="100" transform="rotate(141.412 4168.45 1491.16)" fill="#D9D9D9"/>
<rect x="4060.82" y="1594.67" width="200.302" height="100" transform="rotate(161.222 4060.82 1594.67)" fill="#D9D9D9"/>
<rect x="3920.99" y="1653.99" width="318" height="100" transform="rotate(180 3920.99 1653.99)" fill="#D9D9D9"/>
<rect x="3745.75" y="1659.42" width="450.511" height="100" transform="rotate(-170.632 3745.75 1659.42)" fill="#D9D9D9"/>
<rect x="3495.67" y="1621.67" width="438.538" height="100" transform="rotate(-165.769 3495.67 1621.67)" fill="#D9D9D9"/>
<rect x="2345.44" y="2003.96" width="296.992" height="100" transform="rotate(-112.975 2345.44 2003.96)" fill="#D9D9D9"/>
<rect x="2343.72" y="2149.89" width="253.643" height="100" transform="rotate(-96.9603 2343.72 2149.89)" fill="#D9D9D9"/>
<rect x="2318.99" y="2357.47" width="253.643" height="100" transform="rotate(-84.5059 2318.99 2357.47)" fill="#D9D9D9"/>
<rect x="2221.28" y="2557.93" width="281.493" height="100" transform="rotate(-67.431 2221.28 2557.93)" fill="#D9D9D9"/>
<rect x="2049.21" y="2788.34" width="344.67" height="100" transform="rotate(-54.4259 2049.21 2788.34)" fill="#D9D9D9"/>
<rect x="1863.99" y="2924.87" width="281.493" height="100" transform="rotate(-37.6325 1863.99 2924.87)" fill="#D9D9D9"/>
<rect x="1732.23" y="2962.75" width="248.962" height="100" transform="rotate(-21.6265 1732.23 2962.75)" fill="#D9D9D9"/>
<rect x="1598.99" y="2962.99" width="248.962" height="100" transform="rotate(-5.29857 1598.99 2962.99)" fill="#D9D9D9"/>
<rect x="1466.15" y="2928" width="248.962" height="100" transform="rotate(8.14151 1466.15 2928)" fill="#D9D9D9"/>
<rect x="1326.1" y="2859" width="248.962" height="100" transform="rotate(22.4064 1326.1 2859)" fill="#D9D9D9"/>
<rect x="1300.18" y="3056" width="248.962" height="100" transform="rotate(47.0503 1300.18 3056)" fill="#D9D9D9"/>
<rect x="259.158" y="3124" width="248.962" height="100" transform="rotate(34.8519 259.158 3124)" fill="#D9D9D9"/>
<rect x="151.998" y="2989" width="248.962" height="100" transform="rotate(49.4363 151.998 2989)" fill="#D9D9D9"/>
<rect x="96.5977" y="2787.87" width="313.537" height="100" transform="rotate(68.6119 96.5977 2787.87)" fill="#D9D9D9"/>
<rect x="102.938" y="2593" width="313.537" height="100" transform="rotate(87.5217 102.938 2593)" fill="#D9D9D9"/>
<rect x="173.361" y="2435.35" width="313.537" height="100" transform="rotate(104.098 173.361 2435.35)" fill="#D9D9D9"/>
<rect x="285.807" y="2306.13" width="313.537" height="100" transform="rotate(122.774 285.807 2306.13)" fill="#D9D9D9"/>
<rect x="427.02" y="2188.52" width="313.537" height="100" transform="rotate(134.851 427.02 2188.52)" fill="#D9D9D9"/>
<rect x="599.25" y="2124.6" width="262.664" height="100" transform="rotate(154.796 599.25 2124.6)" fill="#D9D9D9"/>
<rect x="499.174" y="2154.03" width="262.664" height="100" transform="rotate(143.162 499.174 2154.03)" fill="#D9D9D9"/>
<rect x="734.4" y="2104.75" width="262.664" height="100" transform="rotate(165.377 734.4 2104.75)" fill="#D9D9D9"/>
<rect x="920.428" y="2152.37" width="262.664" height="100" transform="rotate(-169.695 920.428 2152.37)" fill="#D9D9D9"/>
<rect x="959.99" y="2122.78" width="431.46" height="100" transform="rotate(179.741 959.99 2122.78)" fill="#D9D9D9"/>
<rect x="1018.22" y="2196.53" width="309.651" height="100" transform="rotate(-161.839 1018.22 2196.53)" fill="#D9D9D9"/>
<rect x="1535" y="1787.44" width="309.651" height="100" transform="rotate(-87.894 1535 1787.44)" fill="#D9D9D9"/>
<rect x="1542" y="1524.5" width="309.651" height="100" transform="rotate(-70.2877 1542 1524.5)" fill="#D9D9D9"/>
<rect x="1606" y="1333.75" width="309.651" height="100" transform="rotate(-56.0144 1606 1333.75)" fill="#D9D9D9"/>
<rect x="1714" y="1159.61" width="309.651" height="100" transform="rotate(-42.6052 1714 1159.61)" fill="#D9D9D9"/>
<rect x="1886" y="994.486" width="309.651" height="100" transform="rotate(-25.743 1886 994.486)" fill="#D9D9D9"/>
<rect x="2075" y="897.891" width="309.651" height="100" transform="rotate(-9.83547 2075 897.891)" fill="#D9D9D9"/>
<rect x="2292" y="854.736" width="309.651" height="100" transform="rotate(-0.877043 2292 854.736)" fill="#D9D9D9"/>
<rect x="2440.76" y="849.837" width="300.955" height="100" transform="rotate(2.85961 2440.76 849.837)" fill="#D9D9D9"/>
<rect x="2622.95" y="856.996" width="413.751" height="100" transform="rotate(6.28663 2622.95 856.996)" fill="#D9D9D9"/>
<path d="M1032 2210.99L944 2171.99L1621.5 1646.99L1651.5 1775.49L1689.5 1922.49L1734.5 2101.99L1729 2151.49L1709 2189.49L1682 2210.99L1629.5 2238.49L1576.5 2258.49L1484 2276.49L1399 2281.99L1216 2265.99L1032 2210.99Z" fill="#D9D9D9"/>
<rect x="1450.1" y="3201" width="176.018" height="100" transform="rotate(59.4438 1450.1 3201)" fill="#D9D9D9"/>
<rect x="1532.95" y="3328" width="176.018" height="100" transform="rotate(78.413 1532.95 3328)" fill="#D9D9D9"/>
<rect x="1568.31" y="3482.21" width="272.472" height="100" transform="rotate(92.4139 1568.31 3482.21)" fill="#D9D9D9"/>
<rect x="1565.74" y="3670.3" width="322.81" height="100" transform="rotate(103.478 1565.74 3670.3)" fill="#D9D9D9"/>
<rect x="1499.95" y="3942.04" width="322.81" height="100" transform="rotate(116.134 1499.95 3942.04)" fill="#D9D9D9"/>
<rect x="2116.71" y="3941.52" width="499.39" height="100" transform="rotate(116.134 2116.71 3941.52)" fill="#D9D9D9"/>
<rect x="2242.44" y="3762.28" width="339.434" height="100" transform="rotate(122.195 2242.44 3762.28)" fill="#D9D9D9"/>
<rect x="2415.89" y="3628.9" width="339.434" height="100" transform="rotate(136.805 2415.89 3628.9)" fill="#D9D9D9"/>
<rect x="2606.24" y="3540.39" width="339.434" height="100" transform="rotate(153.373 2606.24 3540.39)" fill="#D9D9D9"/>
<rect x="2829.74" y="3517.43" width="339.434" height="100" transform="rotate(169.838 2829.74 3517.43)" fill="#D9D9D9"/>
<rect x="3073.94" y="3566.47" width="339.434" height="100" transform="rotate(-171.785 3073.94 3566.47)" fill="#D9D9D9"/>
<rect x="3190.06" y="3652.39" width="263.894" height="100" transform="rotate(-153.454 3190.06 3652.39)" fill="#D9D9D9"/>
<rect x="3308.67" y="3776.73" width="263.894" height="100" transform="rotate(-138.512 3308.67 3776.73)" fill="#D9D9D9"/>
<rect x="3437.74" y="3936.1" width="262.358" height="100" transform="rotate(-129.464 3437.74 3936.1)" fill="#D9D9D9"/>
<rect x="4079.38" y="5527.22" width="312.137" height="100" transform="rotate(-171.372 4079.38 5527.22)" fill="#D9D9D9"/>
<rect x="3856.45" y="5496.34" width="312.137" height="100" transform="rotate(-158.524 3856.45 5496.34)" fill="#D9D9D9"/>
<rect x="3626.51" y="5420.39" width="312.137" height="100" transform="rotate(-146.578 3626.51 5420.39)" fill="#D9D9D9"/>
<rect x="3445.11" y="5312.45" width="312.137" height="100" transform="rotate(-133.82 3445.11 5312.45)" fill="#D9D9D9"/>
<rect x="3258.92" y="5130.11" width="312.137" height="100" transform="rotate(-126.106 3258.92 5130.11)" fill="#D9D9D9"/>
<rect x="3129.44" y="4963.47" width="267.286" height="100" transform="rotate(-119.067 3129.44 4963.47)" fill="#D9D9D9"/>
<rect x="2271.97" y="5047.25" width="267.286" height="100" transform="rotate(-61.2119 2271.97 5047.25)" fill="#D9D9D9"/>
<rect x="2175.05" y="5147.02" width="214.598" height="100" transform="rotate(-50.4491 2175.05 5147.02)" fill="#D9D9D9"/>
<rect x="2027.97" y="5242.96" width="214.598" height="100" transform="rotate(-35.1104 2027.97 5242.96)" fill="#D9D9D9"/>
<rect x="1883.99" y="5280.7" width="214.598" height="100" transform="rotate(-17.5472 1883.99 5280.7)" fill="#D9D9D9"/>
<rect x="1640.59" y="5321.37" width="301.978" height="100" transform="rotate(-10.6965 1640.59 5321.37)" fill="#D9D9D9"/>
<rect x="1049.4" y="5322.64" width="401.941" height="100" transform="rotate(1.35054 1049.4 5322.64)" fill="#D9D9D9"/>
<rect x="729.088" y="5260" width="401.941" height="100" transform="rotate(9.26663 729.088 5260)" fill="#D9D9D9"/>
<rect x="583.387" y="5182.34" width="282.559" height="100" transform="rotate(22.3219 583.387 5182.34)" fill="#D9D9D9"/>
<rect x="429.316" y="5057" width="282.559" height="100" transform="rotate(37.1033 429.316 5057)" fill="#D9D9D9"/>
<rect x="369.078" y="4925" width="282.559" height="100" transform="rotate(53.2101 369.078 4925)" fill="#D9D9D9"/>
<rect x="338.359" y="4735" width="282.559" height="100" transform="rotate(74.4652 338.359 4735)" fill="#D9D9D9"/>
<rect x="362.139" y="4559.25" width="282.559" height="100" transform="rotate(91.8619 362.139 4559.25)" fill="#D9D9D9"/>
<rect x="425.367" y="4387.56" width="282.559" height="100" transform="rotate(104.223 425.367 4387.56)" fill="#D9D9D9"/>
<rect x="514.311" y="4242.36" width="282.559" height="100" transform="rotate(116.977 514.311 4242.36)" fill="#D9D9D9"/>
<rect x="1316.28" y="5340.29" width="430.062" height="100" transform="rotate(-4.43889 1316.28 5340.29)" fill="#D9D9D9"/>
<path d="M3086.98 4681V4735L2382.98 4880.5V4847.5L2458.98 4675.5L2489.98 4603.5L2524.48 4524.5L2562.98 4446L2602.48 4388L2671.48 4327.5L2742.48 4300.5L2811.98 4310.5L2877.48 4354.5L2953.98 4446L3086.98 4681Z" fill="#D9D9D9"/>
<rect x="3524.26" y="4064.89" width="262.358" height="100" transform="rotate(-125.11 3524.26 4064.89)" fill="#D9D9D9"/>
<rect x="1392.83" y="4167.45" width="322.81" height="100" transform="rotate(125.773 1392.83 4167.45)" fill="#D9D9D9"/>
<rect x="1171.14" y="2756.94" width="262.908" height="100" transform="rotate(30.6659 1171.14 2756.94)" fill="#D9D9D9"/>
<rect x="4587.97" y="1196.39" width="241.907" height="100" transform="rotate(145.481 4587.97 1196.39)" fill="#D9D9D9"/>
<rect x="4742.3" y="1125.73" width="266.55" height="100" transform="rotate(152.025 4742.3 1125.73)" fill="#D9D9D9"/>
<rect x="5147.47" y="981.837" width="474.88" height="100" transform="rotate(160.032 5147.47 981.837)" fill="#D9D9D9"/>
<rect x="5173.99" y="950.859" width="219.79" height="100" transform="rotate(159.211 5173.99 950.859)" fill="#D9D9D9"/>
<rect x="5027.19" y="1007.79" width="332.812" height="100" transform="rotate(161.427 5027.19 1007.79)" fill="#D9D9D9"/>
<rect x="4811.71" y="1083.1" width="340.618" height="100" transform="rotate(168.282 4811.71 1083.1)" fill="#D9D9D9"/>
<path d="M4367.99 1035.49L4579.99 1031.49V1074.99L4218.49 1363.99L4146.49 1353.49L4282.49 1110.49L4304.99 1074.99L4335.49 1044.49L4367.99 1035.49Z" fill="#D9D9D9"/>
<path d="M5195.99 969.496L4961.49 1049.5L4910.99 943.496L5200.99 831.996L5324.49 790.496L5379.49 785.496L5412.49 794.496L5426.49 813.996V838.996L5416.49 859.496L5398.99 873.996L5361.99 900.496L5314.99 922.496L5195.99 969.496Z" fill="#D9D9D9"/>
<path d="M2993.96 1387.99L3304.96 1470.99L3280.46 1551.49L2360.46 1949.99L2124.46 1593.99L2108.96 1551.49L2114.96 1480.99L2144.46 1436.99L2221.46 1392.49L2387.96 1351.99L2556.96 1334.49L2733.96 1338.99L2993.96 1387.99Z" fill="#D9D9D9"/>
<path d="M1131.98 2723.5L1217.98 2786L1372.98 3247L1137.48 3049.5L941.484 2886L827.984 2772L798.484 2713V2678L821.484 2646L880.984 2612H944.984L1036.98 2657L1131.98 2723.5Z" fill="#D9D9D9"/>
<path d="M1132.98 4342L1204.98 4259L1990.48 4081.5L1900.98 4383.5L1838.98 4507L1758.98 4600.5L1650.48 4680.5L1442.48 4771.5L1251.48 4809.5L1064.98 4817L981.484 4789L963.984 4750L956.484 4680.5L981.484 4584L1051.98 4454L1132.98 4342Z" fill="#D9D9D9"/>
<rect x="3921" y="5420" width="2204" height="175" fill="#D9D9D9"/>
<path d="M514 4276L447 4370.5H394.5L267 3177.5L430.5 3247L540 3296.5L637 3363L698.5 3465L721 3531L733.5 3603.5L727 3778.5L689 3929L647 4044L596.5 4155.5L514 4276Z" fill="#D9D9D9"/>
<path d="M3180.5 1034L2786 975.5L2872 907L3826.5 625.5H3934L3867.5 748L3754.5 924L3677.5 993.5L3589 1033.5L3502 1053L3404.5 1058.5L3180.5 1034Z" fill="#D9D9D9"/>
<path d="M5509 1431.5L5656 1410.5L6214.5 1788.5L6030.5 1819.5L5806.5 1811L5603 1797.5L5424.5 1759L5328.5 1710.5L5287.5 1652L5280.5 1586.5L5295.5 1534.5L5337 1491L5409.5 1455L5509 1431.5Z" fill="#D9D9D9"/>
<path d="M6376 3183.5L6541 3155.5L6456.5 3666L6230.5 3650.5L6078.5 3601.5L6000 3546.5L5971.5 3477L5978.5 3400.5L6013.5 3338L6097 3273.5L6230.5 3221L6376 3183.5Z" fill="#D9D9D9"/>
<path d="M5010 1553.5L4944 1545.5L4875 1567L4828.5 1621L4824.5 1693L4859.5 1759.5L4924.5 1791L4996.5 1786L5048 1759.5L5071.5 1720.5L5083.5 1670.5L5078 1624L5054.5 1579.5L5010 1553.5Z" fill="#D9D9D9"/>
<path d="M5108.5 5118.5L4133.5 5107.5L3608 4946.5L3085 4079L2418 4176.5L1973.5 4885L1042.5 5036.5L669.5 4668L1075.5 3576L570 2947.5L612.5 2470L1491.5 2512.5L1950 2248V1595.5L2200.5 1198.5L3717.5 1269.5L4223.5 849L5454 378.5L5785 643.5L5660 1061.5L4965.5 1458.5L5168.5 1978.5L6463.5 2139.5L6563 2716L5780.5 3322L5893 3828.5L6563 4609L5965.5 5019L5108.5 5118.5Z" stroke="#82E1BF" stroke-width="6"/>
</svg>
