<svg width="8283" height="6556" viewBox="0 0 8283 6556" fill="none" xmlns="http://www.w3.org/2000/svg">
<path d="M7052.5 1496.5H5624.5L5588.5 1504L5624.5 1650L7205 1745L7245.5 2892.5L5790.5 3068.5L5843 3315L6190.5 3190L6450.5 3133L6750 3100.5L6992 3091L7157.5 3085.5L7245.5 3068.5L7318.5 3046.5L7375 3007L7420.5 2959.5L7447 2892.5L7468 2781V1849L7442 1745L7397.5 1650L7319 1577.5L7205 1522.5L7052.5 1496.5Z" stroke="black"/>
<path d="M5933 3291L6167 3193.5L5933 3147L5418.5 3462.5L5319.5 4070.5L5547.5 4630L5933 4998L5286 5104.5L4993.5 4513L4673 3325H4497.5L4534.5 3458.5L4556 3603L4564 3765.5L4556 3938.5L4549 4070.5L4540 4198.5L4549 4330L4571.5 4454L4610.5 4551L4673 4630L4761 4710.5L4853.5 4779L4931 4828L4999.5 4910L5037 4994L5058 5104.5L5048.5 5255.5L5022 5449.5L4993.5 5636.5L5001 5735.5L5037 5789.5L5119.5 5819L5195 5795.5L5286 5725L5353.5 5652L5448.5 5543.5L5586.5 5401L5709 5303L5797.5 5255.5L5890.5 5226L6012.5 5219.5L6133 5245L6233 5285L6368.5 5330.5L6525.5 5358H6666.5L6734 5330.5L6775 5298L6800 5259L6810 5211L6792 5140.5L6743.5 5076.5L6651.5 4998L6525.5 4923L6321.5 4821L6161.5 4753L5933 4651L5804 4565.5L5702.5 4457L5645.5 4344L5596 4198.5L5575 4087L5564 3912L5568 3770L5590.5 3652.5L5631 3560L5702.5 3462.5L5804 3367.5L5933 3291Z" stroke="black"/>
<path d="M4484.5 3316.5L4521.5 3401.5H4657.5L4321.5 2769L3425.5 2697L2397 3328.5L1556 3154L2296 2769V1989.5L2120 2140.5V2266L2114.5 2341.5L2096 2439L2056 2536L2004.5 2617.5L1922 2697L1821 2769L1693.5 2836L1556 2897L1324.5 2980L1187.5 3030.5L1088.5 3073L1012 3115.5L965.5 3154L930 3189.5L909 3226.5L891 3282.5V3328.5L901.5 3388L934.5 3428L1012 3458H1132.5L1272 3428L1443.5 3388L1596.5 3370L1708 3376L1854.5 3417.5L1985 3491L2104 3579L2202.5 3652.5L2296 3704.5L2397 3729.5L2482.5 3721.5L2590.5 3672.5L2693.5 3592.5L2836 3455L3136 3167L3296.5 3045L3425.5 2973L3585 2927L3745.5 2917L3878 2931.5L4028 2966L4140 3007L4226 3046L4321.5 3108L4382.5 3164L4437.5 3235.5L4484.5 3316.5Z" stroke="black"/>
<path d="M2112 2109.5L2124 2224L2365.5 1880L3287.5 2044L4027 1812L4347 1388L4828 1566L5797 1548.5L5706 1498H5550.5L5209.5 1475L4999.5 1426L4828 1351L4670 1232.5L4548 1097.5L4451.5 961L4404.5 898.5L4347 841.5L4274.5 804.5L4192 794L4125.5 804.5L4080 846.5L4068 911L4074 1000L4096.5 1232.5V1341.5L4074 1463.5L4027 1566L3947 1659.5L3844.5 1738L3684.5 1812L3508 1862L3287.5 1892L3138 1880L2990 1845.5L2866.5 1794L2724.5 1703.5L2601 1601L2426 1388L2321.5 1258.5L2246 1163L2180 1116.5H2113.5L2068 1145L2023 1204L1997 1306.5V1445.5L2023 1619L2053 1770L2089 1954L2112 2109.5Z" stroke="black"/>
<path d="M3026.5 960.5L2909 833.5L2864.5 420.5L3916.5 0.5H4865.5L5944.5 855.5L5693.5 870L5502.5 860L5387 814L5261 721.5L5135 592L4980 447L4785.5 328L4568 254L4345 228L4092.5 243L3916.5 275.5L3719.5 350L3563 482L3474.5 638.5L3434 824.5L3416 1065.5L3406.5 1132L3382 1192.5L3354 1225.5L3319 1241L3294 1234L3257 1207L3026.5 960.5Z" stroke="black"/>
<path d="M2980 4132L3213.5 3999.5V4301.5L2531.5 4602.5L1464.5 4236.5L431.5 4380.5L1 2893L1153.5 2027L1203 947.5L2091 140.5L2899 377.5L2998 918L2755 702L2584 587L2420 517L2196.5 492L2022.5 529L1814.5 646.5L1615.5 837.5L1494.5 1005.5L1432 1163L1406 1360L1417.5 1515.5L1473 1777.5L1507 1936.5L1520 2090L1507 2245L1464.5 2377L1418.5 2436L1281.5 2523.5L1053.5 2621.5L781 2732.5L620 2820.5L484.5 2922L395.5 3035L339.5 3173L329 3337L370 3531.5L431.5 3693L495.5 3812L562 3896.5L651.5 3964L760 3999H877L1031 3960.5L1203 3904.5L1402 3859L1561.5 3868L1700 3939.5L1892.5 4089L2125 4196.5L2437.5 4236.5L2724.5 4212L2980 4132Z" stroke="black"/>
<path d="M7205 869H5663.5L5630.5 566L7039 499.5L8282 634.5V3205L7772.5 4234L7254 4710L6862 4402L6555.5 4208.5L6336 4044L6257 3951.5V3857.5L6294 3773.5L6384.5 3689.5L6537.5 3637.5L6793 3608.5L7156.5 3601L7489.5 3589.5L7676 3532.5L7851 3421.5L7992 3242.5L8071.5 3047.5L8095 2884V1586L8062 1410L8008.5 1281.5L7883.5 1112L7725 1001.5L7552.5 927L7411 888.5L7205 869Z" stroke="black"/>
<path d="M7293.5 4781.5L7174 4640.5L7812.5 4537L7731.5 5868L5945.5 6554.5L4563 6522L3611.5 5531L2962 4182L3324 3912L3611.5 3651L3781 3525.5L3888 3510L3990 3562L4066.5 3724L4089 3940.5L4066.5 4222.5L4047 4387L4031 4537L4055.5 4669.5L4107 4777L4192 4881.5L4391.5 5046L4488.5 5133.5L4535.5 5211L4538 5274.5L4524.5 5485.5L4538 5700L4571.5 5868L4663 6063L4798 6203.5L4942 6266L5190 6326.5H5399L5531.5 6281.5L5621.5 6184L5736.5 6002.5L5856 5833.5L5945.5 5748.5L6020.5 5713.5L6086.5 5717.5L6252 5783.5L6497.5 5841H6752.5L6957 5792L7117 5710.5L7233 5609.5L7332.5 5464L7383 5314L7402.5 5165.5V5061.5L7372 4916L7293.5 4781.5Z" stroke="black"/>
<path d="M7699.5 1908.5H7457V2075.5H7699.5L7744.5 2051.5V1938L7699.5 1908.5Z" stroke="black"/>
<path d="M7875.58 2479H8118.5V2646H7875.58L7830.5 2622V2508.5L7875.58 2479Z" stroke="black"/>
<rect x="5779.5" y="1543" width="710" height="102" transform="rotate(-90 5779.5 1543)" fill="#D58850"/>
<path d="M5839.5 1198L5313.5 1162.5L4567 591.5L3856 704.5L3624 1480.5H3121.5L2348 874L1738.5 1031.5L1690.5 1480.5L1789 2230L1509.5 2649.5L807.5 3018.5L694.5 3327.5L858 3637L1262.5 3663.5L1842.5 3765L2428.5 3991L3255 3637L3778.5 3238.5L4216 3369.5L4332 3750L4355.5 4505.5L4581.5 4797L4831.5 5534.5L4873 5897.5L5164.5 6043L5670 5653.5L6140 5513.5L6702.5 5573L7106.5 5284.5L7023.5 4904L6069 4306L5920 3839L6250 3479.5L7386.5 3324.5L7785 2899.5L7770 1421L7505.5 1216L6063 1198" stroke="#82E1BF" stroke-width="5"/>
<rect x="6784.5" y="1223" width="135" height="70" transform="rotate(-180 6784.5 1223)" fill="#BF3232"/>
</svg>
