<svg width="246" height="111" viewBox="0 0 246 111" fill="none" xmlns="http://www.w3.org/2000/svg">
<g id="car" clip-path="url(#clip0_224_566)">
<path id="Vector" d="M56.5828 97.1583H56.601L56.6192 97.1581L56.5828 91.6583C56.6192 97.1581 56.6195 97.1581 56.6202 97.1581L56.6234 97.1581L56.636 97.158L56.6864 97.1577L56.8865 97.1564L57.6737 97.1513L60.7157 97.1318C63.3652 97.1151 67.2166 97.0911 72.024 97.0624C81.6388 97.005 95.077 96.9284 110.371 96.8518C140.96 96.6986 178.964 96.5454 208.641 96.5454C213.549 96.5454 221.617 95.8092 228.378 89.5564C235.175 83.2693 239.501 72.4965 239.501 55.0787C239.501 37.2753 233.952 26.6076 226.666 20.5293C219.589 14.6246 211.802 13.8396 208.64 13.8401C178.465 13.8447 139.839 13.9979 108.761 14.15C93.2217 14.2261 79.5673 14.3018 69.7978 14.3586C64.9131 14.3869 60.9994 14.4106 58.3069 14.4271L55.2152 14.4463L54.4147 14.4513L54.2111 14.4526L54.1601 14.453H28.2031C24.144 14.453 20.2067 14.7176 16.8332 16.034C13.0846 17.4968 10.3873 20.1037 8.66106 23.8728C7.08278 27.319 6.36423 31.6321 5.97698 36.6302C5.58327 41.7118 5.50008 48.0803 5.50008 55.9205C5.50008 59.4595 5.46649 62.7648 5.43595 65.7705C5.40102 69.2082 5.37007 72.254 5.3979 74.8098C5.44993 79.589 5.68709 83.8763 6.81919 87.293C8.1267 91.2391 10.6421 94.0889 14.6273 95.6225C18.0137 96.9255 22.2151 97.1583 26.76 97.1583H56.5828Z" fill="#C93535" stroke="#302D2D" stroke-width="11"/>
<path id="Rectangle 741" d="M6 13.0563C6 12.4048 6.61295 11.9273 7.24461 12.0867L16.1799 14.3408C21.9539 15.7974 26 20.991 26 26.9459V86.5492C26 92.8969 21.4158 98.3164 15.1561 99.3692L7.16585 100.713C6.55588 100.816 6 100.345 6 99.7268V13.0563Z" fill="#463737" stroke="#302D2D" stroke-width="12"/>
<g id="Group 98">
<path id="Rectangle 737" d="M206 50.4545C207.248 54.066 207.316 56.0991 206 59.7095" stroke="#302D2D" stroke-width="14" stroke-linecap="round"/>
<path id="Rectangle 737_2" d="M199 50.4545C200.248 54.066 200.316 56.0991 199 59.7095" stroke="#302D2D" stroke-width="14" stroke-linecap="round"/>
<path id="Rectangle 740" d="M206 50.4545C207.248 54.066 207.316 56.0991 206 59.7095" stroke="#7A5252" stroke-width="3" stroke-linecap="round"/>
<path id="Rectangle 740_2" d="M199 50.4545C200.248 54.066 200.316 56.0991 199 59.7095" stroke="#7A5252" stroke-width="3" stroke-linecap="round"/>
</g>
<path id="Vector_2" d="M64.6173 15.5665C68.3139 19.9676 70 35.3365 70 54.6591C70 73.9816 68.3139 89.3505 64.6173 93.7516C60.9208 98.1527 44.459 94.7634 40.762 91.8294C37.0651 88.8953 37 76.6486 37 54.6591C37 32.6696 37.0651 20.4229 40.762 17.4888C44.459 14.5547 60.9208 11.1654 64.6173 15.5665Z" fill="#302D2D"/>
<path id="Vector 717" d="M162 55.6909C162 72.1091 157.891 90.8182 157.891 90.8182C157.891 90.8182 132.397 89.007 129.499 86.6631C126.602 84.3192 125.759 27.4372 129.499 25.1679C133.239 22.8986 157.891 20.1818 157.891 20.1818C157.891 20.1818 162 39.2727 162 55.6909Z" fill="#806D87" stroke="#302D2D" stroke-width="10"/>
<g id="Vector_3">
<path d="M121.107 82.4124L81.1177 82.4091C69.7199 82.4091 66.632 83.6874 62 94.9963C91.3357 97.1069 121.186 94.8434 141.773 93.7144C143.316 89.1887 136.626 87.8354 133.023 85.801C126.385 83.7378 125.215 83.2144 121.107 82.4124Z" fill="#806D87"/>
<path d="M121.107 82.4124L81.1177 82.4091C69.7199 82.4091 66.632 83.6874 62 94.9963C91.3357 97.1069 121.186 94.8434 141.773 93.7144C143.316 89.1887 136.626 87.8354 133.023 85.801C126.385 83.7378 125.215 83.2144 121.107 82.4124ZM121.107 82.4124H81.1177" stroke="#302D2D" stroke-width="11"/>
</g>
<g id="Vector_4">
<path d="M121.107 28.5876L81.1177 28.5909C69.7199 28.5909 66.632 27.3126 62 16.0037C91.3357 13.8931 121.186 16.1566 141.773 17.2856C143.316 21.8113 136.626 23.1646 133.023 25.199C126.385 27.2622 125.215 27.7856 121.107 28.5876Z" fill="#806D87"/>
<path d="M121.107 28.5876L81.1177 28.5909C69.7199 28.5909 66.632 27.3126 62 16.0037C91.3357 13.8931 121.186 16.1566 141.773 17.2856C143.316 21.8113 136.626 23.1646 133.023 25.199C126.385 27.2622 125.215 27.7856 121.107 28.5876ZM121.107 28.5876H81.1177" stroke="#302D2D" stroke-width="11"/>
</g>
<path id="Vector_5" d="M58.4098 23.7302C59.5922 25.89 62 39.517 62 55.3256C62 71.1341 60.0528 85.1673 58.4098 87.3294C56.7668 89.4914 50.5882 87.5505 49.4073 86.1125C48.2264 84.6745 46 73.3161 46 55.3256C46 37.3351 48.1158 26.3996 49.4073 24.8265C50.6988 23.2533 57.2273 21.5704 58.4098 23.7302Z" fill="#806D87"/>
<path id="Rectangle 742" d="M237.906 36.7435L233.402 37.6685L237.906 36.7435C237.236 33.4825 234.364 31.1591 231.055 31.1591H230.454C225.993 31.1591 222.742 35.2413 223.575 39.523C225.879 51.3565 226.204 58.9049 223.584 72.3022C222.75 76.567 225.977 80.6818 230.464 80.6818H231.713C235.03 80.6818 237.934 78.3399 238.573 75.0265C241.504 59.8431 240.769 50.6826 237.906 36.7435Z" fill="#563535" stroke="#302D2D" stroke-width="10"/>
<path id="Rectangle 739" d="M134.921 102.841C134.418 104.419 135.32 105.994 136.936 106.359L139.218 106.873C142.152 107.534 145.27 105.747 146.184 102.881L147.754 97.9526C148.592 95.3215 147.088 92.6965 144.394 92.0895L143.629 91.9171C140.935 91.3102 138.072 92.951 137.233 95.5821L134.921 102.841Z" fill="#C93535" stroke="#302D2D" stroke-width="8"/>
<path id="Rectangle 735" d="M131.911 7.79956C131.408 6.22091 132.31 4.64593 133.927 4.28173L135.065 4.02521C138.748 3.1954 142.663 5.43859 143.809 9.03552L145.075 13.0109C145.914 15.642 144.41 18.2669 141.716 18.8739L140.738 19.0943C138.044 19.7013 135.18 18.0604 134.342 15.4293L131.911 7.79956Z" fill="#C93535" stroke="#302D2D" stroke-width="8"/>
<path id="Vector 720" d="M219.49 33.0621C218.668 31.758 215.781 26.7792 214.233 18.9233C214.107 18.2844 214.63 17.7076 215.279 17.7576L219.714 18.0991L225.377 19.2942C225.557 19.3321 225.722 19.4185 225.856 19.544L233.132 26.3833C233.21 26.4571 233.277 26.5431 233.328 26.638L237.207 33.844C237.565 34.5103 237.084 35.3142 236.328 35.2901C229.843 35.0834 221.966 33.7912 220.116 33.4747C219.855 33.43 219.632 33.2863 219.49 33.0621Z" fill="#FFA490" stroke="#302D2D" stroke-width="10"/>
<path id="Vector 721" d="M218.726 77.9276C217.879 79.2152 214.86 84.1984 213.243 92.0735C213.112 92.713 213.633 93.2941 214.284 93.246L218.952 92.901L224.869 91.7023C225.044 91.6667 225.207 91.5847 225.34 91.4646L232.931 84.6154C233.011 84.5425 233.08 84.4569 233.133 84.362L237.165 77.1711C237.539 76.5045 237.058 75.6859 236.294 75.7089C229.503 75.9129 221.231 77.2194 219.347 77.5294C219.089 77.5717 218.869 77.7097 218.726 77.9276Z" fill="#FFA490" stroke="#302D2D" stroke-width="10"/>
</g>
<defs>
<clipPath id="clip0_224_566">
<rect width="246" height="111" fill="white"/>
</clipPath>
</defs>
</svg>
