<svg width="237" height="123" viewBox="0 0 237 123" fill="none" xmlns="http://www.w3.org/2000/svg">
<path d="M205.64 105.271C221.48 105.271 233 95.8044 233 63.3707C233 30.937 221 20 205.64 20L51.1772 20.7288H25.2025C9.36253 20.7288 5 26.0342 5 63.3707C5 100.707 5.51949 106 23.7595 106H53.5823L205.64 105.271Z" fill="#BF3232" stroke="#2B1B1B" stroke-width="8"/>
<path d="M162 63.0755C162 80.7404 157.904 100.87 157.904 100.87C157.904 100.87 133.698 99.976 129.602 96.3995C125.507 92.8231 124.14 33.8113 129.602 30.2348C135.064 26.6584 157.904 24.8701 157.904 24.8701C157.904 24.8701 162 45.4107 162 63.0755Z" fill="#947286" stroke="#2B1B1B" stroke-width="8"/>
<path d="M55.4409 23.1527C57.8851 27.6388 59 43.3044 59 63C59 82.6956 57.8851 98.3612 55.4409 102.847C52.9966 107.333 42.1118 103.879 39.6673 100.888C37.2228 97.8971 36 85.414 36 63C36 40.586 37.2228 28.1029 39.6673 25.1121C42.1118 22.1214 52.9966 18.6667 55.4409 23.1527Z" fill="#947286" stroke="#2B1B1B" stroke-width="8"/>
<path d="M9 82.8701V78.8701H4.86445L5.00222 83.0034L5.50222 98.0034L5.50946 98.2206L5.5402 98.4358L6.5402 105.436L6.76423 107.004L8.00122 107.994L10.5 104.87C8.00122 107.994 8.00198 107.994 8.00274 107.995L8.00432 107.996L8.00769 107.999L8.01518 108.005L8.0332 108.019L8.08109 108.056C8.11807 108.085 8.16553 108.121 8.22213 108.163C8.33416 108.246 8.48795 108.357 8.67182 108.48C9.00483 108.702 9.58069 109.061 10.2644 109.334C10.7087 109.512 12.319 110.138 14.0949 109.428C16.5558 108.443 17 106.079 17 104.87C17 101.796 16.8727 98.3601 16.749 95.0185L16.7473 94.9721C16.6216 91.5783 16.5 88.2817 16.5 85.3701C16.5 83.7032 15.8769 82.2665 14.8773 81.1955C13.9619 80.2147 12.8832 79.697 12.0953 79.4156C11.2849 79.1262 10.5315 78.9982 10.0197 78.9372C9.7535 78.9055 9.526 78.889 9.35421 78.8802C9.26776 78.8758 9.19387 78.8733 9.13452 78.8719C9.1048 78.8712 9.07858 78.8707 9.05612 78.8705L9.02521 78.8702L9.01189 78.8701L9.00576 78.8701L9.00284 78.8701C9.00141 78.8701 9 78.8701 9 82.8701Z" fill="#EAA292" stroke="#2B1B1B" stroke-width="8"/>
<path d="M9 44.7588V48.7588H4.86445L5.00222 44.6255L5.50222 29.6255L5.50946 29.4083L5.5402 29.1931L6.5402 22.1931L6.76423 20.6249L8.00122 19.6353L10.5 22.7588C8.00122 19.6353 8.00198 19.6347 8.00274 19.6341L8.00432 19.6328L8.00769 19.6301L8.01518 19.6242L8.0332 19.61L8.08109 19.5726C8.11807 19.544 8.16553 19.5078 8.22213 19.4658C8.33416 19.3826 8.48795 19.2719 8.67182 19.1493C9.00483 18.9273 9.58069 18.5684 10.2644 18.2949C10.7087 18.1172 12.319 17.4908 14.0949 18.2011C16.5558 19.1855 17 21.5498 17 22.7588C17 25.833 16.8727 29.2688 16.749 32.6104L16.7473 32.6568C16.6216 36.0507 16.5 39.3472 16.5 42.2588C16.5 43.9257 15.8769 45.3624 14.8773 46.4334C13.9619 47.4142 12.8832 47.9319 12.0953 48.2133C11.2849 48.5027 10.5315 48.6308 10.0197 48.6917C9.7535 48.7234 9.526 48.7399 9.35421 48.7487C9.26776 48.7531 9.19387 48.7556 9.13452 48.757C9.1048 48.7578 9.07858 48.7582 9.05612 48.7584L9.02521 48.7587L9.01189 48.7588L9.00576 48.7588L9.00284 48.7588C9.00141 48.7588 9 48.7588 9 44.7588Z" fill="#EAA292" stroke="#2B1B1B" stroke-width="8"/>
<path d="M123.423 25.8789H84.573C73.5 25.8789 70.5 25.3701 66 20.3701M176 20.3788C157.5 20.3788 134.326 24.9088 123.423 25.8774H84.573" stroke="#2B1B1B" stroke-width="8"/>
<path d="M123.423 99.87H84.573C73.5 99.87 70 100.37 65.5 105.37M176 105.5C157.5 105.5 134.326 100.84 123.423 99.8715H84.573" stroke="#2B1B1B" stroke-width="8"/>
<path d="M160 21.3701C127.5 21.3701 84.5 19.0439 50.5 20.8701" stroke="#2B1B1B" stroke-width="8"/>
<path d="M160 104C127.5 104 84.5 106.696 50.5 104.87" stroke="#2B1B1B" stroke-width="8"/>
<path d="M223.803 36H223.164C219.649 36 216.917 38.9987 217.178 42.4625C218.389 58.5017 218.501 68.3381 217.194 84.5022C216.913 87.9742 219.646 91 223.178 91H224.478C227.631 91 230.261 88.5517 230.46 85.3857C231.521 68.539 230.869 58.2132 229.79 41.613C229.586 38.4621 226.971 36 223.803 36Z" fill="#563535" stroke="#2B1B1B" stroke-width="8"/>
<path d="M118.107 93.0032L78.1177 93C66.7199 93 63.632 94.2351 59 105.162C88.3357 107.201 118.186 105.014 138.773 103.923C140.316 99.5506 133.626 98.243 130.023 96.2773C123.385 94.2838 122.215 93.7781 118.107 93.0032Z" fill="#947286"/>
<path d="M118.107 93.0032L78.1177 93C66.7199 93 63.632 94.2351 59 105.162C88.3357 107.201 118.186 105.014 138.773 103.923C140.316 99.5506 133.626 98.243 130.023 96.2773C123.385 94.2838 122.215 93.7781 118.107 93.0032ZM118.107 93.0032H78.1177" stroke="#2B1B1B" stroke-width="8"/>
<path d="M118.107 32.9968L78.1177 33C66.7199 33 63.632 31.7458 59 20.6502C88.3357 18.5795 118.186 22.0194 138.773 23.1271C140.316 27.5674 133.626 27.676 130.023 29.6721C123.385 31.6964 122.215 32.2099 118.107 32.9968Z" fill="#947286"/>
<path d="M118.107 32.9968L78.1177 33C66.7199 33 63.632 31.7458 59 20.6502C88.3357 18.5795 118.186 22.0194 138.773 23.1271C140.316 27.5674 133.626 27.676 130.023 29.6721C123.385 31.6964 122.215 32.2099 118.107 32.9968ZM118.107 32.9968H78.1177" stroke="#2B1B1B" stroke-width="8"/>
<path d="M141.242 8.38509C140.813 6.78469 141.763 5.13967 143.363 4.71085L144.596 4.38045C148.243 3.40338 151.991 5.56736 152.968 9.21385L154.765 15.9194C155.479 18.5867 153.896 21.3284 151.229 22.0431L150.155 22.3309C147.488 23.0456 144.746 21.4627 144.031 18.7954L141.242 8.38509Z" fill="#CF4646" stroke="#2B1B1B" stroke-width="8"/>
<mask id="path-16-inside-1_2494_194" fill="white">
<rect x="17" y="27" width="17" height="7" rx="2"/>
</mask>
<rect x="17" y="27" width="17" height="7" rx="2" fill="#737373" stroke="#332727" stroke-width="7" mask="url(#path-16-inside-1_2494_194)"/>
<mask id="path-17-inside-2_2494_194" fill="white">
<rect x="17" y="93" width="17" height="7" rx="2"/>
</mask>
<rect x="17" y="93" width="17" height="7" rx="2" fill="#737373" stroke="#332727" stroke-width="7" mask="url(#path-17-inside-2_2494_194)"/>
<path d="M9 12.5013C9 11.2192 10.1893 10.2682 11.44 10.5503L17.76 11.9757C21.4086 12.7985 24 16.0395 24 19.7797V106.858C24 110.817 21.1044 114.18 17.1895 114.769L11.2974 115.655C10.0879 115.836 9 114.9 9 113.677V12.5013Z" fill="#463737" stroke="#301F1F" stroke-width="8"/>
<path d="M213 37.0005C213 35.0235 209.781 31.3207 208.194 21.7954C208.088 21.1581 208.618 20.5969 209.261 20.6561L212.923 20.9929C212.974 20.9976 213.025 21.0064 213.075 21.019L217.897 22.2347C218.091 22.2837 218.266 22.3898 218.399 22.5394L224.742 29.6623C224.81 29.7382 224.866 29.8239 224.907 29.9165L228.365 37.5898C228.663 38.2516 228.18 39.0019 227.454 39.0076C220.993 39.059 213 39.3119 213 37.0005Z" fill="#EAA292" stroke="#2B1B1B" stroke-width="8"/>
<path d="M213 88.0405C213 90.0175 209.781 93.7204 208.194 103.246C208.088 103.883 208.618 104.444 209.261 104.385L212.923 104.048C212.974 104.043 213.025 104.035 213.075 104.022L217.897 102.806C218.091 102.757 218.266 102.651 218.399 102.502L224.742 95.3787C224.81 95.3028 224.866 95.2171 224.907 95.1245L228.365 87.4512C228.663 86.7894 228.18 86.0392 227.454 86.0334C220.993 85.9821 213 85.7291 213 88.0405Z" fill="#EAA292" stroke="#2B1B1B" stroke-width="8"/>
<path d="M141.787 113.572C141.358 115.172 142.308 116.817 143.908 117.246L146.27 117.879C149.176 118.658 152.162 116.934 152.94 114.028L154.978 106.422C155.693 103.755 154.11 101.013 151.443 100.298L150.582 100.067C147.914 99.3527 145.173 100.936 144.458 103.603L141.787 113.572Z" fill="#CF4646" stroke="#2B1B1B" stroke-width="8"/>
<path d="M200 57C201.248 61.2947 201.316 63.7125 200 68.0059" stroke="#2B1B1B" stroke-width="10" stroke-linecap="round"/>
<path d="M200 57C201.248 61.2947 201.316 63.7125 200 68.0059" stroke="#7A5252" stroke-width="3" stroke-linecap="round"/>
<path d="M193 57C194.248 61.2947 194.316 63.7125 193 68.0059" stroke="#2B1B1B" stroke-width="10" stroke-linecap="round"/>
<path d="M193 57C194.248 61.2947 194.316 63.7125 193 68.0059" stroke="#7A5252" stroke-width="3" stroke-linecap="round"/>
</svg>
