<svg width="10000" height="10000" viewBox="0 0 10000 10000" fill="none" xmlns="http://www.w3.org/2000/svg">
<path opacity="0.4" d="M1858.45 442.553L2009.45 444.987C2290.46 449.518 2479.3 734.801 2373.69 995.246L2264.67 1264.11C2239.94 1325.09 2200.54 1379.03 2149.98 1421.15L2108 1456.12C1847.45 1673.13 1452 1487.85 1452 1148.77L1452 842.501C1452 619.064 1635.04 438.951 1858.45 442.553Z" fill="#D9A692"/>
<path opacity="0.4" d="M1778.75 3608.49L2091.46 3263.58C2235.89 3104.28 2480.42 3087.66 2645.07 3225.96L2665.71 3243.3C2690.15 3263.83 2712.04 3287.2 2730.92 3312.93L3052.32 3750.88C3189.55 3937.87 3139.47 4202.01 2943.32 4325.8L2701.85 4478.2C2571.02 4560.77 2404.3 4560.49 2273.75 4477.48L1860.47 4214.7C1651.2 4081.65 1612.18 3792.2 1778.75 3608.49Z" fill="#D9A692"/>
<path opacity="0.4" d="M3520.58 2542.87L3702.88 2285.62C3737.51 2236.75 3782.67 2196.28 3835.03 2167.2L4049.14 2048.29C4109 2015.05 4176.38 1997.72 4244.85 1997.98L4775.69 1999.97C5027.99 2000.92 5216.41 2232.36 5166.18 2479.61L5126.69 2673.97C5102.47 2793.19 5025.31 2894.91 4917.03 2950.36L4303.29 3264.68C4190.94 3322.22 4058.02 3323.35 3944.7 3267.72L3670.68 3133.21C3449.52 3024.65 3378.13 2743.88 3520.58 2542.87Z" fill="#D9A692"/>
<path opacity="0.4" d="M6461.95 105.436L6750.61 232.263C6805.45 256.355 6854.17 292.454 6893.19 337.895L7052.74 523.71C7097.34 575.656 7127.86 638.181 7141.38 705.299L7246.21 1225.69C7296.04 1473.02 7107.23 1704.15 6854.93 1704.68L6656.59 1705.09C6534.94 1705.34 6419.78 1650.22 6343.68 1555.31L5912.34 1017.34C5833.37 918.86 5805.53 788.88 5837.22 666.692L5913.86 371.218C5975.72 132.738 6236.39 6.33343 6461.95 105.436Z" fill="#D9A692"/>
<path opacity="0.4" d="M4236.01 5950.39L4442.89 6077.73C4493.53 6108.9 4536.58 6150.97 4568.91 6200.87L4683.04 6377.01C4720.14 6434.27 4741.98 6500.08 4746.47 6568.17L4774.93 6999.53C4791.62 7252.45 4571.86 7456.92 4320.79 7422.06L4199.03 7405.16C4079.32 7388.54 3973.55 7318.68 3911.26 7215.11L3600.95 6699.15C3535.89 6590.97 3525.71 6458.43 3573.5 6341.58L3656.1 6139.62C3749.56 5911.07 4025.73 5820.96 4236.01 5950.39Z" fill="#D9A692"/>
<path opacity="0.4" d="M4117.68 4204.47L4210.59 4036.34C4301.33 3872.14 4493.99 3793.06 4673.92 3846.16L5128.98 3980.46C5232.52 4011.02 5319.3 4082.13 5369.63 4177.63L5531.67 4485.11C5625.77 4663.69 5572.08 4884.39 5406.46 4999.78L5181.94 5156.22C5096.33 5215.87 4990.81 5239.71 4887.87 5222.65L4558.33 5168.04C4422.16 5145.47 4307.25 5054.3 4254.31 4926.83L4098.38 4551.35C4051.64 4438.82 4058.75 4311.12 4117.68 4204.47Z" fill="#D9A692"/>
<path opacity="0.4" d="M2671.75 6060.9L2863.24 6076.2C3050.24 6091.14 3201.74 6234.04 3227.57 6419.86L3292.89 6889.81C3307.75 6996.73 3278.77 7105.12 3212.52 7190.35L2999.23 7464.78C2875.36 7624.15 2652.15 7666.26 2478.73 7562.97L2243.62 7422.95C2153.97 7369.56 2088.74 7283.26 2061.83 7182.45L1975.67 6859.71C1940.07 6726.36 1975.74 6584.07 2070.03 6483.28L2347.79 6186.37C2431.03 6097.39 2550.29 6051.2 2671.75 6060.9Z" fill="#D9A692"/>
<path opacity="0.4" d="M818.398 4336.86L1363.95 4303.25C1610.75 4288.04 1800.91 4517.48 1740.17 4757.17C1702.78 4904.72 1760.89 5059.98 1885.96 5146.72L2158.2 5335.52C2408.67 5509.23 2374.06 5889.71 2096.37 6015.38C2007.34 6055.67 1906.48 6061.28 1813.53 6031.13L719.564 5676.22C554.668 5622.72 443 5469.1 443 5295.74L443 4736.1C443 4524.74 607.438 4349.86 818.398 4336.86Z" fill="#D9A692"/>
<path opacity="0.4" d="M7067.82 6031.99L6680.24 6186.96C6600.62 6218.8 6512.87 6224.21 6429.94 6202.39L5917.89 6067.65C5798.77 6036.31 5700.73 5951.83 5652.13 5838.65L5597.48 5711.4C5477.46 5431.89 5700.98 5126.01 6003.74 5155.45L6141.91 5168.89C6308.31 5185.07 6466.35 5092.81 6534.09 4939.97C6637.18 4707.31 6932.61 4635.28 7131.22 4794.38L7250.99 4890.33C7365.26 4981.87 7420.39 5128.52 7394.71 5272.67L7313.11 5730.73C7288.87 5866.78 7196.13 5980.68 7067.82 6031.99Z" fill="#D9A692"/>
<path opacity="0.4" d="M4678.86 8975.9L4306.55 9024.48C4143 9045.82 3983.12 8964.58 3903.92 8819.9L3717.65 8479.59C3658.51 8371.54 3652.44 8242.27 3701.21 8129.16L3818.29 7857.62C3922.15 7616.73 4225.87 7539.34 4432.34 7701.16L4825.58 8009.35C4868.96 8043.35 4918.91 8068.02 4972.27 8081.8L5380.28 8187.21C5614.35 8247.68 5724.28 8516.4 5599.7 8723.58C5542.31 8819.04 5444.12 8882.71 5333.55 8896.17L4678.86 8975.9Z" fill="#D9A692"/>
<path opacity="0.4" d="M481.902 9306.03L405.844 9196.62C298.494 9042.19 313.225 8833.84 441.234 8696.05L683.505 8435.27C743.753 8370.42 823.81 8327.39 911.135 8312.91L1006.8 8297.05C1317.27 8245.58 1562.83 8556.24 1441.06 8846.44L1399.03 8946.61C1374.6 9004.83 1364.3 9068.01 1368.97 9130.97L1386.65 9369.42C1402.46 9582.55 1240.42 9767.23 1027.04 9779.25C892.819 9786.82 764.494 9723.3 689.11 9611.99L481.902 9306.03Z" fill="#D9A692"/>
<path opacity="0.4" d="M8654.27 9297.87L8178.32 9744.78C8116.81 9802.54 8038.62 9839.36 7954.92 9850L7432.22 9916.4C7279.08 9935.85 7128.42 9865.45 7045.09 9735.51L6883.93 9484.18C6741.52 9262.1 6849.33 8965.4 7101.08 8886.54L7531.7 8751.66C7670.1 8708.31 7774.2 8593.44 7803.75 8451.46L7860.95 8176.61C7912.03 7931.24 8173.58 7792.74 8405.24 7888.4L8537.44 7943C8687.96 8005.15 8785.77 8152.35 8784.76 8315.2L8780.46 9008.75C8779.78 9118.34 8734.16 9222.85 8654.27 9297.87Z" fill="#D9A692"/>
<path opacity="0.4" d="M2934.43 4989.61L3165.12 4627.21C3220.38 4540.4 3313.73 4485.14 3416.42 4478.45C3605.06 4466.15 3763.84 4617.89 3760.12 4806.89L3750.74 5283.01C3747.1 5467.6 3617.6 5625.72 3437.35 5665.66L3391.62 5675.79C3201.71 5717.87 3009.05 5617.23 2935.12 5437.31L2901.89 5356.45C2852.45 5236.15 2864.59 5099.33 2934.43 4989.61Z" fill="#D9A692"/>
<path opacity="0.4" d="M2460.97 1654.75L2799.45 1016.52C2863.76 895.255 2985.75 815.435 3122.62 805.069L3222.82 797.479C3367.54 786.517 3506.84 854.801 3586.82 975.904L3718.42 1175.19C3814.25 1320.29 3805.36 1510.67 3696.42 1646.2L3479.14 1916.56C3430.28 1977.34 3364.73 2022.52 3290.54 2046.53L2896.68 2174.02C2694.48 2239.47 2479.27 2119.38 2428.81 1912.93C2407.52 1825.84 2418.96 1733.96 2460.97 1654.75Z" fill="#D9A692"/>
<path opacity="0.4" d="M584.666 2897.8L310.103 2422.29C241.836 2304.06 238.957 2159.08 302.476 2038.24C369.638 1910.46 500.741 1829.08 645.052 1825.6L743.357 1823.23C917.19 1819.04 1073.82 1927.63 1130.87 2091.89L1198.61 2286.96C1224.2 2360.63 1227.69 2440.16 1208.66 2515.78L1131.75 2821.49C1089.49 2989.44 913.466 3086.12 749.061 3031.68C679.703 3008.71 621.2 2961.07 584.666 2897.8Z" fill="#D9A692"/>
<path opacity="0.4" d="M5895.8 3389.56L5835.52 3081.05C5810.71 2954.07 5848.85 2822.93 5937.89 2729.06L6161.81 2493.01C6234.21 2416.69 6333.75 2371.96 6438.88 2368.51L6748.92 2358.32C7000.83 2350.04 7197.53 2574 7156.8 2822.74L7133.71 2963.75C7124.56 3019.62 7103.65 3072.92 7072.37 3120.11L6794.9 3538.71C6718.6 3653.83 6588.31 3721.44 6450.26 3717.56L6277.14 3712.7C6090.09 3707.44 5931.68 3573.21 5895.8 3389.56Z" fill="#D9A692"/>
<path opacity="0.4" d="M7456.55 4120.95L7529.26 4037C7685.75 3856.3 7964.74 3852.3 8126.35 4028.42L8138.18 4041.31C8330.94 4251.38 8248.31 4589.92 7980.44 4687.56L7873.74 4726.45C7738.62 4775.71 7587.26 4744.42 7482.75 4645.62C7334.98 4505.93 7323.44 4274.66 7456.55 4120.95Z" fill="#D9A692"/>
<path opacity="0.4" d="M5735.81 2109.48L5682.39 2084.84C5529.75 2014.44 5487.24 1817.33 5597.28 1690.27C5703.19 1567.98 5895.17 1575.44 5991.27 1705.59L6026.21 1752.91C6066.5 1807.47 6081.53 1876.67 6067.5 1943.02C6035.98 2092.1 5874.17 2173.31 5735.81 2109.48Z" fill="#D9A692"/>
<path opacity="0.4" d="M2555.55 2616.68L2579 2559.55C2645.98 2396.31 2850.78 2342.87 2988.99 2452.57C3122 2558.15 3122.8 2759.83 2990.62 2866.46L2942.56 2905.23C2887.14 2949.94 2815.25 2968.8 2745.03 2957.07C2587.26 2930.71 2494.83 2764.66 2555.55 2616.68Z" fill="#D9A692"/>
<path opacity="0.4" d="M8521.41 1892.31L9086.27 2487.97C9232.14 2641.8 9232.67 2882.71 9087.48 3037.17L8588.37 3568.15C8489.51 3673.32 8341.65 3717.08 8201.48 3682.64L7832.16 3591.9C7610.9 3537.54 7479.66 3309.61 7543.74 3090.97L7847.31 2055.06C7934.06 1759.01 8309.13 1668.45 8521.41 1892.31Z" fill="#D9A692"/>
<path opacity="0.4" d="M9403.62 2203.01L9282.03 2050.94C9122.19 1851.03 9243.97 1553.29 9498.1 1522.71C9646.63 1504.83 9788.32 1590.16 9841.99 1729.8L9911.84 1911.54C9944.86 1997.45 9936.1 2093.83 9888.13 2172.39C9780.96 2347.87 9532.03 2363.61 9403.62 2203.01Z" fill="#D9A692"/>
<path opacity="0.4" d="M9949.53 3391.67L9916.99 3311.11C9845.79 3134.83 9610.09 3102.46 9494 3253.01C9425.29 3342.12 9425.78 3466.49 9495.2 3555.05L9548.8 3623.44C9649.3 3751.64 9846.82 3740.33 9932.02 3601.49C9970.8 3538.29 9977.3 3460.43 9949.53 3391.67Z" fill="#D9A692"/>
<path opacity="0.4" d="M7778.28 1060.65L8301.91 397.537C8408.67 262.333 8590.01 210.673 8751.99 269.314L9459.74 525.527C9643.75 592.14 9752.54 782.107 9716.89 974.526L9712.65 997.399C9667.18 1242.77 9410.6 1387.06 9177.31 1298.45L8916.38 1199.34C8782.14 1148.35 8630.87 1173.23 8520.03 1264.53L8230.17 1503.3C8108.09 1603.86 7930.67 1599.45 7813.74 1492.95C7690.27 1380.5 7674.79 1191.71 7778.28 1060.65Z" fill="#D9A692"/>
<path opacity="0.4" d="M7532.7 7806.22L7008.44 8437.92C6873.06 8601.04 6633.92 8630.22 6463.28 8504.43L5876.71 8072.02C5760.53 7986.37 5699.5 7844.76 5717.02 7701.49L5763.19 7324C5790.85 7097.84 6001.55 6940.43 6226.27 6978.05L7290.93 7156.25C7595.2 7207.18 7729.72 7568.82 7532.7 7806.22Z" fill="#D9A692"/>
<path opacity="0.4" d="M9427.53 5190.24L9041.25 5152.61C8857.75 5134.74 8710.23 4993.75 8684.08 4811.25L8618.21 4351.68C8594.59 4186.89 8675.5 4024.71 8821.34 3944.47L8916.31 3892.22C9099.89 3791.21 9330.3 3848.99 9444.5 4024.66L9801.68 4574.12C9984.36 4855.14 9761.13 5222.74 9427.53 5190.24Z" fill="#D9A692"/>
<path opacity="0.4" d="M8536.88 7682.18L8100.83 6830.38C8016.81 6666.27 8055.86 6465.99 8195.36 6345.44L8630.46 5969.49C8756.42 5860.66 8936.62 5841.21 9082.9 5920.66L9418.85 6103.13C9518 6156.98 9589.8 6250.21 9616.54 6359.83L9797.86 7103.1C9839.77 7274.92 9763.87 7453.88 9611.21 7543.17L9094.89 7845.18C8896.59 7961.17 8641.56 7886.67 8536.88 7682.18Z" fill="#D9A692"/>
<path opacity="0.4" d="M7043.85 6410.81L7105.92 6313.29C7181.12 6195.11 7327.36 6143.64 7460.01 6188.67L7473.22 6193.16C7585.03 6231.12 7661.65 6334.36 7665.59 6452.37C7668.26 6532.36 7637.02 6609.76 7579.57 6665.49L7477.71 6764.3C7388.29 6851.03 7252.53 6868.75 7143.85 6807.87C7002.68 6728.79 6956.98 6547.32 7043.85 6410.81Z" fill="#D9A692"/>
<path opacity="0.4" d="M5462.68 6019.47L5673.36 6149C5793.62 6222.93 5866 6354.79 5863.81 6495.94L5861.7 6632.38C5859.33 6784.88 5740.15 6909.94 5587.94 6919.63C5508.78 6924.67 5430.97 6897.33 5372.36 6843.88L5057.92 6557.13C4970.55 6477.45 4931.17 6357.92 4954.08 6241.91C4999.72 6010.75 5261.96 5896.06 5462.68 6019.47Z" fill="#D9A692"/>
<path opacity="0.4" d="M7798.47 5135.23L7924 5009.19C8106.4 4826.04 8412.01 4861.38 8547.79 5081.33L8558.48 5098.64C8617.81 5194.74 8633.74 5311.44 8602.36 5419.93L8532.58 5661.09C8503.11 5762.96 8434.39 5848.96 8341.53 5900.17L8332.46 5905.18C8124 6020.16 7861.86 5928.72 7770.14 5709.02L7712.77 5571.59C7650.4 5422.2 7684.23 5249.94 7798.47 5135.23Z" fill="#D9A692"/>
<path opacity="0.4" d="M4539.55 1204.67L4563 1147.54C4629.98 984.299 4834.78 930.859 4972.99 1040.56C5106 1146.14 5106.8 1347.82 4974.62 1454.45L4926.56 1493.22C4871.14 1537.93 4799.25 1556.79 4729.03 1545.06C4571.26 1518.7 4478.83 1352.65 4539.55 1204.67Z" fill="#D9A692"/>
<path opacity="0.4" d="M6685.67 4422.37L6559.62 4457.11C6386.18 4504.91 6213.16 4379.54 6204.56 4199.84C6200.72 4119.71 6231.34 4041.76 6288.69 3985.67L6314.01 3960.91C6416.05 3861.12 6570.68 3838.25 6697.23 3904.23L6738.44 3925.71C6844.72 3981.12 6901.37 4100.29 6877.24 4217.7C6856.93 4316.5 6782.92 4395.58 6685.67 4422.37Z" fill="#D9A692"/>
<path opacity="0.4" d="M3000.19 9773.07L2826.75 9737.23C2588.11 9687.92 2456.76 9430.06 2557.19 9208.04C2601.97 9109.03 2686.96 9033.91 2790.72 9001.63L2868.99 8977.27C3034.2 8925.87 3213.74 8986.52 3313.94 9127.59L3370.08 9206.63C3464.08 9338.99 3458.92 9517.64 3357.42 9644.35C3272 9750.99 3134 9800.71 3000.19 9773.07Z" fill="#D9A692"/>
<path opacity="0.4" d="M2425.78 8772.93L2199.43 8796.41C1969.5 8820.27 1773.26 8631.8 1787.8 8401.09C1806.94 8097.72 2160.92 7942.83 2396.73 8134.65L2573.26 8278.25C2633.08 8326.9 2670.13 8398.12 2675.64 8475.02C2686.43 8625.49 2575.83 8757.36 2425.78 8772.93Z" fill="#D9A692"/>
<path opacity="0.4" d="M4464.69 79.0854L4593.33 138.172C4897.65 277.954 4905.74 707.471 4606.89 858.609L4533.13 895.912C4468.74 928.477 4396.74 943.017 4324.76 937.993L4206.73 929.754C3894.51 907.96 3727.15 552.219 3909.41 297.788L3972.55 209.638C4084.15 53.8534 4290.55 -0.90027 4464.69 79.0854Z" fill="#D9A692"/>
<path opacity="0.4" d="M652.318 1082.18L576.597 1047.25C360.23 947.445 299.967 668.046 455.958 487.928C606.088 314.576 878.229 325.156 1014.45 509.64L1063.98 576.724C1121.09 654.07 1142.39 752.151 1122.5 846.217C1077.82 1057.54 848.453 1172.65 652.318 1082.18Z" fill="#D9A692"/>
<path opacity="0.4" d="M722.315 7034.77L548.877 6998.93C310.238 6949.62 178.884 6691.76 279.311 6469.74C324.094 6370.73 409.087 6295.61 512.844 6263.33L591.112 6238.97C756.329 6187.57 935.867 6248.22 1036.06 6389.29L1092.2 6468.33C1186.21 6600.69 1181.04 6779.34 1079.55 6906.05C994.126 7012.69 856.12 7062.41 722.315 7034.77Z" fill="#D9A692"/>
<path opacity="0.4" d="M5973.32 9773.77L5799.88 9737.93C5561.24 9688.62 5429.88 9430.76 5530.31 9208.74C5575.09 9109.73 5660.09 9034.61 5763.84 9002.33L5842.11 8977.97C6007.33 8926.57 6186.87 8987.22 6287.06 9128.29L6343.2 9207.33C6437.21 9339.69 6432.04 9518.34 6330.55 9645.05C6245.13 9751.69 6107.12 9801.41 5973.32 9773.77Z" fill="#D9A692"/>
<path opacity="0.4" d="M9261.21 9135.71L9258.3 9022.82C9254.31 8867.49 9395.37 8748.52 9547.8 8778.67C9615.77 8792.12 9674.74 8834 9709.84 8893.74L9725.33 8920.12C9787.76 9026.4 9774.78 9160.78 9693.16 9253.15L9666.58 9283.22C9598.03 9360.79 9486.35 9383.5 9392.95 9338.86C9314.35 9301.28 9263.45 9222.8 9261.21 9135.71Z" fill="#D9A692"/>
</svg>
