<svg width="28" height="30" viewBox="0 0 28 30" fill="none" xmlns="http://www.w3.org/2000/svg">
<path fill-rule="evenodd" clip-rule="evenodd" d="M3 8.57143C1.34315 8.57143 0 9.91457 0 11.5714V23C0 26.866 3.134 30 7 30H20.4286C24.2946 30 27.4286 26.866 27.4286 23V11.5714C27.4286 9.91457 26.0854 8.57143 24.4286 8.57143H3ZM8.57151 12C7.62473 12 6.85722 12.7675 6.85722 13.7143C6.85722 14.6611 7.62473 15.4286 8.57151 15.4286H18.8572C19.804 15.4286 20.5715 14.6611 20.5715 13.7143C20.5715 12.7675 19.804 12 18.8572 12H8.57151Z" fill="#FFE2D8"/>
<rect width="27.4286" height="6" rx="3" fill="#FFE2D8"/>
</svg>
