<svg width="220" height="110" viewBox="0 0 220 110" fill="none" xmlns="http://www.w3.org/2000/svg">
<path d="M15.9153 16.0195C13.2305 16.0195 7.98305 16.0201 6.30509 16.7154L6.15254 37.6862L6 78.8529L6.61017 91.2336C7.9322 92.9188 11.7661 94.0195 15.9153 94.0195H24C23.8983 86.7973 23.5424 66.4306 23.5424 54.2973C23.5424 42.164 23.7458 23.001 24 16.0196L15.9153 16.0195Z" fill="#292929"/>
<path d="M189.606 95.9614C204.91 95.9614 215 88.4202 215 54.6478C215 20.8754 205.841 12.9615 191 12.9615L27 12.9614C9 12.9621 4 15.7702 4 54.6478C4 93.5253 7 95.9614 27 95.9614H189.606Z" stroke="#161616" stroke-width="8"/>
<path d="M167.5 16.0195C176.3 16.0195 193.5 16.0201 199 16.7154L199.5 37.6862L200 78.8529L198 91.2336C193.667 92.9188 181.1 94.0195 167.5 94.0195H141C141.333 86.7973 142.5 66.4306 142.5 54.2973C142.5 42.164 141.833 23.001 141 16.0196L167.5 16.0195Z" fill="#292929"/>
<path d="M76.3644 16.0195C91.4288 16.0195 120.873 16.0201 130.288 16.7154L131.144 37.6862L132 78.8529L128.576 91.2336C121.158 92.9188 99.6458 94.0195 76.3644 94.0195H31C31.5706 86.7973 33.5678 66.4306 33.5678 54.2973C33.5678 42.164 32.4266 23.001 31 16.0196L76.3644 16.0195Z" fill="#D1D1D1"/>
<path d="M58.5427 26.992L94.0331 26.9952C104.149 26.9952 106.889 25.9269 111 15C86.1679 14.7102 59.5093 15.419 40.2019 15C38.8316 19.3728 44.7695 21.7522 47.9669 23.7179C53.8585 25.7114 54.8964 26.2171 58.5427 26.992Z" fill="#727994"/>
<path d="M58.5427 26.992L94.0331 26.9952C104.149 26.9952 106.889 25.9269 111 15C86.1679 14.7102 59.5093 15.419 40.2019 15C38.8316 19.3728 44.7695 21.7522 47.9669 23.7179C53.8585 25.7114 54.8963 26.2171 58.5427 26.992ZM58.5427 26.992H94.0331" stroke="#161616" stroke-width="8"/>
<path d="M142.999 54.6258C142.999 36.9609 138.903 16.8312 138.903 16.8312C138.903 16.8312 114.697 17.7253 110.601 21.3018C106.506 24.8782 105.139 83.89 110.601 87.4665C116.063 91.0429 138.903 92.8312 138.903 92.8312C138.903 92.8312 142.999 72.2906 142.999 54.6258Z" fill="#727994" stroke="#161616" stroke-width="8"/>
<path d="M36.4409 89.1207C38.8851 85.2755 40 71.8478 40 54.9659C40 38.084 38.8851 24.6564 36.4409 20.8112C33.9966 16.966 23.1118 19.9272 20.6673 22.4906C18.2228 25.0541 17 35.7539 17 54.9659C17 74.1779 18.2228 84.8778 20.6673 87.4412C23.1118 90.0047 33.9966 92.9659 36.4409 89.1207Z" fill="#727994" stroke="#161616" stroke-width="8"/>
<path d="M204.802 27.9611H204.163C200.648 27.9611 197.916 30.9598 198.177 34.4236C199.388 50.4628 199.5 60.2992 198.193 76.4633C197.912 79.9353 200.645 82.9611 204.177 82.9611H205.477C208.63 82.9611 211.26 80.5127 211.459 77.3468C212.52 60.5001 211.868 50.1743 210.789 33.574C210.585 30.4232 207.97 27.9611 204.802 27.9611Z" fill="#494949" stroke="#161616" stroke-width="8"/>
<path d="M58.5427 83.0032L94.0331 83C104.149 83 106.889 84.0731 111 95C86.1679 95.2898 59.5093 94.581 40.2019 95C38.8316 90.6272 44.7695 88.2431 47.9669 86.2774C53.8585 84.2838 54.8964 83.7782 58.5427 83.0032Z" fill="#727994"/>
<path d="M58.5427 83.0032L94.0331 83C104.149 83 106.889 84.0731 111 95C86.1679 95.2898 59.5093 94.581 40.2019 95C38.8316 90.6272 44.7695 88.2431 47.9669 86.2774C53.8585 84.2838 54.8963 83.7782 58.5427 83.0032ZM58.5427 83.0032H94.0331" stroke="#161616" stroke-width="8"/>
<path d="M191.5 29.4611C192.203 28.0387 190.741 22.7816 188.128 17.3213C187.147 15.2709 188.738 12.7784 191 13L197.775 14.0499C198.692 14.1921 199.532 14.6491 200.149 15.3425L205.436 21.2788C205.706 21.5823 205.928 21.9253 206.095 22.2958L207.457 25.3174C208.649 27.9646 206.714 30.9769 203.81 30.9605C197.581 30.9254 190.89 30.6956 191.5 29.4611Z" fill="#FBDAAA" stroke="#161616" stroke-width="8"/>
<path d="M191.5 79.5051C192.203 80.9275 190.741 86.1846 188.128 91.6448C187.147 93.6953 188.738 96.1878 191 95.9662L197.775 94.9163C198.692 94.7741 199.532 94.3171 200.149 93.6236L205.436 87.6874C205.706 87.3838 205.928 87.0409 206.095 86.6704L207.457 83.6487C208.649 81.0016 206.714 77.9893 203.81 78.0057C197.581 78.0408 190.89 78.2706 191.5 79.5051Z" fill="#FBDAAA" stroke="#161616" stroke-width="8"/>
<path d="M116.58 100.989C116.137 102.585 117.077 104.215 118.681 104.629L121.025 105.235C123.937 105.987 126.95 104.248 127.756 101.35L128.016 100.414C128.755 97.7533 127.187 95.0365 124.513 94.3458L123.675 94.1292C121.001 93.4385 118.235 95.0354 117.495 97.696L116.58 100.989Z" fill="#343434" stroke="#161616" stroke-width="8"/>
<path d="M116.541 8.62788C116.097 7.03153 117.038 5.40147 118.642 4.98704L120.985 4.3817C123.897 3.62941 126.911 5.36868 127.716 8.26648L128.016 9.34435C128.755 12.0049 127.187 14.7217 124.513 15.4124L123.675 15.629C121.001 16.3197 118.234 14.7228 117.495 12.0622L116.541 8.62788Z" fill="#343434" stroke="#161616" stroke-width="8"/>
<rect x="72.5" y="13.5195" width="14" height="80" rx="6.5" fill="#D9D9D9" stroke="#212121" stroke-width="7"/>
<rect x="72.5" y="13.5195" width="14" height="27" rx="6.5" fill="#BA5050" stroke="#302626" stroke-width="7"/>
<rect x="72.5" y="67.5195" width="14" height="27" rx="6.5" fill="#5067BA" stroke="#1F2330" stroke-width="7"/>
</svg>
