<svg width="219" height="110" viewBox="0 0 219 110" fill="none" xmlns="http://www.w3.org/2000/svg">
<path d="M189.606 95.9955C204.91 95.9955 215 88.4543 215 54.6819C215 20.9094 205.841 12.9956 191 12.9956L118.33 12.9955H46.293C46.293 12.9955 45 12.9948 27 12.9955C9 12.9962 4 15.8043 4 54.6819C4 93.5594 7 95.9955 27 95.9955C47 95.9955 48.1521 95.9955 48.1521 95.9955H189.606Z" fill="#BF3232" stroke="#2B1B1B" stroke-width="8"/>
<path d="M142.999 54.6598C142.999 36.995 138.903 16.8652 138.903 16.8652C138.903 16.8652 114.697 17.7594 110.601 21.3358C106.506 24.9123 105.139 83.9241 110.601 87.5005C116.063 91.077 138.903 92.8652 138.903 92.8652C138.903 92.8652 142.999 72.3247 142.999 54.6598Z" fill="#947286" stroke="#2B1B1B" stroke-width="8"/>
<path d="M36.4409 89.1548C38.8851 85.3096 40 71.8819 40 55C40 38.1181 38.8851 24.6904 36.4409 20.8452C33.9966 17 23.1118 19.9612 20.6673 22.5247C18.2228 25.0882 17 35.788 17 55C17 74.212 18.2228 84.9118 20.6673 87.4753C23.1118 90.0388 33.9966 93 36.4409 89.1548Z" fill="#947286" stroke="#2B1B1B" stroke-width="8"/>
<path d="M204.802 27.9951H204.163C200.648 27.9951 197.916 30.9938 198.177 34.4576C199.388 50.4968 199.5 60.3332 198.193 76.4973C197.912 79.9693 200.645 82.9951 204.177 82.9951H205.477C208.63 82.9951 211.26 80.5468 211.459 77.3808C212.52 60.5341 211.868 50.2083 210.789 33.6081C210.585 30.4573 207.97 27.9951 204.802 27.9951Z" fill="#563535" stroke="#2B1B1B" stroke-width="8"/>
<path d="M58.5427 85.0032L94.0331 85C104.149 85 106.889 86.2351 111 97.162C84.9646 99.2012 58.4724 97.0142 40.2019 95.9233C38.8316 91.5506 44.7695 90.243 47.9669 88.2773C53.8585 86.2838 54.8963 85.7781 58.5427 85.0032Z" fill="#947286"/>
<path d="M58.5427 85.0032L94.0331 85C104.149 85 106.889 86.2351 111 97.162C84.9646 99.2012 58.4724 97.0142 40.2019 95.9233C38.8316 91.5506 44.7695 90.243 47.9669 88.2773C53.8585 86.2838 54.8963 85.7781 58.5427 85.0032ZM58.5427 85.0032H94.0331" stroke="#2B1B1B" stroke-width="8"/>
<path d="M58.5427 24.9968L94.0331 25C104.149 25 106.889 23.7458 111 12.6502C84.9646 10.5795 58.4724 14.0194 40.2019 15.1271C38.8316 19.5674 44.7695 19.676 47.9669 21.6721C53.8585 23.6964 54.8963 24.2099 58.5427 24.9968Z" fill="#947286"/>
<path d="M58.5427 24.9968L94.0331 25C104.149 25 106.889 23.7458 111 12.6502C84.9646 10.5795 58.4724 14.0194 40.2019 15.1271C38.8316 19.5674 44.7695 19.676 47.9669 21.6721C53.8585 23.6964 54.8963 24.2099 58.5427 24.9968ZM58.5427 24.9968H94.0331" stroke="#2B1B1B" stroke-width="8"/>
<path d="M191.5 29.4951C192.208 28.0624 190.72 22.7391 188.071 17.2365C187.05 15.1158 188.541 12.5156 190.895 12.5315C191.106 12.5329 191.318 12.5568 191.524 12.6027L197.933 14.0241C198.753 14.206 199.495 14.6416 200.054 15.269L205.436 21.3129C205.706 21.6164 205.928 21.9593 206.095 22.3299L207.457 25.3515C208.649 27.9986 206.714 31.011 203.81 30.9946C197.581 30.9595 190.89 30.7296 191.5 29.4951Z" fill="#EAA292" stroke="#2B1B1B" stroke-width="8"/>
<path d="M192.001 80.5C192.709 81.9327 191.221 87.256 188.572 92.7587C187.551 94.8793 189.042 97.4795 191.396 97.4636C191.607 97.4622 191.819 97.4383 192.025 97.3924L198.433 95.971C199.254 95.7891 199.996 95.3535 200.554 94.7261L205.937 88.6822C206.207 88.3787 206.429 88.0358 206.596 87.6652L207.958 84.6436C209.15 81.9965 207.215 78.9842 204.311 79.0005C198.082 79.0357 191.391 79.2655 192.001 80.5Z" fill="#EAA292" stroke="#2B1B1B" stroke-width="8"/>
<path d="M116.58 101.023C116.137 102.619 117.077 104.249 118.681 104.663L121.025 105.269C123.937 106.021 126.95 104.282 127.756 101.384L128.016 100.448C128.755 97.7874 127.187 95.0706 124.513 94.3799L123.675 94.1633C121.001 93.4726 118.235 95.0695 117.495 97.7301L116.58 101.023Z" fill="#CF4646" stroke="#2B1B1B" stroke-width="8"/>
<path d="M180.999 46.998C182.247 52.8514 182.315 56.1465 180.999 61.998" stroke="#2B1B1B" stroke-width="8" stroke-linecap="round"/>
<path d="M170.999 46.998C172.247 52.8514 172.315 56.1465 170.999 61.998" stroke="#2B1B1B" stroke-width="8" stroke-linecap="round"/>
<path d="M116.541 8.66194C116.097 7.06558 117.038 5.43552 118.642 5.02109L120.985 4.41576C123.897 3.66346 126.911 5.40274 127.716 8.30054L128.016 9.37841C128.755 12.039 127.187 14.7558 124.513 15.4465L123.675 15.6631C121.001 16.3538 118.234 14.7569 117.495 12.0963L116.541 8.66194Z" fill="#CF4646" stroke="#2B1B1B" stroke-width="8"/>
</svg>
