<svg width="246" height="142" viewBox="0 0 246 142" fill="none" xmlns="http://www.w3.org/2000/svg">
<path d="M196.5 126.983C196.5 126.983 197.095 128 213.56 128C230.025 128 242 115.011 242 70.5086C242 26.0065 229.526 11 213.56 11C197.095 11 198 13.5435 198 13.5435L193.5 15.5783H138H60.5L53 12H26C9.53474 12 5 19.2795 5 70.5086C5 121.738 5.54 129 24.5 129H55.5L62.5 124.948H192L196.5 126.983Z" fill="#BF3232" stroke="#2B1B1B" stroke-width="8"/>
<path d="M176 113.37H217.5C221.992 106.93 227.803 100.728 226.759 96.8701C229.28 76.8685 228.729 63.3661 226.5 45.3701C227.725 39.385 222.579 33.1933 219 28.3701H176" stroke="#2B1B1B" stroke-width="8"/>
<path d="M162 71.0755C162 88.7404 157.904 108.87 157.904 108.87C157.904 108.87 133.698 107.976 129.602 104.4C125.507 100.823 124.14 41.8113 129.602 38.2348C135.064 34.6584 157.904 32.8701 157.904 32.8701C157.904 32.8701 162 53.4107 162 71.0755Z" fill="#947286" stroke="#2B1B1B" stroke-width="8"/>
<path d="M55.4409 31.1527C57.8851 35.6388 59 51.3044 59 71C59 90.6956 57.8851 106.361 55.4409 110.847C52.9966 115.333 42.1118 111.879 39.6673 108.888C37.2228 105.897 36 93.414 36 71C36 48.586 37.2228 36.1029 39.6673 33.1121C42.1118 30.1214 52.9966 26.6667 55.4409 31.1527Z" fill="#947286" stroke="#2B1B1B" stroke-width="8"/>
<path d="M6.5402 113.436L6.76423 115.004L8.00122 115.994L10.5 112.87C8.00122 115.994 8.00198 115.994 8.00274 115.995L8.00432 115.996L8.00769 115.999L8.01518 116.005L8.0332 116.019L8.08109 116.056C8.11807 116.085 8.16553 116.121 8.22213 116.163C8.33416 116.246 8.48795 116.357 8.67182 116.48C9.00483 116.702 9.58069 117.061 10.2644 117.334C10.7087 117.512 12.319 118.138 14.0949 117.428C16.5558 116.443 17 114.079 17 112.87C17 109.796 16.8727 106.36 16.749 103.018L16.7473 102.972C16.6216 99.5783 16.5 96.2817 16.5 93.3701C16.5 91.7032 15.8769 90.2665 14.8773 89.1955C13.9619 88.2147 12.8832 87.697 12.0953 87.4156C11.2849 87.1262 10.5315 86.9982 10.0197 86.9372C9.7535 86.9055 9.526 86.889 9.35421 86.8802C9.26776 86.8758 9.19387 86.8733 9.13452 86.8719C9.1048 86.8712 9.07858 86.8707 9.05612 86.8705L9.02521 86.8702L9.01189 86.8701L9.00576 86.8701L9.00284 86.8701C9.00141 86.8701 9 86.8701 9 90.8701V86.8701H4.86445L5.00222 91.0034L5.50222 106.003L5.50946 106.221L5.5402 106.436L6.5402 113.436Z" fill="#EAA292" stroke="#2B1B1B" stroke-width="8"/>
<path d="M6.5402 30.1931L6.76423 28.6249L8.00122 27.6353L10.5 30.7588C8.00122 27.6353 8.00198 27.6347 8.00274 27.6341L8.00432 27.6328L8.00769 27.6301L8.01518 27.6242L8.0332 27.61L8.08109 27.5726C8.11807 27.544 8.16553 27.5078 8.22213 27.4658C8.33416 27.3826 8.48795 27.2719 8.67182 27.1493C9.00483 26.9273 9.58069 26.5684 10.2644 26.2949C10.7087 26.1172 12.319 25.4908 14.0949 26.2011C16.5558 27.1855 17 29.5498 17 30.7588C17 33.833 16.8727 37.2688 16.749 40.6104L16.7473 40.6568C16.6216 44.0507 16.5 47.3472 16.5 50.2588C16.5 51.9257 15.8769 53.3624 14.8773 54.4334C13.9619 55.4142 12.8832 55.9319 12.0953 56.2133C11.2849 56.5027 10.5315 56.6308 10.0197 56.6917C9.7535 56.7234 9.526 56.7399 9.35421 56.7487C9.26776 56.7531 9.19387 56.7556 9.13452 56.757C9.1048 56.7578 9.07858 56.7582 9.05612 56.7584L9.02521 56.7587L9.01189 56.7588L9.00576 56.7588L9.00284 56.7588C9.00141 56.7588 9 56.7588 9 52.7588V56.7588H4.86445L5.00222 52.6255L5.50222 37.6255L5.50946 37.4083L5.5402 37.1931L6.5402 30.1931Z" fill="#EAA292" stroke="#2B1B1B" stroke-width="8"/>
<path d="M123.423 33.8789H84.573C73.5 33.8789 70.5 33.3701 66 28.3701M176 28.3788C157.5 28.3788 134.326 32.9088 123.423 33.8774H84.573" stroke="#2B1B1B" stroke-width="8"/>
<path d="M123.423 107.87H84.573C73.5 107.87 70 108.37 65.5 113.37M176 113.37C157.5 113.37 134.326 108.84 123.423 107.871H84.573" stroke="#2B1B1B" stroke-width="8"/>
<path d="M160 29.3701C127.5 29.3701 84.5 27.0439 50.5 28.8701" stroke="#2B1B1B" stroke-width="8"/>
<path d="M160 112C127.5 112 84.5 114.696 50.5 112.87" stroke="#2B1B1B" stroke-width="8"/>
<path d="M223.164 44C219.649 44 216.917 46.9987 217.178 50.4625C218.389 66.5017 218.501 76.3381 217.194 92.5022C216.913 95.9742 219.646 99 223.178 99H224.478C227.631 99 230.261 96.5517 230.46 93.3857C231.521 76.539 230.869 66.2132 229.79 49.613C229.586 46.4621 226.971 44 223.803 44H223.164Z" fill="#563535" stroke="#2B1B1B" stroke-width="8"/>
<path d="M118.107 101.003L78.1177 101C66.7199 101 63.632 102.235 59 113.162C88.3357 115.201 118.186 113.014 138.773 111.923C140.316 107.551 133.626 106.243 130.023 104.277C123.385 102.284 122.215 101.778 118.107 101.003Z" fill="#947286"/>
<path d="M118.107 101.003L78.1177 101C66.7199 101 63.632 102.235 59 113.162C88.3357 115.201 118.186 113.014 138.773 111.923C140.316 107.551 133.626 106.243 130.023 104.277C123.385 102.284 122.215 101.778 118.107 101.003ZM118.107 101.003H78.1177" stroke="#2B1B1B" stroke-width="8"/>
<path d="M118.107 40.9968L78.1177 41C66.7199 41 63.632 39.7458 59 28.6502C88.3357 26.5795 118.186 30.0194 138.773 31.1271C140.316 35.5674 133.626 35.676 130.023 37.6721C123.385 39.6964 122.215 40.2099 118.107 40.9968Z" fill="#947286"/>
<path d="M118.107 40.9968L78.1177 41C66.7199 41 63.632 39.7458 59 28.6502C88.3357 26.5795 118.186 30.0194 138.773 31.1271C140.316 35.5674 133.626 35.676 130.023 37.6721C123.385 39.6964 122.215 40.2099 118.107 40.9968ZM118.107 40.9968H78.1177" stroke="#2B1B1B" stroke-width="8"/>
<path d="M139.583 10.1927C139.154 8.5923 140.104 6.94729 141.704 6.51846L142.937 6.18807C146.583 5.211 150.332 7.37498 151.309 11.0215L154.765 23.919C155.479 26.5863 153.896 29.328 151.229 30.0427L150.155 30.3305C147.488 31.0452 144.746 29.4623 144.031 26.795L139.583 10.1927Z" fill="#CF4646" stroke="#2B1B1B" stroke-width="8"/>
<mask id="path-17-inside-1_2487_324" fill="white">
<rect x="17" y="27.8701" width="17" height="7" rx="2"/>
</mask>
<rect x="17" y="27.8701" width="17" height="7" rx="2" fill="#737373" stroke="#332727" stroke-width="7" mask="url(#path-17-inside-1_2487_324)"/>
<mask id="path-18-inside-2_2487_324" fill="white">
<rect x="17" y="106.87" width="17" height="7" rx="2"/>
</mask>
<rect x="17" y="106.87" width="17" height="7" rx="2" fill="#737373" stroke="#332727" stroke-width="7" mask="url(#path-18-inside-2_2487_324)"/>
<path d="M9 6.64992C9 5.32163 10.271 4.36236 11.5484 4.72655L18.1934 6.62111C21.63 7.6009 24 10.741 24 14.3145V128.526C24 132.369 21.2685 135.668 17.4938 136.386L11.3735 137.549C10.1412 137.783 9 136.838 9 135.584V6.64992Z" fill="#463737" stroke="#301F1F" stroke-width="8"/>
<path d="M214.039 45.2426C214.886 43.5304 209.558 36.4822 205.451 30.0238C205.03 29.3622 205.513 28.5068 206.297 28.5121L210.108 28.5378C210.179 28.5383 210.249 28.5462 210.318 28.5615L217.88 30.2388C218.085 30.2843 218.27 30.3932 218.41 30.5501L224.742 37.6612C224.81 37.7371 224.866 37.8228 224.907 37.9155L228.365 45.5887C228.663 46.2505 228.18 46.9997 227.454 46.9975C221.025 46.9786 213.272 46.7948 214.039 45.2426Z" fill="#EAA292" stroke="#2B1B1B" stroke-width="8"/>
<path d="M215.285 94.76C215.146 96.4262 209.935 104.868 207.444 111.705C207.212 112.342 207.692 113 208.37 113H212.011C212.161 113 212.308 112.967 212.443 112.902L218.893 109.817C219.026 109.753 219.143 109.661 219.237 109.546L225.097 102.354C225.159 102.278 225.209 102.194 225.246 102.104L228.43 94.3812C228.702 93.7229 228.218 92.9997 227.506 93.0014C221.749 93.0155 215.418 93.1671 215.285 94.76Z" fill="#EAA292" stroke="#2B1B1B" stroke-width="8"/>
<path d="M140.256 127.284C139.827 128.884 140.777 130.529 142.377 130.958L144.74 131.591C147.645 132.37 150.631 130.646 151.409 127.74L154.978 114.421C155.693 111.754 154.11 109.012 151.443 108.297L150.582 108.067C147.914 107.352 145.173 108.935 144.458 111.602L140.256 127.284Z" fill="#CF4646" stroke="#2B1B1B" stroke-width="8"/>
<path d="M200 63.0029C201.248 68.8563 201.316 72.1514 200 78.0029" stroke="#2B1B1B" stroke-width="8" stroke-linecap="round"/>
<path d="M190 63.0029C191.248 68.8563 191.316 72.1514 190 78.0029" stroke="#2B1B1B" stroke-width="8" stroke-linecap="round"/>
</svg>
